<?xml version="1.0" standalone="no"?>
<!DOCTYPE svg PUBLIC "-//W3C//DTD SVG 1.1//EN" "http://www.w3.org/Graphics/SVG/1.1/DTD/svg11.dtd" >
<svg xmlns="http://www.w3.org/2000/svg" xmlns:xlink="http://www.w3.org/1999/xlink" version="1.1">
<metadata></metadata>
<defs>
<font id="ice_tearegular" horiz-adv-x="819" >
<font-face units-per-em="2048" ascent="1638" descent="-410" />
<missing-glyph horiz-adv-x="508" />
<glyph unicode="&#xd;" horiz-adv-x="508" />
<glyph horiz-adv-x="0" />
<glyph horiz-adv-x="0" />
<glyph unicode=" "  horiz-adv-x="508" />
<glyph unicode="&#x09;" horiz-adv-x="508" />
<glyph unicode="&#xa0;" horiz-adv-x="508" />
<glyph unicode="!" horiz-adv-x="461" d="M50 95l8 11l8 12q9 13 17 19l11 10l11 9q15 10 29 10q66 -1 96 -20q4 -2 8 -9l3 -6l4 -6l10 -19q6 -11 11 -18q13 -20 31 -28q3 -32 -4 -42t-34 -15q-106 -18 -191 63q-5 5 -10 14l-4 7zM114 476l10 104l9 103q1 13 1 38l1 38l6 81l5 82l4 64l4 64l4 35l4 36q6 45 8 72 q3 61 -1 143q-3 69 58 47q54 -19 82 -38q61 -41 82 -135q18 -80 20 -218q0 -24 -4 -54l-5 -28l-4 -27q-13 -75 -31 -163q-3 -13 -8 -29l-10 -29l-9 -23l-9 -22q-11 -28 -15 -46q-7 -26 -12 -59l-9 -60l-8 -61q-4 -34 -5 -60q-1 -28 -21 -44q-8 -6 -20 -13l-11 -5l-10 -6 q-11 -6 -23 1q-8 4 -20 16q-69 70 -61 165l2 31h-4z" />
<glyph unicode="&#x22;" horiz-adv-x="523" d="M53 1326q1 62 7 127q0 5 7 11q6 6 12 8q28 7 58 -11q28 -17 39 -47q34 -93 13 -185q-8 -32 -30 -43q-23 -11 -51 6q-58 36 -48 88l-2 10l-2 11q-3 14 -3 25zM316 1304q1 62 7 127q1 5 7 11t12 8q29 7 58 -11q29 -17 39 -47q34 -92 13 -185q-7 -31 -29 -42q-23 -12 -51 5 q-58 36 -49 89l-2 9l-2 11q-3 15 -3 25z" />
<glyph unicode="#" horiz-adv-x="928" d="M50 654l9 4l9 5q10 5 18 6q18 3 56 6l28 3l29 3q7 1 16 5q8 6 10 11q10 30 25 78l25 79q7 24 -19 27l-41 6l-41 7q-39 6 -61 39q-9 12 -4 25q2 3 9 5q7 1 13 1q52 -4 127 -12q32 -4 38 1q8 5 16 36l19 84l19 83q6 27 13 31q8 5 33 -4q47 -16 46 -58q-1 -32 -7 -68l-7 -39 l-9 -38q-6 -27 20 -28l57 -3q34 -1 57 -1q19 0 28 15q8 14 17 33l16 35l25 58q16 35 27 57q9 17 22 18t24 -14q24 -33 17 -61q-5 -22 -10 -51l-8 -51q-4 -26 0 -32q4 -5 31 -8l31 -2l31 -2q36 -5 57 -13q6 -2 11 -9q6 -7 6 -13q0 -5 -7 -11t-13 -7q-14 -2 -40 -4l-19 -2 l-20 -3q-89 -14 -100 -23q-9 -7 -40 -90q-14 -38 -9 -45q6 -7 48 -6h38l1 3l47 -5q29 -3 48 -6q14 -2 21 -7q10 -7 9 -20q-4 -28 -34 -28q-39 -1 -73 -26q-8 -7 -24 -10l-14 -2l-14 -2l-22 -3l-22 -2q-27 -3 -43 -8q-9 -3 -17 -14t-11 -22q-26 -81 -32 -123q-3 -26 -21 -48 q-7 -8 -17 -18l-19 -17q-10 -11 -33 -2t-29 27q-17 48 -25 90q-1 7 2 19l3 10l3 10l4 16l4 16q5 19 7 32q4 36 -33 27q-22 -6 -37 -7q-21 -2 -28 -9q-6 -6 -11 -28q-20 -83 -44 -159q-8 -26 -29 -61q-15 -25 -39 -14q-65 29 -52 103q10 51 27 103q15 44 11 52q-5 8 -49 18 l-13 3l-14 3q-16 3 -25 9q-8 5 -16 17l-6 10zM357 703q5 -7 46 -8q40 -2 49 4q10 6 24 43l21 52q13 32 22 53q10 20 -13 21q-48 4 -79 4q-26 0 -37 -10q-10 -9 -14 -36l-5 -38q-4 -21 -8 -37q-11 -41 -6 -48z" />
<glyph unicode="$" horiz-adv-x="714" d="M67 1164q10 129 115 250q36 40 85 37l23 -1h23v-4l17 1l18 1q22 0 35 -3q139 -28 188 -153q33 -83 -57 -87q-24 -1 -41 1q-41 4 -41 40q1 59 -69 118q-37 31 -60 -5q-35 -55 -54 -108q-42 -119 -3 -208q23 -51 48 -71q53 -40 131 -81q132 -68 194 -183q45 -84 41 -161 q-1 -22 -1 -61l-1 -62q-3 -72 -20 -121l-14 -42l-14 -41q-16 -48 -31 -82q-42 -93 -124 -108q-115 -22 -198 -29q-71 -6 -140 46q-27 20 -38 63q-24 93 4 186q30 103 152 163q4 2 10 3l10 1q46 4 30 -40l-9 -24l-10 -24q-11 -29 -16 -49q-5 -22 -8 -52l-2 -26l-1 -26 q-2 -26 14 -51t41 -35q20 -9 47 5q27 15 36 40q2 7 4 16l3 17l3 22l3 22q4 26 10 42q28 77 20 170q-5 60 -33 167q-33 131 -166 213q-171 105 -154 314zM287 942q-8 171 16 371q7 60 17 78t34 15q10 -1 17 1q29 4 35 -7q6 -12 13 -86q8 -75 8 -171l-2 -86l-2 -87 q-4 -143 -5 -357l-1 -179l-2 -178q-1 -110 -6 -182q-4 -71 -28 -32q-6 10 -16 23l-9 10l-8 11q-36 46 -40 135l-3 110l-3 111l4 1l-9 250z" />
<glyph unicode="%" horiz-adv-x="1067" d="M61 1037q-11 58 10 85t81 28q65 0 121 -68q57 -69 44 -133q-9 -39 -49 -60q-40 -22 -75 -5q-113 55 -132 153zM142 34q1 5 5 12l4 6l3 6l34 79l35 79q40 93 66 158l50 132l49 132q62 170 99 264q37 91 89 209l46 103l47 104q15 34 57 88q27 34 54 41q26 6 65 -13 q40 -20 27 -62l-38 -114l-38 -114q-6 -19 -14 -52l-7 -27l-7 -26l-16 -52l-18 -52q-20 -63 -26 -106q-8 -48 -41 -119l-13 -28l-13 -28q-14 -33 -22 -58q-6 -22 -20 -49l-13 -23l-13 -23q-28 -49 -57 -120l-24 -61l-23 -62q-34 -87 -141 -201q-59 -62 -133 -56h-14l-14 -1 q-32 0 -25 34zM748 442q-11 59 10 86t81 27q65 1 121 -68q57 -69 44 -132q-9 -39 -48 -61q-41 -22 -76 -5q-113 55 -132 153z" />
<glyph unicode="&#x26;" horiz-adv-x="958" d="M97 425q14 46 46 107l28 52l28 52q52 100 37 166l-10 41l-9 41q-10 47 -8 81l1 32l2 33q2 38 5 64q8 73 34 123q74 145 231 202q18 6 48 10l26 2l25 3q116 5 180 -99q59 -96 36 -212q-27 -141 -115 -295q-20 -34 -70 -72q-27 -21 -60 -53l-28 -28l-28 -30q-5 -5 -6 -17 q-2 -12 1 -21q17 -59 55 -127q14 -25 35 -59l36 -59q4 -6 12 -13l7 -5l7 -6l5 9l5 9q6 10 8 18l10 49l11 50q11 58 7 101q-5 47 38 61q41 14 67 -25l7 -10l7 -9q9 -11 13 -19l10 -22l10 -23q12 -27 23 -43q20 -27 10 -65q-4 -15 -8 -42l-3 -21l-4 -20q-9 -49 -36 -77 q-6 -6 -9 -18l-3 -10l-3 -10q-10 -34 1 -49q10 -14 46 -19q11 -1 27 -7l13 -5l13 -5l-10 -11l-9 -12q-11 -13 -21 -19q-65 -40 -133 -27q-60 12 -129 -17q-144 -60 -279 -48q-122 11 -195 134q-82 138 -35 289zM286 285q10 -92 68 -139q62 -51 170 -20q31 9 35 20 q3 11 -15 38l-81 119l-81 119l-6 10l-7 9q-9 11 -19 10q-9 -2 -13 -14q-11 -31 -26 -76zM388 1063l6 -85l5 -85q6 -64 57 -29q112 76 125 195q1 10 8 28l4 15l4 14l8 39l7 38q9 45 7 77q-1 53 -35 70q-33 17 -80 -10q-23 -12 -47 -42q-75 -92 -69 -225z" />
<glyph unicode="'" horiz-adv-x="260" d="M53 1326q0 -11 3 -25l2 -11l2 -10q-10 -52 48 -88q28 -17 51 -6q22 11 30 43q21 92 -13 185q-11 30 -39 47q-30 18 -58 11q-6 -2 -12 -8q-7 -6 -7 -11q-6 -66 -7 -127z" />
<glyph unicode="(" horiz-adv-x="528" d="M71 474q26 -285 187 -556q57 -71 95 -79q74 -17 -24 297q-110 350 -81 636q25 251 136 347q48 41 72 96q22 50 15 92t-42 55q-38 14 -100 -15q-135 -160 -212 -419q-67 -226 -46 -454z" />
<glyph unicode=")" horiz-adv-x="528" d="M57 1307q-7 -42 15 -92q24 -55 72 -96q111 -96 136 -347q29 -286 -81 -636q-98 -314 -24 -297q38 8 95 79q162 271 187 556q21 228 -46 454q-77 259 -212 419q-61 29 -100 15q-35 -13 -42 -55z" />
<glyph unicode="*" horiz-adv-x="518" d="M50 1207l5 5l4 5q5 5 10 7l43 18l43 18q24 10 25 16q1 7 -18 24q-36 32 -56 51q-4 3 -6 9q-3 5 -1 8q1 4 7 6q6 3 10 2l38 -10q21 -6 36 -13q39 -17 46 -13q6 3 8 46v27h2l-4 49q-2 22 21 14q33 -12 66 -67l9 -16q6 -9 12 -14q24 -22 42 -1q2 2 6 3l12 6l13 6q14 5 22 -6 q4 -5 -1 -21q-5 -14 -13 -24q-22 -30 -58 -63q-20 -18 1 -39q20 -18 44 -43l43 -45q3 -3 5 -9q2 -5 1 -8q-2 -4 -7 -7q-6 -3 -10 -2q-22 4 -52 15q-7 2 -18 7l-17 8q-27 10 -29 -19q-1 -12 0 -29l1 -30l2 -13l2 -13q0 -16 -13 -23q-10 -5 -34 4q-25 9 -30 20q-13 26 -23 58 q-6 22 -12 25q-7 2 -26 -11l-21 -15q-13 -8 -23 -12q-4 -2 -12 -1l-7 1l-6 1l1 5l1 6q2 7 4 11l20 30l20 30q2 3 3 9l3 9l-9 1h-8l-20 -5q-13 -3 -20 -3q-28 -2 -55 2q-5 1 -11 5l-6 5z" />
<glyph unicode="+" horiz-adv-x="1159" d="M57 703q-7 20 10 37q7 7 19 13q7 5 20 11q93 47 235 47h124v6l204 -15q120 -10 204 -15q29 -2 74 0l37 1l37 1h16h15q18 -1 30 -5q19 -6 23 -21q4 -14 -11 -28q-117 -106 -211 -103q-136 5 -335 15l-334 16l-22 1l-21 -1q-27 0 -43 4q-26 6 -43 13q-23 10 -28 23z M488 444q5 136 14 334l17 334v22v22q0 26 4 43q6 26 13 42q10 24 22 28q20 8 37 -10q7 -7 14 -18q5 -8 11 -20q46 -94 47 -235v-124l6 -1l-16 -204q-9 -120 -14 -203q-2 -29 -1 -74l2 -38l1 -37v-15l-1 -16q-1 -17 -5 -30q-6 -18 -20 -22q-15 -4 -28 11q-107 117 -103 211z " />
<glyph unicode="," horiz-adv-x="373" d="M71 -138q20 22 47 37q60 36 81 82q9 19 7 26q-3 9 -20 18q-38 20 -70 86q-24 48 6 82q59 -4 136 -47q61 -34 63 -110q2 -91 -74 -160q-9 -7 -24 -19l-12 -9l-12 -9q-18 -15 -45 -21q-15 -4 -48 -6q-13 -1 -28 9q-28 18 -7 41z" />
<glyph unicode="-" horiz-adv-x="808" d="M51 371q3 11 12 22q10 12 19 15q45 15 92 17q50 1 122 1l122 -1v-3l108 1l107 -1q51 -1 98 -12q19 -5 23 -16q4 -13 -14 -25l-17 -12l-17 -11q-20 -12 -36 -16q-294 -67 -500 -18q-61 14 -93 27q-9 4 -18 15t-8 17z" />
<glyph unicode="." horiz-adv-x="340" d="M54 166q-1 38 8 48t45 12q52 4 107 -30q57 -34 70 -79q6 -20 0 -47q-5 -26 -18 -43q-11 -14 -37 -22t-42 -3q-63 23 -95 55q-42 43 -38 109z" />
<glyph unicode="/" horiz-adv-x="851" d="M57 34q1 5 5 12l4 6l3 6l34 79l35 79q41 93 66 158l50 132l49 132q62 170 100 264q36 91 88 209l46 103l47 104q15 34 57 88q27 34 54 41q27 6 65 -13q41 -20 27 -62l-38 -114l-37 -114q-6 -19 -15 -52l-6 -27l-8 -26l-16 -52l-17 -52q-21 -63 -27 -106q-8 -48 -40 -119 l-14 -28l-13 -28q-14 -33 -22 -58q-6 -22 -20 -49l-13 -23l-13 -23q-28 -49 -56 -120l-24 -61l-24 -62q-34 -87 -141 -201q-59 -62 -133 -56h-14l-14 -1q-32 0 -25 34z" />
<glyph unicode="0" horiz-adv-x="894" d="M56 482l1 65q-7 230 39 429l13 62l12 61q16 75 28 122q8 28 26 66l16 32l16 32q19 41 67 37l77 -6l77 -7q42 -3 65 1q53 9 94 -21q59 -45 89 -74q20 -19 35 -54q9 -23 26 -55l15 -26l14 -27q34 -65 39 -117q4 -44 18 -132l10 -67q6 -36 8 -66q3 -30 -1 -75l-4 -38l-3 -38 l-5 -69v-8v-9q-1 -11 -4 -17q-11 -20 -14 -47l-3 -25l-1 -25q-1 -33 -15 -76l-13 -36l-13 -36l-8 -20l-8 -20q-15 -48 -49 -69q-17 -11 -44 -31l-21 -17l-22 -16q-65 -46 -175 -55l-32 -3l-32 -5q-143 -18 -229 107q-81 119 -88 308zM317 793q-16 -168 8 -375 q17 -156 85 -245q23 -31 50 -30q28 0 48 31q30 47 37 82l22 116q14 69 21 115q21 133 16 233l1 19l1 18q2 21 1 35q-8 177 -72 335q-29 73 -107 126q-38 26 -52 -16q-18 -59 -23 -101q-21 -177 -36 -343z" />
<glyph unicode="1" horiz-adv-x="346" d="M50 116l5 60l6 57q6 67 10 112l5 62l6 63q6 73 7 125q2 70 1 174l-1 87v87v32l2 31l11 146q6 88 9 147q2 24 -1 56l-2 29l-2 28q-2 26 3 34q5 9 29 20q37 18 74 8q29 -8 39 -19q9 -11 14 -41q4 -29 11 -53q20 -73 16 -200l-3 -134l-2 -134l-6 -256l-1 -30l-1 -29l-5 -39 l-5 -40l-4 -22l-2 -23l-9 -188v-15l1 -15l-3 -74l-1 -16l-1 -15q-1 -19 0 -32q4 -38 -27 -61q-59 -44 -126 -37q-38 4 -42 39q-3 17 -4 40v19z" />
<glyph unicode="2" horiz-adv-x="795" d="M62 79q-12 35 6 55q77 86 121 233q11 37 32 90l19 45l18 44l3 6l2 6q6 49 26 112l19 55l19 55q48 142 81 255q39 134 50 204q5 32 4 75l-1 38l-3 38q-1 27 -13 35q-12 7 -40 3q-65 -11 -87 -51q-3 -6 -13 -13l-7 -6l-7 -7l-16 -20q-8 -11 -13 -21l-14 -30l-13 -31 q-17 -40 -27 -60q-12 -25 -46 -34q-34 -10 -57 5q-11 6 -17 22q-5 11 -1 25q56 203 204 266q75 33 141 38q70 5 110 -31q4 -5 12 -8l13 -7q59 -26 45 -89q-2 -8 -2 -15q0 -8 3 -13q19 -26 4 -63q-4 -12 0 -21q12 -27 9 -64l-4 -33l-4 -31q-4 -33 -17 -77l-11 -39l-12 -38 l-36 -118l-36 -119l-9 -25l-9 -26l-49 -134l-6 -16l-6 -15q-61 -115 -100 -239q-9 -27 -27 -66l-15 -33l-14 -33q-3 -8 -7 -21l-3 -12l-4 -14h17l15 -1q17 -1 26 2q141 34 328 48q13 1 33 8l16 5l16 5q8 2 15 3q9 0 11 -3q11 -12 6 -29q-16 -64 -99 -93q-21 -7 -51 -11 l-26 -4l-26 -3l-36 -5l-35 -4q-43 -6 -70 -12q-84 -21 -221 -16q-87 4 -114 78z" />
<glyph unicode="3" horiz-adv-x="751" d="M50 362q1 81 66 110q14 5 30 18l14 11l14 11q21 17 37 6l11 -7q7 -5 11 -8q10 -10 4 -26q-13 -37 16 -73q5 -6 8 -20l2 -11l1 -12l3 -17l1 -16q3 -21 6 -33q12 -37 46 -18q93 51 110 153q25 162 -49 374q-24 69 -100 122l-11 7l-10 7q-13 8 -20 15q-45 41 -7 90l8 10l9 9 q36 45 57 97q12 32 35 75l20 37l20 37l39 72l39 71q0 1 6 24h-21h-19h-36h-75l-76 -1q-16 0 -46 -3l-45 -4q-36 -2 -58 2q-7 1 -16 8q-8 7 -7 11q0 8 6 17t12 12l25 10l25 10q28 10 50 10q73 1 165 -2l166 -6q56 -2 87 -35q33 -35 14 -69q-12 -22 -32 -53l-34 -52l-22 -31 l-22 -31q-26 -38 -39 -67q-23 -54 -71 -147q-15 -29 -11 -41t35 -24l37 -15q21 -9 36 -17q9 -5 21 -15l10 -10l10 -9l3 -3l3 -3q3 -4 5 -5q28 -1 45 -26l7 -11l6 -12q8 -14 13 -21q12 -16 20 -46l6 -26l6 -25q1 -4 1 -11v-5v-5l12 -44l13 -45q14 -53 20 -89q6 -44 -12 -120 q-7 -28 -21 -70l-13 -35l-11 -34l-5 -15l-5 -15q-4 -17 5 -31q4 -6 1 -11q-44 -119 -118 -149q-13 -5 -29 -14l-27 -16q-35 -20 -57 -26q-155 -41 -253 57q-30 30 -52 99l-17 47q-10 29 -15 47q-16 56 -16 100z" />
<glyph unicode="4" horiz-adv-x="897" d="M69 545q-19 53 13 86q23 25 36 68l5 18l4 19q6 24 10 36l24 79l23 79l6 22l5 23q8 51 30 118l19 58l21 58q24 72 52 184q9 37 22 48q14 11 52 10q22 0 37 -3q32 -5 42 -18q9 -13 5 -46l-5 -52l-5 -52q-5 -44 -12 -65l-34 -109l-33 -109q-10 -33 -23 -82l-21 -82 q-4 -14 1 -19q5 -6 17 1q21 12 49 12l24 -1l25 -3q47 -4 75 -34q27 -31 27 -79q1 -54 15 -65t69 -4q50 6 149 9q31 1 43 -27q11 -25 8 -32q-1 -4 -26 -25q-32 -28 -85 -38l-23 -4l-23 -3q-28 -4 -45 -9q-36 -9 -53 -24q-20 -18 -28 -54q-39 -175 -40 -325q0 -66 -38 -91 q-34 -23 -106 -16q-9 0 -20 12l-10 11l-9 10q-31 35 -37 51q-5 15 -7 75q1 10 4 32l2 17l2 19q6 48 7 82q2 23 -1 54l-3 27l-3 27q-4 40 -50 46q-66 9 -119 19q-46 9 -64 61zM277 606q0 -5 4 -11l3 -6l4 -6l6 3l6 3q8 4 9 8q3 8 4 19v9l1 6v11l-1 9q0 9 -1 15q-1 3 -4 8 l-6 7l-5 -6q-3 -3 -4 -6l-9 -32q-4 -17 -7 -31z" />
<glyph unicode="5" horiz-adv-x="792" d="M85 289q33 66 84 70q46 4 59 -2q13 -7 33 -48l9 -19l10 -18q11 -21 22 -35q32 -39 56 5q31 56 43 99q36 128 -1 296q-13 62 -83 68q-95 8 -169 18q-31 4 -45 24t-7 50q9 39 8 91l-3 45l-3 46q-2 33 1 82l3 42l3 41l7 141l1 21l1 20q3 40 15 54q14 15 52 19q80 9 195 20 l96 9l95 9l38 -5l36 -5q41 -6 69 -10q32 -5 30 -37q-2 -30 -34 -34l-101 -12l-101 -11q-29 -2 -83 -6l-82 -5q-27 -2 -35 -12q-8 -9 -6 -36l3 -18l4 -17q5 -22 6 -34q5 -108 -10 -178q-5 -22 -4 -54l3 -29l2 -28q1 -24 31 -24q138 0 242 -82q84 -68 91 -171q3 -39 0 -91 l-4 -46l-3 -45l-4 -39l-3 -40q-6 -44 -15 -77q-45 -168 -148 -241q-92 -66 -212 -44q-18 3 -41 4l-41 -1q-57 -1 -61 53q-5 66 -45 113q-39 45 -4 114z" />
<glyph unicode="6" horiz-adv-x="677" d="M50 547q7 172 64 436q36 173 77 327q4 18 18 41l13 19l13 19q3 4 10 8q8 3 14 3l49 -4q27 -3 48 -6q54 -8 94 -25q20 -9 33 -32q15 -23 8 -40q-3 -8 -13 -14q-9 -7 -19 -8q-10 -2 -26 -1l-13 2l-13 2q-24 3 -34 -3t-15 -28l-14 -61l-13 -62q-15 -71 -22 -125 q-8 -57 -14 -140l-5 -70l-6 -70q-1 -18 0 -29q2 -25 11 -32q10 -8 34 -4q89 15 224 -31q15 -5 26 -20l8 -14l8 -14q32 -49 31 -121q-2 -127 -46 -257q-10 -28 -30 -63l-17 -31l-18 -30q-11 -17 -37 -26l-31 -11l-32 -10q-35 -11 -64 -17q-72 -15 -131 15q-60 31 -91 97 q-47 100 -54 178l-12 126zM281 465q5 -42 17 -113l9 -56l9 -56q7 -49 55 -99q30 -30 45 3q59 132 54 219v3v4v14q-2 48 -39 75q-20 15 -51 26l-25 8l-26 9q-56 22 -48 -37z" />
<glyph unicode="7" horiz-adv-x="706" d="M55 1365q4 15 28 20q21 5 53 10l54 7l55 -9l56 -9l96 -11l97 -11q54 -6 90 -12q45 -8 69 -71q3 -7 2 -19q-2 -10 -6 -20l-14 -34l-14 -33q-20 -44 -29 -66q-71 -179 -109 -282q-8 -20 -17 -48l-15 -49q-19 -59 -35 -94q-20 -40 -31 -93l-9 -47l-8 -48q-2 -17 -3 -45v-23 l-1 -22l-3 -49l-3 -49q-4 -56 -11 -96q-11 -60 -58 -80q-9 -4 -20 -14l-10 -10l-9 -9l-11 -11l-10 -12q-13 -13 -24 -19q-31 -20 -33 18q-2 29 -7 73l-9 74q-10 89 -2 148q4 31 8 74l7 74q8 89 21 145q71 306 162 506q15 33 34 102q11 38 -28 44l-52 8l-52 7q-65 9 -104 17 q-42 8 -81 38q-19 14 -14 30z" />
<glyph unicode="8" horiz-adv-x="793" d="M54 176q19 159 85 293q85 174 201 333q18 25 17 35t-24 36q-99 113 -113 249q-12 116 59 224q13 20 38 53l19 26l19 26q34 50 94 50q118 -1 178 -35q75 -44 80 -144l-1 -12l-1 -13q-2 -121 -55 -214q-6 -10 -11 -25l-3 -13l-4 -13l-9 -28l-8 -28q-10 -33 -19 -54 q-26 -58 18 -111q53 -64 75 -103q10 -20 18 -48l7 -25l5 -25q11 -45 14 -90q10 -147 -92 -309q-72 -113 -269 -181q-54 -19 -114 -26t-119 -2q-27 3 -53 31q-27 28 -30 56q-6 55 -2 87zM217 169q-1 -38 21 -53t58 -1l9 5l9 5q12 7 19 8q56 14 115 90q93 119 89 263l-2 24 l-1 24q-2 29 -7 47q-7 25 -20 57l-11 27l-13 28q-13 29 -34 3l-16 -19l-17 -19q-22 -24 -33 -37q-66 -86 -107 -215q-15 -47 -31 -116l-14 -58l-14 -59v-4zM343 1171l5 -37q3 -22 4 -37q1 -58 56 -111q19 -18 28 -17q10 2 22 24l41 74q23 43 39 76q40 85 27 170 q-7 43 -50 61l-4 1l-5 1q-6 1 -8 2q-8 4 9 15l-2 4l-3 4q-4 5 -7 6q-36 19 -65 -20q-17 -23 -29 -45l-12 -20l-11 -20q-13 -24 -20 -41q-21 -47 -15 -90z" />
<glyph unicode="9" horiz-adv-x="584" d="M87 1368q15 43 52 107q22 39 67 27q19 -5 53 -8l27 -3l27 -5q158 -31 195 -146q26 -79 19 -172l-2 -42l-2 -41q-2 -54 -4 -83q-2 -25 -8 -68l-5 -34l-4 -34l-3 -22l-2 -23q-2 -26 0 -45q12 -146 -9 -328q-4 -35 -5 -91v-46l-1 -45q-5 -109 -13 -203q-6 -68 -78 -63 q-47 4 -63 22q-17 18 -15 65l2 44l3 43l-1 1l8 151q4 90 5 152q1 56 0 133l-4 133l-4 135l-4 135q-1 36 -8 44t-43 13q-109 17 -163 105t-17 192zM229 1272l7 -22l6 -22q8 -27 17 -44q19 -38 46 -2q23 31 27 85q4 55 -16 85q-12 17 -37 22q-4 1 -12 -8q-7 -8 -11 -17 q-6 -14 -14 -37l-6 -19z" />
<glyph unicode=":" horiz-adv-x="418" d="M65 118q-15 58 37 67l19 4l19 6q57 17 96 3q38 -14 70 -64q35 -54 15 -91q-14 -25 -38 -35q-18 -8 -44 -8q-146 3 -174 118zM99 784q-11 59 10 85q21 27 81 28q65 1 121 -68q57 -69 43 -132q-8 -39 -48 -61t-75 -5q-113 55 -132 153z" />
<glyph unicode=";" horiz-adv-x="384" d="M50 28l7 10l7 9q9 12 16 17q44 34 53 70t-14 86q-5 10 -10 25l-8 25q-14 41 -10 50q5 8 47 19l10 2l10 2q8 1 22 5l12 3l12 2q27 6 38 -1q83 -58 90 -120q2 -67 -75 -150q-76 -81 -137 -82h-7h-6q-8 0 -13 3q-9 4 -22 12zM91 925q-1 38 8 48t45 12q52 3 107 -30 q57 -34 70 -80q6 -19 0 -46q-5 -26 -18 -43q-11 -14 -37 -22q-26 -9 -42 -3q-63 23 -95 55q-42 43 -38 109z" />
<glyph unicode="&#x3c;" horiz-adv-x="682" d="M51 740q1 11 25 32q23 21 59 33q14 5 32 10l34 8q55 14 135 40l66 23l67 21q41 13 70 16t27 -36q-1 -11 0 -27l1 -28q2 -57 -29 -75q-16 -8 -39 -20l-40 -18l-2 5l-87 -47l-87 -47q-60 -34 -146 -27q-26 3 -38 15t-23 47l-9 25q-17 40 -16 50zM83 672q0 17 16 49l12 25 q16 40 24 46q8 7 40 5q31 -2 66 -18q13 -6 29 -16l30 -18q48 -29 123 -67l63 -31l63 -32q38 -20 61 -39q22 -18 -7 -44q-8 -7 -19 -20l-19 -20q-39 -42 -73 -32q-18 5 -42 13l-41 15l2 6l-95 28l-95 28q-66 18 -122 84q-16 20 -16 38z" />
<glyph unicode="=" horiz-adv-x="873" d="M63 577q-13 15 1 30q13 13 33 16q28 5 69 9l34 3l35 4h18h17v1l77 1l77 1q92 1 154 -4q47 -3 108 -18l54 -14l53 -15q27 -8 28 -18q2 -9 -17 -30q-37 -44 -103 -46q-95 -3 -210 1l-81 4l-81 5q-100 5 -162 5q-34 1 -62 22q-10 8 -22 20l-10 11zM78 878q3 12 12 23 q9 12 19 15q44 15 91 16q50 2 122 2l122 -1v-3l108 1l108 -1q50 -2 97 -13q19 -4 23 -16t-14 -25l-16 -11l-18 -11q-19 -12 -36 -16q-294 -68 -500 -18q-61 14 -92 27q-9 3 -18 14q-10 11 -8 17z" />
<glyph unicode="&#x3e;" horiz-adv-x="682" d="M73 576q22 19 61 39l62 32l63 31q75 38 124 67l29 18q17 10 30 16q34 16 66 18q31 2 39 -5q8 -6 25 -46l11 -25q16 -32 17 -49q0 -18 -17 -38q-56 -66 -121 -84l-96 -28l-94 -28l2 -6l-41 -15q-25 -8 -42 -13q-34 -10 -74 32l-18 20q-11 13 -19 20q-30 26 -7 44zM115 832 l1 28q1 16 1 27q-2 39 26 36q29 -3 70 -16l67 -21l67 -23q80 -26 135 -40l33 -8q19 -5 32 -10q36 -12 60 -33q23 -21 24 -32q1 -10 -15 -50l-9 -25q-12 -35 -24 -47t-38 -15q-86 -7 -145 27l-87 47l-87 47l-3 -5l-39 18q-24 12 -39 20q-31 18 -30 75z" />
<glyph unicode="?" horiz-adv-x="668" d="M58 123q8 34 39 49q6 3 11 5q6 1 11 0l49 -13q27 -8 48 -17q9 -3 19 -13l9 -9l9 -9q35 -36 14 -80q-9 -20 -29 -28q-14 -6 -37 -8q-81 1 -129 62q-22 27 -14 61zM99 440q-5 94 42 174q7 12 10 20q38 102 169 185q44 29 66 80q4 9 11 22l12 21l8 13q5 8 7 14 q41 128 24 236q-8 46 -24 58q-16 11 -63 5q-60 -8 -104 -50q-31 -29 -76 -21t-66 44q-13 23 2 42q38 46 90 67q108 44 212 12q85 -26 121 -85l24 -37q14 -23 22 -39q25 -44 27 -84q1 -16 1 -40v-21v-22q4 -43 -4 -98l-7 -49l-10 -49q-5 -26 -16 -58l-11 -29l-11 -28 q-17 -41 -70 -66l-39 -20l-38 -20q-25 -13 -45 -39q-7 -10 -16 -24l-14 -25q-46 -84 -33 -146l1 -5q0 -4 -1 -6l-3 -6l-4 -7q-4 -7 -7 -7q-10 -1 -17 -8l-6 -7l-6 -8q-14 -21 -34 -18q-54 8 -71 28l-18 22q-11 13 -17 23q-17 27 -18 56z" />
<glyph unicode="@" horiz-adv-x="924" d="M51 658q1 137 53 356q36 150 93 243l4 6l3 6q21 79 124 77q93 -3 140 -21q132 -51 198 -217l13 -31l11 -31q12 -35 18 -64q13 -59 11 -136q0 -11 -10 -24q-9 -13 -21 -19q-38 -21 -50 -71l-27 -108l-27 -109l-12 -48q-8 -27 -15 -48q-25 -68 -105 -55q-94 16 -133 115 q-91 233 -24 465l4 16l4 16q7 31 22 41q14 11 45 9l52 -4l52 -4q50 -1 36 44q-20 67 -47 118q-19 37 -49 37q-29 1 -49 -36q-57 -103 -81 -176q-73 -214 -68 -439q7 -220 93 -343q42 -61 80 -93q54 -47 127 -24t96 94q11 33 28 95l13 49l14 47q27 86 57 161q15 38 31 42 q15 5 50 -19q17 -11 38 -29q31 -25 23 -59q-7 -26 -17 -59l-18 -58l-8 -25l-9 -24q-11 -30 -16 -49q-31 -135 -147 -214q-141 -96 -337 -32q-53 17 -104 79q-103 123 -131 261q-29 142 -28 292zM433 883q-34 -138 5 -318q1 -1 13 -16l5 6l3 4q4 5 5 8l36 137q21 79 35 138 q6 23 -13 51q-18 28 -41 34q-7 2 -17 -2q-9 -3 -15 -8q-6 -6 -10 -15q-3 -8 -6 -19z" />
<glyph unicode="A" horiz-adv-x="1117" d="M53 48q-3 -30 27 -39q31 -9 57 -9q49 0 86 30q62 52 83 152l9 47l8 47q11 62 17 93q7 34 17 41q10 8 45 7h18q89 0 136 18q5 2 14 4l8 2l9 2l13 -33l12 -33l23 -65q67 -197 240 -253q34 -11 59 -11q22 0 37 8l12 6l13 7q13 7 22 15q22 20 23 50q1 5 6 14l3 7l3 7 q9 41 12 72q2 22 -24 31q-23 9 -37 -12q-5 -7 -13 -17l-4 -5l-4 -6q-6 -7 -10 -12q-4 6 -10 13l-4 5l-4 5q-8 12 -11 19l-21 43l-20 43q-23 50 -37 87q-68 179 -87 299l-13 83q-7 48 -15 83q-33 149 -71 289q-30 116 -92 219l-7 12q-4 6 -8 11q-11 11 -25 13l-30 5l-30 5 q-10 1 -20 1q-43 0 -75 -22q-40 -27 -58 -82l-4 -14l-5 -15q-5 -16 -12 -27q-17 -27 -31 -69l-11 -36l-11 -36l-11 -32l-10 -32q-13 -40 -22 -63q-44 -115 -47 -210q-3 -92 -52 -240q-25 -76 -28 -131q-10 -183 -30 -310q-2 -15 -4 -40l-2 -21zM397 555l1 20l1 20q2 23 7 37 q24 68 43 161l15 82l15 82q3 15 14 24l7 -56l7 -55q8 -66 16 -111l10 -55l12 -56q15 -73 22 -118h-147q-25 1 -23 25z" />
<glyph unicode="B" horiz-adv-x="688" d="M53 209q4 -44 28 -77q12 -16 6 -35q-8 -29 -3 -43t30 -26l17 -9l17 -8q20 -9 34 -10q23 -2 56 0l28 3l28 2q3 0 7 3t6 7q16 22 47 44l27 18q16 11 26 19q54 43 101 87q12 12 25 30l11 15l11 16l15 19l15 20q16 22 21 40q14 55 14 113q0 78 -25 161q-6 22 -21 36 q-44 42 -91 80q-15 12 -39 28l-20 14l-22 15l30 37l30 36q34 42 59 70q59 66 71 135q4 26 9 42q9 32 8 68q0 84 -47 188q-10 21 -33 39q-57 46 -116 65q-56 19 -135 20q-12 0 -29 0.5t-39 -0.5l-68 -1q-59 0 -59 -61q0 -6 1 -12l3 -19l3 -19l10 -129l9 -130q4 -61 4 -131 v-29q0 -40 -7 -107l-7 -48l-7 -47q-8 -57 -8 -94q0 -78 -9 -177l-9 -88l-10 -89q-4 -34 -4 -59q0 -12 1 -22zM250 1341l1 16v18q18 3 34 3q72 0 102 -65q21 -49 23 -78v-17q0 -108 -47 -205q-10 -21 -29 -51l-9 -13l-9 -14q-11 -17 -18 -30q-14 41 -15 43l-7 75l-7 75 l-9 105l-9 106q-1 12 -1 32zM252 200q-7 48 -7 89q0 59 14 102q6 20 9 47q1 16 3 47q1 27 1 69v69v15q1 9 3 16q4 17 17 33l12 -16l11 -15q12 -17 18 -30q45 -103 45 -205q0 -51 -11 -102q-14 -66 -63 -94q-9 -6 -22 -16l-10 -8l-10 -8z" />
<glyph unicode="C" horiz-adv-x="848" d="M50 522q0 -20 3 -50l4 -49q14 -163 85 -265q111 -158 282 -158h17l59 4q32 2 57 6q69 12 90 59q2 5 9 10l6 5l6 4q64 45 71 109q2 25 11 36q32 45 32 117q0 36 -8 79q-5 23 -22 29t-37 -8q-6 -4 -13 -12q-70 -87 -97 -172l-34 -107q-10 -31 -34 -35q-11 -2 -22 -2 q-24 0 -49 10q-37 16 -53 45q-13 25 -28 58l-26 60q-6 14 -6 33v13q0 91 -25 210q-2 10 -2 24l1 24l11 206h-4v9l1 9l6 81l7 82q8 97 17 164q7 58 36 160q9 29 30 33q21 5 43 -16l7 -6q3 -3 5 -7l13 -29l14 -30q15 -35 18 -61q8 -57 34 -77q22 -17 71 -17h11h8l9 1 q51 4 51 49q0 5 -1 10l-3 18l-4 18q-6 23 -7 36q-2 44 -38 98q-52 77 -165 106q-40 11 -93 11q-12 0 -26 -1l-59 -5q-37 -3 -59 -4q-49 -1 -70 -51q-62 -146 -77 -233l-13 -68l-14 -68q-14 -75 -18 -120q-8 -90 -13 -194q-5 -97 -5 -181z" />
<glyph unicode="D" horiz-adv-x="881" d="M50 122q0 -107 109 -115l17 -1q10 -1 17 -2q13 -4 27 -4q29 0 65 16q9 3 22 11l20 12q26 13 49 11q7 -1 19 13l10 12l10 12l19 23q13 14 21 22q49 49 119 110q80 70 121 167l11 27l11 26q14 31 27 52q54 87 77 204q6 31 6 70q0 24 -2 51q-4 50 -31 114l-12 27l-12 27 q-17 36 -24 54q-6 13 -18 30l-10 14l-9 15q-17 27 -45 55l-26 25l-26 24l-75 68l-75 68q-13 11 -26 16l-72 29q-41 16 -73 27q-29 10 -60 10q-17 0 -34 -3q-46 -7 -56 -52q-13 -57 -23 -140l-2 -30l-1 -29q-2 -36 -7 -58q-27 -119 -34 -335l-2 -36l-2 -37q-1 -32 -1 -83v-23 l1 -79q-1 -13 -3 -42l-1 -25l-2 -25q-4 -64 -6 -111l-5 -106q-3 -61 -3 -106zM302 338q-2 18 -2 39q0 32 4 74l5 57q2 33 3 56q1 43 4 117l3 58l2 58l2 115l1 114v114v58v60q26 -16 52 -44l21 -25l20 -24q88 -102 129 -275q9 -37 9 -74q0 -66 -29 -133l-29 -72 q-19 -43 -31 -71q-22 -47 -46 -78q-20 -27 -52 -65l-27 -32l-27 -32z" />
<glyph unicode="E" horiz-adv-x="947" d="M50 133q0 -38 29 -71q29 -34 72 -43q22 -4 58 -8l29 -3l29 -3q33 -5 69 -5q67 0 146 16q34 7 85 13l43 5l43 6l26 3q15 2 25 5q39 13 44 29v1q2 6 2 14q2 9 2 18q0 11 -1 20q-2 23 -12 34q-5 6 -37 5q-41 0 -126 -9q-55 -6 -125 -15q-27 -4 -56 -8q-22 -3 -44 -7 q7 56 7 150q0 138 -15 356q6 1 13 1q20 1 39 1l39 -1h12q86 0 205 51q36 15 43 58l-17 1l-15 -1l-36 -3q-22 -2 -37 -2h-112l-113 1q-25 1 -30 11l-3 41l1 86l2 85l1 39l2 39q3 45 11 77q21 87 21 188q-1 10 0 18h2h5l18 2q30 2 62 5q101 8 182 21q239 36 239 89q0 4 -2 9 l-1 1v12l-1 12q-2 23 -29 25l-26 2l-25 1h-12q-16 0 -28 -1q-174 -16 -362 -37l-36 -5l-36 -4q-17 -2 -32 -2q-23 0 -42 4q-8 2 -21 1q-25 -3 -21 -29l2 -14l2 -14q2 -16 0 -27q-18 -100 -30 -243l-10 -121l-11 -122l-6 -58l-6 -58l-10 -132l-11 -131l-3 -39l-4 -38 q-5 -42 -11 -77l-7 -46l-7 -46q-10 -53 -31 -87q-10 -15 -10 -46z" />
<glyph unicode="F" horiz-adv-x="828" d="M50 160q0 -88 61 -141q23 -19 55 -19q34 0 49 22q48 69 48 127q0 8 -1 17q-1 11 0 27l2 14l1 14l14 309v13l-1 14q-2 19 -1 28q1 25 9 35q7 10 28 15q108 22 209 41q80 14 117 63q15 19 10 47q-2 12 -11 17q-7 4 -19 4h-29l-30 1q-34 0 -58 -3q-39 -6 -96 -19l-47 -10 l-48 -10q-21 -5 -28 1q-7 5 -7 29v70l-1 71q-2 64 -9 167l-6 99v1l-1 6v14q-1 11 0 21q1 27 5 48q12 57 47 57h5q16 -2 41 -3q31 -1 63 -2q88 0 156 7q170 18 170 80q0 11 -5 24l-13 2l-12 3q-13 3 -22 3l-44 -1l-45 -2q-27 0 -49.5 -0.5t-39.5 0.5q-37 2 -74 2 q-153 0 -288 -34q-25 -6 -34 -17q-8 -11 -11 -40q-4 -45 -6 -104l-2 -104q-3 -132 -13 -207v-9l-14 -295l-2 -34l-3 -35l-7 -109l-6 -109l-5 -103q-2 -58 -2 -103z" />
<glyph unicode="G" horiz-adv-x="821" d="M83 824q-12 -110 -12 -210q0 -165 34 -301q41 -159 108 -238q55 -64 136 -74q10 -1 20 -1q42 0 92 19l26 10l26 12q34 15 52 22q3 1 6 5l3 4l3 3l17 16q11 10 17 17l10 11l11 12q11 13 16 24l15 35l15 34q15 39 24 71l25 100q16 59 27 99q7 23 9 62l1 31l3 31 q4 34 -27 42q-18 6 -29 7q-31 3 -66.5 3t-74.5 -3q-30 -2 -70 -7l-69 -10q-47 -7 -72 -37q10 -23 33 -32q14 -6 43 -8q19 -1 52 0h26h26q29 -1 36 -11q7 -9 -1 -38q-12 -45 -18 -79l-8 -50l-8 -51q-9 -61 -16 -100q-8 -39 -34 -107q-12 -33 -34 -33q-15 0 -35 16 q-47 38 -70 103q-24 64 -42 135l-8 30l-8 31q-7 34 -8 61q-4 74 -4 138q0 46 2 87q4 82 24 193l18 95l18 96q3 15 14 40l8 20q5 12 7 21l11 42q7 23 13 41q16 45 39 77q2 3 4 9l2 6l1 5q13 32 34 37q22 6 46 -19q15 -16 34 -41l15 -22l16 -22l6 -10l5 -11q7 -13 13 -19 q23 -25 31 -71l2 -17q1 -11 3 -17q11 -37 51 -37h19q10 0 18 3q19 5 24 25l5 21l4 21q3 24 -4 43l-21 50q-12 29 -19 50q-20 58 -74 95q-50 34 -106 34h-9q-32 -1 -46 18q-4 6 -12 11q-9 5 -15 5q-71 0 -134 -6q-25 -3 -36 -19q-36 -50 -67 -106q-23 -41 -46 -98l-10 -26 l-10 -26q-11 -29 -16 -53q-47 -202 -60 -319z" />
<glyph unicode="H" horiz-adv-x="901" d="M66 313q-7 -45 -7 -89q0 -58 12 -113q5 -24 20 -52q26 -45 70 -45q16 0 34 6l28 10q16 6 28 12q47 25 47 62v14q0 29 3 67l12 125l12 125l8 77q5 46 7 78q3 53 18 70q14 14 60 19l34 4l35 5q25 4 45 4q14 0 26 -2l4 -26l4 -26q5 -71 6 -107q1 -73 19 -198q6 -37 27 -43 l-6 -13l-7 -11q-7 -12 -6 -19l2 -21l1 -21q4 -24 20 -39q4 -4 6 -12q2 -9 0 -15q-3 -11 -3 -23q0 -25 13 -52q14 -29 37 -47q25 -20 47 -16l13 2l14 3q15 4 25 10q26 14 29 47q0 5 4 10l3 5l4 4q17 21 17 52q0 8 -1 17q-4 26 -4 62q0 50 8 119q9 68 9 133q0 42 -4 83 q-3 37 -3 80q0 22 1 45l3 41l4 41q2 29 2 51q0 17 -1 31q-4 37 -4 82q0 18 1 38l2 60l3 61v38l-1 38v18q0 35 3 59q2 7 -2 23l-3 12q-1 6 0 11q3 22 -6 49l-8 23l-7 24q-8 27 -34 38l-12 4l-12 3q-15 4 -23 8q-20 9 -42 10q-29 0 -64 -7q-22 -4 -25 -31l-7 -58l-7 -57 l-11 -134q-7 -76 -9 -134q-2 -40 -2 -103v-52v-52q-1 -19 -6 -25q-5 -5 -25 -6l-151 -12q-5 0 -13 1l-7 1l-8 1l-2 9l-3 8q-2 10 -2 16v42q0 38 1 62l5 85q3 49 3 85v11q0 88 -15 159q-3 15 2 38q2 10 2 20q0 44 -32 108q-4 7 -11 13q-8 6 -15 7q-77 10 -124 10 q-37 0 -41 -42v-17v-17l1 -119q0 -71 -1 -119q-2 -43 -7 -110l-5 -55l-4 -55l-10 -166l-10 -167q0 -10 -4 -27l-5 -28q-10 -73 -15 -120l-2 -22l-1 -21q-2 -27 -4 -43z" />
<glyph unicode="I" horiz-adv-x="901" d="M53 162q6 -57 44 -91q32 -29 73 -29q8 0 17 1q107 14 159 113q8 15 22 38l6 10l6 10q8 14 13 23q3 -6 7 -13l3 -6l2 -5q6 -12 9 -19q37 -95 91 -137q55 -44 155 -52h13h13q16 1 25 -2q12 -3 24 -3q47 0 93 47q23 23 18 53q-2 15 -17 20q-10 4 -29 2l-17 -2q-11 -1 -17 0 l-13 2l-14 2q-15 3 -23 9q-92 71 -92 175v11q0 13 -1 30l-3 30q-2 24 -9 68l-5 34l-4 34q-4 33 -4 62q0 42 8 76q2 6 2 14v14q4 184 24 318q4 34 5 71q0 12 -1 25l-3 56l-1 55q0 61 12 110q6 25 6 59q0 76 -67 76h-9l-39 -5l-38 -5q-41 -5 -56 -51q-2 -9 -4 -20l-3 -21 q-9 -76 -33 -123q-38 -76 -38 -140q0 -12 1 -24q1 -9 1 -19q0 -39 -16 -85q-24 -71 -31 -153q-13 -139 -36 -227q-27 -101 -48 -225l-5 -30l-6 -29l-13 -45l-13 -46l-14 6l-13 6q-14 6 -23 9q-13 4 -25 4q-25 0 -49 -18q-23 -18 -20 -48z" />
<glyph unicode="J" horiz-adv-x="1039" d="M68 183q15 -50 41 -90q23 -33 62 -58q54 -34 139 -34q29 0 62 4q47 6 78 42q10 11 30 28l15 14l15 14q56 58 64 119l8 56l8 55q10 66 10 112q0 26 6 60l4 30l6 30q7 42 7 75q0 25 -4 45q-1 3 0 8l2 9l5 38l4 39q6 67 9 138v38l1 39l2 40l3 41l2 61l-1 34q-1 21 1 34 q4 40 16 52q11 13 52 19q6 1 15 1h15l21 1l20 2l17 4l17 4q21 5 34 7q16 1 40 2l41 1q38 2 46 32q8 33 -26 50q-21 11 -40 15q-85 19 -195 23q-42 1 -98 1l-98 -2h-70h-69h-97l-97 -1q-23 -1 -33 -12q-9 -11 -14 -41l14 -7l13 -6q15 -8 26 -12l51 -20q29 -11 51 -17 q38 -10 72 -10q20 0 38 3q27 5 43 -11t15 -44l-2 -15l-2 -15l-10 -101l-10 -101l-7 -78l-6 -77l-3 -32l-4 -33l-2 -45l-2 -45q-3 -54 -10 -90q-10 -56 -12 -147v-73q-1 -42 -4 -73q-9 -97 -23 -202q-4 -23 -20 -28q-15 -5 -33 12q-12 10 -17 19l-14 26l-15 25q-16 29 -26 52 q-14 32 -38 44q-28 14 -56 14q-22 0 -44 -9q-43 -17 -43 -56q0 -12 4 -27z" />
<glyph unicode="K" horiz-adv-x="995" d="M55 232q-1 -17 -1 -34q0 -27 3 -52l2 -14l1 -13q1 -15 -3 -28q-7 -23 4 -41q17 -31 64 -44q20 -6 37 -6q23 0 41 11l13 8l13 9q15 10 30 11q4 0 9 8q4 8 6 15q2 13 -2 34q-5 24 8 49l12 24q6 14 10 25q10 28 6 53q-1 4 0 9l3 8l38 166l38 167q11 51 61 61l16 -25l16 -25 q20 -30 30 -52q12 -23 25 -56l21 -58q27 -72 52 -112l17 -29l18 -30q21 -36 37 -59q17 -25 49 -44q13 -7 30 -15l31 -14q40 -17 61 -17q8 0 14 3q19 8 42 66l-10 22l-9 21q-10 24 -19 39l-26 37l-25 37q-30 44 -46 78q-18 39 -46 88l-26 43l-26 42q-43 72 -79 118 q-18 22 -18 28q0 8 18 27l35 33l36 34q40 40 64 73l6 9l7 8q8 10 15 15q32 22 66 74l13 21l13 21q16 23 31 38q3 3 5 9l2 6l3 5l13 24q8 14 14 24q26 36 27 59q0 24 -24 62q-20 32 -48 32q-10 0 -21 -4q-42 -15 -64 -35l-35 -32q-23 -19 -36 -32q-39 -38 -59 -74 q-4 -6 -12 -15l-6 -7l-7 -8l-33 -39q-20 -24 -33 -41q-17 -23 -43 -59l-42 -60l-6 -10q-4 -6 -8 -9q-10 -10 -26 -10l1 9v9q1 10 2 16l3 13l3 12q4 16 5 25l18 157q9 89 15 157q1 7 1 14q0 33 -12 71q-8 27 -34 42q-41 24 -93 24q-12 0 -24 -1q-36 -4 -45 -34l-8 -25l-8 -25 q-9 -29 -11 -50q-19 -153 -80 -359l-16 -57l-16 -57q-15 -65 -20 -118q-3 -31 -11 -76l-7 -39l-7 -38l-14 -87l-14 -88q-10 -72 -15 -146z" />
<glyph unicode="L" horiz-adv-x="806" d="M68 347q-8 -68 -8 -123q0 -67 12 -114q9 -34 32 -49q44 -29 109 -40q66 -11 134 -11q27 0 54 2q7 0 19 -2l19 -4l21 -2l21 -2l96 -2q26 0 59 8l28 9l28 10q5 2 10 10l4 7l5 6l45 58l-1 14q-13 13 -40 18q-29 -4 -56 -4q-42 0 -78 9q-3 0 -10 -1l-5 -1h-6l-69 -3h-68 q-8 0 -17 6q-10 6 -10 10q0 11 -3 23l-4 11l-4 11q-10 29 -9 46q6 54 6 119v19q-1 38 -4 93l-5 93q-1 22 0 56l1 56v11q0 60 -10 100q-1 5 -1 13v13l-3 54l-1 54q-2 65 -9 107q-3 13 1 25q8 23 8 51q0 29 -9 64q-10 42 -13 73l-2 27l-1 26q-1 34 -4 54l-4 24q-3 13 -7 23 q-9 24 -29 36q-50 31 -93 31q-18 0 -34 -5q-30 -9 -36 -18q-7 -8 -6 -38l1 -10v-10q0 -11 -4 -18q-14 -31 -14 -86q0 -13 1 -27l1 -28v-28q-1 -32 -10 -56v-2l1 -2q13 -55 13 -123v-10q0 -29 -3 -67l-5 -66l-5 -58l-4 -58l-1 -19l1 -20q1 -25 1 -39l-7 -83l-7 -84l-3 -42 l-3 -42q-3 -51 -6 -83z" />
<glyph unicode="M" horiz-adv-x="1259" d="M57 295q-3 -23 -3 -43q0 -23 4 -43q2 -2 2 -5l2 -28q6 -5 1 -13q6 -7 -1 -13v-36l-1 -35q9 -66 80 -66h12l33 4q21 1 34 2q38 0 65 -14l8 6l9 6q9 6 15 9l16 7l15 6q18 8 29 15q30 19 40 50l-3 15l-2 16q-3 17 0 29q6 20 7 49l1 25l1 24l17 306v35l1 35q1 9 4 23l5 23 q33 -44 44 -112q8 -44 44 -67q49 -30 107 -30q14 0 28 2q47 6 63 42q7 17 11 39l3 21l2 20q10 74 22 197l2 26l1 26q2 32 6 51q8 43 21 103l23 103l2 9q2 5 4 8q5 9 18 12l2 -14l2 -14l9 -161q5 -97 9 -161q11 -152 33 -383q5 -56 19 -139l6 -27l6 -27q9 -34 11 -55 q9 -74 69 -118q49 -35 103 -35q10 0 21 1l8 1l8 2q8 2 11 6l15 23q9 14 14 24q14 29 10 53l-14 66l-14 67q-15 78 -16 135l-2 30l-3 30q-5 39 -5 59q-1 147 -14 239l-19 139l-7 61q-4 37 -8 61l-9 51l-10 51q-12 61 -16 101q-6 63 -53 128l-13 18l-12 20q-15 25 -25 37 q-6 10 -14 16q-9 8 -17 9q-21 3 -40 3q-62 0 -94 -35q-137 -151 -175 -305q-6 -23 -14 -51l-17 -52q-2 -5 -7 -14l-6 -8l-6 -10q-5 11 -12 26l-12 23q-12 26 -18 44q-13 43 -33 110l-33 111q-15 53 -47 85q-33 34 -78 34h-7l-19 -1l-19 -1q-21 -1 -36 -5q-62 -18 -69 -71 q-8 -56 -29 -108q-40 -97 -60 -201q-4 -24 -4.5 -49t4.5 -53q3 -21 3 -50q0 -15 -1 -32l-2 -41l-2 -41q-4 -52 -4 -83l1 -27l3 -26q3 -34 1 -54q-3 -34 -12 -83l-8 -42l-8 -41l-9 -43z" />
<glyph unicode="N" horiz-adv-x="951" d="M57 731q-3 -62 -3 -110q0 -62 5 -101l7 -58l5 -58q6 -73 13 -115q6 -35 6 -81q0 -62 -11 -142q-5 -39 0 -45q5 -8 43 -14l8 -2q22 -5 43 -5q45 0 83 24q55 34 81 104q5 13 5 26q0 25 -21 46q-12 12 -29 10l-15 -3l-17 -3l-1 12l-1 11v20l4 91q3 53 7 91q8 85 8 195 q0 64 -3 137q0 14 2 41l2 21l1 20q-1 18 -4 43l-6 43l6 2l4 -11l4 -12l19 -85l20 -84q54 -226 206 -520q17 -31 42 -69q15 -23 47 -66q35 -48 79 -48h4q87 4 145 62q18 18 22 38q14 70 15 111l5 187l3 186l5 143l6 143l-1 13l-2 12l-1 26l-1 27l-1 81v80l-2 44l-1 43l3 41 l3 42q2 54 -48 54h-7q-76 -6 -96 -78q-15 -52 -29 -125q-17 -84 -20 -203l-2 -101l-1 -102l-1 -54v-53q0 -66 -4 -108l-2 -19l-2 -19q-3 -22 -11 -41q-70 129 -118 298q-6 20 -13 53l-13 53q-16 63 -38 103q-3 6 -5 14l-3 14q-31 163 -164 392q-26 44 -69 44q-14 0 -30 -5 q-17 -5 -49 -21q-31 -14 -31 -49q-1 -39 -10 -70q-35 -122 -52 -302l-6 -64l-7 -65q-8 -78 -10 -130z" />
<glyph unicode="O" horiz-adv-x="936" d="M56 507l1 -68q7 -199 93 -324q79 -115 205 -115q17 0 36 2l34 5l34 4q115 9 184 58l23 17l22 17q28 21 47 33q35 22 51 72l8 21l9 21l14 39l13 38q15 45 16 80l1 26l3 26q4 29 15 50q4 6 4 17v10l1 9l5 73l3 40l4 39q2 27 2 50q0 17 -1 30q-2 31 -8 70l-11 69 q-15 93 -19 140q-5 54 -41 123l-15 28l-15 28q-19 34 -28 58q-15 36 -36 57q-32 31 -95 77q-32 25 -72 25q-13 0 -27 -3q-13 -2 -33 -2q-15 0 -35 1l-81 8l-82 7h-8q-44 0 -62 -40l-16 -33l-17 -34q-20 -40 -28 -69q-13 -50 -29 -129l-13 -65l-14 -64q-42 -184 -42 -392 q0 -30 1 -61zM331 835q16 176 37 362q6 45 25 106q9 28 28 28q12 0 27 -11q82 -56 113 -132q67 -167 75 -354q1 -15 0 -37l-2 -19l-1 -19q1 -20 1 -40q0 -91 -18 -205q-7 -49 -21 -122l-24 -122q-7 -37 -39 -86q-21 -34 -50 -34t-53 32q-72 94 -90 258q-14 131 -15 247 q1 77 7 148z" />
<glyph unicode="P" horiz-adv-x="774" d="M53 1369l3 -57l3 -58q2 -34 1.5 -63t-1.5 -53q-1 -12 -1 -27q0 -30 3 -71l3 -49l2 -50v-130l2 -130v-98q0 -92 -1 -162q-1 -34 -1 -69q0 -69 3 -140q2 -28 18 -72q5 -11 16 -31l9 -15l8 -15q15 -34 67 -68q26 -17 50 -8q23 10 33 41q20 61 66 72l-2 66l-1 66l-3 128 l-3 59l-3 59q0 14 12 35q12 22 44 41l13 8l13 7q16 10 25 18q17 14 29 19l13 6q8 3 13 3q15 1 25 -15q48 24 98 80q60 66 78 152q17 76 17 145q0 82 -24 156q-58 175 -194 239l-45 22q-26 13 -44 20q-52 22 -95 24q-25 1 -52 1q-65 0 -135 -7q-62 -7 -62 -73v-6zM253 1346 l9 2l7 2q8 1 12 0q66 -17 112 -71t54 -123q4 -32 4 -63q0 -68 -19 -127q-15 -47 -40 -71q-17 -15 -41 -39l-22 -21q-13 -14 -23 -23l-5 41l-5 39q-6 45 -12 75q-8 43 -8 111v56q-1 32 -3 55q-2 24 -7 59l-8 58l-2 19l-1 10z" />
<glyph unicode="Q" horiz-adv-x="925" d="M50 594l2 -48l2 -48q2 -54 6 -93q9 -102 34 -179q27 -85 85 -154q48 -58 126 -68q29 -4 63 -4q58 0 130 11q95 14 174 79q29 23 61 23q11 0 22 -2t21 -2q42 0 68 39q19 28 19 55q0 17 -7 34q-13 30 -24 51q-20 39 -20 75q0 17 4 33q11 44 11 87q0 30 -5 59q-1 8 0 21 l1 11v11l4 264q0 4 -2 12l-3 13l-6 49q-4 29 -5 49q-3 97 -25 153l-11 28l-12 28q-13 33 -19 57q-11 50 -41 73q-18 14 -48 35l-25 16l-24 17l-12 9l-12 8q-14 11 -22 20q-36 41 -73 42q-27 1 -55 1q-37 0 -74 -2q-22 -1 -43 -16q-71 -49 -115 -134q-41 -79 -73 -185 q-13 -42 -26 -95l-24 -97l-1 -6l-1 -7q-9 -121 -25 -323zM318 705q7 255 37 413q17 86 64 169q4 -6 11 -13l9 -12q11 -12 15 -21l16 -33l16 -33q18 -38 27 -67q11 -36 23 -86l9 -43l9 -44q2 -8 3 -21l2 -22l15 -163l2 -32v-17l1 -17l-8 -1l-7 -1q-7 -1 -10 1q-22 11 -46 11 q-17 0 -34 -6q-16 -5 -35 -16l-18 -11l-17 -11q-25 -17 -10 -47l20 -38l21 -38l30 -51l29 -52q35 -62 57 -104q9 -18 9 -38q0 -22 -12 -47q-23 -46 -66 -55q-17 -3 -35 8q-21 13 -36 40q-6 9 -12 24l-11 25q-69 154 -69 402q0 23 1 47z" />
<glyph unicode="R" horiz-adv-x="973" d="M59 837l3 -48l3 -48v-21q0 -41 -3 -75q-2 -16 -2 -34q0 -36 8 -80q7 -42 7 -98l-1 -49l-1 -50l-2 -123q0 -36 -0.5 -66.5t0.5 -57.5q2 -47 32 -70q23 -17 56 -17q11 0 22 2l25 4l25 2q47 3 65 20q18 18 18 64v80v96q0 10 3 17q3 19 18 35l10 -15l10 -14q11 -16 18 -26 q76 -120 176 -154l42 -14l41 -13q50 -16 105 -16q37 0 76 7q63 11 90 69q6 14 6 25q0 23 -29 32q-28 9 -62 4q-16 -2 -32 -2q-77 0 -123 59l-43 55q-23 31 -39 57q-40 66 -54 129q-5 23 -18 56l-11 28l-11 28q-13 34 13 52q50 33 81 58q106 87 116 201q4 44 4 87 q0 53 -6 105q-4 29 -18 73l-11 36l-11 36q-11 41 -39 72q-70 77 -182 109q-54 15 -120 15h-23q-31 -1 -71 -5l-72 -10q-16 -2 -39 -11q-37 -14 -37 -47l-1 -67v-24q0 -23 1 -42l3 -52l2 -51q0 -57 -9 -103q-12 -57 -12 -132q0 -37 3 -78zM298 1307q-3 34 29 39l27 3 q16 2 28 1q65 -4 77 -65q10 -43 10 -90q0 -12 -1 -23q-1 -46 -15 -136q-2 -15 -8 -35l-11 -35l-10 -31l-11 -30q-24 -66 -95 -93q-1 17 -4 42l-4 39q-3 31 -3 54q0 12 1 22q6 74 6 132t-6 101q-3 20 -6 52z" />
<glyph unicode="S" horiz-adv-x="793" d="M57 306q3 -43 9 -102l11 -102q1 -13 9 -24q47 -64 104 -69l33 -3l33 -3h7q34 0 58 9q4 1 9 1q6 0 8 -2q16 -13 36 -10q8 1 18 4l18 6l16 5l16 5q18 6 30 13q42 24 88 59q4 4 7 14l2 10l3 10q56 16 78 74l4 11l5 12q5 13 12 20q16 20 26 49q4 12 8 27l6 26l5 30l4 29 q4 39 9 59q4 19 5 38q0 42 -22 87q-48 101 -90 156q-143 186 -299 259q-74 35 -79 118l-1 22v23q-1 26 -5 43q-2 9 -2 18q0 37 32 75q18 21 42 18q23 -2 36 -26q10 -21 10 -47q-1 -22 -9 -30t-31 -14l-8 -1l-8 -1q-10 -3 -10 -15q44 -28 97 -28q58 0 128 33q25 11 22 50 l-4 31l-4 30q-7 49 -37 74q-43 35 -63 56q-24 24 -62 34q-14 4 -34 6l-35 4q-20 2 -51 2l-25 -1h-26h-3q-42 0 -67 -31q-36 -43 -50 -103q-19 -74 -19 -156q0 -32 3 -65q8 -100 85 -165q103 -89 171 -162q95 -101 128 -206q27 -86 27 -149q0 -20 -3 -38l-1 -14l1 -15 q1 -19 -1 -29l-4 -22l-4 -22q-6 -25 -16 -40q-18 -27 -48 -60l-25 -29l-26 -29q-4 -4 -11 -7q-6 -2 -13 -2h-7q-29 0 -52 24q-23 23 -23 53v7q1 17 0 46v23v24v22v23q1 26 4 44q8 50 42 80q10 10 11 28q1 16 -7 30q-14 26 -46 18l-17 -4l-18 -5q-19 -6 -31 -15 q-119 -91 -119 -212v-14z" />
<glyph unicode="T" horiz-adv-x="1062" d="M88 1309q6 -4 14 -7l16 -6q19 -8 28 -15q21 -16 47 -16q22 0 47 11q59 25 142 30q-1 -9 -4 -22l-4 -20q-4 -22 -6 -36l-21 -148l-2 -19l-2 -19l-17 -225l-4 -64q-3 -39 -5 -63q-8 -73 -8 -131q0 -33 3 -61q2 -17 2 -40l-1 -41l-3 -142q-1 -57 -1 -102v-41t6 -44l6 -21 l6 -22q10 -32 40 -38q29 -6 50 -6q17 0 30 4q24 7 43 10q31 3 48 23q19 20 15 50q-1 7 -1 14q0 28 13 55q2 6 4 14l1 15q2 21 3 51l1 51q1 61 13 101v4v4l1 143l1 143q0 57 -6 102q-9 78 -11 176l-1 88l1 89v24q0 34 -2 56q-1 14 -5 34l-7 33q-5 29 2 39q8 11 35 12 q178 13 269 20q70 6 105 46q18 21 18 36q0 20 -33 29q-43 12 -91 12h-8l-195 -7l-194 -9h-13l-12 -2q-14 -2 -22 -7q-23 -14 -57 -22l-30 -6l-29 -5l-31 -7l-31 -6q-36 -7 -60 -14q-45 -14 -93 -40q-38 -22 0 -45z" />
<glyph unicode="U" horiz-adv-x="861" d="M50 601l8 -1v-59v-60q2 -225 79 -354q29 -48 84 -95q33 -28 85 -32q18 -1 45 1l23 2l23 1q32 2 75 19l36 15q22 9 36 14q77 28 121 126q15 36 27 89l9 46l9 46q4 20 8 54l3 28l3 27q5 33 15 83l8 40l8 41q17 90 17 155v13v12q0 60 9 144l9 78l9 79l2 34q2 20 4 34 q2 17 2 38q0 32 -5 72l-9 54q-4 32 -5 55q-1 27 -20 35q-19 9 -41 -8q-96 -76 -105 -160l-12 -120l-13 -120q-16 -144 -22 -239q-20 -300 -71 -562q-6 -34 -35 -91q-13 -26 -33 -26q-14 0 -31 13q-18 13 -31 35q-64 111 -64 215q0 9 -3 25l-2 13l-2 12l-4 60l-3 59 q-4 69 -4 119q0 37 5 97l5 49l3 49l5 111l5 110l3 41l5 40q5 50 5 81q0 34 -6 80l-5 40l-5 40q-5 37 -45 47q-45 11 -77 12h-2q-47 0 -52 -49l-1 -20l-2 -20q-1 -25 -3 -40l-25 -145q-15 -90 -23 -145q-4 -26 -6 -66l-1 -33l-2 -33z" />
<glyph unicode="V" horiz-adv-x="847" d="M55 1406l5 -33l10 -74l10 -73q12 -87 23 -146q5 -27 6 -65v-65q0 -81 21 -129q2 -3 2 -10l-1 -5l1 -6l8 -61l8 -62l6 -28l6 -28l-8 -2l10 -48l10 -49l19 -118l19 -119l18 -107q11 -60 21 -106q10 -45 33 -61q16 -11 46 -11q12 0 25 2q70 9 117 25q14 5 27 17q14 13 16 25 q4 22 12 55l7 27l7 28q12 51 12 90q0 12 -1 23q0 8 5 21l5 11l4 10l6 20l4 19l4 29l4 28l10 47q6 29 8 47l15 110q8 69 14 109q11 73 27 122q28 90 28 155q0 31 -6 56q-3 12 0 29q3 11 9 28l6 12q3 8 4 12q3 13 -10 24q-3 2 -1 11t5 11q21 13 21 37q0 12 -5 26q-1 5 0 12 l1 6l2 6q16 71 72 111q7 5 11 18q4 12 2 21q-1 6 -13 12q-11 6 -22 8q-9 1 -21 0q-9 -2 -22 -5q-16 -4 -29 -20l-11 -14q-7 -9 -12 -14q-38 -35 -63 -91q-9 -21 -19 -50l-17 -52q-58 -177 -100 -438q-5 -30 -19 -73l-12 -35l-12 -36q-1 -4 -5 -8l-4 -4l-3 -4l-6 8q-3 5 -3 9 l-14 82q-7 48 -11 82q-6 56 -13 137l-11 136q-13 147 -62 254q-33 73 -119 106q-17 6 -43 8l-22 1h-23q-34 0 -29 -33z" />
<glyph unicode="W" horiz-adv-x="1250" d="M55 1375q16 -106 16 -182q0 -31 -3 -57q-3 -20 1 -49l4 -25l4 -24l6 -37l5 -36q5 -48 6 -91q2 -75 2 -126v-32l-1 -43l-2 -44q-3 -56 -3 -86v-32l1 -32q2 -35 10 -63t8 -53q0 -32 -14 -55q-8 -13 -8 -29q0 -19 12 -42q20 -39 20 -70q0 -7 -1 -13t-1 -13q0 -38 35 -86 l8 -10q4 -6 6 -11q7 -18 28 -23l9 -2l9 -1q11 -2 17 -6q10 -5 19 1l9 6l8 7q4 3 9 6q3 3 7 4q27 7 55 39q24 27 44 64q-1 7 2 12l15 25l2 6q9 28 26 66l1 7l1 7l6 35l6 36q8 42 16 70q6 23 20 58l12 29l11 29q11 32 39 30l8 -31q5 -18 10 -31l17 -43l18 -43q20 -49 37 -85 q14 -29 41 -78l22 -38l21 -39q2 -6 4 -14l2 -15q3 -18 9 -25t24 -12l14 -4q8 -3 12 -7q23 -20 59 -27q12 -2 31 -3l32 -3q34 -4 45 29q12 33 12 59q1 49 22 62l1 18l1 17q1 19 2 31l7 45l8 44l7 40l7 40q9 47 18 78q52 184 67 346q3 26 7 41q14 50 14 117v9q0 34 9 86 q13 68 36 178l4 21l5 20q6 23 12 39q7 19 7 33q0 20 -15 31l-10 6l-9 7q-12 8 -20 12q-24 11 -47 -1q-75 -38 -97 -118l-10 -36l-16 -58q-9 -34 -14 -58q-17 -82 -32 -175l-10 -56l-9 -56q-10 -65 -14 -113q-8 -76 -26 -179l-17 -88l-16 -89q-2 -7 -6 -18l-4 -10l-4 -10 q-45 34 -59 83l-53 174l-7 20l-8 21q-8 25 -9 42q-1 26 -9 63l-8 31l-7 31q-11 50 -61 50h-4l-22 -2l-23 -3q-52 -7 -68 -56q-13 -41 -52 -112l-4 -7l-4 -6q-4 -7 -3 -15q2 -13 -8 -31q-26 -47 -32 -89q-2 -13 -8 -21q-7 -11 -19 -10q-15 1 -19 14q-1 5 -2 12v13l-1 17v76 l-1 77l-3 37l-3 37l-3 78q-2 48 -5 78q-2 25 -7 69l-8 69l-6 64q-4 37 -8 63q-10 72 -31 125q-28 73 -94 73q-9 0 -20 -1q-17 -3 -40 -10q-29 -10 -37 -22q-7 -11 -2 -42zM528 553q-3 5 2 12l6 -25l-4 6z" />
<glyph unicode="X" horiz-adv-x="1030" d="M65 56q-4 -11 -4 -19q0 -25 33 -31q13 -3 31 -4l31 -2h4q32 0 59 28q44 50 68 104q7 16 22 37l13 18l13 18l11 15q6 9 9 16l19 35l17 36q22 42 38 69q8 15 25 36l15 17l15 19l5 -7l4 -5q4 -5 5 -8l9 -32l8 -32l32 -106l33 -105l9 -30l10 -30q17 -43 47 -50 q75 -20 114 -25q30 -4 51 11q22 14 24 39q1 11 1 22q0 28 -6 52q-4 17 -16 47l-9 24l-7 23q-6 21 -11 51l-4 26l-5 25l-1 8l-1 7q-2 9 -4 13q-14 24 -10 61q1 8 1 16q0 31 -16 51q-4 6 -8 19l-14 48l-13 47q-16 56 -30 93q-4 13 -5 27q0 32 25 70l14 22l13 22q15 25 24 46 q12 26 26 64l11 32l12 33q29 78 61 123q2 2 4 8l3 7l17 34l17 33q21 39 37 66q26 42 36 88q3 14 -1 24q-23 53 -68 53q-20 0 -44 -11q-78 -33 -129 -109q-21 -31 -45 -73l-42 -74q-18 -32 -46 -59q-43 38 -47 75q-10 85 -83 203q-12 21 -31 27q-61 20 -107 20q-12 0 -24 -1 q-22 -2 -27 -11q-4 -8 2 -30q17 -60 40 -158l14 -63l13 -63l19 -91q11 -54 17 -92q2 -14 4 -32l2 -33q2 -41 8 -64q4 -16 4 -31q0 -34 -19 -68q-33 -59 -61 -114q-80 -162 -130 -266l-50 -105l-49 -106l-8 -17l-9 -17q-10 -20 -15 -34z" />
<glyph unicode="Y" horiz-adv-x="939" d="M57 1441q-7 -26 12 -54l22 -32l22 -32q27 -39 45 -64q35 -45 80 -89q82 -80 107 -150l6 -16l6 -17q8 -18 17 -29q33 -41 33 -109q0 -13 -1 -26q-4 -49 -5 -91q-5 -240 -6 -376q-1 -21 1 -51l3 -52l2 -19l2 -20q2 -23 0 -38q-2 -24 3 -52l6 -25l7 -25q15 -52 79 -72 q17 -5 40 6q67 31 75 121q1 22 0 60l-1 31v30l5 92l6 93l2 34q2 21 2 35l-2 84l-2 84v28l1 28q2 34 0 56q-1 17 -1 33q0 54 15 92q10 25 25 57l28 56q36 70 50 114l3 8l5 7l64 120l65 120q11 21 2 39q-9 17 -33 22q-10 2 -19 2q-28 0 -52 -16q-21 -14 -41 -31 q-139 -118 -225 -287q-1 -4 -5 -8l-8 -8q-82 78 -121 163l-6 13l-6 13q-8 14 -15 24q-19 23 -29 34q-18 19 -34 30q-18 14 -45 29l-24 12l-24 13q-39 21 -76 21q-31 0 -60 -15z" />
<glyph unicode="Z" horiz-adv-x="1112" d="M52 150v-8q0 -29 12 -77q8 -34 42 -54q34 -19 58 -5q33 20 71 20q9 0 19 -1q24 -3 51 -3q51 0 115 11q11 2 27 2h238l283 -2h16l15 1q45 8 54 34q9 23 -15 55q-10 15 -10 35q0 50 -49 71q-32 13 -61 14l-211 4l-212 4l-21 2l-12 1l-12 1l1 8l1 8q1 7 3 10l17 32l17 32 q21 37 39 60q32 39 69 110l14 29l15 29q17 34 32 57q9 16 20 40l8 21l9 20l12 28l12 28q14 33 25 55l66 128l66 127q47 92 94 194q20 41 28 75l2 15l1 16q2 18 10 30q3 3 0 13q-3 9 -7 13q-13 12 -32 14l-43 5l-42 4q-24 2 -45.5 2t-40.5 -2q-27 -2 -64 -2h-25l-45 1l-45 1 l-139 3q-84 1 -140 1q-21 -1 -51 -7l-25 -5l-25 -6q-16 -4 -26 -10q-12 -9 -13 -23q-3 -34 -3 -60q0 -22 2 -38q4 -38 45 -38q5 0 10 1l23 2l24 2q27 2 47 1l150 -11l150 -12l29 -2l17 -1l18 -2l-3 -12l-3 -11q-4 -13 -8 -20q-48 -99 -104 -172q-30 -38 -70 -99l-34 -50 l-33 -51q-8 -10 -22 -28l-12 -14l-11 -14l-52 -72l-52 -73l-11 -14l-11 -15l-45 -72q-27 -43 -46 -71l-7 -9l-7 -9q-9 -12 -14 -19q-14 -22 -11 -45q0 -4 -4 -11l-4 -6l-4 -6q-44 -66 -47 -110q-1 -10 -11 -19q-34 -33 -37 -79z" />
<glyph unicode="[" horiz-adv-x="639" d="M51 81q2 11 8 22q6 12 13 15q29 15 59 17q33 1 80 1l80 -1v-3l71 1l70 -1q33 -1 64 -12q12 -5 15 -16q3 -13 -9 -25l-11 -12l-11 -11q-13 -12 -24 -16q-192 -67 -327 -18q-40 14 -61 27q-6 4 -12 15t-5 17zM51 116l6 60l5 57q6 67 10 112l5 62l6 63q6 73 7 125 q2 70 1 174l-1 87v87v32l3 31l10 146q6 88 9 147q2 24 0 56l-3 29l-2 28q-2 26 3 34q5 9 29 20q37 18 74 8q29 -8 39 -19q9 -11 14 -41q4 -29 11 -53q20 -73 16 -200l-3 -134l-2 -134l-6 -256l-1 -30l-1 -29l-5 -39l-5 -40l-3 -22l-3 -23l-9 -188v-15l1 -15l-3 -74l-1 -16 l-1 -15q-1 -19 0 -32q4 -38 -27 -61q-59 -44 -126 -37q-38 4 -42 39q-3 17 -4 40v19zM126 1427q2 12 8 23q6 12 13 15q29 15 59 16q33 2 80 1h80v-3l71 1l70 -1q33 -2 64 -13q12 -4 15 -16t-9 -25l-11 -11l-11 -12q-13 -11 -24 -15q-192 -68 -327 -18q-40 14 -61 27 q-6 3 -12 14t-5 17z" />
<glyph unicode="\" horiz-adv-x="850" d="M63 1372q-13 42 27 62q39 19 65 13q27 -7 54 -41q42 -54 58 -88l46 -104l47 -103q51 -118 88 -209q37 -94 100 -264l49 -132l50 -132q25 -65 66 -158l34 -79l35 -79l3 -6l3 -6q4 -7 5 -12q7 -34 -25 -34l-14 1h-13q-75 -6 -133 56q-108 114 -142 201l-23 62l-24 61 q-29 71 -57 120l-13 23l-13 23q-13 27 -20 49q-7 25 -22 58l-13 28l-13 28q-33 71 -40 119q-7 43 -27 106l-17 52l-17 52l-7 26l-7 27q-8 33 -14 52l-38 114z" />
<glyph unicode="]" horiz-adv-x="638" d="M53 1450q2 12 14 16q31 11 64 13l71 1l70 -1v3h80q47 1 80 -1q31 -1 60 -16q6 -3 13 -15q5 -11 7 -23q1 -6 -5 -17t-12 -14q-20 -13 -60 -27q-135 -50 -328 18q-10 4 -23 15l-12 12l-11 11q-11 13 -8 25zM127 104q3 11 15 16q31 11 64 12l71 1l70 -1v3l80 1q47 0 80 -1 q31 -2 60 -17q6 -3 12 -15q6 -11 8 -22q1 -6 -5 -17t-12 -15q-21 -13 -60 -27q-135 -49 -328 18q-10 4 -23 16l-12 11l-11 12q-11 12 -9 25zM346 1161q-5 127 15 200q7 24 11 53q5 30 15 41t39 19q37 10 73 -8q24 -11 29 -20q5 -8 3 -34l-2 -28l-2 -29q-2 -32 -1 -56 q3 -59 9 -147l11 -146l2 -31l1 -32l-1 -87l-1 -87q-1 -104 1 -174q1 -52 7 -125l6 -63l6 -62q3 -45 9 -112l6 -57l5 -60v-17l-1 -19q-1 -23 -3 -40q-5 -35 -42 -39q-68 -7 -126 37q-32 23 -28 61q1 13 0 32l-1 15l-1 16l-3 74l1 15v15l-9 188l-2 23l-4 22l-5 40l-4 39l-2 29 l-1 30l-5 256l-2 134z" />
<glyph unicode="^" horiz-adv-x="576" d="M59 534q5 18 14 42l14 41l6 -2l29 95l27 95q19 66 85 122q20 16 37 16t50 -16l24 -12q40 -16 47 -24q6 -8 4 -40q-2 -31 -18 -66q-6 -13 -16 -29l-18 -30q-29 -48 -67 -123l-31 -63l-32 -63q-20 -38 -38 -61q-18 -22 -45 7q-7 8 -19 19l-20 19q-42 39 -33 73zM203 889 q2 26 15 38q12 12 47 23l24 9q41 17 51 16t31 -25q21 -23 34 -59q5 -14 10 -32l8 -34q14 -55 40 -135l22 -66l22 -67q13 -41 16 -70t-37 -27q-10 1 -27 0l-27 -1q-58 -2 -75 29q-9 16 -20 39l-19 40l6 2l-47 87l-48 87q-33 60 -26 146z" />
<glyph unicode="_" horiz-adv-x="1093" d="M52 93q4 11 17 22q13 12 27 15q63 15 128 17q70 1 171 1l172 -1v-3l151 1l151 -1q71 -1 137 -12q26 -5 31 -16q6 -13 -19 -25l-23 -12l-24 -11q-28 -12 -51 -16q-412 -67 -701 -18q-86 14 -130 27q-13 4 -26 15t-11 17z" />
<glyph unicode="`" horiz-adv-x="424" d="M53 1326q0 -11 3 -25l2 -11l2 -10q-10 -52 48 -88q28 -17 51 -6q22 11 30 43q21 92 -13 185q-11 30 -39 47q-30 18 -58 11q-6 -2 -12 -8q-7 -6 -7 -11q-6 -66 -7 -127zM217 1320q0 -11 3 -25l2 -11l2 -10q-10 -52 48 -88q28 -17 51 -6q22 11 30 43q21 92 -13 185 q-11 30 -39 47q-30 18 -58 11q-6 -2 -12 -8q-7 -6 -7 -11q-6 -66 -7 -127z" />
<glyph unicode="a" horiz-adv-x="1283" d="M61 15q-11 23 5 52q10 18 21 45l8 23l9 23l13 37l14 36l32 82l32 82q6 16 9 38q9 77 53 209q2 8 8 19l11 19l5 7q3 4 4 7l28 74l29 75l39 97l39 98l23 55l22 55q26 64 46 109q22 49 77 139q26 45 79 45h41h41q50 -1 73 -44l16 -29l15 -28q12 -27 29 -40q20 -17 24 -44 l7 -51l6 -51q3 -32 3 -60q0 -23 -2 -44q-3 -26 -3 -64v-33l-1 -32v-7l2 -6q11 -25 15 -60l3 -31l2 -31q1 -11 7 -31l5 -16l3 -15l7 -50q3 -27 3 -49q-1 -21 3 -49l4 -23l5 -24q1 -7 7 -15l5 -7l4 -7l5 -6l5 -6q7 -7 8 -12q12 -45 46 -95q12 -17 31 -42l33 -41l18 -24 q11 -14 20 -24q24 -26 48 -39q7 -4 15 -12l7 -7l6 -6l-8 -24l-9 -24l-15 -46q-9 -26 -37 -24q-56 4 -106 13q-35 6 -88 23q-27 8 -42 20l-28 24l-28 23q-31 28 -52 51q-16 17 -35 46l-15 25l-16 24l-7 11l-7 11q-17 30 -47 19q-63 -23 -187 -26l-41 -1l-44 1l-31 -56 l-30 -55l-31 -54l-15 -28l-15 -27q-18 -30 -35 -51q-35 -43 -93 -56q-22 -5 -42 -5q-36 0 -68 15zM500 442h25l24 -1q27 0 44 2q10 1 24 0l23 -2q29 -1 48 6l-3 12l-2 11l-10 39l-11 39q-13 47 -19 79q-11 52 -48 76q-63 -116 -95 -261z" />
<glyph unicode="b" horiz-adv-x="860" d="M58 318q-3 -14 -3 -26q0 -23 10 -41q4 -6 4 -16v-9v-9v-7l-1 -7q-1 -9 -1 -13q11 -81 87 -140q6 -4 13 -7t12 -2q10 2 21 2q38 0 80 -25q4 -2 10 -4l12 -1l41 -7l41 -5q18 -2 32 1l21 6l21 5q24 7 40 16q16 8 38 25l18 14l19 15l8 -2l9 -3q11 -4 18 -4l36 15l13 9l29 13 q19 12 27 18q46 38 63 92q9 30 17 109q3 28 3 55q0 127 -67 211q-54 43 -95 60q-27 11 -41 20q-21 14 -31 35l10 11l10 11q12 13 18 23q9 16 17 20q11 17 26 43l11 21l6 11l6 10v16l8 6l8 7q13 21 34 61l17 32l17 30q43 75 43 138q0 20 -4 39q-21 27 -20 50l-4 6l-3 6 q-11 17 -27 36l-14 17l-14 16q-9 0 -17 -3q-6 19 -6 20q-2 111 -109 136q-26 6 -64 10l-33 4l-33 3q-39 4 -67 4q-14 0 -29 1q-86 0 -182 -6q-49 -3 -51 -49l-2 -67l-1 -66l-1 -25l-2 -25v-11l-2 -10q-1 -12 1 -20q6 -28 6 -61q0 -23 -3 -49l-6 -55l-8 -55l-3 -26l-4 -26 q-6 -32 -6 -52v-26q0 -28 1 -62l3 -89l-1 -7l-1 -7l-8 -96l-8 -96l-2 -48l-1 -48q-1 -58 -10 -96zM341 1359q-3 9 2 17l1 4q2 5 9 11q7 5 14 7q23 6 43 6q46 0 84 -28q52 -38 52 -102q0 -12 -2 -24q-12 -97 -30 -148l-6 -22l-6 -22q-7 -25 -24 -38q-7 -6 -7 -18 q0 -43 -60 -94q1 15 -2 41q-9 7 -8 18q2 26 2 53q0 146 -62 339zM376 179q-2 8 4 11l6 2l6 1v-3l-6 -19l-3 2l-3 2q-3 2 -4 4zM384 541q-7 18 11 26q2 7 9 9q7 3 15 -3l15 -12l16 -12q17 -14 25 -28q56 -94 62 -219v-7q0 -88 -99 -114q-8 -2 -24 5q-8 1 -13 5l-8 3v8l-1 8 q-1 9 1 15q0 16 -0.5 36t0.5 43l2 79l1 40l1 40q-1 46 -13 78z" />
<glyph unicode="c" horiz-adv-x="892" d="M56 790l1 -14q1 -20 0 -29q-2 -15 -2 -33q0 -34 8 -79l10 -43l9 -43q10 -51 11 -87q2 -84 43 -196q17 -47 37 -77q74 -112 184 -174q27 -15 57 -15q10 0 21 2l27 3l27 4q32 4 53 11q10 3 24 5l25 2q31 3 48 12q1 15 15 19q77 26 132 135v1l1 1q35 70 55 159l-5 10 q-9 3 -17 3q-24 0 -47 -25l-52 -59l-51 -60q-9 -11 -25 -34l-13 -17l-12 -17q-15 -18 -26 -20q-12 -2 -33 8l-8 5l-8 4q-9 5 -14 10q-9 11 -25 27l-26 26q-30 31 -43 60q-4 10 -8 22l-5 23q-7 29 -14 44q-12 25 -21 77l-5 37l-4 37q-5 46 -11 73q-12 57 -12 133q0 54 6 118 l3 27l4 27q4 32 2 53q-2 20 -2 42q0 15 1 30l3 36l3 36q1 13 1 36l1 35q0 23 3 45q4 35 23 82l16 40l15 39q8 23 30 22q55 -3 83 -20q34 -21 43 -70l2 -9l2 -9q2 -11 5 -17q5 -10 10 -16q6 -8 12 -9q39 -10 80 -10q30 -1 33 30l4 54q1 7 1 15q0 56 -56 93q-48 33 -116 43 q-26 4 -61 5l-30 1l-31 1h-9q-24 0 -56 -4l-32 -5l-33 -5q-8 -1 -19 -5l-18 -8q-35 -16 -57 -72l-12 -32l-12 -31q-15 -37 -27 -62q-23 -46 -31 -93q-3 -16 -9 -35l-13 -45l-15 -45q-16 -54 -25 -91q-8 -29 -13 -66l-10 -67v-15z" />
<glyph unicode="d" horiz-adv-x="816" d="M50 320q0 -33 2 -66q9 -23 9 -49q0 -13 -2 -27l8 -73l8 -72l6 -11q40 -22 103 -22q20 0 41 2q86 8 152 42q2 3 4 5q9 8 12 10l-1 4q31 10 57 40q10 10 21 27l20 29q4 7 15 18q66 64 80 114q3 12 12 19q22 18 34 59q7 25 17 34q8 18 24 42l13 20l14 20l16 61l15 61 q15 69 21 125l4 20l5 19q6 23 5 37q-13 247 -80 393q-32 69 -86 104l-16 10l-16 10q-17 12 -29 22q-82 78 -221 102q-32 6 -75 9l-38 3l-38 2q-20 1 -54 -6q-44 -10 -44 -52q0 -7 1 -14l4 -34l5 -34q19 -109 19 -204q0 -39 -3 -75q-3 -35 -10 -86l-12 -86q-8 -64 -12 -157 l-3 -79l-4 -80q-1 -25 -1 -59l1 -59v-28q0 -55 -3 -90zM284 1341q80 -50 105 -107q53 -117 65 -224q2 -18 2 -48l1 -24l1 -24l3 -31l2 -32v-34l-1 -35l-3 -36l-3 -37l-4 -54l-5 -55q-7 -61 -22 -107q-8 -24 -14 -58q-11 -63 -77 -160q-9 18 -11 38v17v17l-1 104v104 q0 121 2 209q1 18 1 38q0 54 -6 124l-7 81l-7 80q-3 50 -10 124l-5 64z" />
<glyph unicode="e" horiz-adv-x="763" d="M53 47q3 -14 33 -33q51 -1 146 -6l73 -4l73 -3l48 -1l8 3q5 3 15 2l9 -2l9 -2h7h7q87 4 145 33q11 8 24 20l22 22q0 8 -1 15q14 11 6 26q-7 14 -30 26q-35 19 -69 19q-20 0 -40 -7q-33 -11 -121 -11h-15q-37 0 -82 2q-33 2 -69 5q1 59 24 213l9 61l5 31l4 29 q10 67 14 103l34 1l33 1l42 3l42 3q48 5 82 17q30 11 38 24t7 49q-37 22 -82 22h-8l-80 -5l-80 -4q-10 -1 -33 -1q-1 19 -1 47q0 97 11 301q5 85 11 181q2 32 4 63q1 11 1 21l1 7v5h36q36 0 70 1q71 2 124 9q144 19 142 72q12 13 6 25t-24 12q-10 1 -21 1q-21 0 -44 -3 l-86 -9l-86 -8q-69 -6 -125 -6q-25 0 -48 1q-12 0 -31 4l-32 5q-7 1 -15 -2l-7 -2l-7 -3q-8 -3 -14 -3q-47 -2 -57 -19q-9 -14 -3 -62l2 -8l1 -9l5 -65q3 -38 3 -64q0 -31 -2 -74l-3 -73l-2 -52l-3 -52l-10 -121l-9 -120l-6 -104l-6 -103q-11 -191 -11 -328v-22 q0 -22 -5 -38q-11 -44 -8 -56z" />
<glyph unicode="f" horiz-adv-x="796" d="M52 201l2 41l4 41q6 52 6 82q4 155 16 262q3 21 3 52v17v35l1 34q6 141 13 211q5 45 14 112l15 111l2 17q1 10 0 17q-1 11 -1 23q0 20 3 42l6 31l7 32q10 48 57 58q175 36 297 36q46 0 84 -5q22 -3 56 -2l29 1h28h13q7 0 12 -1q14 -4 17 -19q2 -8 2 -15q0 -27 -32 -40 q-48 -18 -89 -18h-4q-61 3 -108 3q-23 0 -43 -1q-39 -1 -108 -10q-31 -4 -32 -39l-5 -93l-5 -94l-5 -151l-4 -152v-21v-12v-13l36 2l34 2l67 3q34 2 61 2q40 0 66 -4q1 -7 1 -13q0 -57 -64 -82q-12 -5 -30 -9l-31 -8q-39 -10 -60 -24q-5 -3 -16 -2l-9 1l-9 1q-49 -1 -54 -48 q-4 -32 -8 -83l-7 -84l-3 -41q-3 -23 -7 -40l-7 -34l-6 -34q-2 -15 -2 -29q0 -21 4 -40q1 -8 0 -13l-24 -78q-14 -46 -26 -78q-11 -31 -58 -39q-4 -1 -7 -1q-4 0 -6 2q-8 9 -23 20l-14 9l-13 9q-30 23 -33 53q-4 51 -4 84q0 13 1 24z" />
<glyph unicode="g" horiz-adv-x="744" d="M50 642l17 228l4 53l4 53q10 117 40 234q10 37 20 85l18 87q1 6 -1 15l-2 9l-2 8q35 29 120 60q29 11 65 11q15 0 30 -2q16 -2 45 -8l23 -4l23 -4q36 -5 66 -47q28 -40 28 -76q0 -35 -35 -42q-12 -3 -24 -3q-26 0 -48 14l-11 8l-11 8q-35 27 -49 22t-24 -46l-15 -64 l-15 -63q-17 -74 -25 -127q-12 -79 -24 -190l-10 -96l-10 -95q-1 -10 1 -23l3 -22q4 -29 -1 -46q-3 -8 -4 -19l-2 -19l-3 -29q-2 -16 -1 -28l2 -37l4 -38v-6l1 -7l9 -39l10 -39q12 -45 23 -76q18 -49 51 -75q27 -21 81 -26q16 -2 32 10q11 9 24 28q58 83 58 156v7l-1 38 l-1 38q-2 45 -12 77q-2 9 -3 23v13l-1 12q-2 27 -10 34q-9 7 -37 4q-62 -5 -97 -6h-2q-37 0 -63 30l7 9l6 9q7 10 14 15q69 49 130 49h2q20 0 51 7l26 7l26 7l33 6q18 3 32 4q34 0 30 -32q-2 -11 -2 -22q0 -27 11 -56q14 -36 17 -90l1 -46l2 -46v-31v-30v-16q0 -9 -1 -15 q-20 -72 -36 -123q-2 -7 -8 -15l-6 -7l-6 -6q-58 -67 -116 -132q-5 -7 -9 -10q-6 -5 -11 -5q-20 -3 -47 -9l-47 -12q-58 -15 -95 -15q-42 0 -91 24q-67 32 -122 138q-9 18 -12 37q-31 188 -31 308q0 23 1 43q0 13 -1 33l-4 33l-1 13z" />
<glyph unicode="h" horiz-adv-x="799" d="M50 109l1 18q2 20 12 35q4 6 4 17l1 10v10l8 178l5 128l5 129q0 7 2 18l3 18q4 22 0 33q-9 25 -5 58l4 28q3 17 4 28q5 95 9 210l2 101q1 64 2 101q1 12 1 23q0 47 -10 98q-3 18 -3 33q0 28 12 43q20 25 73 28q17 1 39 -2l20 -4l19 -3q50 -10 54 -67l2 -39l2 -39 q3 -44 8 -77q9 -61 10 -157l1 -78q0 -46 2 -79l2 -30l1 -16l2 -18l37 -1q22 0 37 1q42 3 73 21l1 69l2 70q1 34 8 98l15 142l14 143q5 54 50 63l25 5l25 6q31 8 50 10q24 2 33 -6q10 -8 14 -33q17 -89 17 -151q0 -24 -3 -45q-4 -32 -7 -84l-2 -42l-3 -42q-1 -14 -5 -37 l-7 -37l-4 -35q-2 -19 -2 -34l-2 -120l-1 -120l-1 -18l-2 -19l-8 -70l-7 -70v-10v-11q1 -13 -1 -21q-13 -48 -13 -116q0 -24 2 -50l3 -41l3 -41q2 -37 2 -65v-18v-47q-1 -34 -30 -49q-10 -5 -24 -16l-12 -10l-13 -11l-37 10q-21 5 -35 10q-29 11 -40 27q-10 16 -11 48 l-2 229l-3 229q-1 85 -7 150q-1 20 -9 24q-7 4 -28 -1q-31 -7 -69 -10q-29 -3 -38 -12q-9 -8 -12 -37l-1 -18l-9 -244l-1 -46l-1 -46q-2 -54 -5 -91q-7 -77 -25 -151q-7 -31 -39 -53q-30 -21 -63 -21l-14 1h-14h-6q-84 0 -86 89z" />
<glyph unicode="i" horiz-adv-x="870" d="M50 16l1 8l1 7q1 9 4 13q20 31 34 82l11 43q7 26 13 43l15 44l14 45q18 57 29 88q42 116 70 243q27 127 67 263q58 203 58 349q0 14 -1 27q0 21 7 44l22 65l23 65q10 30 40 45q41 20 86 20q11 0 22 -1q43 -4 47 -45l4 -42l3 -42q2 -29 2 -53q0 -16 -1 -31 q-3 -51 -12 -122l-8 -60l-9 -61q-1 -9 -4 -24l-6 -23l-6 -24q-3 -14 -4 -24l-5 -96l-6 -95q-4 -93 -4 -164v-27v-129l-2 -128v-5q0 -61 23 -102q23 -42 68 -43l34 -1l34 -1q40 0 68 10q7 2 16 0q10 -2 15 -7q7 -6 5 -15l-3 -8l-5 -9q-33 -63 -116 -69q-15 0 -32.5 -0.5 t-36.5 0.5l-34 2l-35 3q-72 5 -112 89q-41 86 -43 184l-1 24l-2 23l-9 1l-6 -15l-6 -15q-24 -78 -95 -214q-36 -69 -83 -114q-38 -37 -84 -37q-31 0 -65 16z" />
<glyph unicode="j" horiz-adv-x="1016" d="M71 345q5 27 33 45q28 17 57 11q26 -6 31 -32q1 -6 1 -17q-1 -8 -1 -16q0 -107 100 -215q18 -20 32 -20q18 0 30 30q23 59 27 95q32 313 47 512q3 33 3 85v27l-1 56l1 57q1 37 6 90l9 90l6 56l6 56q2 32 -32 30q-66 -4 -100 -23q-16 -9 -39 -9q-15 0 -34 4q-46 11 -65 35 q-20 25 6 40q51 29 97 46q90 33 232 49l60 8l60 10q79 13 119 18q36 3 87 4h43l43 1q1 0 31 -11l-12 -10l-11 -10q-12 -10 -21 -15q-23 -12 -50 -44q-12 -14 -34 -28l-20 -11l-20 -10q-12 -6 -30 -10l-16 -4l-16 -3l-24 -4l-23 -3q-23 -5 -29 -11q-7 -7 -8 -28l-6 -132 l-6 -131l-1 -37l-2 -37q-2 -42 -5 -73q-11 -87 -38 -252l-15 -85l-15 -85l-5 -27l-4 -28q-4 -35 -9 -55q-23 -112 -65 -187q-46 -82 -99 -117q-31 -20 -62 -20q-17 0 -33 6l-47 15q-28 9 -47 16q-77 30 -99 107q-5 18 -11 28q-20 35 -20 92q0 36 8 81z" />
<glyph unicode="k" horiz-adv-x="1007" d="M53 80l8 112q7 97 28 232l18 115l18 116q16 109 24 206q2 30 2 82v41l1 41q1 17 4 40l7 41l8 53l8 54q10 61 23 105q5 15 5 40v21v21q2 49 44 59q25 6 60 2q34 -4 43 -38q23 -84 23 -141q0 -16 -2 -29q-4 -32 -5 -82v-41l-1 -41l-4 -76l-4 -75l1 -23l1 -23l13 -4l17 21 l16 21q19 26 30 45q55 100 110 215q7 15 15 35l14 35q17 45 30 69q12 23 32 51l19 23l19 24q5 6 15 12l9 4l9 4q13 5 23 5q26 0 34 -35q8 -32 8 -64q0 -51 -20 -101l-19 -49l-19 -49q-23 -58 -42 -98q-48 -101 -137 -187l-17 -16l-16 -17l3 -6l2 -5q2 -5 4 -7 q63 -50 70 -162q9 -154 119 -325q14 -21 38 -44q15 -14 44 -38q14 -11 27 -11q18 0 35 22l16 22l16 23q20 29 31 44q4 6 14 15l9 7l10 8l5 -9l4 -7q4 -7 3 -11l-6 -39q-4 -23 -9 -39q-14 -41 -45 -65q-7 -5 -15 -13l-13 -14q-51 -51 -118 -51q-29 0 -61 9q-81 23 -170 133 q-104 128 -121 342l-2 32l-3 33q-2 9 -5 21l-7 22q-19 -1 -26 -14q-3 -4 -5 -12l-2 -12q-3 -19 -6 -49l-6 -49l-7 -56q-4 -32 -8 -56q-26 -149 -44 -237q-5 -23 -15 -54l-8 -27l-9 -26l-2 -5l-2 -5q-3 -6 -4 -10q-3 -30 -25 -55q-8 -9 -21 -20l-24 -18q-23 -18 -44 -18 q-15 0 -28 9q-42 28 -42 66v5z" />
<glyph unicode="l" horiz-adv-x="757" d="M54 128q-4 21 10 57q6 15 11 36l8 36q45 228 47 460q2 273 25 453q8 66 8 122q0 45 -5 85q-2 14 -2 25q0 34 16 47q13 12 44 12q14 0 30 -2q87 -13 120 -109q31 -92 31 -185q0 -18 -1 -36q-1 -16 -1 -32q0 -24 2 -48q1 -18 1 -37q0 -26 -2 -57l-3 -48l-5 -47 q-2 -19 -2 -43q0 -16 1 -35l2 -40l1 -39l1 -9l1 -9q2 -11 -1 -17q-10 -20 -8 -45l3 -22l4 -23q4 -20 5 -44v-12q0 -95 -28 -272q-3 -21 -14 -51l-9 -25l-8 -25l-4 -13l-2 -7l-2 -9q54 -18 97 -18q25 0 47 6q41 11 101 11q48 0 109 -7q5 -1 12 -3l5 -3l5 -2q3 -20 -20 -27 l-38 -14l-39 -13q-45 -16 -77 -23q-106 -26 -193 -26q-61 0 -112 13q-99 26 -139 65q-27 26 -32 49z" />
<glyph unicode="m" horiz-adv-x="1219" d="M58 620q-2 32 -2 65q0 69 10 136q4 28 8 73l4 36l3 37q10 87 20 154l12 68l12 69q13 75 44 116q28 37 65 42q8 1 19 4l17 6q17 5 32 5q38 0 67 -33q42 -48 60 -119q6 -24 18 -64l10 -32l10 -32l14 -51q8 -29 11 -51t15 -46l11 -22l12 -23l4 5l3 4q3 4 4 7 q100 239 176 371q8 13 15 32l6 17l6 17q11 29 43 36l29 8l28 7q28 5 50 -8q23 -14 32 -41q8 -26 22 -33q10 -6 12 -15q2 -10 -9 -20q-2 -1 -4 -5l-2 -3v-1q14 -9 13 -30v-9v-9q1 -10 6 -17q16 -22 19 -58q2 -13 2 -32v-32q0 -5 -8 -13l-6 -6q-3 -4 -4 -7q-3 -18 2 -46 q11 -64 26 -132l2 -12l3 -11q4 -13 9 -21q24 -38 38 -98l9 -52q7 -34 10 -51q10 -43 20 -112l7 -56l9 -56l6 -34l7 -34q9 -42 12 -67q2 -16 6 -37l8 -37q9 -45 9 -75q0 -15 7 -37l6 -20l6 -22l-25 -6l-23 -6q-27 -7 -45 -9q-11 -1 -21 -1q-72 0 -137 65q-29 29 -36 101 l-16 161q-9 91 -13 161q-4 63 -22 158l-15 79q-8 46 -13 78q-3 16 -4 42l-2 42l-3 35l-4 35l-8 1l-7 -9q-4 -5 -5 -9l-23 -72q-14 -42 -22 -72q-23 -83 -29 -148q-1 -8 -4 -19l-3 -9l-3 -9l-6 -23l-5 -23q-7 -28 -10 -48q-9 -67 -62 -67h-6q-27 2 -60 10l-29 8l-29 9 q-6 2 -13 12q-5 7 -8 17q-59 166 -87 250q-8 27 -19 69l-9 34l-9 35q-3 11 -9 29l-5 16q-4 10 -6 19q-11 -22 -17 -44l-3 -20l-3 -20l-4 -25l-4 -26q-5 -32 -7 -52q-2 -29 -4 -75l-3 -76l-5 -67l-4 -67l-3 -41l-2 -42q-2 -24 -1.5 -45t1.5 -39q5 -63 17 -156l10 -78l10 -78 q2 -16 1 -30q-1 -23 -8 -32t-29 -16l-41 -11q-22 -6 -41 -8q-30 -4 -44 7q-13 10 -18 41l-7 52l-6 52l-10 59q-5 32 -11 57q-20 82 -20 156q0 29 3 57q2 22 2 50v19l-2 34z" />
<glyph unicode="n" horiz-adv-x="1008" d="M54 695l3 64l4 65v73l1 73l1 44q1 24 4 43q21 139 45 264q6 32 25 78q7 16 26 28q48 29 104 29q10 0 20 -1q47 -4 74 -45q36 -55 49 -95q8 -21 21 -52l12 -26l11 -26q46 -112 55 -176q5 -37 17 -89l10 -45l10 -44l7 -36q4 -22 8 -36l28 -88l27 -89q16 -57 51 -138l29 -67 l28 -68q2 -3 5 -7l3 -5l3 -5q9 10 11 23l1 12v11l-3 164q-2 98 -2 164q0 64 3 160l4 160q0 21 -2 48l-7 73l-6 73q-2 29 -8 36q-7 7 -35 8q-55 1 -55 35q0 16 12 39q42 80 104 89q5 0 12 4l11 7l9 7l9 7q12 6 24 1l14 -6q9 -4 15 -7q15 -10 21 -25q3 -9 11 -22l7 -12l6 -11 q14 -27 11 -50q24 -51 32 -120q4 -27 5 -62l3 -62q3 -75 5 -192l4 -192l2 -46l2 -45q3 -56 3 -91q-4 -170 -16 -280q-5 -54 -42 -108q-29 -43 -94 -54l-7 -1h-6q-9 0 -13 -2q-23 -10 -44 -10q-20 0 -38 9q-28 14 -59 57q-98 132 -176 316q-75 177 -106 297q-8 34 -24 81 l-13 40l-13 40q-1 2 -4 5l-3 3l-3 3q-12 -17 -12 -42v-21l1 -21q0 -114 5 -302q1 -25 4 -71l4 -71v-22q0 -86 -27 -183q-12 -43 -15 -102q-2 -38 -32 -45q-31 -7 -85 -12q-28 -2 -32 28l-6 39l-6 38l-12 73l-12 72q-12 85 -13 147v84q0 49 -4 84q-3 29 -3 66q0 30 2 64z" />
<glyph unicode="o" horiz-adv-x="772" d="M50 736l1 71l2 71q4 160 65 371q8 29 27 64l17 32l18 31q13 24 46 34q12 4 30 7l15 2l15 3q20 3 39 3q56 0 116 -25q86 -37 146 -73q55 -33 76 -118l9 -31l10 -32q14 -40 19 -62q12 -58 16 -128q2 -29 2 -71l-1 -71h4l-2 -48l-2 -48q-2 -58 -9 -96q-36 -217 -74 -362 q-18 -71 -79 -167q-56 -90 -155 -90q-8 0 -16 1h-5h-5q-11 0 -30 -2l-16 -1l-15 -1q-36 -1 -59 15q-101 69 -122 139l-25 79q-15 45 -24 79q-23 89 -27 161q-3 58 -5 131zM260 741l1 -78l1 -77q-4 -32 -4 -67q0 -57 10 -125q5 -35 16 -95l9 -47l8 -48q2 -11 9 -25l7 -13 l7 -12q15 -29 36 -2q37 48 37 92q0 7 -1 14q-4 23 -1 62l6 58l6 58q7 70 7 117q-1 36 -1 87v55l1 71v70q0 169 -17 284l-10 60q-6 33 -13 59q-2 10 -13 22l-10 11l-9 11l-9 -11l-8 -11q-10 -13 -13 -23q-25 -69 -35 -170l-3 -44l-3 -43q-4 -57 -6 -86q-5 -53 -5 -128v-26z " />
<glyph unicode="p" horiz-adv-x="747" d="M51 69q8 143 19 258l11 114l13 115q15 142 22 229q7 85 7 193q0 141 -12 320q-2 24 -10 41q-7 13 -7 23q0 20 26 31q109 48 205 48q143 0 256 -107q21 -20 39 -57q7 -14 15 -34l13 -33q23 -57 34 -131q4 -30 7 -68l5 -68v-13q0 -48 -18 -102q-8 -23 -22 -54l-24 -54 q-28 -64 -93 -119q-24 -21 -60 -46l-32 -22l-31 -21q-25 -18 -70 -18q-19 0 -40 3q-14 1 -19 -1q-6 -3 -8 -17l-20 -134l-20 -135q-2 -16 -2 -41l1 -21v-21l5 -1l-9 -49l-10 -48q-3 -12 -14 -20q-13 -9 -47 -9q-11 0 -25 1q-56 4 -69 19q-17 20 -16 49zM283 1308l11 -154 l12 -139l11 -139q1 -12 -1 -29l-2 -15l-2 -14l-7 -69q-4 -40 -4 -68q-1 -19 9 -25q9 -7 21 3l29 24l28 25q32 28 50 54q35 50 49 121q5 27 8 63l2 32l2 32q-4 134 -46 223q-41 88 -132 104q-40 6 -38 -29z" />
<glyph unicode="q" horiz-adv-x="954" d="M79 817q23 222 57 355q13 47 46 110l30 54l29 53q17 33 65 41q40 7 73 7q55 0 90 -19q5 -3 14 -5l14 -3q137 -28 207 -159q11 -21 14 -39q17 -86 41 -152q12 -35 17 -88l4 -46l4 -46q1 -12 1 -29l-1 -30l-3 -84q-2 -50 -5 -85q-8 -96 -27 -167q-6 -22 -6 -43 q0 -31 14 -58q26 -48 67 -128l65 -127q15 -28 10 -47q-4 -18 -28 -41q-43 -41 -93 -41q-39 0 -82 25q-13 8 -27 24q-10 12 -22 31q-17 25 -26 27q-8 1 -35 -15q-124 -79 -225 -79q-108 0 -173 98q-50 75 -73 167q-45 182 -45 370q0 84 9 169zM272 772v-15q0 -277 71 -491 q11 -31 33 -61q9 -12 21 -27l23 -25q13 -14 29 -14q14 0 31 11q36 25 52 83q8 27 8 50q0 26 -10 47q-73 165 -132 307q-16 41 -8 62t48 37q38 15 76 15q8 0 17 -1t21 -16l10 -14l10 -12l2 -4l3 -3q11 -12 20 -10q10 2 13 17l4 28l4 28q4 32 2 56q-17 150 -45 314 q-11 58 -39 91q-35 40 -113 98q-26 19 -44 15q-17 -4 -34 -31q-10 -15 -13 -27l-13 -59l-14 -59q-15 -69 -23 -118q-5 -39 -7 -96l-1 -48l-1 -48h-1v-80z" />
<glyph unicode="r" horiz-adv-x="990" d="M68 220q2 8 2 19l2 19l13 103q7 61 11 103q1 19 1 45v28l-1 37v36l3 132l4 131v48v48v63l1 62l3 113l4 113l-1 4q0 64 21 86q20 22 81 22h10l16 -1l8 -1h6l25 2l24 2l46 4q20 2 40 2q101 0 208 -50q112 -52 112 -175v-13q-7 -155 -35 -256q-33 -119 -169 -203 q-53 -33 -66 -77q-8 -26 5 -42q55 -68 111 -166q21 -37 49 -88l46 -89q26 -48 94 -121q21 -24 34 -21t28 31q37 73 87 99q15 8 25 8q23 0 23 -38q0 -63 -48 -128q-48 -66 -136 -88q-35 -9 -66 -9q-49 0 -91 22q-102 54 -156 136q-21 33 -50 86l-24 45l-23 44q-3 5 -10 12 l-10 12l-5 -13q-4 -8 -4 -14l-8 -53l-7 -54q-8 -63 -11 -108q-3 -60 -72 -117q-15 -12 -36 -12q-16 0 -36 7q-45 16 -60 50q-24 58 -24 111q0 27 6 52zM289 1295l8 -30q4 -18 6 -30l29 -182l28 -181l3 -9l4 -10l5 2l6 2q7 3 10 6l17 24l17 24q20 28 27 50q12 39 23 95l4 22 l5 22q5 27 7 40q-1 16 -2 38l-1 17l-2 16q-2 36 -6 58q-5 30 -28 43q-48 28 -104 28q-14 0 -29 -2q-21 -3 -27 -12t0 -31z" />
<glyph unicode="s" horiz-adv-x="714" d="M67 1164q10 129 115 250q33 37 78 37h7l23 -1h23v-4l17 1l18 1q22 0 35 -3q139 -28 188 -153q9 -22 9 -39q0 -45 -66 -48q-24 -1 -41 1q-41 4 -41 42q0 58 -69 116q-17 14 -31 14q-16 0 -29 -19q-35 -55 -54 -108q-22 -62 -22 -115q0 -50 19 -93q23 -51 48 -71 q53 -40 131 -81q132 -68 194 -183q41 -77 42 -148q0 -6 -1 -13q-1 -22 -1 -61l-1 -62q-3 -72 -20 -121l-14 -42l-14 -41q-16 -48 -31 -82q-42 -93 -124 -108q-115 -22 -198 -29q-7 -1 -15 -1q-63 0 -125 47q-27 20 -38 63t-11 86q0 50 15 100q30 103 152 163q4 2 10 3l10 1 h7q27 0 27 -20q0 -8 -4 -20l-9 -24l-10 -24q-11 -29 -16 -49q-5 -22 -8 -52l-2 -26l-1 -26q-2 -26 14 -51t41 -35q20 -9 47 5q27 15 36 40q2 7 4 16l3 17l3 22l3 22q4 26 10 42q22 60 22 129q0 20 -2 41q-5 60 -33 167q-33 131 -166 213q-156 96 -156 277q0 18 2 37z" />
<glyph unicode="t" horiz-adv-x="749" d="M50 1363l9 9l9 9q10 11 18 13q52 13 111 18l186 14l187 13v3l25 -2l24 -1q29 -2 49 -6q7 -1 16 -10l8 -8l7 -7l-6 -7l-5 -7q-8 -9 -13 -13q-22 -17 -55 -25q-12 -3 -29 -6l-30 -4q-36 -5 -41 -12q-6 -8 1 -44q22 -128 22 -243q0 -48 -4 -95t-5 -137l-1 -69q-1 -39 -3 -69 q-7 -94 -20 -231l-22 -231l-2 -39q-3 -72 -33 -109q-30 -36 -100 -53q-5 -1 -14 -5l-14 -6q-11 -3 -21 -3q-38 0 -59 47q-23 50 -23 132q0 38 5 83l10 89l11 88q13 109 19 178q8 94 8 169q0 80 -9 140q-2 16 -3 38v39v129q-1 78 -2 129q-2 48 -13 58q-10 9 -59 7h-35h-29 h-10l-10 1q-11 1 -18 5q-9 4 -19 14l-9 9z" />
<glyph unicode="u" horiz-adv-x="961" d="M50 601l9 -1v-59v-60q3 -225 90 -354q32 -48 95 -95q37 -28 95 -32q21 -1 52 1l26 2l26 1q36 2 85 19l40 15q25 9 41 14q87 28 137 126q17 36 30 89l10 46l10 46q5 20 9 54l4 28l4 27q5 33 16 83l10 40l9 41q19 90 19 156v12v11q0 60 10 145l11 78l9 79l3 34q2 20 4 34 q3 18 3 39q0 31 -6 71l-5 27l-5 27q-5 32 -6 55q-1 27 -23 35q-21 9 -46 -8q-109 -76 -119 -160l-14 -120l-15 -120q-17 -144 -24 -239q-23 -300 -80 -562q-8 -34 -40 -91q-15 -26 -38 -26q-16 0 -35 13t-34 35q-73 111 -73 215q0 9 -3 25l-3 13l-1 12l-5 60l-4 59 q-5 69 -5 119q1 37 7 97l5 49l4 49l5 111l6 110l4 41l5 40q5 43 5 72v9q0 34 -6 80l-6 40l-6 40q-5 37 -51 47q-50 11 -87 12h-2q-53 0 -58 -49l-2 -20l-2 -20q-1 -25 -4 -40l-14 -73l-14 -72q-17 -90 -26 -145q-4 -26 -6 -66l-2 -33l-2 -33z" />
<glyph unicode="v" horiz-adv-x="886" d="M53 1440q1 6 14 12q11 6 23 8q9 1 22 0q9 -2 23 -5q17 -4 31 -20l11 -14q7 -9 12 -14q40 -35 66 -91q10 -21 21 -50l18 -52q61 -177 105 -438q5 -30 20 -73l12 -35l13 -36q1 -4 5 -8l4 -4l4 -4l6 8q3 5 4 9l14 82q8 48 12 82q6 56 13 137l12 136q14 147 64 254 q35 73 126 106q18 6 45 8l23 1h24q36 0 31 -33l-5 -33l-11 -74l-10 -73q-13 -87 -25 -146q-5 -27 -6 -65v-32l1 -33q-1 -81 -23 -129q-2 -3 -2 -10l1 -5l-1 -6l-8 -61l-9 -62l-6 -28l-6 -28l8 -2l-11 -48l-10 -49l-20 -118l-20 -119l-19 -107q-12 -60 -22 -106 q-11 -45 -35 -61q-17 -11 -48 -11q-12 0 -27 2q-73 9 -122 25q-15 5 -29 17q-15 13 -17 25q-3 22 -12 55l-8 27l-7 28q-13 52 -13 91q0 12 1 22q1 8 -5 21l-5 11l-4 10l-6 20l-5 19l-4 29l-5 28l-9 47q-7 29 -9 47l-15 110q-9 69 -16 109q-11 73 -28 122q-30 90 -30 155 q0 31 7 56q3 12 0 29q-3 11 -10 28l-5 12q-4 8 -5 12q-3 13 11 24q3 2 1 11t-6 11q-22 14 -22 38q0 11 5 25q2 5 1 12l-2 6l-1 6q-17 71 -76 111q-8 5 -12 18q-5 12 -2 21z" />
<glyph unicode="w" horiz-adv-x="1067" d="M56 728q0 46 4 134l3 67l2 67l2 87l2 88v25q0 86 -12 149q-7 36 34 39h7q43 0 98 -32q11 -6 15 -21q25 -79 37 -128q16 -59 16 -155v-37v-35q0 -40 4 -66v-86v-41l-1 -39q0 -90 2 -148q2 -61 7 -147l10 -147l2 -6l3 -6l6 4q3 3 4 5l11 32l11 32q13 37 19 64 q35 147 45 229q6 47 45 65q21 10 42 -3q38 -23 48 -68q6 -27 20 -66l12 -32l12 -32l77 -217l4 -9l3 -9l8 -10l8 -11l3 7l4 6q4 8 4 13q4 58 7 149l1 84l2 84q5 97 24 167l1 11l2 12l10 62l12 61l8 42l9 41q10 47 22 81q37 111 82 201q11 24 36 55l21 26l21 27q3 3 6 5l14 10 q10 6 16 9q18 9 32 1t10 -26q-1 -6 -5 -16l-3 -7l-3 -7q-5 -16 -19 -45l-10 -23l-9 -22q-5 -13 -9 -31l-5 -31l-6 -36l-5 -36l-3 -22l-3 -22l-5 -49q-3 -30 -6 -49l-34 -214q-22 -131 -34 -214q-4 -26 -6 -74l-1 -37l-3 -37q-3 -20 -9 -47l-6 -23l-6 -23l-44 -186 q-2 -9 0 -15q4 -9 4 -17q0 -22 -28 -40q-24 -15 -55 -15q-24 0 -53 9q-3 1 -6 4q-3 4 -3 6q1 16 -10 27q-4 4 -11 9l-11 8q-39 30 -74 110q-15 33 -36 86l-35 87q-2 4 -6 8l-8 8l-3 -4l-4 -4q-4 -5 -6 -9l-44 -137l-43 -137l-9 -27q-5 -16 -10 -27q-34 -71 -109 -71 q-8 0 -16 1q-44 4 -69 23q-25 20 -43 67q-15 42 -21 99q-2 22 -3 51l-1 51q-9 232 -10 436z" />
<glyph unicode="x" horiz-adv-x="946" d="M71 94q51 66 95 179l18 47l17 47q22 59 38 95q5 13 17 35l18 36l60 132q34 75 59 133q8 18 2 46l-15 61q-8 37 -15 61q-20 68 -51 114q-7 10 -9 31q-14 97 -71 281q-12 37 -1 49q11 13 57 13q89 -2 143 -73q57 -75 96 -195q1 -5 5 -12l7 -12l6 4l6 5q8 5 11 10l19 29 l18 30q22 34 33 61q22 49 92 109q28 23 58 23q6 0 13 -1q36 -6 65 -44l3 -4l3 -4q4 -4 8 -5q20 -8 20 -19q0 -8 -14 -25q-10 -15 -22 -34l-19 -37l-27 -56l-28 -57l-48 -97l-49 -98q-4 -7 -6 -18l-3 -16l-2 -17q-3 -19 -9 -30q-14 -30 -14 -60q0 -22 8 -44q8 -21 16 -57 l5 -30l7 -29l32 -114l33 -115q9 -33 23 -76l71 -219l3 -12q2 -6 1 -11q-8 -32 -17 -55q-4 -10 -9 -17q-6 -9 -11 -9q-13 -2 -31 -7l-15 -5l-15 -4q-37 -11 -63 -5q-40 9 -81 48q-55 53 -65 157q-1 13 -6 33l-5 16l-4 17l-46 189q-1 3 -3 8l-5 8l-7 -6q-4 -4 -6 -7l-17 -33 l-16 -33q-20 -40 -34 -66q-56 -95 -152 -251q-12 -19 -31 -23q-44 -9 -78 -9q-28 0 -51 6q-36 10 -15 38z" />
<glyph unicode="y" horiz-adv-x="1074" d="M66 1432q-16 20 10 24q27 4 51 4q98 0 148 -63q106 -134 158 -281q14 -38 33 -93l17 -47q11 -31 18 -50l31 53l30 52q35 61 59 101q32 54 88 116q19 21 50 53l51 53q47 49 99 95q32 28 59 35q10 2 24 -4q13 -5 23 -14q9 -9 3 -20l-7 -9l-7 -10q-27 -50 -90 -122l-24 -28 l-25 -29q-28 -33 -46 -60q-26 -38 -59 -91l-29 -46l-28 -46l-20 -31l-20 -32q-22 -37 -36 -66q-29 -59 -31 -102q-2 -57 -2 -143v-72v-72q-1 -30 -5 -75l-36 -343q-3 -24 -17 -42q-15 -19 -35 -21l-33 -3l-34 -3h-6q-35 0 -62 10q-38 15 -41 50l-2 33l-3 33q-1 16 -1 29 q0 21 2 38q9 108 25 267l27 268q2 20 2 38q0 57 -21 99q-50 101 -127 260l-63 130l-64 130q-5 11 -16 24l-9 12z" />
<glyph unicode="z" horiz-adv-x="1117" d="M97 167q26 33 54 84l23 43l23 44q22 40 46 74q64 89 167 231l11 14l12 14q15 19 22 29l11 15l11 16q11 17 15 32q15 53 52 119l33 55l33 56q7 13 17 37l7 19l8 19l24 48l25 48q5 9 12 25l6 13l7 16l-12 2l-11 3q-12 3 -19 3q-113 10 -170 30q-12 4 -30 6l-15 1l-15 1 l-20 1l-20 1q-24 1 -41 8q-11 4 -31 2l-16 -3l-17 -1q-30 -3 -47 15q-28 28 3 46q32 19 61 23l49 8l49 7q34 4 63 4q19 0 36 -2q8 -1 20 0l19 2l130 5q76 4 130 4q41 0 101 -2l101 -5q37 -2 53 -20l-10 -21q-6 -12 -12 -19q-15 -19 -40 -22q-7 -1 -14 -8q-7 -6 -11 -14 l-34 -79l-34 -79q-38 -88 -67 -150q-24 -55 -62 -133l-11 -21q-8 -13 -11 -21l-10 -20l-9 -21q-11 -24 -16 -42q-21 -73 -46 -111q-26 -36 -73 -107l-35 -55l-37 -53q-12 -19 -35 -47l-18 -23l-18 -23l-20 -29l-20 -29q-24 -34 -48 -52q-1 -1 -17 -30q32 -4 64 -3q39 0 77 5 q87 13 161 13q69 0 127 -11q13 -2 32 -2l17 -1h17q-3 -34 -38 -60q-42 -33 -83 -45q-24 -7 -59 -12l-30 -5l-30 -4l-80 -9l-79 -10q-30 -4 -60 -4q-42 0 -82 8l-72 15q-42 8 -72 16q-27 7 -54 26q-38 26 -38 56q0 22 20 46z" />
<glyph unicode="{" horiz-adv-x="528" d="M71 474q26 -285 187 -556q57 -71 95 -79q74 -17 -24 297q-110 350 -81 636q25 251 136 347q48 41 72 96q22 50 15 92t-42 55q-38 14 -100 -15q-135 -160 -212 -419q-67 -226 -46 -454z" />
<glyph unicode="|" horiz-adv-x="360" d="M50 -175q0 5 1 14l1 7l1 6l4 86l5 86q5 102 6 172v141l-1 141q-1 181 1 282q2 98 9 226l7 114l7 113q3 37 23 102q13 42 36 58q23 15 66 10q44 -4 46 -48l5 -119l5 -120q1 -20 5 -55l5 -54l3 -55l3 -55q3 -65 12 -108q10 -47 4 -125l-3 -31l-2 -31q-2 -36 0 -63 q2 -22 -2 -52l-3 -26l-5 -26q-9 -56 -10 -132l-1 -67v-66q-2 -93 -62 -237q-33 -79 -105 -99l-13 -6l-12 -5q-30 -12 -36 22z" />
<glyph unicode="}" horiz-adv-x="528" d="M57 1307q-7 -42 15 -92q24 -55 72 -96q111 -96 136 -347q29 -286 -81 -636q-98 -314 -24 -297q38 8 95 79q162 271 187 556q21 228 -46 454q-77 259 -212 419q-61 29 -100 15q-35 -13 -42 -55z" />
<glyph unicode="~" horiz-adv-x="808" d="M51 705q3 11 12 22q10 12 19 15q45 15 92 17q50 1 122 1l122 -1v-3l108 1l107 -1q51 -1 98 -12q19 -5 23 -16q4 -13 -14 -25l-17 -12l-17 -11q-20 -12 -36 -16q-294 -67 -500 -18q-61 14 -93 27q-9 4 -18 15t-8 17z" />
<glyph unicode="&#xa1;" horiz-adv-x="461" d="M50 1293l4 8l4 7q5 9 10 14q85 81 191 63q27 -5 34 -15t4 -42q-18 -8 -31 -28q-5 -7 -11 -18l-10 -19l-4 -6l-3 -6q-4 -7 -8 -9q-30 -19 -96 -20q-14 0 -29 10l-11 9l-11 10q-8 6 -17 19l-8 12zM114 912h4l-2 31q-8 95 61 165q12 12 20 16q12 7 23 1l10 -6l11 -5 q12 -7 20 -13q20 -16 21 -44q1 -26 5 -60l8 -61l9 -60q5 -33 12 -59q4 -18 15 -46l9 -22l9 -23l10 -29q5 -16 8 -29q18 -88 31 -163l4 -27l5 -28q4 -30 4 -54q-2 -138 -20 -218q-21 -94 -82 -135q-28 -19 -82 -38q-61 -22 -58 47q4 82 1 143q-2 27 -8 72l-4 36l-4 35l-4 64 l-4 64l-5 82l-6 81l-1 38q0 25 -1 38l-9 103z" />
<glyph unicode="&#xa2;" horiz-adv-x="1139" />
<glyph unicode="&#xa3;" horiz-adv-x="964" d="M50 522q0 -20 3 -50l4 -49q14 -163 85 -265q116 -166 299 -158l59 4q32 2 57 6q48 8 71 32q-30 7 -52 23q-29 22 -43 58q-34 -5 -69 10q-36 16 -51 44q-13 25 -28 58l-26 60q-6 14 -6 33q2 96 -25 224q-2 9 -2 23l1 24l11 206h-4v9l1 9l6 81l7 82q8 97 17 164 q7 58 36 160q9 29 30 33q21 5 43 -16l7 -6q3 -3 5 -7l13 -29l14 -30q15 -35 18 -61q8 -57 34 -77q24 -19 82 -17h8l9 1q56 4 50 59l-3 18l-4 18q-6 23 -7 36q-2 44 -38 98q-52 77 -165 106q-49 13 -119 10l-59 -5q-37 -3 -59 -4q-49 -1 -70 -51q-62 -146 -77 -233l-13 -68 l-14 -68q-14 -75 -18 -120q-8 -91 -13 -194q-5 -97 -5 -181zM93 239l42 -42l43 -42q51 -49 95 -74q84 -50 188 -73q25 1 59 -1l30 -3l30 -2q73 -5 120 5t135 13q6 3 14 8q9 4 7 3q14 9 23 17v1l3 2l3 3l3 4l7 7t4 3l2 4l2 4q4 6 5 9q6 10 1 -1q3 7 5 9q-1 1 -2 9q1 -7 -1 -8 q-1 -1 -3 3q-1 3 -1 5q0 3 3 0l-8 8l-8 9q-9 11 -16 16q-30 26 -78 38q-45 -14 -93 -20q-224 -31 -357 85h-224zM121 774q9 -43 14 -99l3 -50l3 -51q48 -19 101 -31q25 1 59 -1l30 -2l30 -2q73 -6 120 4t134 13q6 4 15 8q8 5 7 4q13 8 22 16l1 1l2 2l7 7q4 5 7 8l3 3l2 3 l3 5q3 6 5 9q6 9 1 -1q3 6 5 8q-2 2 -2 9q0 -7 -1 -7q-1 -1 -3 2q-2 4 -2 6t3 0l-8 8l-7 8q-10 11 -16 17q-30 25 -78 38q-46 -14 -94 -21q-223 -31 -357 86h-9z" />
<glyph unicode="&#xa5;" horiz-adv-x="1366" d="M50 1176q0 19 10.5 27.5t32.5 8.5q27 0 123 -8t164 -8h88q33 0 41 -6.5t8 -26.5q0 -8 -15 -14t-38 -6q-6 0 -18.5 2t-18.5 2q-24 0 -37.5 -9.5t-13.5 -25.5q0 -18 16.5 -52t46.5 -77l158 -221q13 -19 33 -53q41 -70 71 -70q9 0 16.5 5t14.5 15l277 396q8 12 13 26.5 t5 24.5q0 18 -10 27t-37 14q-15 2 -41 4q-47 3 -47 25q0 15 8 22.5t25 7.5q3 0 15 -1q56 -7 108 -7h139q30 0 65 1t37 1q11 0 18.5 -4.5t8.5 -11.5q0 -28 -38 -34q-18 -3 -27 -5q-63 -15 -147 -117q-7 -9 -12 -15l-169 -206h323q15 0 24 -6t9 -17q0 -15 -6 -20.5t-23 -5.5 h-366q-46 -57 -96.5 -112.5t-52.5 -59.5h511q18 0 25.5 -5.5t7.5 -17.5q0 -14 -7 -21t-22 -7h-530q0 -11 -1 -30.5t-1 -29.5l2 -215q0 -114 5.5 -150t20.5 -44q30 -17 107.5 -19t77.5 -31q0 -12 -10 -20t-25 -8q-2 0 -35.5 4t-64.5 4q-91 0 -208.5 -4t-142.5 -4q-31 0 -40 4 t-9 16t8 18.5t37 12.5q9 2 25 5q74 16 92 32q17 13 24 47t7 102l-2 242q0 19 -1.5 35t-4.5 32l-484 1q-14 0 -21 6.5t-7 19.5t6.5 19t21.5 6h467l-121 172h-344q-17 0 -23.5 5.5t-6.5 18.5q0 14 6 19.5t22 5.5h307q-43 57 -108 155q-131 197 -227 197q-7 0 -13 5.5t-6 11.5z " />
<glyph unicode="&#xa7;" horiz-adv-x="774" d="M50 1130q0 148 89 237q82 79 216 86q8 1 17 1h3q66 0 163 -16.5t97 -41.5v-194h-51q-5 81 -80 132q-70 47 -149 51h-15q-78 0 -125 -44.5t-47 -117.5q0 -132 287 -269q149 -67 204.5 -143.5t55.5 -187.5q0 -171 -101 -282q-47 -39 -99 -64q108 -56 154 -118 q55 -77 55 -187q0 -171 -101 -283q-124 -102 -277 -105v1q-6 -1 -13 -1h-3q-66 0 -163 16.5t-97 41.5v194h51q5 -81 80 -132q68 -45 145 -50q113 6 185 69q72 64 72 165q0 125 -316 276q-123 64 -175.5 137t-52.5 177q0 148 89 237q67 65 170 82l-40 19q-123 64 -175.5 137 t-52.5 177zM177 571q0 -123 248 -250q56 16 97 53q73 65 73 166q0 5 -1 10h-2q-1 14 -4 27q-22 61 -113 127q-59 29 -126 29q-78 0 -125 -44.5t-47 -117.5z" />
<glyph unicode="&#xa8;" horiz-adv-x="681" d="M50 1263q0 13 14 26l71 72q13 12 25 12q11 0 27 -14l69 -73q10 -14 10 -25q0 -13 -12 -27l-69 -75q-17 -17 -25 -17q-14 0 -25 12l-76 86q-9 12 -9 23zM415 1263q0 13 14 26l71 72q13 12 25 12q11 0 27 -13l69 -74q10 -14 10 -25q0 -13 -12 -26l-69 -76q-17 -17 -25 -17 q-14 0 -25 12l-76 87q-9 11 -9 22z" />
<glyph unicode="&#xa9;" horiz-adv-x="1574" d="M50 718q0 148 55.5 283t159.5 238q102 104 238.5 160.5t286.5 56.5q145 0 280 -56.5t239 -160.5q102 -101 158.5 -238t56.5 -283q0 -147 -56.5 -282t-162.5 -240q-105 -105 -239 -159.5t-283 -54.5q-146 0 -278 55.5t-238 160.5q-106 104 -161.5 237.5t-55.5 282.5z M110 718q0 -137 51 -259t148 -219q98 -96 219 -147t256 -51q137 0 259.5 50.5t219.5 145.5q97 98 149 221.5t52 258.5q0 134 -52 259.5t-145 219.5q-96 96 -220 147.5t-258 51.5q-137 0 -262 -51.5t-220 -147.5t-146 -219.5t-51 -259.5zM301 719q0 126 65.5 244t187.5 184.5 t254 66.5q38 0 75 -6.5t76 -20.5q5 -1 9 -1q19 0 26 30h42l72 -198h-44q-52 94 -131 124q-72 26 -147 26h-15q-86 -8 -166.5 -71t-121.5 -177q-33 -90 -33 -184q0 -25 2 -50q11 -121 69.5 -224t149.5 -152q72 -40 166 -42q124 0 194 56t70 126h53v-100q0 -46 -96.5 -86.5 t-242.5 -40.5q-142 0 -264 68t-186 185t-64 243z" />
<glyph unicode="&#xaa;" horiz-adv-x="648" />
<glyph unicode="&#xab;" horiz-adv-x="769" d="M50 479l342 303h14v-37l-205 -266l205 -266v-37h-14zM363 479l342 303h14v-37l-205 -266l205 -266v-37h-14z" />
<glyph unicode="&#xac;" horiz-adv-x="940" d="M50 667v100h840v-491l-1 -1h-98v392h-741z" />
<glyph unicode="&#xad;" horiz-adv-x="808" d="M51 371q3 11 12 22q10 12 19 15q45 15 92 17q50 1 122 1l122 -1v-3l108 1l107 -1q51 -1 98 -12q19 -5 23 -16q4 -13 -14 -25l-17 -12l-17 -11q-20 -12 -36 -16q-294 -67 -500 -18q-61 14 -93 27q-9 4 -18 15t-8 17z" />
<glyph unicode="&#xae;" horiz-adv-x="1574" d="M50 718q0 148 55.5 283t159.5 238q102 104 238.5 160.5t286.5 56.5q145 0 280 -56.5t239 -160.5q102 -101 158.5 -238t56.5 -283q0 -147 -56.5 -282t-162.5 -240q-105 -105 -239 -159.5t-283 -54.5q-146 0 -278 55.5t-238 160.5q-106 104 -161.5 237.5t-55.5 282.5z M110 718q0 -137 51 -259t148 -219q98 -96 219 -147t256 -51q137 0 259.5 50.5t219.5 145.5q97 98 149 221.5t52 258.5q0 134 -52 259.5t-145 219.5q-96 96 -220 147.5t-258 51.5q-137 0 -262 -51.5t-220 -147.5t-146 -219.5t-51 -259.5zM474 269v50h43q37 0 37 121v538 q0 121 -37 121h-43v70h356q64 -1 125 -42q60 -41 92.5 -114t32.5 -152q0 -78 -32 -150.5t-114 -134.5l82 -116q100 -141 150 -141h34v-50h-346v50h45q30 0 30 22q0 29 -69 114l-75 102q-42 0 -84 42v-159q0 -121 36 -121h53v-50h-316zM701 725l3 -8q23 -56 56 -81 q29 -22 56 -22h6q31 4 61.5 38.5t46.5 97.5q13 50 13 103q0 13 -1 27q-4 67 -28 124.5t-56.5 76t-63.5 18.5h-93v-374z" />
<glyph unicode="&#xaf;" horiz-adv-x="670" />
<glyph unicode="&#xb0;" horiz-adv-x="656" d="M50 1164q0 116 81.5 197t197.5 81q115 0 196 -81.5t81 -196.5q0 -114 -82 -196t-197 -82q-117 0 -197 81t-80 197zM120 1163q0 -87 61 -147t148 -60t147 60t60 147t-60.5 148t-146.5 61t-147.5 -61t-61.5 -148z" />
<glyph unicode="&#xb1;" horiz-adv-x="1014" />
<glyph unicode="&#xb4;" horiz-adv-x="561" d="M50 1078l291 297q35 35 55.5 47t40.5 12q33 0 53.5 -20t20.5 -51q0 -22 -15.5 -42t-46.5 -40l-330 -203h-69z" />
<glyph unicode="&#xb5;" horiz-adv-x="1180" />
<glyph unicode="&#xb6;" horiz-adv-x="936" d="M50 1086q0 157 107.5 253t285.5 96h443v-70h-127v-1365h-82v1365h-166v-1365h-84v738q-174 8 -275.5 102.5t-101.5 245.5z" />
<glyph unicode="&#xb7;" horiz-adv-x="350" d="M50 709q0 15 16 31l82 84q15 14 29 14q13 0 31 -16l80 -86q12 -16 12 -29q0 -15 -14 -31l-80 -88q-20 -20 -29 -20q-16 0 -29 14l-88 101q-10 13 -10 26z" />
<glyph unicode="&#xb8;" horiz-adv-x="508" d="M50 -290q85 -52 152 -52q66 0 94.5 21.5t28.5 66.5t-49 64q-40 16 -102 16q-16 0 -34 -2l48 176h63l-37 -104q32 4 62 5q86 0 134 -40.5t48 -113.5q0 -76 -58.5 -120.5t-160.5 -44.5q-109 0 -189 32v96z" />
<glyph unicode="&#xba;" horiz-adv-x="718" />
<glyph unicode="&#xbb;" horiz-adv-x="769" d="M50 176v37l205 266l-205 266v37h14l342 -303l-342 -303h-14zM363 176v37l205 266l-205 266v37h14l342 -303l-342 -303h-14z" />
<glyph unicode="&#xbf;" horiz-adv-x="748" />
<glyph unicode="&#xc0;" horiz-adv-x="1117" d="M53 48q-3 -30 27 -39q87 -25 143 21q62 52 83 152l9 47l8 47q11 62 17 93q7 34 17 41q10 8 45 7q102 -2 154 18q5 2 14 4l8 2l9 2l13 -33l12 -33l23 -65q67 -197 240 -253q63 -21 96 -3l12 6l13 7q13 7 22 15q22 20 23 50q1 5 6 14l3 7l3 7q9 41 12 72q2 22 -24 31 q-23 9 -37 -12q-5 -7 -13 -17l-4 -5l-4 -6q-6 -7 -10 -12q-4 6 -10 13l-4 5l-4 5q-8 12 -11 19l-21 43l-20 43q-23 50 -37 87q-68 179 -87 299l-13 83q-7 48 -15 83q-33 149 -71 289q-30 116 -92 219l-7 12q-4 6 -8 11q-11 11 -25 13l-30 5l-30 5q-55 6 -95 -21t-58 -82 l-4 -14l-5 -15q-5 -16 -12 -27q-17 -27 -31 -69l-11 -36l-11 -36l-11 -32l-10 -32q-13 -40 -22 -63q-44 -115 -47 -210q-3 -92 -52 -240q-25 -76 -28 -131q-10 -183 -30 -310q-2 -15 -4 -40l-2 -21zM321 1796q-2 5 0 15t7 15q22 24 61 25q38 1 66 -20q89 -67 126 -169 q12 -34 -2 -58q-15 -25 -52 -26q-77 -1 -100 55q-3 2 -8 8l-9 9q-11 12 -18 21q-37 60 -71 125zM397 555l1 20l1 20q2 23 7 37q24 68 43 161l15 82l15 82q3 15 14 24l7 -56l7 -55q8 -66 16 -111l10 -55l12 -56q15 -73 22 -118h-147q-25 1 -23 25z" />
<glyph unicode="&#xc1;" horiz-adv-x="1117" d="M53 48q-3 -30 27 -39q87 -25 143 21q62 52 83 152l9 47l8 47q11 62 17 93q7 34 17 41q10 8 45 7q102 -2 154 18q5 2 14 4l8 2l9 2l13 -33l12 -33l23 -65q67 -197 240 -253q63 -21 96 -3l12 6l13 7q13 7 22 15q22 20 23 50q1 5 6 14l3 7l3 7q9 41 12 72q2 22 -24 31 q-23 9 -37 -12q-5 -7 -13 -17l-4 -5l-4 -6q-6 -7 -10 -12q-4 6 -10 13l-4 5l-4 5q-8 12 -11 19l-21 43l-20 43q-23 50 -37 87q-68 179 -87 299l-13 83q-7 48 -15 83q-33 149 -71 289q-30 116 -92 219l-7 12q-4 6 -8 11q-11 11 -25 13l-30 5l-30 5q-55 6 -95 -21t-58 -82 l-4 -14l-5 -15q-5 -16 -12 -27q-17 -27 -31 -69l-11 -36l-11 -36l-11 -32l-10 -32q-13 -40 -22 -63q-44 -115 -47 -210q-3 -92 -52 -240q-25 -76 -28 -131q-10 -183 -30 -310q-2 -15 -4 -40l-2 -21zM325 1662q-12 -34 2 -58q15 -25 52 -26q77 -1 100 55q3 2 8 8l9 9 q11 12 17 21q38 60 72 125q2 5 0 15t-7 15q-23 24 -61 25t-66 -20q-89 -67 -126 -169zM397 555l1 20l1 20q2 23 7 37q24 68 43 161l15 82l15 82q3 15 14 24l7 -56l7 -55q8 -66 16 -111l10 -55l12 -56q15 -73 22 -118h-147q-25 1 -23 25z" />
<glyph unicode="&#xc2;" horiz-adv-x="1117" d="M53 48q-3 -30 27 -39q87 -25 143 21q62 52 83 152l9 47l8 47q11 62 17 93q7 34 17 41q10 8 45 7q102 -2 154 18q5 2 14 4l8 2l9 2l13 -33l12 -33l23 -65q67 -197 240 -253q63 -21 96 -3l12 6l13 7q13 7 22 15q22 20 23 50q1 5 6 14l3 7l3 7q9 41 12 72q2 22 -24 31 q-23 9 -37 -12q-5 -7 -13 -17l-4 -5l-4 -6q-6 -7 -10 -12q-4 6 -10 13l-4 5l-4 5q-8 12 -11 19l-21 43l-20 43q-23 50 -37 87q-68 179 -87 299l-13 83q-7 48 -15 83q-33 149 -71 289q-30 116 -92 219l-7 12q-4 6 -8 11q-11 11 -25 13l-30 5l-30 5q-55 6 -95 -21t-58 -82 l-4 -14l-5 -15q-5 -16 -12 -27q-17 -27 -31 -69l-11 -36l-11 -36l-11 -32l-10 -32q-13 -40 -22 -63q-44 -115 -47 -210q-3 -92 -52 -240q-25 -76 -28 -131q-10 -183 -30 -310q-2 -15 -4 -40l-2 -21zM218 1587q6 14 16 34l16 33l7 -2l32 78l31 78q21 54 95 99q22 14 42 14 q19 -1 56 -14l27 -9q45 -14 52 -20q7 -7 5 -33q-2 -25 -20 -53q-7 -11 -18 -25l-20 -24q-33 -39 -75 -101l-36 -51l-35 -51q-23 -32 -44 -50q-20 -18 -50 6q-8 6 -22 15l-22 15q-47 33 -37 61zM380 1876q2 21 17 31q13 10 52 19l28 8q46 13 57 12q12 -1 35 -20 q24 -19 38 -48q5 -11 11 -27l9 -27q16 -45 45 -110l25 -54l25 -55q14 -34 18 -57q3 -24 -42 -22h-30l-31 -1q-65 -2 -84 24q-10 12 -22 31l-22 33l7 2l-53 71l-54 71q-37 49 -29 119zM397 555l1 20l1 20q2 23 7 37q24 68 43 161l15 82l15 82q3 15 14 24l7 -56l7 -55 q8 -66 16 -111l10 -55l12 -56q15 -73 22 -118h-147q-25 1 -23 25z" />
<glyph unicode="&#xc3;" horiz-adv-x="1117" d="M53 48q-3 -30 27 -39q87 -25 143 21q62 52 83 152l9 47l8 47q11 62 17 93q7 34 17 41q10 8 45 7q102 -2 154 18q5 2 14 4l8 2l9 2l13 -33l12 -33l23 -65q67 -197 240 -253q63 -21 96 -3l12 6l13 7q13 7 22 15q22 20 23 50q1 5 6 14l3 7l3 7q9 41 12 72q2 22 -24 31 q-23 9 -37 -12q-5 -7 -13 -17l-4 -5l-4 -6q-6 -7 -10 -12q-4 6 -10 13l-4 5l-4 5q-8 12 -11 19l-21 43l-20 43q-23 50 -37 87q-68 179 -87 299l-13 83q-7 48 -15 83q-33 149 -71 289q-30 116 -92 219l-7 12q-4 6 -8 11q-11 11 -25 13l-30 5l-30 5q-55 6 -95 -21t-58 -82 l-4 -14l-5 -15q-5 -16 -12 -27q-17 -27 -31 -69l-11 -36l-11 -36l-11 -32l-10 -32q-13 -40 -22 -63q-44 -115 -47 -210q-3 -92 -52 -240q-25 -76 -28 -131q-10 -183 -30 -310q-2 -15 -4 -40l-2 -21zM59 1751q0 -48 47 -82q17 -12 42 -27l22 -12l22 -12q25 -15 66 -25l34 -7 l34 -8q43 -11 94 5q72 22 125 88q31 40 60 64q14 12 45 20l16 2q16 4 38 0l20 -4l18 -5q25 -8 40 -18q6 -4 15 -12l14 -12l7 -6l8 -7q8 -8 11 -16l6 -6q3 -4 5 -5q6 -3 12 6l7 9l7 10l2 7q8 27 -11 51q-56 72 -127 93q-115 32 -193 -52q-61 -65 -138 -69q-96 -5 -144 10 q-8 1 -17 4q-7 2 -17 6q-12 5 -29 14l-29 15h-1l-9 3l-8 5q-7 4 -12 11q-11 9 -15 21q-6 7 -10 10l-13 4l-13 2q-10 -3 -19 -16q-8 -11 -11 -25zM397 555l1 20l1 20q2 23 7 37q24 68 43 161l15 82l15 82q3 15 14 24l7 -56l7 -55q8 -66 16 -111l10 -55l12 -56q15 -73 22 -118 h-147q-25 1 -23 25z" />
<glyph unicode="&#xc4;" horiz-adv-x="1117" d="M53 48q-3 -30 27 -39q87 -25 143 21q62 52 83 152l9 47l8 47q11 62 17 93q7 34 17 41q10 8 45 7q102 -2 154 18q5 2 14 4l8 2l9 2l13 -33l12 -33l23 -65q67 -197 240 -253q63 -21 96 -3l12 6l13 7q13 7 22 15q22 20 23 50q1 5 6 14l3 7l3 7q9 41 12 72q2 22 -24 31 q-23 9 -37 -12q-5 -7 -13 -17l-4 -5l-4 -6q-6 -7 -10 -12q-4 6 -10 13l-4 5l-4 5q-8 12 -11 19l-21 43l-20 43q-23 50 -37 87q-68 179 -87 299l-13 83q-7 48 -15 83q-33 149 -71 289q-30 116 -92 219l-7 12q-4 6 -8 11q-11 11 -25 13l-30 5l-30 5q-55 6 -95 -21t-58 -82 l-4 -14l-5 -15q-5 -16 -12 -27q-17 -27 -31 -69l-11 -36l-11 -36l-11 -32l-10 -32q-13 -40 -22 -63q-44 -115 -47 -210q-3 -92 -52 -240q-25 -76 -28 -131q-10 -183 -30 -310q-2 -15 -4 -40l-2 -21zM197 1671q3 146 118 174q59 15 67 -37l5 -19l5 -19q17 -58 4 -96 q-14 -38 -64 -70q-55 -35 -92 -15q-24 13 -35 37q-8 19 -8 45zM397 555l1 20l1 20q2 23 7 37q24 68 43 161l15 82l15 82q3 15 14 24l7 -56l7 -55q8 -66 16 -111l10 -55l12 -56q15 -73 22 -118h-147q-25 1 -23 25zM501 1709q55 114 153 133q58 11 85 -10q27 -22 28 -81 q1 -65 -68 -122q-69 -56 -133 -43q-39 8 -60 48q-22 40 -5 75z" />
<glyph unicode="&#xc5;" horiz-adv-x="1117" d="M53 48q-3 -30 27 -39q87 -25 143 21q62 52 83 152l9 47l8 47q11 62 17 93q7 34 17 41q10 8 45 7q102 -2 154 18q5 2 14 4l8 2l9 2l13 -33l12 -33l23 -65q67 -197 240 -253q63 -21 96 -3l12 6l13 7q13 7 22 15q22 20 23 50q1 5 6 14l3 7l3 7q9 41 12 72q2 22 -24 31 q-23 9 -37 -12q-5 -7 -13 -17l-4 -5l-4 -6q-6 -7 -10 -12q-4 6 -10 13l-4 5l-4 5q-8 12 -11 19l-21 43l-20 43q-23 50 -37 87q-68 179 -87 299l-13 83q-7 48 -15 83q-33 149 -71 289q-30 116 -92 219l-7 12q-4 6 -8 11q-11 11 -25 13l-30 5l-30 5q-55 6 -95 -21t-58 -82 l-4 -14l-5 -15q-5 -16 -12 -27q-17 -27 -31 -69l-11 -36l-11 -36l-11 -32l-10 -32q-13 -40 -22 -63q-44 -115 -47 -210q-3 -92 -52 -240q-25 -76 -28 -131q-10 -183 -30 -310q-2 -15 -4 -40l-2 -21zM251 1600v15v15q-4 54 24 100l8 15l8 14q10 18 18 29q4 6 16 15l10 8l9 7 q12 10 42 9l48 -2l48 -1q26 -1 40 0q34 2 59 -5q37 -10 56 -17q12 -5 21 -13q6 -5 17 -13l18 -12q21 -15 24 -27q2 -11 11 -31l7 -16l5 -15q2 -8 -1 -18l-2 -9l-2 -9l-3 -16l-1 -4q0 -2 -2 -4q-7 -5 -9 -11l-2 -6v-5q-1 -8 -10 -18l-8 -9l-8 -8l-5 -5l-5 -5q-9 -11 -30 -16 l-28 -7l-26 -8q-41 -10 -110 -12l-40 -2q-89 -4 -142 25q-51 27 -55 72zM397 555l1 20l1 20q2 23 7 37q24 68 43 161l15 82l15 82q3 15 14 24l7 -56l7 -55q8 -66 16 -111l10 -55l12 -56q15 -73 22 -118h-147q-25 1 -23 25zM413 1688q-10 -40 5 -88q11 -37 53 -57 q33 -17 61 0q19 11 23 19l14 27l13 27q13 31 10 55l1 8l1 8q-5 42 -45 79q-18 17 -67 29q-24 6 -32 -4q-12 -13 -15 -23q-13 -41 -22 -80z" />
<glyph unicode="&#xc6;" horiz-adv-x="1670" d="M62 249q-12 -28 15 -44q76 -48 143 -20q74 33 122 123l21 42l21 43q28 57 43 85q16 31 27 35q11 5 45 -6q98 -30 153 -26q5 1 14 0h9h10l2 -36l2 -35l4 -69q11 -208 161 -309q55 -38 91 -30l14 2l13 3q16 4 26 9q27 13 37 41q1 5 8 12l6 6l4 6q20 37 32 66q8 20 -14 37 q-20 14 -39 -2q-7 -5 -18 -13l-5 -4l-5 -4q-8 -5 -13 -9q-3 7 -6 15l-5 13q-4 13 -6 21l-7 47l-8 47q-8 54 -11 94q-16 190 0 311l11 83q5 48 8 84q9 152 12 298q3 119 -27 235l-4 14q-2 7 -5 12q-7 14 -20 20l-27 13l-28 13q-51 21 -97 7q-46 -15 -78 -63l-8 -12l-9 -13 q-10 -15 -19 -23q-24 -21 -49 -58l-20 -31l-21 -32l-19 -27l-19 -28q-24 -35 -39 -55q-74 -98 -104 -188q-28 -87 -116 -217q-45 -66 -63 -117q-61 -174 -115 -289q-7 -14 -16 -38l-7 -20zM533 641l6 19l7 18q8 22 17 35q42 58 86 142l37 74l37 75q7 13 21 19l-9 -55l-9 -55 q-11 -66 -16 -111l-5 -56l-5 -56q-5 -75 -11 -120q-15 4 -38 11l-36 10q-40 12 -67 20q-24 7 -15 30zM893 1422l4 -14l4 -13q4 -16 4 -27q-4 -101 3 -245l7 -122l6 -122l2 -58l2 -59l8 -131l8 -132l2 -38l1 -39q1 -42 -1 -78l-1 -46v-46q-2 -54 -19 -91q-7 -17 -3 -47 q5 -38 38 -67q34 -29 78 -32q23 -1 58 0l30 1l29 1q94 0 211 41q33 11 83 24l42 11l41 12l13 3l12 3q15 4 25 9q36 17 39 35q1 7 0 15q0 9 -1 17q-1 11 -3 20q-5 23 -17 33q-13 11 -161 -27q-53 -13 -121 -32l-54 -16l-44 -12q-1 139 -77 499q6 2 13 4q38 7 77 10 q89 8 208 80q33 20 34 64l-8 -1l-8 -1l-15 -2l-35 -9q-22 -5 -36 -7l-112 -15l-112 -14q-24 -3 -31 6l-9 40l-11 85l-9 85l-4 39l-4 39q-3 44 0 77q9 89 -5 190q-2 10 -2 17l1 1h1q2 0 5 1q8 2 18 4q29 6 60 13q99 22 178 46q251 74 220 130v1l-2 11l-2 12q-5 23 -33 21 l-26 -2l-25 -2l-12 -1q-16 -3 -27 -5q-170 -40 -353 -87l-36 -10l-35 -9q-41 -9 -73 -7q-9 0 -22 -3q-23 -6 -16 -31z" />
<glyph unicode="&#xc7;" horiz-adv-x="848" d="M50 601q0 -20 3 -50l4 -49q14 -163 85 -265q116 -166 299 -158l59 3q32 3 57 7q69 11 90 59q2 5 9 10l6 5l6 4q64 45 71 109q2 24 11 36q48 67 24 196q-5 23 -22 29t-37 -8q-6 -5 -13 -12q-70 -87 -97 -172l-34 -107q-10 -31 -34 -35q-34 -7 -71 8q-37 16 -53 45 q-13 25 -28 58l-26 60q-6 14 -6 33q2 96 -25 223q-2 10 -2 24l1 24l11 206h-4v9l1 8l6 82l7 82q8 97 17 164q7 58 36 159q9 30 30 34q21 5 43 -16l7 -6q3 -3 5 -7l13 -29l14 -30q15 -35 18 -61q8 -57 34 -77q24 -20 82 -17h8l9 1q56 4 50 59l-3 18l-4 18q-6 23 -7 36 q-2 44 -38 98q-52 76 -165 106q-49 13 -119 9l-59 -4q-37 -3 -59 -4q-49 -1 -70 -51q-62 -146 -77 -234l-13 -67l-14 -68q-14 -75 -18 -120q-8 -90 -13 -194q-5 -97 -5 -181zM159 -200l1 -12l2 -12l4 -6q14 -24 45 -28q90 -12 155 24q104 58 100 173q-3 89 48 147 q36 40 59 60q-76 25 -142 63q-14 -16 -24 -35q-35 -66 -26 -151q6 -50 3 -88q-1 -18 -18 -45q-4 -7 -9 -13q-9 -14 -28 -27l-16 -11l-17 -9q-23 -13 -41 -16l-19 -2l-18 -1l-10 -1l-10 -1q-12 0 -19 3l-9 1q-4 0 -7 -1q-6 -2 -4 -12z" />
<glyph unicode="&#xc8;" horiz-adv-x="947" d="M50 133q0 -38 29 -71q29 -34 72 -43q22 -4 58 -8l29 -3l29 -3q93 -13 215 11q34 7 85 13l43 5l43 6l26 3q15 2 25 5q39 13 44 29v1q2 6 2 14q2 9 2 18q0 11 -1 20q-2 23 -12 34q-12 13 -163 -4q-55 -6 -125 -15q-27 -4 -56 -8q-22 -3 -44 -7q17 139 -8 506q6 1 13 1 q39 2 78 0q90 -4 217 51q36 15 43 58l-17 1l-15 -1l-36 -3q-22 -2 -37 -2h-112l-113 1q-25 1 -30 11l-3 41l1 86l2 85l1 39l2 39q3 45 11 77q21 87 21 188q-1 10 0 18h2h5l18 2q30 2 62 5q101 8 182 21q259 39 237 98l-1 1v12l-1 12q-2 23 -29 25l-26 2l-25 1h-12 q-16 0 -28 -1q-174 -16 -362 -37l-36 -5l-36 -4q-42 -4 -74 2q-8 2 -21 1q-25 -3 -21 -29l2 -14l2 -14q2 -16 0 -27q-18 -100 -30 -243l-10 -121l-11 -122l-6 -58l-6 -58l-10 -132l-11 -131l-3 -39l-4 -38q-5 -42 -11 -77l-7 -46l-7 -46q-10 -53 -31 -87q-10 -15 -10 -46z M386 1840q2 10 7 14q23 25 61 26t66 -20q89 -68 126 -169q12 -34 -2 -58q-15 -25 -52 -26q-77 -1 -100 54q-2 3 -8 8l-9 10q-11 11 -17 21q-38 60 -71 125q-3 5 -1 15z" />
<glyph unicode="&#xc9;" horiz-adv-x="947" d="M50 133q0 -38 29 -71q29 -34 72 -43q22 -4 58 -8l29 -3l29 -3q93 -13 215 11q34 7 85 13l43 5l43 6l26 3q15 2 25 5q39 13 44 29v1q2 6 2 14q2 9 2 18q0 11 -1 20q-2 23 -12 34q-12 13 -163 -4q-55 -6 -125 -15q-27 -4 -56 -8q-22 -3 -44 -7q17 139 -8 506q6 1 13 1 q39 2 78 0q90 -4 217 51q36 15 43 58l-17 1l-15 -1l-36 -3q-22 -2 -37 -2h-112l-113 1q-25 1 -30 11l-3 41l1 86l2 85l1 39l2 39q3 45 11 77q21 87 21 188q-1 10 0 18h2h5l18 2q30 2 62 5q101 8 182 21q259 39 237 98l-1 1v12l-1 12q-2 23 -29 25l-26 2l-25 1h-12 q-16 0 -28 -1q-174 -16 -362 -37l-36 -5l-36 -4q-42 -4 -74 2q-8 2 -21 1q-25 -3 -21 -29l2 -14l2 -14q2 -16 0 -27q-18 -100 -30 -243l-10 -121l-11 -122l-6 -58l-6 -58l-10 -132l-11 -131l-3 -39l-4 -38q-5 -42 -11 -77l-7 -46l-7 -46q-10 -53 -31 -87q-10 -15 -10 -46z M391 1691q-13 -34 2 -58q14 -25 51 -26q77 -1 100 54l8 8l9 10q12 11 18 21q37 60 71 125q3 5 0 15q-2 10 -6 14q-23 25 -62 26q-38 1 -66 -20q-89 -68 -125 -169z" />
<glyph unicode="&#xca;" horiz-adv-x="947" d="M50 133q0 -38 29 -71q29 -34 72 -43q22 -4 58 -8l29 -3l29 -3q93 -13 215 11q34 7 85 13l43 5l43 6l26 3q15 2 25 5q39 13 44 29v1q2 6 2 14q2 9 2 18q0 11 -1 20q-2 23 -12 34q-12 13 -163 -4q-55 -6 -125 -15q-27 -4 -56 -8q-22 -3 -44 -7q17 139 -8 506q6 1 13 1 q39 2 78 0q90 -4 217 51q36 15 43 58l-17 1l-15 -1l-36 -3q-22 -2 -37 -2h-112l-113 1q-25 1 -30 11l-3 41l1 86l2 85l1 39l2 39q3 45 11 77q21 87 21 188q-1 10 0 18h2h5l18 2q30 2 62 5q101 8 182 21q259 39 237 98l-1 1v12l-1 12q-2 23 -29 25l-26 2l-25 1h-12 q-16 0 -28 -1q-174 -16 -362 -37l-36 -5l-36 -4q-42 -4 -74 2q-8 2 -21 1q-25 -3 -21 -29l2 -14l2 -14q2 -16 0 -27q-18 -100 -30 -243l-10 -121l-11 -122l-6 -58l-6 -58l-10 -132l-11 -131l-3 -39l-4 -38q-5 -42 -11 -77l-7 -46l-7 -46q-10 -53 -31 -87q-10 -15 -10 -46z M204 1634q5 14 15 34l16 34l7 -2l32 77l31 78q21 54 95 100q22 13 42 13q19 0 56 -14l27 -9q45 -13 52 -20q8 -7 5 -32q-2 -26 -20 -54q-7 -11 -18 -24l-20 -24q-32 -40 -75 -101l-35 -52l-36 -51q-23 -31 -43 -50q-21 -18 -51 6q-8 7 -21 16l-23 15q-47 32 -36 60z M365 1924q3 21 17 31q13 9 52 19l28 7q46 14 57 13q12 -1 35 -20q24 -20 38 -49q5 -11 11 -26l9 -27q16 -45 45 -111l25 -54l25 -55q14 -33 18 -57q3 -23 -41 -22q-12 1 -31 0l-31 -1q-65 -1 -84 24q-10 13 -22 32l-21 32l6 2l-53 72l-53 71q-38 48 -30 119z" />
<glyph unicode="&#xcb;" horiz-adv-x="947" d="M50 133q0 -38 29 -71q29 -34 72 -43q22 -4 58 -8l29 -3l29 -3q93 -13 215 11q34 7 85 13l43 5l43 6l26 3q15 2 25 5q39 13 44 29v1q2 6 2 14q2 9 2 18q0 11 -1 20q-2 23 -12 34q-12 13 -163 -4q-55 -6 -125 -15q-27 -4 -56 -8q-22 -3 -44 -7q17 139 -8 506q6 1 13 1 q39 2 78 0q90 -4 217 51q36 15 43 58l-17 1l-15 -1l-36 -3q-22 -2 -37 -2h-112l-113 1q-25 1 -30 11l-3 41l1 86l2 85l1 39l2 39q3 45 11 77q21 87 21 188q-1 10 0 18h2h5l18 2q30 2 62 5q101 8 182 21q259 39 237 98l-1 1v12l-1 12q-2 23 -29 25l-26 2l-25 1h-12 q-16 0 -28 -1q-174 -16 -362 -37l-36 -5l-36 -4q-42 -4 -74 2q-8 2 -21 1q-25 -3 -21 -29l2 -14l2 -14q2 -16 0 -27q-18 -100 -30 -243l-10 -121l-11 -122l-6 -58l-6 -58l-10 -132l-11 -131l-3 -39l-4 -38q-5 -42 -11 -77l-7 -46l-7 -46q-10 -53 -31 -87q-10 -15 -10 -46z M233 1719q4 145 118 173q59 15 67 -37l5 -19l5 -18q17 -58 4 -96q-14 -39 -64 -71q-55 -35 -92 -14q-24 13 -34 37q-8 18 -9 45zM537 1757q55 113 153 132q59 11 85 -10q27 -21 28 -81q1 -65 -68 -121q-69 -57 -132 -44q-39 9 -61 49t-5 75z" />
<glyph unicode="&#xcc;" horiz-adv-x="901" d="M53 162q6 -57 44 -91q39 -35 90 -28q107 14 159 113q8 15 22 38l6 10l6 10q8 14 13 23q3 -6 7 -13l3 -6l2 -5q6 -12 9 -19q37 -95 91 -137q55 -44 155 -52h13h13q16 1 25 -2q59 -15 117 44q23 23 18 53q-2 15 -17 20q-10 4 -29 2l-17 -2q-11 -1 -17 0l-13 2l-14 2 q-15 3 -23 9q-97 75 -92 186q0 13 -1 30l-3 30q-2 24 -9 68l-5 34l-4 34q-9 81 4 138q2 6 2 14v14q4 184 24 318q6 45 4 96l-3 56l-1 55q0 61 12 110q6 25 6 59q0 81 -76 76l-39 -5l-38 -5q-41 -5 -56 -51q-2 -9 -4 -20l-3 -21q-9 -76 -33 -123q-46 -91 -37 -164 q5 -46 -15 -104q-24 -71 -31 -153q-13 -139 -36 -227q-27 -101 -48 -225l-5 -30l-6 -29l-13 -45l-13 -46l-14 6l-13 6q-14 6 -23 9q-39 13 -74 -14q-23 -18 -20 -48zM475 1834q4 36 27 51q24 16 58 1q70 -32 66 -92q1 -4 4 -11l4 -12q5 -15 7 -27q7 -70 10 -143q0 -6 -6 -14 t-13 -10q-31 -12 -66 4q-35 15 -51 46q-51 100 -40 207z" />
<glyph unicode="&#xcd;" horiz-adv-x="901" d="M53 162q6 -57 44 -91q39 -35 90 -28q107 14 159 113q8 15 22 38l6 10l6 10q8 14 13 23q3 -6 7 -13l3 -6l2 -5q6 -12 9 -19q37 -95 91 -137q55 -44 155 -52h13h13q16 1 25 -2q59 -15 117 44q23 23 18 53q-2 15 -17 20q-10 4 -29 2l-17 -2q-11 -1 -17 0l-13 2l-14 2 q-15 3 -23 9q-97 75 -92 186q0 13 -1 30l-3 30q-2 24 -9 68l-5 34l-4 34q-9 81 4 138q2 6 2 14v14q4 184 24 318q6 45 4 96l-3 56l-1 55q0 61 12 110q6 25 6 59q0 81 -76 76l-39 -5l-38 -5q-41 -5 -56 -51q-2 -9 -4 -20l-3 -21q-9 -76 -33 -123q-46 -91 -37 -164 q5 -46 -15 -104q-24 -71 -31 -153q-13 -139 -36 -227q-27 -101 -48 -225l-5 -30l-6 -29l-13 -45l-13 -46l-14 6l-13 6q-14 6 -23 9q-39 13 -74 -14q-23 -18 -20 -48zM450 1632q-2 -6 1 -15q4 -9 9 -14q26 -21 64 -17t63 29q80 78 103 183q7 36 -10 58q-18 22 -55 18 q-76 -8 -92 -66l-6 -9l-8 -10q-10 -14 -15 -24q-29 -64 -54 -133z" />
<glyph unicode="&#xce;" horiz-adv-x="901" d="M53 162q6 -57 44 -91q39 -35 90 -28q107 14 159 113q8 15 22 38l6 10l6 10q8 14 13 23q3 -6 7 -13l3 -6l2 -5q6 -12 9 -19q37 -95 91 -137q55 -44 155 -52h13h13q16 1 25 -2q59 -15 117 44q23 23 18 53q-2 15 -17 20q-10 4 -29 2l-17 -2q-11 -1 -17 0l-13 2l-14 2 q-15 3 -23 9q-97 75 -92 186q0 13 -1 30l-3 30q-2 24 -9 68l-5 34l-4 34q-9 81 4 138q2 6 2 14v14q4 184 24 318q6 45 4 96l-3 56l-1 55q0 61 12 110q6 25 6 59q0 81 -76 76l-39 -5l-38 -5q-41 -5 -56 -51q-2 -9 -4 -20l-3 -21q-9 -76 -33 -123q-46 -91 -37 -164 q5 -46 -15 -104q-24 -71 -31 -153q-13 -139 -36 -227q-27 -101 -48 -225l-5 -30l-6 -29l-13 -45l-13 -46l-14 6l-13 6q-14 6 -23 9q-39 13 -74 -14q-23 -18 -20 -48zM311 1665q6 14 16 34l16 34l7 -2l32 78l31 78q21 53 95 99q22 14 42 13q19 0 56 -13l27 -9q45 -14 52 -21 q7 -6 5 -32t-20 -54q-7 -10 -18 -24l-20 -24q-33 -40 -75 -101l-36 -51l-35 -51q-23 -32 -44 -50q-20 -18 -50 5q-8 7 -22 16l-22 15q-47 33 -37 60zM473 1955q2 21 17 31q13 10 52 19l28 8q46 13 57 12q12 -1 35 -20q24 -19 38 -48q5 -11 11 -27l9 -27q16 -45 45 -110 l25 -55l25 -54q14 -34 18 -58q3 -23 -42 -21q-11 0 -30 -1l-31 -1q-65 -1 -84 24q-10 13 -22 32l-22 33l7 2l-53 71l-54 71q-37 49 -29 119z" />
<glyph unicode="&#xcf;" horiz-adv-x="907" d="M53 162q6 -57 44 -91q39 -35 90 -28q107 14 159 113q8 15 22 38l6 10l6 10q8 14 13 23q3 -6 7 -13l3 -6l2 -5q6 -12 9 -19q37 -95 91 -137q55 -44 155 -52h13h13q16 1 25 -2q59 -15 117 44q23 23 18 53q-2 15 -17 20q-10 4 -29 2l-17 -2q-11 -1 -17 0l-13 2l-14 2 q-15 3 -23 9q-97 75 -92 186q0 13 -1 30l-3 30q-2 24 -9 68l-5 34l-4 34q-9 81 4 138q2 6 2 14v14q4 184 24 318q6 45 4 96l-3 56l-1 55q0 61 12 110q6 25 6 59q0 81 -76 76l-39 -5l-38 -5q-41 -5 -56 -51q-2 -9 -4 -20l-3 -21q-9 -76 -33 -123q-46 -91 -37 -164 q5 -46 -15 -104q-24 -71 -31 -153q-13 -139 -36 -227q-27 -101 -48 -225l-5 -30l-6 -29l-13 -45l-13 -46l-14 6l-13 6q-14 6 -23 9q-39 13 -74 -14q-23 -18 -20 -48zM286 1685q3 146 118 174q59 15 67 -37l4 -19l6 -19q17 -57 3 -96q-13 -38 -63 -70q-55 -35 -92 -15 q-24 14 -35 38q-8 18 -8 44zM590 1724q55 113 153 132q58 11 85 -10t28 -81q1 -65 -68 -122q-69 -56 -133 -43q-39 8 -60 48q-22 41 -5 76z" />
<glyph unicode="&#xd0;" horiz-adv-x="1045" d="M52 780l6 -14l-2 2l-3 4q-3 6 7 -12q14 -26 39 -51q30 -30 55 -47l18 -10l17 -10q3 -3 6 -5l6 -2l12 -5l55 -4l56 -3q64 -3 111 7q56 12 160 16l18 9t8 4q16 10 27 20l1 1l2 3q5 4 8 8l8 8q4 4 5 4l2 4l3 6q4 7 6 11q7 11 1 -2q4 8 6 10q-2 2 -2 11q0 -8 -1 -9 q-2 -1 -4 3t-2 7t4 -1l-10 10l-9 10q-11 14 -19 20q-36 30 -93 45q-54 -16 -111 -24q-173 -24 -305 29l-5 -1q-1 -1 -5 -2l-7 -3q-11 -5 -12 -5q-19 -8 -42 -22q-13 -8 -10 -6h1l1 1l-3 -3l-3 -3h-1q1 -2 1 -5t-1 -4zM213 122q0 -107 109 -115l18 -1q10 -1 17 -2 q38 -11 92 12q8 3 21 11l21 12q25 13 48 11q7 -1 19 13l10 12l10 12l20 23q12 14 20 22q49 49 119 110q80 70 121 167l11 27l12 26q13 31 26 52q55 87 78 204q10 49 3 121q-4 50 -31 114l-11 27l-13 27l-24 54q-5 13 -17 30l-10 14l-10 15q-16 27 -44 55l-26 25l-27 24 l-75 68l-75 68q-13 11 -25 16l-73 29q-41 16 -73 27q-44 15 -93 7q-47 -7 -57 -52q-12 -57 -23 -140l-2 -30l-1 -29q-1 -36 -6 -58q-28 -119 -34 -335l-3 -36l-2 -37v-83v-23v-24v-55q-1 -13 -3 -42l-1 -25l-1 -25q-4 -64 -6 -111l-6 -106q-2 -61 -3 -106zM465 338 q-4 44 2 113l5 57q3 33 3 56q1 43 5 117l2 58l2 58l3 115v114l1 114v58v60q26 -16 51 -44l21 -25l21 -24q87 -102 128 -275q25 -103 -19 -207l-30 -72q-18 -43 -31 -71q-21 -47 -45 -78q-21 -27 -52 -65l-27 -32l-27 -32z" />
<glyph unicode="&#xd1;" horiz-adv-x="951" d="M57 731q-7 -141 2 -211l7 -58l5 -58q6 -73 13 -115q14 -83 -5 -223q-5 -39 0 -45q5 -8 43 -14l8 -2q70 -16 126 19q55 34 81 104q15 41 -16 72q-12 12 -29 10l-15 -3l-17 -3l-1 12l-1 11v20l4 91q3 53 7 91q12 135 5 332q0 14 2 41l2 21l1 20q-1 18 -4 43l-6 43l6 2 l4 -11l4 -12l19 -85l20 -84q54 -226 206 -520q17 -31 42 -69q15 -23 47 -66q36 -50 83 -48q87 4 145 62q18 18 22 38q14 70 15 111l5 187l3 186l5 143l6 143l-1 13l-2 12l-1 26l-1 27l-1 81v80l-2 44l-1 43l3 41l3 42q2 58 -55 54q-76 -6 -96 -78q-15 -52 -29 -125 q-17 -84 -20 -203l-2 -101l-1 -102l-1 -54v-53q0 -66 -4 -108l-2 -19l-2 -19q-3 -22 -11 -41q-70 129 -118 298q-6 20 -13 53l-13 53q-16 63 -38 103q-3 6 -5 14l-3 14q-31 163 -164 392q-34 58 -99 39q-17 -5 -49 -21q-31 -14 -31 -49q-1 -39 -10 -70q-35 -122 -52 -302 l-6 -64l-7 -65q-8 -78 -10 -130zM70 1625q-8 -27 11 -52q56 -72 127 -92q115 -33 193 51q61 65 138 69q95 5 144 -9q7 -1 17 -4q7 -3 16 -7q13 -5 30 -13l28 -15l2 -1l8 -3l9 -4q7 -4 12 -12q10 -9 15 -21l10 -10l13 -4l12 -2q11 4 20 17q8 11 11 25l1 33q0 49 -47 82 q-17 12 -43 27l-21 12l-22 13q-26 15 -66 24l-34 8l-34 7q-43 11 -95 -5q-71 -22 -124 -88q-32 -39 -60 -64q-14 -12 -45 -19l-16 -3q-16 -4 -39 0l-19 5l-18 5q-25 7 -40 17q-7 5 -15 12l-14 13l-7 5l-8 7q-9 9 -12 16l-5 7q-3 3 -6 4q-5 3 -12 -6l-6 -9l-8 -10z" />
<glyph unicode="&#xd2;" horiz-adv-x="936" d="M56 507l1 -68q7 -199 93 -324q90 -131 241 -113l34 5l34 4q115 9 184 58l23 17l22 17q28 21 47 33q35 22 51 72l8 21l9 21l14 39l13 38q15 45 16 80l1 26l3 26q4 29 15 50q4 6 4 17v10l1 9l5 73l3 40l4 39q4 48 1 80q-2 31 -8 70l-11 69q-15 93 -19 140q-5 54 -41 123 l-15 28l-15 28q-19 34 -28 58q-15 36 -36 57q-32 31 -95 77q-43 33 -99 22q-23 -4 -68 -1l-81 8l-82 7q-50 4 -70 -40l-16 -33l-17 -34q-20 -40 -28 -69q-13 -50 -29 -129l-13 -65l-14 -64q-48 -211 -41 -453zM331 835q16 176 37 362q6 45 25 106q15 45 55 17 q82 -56 113 -132q67 -167 75 -354q1 -15 0 -37l-2 -19l-1 -19q5 -106 -17 -245q-7 -49 -21 -122l-24 -122q-7 -37 -39 -86q-21 -34 -50 -34t-53 32q-72 94 -90 258q-24 218 -8 395zM383 1750q4 36 27 51q25 16 58 1q70 -32 67 -92q1 -4 3 -11l5 -12q5 -15 6 -27 q8 -70 10 -143q0 -6 -6 -14t-12 -10q-31 -12 -67 4q-34 15 -50 47q-52 99 -41 206z" />
<glyph unicode="&#xd3;" horiz-adv-x="936" d="M56 507l1 -68q7 -199 93 -324q90 -131 241 -113l34 5l34 4q115 9 184 58l23 17l22 17q28 21 47 33q35 22 51 72l8 21l9 21l14 39l13 38q15 45 16 80l1 26l3 26q4 29 15 50q4 6 4 17v10l1 9l5 73l3 40l4 39q4 48 1 80q-2 31 -8 70l-11 69q-15 93 -19 140q-5 54 -41 123 l-15 28l-15 28q-19 34 -28 58q-15 36 -36 57q-32 31 -95 77q-43 33 -99 22q-23 -4 -68 -1l-81 8l-82 7q-50 4 -70 -40l-16 -33l-17 -34q-20 -40 -28 -69q-13 -50 -29 -129l-13 -65l-14 -64q-48 -211 -41 -453zM331 835q16 176 37 362q6 45 25 106q15 45 55 17 q82 -56 113 -132q67 -167 75 -354q1 -15 0 -37l-2 -19l-1 -19q5 -106 -17 -245q-7 -49 -21 -122l-24 -122q-7 -37 -39 -86q-21 -34 -50 -34t-53 32q-72 94 -90 258q-24 218 -8 395zM360 1570q-2 -6 1 -15q4 -9 9 -13q26 -21 64 -17q38 3 63 28q79 78 102 183q8 36 -9 58 q-18 23 -55 19q-76 -9 -92 -67q-2 -3 -7 -9l-7 -10q-10 -14 -15 -24q-29 -64 -54 -133z" />
<glyph unicode="&#xd4;" horiz-adv-x="936" d="M56 507l1 -68q7 -199 93 -324q90 -131 241 -113l34 5l34 4q115 9 184 58l23 17l22 17q28 21 47 33q35 22 51 72l8 21l9 21l14 39l13 38q15 45 16 80l1 26l3 26q4 29 15 50q4 6 4 17v10l1 9l5 73l3 40l4 39q4 48 1 80q-2 31 -8 70l-11 69q-15 93 -19 140q-5 54 -41 123 l-15 28l-15 28q-19 34 -28 58q-15 36 -36 57q-32 31 -95 77q-43 33 -99 22q-23 -4 -68 -1l-81 8l-82 7q-50 4 -70 -40l-16 -33l-17 -34q-20 -40 -28 -69q-13 -50 -29 -129l-13 -65l-14 -64q-48 -211 -41 -453zM223 1614q5 14 15 34l16 33l7 -2l32 78l31 78q21 54 95 99 q22 14 42 13q19 0 56 -13l27 -9q45 -14 52 -20q8 -7 5 -33q-2 -25 -20 -53q-7 -11 -18 -25l-20 -24q-32 -39 -75 -101l-35 -51l-36 -51q-23 -32 -43 -50q-21 -18 -51 6q-8 6 -21 15l-23 15q-47 33 -36 61zM331 835q16 176 37 362q6 45 25 106q15 45 55 17q82 -56 113 -132 q67 -167 75 -354q1 -15 0 -37l-2 -19l-1 -19q5 -106 -17 -245q-7 -49 -21 -122l-24 -122q-7 -37 -39 -86q-21 -34 -50 -34t-53 32q-72 94 -90 258q-24 218 -8 395zM384 1903q3 21 17 31q13 10 52 19l28 8q46 13 57 12q12 -1 35 -20q24 -19 38 -48q6 -11 11 -27l9 -27 q16 -45 45 -110l25 -55l25 -54q14 -34 18 -57q3 -24 -41 -22h-31l-31 -1q-64 -2 -84 24q-10 12 -22 31l-21 33l6 2l-53 71l-53 71q-38 49 -30 119z" />
<glyph unicode="&#xd5;" horiz-adv-x="1037" d="M57 1686q-7 -27 12 -51q55 -72 126 -93q115 -33 194 52q60 65 137 69q96 5 144 -10q8 -1 18 -4q6 -2 16 -6q12 -5 29 -14l29 -15h1l9 -4l8 -4q7 -4 12 -11q11 -9 15 -22q6 -6 11 -9l13 -4l12 -3q10 4 20 17q7 11 10 25l1 34q1 48 -47 82q-17 12 -42 26l-22 13l-22 12 q-25 15 -65 25l-35 7l-34 8q-42 11 -94 -5q-72 -22 -125 -89q-31 -39 -60 -64q-14 -12 -45 -19l-16 -2q-16 -4 -38 0l-20 4l-18 5q-25 8 -40 18q-6 4 -15 12l-14 12l-7 6l-7 7q-9 8 -12 16l-6 6l-5 5q-6 2 -12 -6l-7 -9l-7 -10zM157 507l1 -68q7 -199 93 -324 q90 -131 241 -113l34 5l33 4q116 9 185 58l23 17l22 17q28 21 47 33q35 22 51 72l8 21l9 21l14 39l13 38q15 45 16 80l1 26l3 26q4 29 15 50q3 6 4 17v10l1 9l5 73l3 40l4 39q4 48 1 80q-3 31 -8 70l-11 69q-15 93 -19 140q-5 54 -41 123l-15 28l-16 28q-18 34 -27 58 q-16 36 -37 57q-32 31 -94 77q-43 33 -99 22q-24 -4 -68 -1l-81 8l-82 7q-51 4 -70 -40l-17 -33l-16 -34q-20 -40 -28 -69q-13 -50 -29 -129l-13 -65l-14 -64q-48 -211 -41 -453zM431 835q16 176 38 362q6 45 25 106q15 45 55 17q82 -56 113 -132q67 -167 75 -354 q1 -15 0 -37l-2 -19l-1 -19q5 -106 -17 -245q-7 -49 -22 -122l-23 -122q-7 -37 -39 -86q-21 -34 -50 -34t-53 32q-72 94 -90 258q-25 218 -9 395z" />
<glyph unicode="&#xd6;" horiz-adv-x="936" d="M56 507l1 -68q7 -199 93 -324q90 -131 241 -113l34 5l34 4q115 9 184 58l23 17l22 17q28 21 47 33q35 22 51 72l8 21l9 21l14 39l13 38q15 45 16 80l1 26l3 26q4 29 15 50q4 6 4 17v10l1 9l5 73l3 40l4 39q4 48 1 80q-2 31 -8 70l-11 69q-15 93 -19 140q-5 54 -41 123 l-15 28l-15 28q-19 34 -28 58q-15 36 -36 57q-32 31 -95 77q-43 33 -99 22q-23 -4 -68 -1l-81 8l-82 7q-50 4 -70 -40l-16 -33l-17 -34q-20 -40 -28 -69q-13 -50 -29 -129l-13 -65l-14 -64q-48 -211 -41 -453zM196 1657q3 146 117 174q59 15 67 -37l5 -19l6 -19 q17 -58 3 -96t-64 -70q-55 -35 -92 -15q-24 14 -34 38q-8 18 -8 44zM331 835q16 176 37 362q6 45 25 106q15 45 55 17q82 -56 113 -132q67 -167 75 -354q1 -15 0 -37l-2 -19l-1 -19q5 -106 -17 -245q-7 -49 -21 -122l-24 -122q-7 -37 -39 -86q-21 -34 -50 -34t-53 32 q-72 94 -90 258q-24 218 -8 395zM499 1696q55 113 153 132q59 11 85 -10q27 -21 28 -81q1 -65 -68 -122q-69 -56 -132 -43q-39 8 -61 48t-5 76z" />
<glyph unicode="&#xd8;" horiz-adv-x="967" d="M56 41q-6 -34 25 -34l14 1l14 1q69 -6 124 47q77 -67 188 -54l34 5l34 4q116 9 184 58l23 17l23 17q27 21 46 33q35 22 51 72l9 21l8 21l14 39l14 38q15 45 16 80l1 26l2 26q4 29 16 50q3 6 3 17l1 10v9l5 73l4 40l4 39q4 48 1 80q-3 31 -9 70l-11 69q-15 93 -19 140 q-5 54 -40 123l-16 28l-15 28q-18 34 -28 58q-4 10 -11 22l21 65q14 41 -27 61q-65 33 -109 -17l-4 3q-43 33 -100 22q-23 -4 -67 -1l-82 8l-81 7q-51 4 -71 -40l-16 -33l-17 -34q-19 -40 -27 -69q-14 -50 -30 -129l-13 -65l-14 -64q-48 -211 -41 -453v-69v-68 q5 -135 44 -230l-32 -72l-31 -71l-3 -7l-4 -6q-4 -7 -5 -12zM358 797l3 38q16 176 38 362q5 45 25 106q14 45 55 17q44 -30 72 -65q-100 -222 -149 -346zM397 302l20 53l21 52q25 58 49 102l13 23l13 23q14 26 20 48q8 26 22 58l13 29l14 28q32 71 40 119q7 46 32 122 q10 -62 13 -125q0 -15 -1 -37l-1 -19l-2 -19q6 -106 -16 -245q-8 -49 -22 -122l-24 -122q-7 -37 -38 -86q-22 -34 -51 -34q-28 0 -53 32q-39 52 -62 120z" />
<glyph unicode="&#xd9;" horiz-adv-x="961" d="M50 601l9 -1v-59v-60q3 -225 90 -354q32 -48 95 -95q37 -28 95 -32q21 -1 52 1l26 2l26 1q36 2 85 19l40 15q25 9 41 14q87 28 137 126q17 36 30 89l10 46l10 46q5 20 9 54l4 28l4 27q5 33 16 83l10 40l9 41q21 99 19 168q-1 63 10 156l11 78l9 79l3 34q2 20 4 34 q7 43 -3 110l-5 27l-5 27q-5 32 -6 55q-1 27 -23 35q-21 9 -46 -8q-109 -76 -119 -160l-14 -120l-15 -120q-17 -144 -24 -239q-23 -300 -80 -562q-8 -34 -40 -91q-26 -44 -73 -13q-19 13 -34 35q-73 111 -73 215q0 9 -3 25l-3 13l-1 12l-5 60l-4 59q-5 69 -5 119q1 37 7 97 l5 49l4 49l5 111l6 110l4 41l5 40q6 50 5 81q0 34 -6 80l-6 40l-6 40q-5 37 -51 47q-50 11 -87 12q-55 1 -60 -49l-2 -20l-2 -20q-1 -25 -4 -40l-14 -73l-14 -72q-17 -90 -26 -145q-4 -26 -6 -66l-2 -33l-2 -33zM365 1795q4 36 27 52q24 16 58 0q70 -31 67 -92q1 -3 3 -10 l4 -12q6 -16 7 -28q7 -70 10 -143q0 -6 -6 -14q-6 -7 -12 -10q-31 -12 -67 4q-35 16 -51 47q-51 99 -40 206z" />
<glyph unicode="&#xda;" horiz-adv-x="961" d="M50 601l9 -1v-59v-60q3 -225 90 -354q32 -48 95 -95q37 -28 95 -32q21 -1 52 1l26 2l26 1q36 2 85 19l40 15q25 9 41 14q87 28 137 126q17 36 30 89l10 46l10 46q5 20 9 54l4 28l4 27q5 33 16 83l10 40l9 41q21 99 19 168q-1 63 10 156l11 78l9 79l3 34q2 20 4 34 q7 43 -3 110l-5 27l-5 27q-5 32 -6 55q-1 27 -23 35q-21 9 -46 -8q-109 -76 -119 -160l-14 -120l-15 -120q-17 -144 -24 -239q-23 -300 -80 -562q-8 -34 -40 -91q-26 -44 -73 -13q-19 13 -34 35q-73 111 -73 215q0 9 -3 25l-3 13l-1 12l-5 60l-4 59q-5 69 -5 119q1 37 7 97 l5 49l4 49l5 111l6 110l4 41l5 40q6 50 5 81q0 34 -6 80l-6 40l-6 40q-5 37 -51 47q-50 11 -87 12q-55 1 -60 -49l-2 -20l-2 -20q-1 -25 -4 -40l-14 -73l-14 -72q-17 -90 -26 -145q-4 -26 -6 -66l-2 -33l-2 -33zM453 1520q-2 -5 1 -15q4 -9 9 -13q26 -21 64 -17q38 3 63 28 q79 78 102 183q8 36 -9 58q-18 23 -55 19q-76 -9 -92 -67q-2 -3 -7 -9l-7 -10q-10 -13 -15 -24q-29 -64 -54 -133z" />
<glyph unicode="&#xdb;" horiz-adv-x="961" d="M50 601l9 -1v-59v-60q3 -225 90 -354q32 -48 95 -95q37 -28 95 -32q21 -1 52 1l26 2l26 1q36 2 85 19l40 15q25 9 41 14q87 28 137 126q17 36 30 89l10 46l10 46q5 20 9 54l4 28l4 27q5 33 16 83l10 40l9 41q21 99 19 168q-1 63 10 156l11 78l9 79l3 34q2 20 4 34 q7 43 -3 110l-5 27l-5 27q-5 32 -6 55q-1 27 -23 35q-21 9 -46 -8q-109 -76 -119 -160l-14 -120l-15 -120q-17 -144 -24 -239q-23 -300 -80 -562q-8 -34 -40 -91q-26 -44 -73 -13q-19 13 -34 35q-73 111 -73 215q0 9 -3 25l-3 13l-1 12l-5 60l-4 59q-5 69 -5 119q1 37 7 97 l5 49l4 49l5 111l6 110l4 41l5 40q6 50 5 81q0 34 -6 80l-6 40l-6 40q-5 37 -51 47q-50 11 -87 12q-55 1 -60 -49l-2 -20l-2 -20q-1 -25 -4 -40l-14 -73l-14 -72q-17 -90 -26 -145q-4 -26 -6 -66l-2 -33l-2 -33zM219 1657q6 14 15 34l17 33l6 -1l32 77l31 78q21 54 95 99 q23 14 42 14t56 -14l27 -9q45 -14 53 -20q7 -7 5 -33q-2 -25 -20 -53q-7 -11 -18 -25l-20 -24q-33 -39 -76 -101l-35 -51l-36 -51q-22 -31 -43 -50q-20 -18 -50 6q-8 6 -22 15l-23 15q-47 33 -36 61zM381 1946q2 21 16 31t53 19l28 8q45 14 57 13q11 -1 35 -21 q23 -19 38 -48q5 -11 11 -26l9 -28q15 -44 45 -110l25 -54l24 -55q15 -34 18 -57q4 -24 -41 -22h-30l-31 -1q-65 -1 -84 24q-10 13 -23 32l-21 32l6 2l-52 71l-54 71q-38 49 -29 119z" />
<glyph unicode="&#xdc;" horiz-adv-x="961" d="M50 601l9 -1v-59v-60q3 -225 90 -354q32 -48 95 -95q37 -28 95 -32q21 -1 52 1l26 2l26 1q36 2 85 19l40 15q25 9 41 14q87 28 137 126q17 36 30 89l10 46l10 46q5 20 9 54l4 28l4 27q5 33 16 83l10 40l9 41q21 99 19 168q-1 63 10 156l11 78l9 79l3 34q2 20 4 34 q7 43 -3 110l-5 27l-5 27q-5 32 -6 55q-1 27 -23 35q-21 9 -46 -8q-109 -76 -119 -160l-14 -120l-15 -120q-17 -144 -24 -239q-23 -300 -80 -562q-8 -34 -40 -91q-26 -44 -73 -13q-19 13 -34 35q-73 111 -73 215q0 9 -3 25l-3 13l-1 12l-5 60l-4 59q-5 69 -5 119q1 37 7 97 l5 49l4 49l5 111l6 110l4 41l5 40q6 50 5 81q0 34 -6 80l-6 40l-6 40q-5 37 -51 47q-50 11 -87 12q-55 1 -60 -49l-2 -20l-2 -20q-1 -25 -4 -40l-14 -73l-14 -72q-17 -90 -26 -145q-4 -26 -6 -66l-2 -33l-2 -33zM217 1600q4 146 118 174q59 14 67 -37l5 -19l5 -19 q17 -58 4 -96q-14 -38 -64 -71q-55 -35 -92 -14q-24 13 -34 37q-8 19 -9 45zM521 1638q55 114 153 132q59 12 85 -9q27 -22 28 -81q1 -65 -68 -122t-132 -43q-39 8 -61 48t-5 75z" />
<glyph unicode="&#xdd;" horiz-adv-x="939" d="M57 1441q-7 -26 12 -54l22 -32l22 -32q27 -39 45 -64q35 -45 80 -89q82 -80 107 -150l6 -16l6 -17q8 -18 17 -29q39 -48 32 -135q-4 -49 -5 -91q-5 -240 -6 -376q-1 -21 1 -51l3 -52l2 -19l2 -20q2 -23 0 -38q-2 -24 3 -52l6 -25l7 -25q15 -52 79 -72q17 -5 40 6 q67 31 75 121q1 22 0 60l-1 31v30l5 92l6 93l2 34q2 21 2 35l-2 84l-2 84v28l1 28q2 34 0 56q-6 75 14 125q10 25 25 57l28 56q36 70 50 114l3 8l5 7l64 120l65 120q11 21 2 39q-9 17 -33 22q-39 7 -71 -14q-21 -14 -41 -31q-139 -118 -225 -287q-1 -4 -5 -8l-8 -8 q-82 78 -121 163l-6 13l-6 13q-8 14 -15 24q-19 23 -29 34q-18 19 -34 30q-18 14 -45 29l-24 12l-24 13q-72 38 -136 6zM349 1546q-2 -6 1 -15q4 -9 9 -14q26 -20 64 -17q38 4 63 29q80 78 102 183q8 36 -9 58q-18 23 -55 19q-76 -9 -92 -67l-6 -9l-8 -10q-10 -14 -15 -24 q-29 -64 -54 -133z" />
<glyph unicode="&#xde;" horiz-adv-x="1120" />
<glyph unicode="&#xdf;" horiz-adv-x="1251" />
<glyph unicode="&#xe0;" horiz-adv-x="1540" />
<glyph unicode="&#xe1;" horiz-adv-x="1540" />
<glyph unicode="&#xe2;" horiz-adv-x="1540" />
<glyph unicode="&#xe3;" horiz-adv-x="1540" />
<glyph unicode="&#xe4;" horiz-adv-x="1540" />
<glyph unicode="&#xe5;" horiz-adv-x="922" />
<glyph unicode="&#xe6;" horiz-adv-x="1454" />
<glyph unicode="&#xe7;" horiz-adv-x="905" />
<glyph unicode="&#xe8;" horiz-adv-x="909" />
<glyph unicode="&#xe9;" horiz-adv-x="909" />
<glyph unicode="&#xea;" horiz-adv-x="909" />
<glyph unicode="&#xeb;" horiz-adv-x="909" />
<glyph unicode="&#xec;" horiz-adv-x="514" />
<glyph unicode="&#xed;" horiz-adv-x="514" />
<glyph unicode="&#xee;" horiz-adv-x="514" />
<glyph unicode="&#xef;" horiz-adv-x="514" />
<glyph unicode="&#xf0;" horiz-adv-x="1139" />
<glyph unicode="&#xf1;" horiz-adv-x="1108" />
<glyph unicode="&#xf2;" horiz-adv-x="1010" />
<glyph unicode="&#xf3;" horiz-adv-x="1010" />
<glyph unicode="&#xf4;" horiz-adv-x="1010" />
<glyph unicode="&#xf5;" horiz-adv-x="1010" />
<glyph unicode="&#xf6;" horiz-adv-x="1010" />
<glyph unicode="&#xf7;" horiz-adv-x="940" d="M50 647v140h839l1 -1v-139h-840zM345 377q0 15 16 31l82 84q15 14 29 14q13 0 31 -16l80 -86q12 -16 12 -29q0 -15 -14 -31l-80 -88q-20 -20 -29 -20q-16 0 -29 14l-88 101q-10 13 -10 26zM345 1070q0 15 16 31l82 84q15 14 29 14q13 0 31 -16l80 -86q12 -16 12 -29 q0 -15 -14 -31l-80 -88q-20 -20 -29 -20q-16 0 -29 14l-88 101q-10 13 -10 26z" />
<glyph unicode="&#xf8;" horiz-adv-x="1010" />
<glyph unicode="&#xf9;" horiz-adv-x="1059" />
<glyph unicode="&#xfa;" horiz-adv-x="1059" />
<glyph unicode="&#xfb;" horiz-adv-x="1059" />
<glyph unicode="&#xfc;" horiz-adv-x="1059" />
<glyph unicode="&#xfd;" horiz-adv-x="868" />
<glyph unicode="&#xfe;" horiz-adv-x="1010" />
<glyph unicode="&#xff;" horiz-adv-x="868" />
<glyph unicode="&#x131;" horiz-adv-x="555" d="M50 732v44q222 69 261 182h48v-735q0 -173 100 -173h46v-50h-442v50h46q100 0 100 173v432q0 77 -111 77h-48z" />
<glyph unicode="&#x2c6;" horiz-adv-x="682" d="M50 1079l232 355h118l232 -355h-58l-233 216l-233 -216h-58z" />
<glyph unicode="&#x2c7;" horiz-adv-x="682" d="M50 1434h58l233 -214l233 214h58l-232 -356h-118z" />
<glyph unicode="&#x2d8;" horiz-adv-x="684" d="M50 1349h51q17 -73 75 -107t167 -34t166 33.5t74 107.5h51q-20 -133 -94 -201.5t-197 -68.5q-122 0 -197 69t-96 201z" />
<glyph unicode="&#x2d9;" horiz-adv-x="315" d="M50 1263q0 6 3 12.5t11 13.5l69 72q6 6 13 9t14 3q6 0 12.5 -3t12.5 -9l71 -76q5 -4 7 -10t2 -14q-1 -9 -3 -15t-8 -12l-71 -76q-12 -11 -16 -13.5t-7 -2.5q-10 0 -16.5 2.5t-10.5 8.5l-75 87q-4 4 -6 9.5t-2 13.5z" />
<glyph unicode="&#x2da;" horiz-adv-x="455" d="M50 1257q0 75 51 126t125 51q76 0 127.5 -51.5t51.5 -125.5q0 -75 -51.5 -126.5t-127.5 -51.5q-74 0 -125 51.5t-51 126.5zM126 1257q0 -42 29 -71t71 -29t71 29t29 71q0 40 -29.5 69.5t-70.5 29.5t-70.5 -29.5t-29.5 -69.5z" />
<glyph unicode="&#x2db;" horiz-adv-x="468" d="M50 -292q0 76 60.5 156.5t161.5 135.5h49q-71 -62 -110.5 -119.5t-39.5 -112.5q0 -47 27 -75t73 -28q40 0 69.5 15.5t49.5 48.5l28 -16q-36 -63 -90.5 -97t-119.5 -34q-70 0 -114 35.5t-44 90.5z" />
<glyph unicode="&#x2dc;" horiz-adv-x="674" d="M50 1132q19 106 68 158.5t129 52.5q46 -1 113 -24q64 -23 112 -23h4q36 0 58 20t36 66h54q-20 -103 -68.5 -154t-126.5 -51h-4q-50 0 -113 23q-66 24 -114 24q-39 0 -60.5 -20.5t-33.5 -71.5h-54z" />
<glyph unicode="&#x2dd;" horiz-adv-x="260" d="M53 1326q0 -11 3 -25l2 -11l2 -10q-10 -52 48 -88q28 -17 51 -6q22 11 30 43q21 92 -13 185q-11 30 -39 47q-30 18 -58 11q-6 -2 -12 -8q-7 -6 -7 -11q-6 -66 -7 -127z" />
<glyph unicode="&#x401;" horiz-adv-x="947" d="M50 133q0 -38 29 -71q29 -34 72 -43q22 -4 58 -8l29 -3l29 -3q93 -13 215 11q34 7 85 13l43 5l43 6l26 3q15 2 25 5q39 13 44 29v1q2 6 2 14q2 9 2 18q0 11 -1 20q-2 23 -12 34q-12 13 -163 -4q-55 -6 -125 -15q-27 -4 -56 -8q-22 -3 -44 -7q17 139 -8 506q6 1 13 1 q39 2 78 0q90 -4 217 51q36 15 43 58l-17 1l-15 -1l-36 -3q-22 -2 -37 -2h-112l-113 1q-25 1 -30 11l-3 41l1 86l2 85l1 39l2 39q3 45 11 77q21 87 21 188q-1 10 0 18h2h5l18 2q30 2 62 5q101 8 182 21q259 39 237 98l-1 1v12l-1 12q-2 23 -29 25l-26 2l-25 1h-12 q-16 0 -28 -1q-174 -16 -362 -37l-36 -5l-36 -4q-42 -4 -74 2q-8 2 -21 1q-25 -3 -21 -29l2 -14l2 -14q2 -16 0 -27q-18 -100 -30 -243l-10 -121l-11 -122l-6 -58l-6 -58l-10 -132l-11 -131l-3 -39l-4 -38q-5 -42 -11 -77l-7 -46l-7 -46q-10 -53 -31 -87q-10 -15 -10 -46z M233 1719q4 145 118 173q59 15 67 -37l5 -19l5 -18q17 -58 4 -96q-14 -39 -64 -71q-55 -35 -92 -14q-24 13 -34 37q-8 18 -9 45zM537 1757q55 113 153 132q59 11 85 -10q27 -21 28 -81q1 -65 -68 -121q-69 -57 -132 -44q-39 9 -61 49t-5 75z" />
<glyph unicode="&#x402;" />
<glyph unicode="&#x403;" />
<glyph unicode="&#x404;" />
<glyph unicode="&#x405;" />
<glyph unicode="&#x406;" />
<glyph unicode="&#x407;" horiz-adv-x="907" d="M53 162q6 -57 44 -91q39 -35 90 -28q107 14 159 113q8 15 22 38l6 10l6 10q8 14 13 23q3 -6 7 -13l3 -6l2 -5q6 -12 9 -19q37 -95 91 -137q55 -44 155 -52h13h13q16 1 25 -2q59 -15 117 44q23 23 18 53q-2 15 -17 20q-10 4 -29 2l-17 -2q-11 -1 -17 0l-13 2l-14 2 q-15 3 -23 9q-97 75 -92 186q0 13 -1 30l-3 30q-2 24 -9 68l-5 34l-4 34q-9 81 4 138q2 6 2 14v14q4 184 24 318q6 45 4 96l-3 56l-1 55q0 61 12 110q6 25 6 59q0 81 -76 76l-39 -5l-38 -5q-41 -5 -56 -51q-2 -9 -4 -20l-3 -21q-9 -76 -33 -123q-46 -91 -37 -164 q5 -46 -15 -104q-24 -71 -31 -153q-13 -139 -36 -227q-27 -101 -48 -225l-5 -30l-6 -29l-13 -45l-13 -46l-14 6l-13 6q-14 6 -23 9q-39 13 -74 -14q-23 -18 -20 -48zM286 1685q3 146 118 174q59 15 67 -37l4 -19l6 -19q17 -57 3 -96q-13 -38 -63 -70q-55 -35 -92 -15 q-24 14 -35 38q-8 18 -8 44zM590 1724q55 113 153 132q58 11 85 -10t28 -81q1 -65 -68 -122q-69 -56 -133 -43q-39 8 -60 48q-22 41 -5 76z" />
<glyph unicode="&#x408;" />
<glyph unicode="&#x409;" />
<glyph unicode="&#x40a;" />
<glyph unicode="&#x40b;" />
<glyph unicode="&#x40c;" />
<glyph unicode="&#x40e;" />
<glyph unicode="&#x40f;" />
<glyph unicode="&#x410;" horiz-adv-x="1117" d="M53 48q-3 -30 27 -39q87 -25 143 21q62 52 83 152l9 47l8 47q11 62 17 93q7 34 17 41q10 8 45 7q102 -2 154 18q5 2 14 4l8 2l9 2l13 -33l12 -33l23 -65q67 -197 240 -253q63 -21 96 -3l12 6l13 7q13 7 22 15q22 20 23 50q1 5 6 14l3 7l3 7q9 41 12 72q2 22 -24 31 q-23 9 -37 -12q-5 -7 -13 -17l-4 -5l-4 -6q-6 -7 -10 -12q-4 6 -10 13l-4 5l-4 5q-8 12 -11 19l-21 43l-20 43q-23 50 -37 87q-68 179 -87 299l-13 83q-7 48 -15 83q-33 149 -71 289q-30 116 -92 219l-7 12q-4 6 -8 11q-11 11 -25 13l-30 5l-30 5q-55 6 -95 -21t-58 -82 l-4 -14l-5 -15q-5 -16 -12 -27q-17 -27 -31 -69l-11 -36l-11 -36l-11 -32l-10 -32q-13 -40 -22 -63q-44 -115 -47 -210q-3 -92 -52 -240q-25 -76 -28 -131q-10 -183 -30 -310q-2 -15 -4 -40l-2 -21zM397 555l1 20l1 20q2 23 7 37q24 68 43 161l15 82l15 82q3 15 14 24l7 -56 l7 -55q8 -66 16 -111l10 -55l12 -56q15 -73 22 -118h-147q-25 1 -23 25z" />
<glyph unicode="&#x411;" horiz-adv-x="1050" d="M61 230q-11 -53 3 -100q7 -21 24 -34q10 -9 27 -19l16 -9l15 -9l12 8q7 5 13 7q16 6 31 -3q35 -21 87 -35l45 -12l45 -11q104 -29 182 9q102 50 145 123l23 39q13 22 24 38q82 117 61 216q-3 13 -1 21l2 7l2 7q3 7 7 11q32 27 29 70q-7 104 -59 170q-72 93 -155 125l-5 2 l-5 3q-133 74 -255 25q-7 -3 -17 -5q-20 -3 -28 3t-10 26q-2 14 -2 32l1 33l2 50l3 50q2 59 -8 101q-1 5 1 13l1 7l1 8q34 -3 89 -3q60 -4 95 -5q56 -2 126 8h2q117 0 221 24q17 4 45 15l23 9l22 8q59 18 52 91q-4 36 -22 47q-2 2 -6 8l-3 4l-3 3l-12 9l-12 10 q-13 10 -24 14q-25 11 -58 9l-30 -4l-29 -5q-162 -25 -268 -45q-52 -10 -126 -26q-85 -11 -161 1l-9 1q-5 0 -8 -2q-6 -4 -16 -10l-8 -6l-9 -7l1 -9l2 -10q1 -10 -1 -17q-7 -23 -10 -52q-8 -10 -2 -21l-2 -36l-1 -36q-3 -62 -9 -93q-15 -82 -27 -188l-9 -95l-9 -95 q-28 -306 -61 -463zM251 222l2 66q1 38 3 66q7 80 18 120q10 37 18 86l6 43l6 44q3 20 26 24l81 13l82 13v-2l50 4q29 3 43 -6q14 -8 24 -34q33 -90 16 -143q-5 -16 -9 -40l-3 -20l-3 -21q-15 -87 -94 -143q-56 -39 -160 -79q-16 -6 -40 -9l-20 -3l-21 -2q-26 -4 -25 23z " />
<glyph unicode="&#x412;" horiz-adv-x="860" d="M58 318q-8 -40 7 -67q4 -6 4 -16v-9v-9v-7l-1 -7q-1 -9 -1 -13q11 -81 87 -140q6 -4 13 -7t12 -2q47 9 101 -23q4 -2 10 -4l12 -1l41 -7l41 -5q18 -2 32 1l21 6l21 5q24 7 40 16q16 8 38 25l18 14l19 15l8 -2l9 -3q11 -4 18 -4l36 15l13 9l29 13q19 12 27 18q46 38 63 92 q9 30 17 109q17 164 -64 266q-54 43 -95 60q-27 11 -41 20q-21 14 -31 35l10 11l10 11q12 13 18 23q9 16 17 20q11 17 26 43l11 21l6 11l6 10v16l8 6l8 7q13 21 34 61l17 32l17 30q57 99 39 177q-21 27 -20 50l-4 6l-3 6q-11 17 -27 36l-14 17l-14 16q-9 0 -17 -3 q-6 19 -6 20q-2 111 -109 136q-26 6 -64 10l-33 4l-33 3q-39 4 -67 4q-99 1 -211 -5q-49 -3 -51 -49l-2 -67l-1 -66l-1 -25l-2 -25v-11l-2 -10q-1 -12 1 -20q10 -47 3 -110l-6 -55l-8 -55l-3 -26l-4 -26q-6 -32 -6 -52q-1 -36 1 -88l3 -89l-1 -7l-1 -7l-8 -96l-8 -96l-2 -48 l-1 -48q-1 -58 -10 -96zM341 1359q-3 9 2 17l1 4q2 5 9 11q7 5 14 7q73 18 127 -22q61 -45 50 -126q-12 -97 -30 -148l-6 -22l-6 -22q-7 -25 -24 -38q-8 -7 -7 -17q1 -44 -60 -95q1 15 -2 41q-9 7 -8 18q14 162 -60 392zM376 179q-2 8 4 11l6 2l6 1v-3l-6 -19l-3 2l-3 2 q-3 2 -4 4zM384 541q-7 18 11 26q2 7 9 9q7 3 15 -3l15 -12l16 -12q17 -14 25 -28q56 -94 62 -219q4 -94 -99 -121q-8 -2 -24 5q-8 1 -13 5l-8 3v8l-1 8q-1 9 1 15q-1 33 0 79l2 79l1 40l1 40q-1 46 -13 78z" />
<glyph unicode="&#x413;" horiz-adv-x="888" d="M50 38l5 22l5 23l10 47l28 142l28 143q5 28 11 77l4 38l6 39l18 110q13 70 19 110l16 115l15 116l8 56q4 32 5 55q1 21 -1 48l-5 48q-3 27 22 42q29 17 72 22l37 2l36 2q16 2 38 2h37q46 1 75 9q6 1 14 -2l8 -3l7 -4l6 -3l6 -5q8 -5 12 -7q20 -8 30 -4q10 3 25 24 q12 -6 17 -8q29 15 45 23q19 -25 36 -31q48 -17 78 -21l15 -11q-21 -12 -39 -22q5 -4 11 -9l5 -3l4 -3q8 -7 13 -10q-1 -7 -8 -14l-7 -5l-6 -5q-16 -12 -10 -29l10 -27l9 -26l-14 3l-14 4q-19 5 -32 7q-6 1 -14 -1q-8 -3 -11 -7q-13 -21 -52 -28l-56 -10l-57 -10 q-18 -4 -41 -11l-42 -12q-25 -8 -24 -39q3 -69 -18 -146q-9 -34 -9 -67q-2 -104 -28 -176q-18 -51 -19 -112q0 -16 5 -36l9 -31l9 -31q3 -14 1 -24q-23 -118 -37 -180q-4 -21 -19 -42q-14 -19 -39 -52l-39 -51q-39 -54 -113 -48h-17l-18 -1q-15 1 -23 5q-12 6 -28 16l-15 8z " />
<glyph unicode="&#x414;" horiz-adv-x="1457" d="M56 338q-4 61 41 131q17 25 48 15l26 -8q15 -5 26 -10q28 -13 45 -33q17 -21 40 -17q23 5 33 31l30 78q17 44 28 80q76 230 114 356q13 43 31 117l15 58l15 58q10 38 26 90l28 89q14 47 76 116q22 24 57 5q48 -26 82 -34q38 -10 71 -52l15 -20q8 -12 16 -19 q62 -65 97 -182q11 -39 25 -93l22 -95q6 -21 5 -35q-1 -29 6 -66l7 -32l7 -33l7 -39l7 -40q9 -51 15 -79q8 -35 21 -84l21 -83l14 -49l4 -13l5 -14q8 -18 17 -21q7 -3 28 5q26 10 38 -12l13 -22l13 -23q15 -26 23 -45q37 -86 77 -194q7 -22 11 -64q5 -61 -55 -56 q-55 6 -99 16q-52 12 -72 68q-13 35 -23 40q-7 4 -47 2q-46 -3 -111 -4l-56 -1h-56h-52h-52q-178 -5 -298 17q-27 5 -67 19l-33 12l-33 11l-19 6l-10 3l-12 4l-2 -13l-2 -11q-2 -13 -2 -21q-3 -49 -34 -79t-79 -31q-36 -1 -108 5q-30 3 -23 37q8 42 8 67q-2 93 -9 191z M556 408l11 -3l11 -2q12 -3 20 -4l174 -20l49 -5l48 -6q7 0 18 1l19 2q3 18 -4 38l-7 16l-6 15q-52 144 -82 298q-7 38 -18 90l-20 89q0 1 -12 21l-13 -39q-10 -29 -20 -67l-7 -33l-8 -34q-19 -85 -40 -132l-21 -52q-13 -31 -22 -51q-27 -57 -58 -95q-3 -4 -6 -12l-3 -7z " />
<glyph unicode="&#x415;" horiz-adv-x="763" d="M53 47q3 -14 33 -33q51 -1 146 -6l73 -4l73 -3l48 -1l8 3q5 3 15 2l9 -2l9 -2h7h7q87 4 145 33q11 8 24 20l22 22q0 8 -1 15q14 11 6 26q-7 14 -30 26q-56 30 -109 12q-36 -12 -136 -11q-37 0 -82 2q-33 2 -69 5q1 59 24 213l9 61l5 31l4 29q10 67 14 103l34 1l33 1l42 3 l42 3q48 5 82 17q30 11 38 24t7 49q-40 24 -90 22l-80 -5l-80 -4q-10 -1 -33 -1q-4 85 10 348q5 85 11 181q2 32 4 63q1 11 1 21l1 7v5q55 -1 106 1q71 2 124 9q144 19 142 72q12 13 6 25t-24 12q-31 2 -65 -2l-86 -9l-86 -8q-99 -9 -173 -5q-12 0 -31 4l-32 5q-7 1 -15 -2 l-7 -2l-7 -3q-8 -3 -14 -3q-47 -2 -57 -19q-9 -14 -3 -62l2 -8l1 -9l5 -65q3 -38 3 -64q0 -31 -2 -74l-3 -73l-2 -52l-3 -52l-10 -121l-9 -120l-6 -104l-6 -103q-12 -207 -11 -350q0 -22 -5 -38q-11 -44 -8 -56z" />
<glyph unicode="&#x416;" horiz-adv-x="1620" d="M50 1105l11 2l11 2q12 2 20 3q8 0 21 -1h11l13 -1l-4 16l-2 15h2l3 1h4q14 -12 33 -26l36 -23q44 -29 67 -52q31 -32 77 -70l41 -33l42 -33q29 -23 74 -42q37 -15 88 -34l90 -34q6 -2 15 -4l9 -2l8 -2l-10 260l-11 260l18 5l18 5v30l2 2q2 1 3 1l39 -9q22 -5 38 -10 q43 -14 69 -39q12 -11 18 -31q15 -42 12 -103q-2 -31 -2 -75l1 -76l1 -54l-1 -54q0 -11 -3 -29l-3 -14l-2 -15q-1 -7 0 -18v-11v-12l6 6l5 5q5 6 8 9l31 49l30 48q38 58 64 96q116 162 222 267q60 60 114 98q48 34 112 57l13 -8l12 -8q13 -9 21 -14q25 -15 11 -38l-11 -17 l-5 -9l-6 -9q16 -11 18 -34v-19q0 -12 1 -19q4 -13 4 -32v-8v-7q0 -8 -3 -14q-58 -128 -119 -190q-24 -24 -53 -58l-25 -30l-25 -31l-74 -89l-74 -90q-4 -6 -12 -12l-14 -12q-16 -15 -23 -28q-5 -9 -14 -23l-9 -12l-9 -14q4 -11 18 -24l12 -11l13 -11q104 -95 171 -132 l45 -24l45 -23q18 -10 38 15q13 -40 62 -60q27 -12 26 -44q0 -13 4 -34l3 -17l2 -17q3 -40 -40 -34l-30 4q-18 2 -31 2q-57 -1 -127 30q-172 77 -291 193q-19 18 -44 47l-23 24l-22 25l-14 -4l-13 -4l-2 -5l-1 -5q-2 -129 9 -209q5 -36 8 -83l2 -42l1 -42q1 -27 -7 -75 q-5 -30 -32 -42q-50 -21 -100 11q-8 6 -15 20q-5 12 -7 26q-3 30 -5 71l-3 73l-8 186q0 2 -2 5l-1 3l-3 3q-62 -44 -108 -92q-42 -45 -65 -77q-31 -45 -105 -76q-71 -29 -115 -36q-94 -16 -177 -3q-10 1 -25 10l-7 5l-7 4q-9 6 -17 10q52 28 114 61l-2 7l-2 6q-2 8 0 11 q3 5 10 10l7 4l6 3l36 22q19 12 34 22q38 27 62 55q5 5 14 11l8 6l7 5l84 73l85 72q10 9 29 23l30 23q6 5 15 13l8 8l9 8l-9 4l-7 3q-7 3 -12 5l-25 8l-25 8q-30 10 -49 19q-56 26 -140 74q-136 78 -192 136l-22 24l-20 25l-23 27q-12 15 -20 27q-10 17 -22 40l-20 42 l-16 32l-8 18z" />
<glyph unicode="&#x417;" horiz-adv-x="751" d="M50 362q1 81 66 110q14 5 30 18l14 11l14 11q21 17 37 6l11 -7q7 -5 11 -8q10 -10 4 -26q-13 -37 16 -73q5 -6 8 -20l2 -11l1 -12l3 -17l1 -16q3 -21 6 -33q12 -37 46 -18q93 51 110 153q25 162 -49 374q-24 69 -100 122l-11 7l-10 7q-13 8 -20 15q-45 41 -7 90l8 10l9 9 q36 45 57 97q12 32 35 75l20 37l20 37l39 72l39 71q0 1 6 24h-21h-19h-36h-75l-76 -1q-16 0 -46 -3l-45 -4q-36 -2 -58 2q-7 1 -16 8q-8 7 -7 11q0 8 6 17t12 12l25 10l25 10q28 10 50 10q73 1 165 -2l166 -6q56 -2 87 -35q33 -35 14 -69q-12 -22 -32 -53l-34 -52l-22 -31 l-22 -31q-26 -38 -39 -67q-23 -54 -71 -147q-15 -29 -11 -41t35 -24l37 -15q21 -9 36 -17q9 -5 21 -15l10 -10l10 -9l3 -3l3 -3q3 -4 5 -5q28 -1 45 -26l7 -11l6 -12q8 -14 13 -21q12 -16 20 -46l6 -26l6 -25q1 -4 1 -11v-5v-5l12 -44l13 -45q14 -53 20 -89q6 -44 -12 -120 q-7 -28 -21 -70l-13 -35l-11 -34l-5 -15l-5 -15q-4 -17 5 -31q4 -6 1 -11q-44 -119 -118 -149q-13 -5 -29 -14l-27 -16q-35 -20 -57 -26q-155 -41 -253 57q-30 30 -52 99l-17 47q-10 29 -15 47q-16 56 -16 100z" />
<glyph unicode="&#x418;" horiz-adv-x="1158" d="M52 337v50l1 51l6 129l7 129l1 9v9q-6 68 4 162l10 80l10 80l11 127l11 127q1 10 0 26l-2 25q1 22 8 28t29 4l11 -1h6h8l1 12l2 12l2 22q14 3 25 -4q7 -4 16 -15q23 -27 48 -27q29 0 22 -29q-3 -16 0 -36l4 -17l4 -18q12 -51 9 -81q-7 -69 10 -183q4 -30 2 -70l-2 -35 l-3 -34l-3 -63l-3 -63q-4 -50 5 -110q3 -15 -1 -40l-4 -21l-2 -21q0 -28 1 -65l2 -66q0 -1 8 -27l20 35l19 34q22 39 36 65q51 93 105 227l46 116l46 116q59 147 109 266q24 56 4 104l15 6l14 6l75 26l74 26q9 4 21 11l10 6l10 5q9 5 19 6l27 3l26 2l12 2l12 1q12 -1 22 -12 q5 -5 18 -9l11 -3l12 -3l2 -24l2 -24q2 -28 11 -44q10 -17 12 -39l2 -19v-19q0 -26 -3 -39q-5 -23 -9 -54l-4 -54q-5 -71 -17 -109q-9 -31 -15 -78l-4 -40l-5 -40l-1 -8l-1 -7q-1 -8 -3 -13q-11 -23 -14 -54l-3 -28l-1 -27l-6 -67l-7 -66l-1 -39l-1 -40v-14q0 -9 -1 -14 q-13 -49 -12 -118l2 -59l3 -59q0 -29 -4 -37q-6 -10 -31 -23q15 -14 0 -45l-15 -33l-14 -33l-2 -5l-3 -4q-3 -6 -7 -7l-31 -15l-31 -13q-35 -15 -65 -18q-16 -1 -31 7q-77 43 -80 111l-2 38q-2 24 -1 39l3 163l3 164q0 12 -1 31v17v19l-10 -8l-8 -7q-8 -7 -11 -12l-23 -34 l-22 -35q-26 -40 -42 -71l-20 -34l-20 -34q-25 -41 -37 -69q-7 -14 -21 -32l-13 -16l-13 -15l-56 -70q-32 -41 -57 -70q-18 -21 -58 -52q-4 -3 -13 -2q-7 0 -14 3q-9 3 -21 9l-21 10q-42 19 -84 12q-56 -10 -64 49q-15 97 -13 226zM209 1382l1 -3l5 -1v4h-6z" />
<glyph unicode="&#x419;" horiz-adv-x="1158" d="M52 337v50l1 51l6 129l7 129l1 9v9q-6 68 4 162l10 80l10 80l11 127l11 127q1 10 0 26l-2 25q1 22 8 28t29 4l11 -1h6h8l1 12l2 12l2 22q14 3 25 -4q7 -4 16 -15q23 -27 48 -27q29 0 22 -29q-3 -16 0 -36l4 -17l4 -18q12 -51 9 -81q-7 -69 10 -183q4 -30 2 -70l-2 -35 l-3 -34l-3 -63l-3 -63q-4 -50 5 -110q3 -15 -1 -40l-4 -21l-2 -21q0 -28 1 -65l2 -66q0 -1 8 -27l20 35l19 34q22 39 36 65q51 93 105 227l46 116l46 116q59 147 109 266q24 56 4 104l15 6l14 6l75 26l74 26q9 4 21 11l10 6l10 5q9 5 19 6l27 3l26 2l12 2l12 1q12 -1 22 -12 q5 -5 18 -9l11 -3l12 -3l2 -24l2 -24q2 -28 11 -44q10 -17 12 -39l2 -19v-19q0 -26 -3 -39q-5 -23 -9 -54l-4 -54q-5 -71 -17 -109q-9 -31 -15 -78l-4 -40l-5 -40l-1 -8l-1 -7q-1 -8 -3 -13q-11 -23 -14 -54l-3 -28l-1 -27l-6 -67l-7 -66l-1 -39l-1 -40v-14q0 -9 -1 -14 q-13 -49 -12 -118l2 -59l3 -59q0 -29 -4 -37q-6 -10 -31 -23q15 -14 0 -45l-15 -33l-14 -33l-2 -5l-3 -4q-3 -6 -7 -7l-31 -15l-31 -13q-35 -15 -65 -18q-16 -1 -31 7q-77 43 -80 111l-2 38q-2 24 -1 39l3 163l3 164q0 12 -1 31v17v19l-10 -8l-8 -7q-8 -7 -11 -12l-23 -34 l-22 -35q-26 -40 -42 -71l-20 -34l-20 -34q-25 -41 -37 -69q-7 -14 -21 -32l-13 -16l-13 -15l-56 -70q-32 -41 -57 -70q-18 -21 -58 -52q-4 -3 -13 -2q-7 0 -14 3q-9 3 -21 9l-21 10q-42 19 -84 12q-56 -10 -64 49q-15 97 -13 226zM136 1714l23 18l23 17q26 19 45 32 q23 16 43 10q19 -7 25 -34q6 -34 46 -65q46 -36 98 -84q58 -54 124 -44q40 5 57 32q24 37 35 59q29 59 77 116q19 22 65 16l4 -1q2 -1 2 -2q5 -17 20 -21q5 -2 15 -3l15 -1q6 -2 13 -6q7 -5 8 -10q9 -25 10 -39q3 -23 -4 -41l-16 -41l-15 -40l-4 -8q-2 -5 -5 -7l-23 -21 l-22 -21q-27 -25 -50 -38q-151 -89 -347 -35q-157 43 -207 185q-15 44 -41 61q-4 2 -7 7zM209 1382l1 -3l5 -1v4h-6z" />
<glyph unicode="&#x41a;" horiz-adv-x="1007" d="M53 80l8 112q7 97 28 232l18 115l18 116q16 109 24 206q2 30 2 82v41l1 41q1 17 4 40l7 41l8 53l8 54q10 61 23 105q5 15 5 40v21v21q2 49 44 59q25 6 60 2q34 -4 43 -38q29 -107 21 -170q-4 -32 -5 -82v-41l-1 -41l-4 -76l-4 -75l1 -23l1 -23l13 -4l17 21l16 21 q19 26 30 45q55 100 110 215q7 15 15 35l14 35q17 45 30 69q12 23 32 51l19 23l19 24q5 6 15 12l9 4l9 4q45 19 57 -30q20 -83 -12 -165l-19 -49l-19 -49q-23 -58 -42 -98q-48 -101 -137 -187l-17 -16l-16 -17l3 -6l2 -5q2 -5 4 -7q63 -50 70 -162q9 -154 119 -325 q14 -21 38 -44q15 -14 44 -38q34 -27 62 11l16 22l16 23q20 29 31 44q4 6 14 15l9 7l10 8l5 -9l4 -7q4 -7 3 -11l-6 -39q-4 -23 -9 -39q-14 -41 -45 -65q-7 -5 -15 -13l-13 -14q-72 -73 -179 -42q-81 23 -170 133q-104 128 -121 342l-2 32l-3 33q-2 9 -5 21l-7 22 q-19 -1 -26 -14q-3 -4 -5 -12l-2 -12q-3 -19 -6 -49l-6 -49l-7 -56q-4 -32 -8 -56q-26 -149 -44 -237q-5 -23 -15 -54l-8 -27l-9 -26l-2 -5l-2 -5q-3 -6 -4 -10q-3 -30 -25 -55q-8 -9 -21 -20l-24 -18q-40 -31 -72 -9q-45 30 -42 71z" />
<glyph unicode="&#x41b;" horiz-adv-x="1305" d="M51 231q5 -171 183 -215q37 -10 72 -14q120 -13 188 55l10 10l9 11q11 13 20 19q25 18 44 49q7 11 15 28l15 29q16 31 25 79l8 40l8 41q8 35 14 87l4 43l5 44l3 35l3 35q4 42 9 69q17 103 16 156q0 21 4 26t25 7l57 5l57 6l36 2l37 2q6 -22 -1 -58l-27 -123l-26 -123 q-14 -68 -15 -112q-1 -68 4 -176q2 -38 -9 -68l-11 -28l-11 -28l-7 -17l-5 -18q-7 -24 18 -26q25 -1 45 15q20 15 27 15q7 -1 24 -16q37 -33 77 -41q29 -5 45 -10q49 -15 83 0q69 29 109 79q17 21 14 50q-3 30 -23 47q-6 5 -13 6q-39 6 -47 3q-14 -4 -27 -36l-5 -11l-6 -10 l-11 -17q-7 -9 -13 -15q-19 -19 -37 4q-20 25 -22 58l-2 37l-2 36l-1 11q0 6 2 10l20 48l20 47l5 12l6 13q7 14 8 25q10 59 32 100q11 24 17 55q6 33 14 99l6 56q3 32 4 56q1 63 -17 112l-1 7l-1 8l-1 111q-1 31 -31 31l-35 -2l-35 -2q-83 -1 -153 -19q-81 -22 -186 -41 l-94 -15l-93 -15q-142 -22 -241 -47l-14 -3q-7 -2 -12 -5q-13 -6 -18 -19q6 -21 31 -25l117 -17l45 -7l-5 -20l-4 -18q-5 -22 -6 -36l-15 -211l-15 -210q-9 -126 -38 -215q-14 -41 -38 -59q-19 8 -32 26q-5 6 -11 16l-10 17q-31 51 -30 94q0 21 -16 31q-55 34 -99 22 q-52 -13 -60 -24q-9 -11 -8 -63z" />
<glyph unicode="&#x41c;" horiz-adv-x="1219" d="M58 620q-7 102 8 201q4 28 8 73l4 36l3 37q10 87 20 154l12 68l12 69q13 75 44 116q28 37 65 42q8 1 19 4l17 6q59 19 99 -28q42 -48 60 -119q6 -24 18 -64l10 -32l10 -32l14 -51q8 -29 11 -51t15 -46l11 -22l12 -23l4 5l3 4q3 4 4 7q100 239 176 371q8 13 15 32l6 17 l6 17q11 29 43 36l29 8l28 7q28 5 50 -8q23 -14 32 -41q8 -26 22 -33q10 -6 12 -15q2 -10 -9 -20q-2 -1 -4 -5l-2 -3v-1q14 -9 13 -30v-9v-9q1 -10 6 -17q16 -22 19 -58q2 -13 2 -32v-32q0 -5 -8 -13l-6 -6q-3 -4 -4 -7q-3 -18 2 -46q11 -64 26 -132l2 -12l3 -11 q4 -13 9 -21q24 -38 38 -98l9 -52q7 -34 10 -51q10 -43 20 -112l7 -56l9 -56l6 -34l7 -34q9 -42 12 -67q2 -16 6 -37l8 -37q9 -45 9 -75q0 -15 7 -37l6 -20l6 -22l-25 -6l-23 -6q-27 -7 -45 -9q-84 -11 -158 64q-29 29 -36 101l-16 161q-9 91 -13 161q-4 63 -22 158l-15 79 q-8 46 -13 78q-3 16 -4 42l-2 42l-3 35l-4 35l-8 1l-7 -9q-4 -5 -5 -9l-23 -72q-14 -42 -22 -72q-23 -83 -29 -148q-1 -8 -4 -19l-3 -9l-3 -9l-6 -23l-5 -23q-7 -28 -10 -48q-9 -71 -68 -67q-27 2 -60 10l-29 8l-29 9q-6 2 -13 12q-5 7 -8 17q-59 166 -87 250q-8 27 -19 69 l-9 34l-9 35q-3 11 -9 29l-5 16q-4 10 -6 19q-11 -22 -17 -44l-3 -20l-3 -20l-4 -25l-4 -26q-5 -32 -7 -52q-2 -29 -4 -75l-3 -76l-5 -67l-4 -67l-3 -41l-2 -42q-3 -49 0 -84q5 -63 17 -156l10 -78l10 -78q2 -16 1 -30q-1 -23 -8 -32t-29 -16l-41 -11q-22 -6 -41 -8 q-30 -4 -44 7q-13 10 -18 41l-7 52l-6 52l-10 59q-5 32 -11 57q-28 114 -17 213q3 30 2 69l-2 34z" />
<glyph unicode="&#x41d;" horiz-adv-x="799" d="M50 109l1 18q2 20 12 35q4 6 4 17l1 10v10l8 178l5 128l5 129q0 7 2 18l3 18q4 22 0 33q-9 25 -5 58l4 28q3 17 4 28q5 95 9 210l2 101q1 64 2 101q3 58 -9 121q-10 52 9 76q20 25 73 28q17 1 39 -2l20 -4l19 -3q50 -10 54 -67l2 -39l2 -39q3 -44 8 -77q9 -61 10 -157 l1 -78q0 -46 2 -79l2 -30l1 -16l2 -18l37 -1q22 0 37 1q42 3 73 21l1 69l2 70q1 34 8 98l15 142l14 143q5 54 50 63l25 5l25 6q31 8 50 10q24 2 33 -6q10 -8 14 -33q23 -124 14 -196q-4 -32 -7 -84l-2 -42l-3 -42q-1 -14 -5 -37l-7 -37l-4 -35q-2 -19 -2 -34l-2 -120 l-1 -120l-1 -18l-2 -19l-8 -70l-7 -70v-10v-11q1 -13 -1 -21q-17 -65 -11 -166l3 -41l3 -41q3 -49 2 -83v-47q-1 -34 -30 -49q-10 -5 -24 -16l-12 -10l-13 -11l-37 10q-21 5 -35 10q-29 11 -40 27q-10 16 -11 48l-2 229l-3 229q-1 85 -7 150q-1 20 -9 24q-7 4 -28 -1 q-31 -7 -69 -10q-29 -3 -38 -12q-9 -8 -12 -37l-1 -18l-9 -244l-1 -46l-1 -46q-2 -54 -5 -91q-7 -77 -25 -151q-7 -31 -39 -53q-30 -21 -63 -21l-14 1h-14q-89 -3 -92 89z" />
<glyph unicode="&#x41e;" horiz-adv-x="894" d="M56 482l1 65q-7 230 39 429l13 62l12 61q16 75 28 122q8 28 26 66l16 32l16 32q19 41 67 37l77 -6l77 -7q42 -3 65 1q53 9 94 -21q59 -45 89 -74q20 -19 35 -54q9 -23 26 -55l15 -26l14 -27q34 -65 39 -117q4 -44 18 -132l10 -67q6 -36 8 -66q3 -30 -1 -75l-4 -38l-3 -38 l-5 -69v-8v-9q-1 -11 -4 -17q-11 -20 -14 -47l-3 -25l-1 -25q-1 -33 -15 -76l-13 -36l-13 -36l-8 -20l-8 -20q-15 -48 -49 -69q-17 -11 -44 -31l-21 -17l-22 -16q-65 -46 -175 -55l-32 -3l-32 -5q-143 -18 -229 107q-81 119 -88 308zM317 793q-16 -168 8 -375 q17 -156 85 -245q23 -31 50 -30q28 0 48 31q30 47 37 82l22 116q14 69 21 115q21 133 16 233l1 19l1 18q2 21 1 35q-8 177 -72 335q-29 73 -107 126q-38 26 -52 -16q-18 -59 -23 -101q-21 -177 -36 -343z" />
<glyph unicode="&#x41f;" horiz-adv-x="1081" d="M52 168q1 -88 65 -112q8 -2 20 -10q35 -21 71 7q13 10 35 24l35 24l8 5q5 3 6 7q8 14 25 20q5 1 10 6t6 10l2 15l2 16q1 18 -1 31q-5 31 5 53l-10 6q-5 3 -7 4l6 21l6 19q7 22 10 37l2 12l1 12q-1 13 -9 25q1 -49 -14 -65q-17 45 2 98l7 21l7 20h1l-4 17q-2 10 -2 17v47 v47v19l1 19q0 20 16 32l9 -24l8 -23q4 7 4 8v11q-3 79 19 126q7 15 10 37q13 79 19 122v2l1 1h-1l2 21q12 -3 25 -9l16 -7l16 -7v-1l13 4q9 2 14 2l37 1l36 -1h16l15 -1q16 0 25 -16l-19 -8l-18 -9l6 -3l9 -1q56 3 90 -14l1 -12q4 -128 -24 -318q-10 -72 -23 -183l-3 -40 l-3 -40l-10 -79l-10 -79q-2 -22 3 -52q12 -76 89 -78l8 -1q15 -4 32 11q6 6 16 12l18 9q4 3 14 6l14 5q19 10 39 28l17 17l17 17q11 11 8 30q-3 20 10 36q10 13 1 28l-4 7l-5 8q26 29 20 82q-3 27 3 63l5 31l5 31q0 2 2 6l4 8q9 -6 19 -11l-3 12l-3 11l-6 21l-1 8q-1 4 0 7 l8 22q5 13 10 21q33 52 40 138q2 34 3 77l-1 77q0 57 -6 95l-3 17l-3 17q-2 19 1 34q1 7 -1 14q-2 8 -6 11l-4 4l9 36q6 22 11 36q2 7 3 18l2 18q2 22 8 34q4 8 -3 16q-6 9 -15 7q-7 -1 -16 -7q-23 -16 -48 -14l-43 4l-43 4l-100 15l-100 15l-50 5l-51 4l-22 4l-23 5 q-26 5 -44 1l-2 1h-3l-61 4l-62 3q-42 2 -99 1q-69 -2 -88 -65q-23 3 -35 11q-8 5 -16 -4q-8 -8 -7 -19q1 -9 8 -20q16 -30 13 -61l-3 -55l-5 -55l-15 -127l-14 -127l-6 -64l-4 -65l-4 -28l-4 -28q-6 -34 -2 -57v-3l-1 -3l-4 -78l-3 -78q-2 -54 0 -127zM325 509l1 3l2 3 l3 -2l1 -1l-2 -3l-2 -3l-2 2zM343 474h3h3q2 -1 3 0q8 18 -6 28zM507 944l2 2l1 1l2 -1l3 -2l-2 -3l-1 -1l-3 2z" />
<glyph unicode="&#x420;" horiz-adv-x="747" d="M51 69q8 143 19 258l11 114l13 115q15 142 22 229q16 197 -5 513q-2 24 -10 41q-20 37 19 54q272 120 461 -59q21 -20 39 -57q7 -14 15 -34l13 -33q23 -57 34 -131q4 -30 7 -68l5 -68q3 -53 -18 -115q-8 -23 -22 -54l-24 -54q-28 -64 -93 -119q-24 -21 -60 -46l-32 -22 l-31 -21q-35 -25 -110 -15q-14 1 -19 -1q-6 -3 -8 -17l-20 -134l-20 -135q-2 -16 -2 -41l1 -21v-21l5 -1l-9 -49l-10 -48q-3 -12 -14 -20q-17 -12 -72 -8q-56 4 -69 19q-17 20 -16 49zM283 1308l11 -154l12 -139l11 -139q1 -12 -1 -29l-2 -15l-2 -14l-7 -69q-4 -40 -4 -68 q-1 -19 9 -25q9 -7 21 3l29 24l28 25q32 28 50 54q35 50 49 121q5 27 8 63l2 32l2 32q-4 134 -46 223q-41 88 -132 104q-40 6 -38 -29z" />
<glyph unicode="&#x421;" horiz-adv-x="848" d="M50 522q0 -20 3 -50l4 -49q14 -163 85 -265q116 -166 299 -158l59 4q32 2 57 6q69 12 90 59q2 5 9 10l6 5l6 4q64 45 71 109q2 25 11 36q48 67 24 196q-5 23 -22 29t-37 -8q-6 -4 -13 -12q-70 -87 -97 -172l-34 -107q-10 -31 -34 -35q-34 -7 -71 8q-37 16 -53 45 q-13 25 -28 58l-26 60q-6 14 -6 33q2 96 -25 223q-2 10 -2 24l1 24l11 206h-4v9l1 9l6 81l7 82q8 97 17 164q7 58 36 160q9 29 30 33q21 5 43 -16l7 -6q3 -3 5 -7l13 -29l14 -30q15 -35 18 -61q8 -57 34 -77q24 -19 82 -17h8l9 1q56 4 50 59l-3 18l-4 18q-6 23 -7 36 q-2 44 -38 98q-52 77 -165 106q-49 13 -119 10l-59 -5q-37 -3 -59 -4q-49 -1 -70 -51q-62 -146 -77 -233l-13 -68l-14 -68q-14 -75 -18 -120q-8 -90 -13 -194q-5 -97 -5 -181z" />
<glyph unicode="&#x422;" horiz-adv-x="1062" d="M88 1309q6 -4 14 -7l16 -6q19 -8 28 -15q38 -29 94 -5q59 25 142 30q-1 -9 -4 -22l-4 -20q-4 -22 -6 -36l-21 -148l-2 -19l-2 -19l-17 -225l-4 -64q-3 -39 -5 -63q-12 -116 -5 -192q2 -17 2 -40l-1 -41l-3 -142q-2 -86 -1 -143q0 -19 6 -44l6 -21l6 -22q10 -32 40 -38 q52 -11 80 -2q24 7 43 10q31 3 48 23q19 20 15 50q-4 36 12 69q2 6 4 14l1 15q2 21 3 51l1 51q1 61 13 101v4v4l1 143l1 143q0 57 -6 102q-9 78 -11 176l-1 88l1 89q1 51 -2 80q-1 14 -5 34l-7 33q-5 29 2 39q8 11 35 12q178 13 269 20q70 6 105 46q43 49 -15 65 q-46 13 -99 12l-195 -7l-194 -9h-13l-12 -2q-14 -2 -22 -7q-23 -14 -57 -22l-30 -6l-29 -5l-31 -7l-31 -6q-36 -7 -60 -14q-45 -14 -93 -40q-38 -22 0 -45z" />
<glyph unicode="&#x423;" horiz-adv-x="1074" d="M66 1432q-16 20 10 24q137 19 199 -59q106 -134 158 -281q14 -38 33 -93l17 -47q11 -31 18 -50l31 53l30 52q35 61 59 101q32 54 88 116q19 21 50 53l51 53q47 49 99 95q32 28 59 35q10 2 24 -4q13 -5 23 -14q9 -9 3 -20l-7 -9l-7 -10q-27 -50 -90 -122l-24 -28l-25 -29 q-28 -33 -46 -60q-26 -38 -59 -91l-29 -46l-28 -46l-20 -31l-20 -32q-22 -37 -36 -66q-29 -59 -31 -102q-2 -57 -2 -143v-72v-72q-1 -30 -5 -75l-36 -343q-3 -24 -17 -42q-15 -19 -35 -21l-33 -3l-34 -3q-39 -1 -68 10q-38 15 -41 50l-2 33l-3 33q-2 39 1 67q9 108 25 267 l27 268q9 82 -19 137q-50 101 -127 260l-63 130l-64 130q-5 11 -16 24l-9 12z" />
<glyph unicode="&#x424;" horiz-adv-x="1191" d="M60 520q-10 58 24 162q11 32 33 72l20 34l20 34q5 9 14 20l16 19q19 24 26 42q3 7 12 12q7 5 17 8q108 40 208 27l11 -1l11 -1q20 0 21 20l1 20v20q-1 24 -10 40q-16 29 17 30t39 28q7 30 36 19q35 -14 96 -28q7 -1 15 -10q7 -9 9 -17q11 -39 15 -85q4 -34 30 -42l19 -7 q10 -5 17 -10q18 -13 23 -35q1 -4 8 -9l7 -4l7 -4l42 -19q24 -10 44 -17q34 -12 74 -40l33 -26l33 -26l9 -8q6 -6 10 -8q55 -35 49 -123l-1 -3v-4q-1 -4 0 -7q26 -55 -22 -142q-39 -71 -133 -127q-70 -42 -179 -74q-44 -13 -50 -22q-7 -9 -3 -54q2 -31 10 -52 q10 -27 -10 -42q-41 -30 -22 -80q-13 2 -34 6l-31 5q-36 6 -59 11q-32 7 -41 37q-11 35 -21 84q-2 7 -2 17v19q-1 36 -9 44q-8 9 -44 13q-136 16 -217 51q-158 69 -188 233zM313 491q54 -74 184 -93l-2 22l-1 21q-1 23 -1 39l1 41l1 41l1 20l1 19q0 23 -11 39l-20 -6l-18 -7 l-53 -21l-54 -21q-76 -27 -28 -94zM713 601l2 -89l4 -89q90 7 144 76q-36 57 -140 137l-4 -11l-3 -9q-3 -10 -3 -15z" />
<glyph unicode="&#x425;" horiz-adv-x="946" d="M71 94q51 66 95 179l18 47l17 47q22 59 38 95q5 13 17 35l18 36l60 132q34 75 59 133q8 18 2 46l-15 61q-8 37 -15 61q-20 68 -51 114q-7 10 -9 31q-14 97 -71 281q-12 37 -1 49q11 13 57 13q89 -2 143 -73q57 -75 96 -195q1 -5 5 -12l7 -12l6 4l6 5q8 5 11 10l19 29 l18 30q22 34 33 61q22 49 92 109q34 28 71 22q36 -6 65 -44l3 -4l3 -4q4 -4 8 -5q20 -8 20 -19q0 -8 -14 -25q-10 -15 -22 -34l-19 -37l-27 -56l-28 -57l-48 -97l-49 -98q-4 -7 -6 -18l-3 -16l-2 -17q-3 -19 -9 -30q-24 -53 -6 -104q8 -21 16 -57l5 -30l7 -29l32 -114 l33 -115q9 -33 23 -76l71 -219l3 -12q2 -6 1 -11q-8 -32 -17 -55q-4 -10 -9 -17q-6 -9 -11 -9q-13 -2 -31 -7l-15 -5l-15 -4q-37 -11 -63 -5q-40 9 -81 48q-55 53 -65 157q-1 13 -6 33l-5 16l-4 17l-46 189q-1 3 -3 8l-5 8l-7 -6q-4 -4 -6 -7l-17 -33l-16 -33 q-20 -40 -34 -66q-56 -95 -152 -251q-12 -19 -31 -23q-80 -17 -129 -3q-36 10 -15 38z" />
<glyph unicode="&#x426;" horiz-adv-x="1238" d="M50 408l3 17l3 15q3 18 4 29l5 86l6 86q7 101 8 172q1 53 5 120l10 120q13 151 16 261q0 23 -4 57l-5 29l-4 28q-1 11 -10 21l-8 8l-9 7q-4 4 -8 11l-3 6l-3 6l14 7q8 4 14 5q6 2 17 1h17v11q-19 30 11 29q82 -2 136 -8q22 -3 33 -24q60 -117 52 -217q-2 -21 -1 -59v-29 l-1 -30l-3 -48l-5 -48q-6 -58 -12 -100l-3 -14l-3 -14q-5 -17 -5 -28q1 -55 -15 -143l-14 -70q-7 -41 -10 -71q-3 -29 -12 -70l-7 -36l-8 -36l13 -3l12 -3l23 -6l48 -15q29 -9 48 -13q67 -16 113 -21q33 -3 81 -6l81 -5l12 -1l13 1q23 0 21 23q-8 58 0 144l7 71q5 43 6 72 q13 247 25 456l10 136l10 136q2 30 27 31q36 1 44 29q6 19 27 10q6 -3 15 -9l15 -9l7 -4l6 -3q7 -4 12 -5q38 -3 46 -43q5 -22 8 -60l1 -17l1 -17q1 -21 3 -34q14 -83 -7 -222q-4 -26 -2 -71l6 -77l6 -77l8 -114q5 -67 7 -115q1 -23 -1 -53l-4 -54q-2 -21 2 -26q4 -7 23 -11 l16 -3q10 -2 16 -3q10 -4 25 -9l14 -6l15 -6l-14 -18l-6 -7l-5 -6q56 -14 78 -44q19 -27 21 -83q4 -122 -42 -209l-20 -38l-20 -38q-5 -8 -10 -13q-6 -8 -12 -10q-99 -32 -159 -1q-19 10 -16 29q10 62 18 124q2 17 3 43l2 23l1 24h-9l-8 1q-9 0 -14 -1q-108 -26 -319 -4 q-35 3 -91 11l-91 12q-65 8 -158 45q-63 24 -130 41q-13 3 -25 15l-10 10q-5 5 -10 9l-8 6l-4 2z" />
<glyph unicode="&#x427;" horiz-adv-x="1086" d="M50 1145q0 20 1 48l2 47q1 18 5 23q4 4 21 6q99 9 148 -18q10 -6 27 -12l14 -5l13 -4q35 -13 36 -54v-20v-21q1 -24 3 -40q18 -130 44 -205q27 -75 131 -142q21 -14 53 -1q72 28 105 134q4 13 9 35l4 18l4 18l30 107l29 108q5 20 5 42q0 21 -4 59q-2 18 17 22 q77 17 126 -19q9 -7 17 -8q39 -7 58 -67q9 -31 14 -88l5 -44q2 -24 7 -43q7 -29 12 -85l5 -43q3 -24 7 -43l1 -3v-3q-4 -32 2 -80l6 -39q3 -23 4 -40v-8q0 -5 -1 -8q-9 -20 -7 -50l2 -25l1 -25q0 -54 3 -85q1 -13 5 -35l3 -18l3 -18q4 -28 1 -48q-3 -26 8 -51q7 -16 6 -37 q-3 -47 -9 -106q-4 -29 -13 -39q-10 -9 -39 -10q-22 0 -30 -20l-16 -44l-16 -43l-17 -6l-16 -6q-17 -7 -40 2q-23 10 -29 28l-7 16l-8 16l-3 8q-2 4 -3 7l-2 37v37q1 31 -16 43q-28 21 -31 70l-10 184l-10 183l-1 10l-1 6l-1 6l-12 -1q-6 -1 -10 -2q-94 -43 -229 -24 q-75 10 -185 45q-68 22 -127 95q-84 106 -94 199q-5 39 -7 89z" />
<glyph unicode="&#x428;" horiz-adv-x="1400" d="M59 222q-9 147 13 388q13 142 30 390q5 68 8 190q0 14 -2 34l-2 18l-2 20l10 2l12 2q14 3 21 8t12 18l5 11l5 12l4 -1h4q5 -1 7 -4q25 -29 56 -20q4 2 12 -2q7 -3 9 -7l10 -17l10 -18q11 -21 12 -36q2 -44 10 -100l7 -50l8 -50q4 -22 2 -50l-6 -147l-8 -147 q-2 -42 -9 -115l-6 -57l-5 -57q-3 -53 -3 -122q0 -20 6 -26q5 -6 25 -8l83 -8l82 -8q28 -3 33 24l6 31l6 31q7 37 9 62q10 138 23 381l8 167l7 167l1 14l-1 12l-2 11q-1 13 3 19q4 5 17 8l11 2l10 3q14 5 19 19q2 5 3 14l3 14l8 -3q3 -2 5 -4q25 -25 59 -21q25 3 33 -25 q42 -158 30 -277q-3 -21 1 -49l4 -25l5 -25q14 -62 9 -122q-6 -88 7 -168q4 -22 4 -59v-29v-30q2 -46 8 -82q3 -17 9 -22t23 -2l83 15l83 17q26 5 29 36l4 42l5 41l19 131q13 81 19 132q6 42 12 107l10 108l8 73l9 73q10 87 -2 154v11v11q9 4 25 4h13l13 -1q31 1 41 28 l8 -10l7 -10l13 -18q24 20 37 17t26 -30l3 -7l2 -7l13 -57q7 -33 12 -58q11 -65 9 -118q-1 -23 2 -59l2 -30l2 -29q3 -93 2 -173q-1 -129 -27 -223q-4 -15 -5 -41l-1 -21l-1 -20q-8 -53 -21 -106q-5 -23 -2 -29q4 -7 27 -12q1 -1 29 -9q-20 -22 -35 -61l-6 -16l-6 -16 q-7 -18 -14 -31q-29 6 -49 -24q-14 -22 -52 -27q-47 -5 -110 -16q-11 -2 -29 -12q-43 -23 -94 -19q-110 8 -244 -5q-176 -16 -366 11q-35 5 -59 -6q-10 -5 -26 -5q-13 1 -29 5l-17 5q-10 2 -16 3q-19 1 -33 -13q-3 -2 -13 0q-9 1 -16 5q-50 29 -64 100q-7 37 -11 111z M288 252q0 -4 3 -7q3 -4 6 -6t7 -2h7l152 3v8l-141 17q-15 2 -25 -1q-3 -1 -6 -5t-3 -7z" />
<glyph unicode="&#x429;" horiz-adv-x="1967" d="M72 554q25 128 33 279q1 25 8 63l6 32l5 32l18 116l16 115q13 99 29 239q9 88 -4 132q-3 10 -4 25v13l-1 14q6 2 18 4l9 2l9 2q20 6 22 25l17 -2l16 -3l31 -6q32 -6 38 -33l5 -25q3 -14 7 -24q5 -12 13 -28l15 -29l6 -10l5 -10q7 -12 10 -21l26 -82q14 -47 23 -83 q21 -86 -13 -169q-29 -68 -42 -155l-5 -33l-7 -33q-9 -38 -23 -64q-3 -6 -4 -14l-14 -110l-7 -55q-4 -33 -8 -55q-6 -36 11 -62l5 -2l5 -1l222 16l5 1l5 2l-10 -16q-6 -10 -11 -18l25 -1l25 -1q27 -1 45 1q10 1 25 7l13 6l13 6q43 -24 59 23q4 15 6 35l15 182l4 49l4 48 q5 57 5 97q0 28 -6 75l-5 37l-4 38l-4 56l-3 57q-3 70 -8 113q-3 34 -12 85l-8 42l-8 43l-4 24l-4 25q-2 27 26 19l33 -8l33 -8q9 -1 23 -2h13l15 -1q38 -36 79 -143q26 -68 46 -165l16 -83l17 -84l7 -33l8 -33q4 -17 8 -46v-5l-1 -5q-1 -6 1 -8q13 -22 15 -53l1 -28v-27 q3 -162 -25 -244q-3 -8 -5 -21l-1 -12l-2 -11l21 -1l21 -1q24 -1 40 3q96 22 232 21h8l7 2l5 8l-15 395l-1 42v41q-1 49 -6 82q-18 115 -59 304q-4 17 -15 38l-10 18l-10 18q-23 40 -26 111l33 -7l31 -6l12 -2l13 -3q14 -3 24 -1q60 11 109 -55q68 -92 86 -176l12 -49 l13 -48q17 -63 24 -98q7 -33 12 -79l4 -41l4 -40q2 -11 2 -28v-28q2 -34 10 -53q18 -40 10 -119q-3 -37 12 -96q13 -53 -6 -94q-9 -19 9 -41q18 -21 42 -21q7 1 16 3l16 3q62 10 85 -28q6 -11 18 -17q25 -11 47 -52q50 -97 40 -180l-9 -77l-10 -77q-17 -7 -26 -27 q-3 -8 -7 -20l-7 -22l22 -7l11 -3l12 -4q-11 -23 -47 -27q-8 -1 -21 0l-22 1q-42 0 -63 -21q-12 -13 -36 -8q-45 10 -69 48q-25 38 -18 88l9 84l8 83q0 1 -3 15l-10 1l-10 2q-12 1 -21 1q-58 -5 -134 -3l-68 2l-67 4q-20 1 -48 -3l-24 -4l-24 -3l-38 -8l-38 -8 q-46 -9 -76 -9q-26 1 -58 -2l-57 -7q-75 -10 -114 -9q-4 0 -10 -2l-10 -3q-124 -28 -192 -17q-12 2 -29 -2q-87 -19 -202 10q-22 6 -52 11l-53 10q-15 2 -25 -1q-32 -11 -75 -9l-37 4l-37 5q-8 1 -17 8l-8 6l-8 6q-15 13 -5 36q2 4 0 13l-2 7l-3 7q-29 75 -7 191z" />
<glyph unicode="&#x42a;" horiz-adv-x="1065" d="M50 1252q36 25 96 28l-13 10l-11 9q-13 10 -23 18l13 4l13 5q14 5 25 9q2 -34 44 -39l71 -8q43 -5 72 -7q17 -1 27 1q16 4 25 16q2 3 9 4h5h6l14 2h14q14 -1 29 -7l10 -4l10 -4q12 -6 20 -7q61 -11 69 -68l16 -115l15 -116q10 -76 -13 -149q-4 -13 -7 -35l-2 -19l-2 -20 q88 -2 172 -33q44 -16 107 -65q5 -4 9 -11l9 -12q38 -62 61 -100q12 -22 15 -37q6 -30 26 -40q4 -2 8 -8t6 -12q20 -72 13 -120l-7 -45q-3 -26 -5 -44q-5 -76 -68 -131q-123 -108 -268 -102l-77 5l-77 6h-34l-34 -1q-22 1 -38 7q-40 15 -61 4q-15 -7 -31 2q-15 9 -22 28 q-22 56 -18 102l6 57l6 57q6 68 7 114q1 73 13 194l10 96q6 55 8 97q3 60 13 152l8 76l7 76q3 29 -2 35t-34 11q-162 33 -230 86q-29 23 -30 48zM492 183h21l19 1q74 3 166 78q32 25 19 70q-32 118 -108 204q-7 8 -19 19l-12 10q-8 6 -13 11q-10 -31 -10 -32l-8 -78l-9 -79 l-3 -13l-4 -14q-6 -17 -5 -27q1 -13 -3 -29l-4 -13l-4 -14l-7 -21l-8 -23q-9 -27 -8 -50z" />
<glyph unicode="&#x42b;" horiz-adv-x="2036" d="M61 188l41 183q22 104 38 183q42 214 51 410q6 149 18 247q5 38 13 95l6 50l8 52l34 -4l34 -4q40 -4 64 -14q75 -32 104 -81q31 -53 18 -143q-5 -32 -7 -73l-4 -73q-1 -21 0 -54v-54q0 -28 9 -38q8 -10 35 -12q44 -4 98 -22l47 -17l47 -18q72 -27 136 -80q23 -19 37 -54 q20 -51 27 -78q11 -44 6 -83l-1 -13q1 -8 3 -13q5 -15 24 -18v34q13 -22 5 -60l-3 -19l-2 -18q-3 -25 -6 -37q-8 -42 -18 -61q-13 -26 -5 -45q8 -20 -1 -39q-4 -7 -10 -15l-12 -15q-7 -10 -22 -23l-13 -10l-12 -11q-39 -37 -98 -68q-23 -12 -54 -26l-56 -24 q-96 -41 -178 -14l-36 12l-36 11l-13 4l-14 5q-69 19 -131 -30l-4 -3l-3 -4q-5 -3 -7 -3q-9 2 -23 2l-23 -1q-28 -1 -45 8q-47 28 -64 80q-13 44 -2 96zM397 226q-6 -32 23 -28q53 7 83 21q43 19 99 58l19 13q10 8 18 15q19 19 24 40q8 31 17 73l4 17l3 14q3 18 5 24 q2 125 -48 220q-19 36 -57 38l-34 2q-20 1 -34 4q-35 7 -46 -5q-9 -10 -7 -47l2 -11l1 -11l-1 -15l-1 -15q-1 -18 -5 -30q-16 -57 -2 -123q2 -7 1 -15t-4 -12q-23 -24 -24 -80l-1 -10l-1 -12q-2 -12 -7 -19q-8 -12 -13 -30l-3 -15l-2 -16l-4 -23zM954 125l4 6q3 3 5 4 q36 14 70 46q13 12 30 30l28 32q78 87 135 215q15 37 43 95l23 47l22 47q29 62 43 152q20 135 44 243q5 23 20 62l12 30l10 31q12 43 17 95q5 57 26 74q22 18 77 12q20 -2 32 -8l42 -22q27 -14 43 -22q15 -7 41 -10q28 -3 35 -10q6 -5 13 -34q14 -58 6 -131q-3 -27 -10 -64 l-13 -64q-5 -26 -8 -60l-2 -31l-3 -30l-1 -29v-28q-2 -34 -9 -57q-3 -10 2 -27l3 -14l4 -14l2 -10l2 -10q3 -11 0 -17q-14 -32 -15 -75v-39l2 -38q0 -24 -2 -55l-5 -56q-10 -89 6 -182q0 -3 3 -8l3 -5l4 -5l8 5l8 5q9 6 13 11q53 58 78 89q16 20 23 21q9 2 29 -12 q51 -36 53 -81q1 -15 8 -24q28 -37 17 -66q-19 -49 -65 -63q-47 -14 -74 -15q-38 -1 -88 -1h-88q-63 1 -111 50q-59 62 -75 108q-2 3 -5 7l-6 8q-17 -2 -34 -13l-15 -10l-14 -11q-86 -63 -194 -80l-29 -5l-29 -4q-33 -4 -59 -4t-63 4l-31 4l-31 4q-2 0 -5 2l-2 2z" />
<glyph unicode="&#x42c;" horiz-adv-x="1065" d="M65 274q-15 -109 41 -192q29 -42 66 -42q8 0 20 -3l10 -4l10 -3l24 -7l23 -7q39 -9 91 -7l45 4l45 4q58 4 96 -10q31 -12 68 -3q143 38 244 162l24 29l23 28q26 34 41 62q2 4 7 9q72 73 41 192q-16 64 -27 84q-10 18 -54 67l-19 20l-19 19q-48 55 -125 100 q-98 57 -254 44l-23 -2l-12 -1l-13 -1l-3 12l-4 12q-4 14 -5 23l-4 38l-3 38q-4 47 -9 76q-5 36 10 57q37 52 23 120l-1 5l1 6q1 7 0 11l-2 12l-2 12q-3 15 -9 20q-32 28 -63 27l-53 -1l-52 -2l-105 -8q-42 -113 -68 -239h1l-2 -13l-2 -12l-3 -20l-6 -31l-6 -32 q-6 -37 -6 -62q-3 -138 1 -330l2 -65l3 -66q1 -76 -6 -130zM452 655q41 18 87 4q70 -21 127 -75q34 -31 10 -69l-12 -21l-14 -21q-15 -23 -29 -39q-23 -25 -57 -57l-29 -28l-29 -28q-1 -1 -28 -15q-12 164 -26 349z" />
<glyph unicode="&#x42d;" horiz-adv-x="1127" d="M51 275q3 96 77 160q69 60 155 62l44 3l44 3l3 -9q-4 -6 -9 -17l-8 -18q-10 -21 -25 -32q-7 -6 -15 -17l-6 -9l-6 -10q-6 -8 -3 -19q11 -45 38 -75l15 -17l15 -18q18 -21 31 -33q24 -24 52 -38q34 -18 50 19l11 29l11 28q14 35 24 56q15 30 28 70l12 35l11 36q6 21 18 50 l11 24l10 24l6 13l6 14q5 17 1 33l-40 -4l-41 -4q-99 -10 -192 31q-50 22 -81 99l-9 23q-4 13 -6 24q-4 27 12 50q11 8 26 -7q21 -22 64 -21q73 2 154 8l70 6l72 7q14 31 15 79v86v85q0 30 -22 49q-29 24 -58 53q-74 77 -171 62q-19 -3 -52 -5l-26 -2l-27 -2q-8 -1 -20 -5 l-19 -9l-17 -8l-17 -9q-21 -10 -34 -16q-39 -16 -86 17q3 40 31 71q144 162 360 147q154 -10 255 -44q108 -37 154 -97q28 -36 46 -78q42 -92 69 -231q15 -77 3 -140l-2 -21l-1 -22q-1 -28 -4 -42q-7 -35 -19 -84l-21 -83l-1 -5l-1 -5q-2 -6 -5 -8q-22 -18 -27 -71 q-3 -33 -41 -76l-6 -6l-5 -5q-6 -7 -7 -14v-2l-1 -1q-19 -14 -23 -39q-1 -7 -2 -22l-2 -23q-1 -6 -6 -14l-4 -8l-5 -7l-23 -42l-6 -8l-6 -6l-3 -3l-4 -3q-4 -3 -4 -5q0 -9 -7 -17l-7 -7l-6 -7q-27 -37 -52 -47q-2 -1 -4 -4l-1 -3l-2 -4q-15 -27 -45 -53q-13 -10 -31 -21 l-16 -9l-16 -9q-37 -21 -61 -17l-7 -1l-6 -2q-80 -16 -167 -8q-25 2 -65 10l-32 6l-32 6q-8 1 -21 7l-10 5l-11 5l-22 9q-13 4 -24 7q-32 7 -50 34l-12 17l-11 19l-14 20l-14 21q-16 25 -25 43q-15 31 -14 63zM946 521l8 -7l3 4l3 3l-3 2l-2 1l-4 -1z" />
<glyph unicode="&#x42e;" horiz-adv-x="1228" d="M50 306q0 22 1 50l2 50q3 64 1 99q-4 74 8 185l11 92q6 54 9 92q4 59 14 130q3 20 10 52l10 51l2 12l1 11q1 15 3 23q13 53 27 90q1 4 10 7q8 3 15 3q40 2 69 -28q30 -30 27 -69q-3 -35 0 -79l4 -39l5 -39q2 -21 11 -44q39 -101 39 -212l-2 -31l-2 -31q-1 -4 0 -12v-7 l1 -8q34 3 81 7l1 12v11l2 21q7 91 30 180q7 27 16 77l7 39l8 38q20 87 87 201q12 22 50 25q119 9 206 -10l12 -3l12 -2q13 -4 19 -10q8 -10 27 -22l15 -8q8 -6 13 -11q38 -37 90 -44q17 -2 35 -21l14 -17q8 -12 14 -17l20 -22q11 -12 18 -23q16 -25 21 -50l3 -22l3 -22 q4 -26 12 -42q3 -5 3 -13q-2 -30 5 -68l7 -34l8 -33q13 -64 6 -180l-1 -25l-2 -25q-3 -29 -12 -50q-2 -6 -1 -17l1 -9l1 -9l1 -9v-9q1 -11 -1 -18q-15 -42 -46 -119q-10 -23 -34 -46l-21 -19l-22 -19q-42 -40 -104 -52q-39 -7 -117 -6h-38l-37 -2q-60 -3 -109 39l-22 19 l-23 19l-3 3l-3 3q-4 4 -4 7q-4 28 -24 60l-18 27l-18 26l-37 55q-22 33 -35 55q-14 24 -40 21q-41 -5 -78 -8q-25 -3 -26 -27q-2 -61 -5 -115l-3 -50l-4 -51q0 -5 2 -14l1 -7l1 -7l-1 -38l-1 -38v-34l-1 -35v-19q0 -12 -2 -20q-5 -20 -13 -25q-7 -5 -29 -2q-22 4 -49 3 q-49 0 -88 34t-45 83q-5 41 -8 92zM665 722q-2 -46 15 -86l14 -36l14 -36q17 -41 34 -69q15 -25 37 -62l19 -31l19 -33q12 10 15 25l2 12l2 12q14 109 9 269l-1 28l-1 28q-1 32 3 55q16 89 -4 158l-7 26l-5 27q-7 32 -18 51q-4 6 -4 17v9l-1 9l-1 14l-1 11l-14 -1l-14 -1 q-15 -1 -24 0q-21 1 -25 -2q-5 -2 -13 -22l-5 -12l-5 -12q-21 -50 -9 -99q9 -31 0 -71l-10 -44l-9 -44q-10 -51 -12 -90z" />
<glyph unicode="&#x42f;" horiz-adv-x="1129" d="M50 208q26 31 90 38q10 1 26 -2l80 -19l79 -20q40 -10 82 16q85 52 142 142q20 31 47 78l22 40l23 40l-51 21l-50 21q-105 44 -158 168q-32 74 -38 149q-2 24 0 36q20 126 82 209q10 13 26 31l15 14l14 14l7 6l7 6q9 7 14 12q31 34 80 25q44 -8 98 -20l98 -22q5 -2 15 -9 l7 -6q4 -2 8 -3q38 -12 98 -41l48 -23q27 -13 48 -21q65 -25 68 -93q2 -36 1 -83l-2 -84l-4 -81l-5 -82v-27l1 -27q1 -36 0 -54l-6 -84l-6 -83l-14 -160l-8 -70l-7 -69l-30 -7l-30 -7v-8l1 -8l1 -13l-3 -4l-2 -3q-30 -14 -72 -25l-38 -8l-37 -7q-14 -3 -30 10q-15 14 -18 30 q-19 108 -10 199l2 15v17q-1 18 -11 33l-8 -10l-7 -9q-9 -10 -16 -16l-65 -61q-38 -34 -67 -59q-34 -29 -83 -58q-9 -6 -24 -10l-13 -3l-13 -2q-78 -19 -201 6q-101 20 -161 82l-21 21zM608 853q-2 -46 6 -80q19 -84 66 -126q13 -11 18 -12q4 0 20 11l8 6l9 4q10 4 21 -3 q26 -16 31 14l3 30l2 29q12 192 35 290q14 54 -20 92l-16 -2l-16 -2q-19 -2 -31 -7q-77 -29 -130 -152l-1 -6l-1 -7l-2 -40z" />
<glyph unicode="&#x451;" horiz-adv-x="947" d="M50 133q0 -38 29 -71q29 -34 72 -43q22 -4 58 -8l29 -3l29 -3q93 -13 215 11q34 7 85 13l43 5l43 6l26 3q15 2 25 5q39 13 44 29v1q2 6 2 14q2 9 2 18q0 11 -1 20q-2 23 -12 34q-12 13 -163 -4q-55 -6 -125 -15q-27 -4 -56 -8q-22 -3 -44 -7q17 139 -8 506q6 1 13 1 q39 2 78 0q90 -4 217 51q36 15 43 58l-17 1l-15 -1l-36 -3q-22 -2 -37 -2h-112l-113 1q-25 1 -30 11l-3 41l1 86l2 85l1 39l2 39q3 45 11 77q21 87 21 188q-1 10 0 18h2h5l18 2q30 2 62 5q101 8 182 21q259 39 237 98l-1 1v12l-1 12q-2 23 -29 25l-26 2l-25 1h-12 q-16 0 -28 -1q-174 -16 -362 -37l-36 -5l-36 -4q-42 -4 -74 2q-8 2 -21 1q-25 -3 -21 -29l2 -14l2 -14q2 -16 0 -27q-18 -100 -30 -243l-10 -121l-11 -122l-6 -58l-6 -58l-10 -132l-11 -131l-3 -39l-4 -38q-5 -42 -11 -77l-7 -46l-7 -46q-10 -53 -31 -87q-10 -15 -10 -46z M233 1719q4 145 118 173q59 15 67 -37l5 -19l5 -18q17 -58 4 -96q-14 -39 -64 -71q-55 -35 -92 -14q-24 13 -34 37q-8 18 -9 45zM537 1757q55 113 153 132q59 11 85 -10q27 -21 28 -81q1 -65 -68 -121q-69 -57 -132 -44q-39 9 -61 49t-5 75z" />
<glyph unicode="&#x452;" />
<glyph unicode="&#x453;" />
<glyph unicode="&#x454;" horiz-adv-x="1128" d="M62 592l3 21l1 21q1 28 4 42q7 35 19 84l21 84l1 4l1 6q2 5 5 7q22 18 27 71q3 33 41 76l5 6l6 6q6 6 7 14v1l1 2q18 13 23 38q1 8 2 23l2 22q1 6 6 15l4 7l4 7l24 43l5 7l7 7l3 3l3 2q5 3 5 5q-1 10 7 18l6 6l6 7q27 37 53 47q2 1 4 5l1 3l2 3q15 28 45 53q13 11 30 21 l16 9l16 9q38 21 62 18h6l7 2q80 17 167 9q25 -2 64 -10l32 -7l32 -5q9 -2 21 -8l11 -5l10 -5l23 -8q13 -5 23 -7q33 -8 51 -34l11 -18l11 -18l14 -21l14 -21q17 -25 26 -43q15 -30 14 -63q-4 -96 -78 -160q-69 -60 -155 -62l-43 -2l-44 -3l-4 8q4 7 9 18l8 18q11 21 25 32 q8 5 16 16l6 10l6 9q5 9 3 19q-11 46 -38 76l-15 17l-15 17q-18 21 -31 34q-25 24 -52 38q-34 17 -50 -20l-11 -28l-12 -28q-13 -35 -23 -56q-15 -30 -29 -70l-11 -36l-11 -36q-7 -20 -19 -49l-10 -24l-10 -25l-6 -13l-6 -14q-5 -16 -1 -32l40 3l40 4q99 10 192 -31 q50 -22 81 -99l9 -23q5 -13 6 -23q4 -27 -11 -51q-12 -7 -26 8q-22 22 -64 20q-74 -2 -154 -8l-70 -6l-72 -7q-14 -31 -15 -79v-85v-86q-1 -29 22 -48q29 -24 57 -54q74 -77 172 -62q18 3 52 5l26 2l26 2q9 1 20 6l20 8l17 8l16 9q21 11 34 16q40 16 87 -17q-4 -40 -32 -71 q-143 -161 -359 -147q-154 11 -255 45q-108 37 -154 96q-28 36 -47 78q-41 93 -68 231q-16 77 -4 141zM168 907l2 -2l3 -1l4 2l5 2l-9 6l-2 -3z" />
<glyph unicode="&#x455;" />
<glyph unicode="&#x456;" />
<glyph unicode="&#x457;" />
<glyph unicode="&#x458;" />
<glyph unicode="&#x459;" />
<glyph unicode="&#x45a;" />
<glyph unicode="&#x45b;" />
<glyph unicode="&#x45c;" />
<glyph unicode="&#x45e;" />
<glyph unicode="&#x45f;" />
<glyph unicode="&#x460;" horiz-adv-x="1882" d="M64 715q-14 -91 5 -198q18 -109 56 -185q68 -136 172 -199q60 -36 111 -60q150 -72 292 -73q121 -1 195 42l11 7q7 4 10 8q9 10 3 27q39 -2 72 -19l22 -11l22 -10q25 -12 45 -16q51 -11 122 -10q165 1 269 42q203 79 275 267l17 45q10 27 19 45q42 89 48 150l1 18l1 17 q-1 19 -10 34q-4 6 -4 17q0 7 1 18q7 40 -20 67q-39 40 -89 72q-44 29 -111 59q-10 5 -27 7l-14 2l-15 1l-16 1l-16 1q-20 0 -32 4q-48 16 -99 6q-75 -14 -103 33q-21 -1 -39 -15q-6 -5 -14 -14l-13 -15q-24 -27 -14 -56t46 -39q31 -9 47 -17q18 -8 24 -21q11 -24 33 -49 l20 -22l21 -21q15 -15 26 -30l11 -16l10 -17q13 -20 23 -32q24 -26 10 -58q-34 -81 -95 -166q-69 -96 -174 -103l-43 -1q-27 0 -43 -1q-77 -7 -189 57q-3 1 -5 5l-2 3l-1 4l-23 32q-19 26 -42 27q-24 0 -43 -26q-7 -11 -16 -28l-7 -14l-8 -15q-50 -92 -149 -86 q-62 3 -115 38q-39 26 -88 60l-86 62q-12 9 -16 24l-8 27l-7 28q-9 32 -11 56q-9 85 11 146q40 126 177 216q25 16 47 26q123 52 198 33q10 -2 24 3q6 3 14 9l8 5l9 5q0 32 -6 41q-5 9 -33 17l-33 10l-33 8q-153 39 -292 39q-37 0 -84 -15l-40 -13l-40 -13q-7 -2 -17 -9 l-7 -7l-7 -7q-106 -104 -129 -264z" />
<glyph unicode="&#x461;" />
<glyph unicode="&#x462;" />
<glyph unicode="&#x463;" />
<glyph unicode="&#x464;" />
<glyph unicode="&#x465;" />
<glyph unicode="&#x466;" />
<glyph unicode="&#x467;" />
<glyph unicode="&#x468;" />
<glyph unicode="&#x469;" />
<glyph unicode="&#x46a;" />
<glyph unicode="&#x46b;" />
<glyph unicode="&#x46c;" />
<glyph unicode="&#x46d;" />
<glyph unicode="&#x46e;" />
<glyph unicode="&#x46f;" />
<glyph unicode="&#x470;" />
<glyph unicode="&#x471;" />
<glyph unicode="&#x472;" />
<glyph unicode="&#x473;" />
<glyph unicode="&#x475;" />
<glyph unicode="&#x476;" />
<glyph unicode="&#x477;" />
<glyph unicode="&#x478;" />
<glyph unicode="&#x479;" />
<glyph unicode="&#x47a;" />
<glyph unicode="&#x47b;" />
<glyph unicode="&#x47c;" />
<glyph unicode="&#x47d;" />
<glyph unicode="&#x47e;" />
<glyph unicode="&#x47f;" />
<glyph unicode="&#x480;" />
<glyph unicode="&#x481;" />
<glyph unicode="&#x482;" />
<glyph unicode="&#x483;" horiz-adv-x="0" />
<glyph unicode="&#x484;" horiz-adv-x="0" />
<glyph unicode="&#x485;" horiz-adv-x="0" />
<glyph unicode="&#x486;" horiz-adv-x="0" />
<glyph unicode="&#x490;" />
<glyph unicode="&#x491;" />
<glyph unicode="&#x492;" />
<glyph unicode="&#x493;" />
<glyph unicode="&#x494;" />
<glyph unicode="&#x495;" />
<glyph unicode="&#x496;" />
<glyph unicode="&#x497;" />
<glyph unicode="&#x498;" />
<glyph unicode="&#x499;" />
<glyph unicode="&#x49a;" />
<glyph unicode="&#x49b;" />
<glyph unicode="&#x49c;" />
<glyph unicode="&#x49d;" />
<glyph unicode="&#x49e;" />
<glyph unicode="&#x49f;" />
<glyph unicode="&#x4a1;" />
<glyph unicode="&#x4a2;" />
<glyph unicode="&#x4a3;" />
<glyph unicode="&#x4a4;" />
<glyph unicode="&#x4a5;" />
<glyph unicode="&#x4a6;" />
<glyph unicode="&#x4a7;" />
<glyph unicode="&#x4a8;" />
<glyph unicode="&#x4a9;" />
<glyph unicode="&#x4aa;" />
<glyph unicode="&#x4ab;" />
<glyph unicode="&#x4ac;" />
<glyph unicode="&#x4ad;" />
<glyph unicode="&#x4ae;" />
<glyph unicode="&#x4af;" />
<glyph unicode="&#x4b0;" />
<glyph unicode="&#x4b1;" />
<glyph unicode="&#x4b2;" />
<glyph unicode="&#x4b3;" />
<glyph unicode="&#x4b4;" />
<glyph unicode="&#x4b5;" />
<glyph unicode="&#x4b6;" />
<glyph unicode="&#x4b7;" />
<glyph unicode="&#x4b8;" />
<glyph unicode="&#x4b9;" />
<glyph unicode="&#x4ba;" />
<glyph unicode="&#x4bb;" />
<glyph unicode="&#x4bc;" />
<glyph unicode="&#x4bd;" />
<glyph unicode="&#x4be;" />
<glyph unicode="&#x4bf;" />
<glyph unicode="&#x4c0;" />
<glyph unicode="&#x4c1;" />
<glyph unicode="&#x4c2;" />
<glyph unicode="&#x4c3;" />
<glyph unicode="&#x4c4;" />
<glyph unicode="&#x4c7;" />
<glyph unicode="&#x4c8;" />
<glyph unicode="&#x4cb;" />
<glyph unicode="&#x4cc;" />
<glyph unicode="&#x4d0;" />
<glyph unicode="&#x4d1;" />
<glyph unicode="&#x4d2;" />
<glyph unicode="&#x4d3;" />
<glyph unicode="&#x4d4;" />
<glyph unicode="&#x4d5;" />
<glyph unicode="&#x4d6;" />
<glyph unicode="&#x4d7;" />
<glyph unicode="&#x4d8;" />
<glyph unicode="&#x4d9;" />
<glyph unicode="&#x4da;" />
<glyph unicode="&#x4db;" />
<glyph unicode="&#x4dc;" />
<glyph unicode="&#x4dd;" />
<glyph unicode="&#x4de;" />
<glyph unicode="&#x4df;" />
<glyph unicode="&#x4e0;" />
<glyph unicode="&#x4e1;" />
<glyph unicode="&#x4e2;" />
<glyph unicode="&#x4e3;" />
<glyph unicode="&#x4e4;" />
<glyph unicode="&#x4e5;" />
<glyph unicode="&#x4e6;" />
<glyph unicode="&#x4e7;" />
<glyph unicode="&#x4e8;" />
<glyph unicode="&#x4e9;" />
<glyph unicode="&#x4ea;" />
<glyph unicode="&#x4eb;" />
<glyph unicode="&#x4ee;" />
<glyph unicode="&#x4ef;" />
<glyph unicode="&#x4f0;" />
<glyph unicode="&#x4f1;" />
<glyph unicode="&#x4f2;" />
<glyph unicode="&#x4f3;" />
<glyph unicode="&#x4f4;" />
<glyph unicode="&#x4f8;" />
<glyph unicode="&#x4f9;" />
<glyph unicode="&#x2000;" horiz-adv-x="1012" />
<glyph unicode="&#x2001;" horiz-adv-x="2025" />
<glyph unicode="&#x2002;" horiz-adv-x="1012" />
<glyph unicode="&#x2003;" horiz-adv-x="2025" />
<glyph unicode="&#x2004;" horiz-adv-x="675" />
<glyph unicode="&#x2005;" horiz-adv-x="506" />
<glyph unicode="&#x2006;" horiz-adv-x="337" />
<glyph unicode="&#x2007;" horiz-adv-x="337" />
<glyph unicode="&#x2008;" horiz-adv-x="253" />
<glyph unicode="&#x2009;" horiz-adv-x="405" />
<glyph unicode="&#x200a;" horiz-adv-x="112" />
<glyph unicode="&#x2010;" horiz-adv-x="808" d="M51 371q3 11 12 22q10 12 19 15q45 15 92 17q50 1 122 1l122 -1v-3l108 1l107 -1q51 -1 98 -12q19 -5 23 -16q4 -13 -14 -25l-17 -12l-17 -11q-20 -12 -36 -16q-294 -67 -500 -18q-61 14 -93 27q-9 4 -18 15t-8 17z" />
<glyph unicode="&#x2011;" horiz-adv-x="808" d="M51 371q3 11 12 22q10 12 19 15q45 15 92 17q50 1 122 1l122 -1v-3l108 1l107 -1q51 -1 98 -12q19 -5 23 -16q4 -13 -14 -25l-17 -12l-17 -11q-20 -12 -36 -16q-294 -67 -500 -18q-61 14 -93 27q-9 4 -18 15t-8 17z" />
<glyph unicode="&#x2012;" horiz-adv-x="808" d="M51 371q3 11 12 22q10 12 19 15q45 15 92 17q50 1 122 1l122 -1v-3l108 1l107 -1q51 -1 98 -12q19 -5 23 -16q4 -13 -14 -25l-17 -12l-17 -11q-20 -12 -36 -16q-294 -67 -500 -18q-61 14 -93 27q-9 4 -18 15t-8 17z" />
<glyph unicode="&#x2013;" horiz-adv-x="1096" d="M50 419v120h996v-120h-996z" />
<glyph unicode="&#x2014;" horiz-adv-x="2148" d="M50 419v120h2048v-120h-2048z" />
<glyph unicode="&#x2018;" horiz-adv-x="260" d="M53 1326q0 -11 3 -25l2 -11l2 -10q-10 -52 48 -88q28 -17 51 -6q22 11 30 43q21 92 -13 185q-11 30 -39 47q-30 18 -58 11q-6 -2 -12 -8q-7 -6 -7 -11q-6 -66 -7 -127z" />
<glyph unicode="&#x2019;" horiz-adv-x="260" d="M53 1326q0 -11 3 -25l2 -11l2 -10q-10 -52 48 -88q28 -17 51 -6q22 11 30 43q21 92 -13 185q-11 30 -39 47q-30 18 -58 11q-6 -2 -12 -8q-7 -6 -7 -11q-6 -66 -7 -127z" />
<glyph unicode="&#x201a;" horiz-adv-x="260" d="M53 1326q0 -11 3 -25l2 -11l2 -10q-10 -52 48 -88q28 -17 51 -6q22 11 30 43q21 92 -13 185q-11 30 -39 47q-30 18 -58 11q-6 -2 -12 -8q-7 -6 -7 -11q-6 -66 -7 -127z" />
<glyph unicode="&#x201c;" horiz-adv-x="260" d="M53 1326q0 -11 3 -25l2 -11l2 -10q-10 -52 48 -88q28 -17 51 -6q22 11 30 43q21 92 -13 185q-11 30 -39 47q-30 18 -58 11q-6 -2 -12 -8q-7 -6 -7 -11q-6 -66 -7 -127z" />
<glyph unicode="&#x201d;" horiz-adv-x="260" d="M53 1326q0 -11 3 -25l2 -11l2 -10q-10 -52 48 -88q28 -17 51 -6q22 11 30 43q21 92 -13 185q-11 30 -39 47q-30 18 -58 11q-6 -2 -12 -8q-7 -6 -7 -11q-6 -66 -7 -127z" />
<glyph unicode="&#x201e;" horiz-adv-x="705" d="M50 114v42l119 125q44 0 88.5 -65.5t44.5 -151.5q0 -109 -71 -226.5t-139 -117.5v43q73 43 87 190q0 119 -129 161zM403 114v42l119 125q44 0 88.5 -65.5t44.5 -151.5q0 -109 -71 -226.5t-139 -117.5v43q73 43 87 190q0 119 -129 161z" />
<glyph unicode="&#x2020;" horiz-adv-x="973" d="M50 1001q0 57 27.5 94.5t71.5 37.5q32 0 137 -56q85 -46 179 -55q-8 97 -54 178q-57 101 -57 129q0 49 36 78.5t96 29.5q57 0 94.5 -27.5t37.5 -71.5q0 -32 -55 -137q-46 -85 -55 -179q96 8 177 54q101 57 129 57q49 0 79 -36t30 -96q0 -57 -27.5 -94.5t-72.5 -37.5 q-32 0 -136 55q-85 46 -179 57q8 -176 110 -277q-106 -460 -112 -974h-38q-6 514 -114 974q102 101 111 277q-96 -10 -178 -55q-101 -57 -129 -57q-49 0 -78.5 36t-29.5 96z" />
<glyph unicode="&#x2021;" horiz-adv-x="973" d="M50 166q0 60 29.5 96t78.5 36q28 0 129 -57q82 -45 178 -55q-9 226 -111 398q102 171 111 397q-96 -10 -178 -55q-101 -57 -129 -57q-49 0 -78.5 36t-29.5 96q0 57 27.5 94.5t71.5 37.5q32 0 137 -56q85 -46 179 -55q-8 97 -54 178q-57 101 -57 129q0 49 36 78.5t96 29.5 q57 0 94.5 -27.5t37.5 -71.5q0 -32 -55 -137q-46 -85 -55 -179q96 8 177 54q101 57 129 57q49 0 79 -36t30 -96q0 -57 -27.5 -94.5t-72.5 -37.5q-32 0 -136 55q-85 46 -179 57q8 -226 110 -397q-102 -172 -110 -398q94 11 179 57q104 55 136 55q45 0 72.5 -37.5t27.5 -94.5 q0 -60 -30 -96t-79 -36q-28 0 -129 57q-81 46 -177 54q9 -94 55 -179q55 -105 55 -137q0 -44 -37.5 -71.5t-94.5 -27.5q-60 0 -96 29.5t-36 78.5q0 28 57 129q46 81 54 178q-94 -9 -179 -55q-105 -56 -137 -56q-44 0 -71.5 37.5t-27.5 94.5z" />
<glyph unicode="&#x2022;" horiz-adv-x="692" d="M50 718q0 123 87 209t210 86q122 0 208.5 -86.5t86.5 -208.5t-87.5 -209.5t-209.5 -87.5q-123 0 -209 87t-86 210z" />
<glyph unicode="&#x2026;" horiz-adv-x="1716" d="M50 136q0 15 16 31l82 84q15 14 29 14q13 0 31 -16l80 -86q12 -16 12 -29q0 -15 -14 -31l-80 -88q-20 -20 -29 -20q-16 0 -29 14l-88 101q-10 13 -10 26zM733 136q0 15 16 31l82 84q15 14 29 14q13 0 31 -16l80 -86q12 -16 12 -29q0 -15 -14 -31l-80 -88q-20 -20 -29 -20 q-16 0 -29 14l-88 101q-10 13 -10 26zM1416 136q0 15 16 31l82 84q15 14 29 14q13 0 31 -16l80 -86q12 -16 12 -29q0 -15 -14 -31l-80 -88q-20 -20 -29 -20q-16 0 -29 14l-88 101q-10 13 -10 26z" />
<glyph unicode="&#x202f;" horiz-adv-x="405" />
<glyph unicode="&#x2039;" horiz-adv-x="456" d="M50 479l342 303h14v-37l-205 -266l205 -266v-37h-14z" />
<glyph unicode="&#x203a;" horiz-adv-x="456" d="M50 176v37l205 266l-205 266v37h14l342 -303l-342 -303h-14z" />
<glyph unicode="&#x2044;" horiz-adv-x="851" d="M57 34q1 5 5 12l4 6l3 6l34 79l35 79q41 93 66 158l50 132l49 132q62 170 100 264q36 91 88 209l46 103l47 104q15 34 57 88q27 34 54 41q27 6 65 -13q41 -20 27 -62l-38 -114l-37 -114q-6 -19 -15 -52l-6 -27l-8 -26l-16 -52l-17 -52q-21 -63 -27 -106q-8 -48 -40 -119 l-14 -28l-13 -28q-14 -33 -22 -58q-6 -22 -20 -49l-13 -23l-13 -23q-28 -49 -56 -120l-24 -61l-24 -62q-34 -87 -141 -201q-59 -62 -133 -56h-14l-14 -1q-32 0 -25 34z" />
<glyph unicode="&#x205f;" horiz-adv-x="506" />
<glyph unicode="&#x20ac;" horiz-adv-x="1211" d="M50 653l17 60h87v29q0 16 1 31h-71l17 60h58q14 145 76 281q81 178 226 274t298 96q43 0 87 -8q40 -10 82 -29q8 -6 16 -6q20 0 34 45h41l84 -281l-40 -1q-49 134 -138 178q-43 22 -81 32v3q-50 16 -101 16q-17 0 -34 -2q-120 -12 -226 -113.5t-157 -273.5 q-32 -104 -39 -211h706l-17 -60h-692q0 -30 2 -60h674l-17 -60h-652q17 -158 83 -298q74 -157 193 -236q102 -68 216 -69q186 3 256 91q74 91 74 185h48v-143q0 -70 -111 -127q-105 -54 -267 -56q-181 0 -325.5 98t-223.5 274q-62 135 -76 281h-108z" />
<glyph unicode="&#x2122;" horiz-adv-x="1497" />
<glyph unicode="&#x2202;" horiz-adv-x="960" d="M50 477q0 131 58 251t161 185t211 65q109 0 212 -65q29 -18 54 -41q-84 235 -233.5 377t-326.5 155v55q306 0 515 -285t209 -697q0 -132 -56.5 -251t-159 -185t-214.5 -66t-214.5 66t-159 185t-56.5 251zM205 537q0 -41 5 -79q14 -122 61.5 -230t118.5 -165 q64 -53 128 -53q6 0 13 1q70 5 127.5 70.5t80.5 179.5q16 73 16 149q0 42 -5 85q-14 122 -62.5 231.5t-119.5 165.5q-65 50 -128 50h-11q-68 -5 -126 -69.5t-82 -178.5q-16 -84 -16 -157z" />
<glyph unicode="&#x2206;" horiz-adv-x="1167" d="M50 0l541 1434l526 -1434h-1067zM152 123h801l-395 1072z" />
<glyph unicode="&#x220f;" horiz-adv-x="1519" d="M50 -367h96q103 0 103 235v1281q0 235 -103 235h-96v50h1419v-50h-97q-102 0 -102 -235v-1281q0 -235 102 -235h97v-50h-560v50h96q103 0 103 235v1281q0 235 -103 235h-492q-102 0 -102 -235v-1281q0 -235 102 -235h97v-51h-560v51z" />
<glyph unicode="&#x2211;" horiz-adv-x="1124" d="M50 -366q62 0 106 53l663 781l-663 859q-44 57 -106 57v50h921l103 -232h-49q-59 182 -189 182h-485l638 -836l-788 -914h635q130 0 189 182h49l-103 -232h-921v50z" />
<glyph unicode="&#x221a;" horiz-adv-x="1137" d="M50 359l74 35l85 -185l728 1470h150v-60h-72l-801 -1619z" />
<glyph unicode="&#x221e;" horiz-adv-x="985" d="M50 717q0 76 25.5 149t73.5 114t100 41t99 -40t74 -112q7 -21 12 -42q9 35 21 69q34 88 95 137t128 49t128 -48t95 -135t34 -182t-34 -182t-95 -135t-128 -48t-128 49t-95 136q-12 35 -21 70q-5 -21 -12 -41q-27 -73 -74 -113t-99 -40t-100 41t-73.5 113.5t-25.5 149.5z M64 681q2 -48 27.5 -89t71.5 -58q29 -11 61 -11q16 0 33 3q47 10 90.5 43.5t75.5 185.5q-15 103 -74 133q-46 22 -84 22q-12 0 -23 -2q-49 -10 -92.5 -44.5t-65.5 -84.5q-20 -46 -20 -90v-8zM450 687q12 -96 94 -153q69 -48 123 -48q11 0 21 2q62 12 117.5 52t84.5 101 q26 54 26 108v11q-2 60 -35.5 108.5t-91.5 68.5q-37 13 -76 13q-22 0 -44 -4q-67 -9 -127 -62t-92 -197z" />
<glyph unicode="&#x222b;" horiz-adv-x="897" d="M50 -93h36q1 -43 34.5 -64.5t63.5 -21.5h1q82 0 115 162q32 162 40 316l70 734l8 62q27 238 135 429.5t234 191.5q60 0 60 -29v-159h-36q-1 43 -35 64.5t-63 21.5q-71 0 -116 -155.5t-49 -363.5l-73 -767q-20 -231 -130.5 -420t-234.5 -189q-60 0 -60 29v159z" />
<glyph unicode="&#x2248;" horiz-adv-x="929" d="M50 383v156q64 73 123 99t114 26q64 0 181.5 -49.5t172.5 -49.5q52 0 108.5 28t129.5 112v-156q-63 -72 -122 -97.5t-116 -25.5q-60 0 -177.5 48.5t-176.5 48.5q-51 0 -107.5 -28t-129.5 -112zM50 731v156q64 73 123 99t114 26q64 0 181.5 -49.5t172.5 -49.5 q52 0 108.5 28t129.5 112v-156q-63 -72 -122 -97.5t-116 -25.5q-60 0 -177.5 48.5t-176.5 48.5q-51 0 -107.5 -28t-129.5 -112z" />
<glyph unicode="&#x2264;" horiz-adv-x="940" d="M50 1v140h839l1 -1v-139h-840zM50 674v83l840 484v-167l-625 -359l625 -355v-167z" />
<glyph unicode="&#x2265;" horiz-adv-x="940" d="M50 2v140h839l1 -1v-139h-840zM50 193v167l625 355l-625 359v167l840 -484v-83z" />
<glyph unicode="&#x25fc;" horiz-adv-x="1455" d="M0 0v1455h1455v-1455h-1455z" />
</font>
</defs>
</svg>
