<svg xmlns="http://www.w3.org/2000/svg" viewBox="0 0 43 84" width="24" height="24">
    <path d="M43 42c-0.6-9.6-5-17.1-13.1-22.5 -4.1-2.7-8-5.5-12-8.3C12.7 7.5 7.5 3.7 2.3 0c-0.5 0.3-1 0.6-1.6 0.9 -0.2 1.8-0.7 3.6-0.7 5.3C0.3 20.6 1.1 34.9 0.9 49.2 0.7 60 2.1 70.3 6.4 80.2c2 4.7 4.2 5.1 7.4 1.1 3.1-3.8 5.8-7.8 9-11.5 4.5-5.2 9.4-9.9 13.8-15.2C39.7 51 43.3 47.3 43 42zM1.3 3.1C1.7 2.8 2.1 2.6 2.5 2.3c3.2 1.9 6.6 3.7 9.7 5.8 5.6 3.9 11 8.1 16.4 12.2 1.9 1.4 3.7 2.9 5.5 4.5 3.5 3.1 4.1 7.3 1.4 11 -8.4 11.6-17.8 22.5-28.8 31.7 -0.6 0.5-1.5 0.8-3.4 1.9C1.2 46.7 3.5 24.8 1.3 3.1zM8.3 81c-2.9-4.7-3.6-9.9-1.5-11.4 1.6 4 3.1 8 5.2 13.2C10.3 81.9 8.8 81.8 8.3 81zM12.9 79.6c-4.4-5.9-5.4-11.1-2.4-13.3C15 71.2 16.1 77 12.9 79.6zM16.6 74.9c-1.5-3.2-3.4-5.8-4-8.8 -0.3-1.5 1.6-3.5 2.7-5.6C20.9 67.8 21.1 69.9 16.6 74.9zM22.1 68.5c-5.6-6.2-5.7-9.3-0.4-12.4 1.4 2.6 2.8 5.1 4.2 7.7C24.5 65.5 23.3 67 22.1 68.5zM27.8 62.4c-5.4-4.3-6-7.4-2.3-11.3 1.6 2.8 3.2 5.5 5 8.4C29.6 60.5 28.7 61.4 27.8 62.4zM31.5 58.1c-5.9-7.6-5.9-8-2.1-11.5C35 52.3 35.5 55 31.5 58.1zM35.8 53c-5.9-7.1-6.1-7.8-2.7-11.5C37.6 47 38.4 50.5 35.8 53zM39 48.4c-4.9-6-5.3-8.4-1.9-11.6C37.6 40.8 43.5 43.5 39 48.4zM40.4 41.4c-1.1-2.7-2.2-5.4-3.3-8.2 0.6-0.2 1.3-0.4 1.9-0.6 0.9 2.8 1.8 5.5 2.7 8.3C41.3 41.1 40.8 41.3 40.4 41.4zM31.7 38.3c1.1-2 3.1-3.9 3.1-5.9 0-1.9-2-3.7-3.2-5.6 -0.3 0.2-0.6 0.4-0.9 0.5 2.7 5.6 2.7 5.6-0.2 10.2C31 37.8 31.4 38.1 31.7 38.3zM10.4 60.2c-0.3-0.3-0.6-0.5-0.9-0.8 -0.9 0.8-1.8 1.6-2.8 2.5 -0.3-1.2-0.5-2.2-0.8-3.1 -0.4 0.1-0.7 0.1-1.1 0.2l0.9 5.2c0.4 0.1 0.8 0.1 1.2 0.2C8 63 9.2 61.6 10.4 60.2zM5.4 10h3c0.1-0.3 0.2-0.5 0.2-0.8 -1.3-0.7-2.6-1.3-4.4-2.3v7c0.3 0 0.5 0 0.8 0C5.2 12.6 5.3 11.3 5.4 10z"/>
</svg>