<svg xmlns="http://www.w3.org/2000/svg" viewBox="0 0 46.5 83.5" width="24" height="24">
    <path d="M36.6 33.1c0 0 0 0.1 0.1 0.1 0-0.1 0-0.1 0-0.2C36.6 33.1 36.6 33.1 36.6 33.1zM36.4 28.3c0 0.1 0.1 0.1 0.1 0.2 0-0.1 0-0.2 0-0.3C36.4 28.3 36.4 28.3 36.4 28.3zM46.3 61.6c-1-15.4-2.3-30.8-3.6-46.2C42.2 10.1 41.6 4.6 36.8 1.1c-1.3-0.9-4.1-1.5-4.9-0.8 -2.9 2.6-5.2 5.8-7.8 8.8 3-2.6 5.9-5.3 9.2-8.2 0.5 1.1 1.2 2 1.4 3 0.6 3.6 1.2 7.1 1.3 10.7 0.2 4.5 0.3 9.1 0.5 13.6l1.3-0.7c1.6 3.3 6.1 4.8 4.4 9.9 -1.9-3-3.8-5.9-5.6-8.9 0.1 1.5 0.1 3 0.2 4.5 0.4-0.2 0.9-0.4 1.3-0.6 2.2 3.8 4.5 7.7 6.7 11.5 -0.3 0.2-0.6 0.5-1 0.7 -0.6-0.2-1.1-0.5-1.7-0.7 -1.2-2.1-2.4-4.1-3.5-6.3 -0.7-1.4-1.3-3-1.9-4.5 0.3 9.4 0.6 18.8 0.8 28.2 0 1.4-0.5 2.8-0.8 4.2 -1.4-0.3-3.1-0.3-4.1-1 -4.2-3-8.2-6.4-12.4-9.5 -5.5-4.1-11.1-8-16.7-12 -2.1-1.5-2.8-3.3-1.7-5.4 1.8-3.4 3.9-6.6 5.9-9.9 0.9-1.5 1.6-3 2.4-4.4 -2.4 3.1-5.1 6.2-7.3 9.4 -2.8 4.2-3.7 8.6-1 13.3 2.3 4 4.3 8.1 6.6 12.1 0.5 0.9 1.3 1.9 2.2 2.5C17.8 66 25.2 71.4 32.8 76.5c3.8 2.6 8.1 4.5 12.5 7 0.4-1.9 0.7-2.7 0.8-3.5C46.3 73.8 46.7 67.7 46.3 61.6zM35.7 4.6c0.5-0.3 0.9-0.6 1.4-0.9 1.4 2.1 2.7 4.2 4.1 6.3l-1.4 0.9C38.4 8.9 37 6.7 35.7 4.6zM38 9.7c1.4 2.6 2.8 5.2 4.2 7.8 -0.5 0.3-1.1 0.6-1.6 0.9 -1.5-2.5-2.9-5.1-4.4-7.6C36.8 10.4 37.4 10 38 9.7zM36.4 16.4c0.5-0.3 0.9-0.5 1.4-0.8l4.4 7.1c-0.5 0.3-1 0.6-1.4 0.9L36.4 16.4zM41.7 30.8c-1.6-3.1-5.7-4.7-4.6-9.3 0.4-0.2 0.7-0.3 1.1-0.5 1.6 3 3.2 6 4.9 9C42.5 30.3 42.1 30.6 41.7 30.8zM38 38.7c1.5 1.9 2.8 3.5 4.1 5.2 0 0 0 0-0.1 0 1.3 3.1 3.8 5.8 2.4 9.7C40.1 49 37.3 42.9 38 38.7zM11.7 57.8c-0.3 0.5-0.5 1-1 2 -2.8-5-5.3-9.7-7.9-14.4l1.3-0.9c1.5 2.1 3.1 4.2 4.5 6.4 1.3 2.2 2.2 4.6 3.3 6.9 -0.8-2.7-1.6-5.3-2.5-8.2 6.1 2.3 7.3 4.2 9.5 15.2C15.4 63.7 14.4 62.8 11.7 57.8zM16.7 54.8c8 2.9 6.2 10.1 8.7 15C18.8 67.2 19.3 60.7 16.7 54.8zM31.7 69.6c0.2 1.4 0.3 2.9 0.5 4.3 -4.5-1-7.3-5.7-7.8-13.3 0.3-0.2 0.6-0.4 0.9-0.6 2.2 3.2 4.3 6.5 6.5 9.7 -0.2-1.2-0.4-2.4-0.6-3.8 7.2 1.3 6.5 7.9 9.1 12.6C35.5 77.2 35.5 77.2 31.7 69.6zM44.6 81.1c-4.3-1.2-4.1-5.2-5.2-8 -1.1-2.9-1.1-6.1-1.2-9.3C42.4 67.4 45.8 75 44.6 81.1zM44.9 69.4c-3.5-4.1-6.3-8.5-6.7-14.4 1.1 0.7 1.8 1.3 2.5 1.8 1.2 2.6 2.5 5.1 3.5 7.7C44.8 65.9 45 67.6 44.9 69.4zM40.7 56.8c0 0 0.1 0 0.1 0.1 -1.1-3-2.2-6-3.4-9 0.5-0.2 0.9-0.4 1.4-0.6 2.6 4.6 6.5 8.7 6.3 15.5C43.4 60.3 42.1 58.6 40.7 56.8zM7.6 30.6c-1.2 2.3-2.8 4.5-3.3 6.9 -0.2 0.9 2.3 2.3 3.6 3.5 0.5-0.2 1.1-0.4 1.6-0.6 -7.9-3.1-2.1-6.1-0.4-9.2C8.6 30.9 8.1 30.7 7.6 30.6zM29.8 60.2c1.5 0.4 3.1 0.8 4.6 1.2v-5.7c-0.4 0.1-0.9 0.1-1.3 0.2 0.2 1.4 0.3 2.9 0.6 4.7 -1.4-0.7-2.4-1.2-3.3-1.6C30.2 59.4 30 59.8 29.8 60.2z"></path>
</svg>