<svg xmlns="http://www.w3.org/2000/svg" viewBox="0 0 101.7 58.1" width="154" height="67">
    <path d="M67.6 48.6c5.9-0.3 11.9-1 17.7-2.1 5.5-1 6.8-2.8 7.4-8.1 0.3-2.7 0.3-5.4 0.3-8 -0.2-6.2-0.4-12.3-0.8-18.5 -0.3-4.2-2.9-5.8-7-6.6C68.8 2 52.3 2.3 35.9 2.6c-9.4 0.2-18.8 2.8-28.3 4 -3.6 0.4-4.2 2-4.1 5 0.2 3.7 0 7.5 0 11.2l-1.2 0.1c0.8 6.2 1.3 12.5 2.4 18.7 0.4 2 2.3 5 3.9 5.3 7.7 1.4 15.6 2.7 23.4 2.8C44 49.9 55.8 49.2 67.6 48.6zM90.3 34.9c1.9 6.4 0.7 7.5-6.1 8.7C88.6 42.3 91.1 39.7 90.3 34.9zM6.6 15.6c-2.2-4.9-1.4-6.6 3.9-7.5C7.2 9.6 5.5 12 6.6 15.6zM24.6 57.6c0 0 0 0 0 0 0 0 0 0 0 0C24.5 57.6 24.5 57.6 24.6 57.6zM73.4 54.2c0 0.1 0.1 0.1 0.1 0.1 0 0 0.1 0 0.1 0C73.5 54.2 73.5 54.2 73.4 54.2zM101.4 27.3l0.3-0.2c-0.1-0.2-0.2-0.3-0.2-0.5C101.5 26.9 101.5 27.1 101.4 27.3zM99.1 27.1c-0.8-1.8-1.8-3.7-2.4-5.6 -0.4-1.2 0-2.2 1.5-1.2 1.1 2.1 2.2 4.3 3.3 6.4 0.1-3.7 0.2-7.3 0.3-11 0-4.6-1.9-8.6-6.6-10.7 0 0 0 0.1 0 0.1 -1-0.5-2-1.2-3.1-1.4C76.7 0.8 61.2-0.7 45.5 0.3 40.1 0.7 34.5 0 29.1 0.6 20.7 1.5 12.4 3.2 4.1 4.4c-2.8 0.4-3.8 1.6-3.7 4.4 0.1 4.8 0.1 9.7-0.2 14.6C-0.6 34.2 1 44.6 6.3 54.1c0.7 1.3 2.8 2.3 4.5 2.6 3 0.6 6.2 0.6 9.3 0.7 1.5 0 3 0.1 4.4 0.2 -2.7-1.3-4.9-2.3-7.1-3.3 -0.1-0.8-0.3-1.6-0.5-2.3 3.3-1.4 5.5 0.4 7.5 2.5 0 0 0 0 0 0 0 0.7 0.1 1.4 0.2 3.2 7.1 0.3 14.2 0.6 21.2 0.5 8.7-0.1 17.4-0.8 26-1.5 7.8-0.7 15.6-1.7 23.3-2.9 3.1-0.5 5.4-2.7 5.5-6.2 0.3-6.7 0.6-13.4 0.8-20 -0.2 0.2-0.4 0.3-0.6 0.5C100.2 27.6 99.7 27.3 99.1 27.1zM100.6 22c-0.8-0.6-1.5-1.1-2.3-1.7 -0.9-2.2-1.8-4.3-2.8-6.5 0.2-0.1 0.5-0.3 0.7-0.4 0.9 0.8 1.8 1.5 2.6 2.3 0.9 1.9 1.7 3.8 2.6 5.8C101.2 21.7 100.9 21.8 100.6 22zM95.2 5.2c0.3 0.7 0.7 1.3 1.1 1.9 1.7 2.7 3.5 5.5 5.2 8.2 -0.3 0.3-0.7 0.5-1 0.8 -0.5-0.1-1-0.3-1.5-0.4 -1.6-3-3.2-6-4.7-9.1C94.1 6.4 94.8 5.7 95.2 5.2zM6 50.3c0.4-0.4 0.9-0.7 1.3-1.1 1.4 1.8 2.8 3.6 4.7 6C7.4 55.3 7.1 52.4 6 50.3zM17.3 54.2c-2.8 2.7-4.6 1.8-6.5-3C14.3 49.6 15.5 52.5 17.3 54.2zM7.1 48.2c-1.7-0.3-3.7-3.5-4.1-5.6 -1.2-6.6-1.7-13.3-2.5-19.9l1.2-0.1c0-4 0.2-8 0-12C1.5 7.4 2.1 5.7 5.9 5.3c9.9-1.2 19.7-4.1 29.5-4.2 17.1-0.3 34.4-0.6 51.4 2.9 4.3 0.9 7 2.6 7.3 7 0.4 6.6 0.7 13.1 0.9 19.7 0.1 2.9 0 5.7-0.3 8.6 -0.6 5.7-2 7.6-7.7 8.7 -6.1 1.2-12.3 1.9-18.5 2.3 -12.3 0.6-24.7 1.3-37 1.1C23.4 51.1 15.2 49.7 7.1 48.2zM24.5 54.5c0.3-0.7 0.8-2.1 1-2.1 1.6 0.2 3.3 0.5 4.7 1.3 0.7 0.4 0.9 1.9 1.3 2.8C28.2 58.4 26.4 56.3 24.5 54.5zM31.5 52.8c5-1.3 5.7-0.8 6.4 4.5C33.9 58 31.8 56.6 31.5 52.8zM43.9 54.3c0.9 3.3-1.4 3.2-3.8 3.3 -0.9-1.8-1.8-3.6-2.8-5.6 3.1-0.8 5.3-0.3 6.7 2.4 0-0.7 0.1-1.4 0.1-2.2 5.2-0.6 5.2-0.6 6.5 3.6C47.9 56.8 45.4 57.8 43.9 54.3zM50.8 52.3c3.5-1.5 4.8 0.2 5.3 3.1C52.2 56.7 52.2 56.7 50.8 52.3zM62 53.7c-1 0.6-2.3 2-3 1.8 -1.2-0.5-2.1-1.9-3.5-3.3 3.1-0.8 5.4-1.5 6.5 1.6C62 53.7 62 53.7 62 53.7zM66 55.9c-1.3-0.7-2.6-1.4-4-2.2 0.5-0.9 1-1.8 1.5-2.7 1.2 1.1 2.4 2.2 3.6 3.3L66 55.9zM73.5 54.3c-5.2 1.5-5.5 1.4-6.3-2.6 0.3-0.4 0.5-0.7 0.8-1.1 1.6 1 3.1 2 5.4 3.5 -0.4-0.7-0.6-1.5-0.8-2.6 3.4-1.4 4.9-0.5 5 3.1C75.5 55.8 74.2 55.5 73.5 54.3zM77.9 50.9c3.8-1.6 4.2-1.3 4.9 3.2C79.5 55.6 78.1 54.2 77.9 50.9zM83 50.4c3.5-1.7 4.4 0.3 5 3.3C84.3 55.3 83.7 53 83 50.4zM87.6 49.5c1.2-0.5 2.2-1 3.4-1.6 0.6 1.7 1 3.2 1.5 4.6C88.6 54.8 88.7 51.7 87.6 49.5zM93.6 51.4c-1-1.9-2.8-4.3 2.2-6 0.2 2.4 0.3 4.4 0.5 6.4C95.3 51.7 93.8 51.9 93.6 51.4zM98.7 49.2c-0.4 0.1-0.7 0.1-1.1 0.2 -0.7-2.8-1.4-5.6-2.3-9.1C99.8 43 100.4 45.1 98.7 49.2zM99.5 38.2l-4-7.9c0.3-0.2 0.6-0.4 0.9-0.6 0.5 0.3 1.1 0.6 1.6 0.9 1 2.3 1.9 4.7 2.9 7C100.4 37.8 100 38 99.5 38.2zM100.1 32.4c-0.7-0.6-1.4-1.2-2.1-1.9 -0.6-1.7-1.2-3.4-2.2-6.2 1.6 1.4 2.4 2 3.1 2.7 0.7 1.6 1.3 3.3 2 4.9C100.7 32.1 100.4 32.3 100.1 32.4z"></path>
</svg>