<svg xmlns="http://www.w3.org/2000/svg" viewBox="0 0 47 51.4" width="24" height="24">
    <path d="M44.1 20.1c4.3-3.3 2.4-7.7 2.4-11.7 0-0.3-0.3-0.7-0.5-1C43.1 4.9 40.2 2.4 37.3 0c-4.6 3.7-8.9 7.2-13.1 10.6l-9.3-9.3C9.4 5.2 4.6 11.5 2.7 17.2c-0.2 0.5 0.2 1.5 0.6 1.9 1.7 1.7 3.4 3.4 5.2 5 1.7 1.5 1.6 2.8 0.1 4.4 -2 2.1-4.2 4.1-5.6 6.6 -4.4 7.7-4 9.1 2.4 15.2 1.8 1.7 2.9 1.5 4.5-0.1 4.1-4 8.3-7.7 12.7-11.7 3.7 3.4 7.3 6.7 11 10 2.1-2.3 4.1-4.6 6.1-6.8 1-1 2.6-1.6 3.2-2.7 2.5-4.3 1.7-7.9-2.2-11.1 -0.7-0.6-1.3-1.3-2.2-2.2C40.4 23.7 42.1 21.6 44.1 20.1zM42.9 20.1c-0.4 0-0.7-0.1-1.1-0.1 0.3-2.7 0.5-5.3 0.8-8l1.1 0.1C43.5 14.8 43.2 17.4 42.9 20.1zM45.9 10l-0.4 7.4c-0.3 0-0.7 0-1-0.1 0.1-2.5 0.2-4.9 0.2-7.4C45.1 10 45.5 10 45.9 10zM7.4 10.5c1.9 3.7-1.3 5.7-1.4 8.5C3.8 17.5 4.3 14.7 7.4 10.5zM8.5 21.7c-2.3-2-1.7-4.9 1.6-8.6C12.2 16.8 9.2 18.9 8.5 21.7zM12.3 16.5c1.8 1.7 1.3 4.1-1.8 7.6C9 22.4 9.5 20.4 12.3 16.5zM3.2 36.3c1.8 1.7 1.1 4.9-1.8 8.7C0.2 41.4 3.2 39.3 3.2 36.3zM4.5 47.9c-3-3.8 0.9-6.3 0.9-9.5C8.1 39.7 7.7 42.7 4.5 47.9zM8.1 50.4c-2.8-1.8-2.7-2.6 0.5-8.9C10.5 43.2 10.5 44 8.1 50.4zM11.1 47.5c-0.4-0.1-0.7-0.3-1.1-0.4 0.9-2.6 1.8-5.2 2.7-7.8 0.3 0.1 0.7 0.2 1 0.3C13.1 42.3 13.6 45.4 11.1 47.5zM17.4 36c-0.7 3-0.4 6.1-2.9 8.6C13.9 40.1 15 36.9 17.4 36zM18.6 41.2c-0.4-0.1-0.8-0.2-1.1-0.3 1.3-2.7-0.2-6.1 2.3-8.4 0.3 0.1 0.6 0.2 0.9 0.2C19.9 35.5 19.2 38.4 18.6 41.2zM20.6 38.1c0.7-3.9 0.1-7.7 4-9.8C25.1 32 24.5 35.4 20.6 38.1zM26.2 30.6c2.5 3-0.7 5.6-0.7 8.4C23.6 36 25.5 33.3 26.2 30.6zM28.8 33c1.9 1.6 1.7 4.7-0.6 8.6C26.4 40.1 26.6 36.5 28.8 33zM31.4 35.8c1.8 1.5 1.8 1.5-0.4 8C29.5 42 29.7 39.8 31.4 35.8zM35 42.1c-0.4 1.4-0.8 2.9-1.2 4.3 -2.2-1.1-2.2-1.1-0.4-7.6C35.7 39.6 35.7 39.6 35 42.1zM36.5 43.9c-0.3-0.1-0.7-0.2-1-0.3 0.7-2.3 1.4-4.6 2.1-6.9 0.4 0.1 0.7 0.2 1.1 0.3C37.9 39.2 37.2 41.6 36.5 43.9zM40.6 29c1.4 1.3 1.7 2.4 0.1 3.8 -6.9 6.1-4.7 5.7-10.2 0 -1.7-1.7-3.9-3.1-5.9-4.6 0 0 0 0 0.1 0 0 0 0 0-0.1 0 0 0 0 0 0 0 0 0 0 0 0 0 -1.1 0.5-2.5 0.8-3.4 1.6 -2.9 2.8-5.6 5.9-8.4 8.9 -0.7 0.8-1.5 1.5-2.3 2.4l-6.4-6.4c4.3-4.8 8.7-9.8 13.4-15.1 -2.6-2.6-5.2-5.4-8-7.9C8.1 10.3 7.7 9.2 9.4 7.7c1-0.9 1.9-1.9 2.9-2.8 2.7-2.6 2.8-2.6 5.4 0.2 2.2 2.3 4.1 4.8 6.1 7.1 4-3.2 8-6.3 11.9-9.6 1.5-1.3 2.4-1 3.6 0.3 0.9 1 1.9 1.9 3 2.8 3 2.4 3.1 2.4 0.4 5.2 -3.4 3.4-6.8 6.8-10.1 10.1C35.2 23.7 37.8 26.4 40.6 29zM39 23.3c0.4-3.1-0.7-6.6 2.1-9.2C40.8 17.2 41.5 20.6 39 23.3z"></path>
</svg>