<svg xmlns="http://www.w3.org/2000/svg" class="icon-play" viewBox="0 0 53.9 57.4" width="40" height="40">
<path d="M5.2 19.2c3.3-3.6 7-7.6 10.6-11.5C10.9 9.4 5.3 15.8 5.2 19.2zM27.4 48.3c5.1 1.6 9.3 0.2 12.2-3.2 3.2-3.8 5-9.7 3.5-12.5C41.7 41.3 38.8 48.5 27.4 48.3zM52.9 19.1C50.6 9.9 44 5.1 36.2 1.5c-5.2-2.3-10.5-1.7-16.1-0.3C8.3 4.3-0.3 15 0 27.3 0.1 34.8 2.7 41.7 6.6 48c1.3 2.1 2.9 4.6 4.9 5.4 5.2 2.2 10.5 4.5 16.6 3.8 8.4-1 15.7-3.5 20.3-11.3C53.3 37.5 55.4 28.9 52.9 19.1zM24.9 56.4l-4.9-2.3 0.5-1.2c2.2-0.2 4.6-1 5.2 2.3C25.4 55.6 25.1 56 24.9 56.4zM37.3 53.7c-1.8 0.5-3.9 2.8-5.7-2.2 2.5 0.4 4.2 0.6 5.9 0.9C37.5 52.8 37.4 53.2 37.3 53.7zM39 47.6c-3.5 2.8-8.8 3.3-13.2 4.8 -0.1-0.4-0.2-0.7-0.3-1.1 -5.3 0.6-10-1.2-14.7-3.5 -6-3-7.9-8.7-8.9-14.4C-1.6 13.9 10.2 3 27.7 1.2c7.3-0.7 12 4.2 15.8 9.5C52.1 22.8 50.4 38.4 39 47.6zM31.6 24.8l-7-4.2c-1.5-0.9-3.4 0.2-3.4 1.9v8.3c0 1.7 1.9 2.8 3.4 1.9l7-4.1C33 27.8 33 25.6 31.6 24.8z"></path>
</svg>