<svg xmlns="http://www.w3.org/2000/svg" viewBox="0 0 40.6 82.6" width="24" height="24">
    <path d="M27.1 70c-1.2 1.7-2.6 3.1-3.9 4.7 -0.2-4.2-0.5-8.5-1.4-12.6 -0.5-2.3-3.9-1.7-4 0.5 -0.1 4.2-0.5 8.6-0.2 12.9 -0.1-0.1-0.1-0.2-0.2-0.3 -1.6-2.1-3.5-5.3-6.1-6.3 -2.7-1-4.5 3.4-2 4.7 -0.7-0.4 0 0 0.2 0.2 0.4 0.4 0.7 0.7 1.1 1.1 0.9 0.9 1.7 1.8 2.5 2.8 1.6 2 3.3 4.2 5.9 4.8 2.4 0.5 4.2-0.6 5.4-2.6 1.6-2.7 3.5-5.7 4.7-8.6C29.9 69.8 28 68.6 27.1 70zM22.4 14.7c0-0.2 0-0.2 0-0.2 -0.3-1.3-1.6-2.1-3-1.8 -2.8 0.6-1.9 4.6-1.8 6.6 0.1 1.9-0.1 4.7 1.2 6.2 1 1.3 3.3-0.1 2.7-1.6 0 0.1 0.1 0.2 0.1 0.2 0-0.1 0-0.2 0-0.4 0.1-0.4 0.1-0.8 0.1-1.1 0.1-1.1 0.2-2.1 0.3-3.2 0.1-1 0.1-2 0.3-2.9 0 0 0.1-0.2 0.2-0.5 0.1-0.4 0.1-0.6 0-1C22.5 14.9 22.5 14.8 22.4 14.7zM40.5 26.4c-0.3-10-1.6-20.4-11.9-24.8C18.3-2.8 6.2 2.1 1.7 12.4c-0.4 0.8-0.4 1.6-0.1 2.2 -0.2 0.1-0.3 0.4-0.3 0.6 -0.7 6.7-1 13.4-1.2 20.1 -0.1 4.8-0.7 10.5 2.3 14.6 2.9 4 8.1 4.8 12.7 5.4 5.1 0.6 11.1 1.2 15.9-1 4.4-2 6.1-6.3 7.3-10.7C40 38 40.7 32.3 40.5 26.4zM34.7 40.8c-0.6 2.3-1.2 4.8-2.5 6.9 -1.7 2.6-4.3 3.5-7.3 3.7 -5.1 0.4-12.2 0.3-16.8-2.2C3.1 46.4 4.3 38.9 4.1 34.1 3.9 28.1 3.7 22.1 3.1 16.1c1.2 0.5 2.7 0.1 3.4-1.7 3.9-9.9 17.4-13.4 25.3-5.7 3.8 3.7 4 9.5 4.3 14.4C36.5 29.1 36.3 35 34.7 40.8z"/>
</svg>