<?xml version="1.0" standalone="no"?>
<!DOCTYPE svg PUBLIC "-//W3C//DTD SVG 1.1//EN" "http://www.w3.org/Graphics/SVG/1.1/DTD/svg11.dtd" >
<svg xmlns="http://www.w3.org/2000/svg" xmlns:xlink="http://www.w3.org/1999/xlink" version="1.1">
<metadata></metadata>
<defs>
<font id="oswaldregular" horiz-adv-x="868" >
<font-face units-per-em="2048" ascent="1638" descent="-410" />
<missing-glyph horiz-adv-x="468" />
<glyph unicode="&#xfb01;" horiz-adv-x="1005" d="M39 1022v162h141v61q0 184 62.5 268t218.5 84q61 0 119 -8v-164q-57 8 -76 9q-61 0 -83 -34t-22 -118v-98h484v-1184h-219v1022h-265v-1022h-219v1022h-141zM684 1360v229h201v-229h-201z" />
<glyph unicode="&#xfb02;" horiz-adv-x="1054" d="M39 1022v162h141v61q0 117 20.5 198t103.5 139t255 58q147 0 377 -51v-1589h-219v1468q-66 8 -125 9q-90 0 -131 -28t-51.5 -72t-10.5 -128v-65h181v-162h-181v-1022h-219v1022h-141z" />
<glyph horiz-adv-x="0" />
<glyph unicode="&#xd;" horiz-adv-x="468" />
<glyph horiz-adv-x="0" />
<glyph horiz-adv-x="0" />
<glyph unicode=" "  horiz-adv-x="468" />
<glyph unicode="&#x09;" horiz-adv-x="468" />
<glyph unicode="&#xa0;" horiz-adv-x="468" />
<glyph unicode="!" horiz-adv-x="425" d="M102 0v225h222v-225h-222zM102 1659h222l-74 -1305h-78z" />
<glyph unicode="&#x22;" horiz-adv-x="778" d="M174 1151v508h199l-80 -508h-119zM479 1151v508h199l-80 -508h-119z" />
<glyph unicode="#" horiz-adv-x="995" d="M66 594v164h112l29 198h-137v166h159l78 537h219l-77 -537h184l78 537h217l-78 -537h84v-166h-107l-30 -198h131v-164h-154l-86 -594h-219l86 594h-182l-84 -594h-219l84 594h-88zM395 758h185l28 198h-182z" />
<glyph unicode="$" horiz-adv-x="1005" d="M80 465l205 55q10 -160 62 -258t173 -98q90 0 136 50t46 144q0 100 -43 167t-137 153l-278 246q-84 76 -122 160.5t-38 205.5q0 176 99.5 276.5t273.5 106.5v137h71v-137q170 -12 257 -116.5t106 -311.5l-197 -53q-10 141 -53 222t-152 81q-199 0 -198 -182 q0 -74 24.5 -122t83.5 -104l281 -245q109 -100 173.5 -212t64.5 -253q0 -168 -93.5 -271.5t-249.5 -119.5v-144h-69v142q-203 4 -309.5 132t-116.5 349z" />
<glyph unicode="%" horiz-adv-x="1824" d="M74 1163v129q0 188 75.5 283.5t245.5 95.5t246 -92t76 -276v-146q0 -184 -77 -281.5t-245 -97.5q-166 0 -243.5 100.5t-77.5 284.5zM274 1155q0 -98 26 -154.5t95 -56.5q72 0 97.5 57.5t25.5 155.5v146q0 98 -24.5 150t-98.5 52t-97.5 -53t-23.5 -152v-145zM592 0 l457 1661h188l-455 -1661h-190zM1110 375v129q0 186 75 282.5t245 96.5t245.5 -92.5t75.5 -278.5v-143q0 -186 -77 -282.5t-244 -96.5q-320 0 -320 385zM1309 367q0 -98 25.5 -154.5t95.5 -56.5q71 0 96.5 56t25.5 155v147q0 98 -24.5 150.5t-97.5 52.5q-74 0 -97.5 -53.5 t-23.5 -151.5v-145z" />
<glyph unicode="&#x26;" horiz-adv-x="1241" d="M119 354q0 145 64.5 261t176.5 219l-45 84q-66 119 -100.5 205.5t-34.5 183.5q0 166 95.5 266t259.5 100q154 0 253 -83t99 -224q0 -145 -89 -279.5t-223 -263.5l250 -393q59 115 82 332h217q0 -115 -48 -247t-111 -222q29 -37 71.5 -60.5t89.5 -23.5v-225h-28 q-55 0 -101.5 24.5t-75 50t-87.5 84.5q-59 -74 -149.5 -117.5t-207.5 -43.5q-168 0 -263 103t-95 269zM338 354q0 -82 32.5 -136t106.5 -54q125 0 223 123l-254 391q-49 -63 -78.5 -149.5t-29.5 -174.5zM399 1307q0 -86 27 -173t74 -192q69 82 118.5 198.5t49.5 225.5 q0 59 -36 93t-97 34q-70 0 -103 -54.5t-33 -131.5z" />
<glyph unicode="'" horiz-adv-x="749" d="M174 1151v508h199l-80 -508h-119z" />
<glyph unicode="(" horiz-adv-x="610" d="M150 637q0 330 21.5 538.5t108.5 353t269 144.5v-147q-86 -2 -127 -119t-51.5 -285t-10.5 -434v-145q0 -248 11.5 -412t52.5 -272.5t125 -110.5v-145q-182 2 -269 145t-108.5 352t-21.5 537z" />
<glyph unicode=")" horiz-adv-x="532" d="M59 -250q86 2 128 119t52.5 286t10.5 435v143q0 248 -11.5 412t-53.5 272.5t-126 110.5v145q184 0 271.5 -143.5t109 -352t21.5 -536.5q0 -330 -21.5 -538.5t-108.5 -353t-272 -146.5v147z" />
<glyph unicode="*" horiz-adv-x="815" d="M92 1358l53 139l232 -123l-25 283h166l-26 -283l233 123l51 -139l-241 -94l163 -226l-133 -77l-131 256l-133 -256l-129 77l162 228z" />
<glyph unicode="+" horiz-adv-x="849" d="M51 768v166h287v334h164v-334h297v-166h-297v-334h-164v334h-287z" />
<glyph unicode="," horiz-adv-x="382" d="M82 -174q55 18 87 64.5t32 109.5h-117v236h225v-232q0 -109 -47 -173t-145 -99z" />
<glyph unicode="-" horiz-adv-x="657" d="M100 535v165h457v-165h-457z" />
<glyph unicode="." horiz-adv-x="385" d="M100 0v244h219v-244h-219z" />
<glyph unicode="/" horiz-adv-x="755" d="M59 0l447 1659h190l-448 -1659h-189z" />
<glyph unicode="0" horiz-adv-x="1005" d="M92 471v715q0 227 101.5 357t310.5 130q207 0 308 -130t101 -357v-715q0 -225 -102 -357t-307 -132t-308.5 133t-103.5 356zM313 469q0 -307 191 -307q188 0 188 307v719q0 141 -40 224t-148 83q-109 0 -150 -83t-41 -224v-719z" />
<glyph unicode="1" horiz-adv-x="956" d="M166 1313v166q250 59 342 180h166v-1659h-219v1372q-4 -6 -124 -28.5t-165 -30.5z" />
<glyph unicode="2" horiz-adv-x="978" d="M84 0v156l422 657q31 49 41 61q72 115 104.5 191t32.5 182q0 119 -39 182.5t-127 63.5q-197 0 -196 -305v-55h-220v57q0 233 96.5 358t309.5 125q197 0 297 -111.5t100 -316.5q0 -100 -23.5 -179t-56 -136.5t-102.5 -163.5l-381 -582h524v-184h-782z" />
<glyph unicode="3" horiz-adv-x="956" d="M82 408v55h217v-37q4 -127 44 -194.5t144 -67.5q111 0 151 76.5t40 228.5q0 139 -51.5 218t-165.5 87q-8 2 -31 2v219h29q117 4 168 61.5t51 190.5q0 123 -41 185.5t-148 62.5q-106 0 -146 -67.5t-44 -198.5v-35h-217v55q0 203 103.5 313.5t303.5 110.5 q201 0 304.5 -111.5t103.5 -314.5q0 -145 -63.5 -237t-174.5 -125q113 -35 175.5 -141.5t62.5 -274.5q0 -231 -99.5 -359t-310.5 -128q-198 0 -301.5 111.5t-103.5 314.5z" />
<glyph unicode="4" horiz-adv-x="1005" d="M82 436v244l426 979h272v-1016h185v-207h-185v-436h-221v436h-477zM303 643h256v737z" />
<glyph unicode="5" horiz-adv-x="974" d="M96 465h219q0 -139 38 -223t149 -84q84 0 125 49t52 130t11 216q0 125 -13 199.5t-53 114.5t-120 40q-63 0 -111.5 -39t-73.5 -98h-186v889h715v-219h-516l-15 -459q88 92 240 92q190 0 271 -130t81 -361q0 -283 -92 -440.5t-319 -157.5q-215 0 -308.5 121.5t-93.5 359.5 z" />
<glyph unicode="6" horiz-adv-x="1001" d="M111 526v559q0 268 94 428t313 160q193 0 297.5 -104.5t108.5 -298.5l2 -25h-221q0 127 -41 187.5t-146 60.5q-188 0 -188 -354v-252q33 53 95 83.5t146 30.5q195 0 277 -123.5t82 -355.5q0 -244 -100.5 -392t-311.5 -148q-205 0 -306 150.5t-101 393.5zM330 475 q0 -141 44 -226t144 -85q103 0 147 84t44 221q0 125 -10.5 198.5t-51.5 121t-129 47.5q-63 0 -111.5 -33t-76.5 -80v-248z" />
<glyph unicode="7" horiz-adv-x="788" d="M55 1487v172h664v-107l-307 -1552h-211l299 1487h-445z" />
<glyph unicode="8" horiz-adv-x="978" d="M82 467q0 158 52 252t153 155q-184 123 -185 371q0 203 96.5 315.5t293.5 112.5q195 0 290 -112.5t95 -315.5q0 -133 -47.5 -222t-137.5 -149q100 -63 153.5 -157t53.5 -250q0 -233 -96 -359t-311 -126q-218 0 -314 124.5t-96 360.5zM291 463q0 -145 44 -226t157 -81 q110 0 153 80.5t43 226.5q0 133 -46 217t-150 86q-106 -2 -153.5 -86t-47.5 -217zM317 1257q0 -123 39 -201.5t136 -80.5q170 1 170 282q0 111 -40 178.5t-130 67.5t-132.5 -67.5t-42.5 -178.5z" />
<glyph unicode="9" horiz-adv-x="1001" d="M90 1135q0 244 100.5 391t311.5 147q205 0 306 -150.5t101 -392.5v-557q0 -268 -94 -429.5t-313 -161.5q-195 0 -299.5 106.5t-108.5 304.5v19h219q0 -127 42 -187.5t149 -60.5q184 0 184 354v252q-33 -53 -93 -84t-149 -31q-195 0 -275.5 124t-80.5 356zM311 1188 q0 -125 10.5 -199t51.5 -121t129 -47q120 0 186 115v246q0 311 -186 311q-102 0 -146.5 -85t-44.5 -220z" />
<glyph unicode=":" horiz-adv-x="403" d="M123 197v233h221v-233h-221zM123 850v233h221v-233h-221z" />
<glyph unicode=";" horiz-adv-x="440" d="M119 2q119 8 119 137h-117v234h227v-230q0 -113 -45 -173t-147 -64zM121 913v244h221v-244h-221z" />
<glyph unicode="&#x3c;" horiz-adv-x="763" d="M59 487v220l586 417v-221l-420 -305l420 -305v-219z" />
<glyph unicode="=" horiz-adv-x="849" d="M111 571v166h628v-166h-628zM111 934v168h628v-168h-628z" />
<glyph unicode="&#x3e;" horiz-adv-x="763" d="M119 74v219l422 307l-422 303v221l588 -415v-220z" />
<glyph unicode="?" horiz-adv-x="997" d="M111 1303q0 166 103 268t288 102q195 0 303 -110.5t108 -309.5q0 -131 -49 -240.5t-131 -200.5t-207 -198v-198h-194v254q180 156 273 291t93 299q0 100 -51 161.5t-145 61.5q-82 0 -130 -46t-48 -122q0 -37 14 -103l-205 -38q-23 63 -22 129zM322 0v225h219v-225h-219z " />
<glyph unicode="@" horiz-adv-x="1851" d="M121 578q0 358 116.5 599.5t324.5 360.5t485 121q236 0 397.5 -108.5t240 -288t78.5 -390.5q0 -182 -60.5 -336.5t-173 -244.5t-257.5 -90q-88 0 -144.5 51t-58.5 137q-18 -74 -65.5 -126t-129.5 -58l-28 -2q-133 0 -206 107.5t-73 260.5q0 156 62.5 311.5t174 255 t249.5 99.5q31 0 68.5 -15.5t64.5 -35.5l20 35h160l-117 -752q-6 -39 -6 -76q0 -35 11.5 -52t41.5 -17q86 0 156 71.5t111 192.5t41 266q0 176 -61.5 319.5t-189.5 228.5t-321 85q-213 0 -373.5 -110.5t-250 -314.5t-89.5 -476q0 -342 179.5 -516t482.5 -174q180 0 373 55 l39 -160q-227 -66 -430 -65q-246 0 -435.5 94t-298 284.5t-108.5 473.5zM772 569q0 -86 32 -142t91 -56q57 0 108.5 53t71.5 164l72 477q-31 10 -57 10q-82 0 -155 -68.5t-118 -185t-45 -252.5z" />
<glyph unicode="A" horiz-adv-x="1007" d="M39 0l352 1659h223l355 -1659h-219l-76 418h-338l-80 -418h-217zM367 584h276l-139 747z" />
<glyph unicode="B" horiz-adv-x="1073" d="M129 0v1659h381q225 0 333.5 -101.5t108.5 -314.5q0 -317 -237 -350q147 -35 214.5 -138.5t67.5 -281.5q0 -223 -105.5 -348t-320.5 -125h-442zM360 166h156q102 0 158.5 31.5t79 97t22.5 178.5q0 160 -65.5 239t-212.5 79h-138v-625zM360 967h138q143 0 198.5 62.5 t55.5 213.5q0 111 -34 163t-101.5 66.5t-200.5 14.5h-56v-520z" />
<glyph unicode="C" horiz-adv-x="1054" d="M98 532v586q0 272 98.5 413.5t348.5 141.5q223 0 320.5 -120.5t97.5 -356.5v-131h-220v117q0 115 -10 176t-52 98t-134 37q-94 0 -140.5 -40t-60.5 -110.5t-14 -189.5v-657q0 -127 20.5 -199t66.5 -102.5t128 -30.5q88 0 131 39t54 106.5t11 184.5v122h220v-122 q0 -248 -93.5 -380t-324.5 -132q-246 0 -346.5 146t-100.5 404z" />
<glyph unicode="D" horiz-adv-x="1079" d="M129 0v1659h360q268 0 380 -123t112 -383v-610q0 -274 -109.5 -408.5t-363.5 -134.5h-379zM360 166h132q121 0 175 47t67.5 128t13.5 245v538q0 141 -17.5 216t-73 111t-172.5 36h-125v-1321z" />
<glyph unicode="E" horiz-adv-x="833" d="M129 0v1659h643v-172h-412v-549h334v-164h-334v-608h416v-166h-647z" />
<glyph unicode="F" horiz-adv-x="800" d="M129 0v1659h641v-166h-410v-553h318v-164h-318v-776h-231z" />
<glyph unicode="G" horiz-adv-x="1095" d="M98 545v555q0 193 40 316.5t137.5 190t267.5 66.5q229 0 330.5 -116.5t101.5 -366.5v-62h-217v52q0 119 -14.5 183t-60.5 97t-136 33q-96 0 -143.5 -44t-60.5 -118t-13 -196v-615q0 -190 46 -273t177 -83q129 0 177 90t48 289v114h-211v164h420v-821h-145l-23 190 q-78 -210 -293 -210h-2q-225 0 -325.5 142t-100.5 423z" />
<glyph unicode="H" horiz-adv-x="1148" d="M129 0v1659h231v-717h426v717h232v-1659h-232v776h-426v-776h-231z" />
<glyph unicode="I" horiz-adv-x="507" d="M141 0v1659h228v-1659h-228z" />
<glyph unicode="J" horiz-adv-x="616" d="M14 -39v166q104 0 154.5 19.5t69 71.5t18.5 161v1280h229v-1284q0 -150 -30.5 -239t-109.5 -132t-220 -43h-111z" />
<glyph unicode="K" horiz-adv-x="1013" d="M129 0v1659h231v-782l381 782h215l-327 -731l381 -928h-226l-317 778l-107 -192v-586h-231z" />
<glyph unicode="L" horiz-adv-x="813" d="M129 0v1659h231v-1493h424v-166h-655z" />
<glyph unicode="M" horiz-adv-x="1351" d="M125 0l31 1659h227l293 -1346l295 1346h225l31 -1659h-187l-18 1204l-281 -1204h-131l-278 1204l-19 -1204h-188z" />
<glyph unicode="N" horiz-adv-x="1081" d="M129 0v1659h158l471 -1102v1102h192v-1659h-147l-477 1133v-1133h-197z" />
<glyph unicode="O" horiz-adv-x="1103" d="M98 520v629q0 258 106.5 391t348.5 133t347.5 -134t105.5 -390v-631q0 -258 -106.5 -397t-346.5 -139q-244 0 -349.5 138t-105.5 400zM332 469q0 -154 45 -229.5t176 -75.5q129 0 174 75.5t45 229.5v727q0 152 -45 224.5t-174 72.5q-131 0 -176 -72.5t-45 -224.5v-727z " />
<glyph unicode="P" horiz-adv-x="983" d="M129 0v1659h412q215 0 312 -117t97 -342q0 -203 -104.5 -315.5t-302.5 -112.5h-183v-772h-231zM360 938h107q102 0 158.5 22.5t81 78t24.5 159.5q0 127 -18.5 186.5t-72.5 84t-171 24.5h-109v-555z" />
<glyph unicode="Q" horiz-adv-x="1107" d="M98 520v629q0 258 106.5 391t348.5 133t348.5 -134t106.5 -390v-631q0 -395 -244 -498q102 -133 164 -174l-37 -182q-125 62 -299 320l-39 -2q-244 0 -349.5 138t-105.5 400zM332 469q0 -154 45 -229.5t176 -75.5t176 75.5t45 229.5v727q0 152 -45 224.5t-176 72.5 t-176 -72.5t-45 -224.5v-727z" />
<glyph unicode="R" horiz-adv-x="1062" d="M129 0v1659h334q252 0 369.5 -103.5t117.5 -336.5q0 -319 -205 -388l236 -831h-223l-217 778h-181v-778h-231zM360 944h89q150 0 214 59.5t64 215.5q0 102 -22.5 160.5t-80 86t-161.5 27.5h-103v-549z" />
<glyph unicode="S" horiz-adv-x="968" d="M80 465l205 55q10 -160 62 -258t173 -98q90 0 136 50t46 144q0 100 -43 167t-137 153l-278 246q-84 76 -122 160.5t-38 205.5q0 184 106.5 283.5t292.5 99.5q195 0 291 -104.5t117 -323.5l-197 -53q-10 141 -53 222t-152 81q-198 0 -198 -180q0 -76 24.5 -124t83.5 -104 l281 -245q109 -100 173.5 -212t64.5 -253q0 -182 -111 -288.5t-287 -106.5q-209 0 -318.5 129t-121.5 354z" />
<glyph unicode="T" horiz-adv-x="819" d="M-2 1487v172h825v-172h-293v-1487h-231v1487h-301z" />
<glyph unicode="U" horiz-adv-x="1112" d="M115 559v1100h221v-1110q0 -188 44 -286.5t177 -98.5t177 98t44 287v1110h219v-1100q0 -188 -36.5 -313t-133 -194.5t-270.5 -69.5t-271.5 69.5t-134 194.5t-36.5 313z" />
<glyph unicode="V" horiz-adv-x="1034" d="M47 1659h217l262 -1223l250 1223h211l-366 -1659h-203z" />
<glyph unicode="W" horiz-adv-x="1492" d="M74 1659h192l178 -1192l224 1186h163l226 -1192l174 1198h188l-266 -1659h-168l-231 1229l-234 -1229h-176z" />
<glyph unicode="X" horiz-adv-x="987" d="M27 0l346 868l-340 791h215l252 -586l229 586h215l-348 -809l365 -850h-216l-270 625l-233 -625h-215z" />
<glyph unicode="Y" horiz-adv-x="985" d="M25 1659h215l254 -801l249 801h218l-357 -1073v-586h-221v586z" />
<glyph unicode="Z" horiz-adv-x="854" d="M78 0v166l487 1327h-456v166h702v-100l-514 -1393h514v-166h-733z" />
<glyph unicode="[" horiz-adv-x="696" d="M129 -377v2036h451v-113h-232v-1810h232v-113h-451z" />
<glyph unicode="\" horiz-adv-x="755" d="M59 1659h189l448 -1659h-190z" />
<glyph unicode="]" horiz-adv-x="634" d="M53 -264h232v1808h-232v115h453v-2036h-453v113z" />
<glyph unicode="^" horiz-adv-x="907" d="M70 997l274 662h221l275 -662h-209l-176 498l-179 -498h-206z" />
<glyph unicode="_" horiz-adv-x="704" d="M0 -109h705v-165h-705v165z" />
<glyph unicode="`" horiz-adv-x="569" d="M117 1659h219l117 -406h-111z" />
<glyph unicode="a" horiz-adv-x="872" d="M86 258q0 139 59.5 226t150.5 137.5t257 117.5v84q0 117 -23.5 165t-95.5 48q-125 0 -125 -168v-59l-217 8l2 43q10 178 99.5 259t255.5 81q170 0 246.5 -93t76.5 -282v-540q0 -133 21 -285h-201q-23 117 -29 174q-25 -80 -85 -135t-154 -55q-68 0 -122.5 38.5t-85 102 t-30.5 133.5zM305 326q0 -74 26.5 -114t78.5 -40q43 0 84 34t59 64v336q-90 -53 -135 -82.5t-79 -80t-34 -117.5z" />
<glyph unicode="b" horiz-adv-x="915" d="M115 0v1659h219v-569q95 110 221 110h2q162 0 216 -138t54 -306v-287q0 -485 -292 -485q-107 0 -201 102v-86h-219zM334 209q68 -53 155 -53q76 0 97.5 76.5t21.5 236.5v287q0 131 -24.5 201.5t-102.5 70.5q-72 0 -147 -59v-760z" />
<glyph unicode="c" horiz-adv-x="841" d="M88 455v272q0 160 27.5 262.5t103.5 156.5t215 54q127 0 197.5 -41t98.5 -122t28 -210v-69h-199v71q0 117 -25.5 163t-97.5 46q-55 0 -81.5 -24.5t-37 -79.5t-10.5 -162v-373q0 -102 12.5 -156.5t40 -76t78.5 -21.5q76 0 98.5 50.5t22.5 154.5v96h199v-81 q0 -193 -71 -287t-253 -94q-139 0 -215 56t-103.5 157.5t-27.5 257.5z" />
<glyph unicode="d" horiz-adv-x="905" d="M88 465v229q0 236 62.5 371t228.5 135q104 0 196 -92v551h220v-1659h-220v76q-86 -92 -194 -92q-152 0 -222.5 112.5t-70.5 368.5zM307 446q0 -143 26.5 -216.5t106.5 -73.5q65 0 135 45v776q-76 51 -139 51q-129 0 -129 -248v-334z" />
<glyph unicode="e" horiz-adv-x="862" d="M88 457v270q0 246 77 359.5t273 113.5q143 0 216 -59.5t96.5 -167t23.5 -289.5v-96h-467v-158q0 -106 5 -159.5t33 -89.5t91 -36q72 0 97.5 48.5t25.5 146.5v72h213v-45q0 -186 -80 -284.5t-254 -98.5q-137 0 -212.5 52t-106.5 154.5t-31 266.5zM307 707h252v106 q0 121 -23.5 173t-99.5 52q-53 0 -80.5 -24.5t-38 -80.5t-10.5 -163v-63z" />
<glyph unicode="f" horiz-adv-x="587" d="M39 1022v162h141v61q0 123 18.5 198t75 115.5t162.5 40.5q47 0 144 -10v-164q-16 2 -42 6.5t-40 4.5q-59 0 -79 -38t-20 -116v-98h181v-162h-181v-1022h-219v1022h-141z" />
<glyph unicode="g" horiz-adv-x="890" d="M41 -182q0 92 48 159.5t122 106.5q-55 16 -85 51t-30 76q0 61 31 106t100 109q-70 53 -103.5 134t-33.5 218q0 207 85 314.5t249 107.5q94 0 153.5 -32.5t90.5 -98.5q14 23 60 60.5t99 62.5l33 14l55 -141q-41 -8 -113.5 -34.5t-86.5 -41.5q14 -37 25.5 -102.5 t11.5 -114.5q0 -195 -76 -302.5t-252 -107.5q-55 0 -113 15q-4 -6 -21.5 -35t-17.5 -55q0 -23 23.5 -36t75.5 -18q31 -4 93 -9t91 -7q274 -25 274 -289q0 -158 -85 -226.5t-265 -68.5q-211 0 -324.5 35t-113.5 150zM225 -94q0 -37 18.5 -58.5t73 -32t158.5 -10.5 q96 0 141.5 28t45.5 89q0 57 -35 85t-127 36l-187 16q-31 -25 -59.5 -65.5t-28.5 -87.5zM281 778q0 -127 29.5 -194.5t113.5 -67.5q88 0 114.5 61.5t26.5 200.5q0 141 -26.5 206t-112.5 65t-115.5 -64.5t-29.5 -206.5z" />
<glyph unicode="h" horiz-adv-x="911" d="M117 0v1659h219v-598q147 139 297 139q96 0 136 -69.5t40 -172.5v-958h-219v895q0 68 -20.5 100.5t-73.5 32.5q-72 0 -160 -78v-950h-219z" />
<glyph unicode="i" horiz-adv-x="468" d="M125 0v1184h219v-1184h-219zM125 1360v229h219v-229h-219z" />
<glyph unicode="j" horiz-adv-x="471" d="M-39 -127q43 -6 57 -6q68 0 95.5 38t27.5 105v1174h219v-1196q0 -139 -75.5 -213t-210.5 -74q-80 0 -113 14v158zM141 1360v229h221v-229h-221z" />
<glyph unicode="k" horiz-adv-x="878" d="M115 2v1659h219v-989l319 512h230l-279 -463l270 -721h-219l-221 606l-100 -151v-453h-219z" />
<glyph unicode="l" horiz-adv-x="468" d="M131 0v1659h219v-1659h-219z" />
<glyph unicode="m" horiz-adv-x="1392" d="M111 0v1184h202v-113q59 66 130 99.5t149 33.5q152 0 192 -149q122 149 293 149h2q92 0 150.5 -67.5t58.5 -206.5v-930h-201v915q0 78 -24.5 112t-71.5 34t-97 -25.5t-93 -70.5v-35v-930h-201v915q0 78 -24.5 112t-71.5 34t-96.5 -25.5t-94.5 -70.5v-965h-202z" />
<glyph unicode="n" horiz-adv-x="899" d="M111 0v1184h219v-117q141 133 288 133q96 0 137.5 -69.5t41.5 -172.5v-958h-219v895q0 68 -20.5 100.5t-74.5 32.5q-66 0 -153 -74v-954h-219z" />
<glyph unicode="o" d="M88 420v344q0 213 79 324.5t267 111.5q186 0 265 -111.5t79 -324.5v-344q0 -213 -78.5 -324.5t-265.5 -111.5q-188 0 -267 111.5t-79 324.5zM307 406q0 -88 6 -139.5t34 -86.5t87 -35q60 0 86.5 35t32.5 86t6 140v370q0 88 -6 140.5t-32.5 87t-86.5 34.5q-59 0 -87 -34.5 t-34 -87t-6 -140.5v-370z" />
<glyph unicode="p" horiz-adv-x="913" d="M111 -389v1573h219v-94q95 110 223 110h2q162 0 216 -138t54 -306v-287q0 -217 -66.5 -351t-228.5 -134q-104 0 -200 104v-477h-219zM330 209q72 -53 157 -53q76 0 97.5 76.5t21.5 236.5v287q0 131 -24.5 201.5t-102.5 70.5q-76 0 -149 -61v-758z" />
<glyph unicode="q" horiz-adv-x="907" d="M90 465v229q0 236 62.5 371t228.5 135q104 0 197 -92v76h219v-1573h-219v465q-86 -92 -195 -92q-152 0 -222.5 112.5t-70.5 368.5zM309 446q0 -143 26.5 -216.5t106.5 -73.5q70 0 136 45v776q-76 51 -140 51q-129 0 -129 -248v-334z" />
<glyph unicode="r" horiz-adv-x="657" d="M117 0v1184h219v-168q61 100 125.5 141t136.5 41q18 0 35 -2v-242q-66 25 -121 25q-53 0 -95 -25.5t-81 -89.5v-864h-219z" />
<glyph unicode="s" horiz-adv-x="765" d="M51 315l182 56q14 -115 52.5 -170.5t107.5 -55.5q57 0 94 36t37 91q0 92 -96 174l-203 175q-70 59 -107.5 123.5t-37.5 158.5q0 141 82 219t223 78q135 0 212 -87t89 -224l-147 -55q-14 100 -47 152t-99 52q-53 0 -86 -34q-31 -33 -31 -80v-6q0 -68 60 -119l209 -193 q78 -70 123 -143.5t45 -175.5q0 -147 -88 -225t-240 -78q-143 0 -232.5 90t-101.5 241z" />
<glyph unicode="t" horiz-adv-x="630" d="M45 1038v146h125v346h219v-346h191v-146h-191v-757q0 -72 22.5 -100.5t86.5 -28.5q41 0 80 6v-162q-82 -12 -152 -12q-135 0 -194.5 70.5t-61.5 211.5v772h-125z" />
<glyph unicode="u" horiz-adv-x="901" d="M102 225v959h220v-893q0 -68 20 -101.5t74 -33.5q66 0 153 73v955h219v-1184h-219v117q-141 -133 -288 -133q-97 0 -138 69.5t-41 171.5z" />
<glyph unicode="v" horiz-adv-x="788" d="M31 1184h221l145 -953l148 953h213l-226 -1184h-268z" />
<glyph unicode="w" horiz-adv-x="1204" d="M57 1184h181l122 -873l158 873h168l158 -869l123 869h180l-197 -1184h-184l-162 836l-160 -836h-196z" />
<glyph unicode="x" horiz-adv-x="796" d="M18 0l267 623l-260 561h208l175 -375l153 375h215l-270 -588l274 -596h-209l-186 401l-160 -401h-207z" />
<glyph unicode="y" horiz-adv-x="802" d="M25 1184h221l160 -885l153 885h221l-282 -1250q-29 -125 -121 -178t-258 -53h-27v168q123 0 169 18.5t46 69.5q0 12 -8 53l-27 123l-10 41q-102 426 -237 1008z" />
<glyph unicode="z" horiz-adv-x="710" d="M66 0v147l362 873h-326v164h562v-119l-365 -899h356v-166h-589z" />
<glyph unicode="{" horiz-adv-x="614" d="M82 565v152q51 0 75.5 18.5t34 71.5t9.5 168v287q0 199 20.5 277.5t93 106t252.5 27.5v-162q-72 0 -98.5 -15t-32.5 -61t-6 -173v-320q0 -145 -35 -215t-100 -86q66 -14 100.5 -84t34.5 -215v-322q0 -129 6 -174t33 -60t98 -15v-162q-180 0 -252.5 27.5t-93 106.5 t-20.5 277v289q0 115 -9.5 167t-34 70.5t-75.5 18.5z" />
<glyph unicode="|" horiz-adv-x="489" d="M141 -303l2 1962h203v-1962h-205z" />
<glyph unicode="}" horiz-adv-x="657" d="M90 -229q72 0 98.5 15t32.5 60t6 174v322q0 145 35 215t103 84q-68 16 -103 86t-35 215v320q0 127 -6 173t-32.5 61t-98.5 15v162q180 0 253 -27.5t93.5 -106.5t20.5 -277v-287q0 -117 9 -169t32.5 -70.5t76.5 -18.5v-152q-53 0 -76.5 -18.5t-32.5 -70.5t-9 -167v-289 q0 -199 -20.5 -277.5t-93.5 -106t-253 -27.5v162z" />
<glyph unicode="~" horiz-adv-x="915" d="M72 887q51 53 123.5 101t119.5 48q35 0 72 -15t88 -46q49 -27 82 -41t61 -14q27 0 61 20.5t87 60.5l78 -100q-51 -59 -119 -108.5t-119 -49.5q-35 0 -73.5 15.5t-92.5 46.5q-45 27 -78.5 41t-62.5 14q-27 0 -68 -22.5t-81 -55.5z" />
<glyph unicode="&#xa1;" horiz-adv-x="425" d="M102 -365l72 1303h78l72 -1303h-222zM102 1069v225h222v-225h-222z" />
<glyph unicode="&#xa2;" horiz-adv-x="794" d="M88 455v272q0 221 58.5 336t220.5 133v147h69v-143q125 0 195.5 -42t98.5 -122t28 -209v-69h-199v71q0 117 -25.5 163t-97.5 46q-55 0 -81.5 -24.5t-37 -79.5t-10.5 -162v-373q0 -102 12.5 -156.5t40 -76t78.5 -21.5q76 0 98.5 50.5t22.5 154.5v96h199v-81 q0 -193 -71 -287t-253 -94v-146h-69v150q-162 18 -219.5 134t-57.5 333z" />
<glyph unicode="&#xa3;" horiz-adv-x="815" d="M4 0v111l121 53v561h-121v164h121v188q0 188 23.5 314.5t99.5 204t223 77.5q287 0 291 -354v-68h-164q0 113 -25.5 178.5t-101.5 65.5t-100.5 -71.5t-28.5 -198.5v-336h246v-164h-246v-559h418v-166h-756z" />
<glyph unicode="&#xa5;" horiz-adv-x="935" d="M20 1659h216l251 -801l250 801h219l-333 -1006h157v-141h-182v-133h182v-143h-182v-236h-219v236h-182v143h182v133h-182v141h159z" />
<glyph unicode="&#xa7;" horiz-adv-x="874" d="M86 870q0 98 47 168t127 103q-72 47 -120 111.5t-48 144.5q0 129 95.5 202.5t250.5 73.5q143 0 228.5 -86t117.5 -221l-166 -55q-31 80 -71.5 132t-110.5 52q-57 0 -91 -32.5t-34 -92.5q0 -35 20.5 -64.5t51.5 -50.5l264 -172q68 -43 106 -113.5t38 -160.5 q0 -94 -40 -160.5t-110 -103.5q68 -57 105.5 -115.5t37.5 -138.5q0 -147 -94 -227t-252 -80q-143 0 -229 87t-121 226l166 55q63 -188 184 -188q66 0 103 34.5t37 102.5q0 82 -86 145l-236 154q-82 51 -126 112.5t-44 157.5zM305 870q0 -33 17.5 -63.5t42.5 -48.5l127 -92 q40 18 70 54t30 83q2 39 -16.5 78t-57.5 65l-115 78q-39 -20 -68.5 -62t-29.5 -92z" />
<glyph unicode="&#xa8;" horiz-adv-x="819" d="M123 1432v227h219v-227h-219zM473 1432v227h221v-227h-221z" />
<glyph unicode="&#xa9;" horiz-adv-x="1765" d="M59 844q0 221 88.5 418.5t273.5 321.5t462 124q276 0 461.5 -124t273.5 -321.5t88 -418.5q0 -223 -87 -420t-272.5 -322t-463.5 -125q-277 0 -462 125t-273.5 323t-88.5 419zM166 844q0 -205 79 -381t241.5 -285.5t402.5 -109.5q239 0 402 109.5t242 285.5t79 381 t-79 381t-242 284.5t-402 108.5q-240 0 -402.5 -108.5t-241.5 -284.5t-79 -381zM502 745v220q0 168 30.5 274.5t114.5 162.5t238 56q141 0 219 -42t108.5 -126t30.5 -219v-55h-215v55q0 123 -30.5 171t-108.5 48q-61 0 -94 -25.5t-45.5 -85t-12.5 -167.5v-324 q0 -106 14.5 -162.5t47 -79t90.5 -22.5q84 0 111.5 52t27.5 161v65h215v-51q0 -201 -79 -299t-279 -98q-156 0 -240 58.5t-113.5 164t-29.5 268.5z" />
<glyph unicode="&#xaa;" horiz-adv-x="907" d="M158 885q0 100 49 163.5t121.5 98.5t195.5 78l41 14v109q0 86 -18.5 132t-69.5 46q-106 0 -106 -180h-181q4 154 80 245.5t209 91.5q160 0 219.5 -97t59.5 -300v-616h-176v131q-33 -63 -90.5 -103.5t-126.5 -40.5q-91 0 -149 64.5t-58 163.5zM352 930q0 -49 22.5 -77 t61.5 -28q41 0 76 29t53 68v231q-74 -39 -114.5 -65.5t-69.5 -65.5t-29 -92z" />
<glyph unicode="&#xab;" horiz-adv-x="931" d="M63 551v106l334 467v-274l-168 -246l168 -248v-272zM461 551v106l336 467v-274l-168 -246l168 -248v-272z" />
<glyph unicode="&#xac;" horiz-adv-x="792" d="M82 754v166h655v-396h-112v230h-543z" />
<glyph unicode="&#xad;" horiz-adv-x="657" d="M100 535v165h457v-165h-457z" />
<glyph unicode="&#xae;" horiz-adv-x="1818" d="M94 829q0 219 87 415t270.5 319t457.5 123t457.5 -123t270.5 -318.5t87 -415.5q0 -221 -86 -415.5t-269 -317.5t-460 -123q-274 0 -457.5 123t-270.5 318.5t-87 414.5zM211 829q0 -199 75.5 -369.5t233.5 -277t389 -106.5q230 0 387.5 106.5t233.5 277.5t76 369 q0 199 -76 370t-232.5 275.5t-388.5 104.5q-231 0 -389 -104.5t-233.5 -275.5t-75.5 -370zM598 295v1085h320q346 0 346 -315q0 -188 -174 -262l196 -508h-199l-174 469h-125v-469h-190zM788 866h68q84 0 129 19.5t63.5 62.5t18.5 121q0 92 -38 138t-128 46h-113v-387z" />
<glyph unicode="&#xaf;" horiz-adv-x="581" d="M94 1526v133h393v-133h-393z" />
<glyph unicode="&#xb0;" horiz-adv-x="927" d="M119 1331q0 160 92 251t252 91t253 -91t93 -251q0 -162 -93 -254t-253 -92t-252 92t-92 254zM285 1331q0 -90 47 -144t131 -54t131 54t47 144t-47 144.5t-131 54.5t-131 -54.5t-47 -144.5z" />
<glyph unicode="&#xb1;" horiz-adv-x="753" d="M117 0v168h524v-168h-524zM117 537v168h178v178h168v-178h178v-168h-178v-179h-168v179h-178z" />
<glyph unicode="&#xb4;" horiz-adv-x="567" d="M115 1253l121 406h219l-230 -406h-110z" />
<glyph unicode="&#xb5;" horiz-adv-x="903" d="M102 1184h220v-893q0 -68 20 -101.5t74 -33.5q66 0 153 73v955h219v-1184h-219v117q-80 -82 -178 -113q-35 -10 -65 -10v-352h-222z" />
<glyph unicode="&#xb6;" horiz-adv-x="1007" d="M66 1356q0 152 98 227.5t276 75.5h439v-1856h-158v1751h-158v-1751h-155v1252q-156 0 -249 78.5t-93 222.5z" />
<glyph unicode="&#xb7;" horiz-adv-x="360" d="M74 659v226h221v-226h-221z" />
<glyph unicode="&#xb8;" horiz-adv-x="720" d="M163 -350q49 -14 105 -15q55 0 90 19.5t35 60.5q0 51 -42 77t-132 38v170h110v-115q102 0 165 -48t63 -128q0 -94 -71 -142t-185 -48q-60 0 -138 20v111z" />
<glyph unicode="&#xba;" horiz-adv-x="907" d="M137 1034v271q0 184 73 281t245 97q164 0 239.5 -100t75.5 -278v-271q0 -178 -76 -278.5t-239 -100.5q-172 0 -245 97.5t-73 281.5zM319 1059q0 -119 25 -181.5t107 -62.5q59 0 86.5 32t34 81t6.5 131v221q0 82 -6.5 130t-34 80t-86.5 32q-84 0 -108 -61.5t-24 -180.5 v-221z" />
<glyph unicode="&#xbb;" horiz-adv-x="985" d="M117 84v272l186 248l-186 246v274l354 -467v-106zM516 84v272l186 248l-186 246v274l352 -467v-106z" />
<glyph unicode="&#xbf;" horiz-adv-x="997" d="M113 33q0 131 49 240.5t131 200.5t207 198v198h194v-254q-180 -156 -273 -291t-93 -298q0 -100 51 -162t145 -62q82 0 130 46.5t48 121.5q0 39 -14 103l205 39q23 -63 22 -129q0 -166 -103 -268.5t-288 -102.5q-195 0 -303 110.5t-108 309.5zM485 1061v225h220v-225h-220 z" />
<glyph unicode="&#xc0;" horiz-adv-x="1007" d="M39 0l352 1659h223l355 -1659h-219l-76 418h-338l-80 -418h-217zM225 2163h220l116 -406h-108zM367 584h276l-139 747z" />
<glyph unicode="&#xc1;" horiz-adv-x="1007" d="M39 0l352 1659h223l355 -1659h-219l-76 418h-338l-80 -418h-217zM367 584h276l-139 747zM447 1757l120 406h220l-230 -406h-110z" />
<glyph unicode="&#xc2;" horiz-adv-x="1007" d="M39 0l352 1659h223l355 -1659h-219l-76 418h-338l-80 -418h-217zM215 1775l176 359h224l178 -359h-166l-125 248l-123 -248h-164zM367 584h276l-139 747z" />
<glyph unicode="&#xc3;" horiz-adv-x="1007" d="M39 0l352 1659h223l355 -1659h-219l-76 418h-338l-80 -418h-217zM197 1925q0 221 164 221q35 0 66.5 -13t72.5 -38t66.5 -36t54.5 -11q37 0 52 19.5t15 66.5h123q0 -104 -33.5 -164.5t-117.5 -60.5q-41 0 -75 14t-77 41q-41 23 -65.5 34t-51.5 11q-37 0 -53 -19.5 t-16 -64.5h-125zM367 584h276l-139 747z" />
<glyph unicode="&#xc4;" horiz-adv-x="1007" d="M39 0l352 1659h223l355 -1659h-219l-76 418h-338l-80 -418h-217zM217 1907v227h221v-227h-221zM367 584h276l-139 747zM570 1907v227h221v-227h-221z" />
<glyph unicode="&#xc5;" horiz-adv-x="1007" d="M39 0l352 1659h223l355 -1659h-219l-76 418h-338l-80 -418h-217zM275 1925q0 104 62.5 165.5t166.5 61.5t166.5 -61.5t62.5 -165.5t-63.5 -166.5t-165.5 -62.5t-165.5 62.5t-63.5 166.5zM367 584h276l-139 747zM385 1925q0 -55 32 -87t87 -32q53 0 86 32t33 87t-32 87 t-87 32t-87 -31t-32 -88z" />
<glyph unicode="&#xc6;" horiz-adv-x="1300" d="M-104 0l698 1659h645v-168h-420v-549h301v-166h-301v-608h420v-168h-641v420h-305l-176 -420h-221zM354 586h244v653z" />
<glyph unicode="&#xc7;" horiz-adv-x="1054" d="M98 532v586q0 272 98.5 413.5t348.5 141.5q223 0 320.5 -120.5t97.5 -356.5v-131h-220v117q0 115 -10 176t-52 98t-134 37q-94 0 -140.5 -40t-60.5 -110.5t-14 -189.5v-657q0 -127 20.5 -199t66.5 -102.5t128 -30.5q88 0 131 39t54 106.5t11 184.5v122h220v-122 q0 -238 -85 -369t-294 -141v-99q102 0 164.5 -48t62.5 -128q0 -94 -70.5 -142t-185.5 -48q-59 0 -137 20v111q49 -14 104 -15q55 0 90 19.5t35 60.5q0 51 -42 77t-132 38v156q-205 23 -290 166t-85 380z" />
<glyph unicode="&#xc8;" horiz-adv-x="833" d="M129 0v1659h643v-172h-412v-549h334v-164h-334v-608h416v-166h-647zM180 2163h220l116 -406h-108z" />
<glyph unicode="&#xc9;" horiz-adv-x="833" d="M129 0v1659h643v-172h-412v-549h334v-164h-334v-608h416v-166h-647zM402 1757l120 406h220l-230 -406h-110z" />
<glyph unicode="&#xca;" horiz-adv-x="833" d="M129 0v1659h643v-172h-412v-549h334v-164h-334v-608h416v-166h-647zM170 1775l176 359h224l178 -359h-166l-125 248l-123 -248h-164z" />
<glyph unicode="&#xcb;" horiz-adv-x="833" d="M129 0v1659h643v-172h-412v-549h334v-164h-334v-608h416v-166h-647zM172 1907v227h221v-227h-221zM525 1907v227h221v-227h-221z" />
<glyph unicode="&#xcc;" horiz-adv-x="507" d="M-25 2163h220l116 -406h-108zM141 0v1659h228v-1659h-228z" />
<glyph unicode="&#xcd;" horiz-adv-x="507" d="M141 0v1659h228v-1659h-228zM197 1757l120 406h220l-230 -406h-110z" />
<glyph unicode="&#xce;" horiz-adv-x="507" d="M-35 1775l176 359h224l178 -359h-166l-125 248l-123 -248h-164zM141 0v1659h228v-1659h-228z" />
<glyph unicode="&#xcf;" horiz-adv-x="507" d="M-33 1907v227h221v-227h-221zM141 0v1659h228v-1659h-228zM320 1907v227h221v-227h-221z" />
<glyph unicode="&#xd0;" horiz-adv-x="1060" d="M29 795v133h100v731h360q268 0 380 -123t112 -383v-610q0 -274 -109.5 -408.5t-363.5 -134.5h-379v795h-100zM360 166h132q121 0 175 47t67.5 128t13.5 245v538q0 141 -17.5 216t-73 111t-172.5 36h-125v-559h125v-133h-125v-629z" />
<glyph unicode="&#xd1;" horiz-adv-x="1081" d="M129 0v1659h158l471 -1102v1102h192v-1659h-147l-477 1133v-1133h-197zM234 1925q0 221 164 221q35 0 66.5 -13t72.5 -38t66.5 -36t54.5 -11q37 0 52 19.5t15 66.5h123q0 -104 -33.5 -164.5t-117.5 -60.5q-41 0 -75 14t-77 41q-41 23 -65.5 34t-51.5 11q-37 0 -53 -19.5 t-16 -64.5h-125z" />
<glyph unicode="&#xd2;" horiz-adv-x="1103" d="M98 520v629q0 258 106.5 391t348.5 133t347.5 -134t105.5 -390v-631q0 -258 -106.5 -397t-346.5 -139q-244 0 -349.5 138t-105.5 400zM274 2163h220l116 -406h-108zM332 469q0 -154 45 -229.5t176 -75.5q129 0 174 75.5t45 229.5v727q0 152 -45 224.5t-174 72.5 q-131 0 -176 -72.5t-45 -224.5v-727z" />
<glyph unicode="&#xd3;" horiz-adv-x="1103" d="M98 520v629q0 258 106.5 391t348.5 133t347.5 -134t105.5 -390v-631q0 -258 -106.5 -397t-346.5 -139q-244 0 -349.5 138t-105.5 400zM332 469q0 -154 45 -229.5t176 -75.5q129 0 174 75.5t45 229.5v727q0 152 -45 224.5t-174 72.5q-131 0 -176 -72.5t-45 -224.5v-727z M496 1757l120 406h220l-230 -406h-110z" />
<glyph unicode="&#xd4;" horiz-adv-x="1103" d="M98 520v629q0 258 106.5 391t348.5 133t347.5 -134t105.5 -390v-631q0 -258 -106.5 -397t-346.5 -139q-244 0 -349.5 138t-105.5 400zM264 1775l176 359h224l178 -359h-166l-125 248l-123 -248h-164zM332 469q0 -154 45 -229.5t176 -75.5q129 0 174 75.5t45 229.5v727 q0 152 -45 224.5t-174 72.5q-131 0 -176 -72.5t-45 -224.5v-727z" />
<glyph unicode="&#xd5;" horiz-adv-x="1103" d="M98 520v629q0 258 106.5 391t348.5 133t347.5 -134t105.5 -390v-631q0 -258 -106.5 -397t-346.5 -139q-244 0 -349.5 138t-105.5 400zM246 1925q0 221 164 221q35 0 66.5 -13t72.5 -38t66.5 -36t54.5 -11q37 0 52 19.5t15 66.5h123q0 -104 -33.5 -164.5t-117.5 -60.5 q-41 0 -75 14t-77 41q-41 23 -65.5 34t-51.5 11q-37 0 -53 -19.5t-16 -64.5h-125zM332 469q0 -154 45 -229.5t176 -75.5q129 0 174 75.5t45 229.5v727q0 152 -45 224.5t-174 72.5q-131 0 -176 -72.5t-45 -224.5v-727z" />
<glyph unicode="&#xd6;" horiz-adv-x="1103" d="M98 520v629q0 258 106.5 391t348.5 133t347.5 -134t105.5 -390v-631q0 -258 -106.5 -397t-346.5 -139q-244 0 -349.5 138t-105.5 400zM266 1907v227h221v-227h-221zM332 469q0 -154 45 -229.5t176 -75.5q129 0 174 75.5t45 229.5v727q0 152 -45 224.5t-174 72.5 q-131 0 -176 -72.5t-45 -224.5v-727zM619 1907v227h221v-227h-221z" />
<glyph unicode="&#xd8;" horiz-adv-x="1105" d="M98 520v629q0 258 106.5 391t348.5 133q92 0 170 -22l41 151l82 -20l-43 -162q203 -111 203 -471v-631q0 -258 -106.5 -397t-346.5 -139q-109 0 -182 26l-43 -160l-80 25l45 170q-102 61 -148.5 181t-46.5 296zM332 469q-1 -122 24 -188l318 1187q-45 25 -121 25 q-131 0 -176 -72.5t-45 -224.5v-727zM422 197q49 -33 131 -33q129 0 174 75.5t45 229.5v727q0 137 -31 199z" />
<glyph unicode="&#xd9;" horiz-adv-x="1112" d="M115 559v1100h221v-1110q0 -188 44 -286.5t177 -98.5t177 98t44 287v1110h219v-1100q0 -188 -36.5 -313t-133 -194.5t-270.5 -69.5t-271.5 69.5t-134 194.5t-36.5 313zM278 2163h220l116 -406h-108z" />
<glyph unicode="&#xda;" horiz-adv-x="1112" d="M115 559v1100h221v-1110q0 -188 44 -286.5t177 -98.5t177 98t44 287v1110h219v-1100q0 -188 -36.5 -313t-133 -194.5t-270.5 -69.5t-271.5 69.5t-134 194.5t-36.5 313zM500 1757l120 406h220l-230 -406h-110z" />
<glyph unicode="&#xdb;" horiz-adv-x="1112" d="M115 559v1100h221v-1110q0 -188 44 -286.5t177 -98.5t177 98t44 287v1110h219v-1100q0 -188 -36.5 -313t-133 -194.5t-270.5 -69.5t-271.5 69.5t-134 194.5t-36.5 313zM268 1775l176 359h224l178 -359h-166l-125 248l-123 -248h-164z" />
<glyph unicode="&#xdc;" horiz-adv-x="1112" d="M115 559v1100h221v-1110q0 -188 44 -286.5t177 -98.5t177 98t44 287v1110h219v-1100q0 -188 -36.5 -313t-133 -194.5t-270.5 -69.5t-271.5 69.5t-134 194.5t-36.5 313zM270 1907v227h221v-227h-221zM623 1907v227h221v-227h-221z" />
<glyph unicode="&#xdd;" horiz-adv-x="985" d="M25 1659h215l254 -801l249 801h218l-357 -1073v-586h-221v586zM437 1757l120 406h220l-230 -406h-110z" />
<glyph unicode="&#xde;" horiz-adv-x="1030" d="M129 0v1659h231v-217h240q201 0 298 -127t97 -354q0 -483 -434 -484h-201v-477h-231zM360 664h144q141 0 203.5 64.5t62.5 232.5q0 158 -55.5 223t-184.5 65h-170v-585z" />
<glyph unicode="&#xdf;" horiz-adv-x="1054" d="M121 0v1253q0 199 95 311.5t278 112.5q193 0 289 -108.5t96 -317.5q0 -143 -50.5 -232t-152.5 -142q127 -33 195.5 -139.5t68.5 -262.5q0 -242 -115.5 -367.5t-367.5 -125.5v182q106 0 164.5 36t80 102.5t21.5 172.5q0 135 -63.5 214t-188.5 79l2 182q102 0 146.5 86 t44.5 215q0 119 -35 182.5t-129 63.5q-92 0 -126 -59.5t-34 -182.5v-1255h-219z" />
<glyph unicode="&#xe0;" horiz-adv-x="872" d="M86 258q0 139 59.5 226t150.5 137.5t257 117.5v84q0 117 -23.5 165t-95.5 48q-125 0 -125 -168v-59l-217 8l2 43q10 178 99.5 259t255.5 81q170 0 246.5 -93t76.5 -282v-540q0 -133 21 -285h-201q-23 117 -29 174q-25 -80 -85 -135t-154 -55q-68 0 -122.5 38.5t-85 102 t-30.5 133.5zM170 1688h220l116 -406h-108zM305 326q0 -74 26.5 -114t78.5 -40q43 0 84 34t59 64v336q-90 -53 -135 -82.5t-79 -80t-34 -117.5z" />
<glyph unicode="&#xe1;" horiz-adv-x="872" d="M86 258q0 139 59.5 226t150.5 137.5t257 117.5v84q0 117 -23.5 165t-95.5 48q-125 0 -125 -168v-59l-217 8l2 43q10 178 99.5 259t255.5 81q170 0 246.5 -93t76.5 -282v-540q0 -133 21 -285h-201q-23 117 -29 174q-25 -80 -85 -135t-154 -55q-68 0 -122.5 38.5t-85 102 t-30.5 133.5zM305 326q0 -74 26.5 -114t78.5 -40q43 0 84 34t59 64v336q-90 -53 -135 -82.5t-79 -80t-34 -117.5zM392 1282l120 406h220l-230 -406h-110z" />
<glyph unicode="&#xe2;" horiz-adv-x="872" d="M86 258q0 139 59.5 226t150.5 137.5t257 117.5v84q0 117 -23.5 165t-95.5 48q-125 0 -125 -168v-59l-217 8l2 43q10 178 99.5 259t255.5 81q170 0 246.5 -93t76.5 -282v-540q0 -133 21 -285h-201q-23 117 -29 174q-25 -80 -85 -135t-154 -55q-68 0 -122.5 38.5t-85 102 t-30.5 133.5zM160 1300l176 359h224l178 -359h-166l-125 248l-123 -248h-164zM305 326q0 -74 26.5 -114t78.5 -40q43 0 84 34t59 64v336q-90 -53 -135 -82.5t-79 -80t-34 -117.5z" />
<glyph unicode="&#xe3;" horiz-adv-x="872" d="M86 258q0 139 59.5 226t150.5 137.5t257 117.5v84q0 117 -23.5 165t-95.5 48q-125 0 -125 -168v-59l-217 8l2 43q10 178 99.5 259t255.5 81q170 0 246.5 -93t76.5 -282v-540q0 -133 21 -285h-201q-23 117 -29 174q-25 -80 -85 -135t-154 -55q-68 0 -122.5 38.5t-85 102 t-30.5 133.5zM142 1450q0 221 164 221q35 0 66.5 -13t72.5 -38t66.5 -36t54.5 -11q37 0 52 19.5t15 66.5h123q0 -104 -33.5 -164.5t-117.5 -60.5q-41 0 -75 14t-77 41q-41 23 -65.5 34t-51.5 11q-37 0 -53 -19.5t-16 -64.5h-125zM305 326q0 -74 26.5 -114t78.5 -40 q43 0 84 34t59 64v336q-90 -53 -135 -82.5t-79 -80t-34 -117.5z" />
<glyph unicode="&#xe4;" horiz-adv-x="872" d="M86 258q0 139 59.5 226t150.5 137.5t257 117.5v84q0 117 -23.5 165t-95.5 48q-125 0 -125 -168v-59l-217 8l2 43q10 178 99.5 259t255.5 81q170 0 246.5 -93t76.5 -282v-540q0 -133 21 -285h-201q-23 117 -29 174q-25 -80 -85 -135t-154 -55q-68 0 -122.5 38.5t-85 102 t-30.5 133.5zM162 1432v227h221v-227h-221zM305 326q0 -74 26.5 -114t78.5 -40q43 0 84 34t59 64v336q-90 -53 -135 -82.5t-79 -80t-34 -117.5zM515 1432v227h221v-227h-221z" />
<glyph unicode="&#xe5;" horiz-adv-x="872" d="M86 258q0 139 59.5 226t150.5 137.5t257 117.5v84q0 117 -23.5 165t-95.5 48q-125 0 -125 -168v-59l-217 8l2 43q10 178 99.5 259t255.5 81q170 0 246.5 -93t76.5 -282v-540q0 -133 21 -285h-201q-23 117 -29 174q-25 -80 -85 -135t-154 -55q-68 0 -122.5 38.5t-85 102 t-30.5 133.5zM220 1450q0 104 62.5 165.5t166.5 61.5t166.5 -61.5t62.5 -165.5t-63.5 -166.5t-165.5 -62.5t-165.5 62.5t-63.5 166.5zM305 326q0 -74 26.5 -114t78.5 -40q43 0 84 34t59 64v336q-90 -53 -135 -82.5t-79 -80t-34 -117.5zM330 1450q0 -55 32 -87t87 -32 q53 0 86 32t33 87t-32 87t-87 32t-87 -31t-32 -88z" />
<glyph unicode="&#xe6;" horiz-adv-x="1337" d="M88 258q0 154 81 240t234 129l160 43v153q0 104 -26.5 156.5t-98.5 52.5q-129 0 -129 -194h-217q2 168 93 265t253 97q86 0 145.5 -42t86.5 -111q31 70 105.5 111.5t172.5 41.5q143 0 216 -78t73 -215q0 -100 -43 -159.5t-106.5 -87t-159.5 -52.5l-146 -30v-56 q0 -119 5.5 -188.5t34 -122.5t89.5 -53q66 0 91.5 53t25.5 149v52h219v-50q0 -182 -83 -280t-255 -98q-106 0 -176.5 65.5t-87.5 173.5q-45 -109 -118.5 -174t-176.5 -65q-74 0 -134 37.5t-94 100t-34 136.5zM307 305q0 -68 31 -109.5t76 -41.5q63 0 106 72.5t43 205.5v111 q-18 -4 -51 -15.5t-43 -15.5q-80 -35 -121 -83t-41 -124zM782 696l113 27q76 23 108.5 58.5t32.5 111.5q0 57 -28.5 93t-92.5 36q-74 0 -103.5 -54.5t-29.5 -154.5v-117z" />
<glyph unicode="&#xe7;" horiz-adv-x="841" d="M88 455v272q0 160 27.5 262.5t103.5 156.5t215 54q127 0 197.5 -41t98.5 -122t28 -210v-69h-199v71q0 117 -25.5 163t-97.5 46q-55 0 -81.5 -24.5t-37 -79.5t-10.5 -162v-373q0 -102 12.5 -156.5t40 -76t78.5 -21.5q76 0 98.5 50.5t22.5 154.5v96h199v-81 q0 -180 -62.5 -274.5t-218.5 -104.5v-101q102 0 165 -48t63 -128q0 -94 -71 -142t-185 -48q-59 0 -138 20v111q49 -14 105 -15q55 0 90 19.5t35 60.5q0 51 -42 77t-132 38v158q-162 18 -220.5 134t-58.5 333z" />
<glyph unicode="&#xe8;" horiz-adv-x="862" d="M88 457v270q0 246 77 359.5t273 113.5q143 0 216 -59.5t96.5 -167t23.5 -289.5v-96h-467v-158q0 -106 5 -159.5t33 -89.5t91 -36q72 0 97.5 48.5t25.5 146.5v72h213v-45q0 -186 -80 -284.5t-254 -98.5q-137 0 -212.5 52t-106.5 154.5t-31 266.5zM153 1688h220l116 -406 h-108zM307 707h252v106q0 121 -23.5 173t-99.5 52q-53 0 -80.5 -24.5t-38 -80.5t-10.5 -163v-63z" />
<glyph unicode="&#xe9;" horiz-adv-x="862" d="M88 457v270q0 246 77 359.5t273 113.5q143 0 216 -59.5t96.5 -167t23.5 -289.5v-96h-467v-158q0 -106 5 -159.5t33 -89.5t91 -36q72 0 97.5 48.5t25.5 146.5v72h213v-45q0 -186 -80 -284.5t-254 -98.5q-137 0 -212.5 52t-106.5 154.5t-31 266.5zM307 707h252v106 q0 121 -23.5 173t-99.5 52q-53 0 -80.5 -24.5t-38 -80.5t-10.5 -163v-63zM375 1282l120 406h220l-230 -406h-110z" />
<glyph unicode="&#xea;" horiz-adv-x="862" d="M88 457v270q0 246 77 359.5t273 113.5q143 0 216 -59.5t96.5 -167t23.5 -289.5v-96h-467v-158q0 -106 5 -159.5t33 -89.5t91 -36q72 0 97.5 48.5t25.5 146.5v72h213v-45q0 -186 -80 -284.5t-254 -98.5q-137 0 -212.5 52t-106.5 154.5t-31 266.5zM143 1300l176 359h224 l178 -359h-166l-125 248l-123 -248h-164zM307 707h252v106q0 121 -23.5 173t-99.5 52q-53 0 -80.5 -24.5t-38 -80.5t-10.5 -163v-63z" />
<glyph unicode="&#xeb;" horiz-adv-x="862" d="M88 457v270q0 246 77 359.5t273 113.5q143 0 216 -59.5t96.5 -167t23.5 -289.5v-96h-467v-158q0 -106 5 -159.5t33 -89.5t91 -36q72 0 97.5 48.5t25.5 146.5v72h213v-45q0 -186 -80 -284.5t-254 -98.5q-137 0 -212.5 52t-106.5 154.5t-31 266.5zM145 1432v227h221v-227 h-221zM307 707h252v106q0 121 -23.5 173t-99.5 52q-53 0 -80.5 -24.5t-38 -80.5t-10.5 -163v-63zM498 1432v227h221v-227h-221z" />
<glyph unicode="&#xec;" horiz-adv-x="458" d="M-43 1688h220l116 -406h-108zM125 0v1184h219v-1184h-219z" />
<glyph unicode="&#xed;" horiz-adv-x="458" d="M125 0v1184h219v-1184h-219zM179 1282l120 406h220l-230 -406h-110z" />
<glyph unicode="&#xee;" horiz-adv-x="458" d="M-53 1300l176 359h224l178 -359h-166l-125 248l-123 -248h-164zM125 0v1184h219v-1184h-219z" />
<glyph unicode="&#xef;" horiz-adv-x="458" d="M-51 1432v227h221v-227h-221zM125 0v1184h219v-1184h-219zM302 1432v227h221v-227h-221z" />
<glyph unicode="&#xf0;" horiz-adv-x="964" d="M106 461v137q0 258 68 400.5t254 142.5q117 0 199 -74q-18 193 -72 274l-244 -75v110l185 54q-45 51 -122 76.5t-216 27.5l10 143q197 -2 314.5 -48t185.5 -144l237 69v-110l-182 -49q68 -147 98.5 -293t30.5 -330v-287q0 -242 -91 -372.5t-296 -130.5q-146 0 -224.5 56 t-106.5 158.5t-28 264.5zM324 422q0 -131 28.5 -198.5t118.5 -67.5q100 0 131 70.5t31 222.5l2 253q0 76 -4 191q-4 2 -23.5 21.5t-52.5 33t-72 13.5q-90 0 -123.5 -89.5t-33.5 -289.5z" />
<glyph unicode="&#xf1;" horiz-adv-x="899" d="M111 0v1184h219v-117q141 133 288 133q96 0 137.5 -69.5t41.5 -172.5v-958h-219v895q0 68 -20.5 100.5t-74.5 32.5q-66 0 -153 -74v-954h-219zM144 1450q0 221 164 221q35 0 66.5 -13t72.5 -38t66.5 -36t54.5 -11q37 0 52 19.5t15 66.5h123q0 -104 -33.5 -164.5 t-117.5 -60.5q-41 0 -75 14t-77 41q-41 23 -65.5 34t-51.5 11q-37 0 -53 -19.5t-16 -64.5h-125z" />
<glyph unicode="&#xf2;" d="M88 420v344q0 213 79 324.5t267 111.5q186 0 265 -111.5t79 -324.5v-344q0 -213 -78.5 -324.5t-265.5 -111.5q-188 0 -267 111.5t-79 324.5zM155 1688h220l116 -406h-108zM307 406q0 -88 6 -139.5t34 -86.5t87 -35q60 0 86.5 35t32.5 86t6 140v370q0 88 -6 140.5 t-32.5 87t-86.5 34.5q-59 0 -87 -34.5t-34 -87t-6 -140.5v-370z" />
<glyph unicode="&#xf3;" d="M88 420v344q0 213 79 324.5t267 111.5q186 0 265 -111.5t79 -324.5v-344q0 -213 -78.5 -324.5t-265.5 -111.5q-188 0 -267 111.5t-79 324.5zM307 406q0 -88 6 -139.5t34 -86.5t87 -35q60 0 86.5 35t32.5 86t6 140v370q0 88 -6 140.5t-32.5 87t-86.5 34.5q-59 0 -87 -34.5 t-34 -87t-6 -140.5v-370zM377 1282l120 406h220l-230 -406h-110z" />
<glyph unicode="&#xf4;" d="M88 420v344q0 213 79 324.5t267 111.5q186 0 265 -111.5t79 -324.5v-344q0 -213 -78.5 -324.5t-265.5 -111.5q-188 0 -267 111.5t-79 324.5zM145 1300l176 359h224l178 -359h-166l-125 248l-123 -248h-164zM307 406q0 -88 6 -139.5t34 -86.5t87 -35q60 0 86.5 35t32.5 86 t6 140v370q0 88 -6 140.5t-32.5 87t-86.5 34.5q-59 0 -87 -34.5t-34 -87t-6 -140.5v-370z" />
<glyph unicode="&#xf5;" d="M88 420v344q0 213 79 324.5t267 111.5q186 0 265 -111.5t79 -324.5v-344q0 -213 -78.5 -324.5t-265.5 -111.5q-188 0 -267 111.5t-79 324.5zM127 1450q0 221 164 221q35 0 66.5 -13t72.5 -38t66.5 -36t54.5 -11q37 0 52 19.5t15 66.5h123q0 -104 -33.5 -164.5 t-117.5 -60.5q-41 0 -75 14t-77 41q-41 23 -65.5 34t-51.5 11q-37 0 -53 -19.5t-16 -64.5h-125zM307 406q0 -88 6 -139.5t34 -86.5t87 -35q60 0 86.5 35t32.5 86t6 140v370q0 88 -6 140.5t-32.5 87t-86.5 34.5q-59 0 -87 -34.5t-34 -87t-6 -140.5v-370z" />
<glyph unicode="&#xf6;" d="M88 420v344q0 213 79 324.5t267 111.5q186 0 265 -111.5t79 -324.5v-344q0 -213 -78.5 -324.5t-265.5 -111.5q-188 0 -267 111.5t-79 324.5zM147 1432v227h221v-227h-221zM307 406q0 -88 6 -139.5t34 -86.5t87 -35q60 0 86.5 35t32.5 86t6 140v370q0 88 -6 140.5 t-32.5 87t-86.5 34.5q-59 0 -87 -34.5t-34 -87t-6 -140.5v-370zM500 1432v227h221v-227h-221z" />
<glyph unicode="&#xf7;" horiz-adv-x="708" d="M39 762v160h633v-160h-633zM266 352v228h174v-228h-174zM266 1079v228h174v-228h-174z" />
<glyph unicode="&#xf8;" d="M88 420v344q0 213 79 324.5t267 111.5q98 0 170 -33l72 201l76 -25l-80 -223q106 -100 106 -356v-344q0 -213 -78.5 -324.5t-265.5 -111.5q-94 0 -162 28l-75 -207l-66 23l78 223q-121 98 -121 369zM307 328l230 647q-27 63 -103 63q-59 0 -87 -34.5t-34 -87t-6 -140.5 v-370v-78zM338 195q29 -49 96 -50q59 0 86 35t33 86t6 140v370v33z" />
<glyph unicode="&#xf9;" horiz-adv-x="901" d="M102 225v959h220v-893q0 -68 20 -101.5t74 -33.5q66 0 153 73v955h219v-1184h-219v117q-141 -133 -288 -133q-97 0 -138 69.5t-41 171.5zM172 1688h220l116 -406h-108z" />
<glyph unicode="&#xfa;" horiz-adv-x="901" d="M102 225v959h220v-893q0 -68 20 -101.5t74 -33.5q66 0 153 73v955h219v-1184h-219v117q-141 -133 -288 -133q-97 0 -138 69.5t-41 171.5zM394 1282l120 406h220l-230 -406h-110z" />
<glyph unicode="&#xfb;" horiz-adv-x="901" d="M102 225v959h220v-893q0 -68 20 -101.5t74 -33.5q66 0 153 73v955h219v-1184h-219v117q-141 -133 -288 -133q-97 0 -138 69.5t-41 171.5zM162 1300l176 359h224l178 -359h-166l-125 248l-123 -248h-164z" />
<glyph unicode="&#xfc;" horiz-adv-x="901" d="M102 225v959h220v-893q0 -68 20 -101.5t74 -33.5q66 0 153 73v955h219v-1184h-219v117q-141 -133 -288 -133q-97 0 -138 69.5t-41 171.5zM164 1432v227h221v-227h-221zM517 1432v227h221v-227h-221z" />
<glyph unicode="&#xfd;" horiz-adv-x="802" d="M25 1184h221l160 -885l153 885h221l-282 -1250q-29 -125 -121 -178t-258 -53h-27v168q123 0 169 18.5t46 69.5q0 12 -8 53l-27 123l-10 41q-102 426 -237 1008zM344 1282l120 406h220l-230 -406h-110z" />
<glyph unicode="&#xfe;" horiz-adv-x="915" d="M113 -389v2048h219v-569q96 111 225 110q162 0 216 -138t54 -306v-287q0 -217 -66.5 -351t-228.5 -134q-104 0 -200 104v-477h-219zM332 209q72 -53 157 -53q76 0 97.5 77.5t21.5 235.5v287q0 131 -25.5 201.5t-103.5 70.5q-74 0 -147 -61v-758z" />
<glyph unicode="&#xff;" horiz-adv-x="802" d="M25 1184h221l160 -885l153 885h221l-282 -1250q-29 -125 -121 -178t-258 -53h-27v168q123 0 169 18.5t46 69.5q0 12 -8 53l-27 123l-10 41q-102 426 -237 1008zM114 1432v227h221v-227h-221zM467 1432v227h221v-227h-221z" />
<glyph unicode="&#x104;" horiz-adv-x="1007" d="M39 0l352 1659h223l355 -1659h-219l-76 418h-338l-80 -418h-217zM367 584h276l-139 747zM600 -297q0 63 34 125.5t87.5 109t106.5 62.5h110q-70 -59 -121 -130t-51 -134q0 -98 164 -98q29 0 66 4l-37 -109q-35 -6 -74 -6q-133 0 -209 36t-76 140z" />
<glyph unicode="&#x105;" horiz-adv-x="872" d="M86 258q0 139 59.5 226t150.5 137.5t257 117.5v84q0 117 -23.5 165t-95.5 48q-125 0 -125 -168v-59l-217 8l2 43q10 178 99.5 259t255.5 81q170 0 246.5 -93t76.5 -282v-540q0 -133 21 -285h-33q-70 -59 -121 -130t-51 -134q0 -98 164 -98q28 0 65 4l-37 -109 q-35 -6 -73 -6q-133 0 -209 36t-76 140q0 63 33.5 125.5t87 109t106.5 62.5h-57q-23 117 -29 174q-25 -80 -85 -135t-154 -55q-68 0 -122.5 38.5t-85 102t-30.5 133.5zM305 326q0 -74 26.5 -114t78.5 -40q43 0 84 34t59 64v336q-90 -53 -135 -82.5t-79 -80t-34 -117.5z" />
<glyph unicode="&#x106;" horiz-adv-x="1054" d="M98 532v586q0 272 98.5 413.5t348.5 141.5q223 0 320.5 -120.5t97.5 -356.5v-131h-220v117q0 115 -10 176t-52 98t-134 37q-94 0 -140.5 -40t-60.5 -110.5t-14 -189.5v-657q0 -127 20.5 -199t66.5 -102.5t128 -30.5q88 0 131 39t54 106.5t11 184.5v122h220v-122 q0 -248 -93.5 -380t-324.5 -132q-246 0 -346.5 146t-100.5 404zM471 1757l120 406h220l-230 -406h-110z" />
<glyph unicode="&#x107;" horiz-adv-x="841" d="M88 455v272q0 160 27.5 262.5t103.5 156.5t215 54q127 0 197.5 -41t98.5 -122t28 -210v-69h-199v71q0 117 -25.5 163t-97.5 46q-55 0 -81.5 -24.5t-37 -79.5t-10.5 -162v-373q0 -102 12.5 -156.5t40 -76t78.5 -21.5q76 0 98.5 50.5t22.5 154.5v96h199v-81 q0 -193 -71 -287t-253 -94q-139 0 -215 56t-103.5 157.5t-27.5 257.5zM365 1282l120 406h220l-230 -406h-110z" />
<glyph unicode="&#x118;" horiz-adv-x="833" d="M129 0v1659h643v-172h-412v-549h334v-164h-334v-608h416v-166h-647zM366 -297q0 63 34 125.5t87.5 109t106.5 62.5h110q-70 -59 -121 -130t-51 -134q0 -98 164 -98q29 0 66 4l-37 -109q-35 -6 -74 -6q-133 0 -209 36t-76 140z" />
<glyph unicode="&#x119;" horiz-adv-x="862" d="M88 457v270q0 246 77 359.5t273 113.5q143 0 216 -59.5t96.5 -167t23.5 -289.5v-96h-467v-158q0 -106 5 -159.5t33 -89.5t91 -36q72 0 97.5 48.5t25.5 146.5v72h213v-45q0 -158 -56.5 -253.5t-178.5 -119.5q-59 -57 -100.5 -119.5t-41.5 -118.5q0 -98 164 -98q29 0 66 4 l-37 -108q-33 -6 -74 -7q-133 0 -209 36t-76 141q0 74 45 145.5t111 116.5q-168 14 -232.5 127.5t-64.5 343.5zM307 707h252v106q0 121 -23.5 173t-99.5 52q-53 0 -80.5 -24.5t-38 -80.5t-10.5 -163v-63z" />
<glyph unicode="&#x131;" horiz-adv-x="458" d="M125 0v1184h219v-1184h-219z" />
<glyph unicode="&#x141;" horiz-adv-x="813" d="M-12 694v178l141 78v709h231v-580l215 117v-176l-215 -119v-735h424v-166h-655v772z" />
<glyph unicode="&#x142;" horiz-adv-x="546" d="M35 784v172l139 66v637h219v-537l125 62v-170l-125 -62v-952h-219v852z" />
<glyph unicode="&#x143;" horiz-adv-x="1081" d="M129 0v1659h158l471 -1102v1102h192v-1659h-147l-477 1133v-1133h-197zM484 1757l120 406h220l-230 -406h-110z" />
<glyph unicode="&#x144;" horiz-adv-x="899" d="M111 0v1184h219v-117q141 133 288 133q96 0 137.5 -69.5t41.5 -172.5v-958h-219v895q0 68 -20.5 100.5t-74.5 32.5q-66 0 -153 -74v-954h-219zM394 1282l120 406h220l-230 -406h-110z" />
<glyph unicode="&#x152;" horiz-adv-x="1398" d="M98 506v612q0 272 110.5 406.5t364.5 134.5h766v-172h-403v-547h328v-166h-328v-608h407v-166h-753q-182 0 -291 55.5t-155 166t-46 284.5zM332 530q0 -139 17.5 -212.5t72.5 -109.5t172 -36h111v1321h-115q-121 0 -176.5 -46t-68.5 -128t-13 -244v-545z" />
<glyph unicode="&#x153;" horiz-adv-x="1402" d="M117 416v352q0 211 76.5 321.5t259.5 110.5q176 0 249 -139q33 66 102.5 102.5t166.5 36.5q129 0 197.5 -56.5t93 -164t24.5 -283.5v-100h-475v-74q0 -115 5 -182.5t34 -120.5t90 -55q68 -4 97.5 34t29.5 134v80h219v-78q0 -178 -79 -264t-244 -86q-199 0 -261 143 q-66 -143 -239 -143q-189 0 -267.5 110.5t-78.5 321.5zM336 416q0 -84 6 -134.5t33.5 -84t87.5 -33.5q59 0 87 33.5t35 84t7 134.5v352q0 84 -7 135t-35 85t-87 34t-86 -34t-34 -85t-7 -135v-352zM811 707h256v63q0 121 -23.5 186.5t-103.5 65.5q-78 0 -103.5 -66.5 t-25.5 -185.5v-63z" />
<glyph unicode="&#x15a;" horiz-adv-x="968" d="M80 465l205 55q10 -160 62 -258t173 -98q90 0 136 50t46 144q0 100 -43 167t-137 153l-278 246q-84 76 -122 160.5t-38 205.5q0 184 106.5 283.5t292.5 99.5q195 0 291 -104.5t117 -323.5l-197 -53q-10 141 -53 222t-152 81q-199 0 -198 -182q0 -74 24.5 -122t83.5 -104 l281 -245q109 -100 173.5 -212t64.5 -253q0 -182 -111 -288.5t-287 -106.5q-209 0 -318.5 129t-121.5 354zM428 1757l120 406h220l-230 -406h-110z" />
<glyph unicode="&#x15b;" horiz-adv-x="765" d="M51 315l182 56q14 -115 52.5 -170.5t107.5 -55.5q57 0 94 36t37 91q0 92 -96 174l-203 175q-70 59 -107.5 123.5t-37.5 158.5q0 141 82 219t223 78q135 0 212 -87t89 -224l-147 -55q-14 100 -47 152t-99 52q-53 0 -86 -34.5t-31 -85.5q0 -68 60 -119l209 -193 q78 -70 123 -143.5t45 -175.5q0 -147 -88 -225t-240 -78q-143 0 -232.5 90t-101.5 241zM326 1282l120 406h220l-230 -406h-110z" />
<glyph unicode="&#x178;" horiz-adv-x="985" d="M25 1659h215l254 -801l249 801h218l-357 -1073v-586h-221v586zM207 1907v227h221v-227h-221zM560 1907v227h221v-227h-221z" />
<glyph unicode="&#x179;" horiz-adv-x="854" d="M78 0v166l487 1327h-456v166h702v-100l-514 -1393h514v-166h-733zM371 1757l120 406h220l-230 -406h-110z" />
<glyph unicode="&#x17a;" horiz-adv-x="710" d="M66 0v147l362 873h-326v164h562v-119l-365 -899h356v-166h-589zM299 1282l120 406h220l-230 -406h-110z" />
<glyph unicode="&#x17b;" horiz-adv-x="854" d="M78 0v166l487 1327h-456v166h702v-100l-514 -1393h514v-166h-733zM317 1849v244h222v-244h-222z" />
<glyph unicode="&#x17c;" horiz-adv-x="710" d="M66 0v147l362 873h-326v164h562v-119l-365 -899h356v-166h-589zM245 1374v244h222v-244h-222z" />
<glyph unicode="&#x192;" horiz-adv-x="778" d="M-2 -231l16 161q57 -10 80 -10q59 0 83 38t34 116l98 948h-135v162h154l8 73q10 117 37.5 190t88 112.5t167.5 39.5q47 0 139 -10l-16 -164q-16 2 -41 6.5t-37 4.5q-59 0 -85 -38t-34 -116l-8 -98h155v-162h-174l-98 -924q-12 -119 -38.5 -191.5t-87 -111.5t-167.5 -39 q-57 1 -139 13z" />
<glyph unicode="&#x2c6;" horiz-adv-x="702" d="M63 1274l177 385h223l178 -385h-166l-125 274l-123 -274h-164z" />
<glyph unicode="&#x2c7;" horiz-adv-x="690" d="M61 1659h166l119 -240l119 240h166l-178 -354h-215z" />
<glyph unicode="&#x2d8;" horiz-adv-x="712" d="M88 1659h127q2 -98 34 -139t107 -41q76 0 109 42t33 138h129q0 -145 -58.5 -225t-212.5 -80q-151 0 -209.5 79.5t-58.5 225.5z" />
<glyph unicode="&#x2d9;" horiz-adv-x="352" d="M66 1337v230h223v-230h-223z" />
<glyph unicode="&#x2da;" horiz-adv-x="591" d="M68 1450q0 104 62.5 165.5t166.5 61.5q102 0 164.5 -61.5t62.5 -165.5t-62.5 -166.5t-164.5 -62.5t-165.5 62.5t-63.5 166.5zM178 1450q0 -55 32 -87t87 -32q53 0 85 32t32 87t-32 87t-85 32q-55 0 -87 -31t-32 -88z" />
<glyph unicode="&#x2db;" horiz-adv-x="722" d="M163 -297q0 63 34 125.5t87.5 109t106.5 62.5h110q-70 -59 -121 -130t-51 -134q0 -98 164 -98q29 0 66 4l-37 -109q-35 -6 -74 -6q-133 0 -209 36t-76 140z" />
<glyph unicode="&#x2dc;" d="M127 1450q0 227 176 221q37 0 76 -15.5t96 -43.5q29 -14 54.5 -26.5t39.5 -12.5q25 0 36 19.5t11 66.5h123q0 -225 -166 -225q-36 0 -75 15t-92 44q-6 4 -32 16.5t-44.5 18.5t-30.5 6q-25 0 -36 -19.5t-11 -64.5h-125z" />
<glyph unicode="&#x2dd;" horiz-adv-x="819" d="M111 1311l80 350h180l-150 -350h-110zM369 1311l119 350h221l-227 -350h-113z" />
<glyph unicode="&#x3c0;" horiz-adv-x="1079" d="M35 1020v164h964v-164h-161v-660q0 -90 12 -133t44 -59t95 -16l-14 -170q-199 0 -278 72.5t-79 234.5v731h-231v-1020h-217v1020h-135z" />
<glyph unicode="&#x400;" horiz-adv-x="831" d="M129 0v1659h643v-172h-412v-549h334v-164h-334v-608h416v-166h-647zM194 2163h220l116 -406h-108z" />
<glyph unicode="&#x401;" horiz-adv-x="831" d="M129 0v1659h643v-172h-412v-549h334v-164h-334v-608h416v-166h-647zM186 1907v227h221v-227h-221zM539 1907v227h221v-227h-221z" />
<glyph unicode="&#x402;" horiz-adv-x="1120" d="M20 1487v172h730v-172h-265v-588q37 33 91.5 51.5t115.5 18.5q86 0 163 -36t126 -112t49 -186v-199q0 -225 -96 -330.5t-285 -105.5h-37v166q117 0 158 72.5t41 197.5v193q0 78 -44 131t-126 53q-72 0 -156 -43v-770h-227v1487h-238z" />
<glyph unicode="&#x403;" horiz-adv-x="790" d="M129 0v1659h631v-172h-400v-1487h-231zM338 1757l120 406h220l-230 -406h-110z" />
<glyph unicode="&#x404;" horiz-adv-x="1030" d="M98 532v586q0 272 98.5 413.5t348.5 141.5q223 0 320.5 -120.5t97.5 -356.5v-59h-220v45q0 115 -10 176t-52 98t-134 37q-94 0 -140.5 -40t-60.5 -110.5t-14 -189.5v-213h409v-160h-409v-284q0 -127 20.5 -199t66.5 -102.5t128 -30.5q88 0 131 39t54 106.5t11 184.5v67 h220v-67q0 -248 -93.5 -380t-324.5 -132q-246 0 -346.5 146t-100.5 404z" />
<glyph unicode="&#x405;" horiz-adv-x="958" d="M80 465l205 55q10 -160 62 -258t173 -98q90 0 136 50t46 144q0 100 -43 167t-137 153l-278 246q-84 76 -122 160.5t-38 205.5q0 184 106.5 283.5t292.5 99.5q195 0 291 -104.5t117 -323.5l-197 -53q-10 141 -53 222t-152 81q-199 0 -198 -182q0 -74 24.5 -122t83.5 -104 l281 -245q109 -100 173.5 -212t64.5 -253q0 -182 -111 -288.5t-287 -106.5q-209 0 -318.5 129t-121.5 354z" />
<glyph unicode="&#x406;" horiz-adv-x="507" d="M141 0v1659h228v-1659h-228z" />
<glyph unicode="&#x407;" horiz-adv-x="507" d="M-33 1907v227h221v-227h-221zM141 0v1659h228v-1659h-228zM320 1907v227h221v-227h-221z" />
<glyph unicode="&#x408;" horiz-adv-x="616" d="M14 -39v166q104 0 154.5 19.5t69 71.5t18.5 161v1280h229v-1284q0 -150 -30.5 -239t-109.5 -132t-220 -43h-111z" />
<glyph unicode="&#x409;" horiz-adv-x="1712" d="M29 0v172q88 -6 140 40t82 167t46 352l51 928h733v-690h31q188 0 303 -43t172.5 -147.5t57.5 -293.5q0 -256 -125 -370.5t-396 -114.5h-274v1487h-297l-45 -756q-14 -264 -59.5 -424t-134.5 -236.5t-240 -72.5zM1081 166h43q111 0 175.5 24.5t96 94t31.5 202.5 q0 115 -28.5 182.5t-95 99.5t-183.5 32h-39v-635z" />
<glyph unicode="&#x40a;" horiz-adv-x="1601" d="M129 0v1661h231v-694h388v694h233v-692h33q188 0 302 -43t171 -147.5t57 -293.5q0 -256 -125 -370.5t-395 -114.5h-276v801h-388v-801h-231zM981 166h43q111 0 175.5 24.5t96 94t31.5 202.5q0 115 -28.5 182.5t-94 99.5t-182.5 32h-41v-635z" />
<glyph unicode="&#x40b;" horiz-adv-x="1024" d="M-10 1487v172h735v-172h-268v-588q98 66 221 66q106 0 175 -53.5t69 -143.5v-768h-220v719q0 53 -21.5 79.5t-74.5 26.5q-47 0 -87 -19.5t-62 -35.5v-770h-226v1487h-241z" />
<glyph unicode="&#x40c;" horiz-adv-x="1040" d="M129 0v1659h231v-737h86l297 737h232l-328 -789l369 -870h-232l-335 809h-89v-809h-231zM463 1757l120 406h220l-230 -406h-110z" />
<glyph unicode="&#x40d;" horiz-adv-x="1116" d="M129 0v1659h205v-1149l485 1149h166v-1659h-203v1167l-481 -1167h-172zM299 2163h220l116 -406h-108z" />
<glyph unicode="&#x40e;" horiz-adv-x="925" d="M39 1659h219l139 -707l84 -526l74 522l125 711h221l-297 -1479l-16 -92q-27 -145 -52.5 -210.5t-97 -99.5t-221.5 -34q-27 0 -108 4v178q55 -6 96 -6q100 0 138 33t38 104q0 41 -14 127zM195 2066h127q2 -78 34.5 -115.5t106.5 -37.5q141 0 141 153h129 q0 -127 -64.5 -202.5t-205.5 -75.5q-139 0 -203.5 75.5t-64.5 202.5z" />
<glyph unicode="&#x40f;" horiz-adv-x="1120" d="M129 0v1659h231v-1493h400v1493h229v-1659h-323l-15 -301h-174l-14 301h-334z" />
<glyph unicode="&#x410;" horiz-adv-x="1005" d="M37 0l354 1659h221l357 -1659h-221l-76 418h-338l-78 -418h-219zM365 584h276l-137 747z" />
<glyph unicode="&#x411;" horiz-adv-x="1011" d="M129 0v1659h713v-168h-482v-522h52q188 0 302.5 -43t172 -147.5t57.5 -293.5q0 -256 -125 -370.5t-395 -114.5h-295zM360 166h66q111 0 173.5 24.5t94 94t31.5 202.5q0 117 -27.5 183.5t-94 98.5t-183.5 32h-60v-635z" />
<glyph unicode="&#x412;" horiz-adv-x="1073" d="M129 0v1659h381q225 0 333.5 -101.5t108.5 -314.5q0 -317 -237 -350q147 -35 214.5 -138.5t67.5 -281.5q0 -223 -105.5 -348t-320.5 -125h-442zM360 166h156q102 0 158.5 31.5t79 97t22.5 178.5q0 160 -65.5 239t-212.5 79h-138v-625zM360 967h138q143 0 198.5 62.5 t55.5 213.5q0 111 -34 163t-101.5 66.5t-200.5 14.5h-56v-520z" />
<glyph unicode="&#x413;" horiz-adv-x="790" d="M129 0v1659h631v-172h-400v-1487h-231z" />
<glyph unicode="&#x414;" horiz-adv-x="1284" d="M23 166h75q72 59 120 149.5t86 292t54 559.5l27 492h694v-1493h160v-467h-178l-19 301h-823l-18 -301h-178v467zM313 166h537v1321h-268l-17 -375q-14 -346 -49 -532.5t-80 -263t-123 -150.5z" />
<glyph unicode="&#x415;" horiz-adv-x="831" d="M129 0v1659h643v-172h-412v-549h334v-164h-334v-608h416v-166h-647z" />
<glyph unicode="&#x416;" horiz-adv-x="1384" d="M8 0l385 848l-346 811h223l312 -801h12v801h197v-801h14l309 801h225l-348 -811l387 -848h-227l-344 829h-16v-829h-197v829h-14l-347 -829h-225z" />
<glyph unicode="&#x417;" horiz-adv-x="983" d="M51 1194v55q0 199 110.5 311.5t311.5 112.5q203 0 315.5 -114.5t112.5 -313.5q0 -147 -63.5 -242.5t-173.5 -125.5q113 -37 175 -140.5t62 -269.5q0 -485 -409 -485q-199 0 -302.5 111.5t-103.5 314.5v55h217q0 -41 2 -57q4 -117 44 -179.5t143 -62.5q111 0 150.5 75.5 t39.5 227.5q0 141 -61.5 221t-212.5 90q-16 2 -64 2v176q45 0 59 2q154 8 216.5 79t62.5 208q0 119 -47 184.5t-154 65.5q-104 0 -153 -64.5t-58 -183.5v-53h-219z" />
<glyph unicode="&#x418;" horiz-adv-x="1116" d="M129 0v1659h205v-1149l485 1149h166v-1659h-203v1167l-481 -1167h-172z" />
<glyph unicode="&#x419;" horiz-adv-x="1116" d="M129 0v1659h205v-1149l485 1149h166v-1659h-203v1167l-481 -1167h-172zM310 2066h127q2 -78 34.5 -115.5t106.5 -37.5q141 0 141 153h129q0 -127 -64.5 -202.5t-205.5 -75.5q-139 0 -203.5 75.5t-64.5 202.5z" />
<glyph unicode="&#x41a;" horiz-adv-x="1040" d="M129 0v1659h231v-737h86l297 737h232l-328 -789l369 -870h-232l-335 809h-89v-809h-231z" />
<glyph unicode="&#x41b;" horiz-adv-x="1189" d="M4 0v172q88 -2 137 33t82 164t51 407l56 883h729v-1659h-232v1487h-299l-39 -711q-16 -279 -55 -442.5t-127 -249.5t-250 -86q-35 0 -53 2z" />
<glyph unicode="&#x41c;" horiz-adv-x="1351" d="M125 0l31 1659h209l311 -1278l311 1278h209l31 -1659h-183l-12 1116l-291 -1116h-131l-288 1116l-13 -1116h-184z" />
<glyph unicode="&#x41d;" horiz-adv-x="1148" d="M129 0v1659h231v-717h426v717h232v-1659h-232v776h-426v-776h-231z" />
<glyph unicode="&#x41e;" horiz-adv-x="1105" d="M98 520v629q0 258 106.5 391t348.5 133t348.5 -134t106.5 -390v-631q0 -258 -106.5 -397t-348.5 -139q-244 0 -349.5 138t-105.5 400zM332 469q0 -154 45 -229.5t176 -75.5t176 75.5t45 229.5v727q0 152 -45 224.5t-176 72.5t-176 -72.5t-45 -224.5v-727z" />
<glyph unicode="&#x41f;" horiz-adv-x="1171" d="M129 0v1659h913v-1659h-231v1493h-451v-1493h-231z" />
<glyph unicode="&#x420;" horiz-adv-x="980" d="M129 0v1659h412q215 0 312 -117t97 -342q0 -203 -104.5 -315.5t-302.5 -112.5h-183v-772h-231zM360 938h107q102 0 158.5 22.5t81 78t24.5 159.5q0 127 -18.5 186.5t-72.5 84t-171 24.5h-109v-555z" />
<glyph unicode="&#x421;" horiz-adv-x="1052" d="M98 532v586q0 272 98.5 413.5t348.5 141.5q223 0 320.5 -120.5t97.5 -356.5v-131h-220v117q0 115 -10 176t-52 98t-134 37q-94 0 -140.5 -40t-60.5 -110.5t-14 -189.5v-657q0 -127 20.5 -199t66.5 -102.5t128 -30.5q88 0 131 39t54 106.5t11 184.5v122h220v-122 q0 -248 -93.5 -380t-324.5 -132q-246 0 -346.5 146t-100.5 404z" />
<glyph unicode="&#x422;" horiz-adv-x="823" d="M2 1487v172h825v-172h-290v-1487h-232v1487h-303z" />
<glyph unicode="&#x423;" horiz-adv-x="925" d="M39 1659h219l139 -707l84 -526l74 522l125 711h221l-297 -1479l-16 -92q-27 -145 -52.5 -210.5t-97 -99.5t-221.5 -34q-27 0 -108 4v178q55 -6 96 -6q100 0 138 33t38 104q0 41 -14 127z" />
<glyph unicode="&#x424;" horiz-adv-x="1355" d="M98 637v414q0 238 91.5 340t269.5 102q59 0 100 -4v319h232v-319q53 4 104 4q180 0 271 -102.5t91 -339.5v-414q0 -236 -88 -337t-245 -101q-66 0 -133 6v-279h-232v279q-43 -6 -72 -6q-197 0 -293 97t-96 341zM309 637q0 -127 14.5 -188.5t54.5 -86t124 -24.5q32 0 57 4 v1008q-49 4 -72 4q-70 0 -107.5 -27t-54 -91.5t-16.5 -184.5v-414zM791 342q37 -4 75 -4q74 0 112 24.5t53.5 88t15.5 186.5v414q0 125 -14.5 187t-53.5 89t-117 27q-31 0 -71 -4v-1008z" />
<glyph unicode="&#x425;" horiz-adv-x="987" d="M27 0l346 868l-340 791h215l252 -586l229 586h215l-348 -809l365 -850h-216l-270 625l-233 -625h-215z" />
<glyph unicode="&#x426;" horiz-adv-x="1273" d="M129 0v1659h231v-1493h471v1493h232v-1493h158v-467h-179l-18 301h-895z" />
<glyph unicode="&#x427;" horiz-adv-x="1101" d="M100 1120v539h209v-539q0 -121 53.5 -177t178.5 -56q88 0 198 24v748h234v-1659h-234v766q-135 -31 -243 -31q-395 0 -396 385z" />
<glyph unicode="&#x428;" horiz-adv-x="1536" d="M129 0v1659h231v-1491h299v1491h232v-1491h285v1491h231v-1659h-1278z" />
<glyph unicode="&#x429;" horiz-adv-x="1617" d="M129 0v1659h231v-1493h299v1493h232v-1493h285v1493h233v-1493h158v-467h-181l-18 301h-1239z" />
<glyph unicode="&#x42a;" horiz-adv-x="1161" d="M10 1483v176h500v-690h63q188 0 304 -43t173.5 -147.5t57.5 -293.5q0 -254 -126 -369.5t-396 -115.5h-307v1483h-269zM510 166h78q111 0 174 24.5t95 94t32 202.5q0 115 -29 182.5t-95.5 99.5t-182.5 32h-72v-635z" />
<glyph unicode="&#x42b;" horiz-adv-x="1490" d="M129 0v1659h231v-690h66q188 0 302 -43t171 -147.5t57 -293.5q0 -256 -124.5 -370.5t-395.5 -114.5h-307zM360 166h76q111 0 175.5 24.5t96 94t31.5 202.5q0 115 -28.5 182.5t-95 99.5t-183.5 32h-72v-635zM1128 0v1659h232v-1659h-232z" />
<glyph unicode="&#x42c;" horiz-adv-x="1011" d="M129 0v1659h231v-690h66q188 0 302 -43t171 -147.5t57 -293.5q0 -256 -124.5 -370.5t-395.5 -114.5h-307zM360 166h76q111 0 175.5 24.5t96 94t31.5 202.5q0 115 -28.5 182.5t-95 99.5t-183.5 32h-72v-635z" />
<glyph unicode="&#x42d;" horiz-adv-x="1062" d="M100 481v82h219v-65q0 -113 10.5 -175.5t53.5 -100.5t135 -38t138 41t60.5 113t14.5 190v263h-291v151h291v242q0 127 -20.5 198.5t-66.5 102.5t-126 31q-88 0 -131 -39t-55.5 -106.5t-12.5 -184.5v-72h-219v74q0 248 94.5 379t325.5 131q246 0 345.5 -146.5t99.5 -404.5 v-586q0 -274 -98.5 -415.5t-346.5 -141.5q-225 0 -322.5 121t-97.5 356z" />
<glyph unicode="&#x42e;" horiz-adv-x="1472" d="M129 0v1659h217v-723h189v207q0 262 95 396t324 134q227 0 323.5 -135t96.5 -395v-619q0 -262 -96 -402t-324 -140q-227 0 -323 139t-96 403v236h-189v-760h-217zM741 469q0 -154 44 -229.5t169 -75.5q123 0 167 75.5t44 229.5v727q0 152 -43 224.5t-168 72.5t-169 -72.5 t-44 -224.5v-727z" />
<glyph unicode="&#x42f;" horiz-adv-x="1116" d="M27 0l348 745q-115 51 -179.5 166t-64.5 289q0 459 520 459h336v-1659h-231v688h-131l-54 2l-286 -690h-258zM350 1202q0 -180 74 -264t246 -84h86v639h-92q-160 0 -237 -68.5t-77 -222.5z" />
<glyph unicode="&#x430;" horiz-adv-x="872" d="M86 258q0 139 59.5 226t150.5 137.5t257 117.5v84q0 117 -23.5 165t-95.5 48q-125 0 -125 -168v-59l-217 8l2 43q10 178 99.5 259t255.5 81q170 0 246.5 -93t76.5 -282v-540q0 -133 21 -285h-201q-23 117 -29 174q-25 -80 -85 -135t-154 -55q-68 0 -122.5 38.5t-85 102 t-30.5 133.5zM305 326q0 -74 26.5 -114t78.5 -40q43 0 84 34t59 64v336q-90 -53 -135 -82.5t-79 -80t-34 -117.5z" />
<glyph unicode="&#x431;" horiz-adv-x="897" d="M106 393v697q0 156 24 253t74 154t134 92q61 25 190 58q74 18 122 33.5t100 45.5l45 -182q-45 -27 -96.5 -43t-123.5 -33q-10 -2 -67 -16t-102 -35q-61 -31 -93 -90t-32 -158v-190q43 41 117.5 73.5t140.5 32.5q121 0 195.5 -100t74.5 -323v-226q0 -178 -46 -277.5 t-127 -137t-200 -37.5q-155 0 -242.5 105.5t-87.5 303.5zM326 387q0 -131 30.5 -186.5t104.5 -55.5q67 0 97 51.5t30 172.5v358q0 113 -23.5 161t-81.5 48q-68 0 -157 -62v-487z" />
<glyph unicode="&#x432;" horiz-adv-x="849" d="M111 0v1184h331q170 0 245 -82t75 -211q0 -94 -35 -156.5t-121 -89.5q100 -20 142.5 -102t42.5 -199q0 -168 -76 -256t-262 -88h-342zM326 166h77q82 0 127 39t45 147q0 88 -20 130t-53 54.5t-88 12.5h-88v-383zM326 707h106q68 0 102.5 38.5t34.5 128.5q0 80 -41 115 t-118 35h-84v-317z" />
<glyph unicode="&#x433;" horiz-adv-x="593" d="M111 0v1184h477v-158h-258v-1026h-219z" />
<glyph unicode="&#x434;" horiz-adv-x="1015" d="M4 145q90 68 151.5 168.5t98.5 274.5t39 440l4 156h534v-1028h144v-457h-160l-18 301h-615l-18 -301h-160v446zM217 156h404v870h-154l-4 -43q-2 -274 -35 -441t-84 -251t-127 -135z" />
<glyph unicode="&#x435;" horiz-adv-x="864" d="M88 457v270q0 246 77 359.5t273 113.5q143 0 216 -59.5t96.5 -167t23.5 -289.5v-96h-467v-158q0 -106 5 -159.5t33 -89.5t91 -36q72 0 97.5 48.5t25.5 146.5v72h213v-45q0 -186 -80 -284.5t-254 -98.5q-137 0 -212.5 52t-106.5 154.5t-31 266.5zM307 707h252v106 q0 121 -23.5 173t-99.5 52q-53 0 -80.5 -24.5t-38 -80.5t-10.5 -163v-63z" />
<glyph unicode="&#x436;" horiz-adv-x="1185" d="M8 0l297 604l-278 580h209l251 -570h17v570h180v-570h16l250 570h209l-278 -580l297 -604h-203l-275 582h-16v-582h-180v582h-19l-274 -582h-203z" />
<glyph unicode="&#x437;" horiz-adv-x="768" d="M59 844q0 190 85 273t245 83q154 0 232.5 -90t78.5 -221q0 -141 -59 -203.5t-139 -71.5q59 -12 100 -33.5t70.5 -82t29.5 -174.5q0 -170 -77.5 -257t-235.5 -87q-162 0 -238.5 93t-76.5 289h186q0 -119 34 -173t99 -54q74 0 95.5 53.5t21.5 165.5q0 78 -21.5 115 t-70.5 50t-148 13v156q96 0 148.5 19.5t72 59.5t19.5 112q0 80 -36 119.5t-93 39.5q-68 0 -101.5 -42t-33.5 -152h-187z" />
<glyph unicode="&#x438;" horiz-adv-x="935" d="M111 0v1184h184v-797l356 797h172v-1184h-180v803l-354 -803h-178z" />
<glyph unicode="&#x439;" horiz-adv-x="935" d="M111 0v1184h184v-797l356 797h172v-1184h-180v803l-354 -803h-178zM205 1591h127q2 -78 34.5 -115.5t106.5 -37.5q141 0 141 153h129q0 -127 -64.5 -202.5t-205.5 -75.5q-139 0 -203.5 75.5t-64.5 202.5z" />
<glyph unicode="&#x43a;" horiz-adv-x="849" d="M111 0v1184h219v-500h61l223 500h226l-248 -574l252 -610h-230l-223 553h-61v-553h-219z" />
<glyph unicode="&#x43b;" horiz-adv-x="993" d="M35 -10v166q82 0 120 44t53 144t28 326l26 514h621v-1184h-219v1018h-209l-19 -348q-14 -285 -47 -425.5t-107.5 -197.5t-222.5 -57h-24z" />
<glyph unicode="&#x43c;" horiz-adv-x="1083" d="M104 0l13 1184h162l262 -727l264 727h162l12 -1184h-184v707l-220 -590h-67l-219 585v-702h-185z" />
<glyph unicode="&#x43d;" horiz-adv-x="940" d="M111 0v1184h219v-498h280v498h219v-1184h-219v526h-280v-526h-219z" />
<glyph unicode="&#x43e;" d="M88 420v344q0 213 79 324.5t267 111.5q186 0 265 -111.5t79 -324.5v-344q0 -213 -78.5 -324.5t-265.5 -111.5q-188 0 -267 111.5t-79 324.5zM307 406q0 -88 6 -139.5t34 -86.5t87 -35q60 0 86.5 35t32.5 86t6 140v370q0 88 -6 140.5t-32.5 87t-86.5 34.5q-59 0 -87 -34.5 t-34 -87t-6 -140.5v-370z" />
<glyph unicode="&#x43f;" horiz-adv-x="909" d="M111 0v1184h688v-1184h-219v1018h-250v-1018h-219z" />
<glyph unicode="&#x440;" horiz-adv-x="913" d="M111 -389v1573h219v-94q96 111 225 110q162 0 216 -138t54 -306v-287q0 -217 -66.5 -351t-228.5 -134q-104 0 -200 104v-477h-219zM330 209q72 -53 157 -53q76 0 97.5 76.5t21.5 236.5v287q0 131 -24.5 201.5t-102.5 70.5q-76 0 -149 -61v-758z" />
<glyph unicode="&#x441;" horiz-adv-x="831" d="M88 455v272q0 160 27.5 262.5t103.5 156.5t215 54q127 0 197.5 -41t98.5 -122t28 -210v-69h-199v71q0 117 -25.5 163t-97.5 46q-55 0 -81.5 -24.5t-37 -79.5t-10.5 -162v-373q0 -102 12.5 -156.5t40 -76t78.5 -21.5q76 0 98.5 50.5t22.5 154.5v96h199v-81 q0 -193 -71 -287t-253 -94q-139 0 -215 56t-103.5 157.5t-27.5 257.5z" />
<glyph unicode="&#x442;" horiz-adv-x="708" d="M23 1020v164h663v-164h-223v-1020h-219v1020h-221z" />
<glyph unicode="&#x443;" horiz-adv-x="811" d="M33 1184h203l116 -617l62 -372l49 372l96 617h213l-256 -1186q-25 -125 -80 -189.5t-135 -86t-201 -23.5v180q104 2 147.5 27.5t43.5 95.5q0 39 -12 96z" />
<glyph unicode="&#x444;" horiz-adv-x="1241" d="M88 518v213q0 217 112.5 324.5t291.5 107.5h26v496h203v-496h35q176 0 286.5 -106.5t110.5 -325.5v-213q0 -258 -116.5 -355t-286.5 -97h-29v-455h-203v455h-20q-170 0 -290 97t-120 355zM287 520q0 -170 52 -234.5t165 -64.5h14v799h-20q-104 0 -157.5 -55.5 t-53.5 -200.5v-244zM721 221h12q113 0 167 64.5t54 234.5v244q0 145 -54 200.5t-161 55.5h-18v-799z" />
<glyph unicode="&#x445;" horiz-adv-x="792" d="M18 0l265 623l-260 561h210l173 -375l153 375h215l-268 -588l272 -596h-207l-186 401l-162 -401h-205z" />
<glyph unicode="&#x446;" horiz-adv-x="993" d="M111 0v1184h219v-1028h284v1028h220v-1028h143v-457h-160l-18 301h-688z" />
<glyph unicode="&#x447;" horiz-adv-x="886" d="M76 752v432h219v-434q0 -70 32.5 -104t121.5 -34q41 0 106 11v561h219v-1184h-219v469q-102 -12 -158 -12q-150 0 -235.5 65.5t-85.5 229.5z" />
<glyph unicode="&#x448;" horiz-adv-x="1280" d="M111 0v1184h211v-1028h208v1028h211v-1028h215v1028h213v-1184h-1058z" />
<glyph unicode="&#x449;" horiz-adv-x="1372" d="M111 0v1184h211v-1028h208v1028h211v-1028h217v1028h211v-1028h144v-457h-160l-18 301h-1024z" />
<glyph unicode="&#x44a;" horiz-adv-x="983" d="M-8 1022v162h465v-490h35q170 -2 264 -30.5t138 -103.5t44 -212q0 -131 -45 -205.5t-146.5 -108.5t-277.5 -34h-231v1022h-246zM457 129h12q106 0 163.5 18.5t82 65.5t24.5 137q0 82 -21.5 127t-77.5 66.5t-163 21.5h-20v-436z" />
<glyph unicode="&#x44b;" horiz-adv-x="1275" d="M111 0v1184h219v-490h35q170 -2 264 -31.5t138 -103.5t44 -211q0 -131 -45 -205.5t-146.5 -108.5t-277.5 -34h-231zM330 129h12q106 0 164.5 18.5t83 65.5t24.5 137q0 82 -22.5 127t-77.5 65.5t-162 22.5h-22v-436zM946 0v1184h219v-1184h-219z" />
<glyph unicode="&#x44c;" horiz-adv-x="849" d="M111 0v1184h219v-490h35q170 -2 264 -31.5t138 -103.5t44 -211q0 -131 -45 -205.5t-146.5 -108.5t-277.5 -34h-231zM330 129h12q106 0 164.5 18.5t83 65.5t24.5 137q0 82 -22.5 127t-77.5 65.5t-162 22.5h-22v-436z" />
<glyph unicode="&#x44d;" horiz-adv-x="843" d="M86 350v35h199v-35q0 -115 26.5 -161t96.5 -46q55 0 82.5 26t37 81t9.5 160v120h-283v123h283v129q0 102 -11.5 156.5t-39 76t-78.5 21.5q-76 0 -99.5 -50t-23.5 -150v-58h-199v43q0 190 71.5 283.5t254.5 93.5q139 0 214.5 -56.5t102.5 -156.5t27 -258v-272 q0 -160 -28 -261.5t-103.5 -155.5t-214.5 -54q-127 0 -198 39.5t-98.5 119.5t-27.5 207z" />
<glyph unicode="&#x44e;" horiz-adv-x="1173" d="M111 0v1184h192v-518h164v98q0 215 68.5 325.5t238.5 110.5t238.5 -110.5t68.5 -325.5v-344q0 -215 -68.5 -325.5t-238.5 -110.5t-238.5 110.5t-68.5 325.5v100h-164v-520h-192zM659 406q0 -88 6.5 -139.5t31 -86.5t77.5 -35t78 35t31 86t6 140v370q0 88 -6 140.5t-31 87 t-78 34.5t-77.5 -34.5t-31 -87t-6.5 -140.5v-370z" />
<glyph unicode="&#x44f;" horiz-adv-x="884" d="M20 0l224 502q-162 61 -162 325q0 127 44 205t145.5 115t271.5 37h229v-1184h-217v467q-35 0 -104 4l-195 -471h-236zM279 827q0 -121 54 -176t197 -57h25v465h-23q-143 -2 -198 -53.5t-55 -178.5z" />
<glyph unicode="&#x450;" horiz-adv-x="864" d="M88 457v270q0 246 77 359.5t273 113.5q143 0 216 -59.5t96.5 -167t23.5 -289.5v-96h-467v-158q0 -106 5 -159.5t33 -89.5t91 -36q72 0 97.5 48.5t25.5 146.5v72h213v-45q0 -186 -80 -284.5t-254 -98.5q-137 0 -212.5 52t-106.5 154.5t-31 266.5zM159 1688h220l116 -406 h-108zM307 707h252v106q0 121 -23.5 173t-99.5 52q-53 0 -80.5 -24.5t-38 -80.5t-10.5 -163v-63z" />
<glyph unicode="&#x451;" horiz-adv-x="864" d="M88 457v270q0 246 77 359.5t273 113.5q143 0 216 -59.5t96.5 -167t23.5 -289.5v-96h-467v-158q0 -106 5 -159.5t33 -89.5t91 -36q72 0 97.5 48.5t25.5 146.5v72h213v-45q0 -186 -80 -284.5t-254 -98.5q-137 0 -212.5 52t-106.5 154.5t-31 266.5zM151 1432v227h221v-227 h-221zM307 707h252v106q0 121 -23.5 173t-99.5 52q-53 0 -80.5 -24.5t-38 -80.5t-10.5 -163v-63zM504 1432v227h221v-227h-221z" />
<glyph unicode="&#x452;" horiz-adv-x="935" d="M-20 1264v131h149v264h219v-264h291v-131h-291v-338q31 23 101.5 53.5t158.5 30.5q117 0 170 -58.5t53 -142.5v-600q0 -219 -25.5 -322.5t-102 -145.5t-242.5 -42h-70v145h25q88 0 127 18.5t54 84t15 217.5v592q0 57 -19.5 83.5t-74.5 26.5q-45 0 -100.5 -21.5 t-69.5 -31.5v-813h-219v1264h-149z" />
<glyph unicode="&#x453;" horiz-adv-x="593" d="M111 0v1184h477v-158h-258v-1026h-219zM301 1282l120 406h220l-230 -406h-110z" />
<glyph unicode="&#x454;" horiz-adv-x="813" d="M90 455v272q0 160 27.5 262.5t103.5 156.5t213 54q127 0 197.5 -41t99.5 -121t29 -209v-32h-199v32q0 117 -25.5 163t-97.5 46q-55 0 -81.5 -24.5t-37 -79.5t-10.5 -162v-98h291v-144h-291v-131q0 -102 12.5 -156.5t40 -76t78.5 -21.5q76 0 98.5 50.5t22.5 154.5v56h199 v-41q0 -193 -72 -287t-252 -94q-141 0 -217 56t-102.5 156.5t-26.5 258.5z" />
<glyph unicode="&#x455;" horiz-adv-x="765" d="M51 315l182 56q14 -115 52.5 -170.5t107.5 -55.5q57 0 94 36t37 91q0 92 -96 174l-203 175q-70 59 -107.5 123.5t-37.5 158.5q0 141 82 219t223 78q135 0 212 -87t89 -224l-147 -55q-14 100 -47 152t-99 52q-53 0 -86 -34.5t-31 -85.5q0 -68 60 -119l209 -193 q78 -70 123 -143.5t45 -175.5q0 -147 -88 -225t-240 -78q-143 0 -232.5 90t-101.5 241z" />
<glyph unicode="&#x456;" horiz-adv-x="473" d="M127 0v1184h219v-1184h-219zM129 1337v230h221v-230h-221z" />
<glyph unicode="&#x457;" horiz-adv-x="458" d="M-51 1432v227h221v-227h-221zM125 0v1184h219v-1184h-219zM302 1432v227h221v-227h-221z" />
<glyph unicode="&#x458;" horiz-adv-x="460" d="M-39 -127q43 -6 57 -6q68 0 95.5 38t27.5 105v1174h219v-1196q0 -139 -75.5 -213t-210.5 -74q-80 0 -113 14v158zM141 1360v229h221v-229h-221z" />
<glyph unicode="&#x459;" horiz-adv-x="1349" d="M10 -10v164q82 0 121 46t54.5 146t27.5 313l27 525h618v-500h33q154 0 241 -30.5t125.5 -103.5t38.5 -206q0 -127 -41 -200.5t-134 -107.5t-255 -36h-225v1018h-211l-20 -389q-14 -281 -54.5 -417t-113 -179t-209.5 -43h-23zM858 129h12q90 0 139.5 19.5t70 66.5 t20.5 131q0 78 -18.5 122t-67.5 65.5t-144 21.5h-12v-426z" />
<glyph unicode="&#x45a;" horiz-adv-x="1290" d="M111 0v1184h219v-490h250v490h219v-500h28q160 -2 249 -31.5t130 -101.5t41 -207q0 -127 -42 -200.5t-136 -107.5t-258 -36h-231v547h-250v-547h-219zM799 129h20q90 2 139.5 21.5t71 65.5t21.5 130q0 78 -19.5 121t-69 64.5t-141.5 23.5h-22v-426z" />
<glyph unicode="&#x45b;" horiz-adv-x="935" d="M-20 1264v131h149v264h219v-264h291v-131h-291v-338q31 23 101.5 53.5t158.5 30.5q117 0 170 -58.5t53 -142.5v-809h-219v756q0 57 -19.5 83.5t-74.5 26.5q-35 0 -96.5 -22.5t-73.5 -30.5v-813h-219v1264h-149z" />
<glyph unicode="&#x45c;" horiz-adv-x="849" d="M111 0v1184h219v-500h61l223 500h226l-248 -574l252 -610h-230l-223 553h-61v-553h-219zM410 1282l120 406h220l-230 -406h-110z" />
<glyph unicode="&#x45d;" horiz-adv-x="935" d="M111 0v1184h184v-797l356 797h172v-1184h-180v803l-354 -803h-178zM194 1688h220l116 -406h-108z" />
<glyph unicode="&#x45e;" horiz-adv-x="811" d="M33 1184h203l116 -617l62 -372l49 372l96 617h213l-256 -1186q-25 -125 -80 -189.5t-135 -86t-201 -23.5v180q104 2 147.5 27.5t43.5 95.5q0 39 -12 96zM138 1591h127q2 -78 34.5 -115.5t106.5 -37.5q141 0 141 153h129q0 -127 -64.5 -202.5t-205.5 -75.5 q-139 0 -203.5 75.5t-64.5 202.5z" />
<glyph unicode="&#x45f;" horiz-adv-x="913" d="M111 0v1184h219v-1028h254v1028h219v-1184h-254l-12 -301h-148l-18 301h-260z" />
<glyph unicode="&#x490;" horiz-adv-x="772" d="M129 0v1659h487v221h146v-393h-402v-1487h-231z" />
<glyph unicode="&#x491;" horiz-adv-x="606" d="M113 0v1184h356v192h121v-350h-258v-1026h-219z" />
<glyph unicode="&#x4ae;" horiz-adv-x="976" d="M20 1659h216l149 -414l102 -278l250 692h219l-356 -934v-725h-221v725z" />
<glyph unicode="&#x4af;" horiz-adv-x="794" d="M25 1184h221l160 -785l153 785h221l-282 -1104v-430h-199v422z" />
<glyph unicode="&#x4b0;" horiz-adv-x="976" d="M20 1659h216l149 -414l102 -278l250 692h219l-338 -885h277v-158h-295v-616h-221v616h-287v158h268z" />
<glyph unicode="&#x4b1;" horiz-adv-x="804" d="M25 1184h221l160 -785l153 785h221l-272 -1067h203v-146h-213v-321h-199v321h-215v146h205z" />
<glyph unicode="&#x4e8;" horiz-adv-x="1105" d="M98 520v629q0 258 106.5 391t348.5 133t347.5 -134t105.5 -390v-631q0 -258 -106.5 -397t-346.5 -139q-244 0 -349.5 138t-105.5 400zM332 469q0 -154 45 -229.5t176 -75.5q129 0 174 75.5t45 229.5v289h-440v-289zM332 915h440v281q0 152 -45 224.5t-174 72.5 q-131 0 -176 -72.5t-45 -224.5v-281z" />
<glyph unicode="&#x4e9;" d="M88 420v344q0 213 79 324.5t267 111.5q187 0 265.5 -111.5t78.5 -324.5v-344q0 -213 -78.5 -324.5t-265.5 -111.5q-188 0 -267 111.5t-79 324.5zM307 406q0 -88 6 -139.5t34 -86.5t87 -35q60 0 86.5 35t32.5 86t6 140v141h-252v-141zM307 684h252v92q0 88 -6 140.5 t-32.5 87t-86.5 34.5q-59 0 -87 -34.5t-34 -87t-6 -140.5v-92z" />
<glyph unicode="&#x2000;" horiz-adv-x="1081" />
<glyph unicode="&#x2001;" horiz-adv-x="2163" />
<glyph unicode="&#x2002;" horiz-adv-x="1081" />
<glyph unicode="&#x2003;" horiz-adv-x="2163" />
<glyph unicode="&#x2004;" horiz-adv-x="721" />
<glyph unicode="&#x2005;" horiz-adv-x="540" />
<glyph unicode="&#x2006;" horiz-adv-x="360" />
<glyph unicode="&#x2007;" horiz-adv-x="360" />
<glyph unicode="&#x2008;" horiz-adv-x="270" />
<glyph unicode="&#x2009;" horiz-adv-x="432" />
<glyph unicode="&#x200a;" horiz-adv-x="120" />
<glyph unicode="&#x2010;" horiz-adv-x="657" d="M100 535v165h457v-165h-457z" />
<glyph unicode="&#x2011;" horiz-adv-x="657" d="M100 535v165h457v-165h-457z" />
<glyph unicode="&#x2012;" horiz-adv-x="657" d="M100 535v165h457v-165h-457z" />
<glyph unicode="&#x2013;" horiz-adv-x="1011" d="M16 418v166h981v-166h-981z" />
<glyph unicode="&#x2014;" horiz-adv-x="1976" d="M16 551v160h1946v-160h-1946z" />
<glyph unicode="&#x2018;" horiz-adv-x="425" d="M63 1186v198q0 166 47.5 252t155.5 90l39 -79q-61 -6 -85.5 -59.5t-24.5 -172.5h108v-229h-240z" />
<glyph unicode="&#x2019;" horiz-adv-x="425" d="M121 1198q61 4 85.5 57.5t24.5 171.5h-108v232h239v-199q0 -166 -47 -252t-155 -92z" />
<glyph unicode="&#x201a;" horiz-adv-x="425" d="M121 -190q61 4 85.5 57t24.5 172h-108v231h239v-198q0 -166 -47 -252t-155 -92z" />
<glyph unicode="&#x201c;" horiz-adv-x="786" d="M63 1186v198q0 166 47.5 252t155.5 90l39 -79q-61 -6 -85.5 -59.5t-24.5 -172.5h108v-229h-240zM423 1186v198q0 166 47.5 252t155.5 90l39 -79q-61 -6 -85.5 -59.5t-24.5 -172.5h108v-229h-240z" />
<glyph unicode="&#x201d;" horiz-adv-x="786" d="M121 1198q61 4 85.5 57.5t24.5 171.5h-108v232h239v-199q0 -166 -47 -252t-155 -92zM481 1198q61 4 85.5 57.5t24.5 171.5h-108v232h239v-199q0 -166 -47 -252t-155 -92z" />
<glyph unicode="&#x201e;" horiz-adv-x="786" d="M121 -190q61 4 85.5 57t24.5 172h-108v231h239v-198q0 -166 -47 -252t-155 -92zM481 -190q61 4 85.5 57t24.5 172h-108v231h239v-198q0 -166 -47 -252t-155 -92z" />
<glyph unicode="&#x2020;" horiz-adv-x="770" d="M86 1104v170h195v371h213v-371h194v-170h-194v-1104h-213v1104h-195z" />
<glyph unicode="&#x2021;" horiz-adv-x="780" d="M72 518v150h215v368h-215v148h215v463h209v-463h215v-148h-215v-368h215v-150h-215v-518h-209v518h-215z" />
<glyph unicode="&#x2022;" horiz-adv-x="743" d="M139 799q0 111 61.5 175t170.5 64q111 0 172 -65.5t61 -173.5q0 -113 -61.5 -177.5t-171.5 -64.5q-109 0 -170.5 65.5t-61.5 176.5z" />
<glyph unicode="&#x2026;" horiz-adv-x="1132" d="M78 0v244h221v-244h-221zM459 0v244h221v-244h-221zM838 0v244h221v-244h-221z" />
<glyph unicode="&#x202f;" horiz-adv-x="432" />
<glyph unicode="&#x2030;" horiz-adv-x="2580" d="M76 1163v129q0 188 75.5 283.5t245.5 95.5t246 -92t76 -276v-146q0 -184 -77 -281.5t-245 -97.5q-166 0 -243.5 100.5t-77.5 284.5zM276 1155q0 -98 26 -154.5t95 -56.5q72 0 97.5 57.5t25.5 155.5v146q0 98 -24.5 150t-98.5 52t-97.5 -53t-23.5 -152v-145zM594 0 l457 1661h188l-455 -1661h-190zM1110 375v129q0 186 76 282.5t246 96.5t245.5 -92.5t75.5 -278.5v-143q0 -186 -77 -282.5t-244 -96.5q-322 0 -322 385zM1311 367q0 -98 25.5 -154.5t95.5 -56.5q71 0 96.5 57t25.5 154v147q0 98 -24.5 150.5t-97.5 52.5q-74 0 -97.5 -53.5 t-23.5 -151.5v-145zM1862 375v127q0 188 75.5 284.5t245.5 96.5t246 -92.5t76 -278.5v-143q0 -186 -77 -282.5t-245 -96.5q-321 0 -321 385zM2062 365q0 -96 26 -152.5t95 -56.5q72 0 97.5 56t25.5 155v147q0 98 -24.5 150.5t-98.5 52.5t-97.5 -53.5t-23.5 -151.5v-147z" />
<glyph unicode="&#x2039;" horiz-adv-x="563" d="M88 551v106l408 467v-274l-240 -246l240 -248v-272z" />
<glyph unicode="&#x203a;" horiz-adv-x="598" d="M123 190v275l239 248l-239 243v277l405 -467v-109z" />
<glyph unicode="&#x2044;" horiz-adv-x="374" d="M-328 0l760 1659h189l-760 -1659h-189z" />
<glyph unicode="&#x205f;" horiz-adv-x="540" />
<glyph unicode="&#x20ac;" horiz-adv-x="1017" d="M-20 616v121h118v205h-118v123h118v53q0 272 98.5 413.5t348.5 141.5q223 0 320.5 -120.5t97.5 -356.5v-86h-220v72q0 115 -10 176t-52 98t-134 37q-94 0 -140.5 -40t-60.5 -110.5t-14 -189.5v-88h205v-123h-205v-205h205v-121h-205v-120q0 -127 20.5 -199t66.5 -102.5 t128 -30.5q88 0 131 39t54 106.5t11 184.5v77h220v-77q0 -248 -93.5 -380t-324.5 -132q-246 0 -346.5 146t-100.5 404v84h-118z" />
<glyph unicode="&#x2122;" horiz-adv-x="1505" d="M113 1522v137h485v-137h-156v-766h-163v766h-166zM698 756v903h152l194 -629l211 629h138v-903h-127v557l-183 -557h-67l-189 555v-555h-129z" />
<glyph unicode="&#x2202;" horiz-adv-x="976" d="M80 352q0 39 2 60l31 362q14 164 106 257t244 93q150 0 274 -112q8 70 8 118q0 371 -444 408l41 141q225 0 396 -130t171 -478q0 -29 -43 -563q-20 -223 -80.5 -340t-143.5 -155t-198 -38q-155 0 -259.5 96.5t-104.5 280.5zM274 342q0 -96 45.5 -150.5t137.5 -54.5 q61 0 101 20.5t66.5 83t41.5 183.5l49 457q-127 78 -223 77q-168 0 -185 -217l-33 -358v-41z" />
<glyph unicode="&#x220f;" horiz-adv-x="1142" d="M129 -389v2048h885v-2048h-221v1882h-445v-1882h-219z" />
<glyph unicode="&#x2211;" horiz-adv-x="831" d="M53 -389l332 1030l-332 1018h672v-172h-412l279 -846l-285 -864h422v-166h-676z" />
<glyph unicode="&#x221a;" horiz-adv-x="1046" d="M-6 1053v131h397l162 -865l252 1340h215l-356 -1659h-224l-229 1055z" />
<glyph unicode="&#x221e;" horiz-adv-x="1294" d="M43 567q0 143 77 231.5t222 88.5q100 0 175 -43t147 -125q66 76 131 114.5t153 38.5q145 0 224 -80.5t79 -224.5q0 -143 -78.5 -224t-224.5 -81q-90 0 -154.5 40t-129.5 116q-72 -82 -147 -126t-175 -44q-145 0 -222 88t-77 231zM207 567q0 -57 34.5 -95t88.5 -38 q45 0 92 30t113 103q-66 74 -113 103.5t-92 29.5q-53 0 -88 -37.5t-35 -95.5zM799 567q61 -68 98 -91t72 -25q51 0 86 31.5t35 84.5q0 51 -34 83t-83 32q-39 0 -76 -22.5t-98 -92.5z" />
<glyph unicode="&#x222b;" horiz-adv-x="663" d="M27 -213q51 -10 79 -10q59 0 80 38t21 113v1409q0 117 19.5 189.5t74.5 112.5t162 40q49 0 141 -10v-164q-16 2 -40.5 6.5t-39.5 4.5q-59 0 -79.5 -38t-20.5 -114v-1409q0 -119 -19.5 -192.5t-75 -112.5t-161.5 -39q-49 0 -141 10v166z" />
<glyph unicode="&#x2248;" horiz-adv-x="917" d="M74 659q51 53 122.5 101.5t118.5 48.5q35 0 73 -15.5t89 -45.5q49 -27 82 -41.5t62 -14.5q27 0 58.5 19.5t86.5 62.5l80 -100q-53 -61 -120 -110.5t-118 -49.5q-35 0 -71.5 15.5t-94.5 48.5q-45 27 -78.5 41t-62.5 14q-53 0 -149 -78zM74 1030q51 53 122.5 101.5 t118.5 48.5q35 0 71 -14.5t91 -45.5q49 -27 82 -41t62 -14t61.5 19.5t83.5 60.5l80 -101q-55 -61 -121 -109t-117 -48q-35 0 -73.5 15.5t-92.5 45.5q-45 27 -78.5 41.5t-62.5 14.5q-53 0 -149 -78z" />
<glyph unicode="&#x2260;" horiz-adv-x="854" d="M111 571v166h202l56 197h-258v168h301l55 203h190l-55 -203h137v-168h-182l-53 -197h235v-166h-278l-60 -209h-188l57 209h-159z" />
<glyph unicode="&#x2264;" horiz-adv-x="796" d="M68 0v131h612v-131h-612zM82 633v219l588 418v-221l-422 -306l422 -305v-221z" />
<glyph unicode="&#x2265;" horiz-adv-x="792" d="M113 0v131h612v-131h-612zM113 231v220l422 309l-422 303v219l587 -414v-221z" />
<glyph unicode="&#x25ca;" horiz-adv-x="954" d="M74 592l346 594h100l361 -594l-346 -592h-101zM229 592l252 -445l244 445l-252 432z" />
<glyph unicode="&#x25fc;" horiz-adv-x="1187" d="M0 0v1188h1188v-1188h-1188z" />
</font>
</defs>
</svg>
