<?xml version="1.0" encoding="utf-8"?>
<!-- Generator: Adobe Illustrator 21.0.2, SVG Export Plug-In . SVG Version: 6.00 Build 0)  -->
<svg version="1.1" id="Layer_1" xmlns="http://www.w3.org/2000/svg" xmlns:xlink="http://www.w3.org/1999/xlink" x="0px" y="0px"
	 viewBox="0 0 1414.482 676.465" style="enable-background:new 0 0 1414.482 676.465;" xml:space="preserve">
<path fill="white" d="M1411.227,671.181c-15.124-22.512-30.381-44.936-45.366-67.54c-24.651-37.187-49.158-74.47-73.599-111.796
	c-1.409-2.151-2.366-5.05-2.37-7.603c-0.125-74.747-0.102-149.495-0.103-224.242v-4.374c14.878,1.644,28.073,5.747,38.883,17.338
	c0.216-2.431,0.434-3.854,0.455-5.281c0.27-18.511,2.692-36.729,9.795-53.887c4.461-10.776,7.221-21.769,8.205-33.272
	c1.034-12.09,0.147-23.993-4.73-35.295c-4.302-9.968-9.173-19.711-13.019-29.847c-2.769-7.296-4.192-15.097-6.386-22.622
	c-0.541-1.854-1.356-3.939-2.715-5.192c-7.436-6.853-15.167-13.385-22.606-20.235c-2.551-2.349-4.749-5.161-6.723-8.026
	c-1.066-1.546-0.854-4.059-2.04-5.418c-2.17-2.486-4.859-4.557-7.491-6.595c-15.397-11.925-33.232-18.652-51.705-23.93
	c-1.568-0.448-3.535-0.222-5.136,0.274c-15.647,4.857-31.512,4.737-47.495,2.296c-3.779-0.577-4.14,0.082-3.52,3.737
	c1.288,7.591,2.175,15.251,3.276,23.244c-1.821,0.09-3.035,0.202-4.25,0.202c-252.991,0.009-505.983,0.003-758.974,0.082
	c-3.217,0.001-4.174-0.904-4.561-4.087c-1.54-12.671-4.004-25.163-8.785-37.085c-2.019-5.035-4.929-9.38-10.213-11.35
	c-1.804-0.672-4.131-0.918-5.944-0.398c-4.793,1.375-9.425,3.302-14.138,4.961c-29.301,10.317-56.341,24.464-78.953,46.236
	c-1.147,1.105-3.338,1.579-5.045,1.583c-38.123,0.088-76.247,0.064-114.371,0.073c-4.673,0.001-4.85,0.171-4.85,4.872
	c-0.004,102.118,0.002,204.236,0.004,306.354c0.001,39.999,0.029,79.997-0.091,119.996c-0.006,1.911-0.852,4.24-2.11,5.665
	c-24.646,27.923-49.284,55.856-74.186,83.552c-28.995,32.248-58.246,64.266-87.364,96.404c-0.916,1.011-1.588,2.242-3.008,4.284
	c471.887,0.736,942.656,1.471,1414.482,2.207C1412.901,673.89,1412.114,672.502,1411.227,671.181z M1339.198,205.35
	c-8.314,18.492-12.121,37.969-12.776,58.142c-0.023,0.716-0.133,1.428-0.272,2.856c-14.095-11.407-30.544-13.631-48.039-14.539
	c16.944-28.787,31.662-58.093,35.714-92.584c7.169,8.771,14.32,16.108,19.679,24.579c3.48,5.5,4.39,12.64,6.329,19.082
	C1340.043,203.584,1339.547,204.575,1339.198,205.35z M1185.698,176.944c7.624-4.379,14.84-8.523,22.456-12.897
	c1.338,3.326,2.675,6.352,3.729,9.472c0.282,0.835,0.007,2.534-0.547,2.828c-0.999,0.531-2.637,0.781-3.597,0.31
	c-6.497-3.188-11.239-0.915-12.74,6.064c-0.295,1.373-1.712,2.505-3.043,4.344c-1.494-2.318-2.443-3.742-3.34-5.197
	C1187.703,180.39,1186.841,178.88,1185.698,176.944z M1188.367,186.417c-4.683,2.741-9.361,5.492-14.052,8.22
	c-4.406,2.562-8.796,5.155-13.267,7.599c-0.817,0.447-1.991,0.241-3.001,0.337c-0.102-0.456-0.204-0.912-0.306-1.368
	c5.021-2.884,10.043-5.765,15.062-8.652c4.094-2.356,8.154-4.774,12.301-7.033c0.826-0.45,1.978-0.303,2.979-0.431
	C1188.178,185.532,1188.273,185.975,1188.367,186.417z M1312.372,153.012c-0.348,0.111-0.696,0.223-1.044,0.334
	c-5.79-7.022-11.58-14.044-17.371-21.066c0.255-0.33,0.51-0.661,0.766-0.991c1.007,0.459,2.044,0.864,3.017,1.386
	c2.852,1.532,5.546,3.463,8.545,4.592c4.961,1.868,6.859,5.13,6.127,10.275C1312.158,149.331,1312.372,151.187,1312.372,153.012z
	 M1216.065,154.925c3.801,1.236,7.182,2.336,11.153,3.628c-5.035,2.897-9.696,5.579-14.87,8.557
	c-0.557-1.887-0.931-3.158-1.369-4.644C1213.921,160.762,1217.483,159.536,1216.065,154.925z M1213.618,169.406
	c1.763-2.404,18.471-10.573,21.849-10.349c-1.582,1.001-2.488,1.617-3.433,2.166c-5.908,3.426-11.825,6.837-18.13,10.478
	C1213.75,170.631,1213.349,169.773,1213.618,169.406z M1224.366,168.398c6.37-3.707,12.731-7.431,19.171-11.014
	c1.702-0.947,3.683-1.389,5.527-2.086c0.795-0.301,1.79-0.456,2.315-1.026c6.603-7.162,15.989-9.951,23.837-15.149
	c0.872-0.578,2.579,0.106,4.961,0.283c-18.633,20.1-40.563,33.913-62.37,47.793c-0.469-0.431-0.739-0.557-0.788-0.741
	C1213.823,174.549,1213.818,174.537,1224.366,168.398z M1253.698,148.742c0.869-3.465,20.175-15.245,24.667-15.222
	C1270.859,139.28,1262.356,143.453,1253.698,148.742z M1256.012,163.403c11.528-8.988,22.144-19.147,33.712-29.276
	c1.429,3.669,2.539,6.514,3.645,9.361c4.522,11.641,9.083,23.267,13.51,34.943c0.534,1.409,0.802,3.222,0.414,4.634
	c-6.476,23.571-17.261,45.207-29.928,65.98c-0.113,0.185-0.397,0.266-0.994,0.644c-8.853-29.838-26.735-51.029-56.713-60.887
	C1231.958,180.283,1244.44,172.426,1256.012,163.403z M1291.812,134.317c0.296-0.177,0.591-0.354,0.887-0.531
	c6.185,7.463,12.394,14.907,18.511,22.425c0.541,0.665,0.762,1.862,0.644,2.747c-0.77,5.787-1.675,11.557-2.536,17.333
	c-0.432,0.103-0.864,0.206-1.295,0.309C1302.619,162.506,1297.215,148.411,1291.812,134.317z M1293.555,122.043
	c-2.572-1.993-3.473-7.901-2.365-15.494c3.67,1.728,7.183,3.382,11.091,5.222C1299.135,115.476,1296.341,118.763,1293.555,122.043z
	 M1296.769,129.716c-2.396-1.58-2.153-5.994-0.157-8.347c2.395-2.824,4.8-5.64,7.649-8.986c5.271,7.935,6.12,16.427,7.726,26.009
	C1306.294,135.195,1301.347,132.735,1296.769,129.716z M1302,109.398c-3.463-1.549-6.958-3.031-10.356-4.711
	c-0.572-0.283-0.997-1.41-1.02-2.162c-0.107-3.474-0.047-6.953-0.047-10.431c0.324-0.202,0.648-0.403,0.971-0.604
	c3.719,5.734,7.437,11.468,11.155,17.202C1302.469,108.927,1302.234,109.163,1302,109.398z M1292.138,126.064
	c1.628,2.119,1.112,3.652-1.008,4.869c-3.109,1.785-6.254,3.508-9.29,5.206c-1.539-2.483-2.918-4.708-4.443-7.168
	c2.86-1.821,5.962-3.879,9.145-5.803C1289.901,121.138,1290.686,124.174,1292.138,126.064z M1289.038,118.035
	c-0.051,0.634-0.82,1.585-1.392,1.694c-0.533,0.101-1.595-0.591-1.817-1.168c-1.911-4.978-3.685-10.009-5.628-15.378
	c0.887,0,1.137-0.049,1.361,0.007c7.282,1.814,7.28,1.815,7.419,9.25C1289.016,114.308,1289.187,116.184,1289.038,118.035z
	 M1288.449,92.112c-0.179,3.59-0.042,7.196-0.042,11.017c-5.069-1.096-9.726-1.988-11.545-8.586
	c-2.44-8.853-6.162-17.352-9.316-26.01c-0.366-1.004-0.626-2.047-0.935-3.072c0.209-0.164,0.419-0.328,0.628-0.492
	c2.184,1.951,4.555,3.733,6.513,5.889c4.103,4.518,7.908,9.306,11.997,13.836C1287.716,86.873,1288.595,89.183,1288.449,92.112z
	 M1276.909,101.831c0.495,0.133,1.032,0.755,1.222,1.271c2.134,5.793,4.204,11.609,6.292,17.419c-0.23,0.137-0.46,0.273-0.69,0.41
	c-6.675-7.142-13.349-14.284-20.023-21.426c0.148-0.308,0.297-0.616,0.445-0.923C1268.41,99.651,1272.673,100.69,1276.909,101.831z
	 M1268.624,107.317c3.899,5.407,9.057,9.907,13.886,15.064c-1.931,1.292-3.585,2.352-5.185,3.488
	c-1.014,0.719-2.541,1.382-2.82,2.36c-1.723,6.038-7.491,7.118-11.799,9.934c-2.889,1.889-5.991,3.451-8.353,4.794
	c-4.001-8.682-7.264-17.361-11.854-25.269c-4.516-7.781-10.379-14.781-15.875-22.436c6.166,0.279,12.471,0.865,18.767,0.778
	C1255.137,95.895,1262.744,99.161,1268.624,107.317z M1239.637,117.057c5.633,8.125,9.616,17.224,11.487,27.051
	c0.479,2.514,1.424,5.359-1.202,7.614c-4.507-23.706-15.772-43.095-34.536-57.966c0.091-0.404,0.183-0.807,0.275-1.21
	c2.364,1.22,5.33,1.903,6.982,3.758C1228.589,102.978,1234.556,109.727,1239.637,117.057z M1216.551,97.737
	c4.861,4.967,10.158,9.641,14.265,15.184c7.542,10.178,13.58,21.279,15.885,33.973c1.079,5.942,0.753,6.396-4.974,8.155
	c-2.837,0.871-5.823,1.257-9.304,1.98c-3.858-0.933-8.137-1.77-12.284-3.037c-3.07-0.938-4.727-3.253-6.276-6.285
	c-3.663-7.171-8.242-13.87-12.325-20.834c-0.88-1.5-1.72-3.298-1.75-4.974c-0.166-9.217,3.392-16.98,9.744-23.566
	C1211.751,96.032,1214.1,95.232,1216.551,97.737z M1197.534,122.401c-0.405,0.193-0.81,0.387-1.215,0.58
	c-2.052-2.1-4.419-3.978-6.091-6.347c-3.721-5.271-7.093-10.787-11.105-16.97c9.645-1.219,18.839-2.381,28.033-3.544
	c0.173,0.308,0.345,0.615,0.518,0.923C1201.044,104.192,1197.457,112.561,1197.534,122.401z M1190.544,123.573
	c0.709-0.612,2.698-0.477,3.649,0.08c1.906,1.115,3.699,2.58,5.194,4.216c6.05,6.62,10.514,14.222,13.385,22.725
	c0.594,1.759,0.89,3.619,1.454,5.981c-0.594,0.703-1.145,1.829-2.046,2.351c-12.619,7.305-25.285,14.529-37.941,21.771
	c-3.056,1.749-5.766,1.426-8.597-0.812c-8.249-6.521-12.012-15.407-13.64-25.396c-0.156-0.958,1.071-2.584,2.083-3.218
	c7.292-4.568,14.765-8.849,22.014-13.482c1.985-1.269,3.372-3.458,5.087-5.171C1184.257,129.55,1187.267,126.405,1190.544,123.573z
	 M1202.803,177.758c2.843-0.061,5.209,2.274,5.264,5.195c0.056,3.003-2.109,5.321-5.032,5.387c-2.837,0.064-5.28-2.289-5.358-5.159
	C1197.601,180.387,1200.03,177.818,1202.803,177.758z M1197.827,199.231v-8.887c3.039,0.207,5.931,0.404,9.154,0.624v8.263H1197.827
	z M1203.705,201.581v58.231h-5.584c0.414-19.387,0.826-38.671,1.243-58.231L1203.705,201.581L1203.705,201.581z M1204.244,262.566
	c0.921,0.362,0.79,3.403,1.243,5.781h-9.806c0.49-2.355,0.398-5.606,1.406-5.993C1199.198,261.543,1202.092,261.72,1204.244,262.566
	z M1197.571,270.839h5.316v80.988h-7.278C1196.265,324.762,1196.916,297.896,1197.571,270.839z M1203.847,354.241
	c0.664,0.039,1.301,1.321,1.851,2.1c0.176,0.249,0.075,0.732,0.022,1.097c-0.321,2.229-0.33,6.239-1.059,6.376
	c-3.418,0.641-7.04,0.289-10.577,0.084c-0.457-0.027-1.166-1.247-1.206-1.946c-0.145-2.564-0.057-5.14-0.057-7.808
	C1196.737,354.143,1200.302,354.033,1203.847,354.241z M1194.357,405.839c0.444-12.238,0.608-24.486,0.881-36.73
	c0.016-0.724,0.138-1.447,0.227-2.337h7.324c0,1.411,0.022,2.73-0.003,4.048c-0.227,11.87-0.377,23.742-0.749,35.608
	c-0.104,3.336,0.817,5.843,3.107,8.343c31.396,34.277,62.696,68.643,94.014,102.992c0.827,0.907,1.587,1.874,2.456,2.905
	c-2.422,2.62-4.361,2.456-6.587-0.106c-9.835-11.317-19.809-22.513-29.639-33.834c-1.485-1.711-2.781-2.069-5.088-1.741
	c-11.741,1.674-23.629,2.463-35.282,4.577c-24.218,4.393-48.578,2.67-72.906,2.554c-3.157-0.015-4.918,0.822-6.514,3.598
	c-6.414,11.152-13.128,22.131-19.665,33.213c-1.323,2.242-2.712,3.598-5.82,1.466c2.964-4.838,5.818-9.512,8.687-14.177
	c21.204-34.472,42.438-68.925,63.547-103.455C1193.563,410.773,1194.272,408.182,1194.357,405.839z M1270.384,482.353
	c-21.256-23.736-42.798-47.215-64.142-70.873c-1.184-1.312-2.043-3.457-2.041-5.213c0.017-12.246,0.246-24.492,0.578-36.734
	c0.036-1.324,1.18-2.608,1.769-3.929c0.339-0.76,0.793-1.541,0.851-2.338c0.193-2.615,0.263-5.242,0.301-7.865
	c0.011-0.72-0.06-1.948-0.424-2.089c-4.174-1.619-2.54-5.17-2.538-7.93c0.017-23.62,0.095-47.241,0.401-70.858
	c0.05-3.854,2.587-7.989,1.778-11.486c-3.113-13.452-0.311-26.896-0.898-40.311c-0.234-5.356,0.16-10.743,0.368-16.112
	c0.085-2.203-0.827-4.828,2.147-6.094c0.288-0.123,0.385-0.891,0.425-1.372c0.509-6.153,0.962-12.312,1.521-18.46
	c0.06-0.658,0.698-1.264,1.652-2.889c0.794,3.772,1.064,6.509,2.003,8.993c0.619,1.638,1.933,3.759,3.393,4.223
	c29.287,9.304,47.107,29.502,55.635,58.427c1.224,4.153,2.734,5.781,7.3,5.561c7.423-0.357,7.442,0.033,7.442,7.424
	c-0.001,73.235-0.002,146.47-0.005,219.705c0,5.541-0.04,5.177-5.384,5.635C1277.249,488.216,1273.846,486.218,1270.384,482.353z
	 M1314.19,142.239c3.275,0.794,5.705,1.713,6.873,5.033c3.138,8.926,6.553,17.754,9.833,26.63c0.373,1.01,0.587,2.079,0.874,3.121
	c-0.203,0.118-0.406,0.237-0.608,0.355c-5.574-6.789-11.192-13.544-16.659-20.419c-0.562-0.707-0.292-2.126-0.301-3.215
	C1314.172,150.023,1314.19,146.301,1314.19,142.239z M1313.331,129.732c1.64,3.653,3.28,7.306,5.049,11.245
	C1313.337,139.429,1314.226,141.492,1313.331,129.732z M1327.992,119.737c3.642,9.41,8.22,18.454,12.17,27.752
	c4.774,11.236,5.055,23.061,3.894,34.976c-0.443,4.541-1.325,9.038-2.531,13.638c-11.125-35-23.764-69.214-43.678-100.598
	c7.311-3.469,14.513-3.376,21.038-3.325C1321.968,101.63,1324.552,110.849,1327.992,119.737z M1234.06,27.35
	c6.166,2.279,12.505,4.184,18.454,6.931c7.462,3.445,14.737,7.355,21.842,11.495c5.172,3.014,9.258,7.1,12.511,12.491
	c6.801,11.27,17.098,19.443,27.089,27.774c1.416,1.181,2.846,2.346,4.307,3.549c-7.424,1.121-14.387,2.172-22.296,3.366
	c-17.974-23.158-38.802-45.289-62.383-64.773C1233.743,27.905,1233.901,27.628,1234.06,27.35z M1191.865,30.018
	c4.724,0,9.494,0.416,14.16-0.104c6.046-0.674,11.999-2.153,18.015-3.141c1.198-0.197,2.921-0.21,3.694,0.482
	c11.616,10.398,23.115,20.927,34.63,31.437c0.15,0.137,0.157,0.43,0.445,1.293c-22.362-13.911-46.254-22.388-70.997-28.767
	C1191.83,30.819,1191.848,30.419,1191.865,30.018z M1176.729,29.582c5.936,1.429,11.373,2.653,16.765,4.051
	c23.073,5.98,45.312,14.037,65.854,26.37c2.715,1.63,4.507,3.605,5.567,6.631c3.466,9.899,7.163,19.717,10.756,29.572
	c0.334,0.916,0.562,1.871,0.939,3.146c-6.003-1.188-11.65-2.764-17.398-3.343c-10.921-1.101-21.904-1.585-32.852-2.443
	c-1.911-0.15-3.854-0.682-5.648-1.383c-3.399-1.328-6.638-2.583-9.352,1.217c-0.31,0.435-1.038,0.733-1.606,0.797
	c-9.903,1.113-19.811,2.179-29.963,3.281C1183.152,74.929,1179.527,52.725,1176.729,29.582z M386.982,3.187
	c0.965-0.212,2.198,0.106,3.131,0.55c4.267,2.03,6.719,5.814,7.812,10.075c3.217,12.552,6.723,25.095,8.832,37.854
	c4.809,29.082,4.873,58.479,3.898,87.848c-1.421,42.812-5.604,85.293-17.946,126.542c-2.416,8.075-6.157,15.798-9.782,23.449
	c-1.905,4.019-5.022,6.876-10.36,6.397c-4.149-0.372-7.053-2.373-8.467-5.725c-2.799-6.641-5.875-13.391-7.15-20.403
	c-2.899-15.945-4.775-32.076-7.078-48.129c-0.157-1.096-0.407-2.18-0.613-3.269c0.637,9.919,1.275,19.839,1.943,30.248
	c-4.392-1.878-8.645-3.57-12.791-5.492c-16.169-7.495-32.708-14.291-47.331-24.75c-0.475-0.339-1.172-0.367-1.766-0.54
	c7.382,4.619,14.49,9.772,22.21,13.733c12.21,6.266,24.807,11.785,37.299,17.49c2.165,0.989,3.176,2.176,3.571,4.617
	c2.07,12.79,4.535,25.5,10.853,38.358c-4.46-2.399-8.029-4.059-11.334-6.14c-14.792-9.316-30.029-18.035-44.143-28.294
	c-28.637-20.816-47.098-48.835-55.555-83.314c-0.258-1.05-0.379-2.134-0.067-3.339c1.563,3.5,2.98,7.075,4.717,10.486
	c5.45,10.702,12.889,19.883,21.841,27.848c1.101,0.979,2.447,1.682,3.679,2.514c-8.163-8.064-16.273-16.169-22.086-26.217
	c-4.581-7.919-8.107-16.221-9.763-25.859c3.769,2.134,6.942,4.207,10.339,5.802c11.821,5.552,24.352,8.964,37.145,11.22
	c15.231,2.687,30.541,4.945,45.849,7.164c3.148,0.456,4.05,1.575,4.049,4.719c-0.004,8.357,0.392,16.715,0.702,25.069
	c0.059,1.601,0.456,3.19,0.697,4.784c-0.025-24.465-0.881-48.976,0.111-73.412c1.48-36.473,5.613-72.717,15.625-107.993
	c2.34-8.245,5.93-16.143,9.08-24.148C376.41,7.143,381.232,4.449,386.982,3.187z M364.03,11.15
	c3.732-1.364,7.495-2.644,11.966-4.218c-1.699,3.171-3.355,5.598-4.364,8.269c-3.037,8.044-5.944,16.144-8.626,24.312
	c-0.738,2.248-1.737,3.546-3.948,4.423c-12.642,5.012-25.329,9.931-37.803,15.339c-18.688,8.103-34.859,19.874-48.659,34.859
	c-1.503,1.632-2.667,3.577-3.988,5.376c24.656-28.44,57.608-42.753,92.779-54.706c-1.169,5.808-2.414,10.984-3.227,16.227
	c-2.101,13.553-4.127,27.12-5.919,40.717c-0.459,3.48-1.592,4.975-5.28,5.592c-22.03,3.687-44.08,7.43-65.202,15.017
	c-5.464,1.963-10.644,4.718-15.954,7.109c26.023-10.869,53.449-16.247,81.107-20.714c1.109-0.179,2.223-0.333,3.34-0.453
	c0.214-0.023,0.45,0.166,0.549,0.206c-1.226,24.661-2.449,49.272-3.702,74.476c-3.981-0.499-8.257-0.946-12.504-1.582
	c-20.607-3.089-41.468-5.022-61.256-12.09c-6.542-2.337-12.747-5.647-19.032-8.666c-3.031-1.456-4.711-3.952-4.554-7.495
	c0.17-3.863-0.19-7.819,0.564-11.557c0.403-1.998,2.665-3.621,4.088-5.413c-1.015,0.402-2.03,0.803-3.722,1.473
	c0.551-2.708,1.021-5.022,1.492-7.336c-0.271-1.093-0.941-2.26-0.754-3.268c4.029-21.687,13.335-40.875,27.216-57.995
	C301.285,41.119,330.73,23.317,364.03,11.15z M249.516,170.19c-3.886,0-7.229,0.077-10.567-0.015
	c-7.737-0.214-15.471-0.563-23.209-0.733c-1.905-0.042-2.937-0.503-3.329-2.56c-2.698-14.19-1.872-28.334,0.479-42.451
	c0.128-0.766,1.375-1.918,2.111-1.926c11.593-0.122,23.187-0.086,35.439-0.086C247.285,138.35,246.849,154.058,249.516,170.19z
	 M250.62,479.917c29.242,35.942,58.291,72.043,87.351,108.133c1.074,1.334,3.543,2.698,1.009,4.911
	c-1.932,1.687-5.153,1.374-6.926-0.857c-10.882-13.688-21.687-27.437-32.649-41.06c-0.869-1.08-2.825-2.061-4.129-1.9
	c-18.335,2.268-36.602,5.167-54.978,6.976c-8.221,0.809-16.65-0.393-24.978-0.82c-6.983-0.358-13.957-0.899-20.933-1.39
	c-2.786-0.196-4.557,0.881-5.951,3.433c-6.287,11.502-12.703,22.935-19.259,34.286c-0.765,1.325-2.639,2.735-4.065,2.809
	c-3.355,0.174-4.13-1.918-2.207-5.262c11.208-19.483,22.363-38.997,33.68-58.417c11.191-19.204,22.653-38.251,33.737-57.516
	c1.692-2.941,1.984-6.687,3.051-10.515h10.891c0.176,0.551,0.534,1.061,0.435,1.454C243.02,470.83,246.758,475.17,250.62,479.917z
	 M233.668,460.115v-52.668h8.371v52.067C239.556,459.692,236.96,459.879,233.668,460.115z M243.747,401.447
	c0.105,0.98-1.225,2.967-2.037,3.045c-3.53,0.34-7.111,0.146-10.844,0.146v-13.017c3.854,0,7.553-0.001,11.252,0.003
	c0.123,0,0.285-0.005,0.364,0.065C245.699,394.542,243.398,398.193,243.747,401.447z M233.083,388.913
	c0-1.667,0.009-3.36-0.001-5.052c-0.208-32.584-0.42-65.169-0.628-97.753c-0.037-5.745-0.031-5.745,6.74-5.338
	c0.752,36.1,1.5,71.997,2.253,108.143H233.083z M240.451,278.205h-10.168v-8.696c1.125-0.138,2.186-0.332,3.255-0.388
	C241.597,268.699,242.07,269.282,240.451,278.205z M232.31,266.764c-0.44-26.329-0.876-52.36-1.315-78.609h5.953
	c0.503,25.896,1.006,51.821,1.519,78.209C236.411,266.497,234.629,266.613,232.31,266.764z M226.926,185.468
	c-0.26-3.994-0.522-8.019-0.798-12.255c4.675,0,9.085-0.07,13.487,0.1c0.477,0.018,1.295,1.426,1.282,2.177
	c-0.055,3.216-0.362,6.427-0.6,9.978H226.926z M168.658,96.058c-0.004-12.373,0.053-24.747-0.034-37.12
	c-0.019-2.696,0.468-4.031,3.672-4.022c37.245,0.107,74.491,0.071,111.736,0.089c0.833,0,1.666,0.186,2.987,0.344
	c-0.981,1.179-1.637,2.035-2.362,2.828c-15.341,16.8-26.362,36.033-32.474,57.983c-0.691,2.482-1.736,3.415-4.342,3.401
	c-11.372-0.064-22.745,0.089-34.118,0.121c-12.433,0.035-18.34,5.255-19.101,17.56c-0.384,6.207-0.451,12.499,0.105,18.683
	c0.877,9.737,6.519,15.082,16.185,16.068c3.35,0.342,6.738,0.422,10.108,0.414c2.065-0.005,2.916,0.725,2.93,2.815
	c0.02,2.997,0.322,5.991,0.381,8.988c0.051,2.574,0.698,4.476,4.402,4.008c0,2.729-0.035,5.198,0.006,7.664
	c0.373,22.492,0.786,44.984,1.074,67.478c0.018,1.406-1.28,2.808-1.343,4.239c-0.182,4.136-0.18,8.294,0.042,12.428
	c0.075,1.399,1.498,2.746,1.51,4.125c0.31,33.869,0.532,67.739,0.662,101.609c0.005,1.35-1.071,2.694-1.595,4.06
	c-0.298,0.776-0.699,1.587-0.708,2.387c-0.043,3.874-1.12,8.242,0.289,11.526c3.612,8.421,1.543,17.024,2.123,25.501
	c0.596,8.718,0.557,17.486,0.57,26.233c0.01,6.869-0.821,13.536-5.105,19.397c-2.422,3.313-4.127,7.143-6.446,10.542
	c-0.738,1.082-2.405,2.153-3.657,2.166c-14.247,0.15-28.497-0.036-42.742,0.18c-3.736,0.057-4.858-0.86-4.842-4.742
	c0.175-42.119,0.179-84.239,0.174-126.359C168.734,269.786,168.688,182.922,168.658,96.058z M209.281,168.655
	c-3.387,0.233-6.295-1.555-8.381-4.373c-1.44-1.946-2.92-4.415-3.013-6.706c-0.331-8.187-0.634-16.449,0.127-24.583
	c0.618-6.612,6.344-10.446,12.502-9.953c-0.801,7.81-2.017,15.357-2.228,22.932C208.082,153.404,208.897,160.863,209.281,168.655z
	 M3.857,672.274c1.368-1.604,2.12-2.526,2.915-3.411c52.767-58.777,105.546-117.543,158.265-176.362
	c1.82-2.03,3.6-2.983,6.393-2.955c13.998,0.141,27.999,0.062,41.999,0.06c1.079,0,2.159,0,3.883,0
	c-1.773,3.092-3.229,5.659-4.71,8.212c-17.553,30.26-35.112,60.516-52.661,90.778c-2.18,3.76-1.578,6.208,1.905,8.033
	c3.517,1.842,7.569,0.763,9.346-2.434c6.309-11.355,12.708-22.662,18.912-34.075c1.539-2.831,3.189-4.117,6.678-3.809
	c12.693,1.12,25.409,2.259,38.136,2.576c6.658,0.166,13.366-1.307,20.038-2.146c12.887-1.62,25.759-3.361,38.656-4.903
	c1.211-0.145,3.043,0.375,3.754,1.257c10.744,13.327,21.428,26.705,31.94,40.216c3.377,4.34,8.518,4.899,12.381,1.024
	c2.134-2.141,2.002-3.78,0.168-6.081c-13.943-17.492-27.685-35.143-41.673-52.597c-11.487-14.334-23.229-28.464-34.85-42.691
	c-0.683-0.836-1.289-1.735-2.275-3.069H445.04c-1.857,5.789-3.654,11.426-5.475,17.055c-1.192,3.684-2.366,7.375-3.651,11.026
	c-0.819,2.327-0.716,5.294-4.174,5.943c-0.6,0.113-1.047,1.599-1.37,2.519c-1.242,3.535-2.445,7.086-3.579,10.657
	c-0.616,1.941-1.887,3.932,0.384,5.817c0.381,0.316,0.134,1.65-0.112,2.422c-5.603,17.618-11.188,35.242-16.978,52.799
	c-0.545,1.653-2.885,2.669-3.596,4.323c-1.523,3.544-3.847,7.44-3.502,10.963c1.175,12.02-5.855,21.757-8.03,32.777
	c-0.479,2.427-1.97,4.734,1.872,5.929c3.52,1.095,4.984-0.266,6.06-3.422c17.448-51.199,34.944-102.382,52.476-153.553
	c2.125-6.203,0.667-5.492,7.698-5.539c3.875-0.026,7.76,0.173,11.621-0.057c3.052-0.181,4.146,0.832,4.221,3.956
	c0.346,14.368,0.838,28.734,1.4,43.096c0.939,23.977,1.985,47.95,2.946,71.926c0.09,2.236,0.761,3.654,3.29,3.412
	c2.331-0.223,4.058-0.897,3.987-3.821c-0.149-6.122-0.354-12.261-0.056-18.37c0.222-4.553,3.34-8.827,1.869-13.585
	c-4.321-13.975-1.253-28.363-2.442-42.513c-0.152-1.81,1.193-3.733,1.782-5.622c0.288-0.925,0.727-1.937,0.595-2.836
	c-0.659-4.475,1.656-9.548-2.622-13.344c-0.34-0.302-0.194-1.199-0.2-1.821c-0.056-5.75,0.003-11.503-0.185-17.248
	c-0.082-2.502,0.857-3.157,3.246-3.221c11.808-0.317,11.753-0.36,15.567,10.813c16.872,49.412,33.784,98.811,50.654,148.224
	c0.953,2.793,2.137,4.75,5.649,3.634c2.613-0.83,3.677-1.917,2.666-4.881c-2.539-7.446-4.884-14.965-7.058-22.526
	c-0.939-3.267-1.602-6.408-1.404-10.18c0.247-4.692-0.941-10.596-5.693-14.221c-0.8-0.61-1.276-1.817-1.607-2.844
	c-5.551-17.243-11.056-34.501-16.565-51.758c-0.227-0.712-0.785-1.639-0.534-2.136c3.646-7.224-2.685-12.54-3.521-18.882
	c-6.897-4.429-6.019-12.529-8.777-18.891c-2.163-4.991-3.453-10.36-5.427-16.477h319.893c0.02-0.458,0.04-0.915,0.06-1.373
	c-1.495-0.135-2.989-0.389-4.484-0.389c-71.499-0.022-142.998-0.023-214.497-0.025c-32.5-0.001-64.999-0.051-97.498,0.076
	c-3.207,0.013-4.56-0.996-5.51-4.009c-4.095-12.984-8.454-25.885-12.702-38.821c-0.346-1.052-0.585-2.139-0.93-3.418
	c3.199-1.109,3.315-3.103,2.231-5.906c-1.755-4.537-3.095-9.235-4.656-13.849c-0.632-1.867-1.048-3.962-3.911-3.629
	c-0.396,0.046-1.343-1.358-1.385-2.127c-0.164-2.991-0.092-5.996-0.044-8.995c0.009-0.596,0.128-1.319,0.478-1.76
	c3.907-4.927,3.959-9.533,0.175-14.556c-0.382-0.507-0.739-1.66-0.49-1.921c3.413-3.564,2.218-8.007,2.279-12.124
	c0.038-2.614,0.969-3.514,3.437-4.3c10.897-3.472,21.019-0.244,31.022,3.363c6.895,2.486,13.3,2.214,20.141-0.388
	c4.96-1.887,10.419-2.532,15.699-3.49c5.967-1.082,7.285-2.721,6.248-8.554c-0.306-1.722-0.798-3.42-0.972-5.153
	c-0.31-3.102-1.062-5.507-5.528-3.798c0.381-5.721,1.97-11.242-2.672-15.846c3.139-1.358,5.916-2.561,8.693-3.763
	c-0.068-0.21-0.135-0.419-0.202-0.629c1.576,0.234,3.184,0.347,4.717,0.747c0.97,0.253,2.316,0.717,2.651,1.464
	c1.351,3.014,3.713,2.971,6.297,2.504c3.442-0.622,6.852-1.472,10.315-1.914c2.4-0.307,5.087,0.53,7.259-0.238
	c4.809-1.699,9.566-3.203,14.17-6.019c7.507-4.59,5.771-10.905,4.922-16.648c-1.36-9.2-3.904-18.259-6.462-27.231
	c-0.966-3.389-2.657-6.243-7.538-7.013c-2.963-0.467-5.719-0.919-8.759-0.73c-2.608,0.162-5.269-0.521-8.142-0.859
	c-1.45-5.671-2.923-11.833-4.627-17.931c-0.87-3.114-1.727-6.52-6.384-5.677c-0.491,0.089-1.48-1.124-1.817-1.913
	c-1.024-2.397-2.743-3.011-5.142-2.53c-6.736,1.349-13.489,2.616-20.219,3.994c-3.522,0.721-4.865,2.918-4.175,6.575
	c0.559,2.959,1.163,5.91,1.747,8.864l-1.3,0.498c-0.509-0.657-1.199-1.241-1.495-1.982c-1.329-3.328-5.66-4.849-7.652-2.015
	c-2.205,3.137-5.129,3.366-7.997,3.682c-4.05,0.446-7.566,1.379-10.326,6.291c-1.111-5.372-2.227-9.527-2.767-13.755
	c-0.467-3.65-2.165-4.106-5.349-3.424c-17.579,3.767-35.168,7.495-52.794,11.03c-8.316,1.668-16.71,2.975-25.099,4.244
	c-3.324,0.503-4.048,2.007-3.332,5.111c1.319,5.719,2.465,11.486,3.405,17.278c0.205,1.262-0.835,2.696-1.161,4.084
	c-0.335,1.426-0.9,2.964-0.653,4.324c0.476,2.622-0.038,3.81-2.927,4.291c-9.238,1.537-18.439,3.313-27.628,5.129
	c-4.136,0.817-7.489,2.51-8.132,7.493c-0.174,1.352-1.869,3.13-3.234,3.569c-2.374,0.765-2.428,2.047-2.104,3.961
	c0.347,2.057,0.93,3.579,3.551,3.283c0.971-0.109,2.025,0.523,3.827,1.044c-1.365,1.282-2.089,2.541-3.034,2.737
	c-2.406,0.5-2.622,1.808-2.196,3.816c0.426,2.009,0.935,3.42,3.589,3.233c2.617-0.185,4.466,1.168,4.694,4.139
	c0.104,1.36,0.464,2.708,0.787,4.043c0.605,2.501-0.445,4.359-2.676,5.055c-2.353,0.734-2.809,1.94-2.402,4.145
	c0.416,2.252,1.407,3.264,3.806,3.002c0.854-0.093,1.792,0.593,2.692,0.923c0.417,0.534,0.833,1.069,1.249,1.603
	c-1.105,0.461-2.173,1.128-3.324,1.338c-2.303,0.419-2.719,1.68-2.332,3.769c0.414,2.234,1.078,3.578,3.841,3.405
	c2.407-0.151,3.989,1.181,4.575,3.923c1.721,8.064,5.5,10.497,13.715,9.243c0.864-0.132,1.713-0.36,2.574-0.514
	c2.087-0.373,4.465-1.491,6.173-0.845c1.339,0.505,1.817,3.22,2.737,4.921c1.751,3.236,4.613,4.519,8.138,4.199
	c6.245-0.566,12.109-1.536,16.495-7.135c2.823-3.604,7.006-6.142,10.628-9.2c1.094,3.137,2.03,5.513,2.712,7.961
	c0.217,0.778,0.049,2.274-0.44,2.545c-5.484,3.04-4.362,8.255-4.305,12.998c0.045,3.733-0.579,4.863-4.177,4.765
	c-4.796-0.13-9.528-0.713-14.304-1.41c-8.92-1.301-18.163-0.507-27.268-0.353c-2.456,0.042-3.522,1.851-3.565,4.412
	c-0.045,2.729,1.058,4.618,3.698,4.684c10.156,0.252,20.24,1.597,30.461-1.165c5.639-1.524,12.332-2.416,17.452,2.749
	c-5.947,5.913-5.971,14.323-9.009,21.458c-0.212,0.498,0.188,1.771,0.603,1.939c3.066,1.237,1.822,3.279,1.169,5.267
	c-4.247,12.937-8.556,25.854-12.666,38.835c-0.856,2.703-2.077,3.614-4.982,3.61c-58.999-0.096-117.998-0.096-176.998-0.002
	c-3.071,0.005-5.093-0.893-6.95-3.29c-3.364-4.342-7.041-8.441-10.554-12.669c-0.453-0.545-0.925-1.232-1.008-1.9
	c-0.559-4.514-1.324-9.032-1.449-13.565c-0.424-15.368-0.651-30.741-0.816-46.114c-0.015-1.377,0.994-2.752,1.457-4.152
	c0.263-0.794,0.522-1.632,0.54-2.456c0.073-3.248,0.241-6.515-0.021-9.742c-0.123-1.52-1.183-2.951-1.738-4.452
	c-0.37-1-0.833-2.047-0.855-3.081c-0.719-34.488-1.45-68.975-1.985-103.466c-0.063-4.059,1.155-8.125,1.436-12.211
	c0.084-1.226-1.049-2.511-1.52-3.807c-0.365-1.002-0.789-2.058-0.811-3.097c-0.493-24.243-0.961-48.487-1.301-72.732
	c-0.016-1.112,1.226-2.224,1.824-3.366c0.525-1.003,1.28-2.016,1.393-3.082c0.381-3.575,0.521-7.176,0.767-10.973h6.412
	c0.747,3.063,1.389,6.076,2.218,9.036c6.482,23.149,18.979,42.73,35.211,60.241c12.748,13.753,28.341,23.694,43.88,33.694
	c11.445,7.366,23.282,14.126,35.005,21.054c5.46,3.227,12.869,2.021,16.741-3.577c3.582-5.179,6.525-10.958,8.832-16.833
	c7.91-20.146,11.457-41.37,14.335-62.683c6.323-46.827,8.345-93.833,5.208-141.017c-0.396-5.962-0.929-11.914-1.43-18.278
	c1.775-0.085,3.227-0.215,4.678-0.215c252.622-0.011,505.244-0.004,757.865-0.103c3.888-0.002,4.948,1.236,4.894,4.887
	c-0.169,11.463,0.561,22.984-0.406,34.368c-0.403,4.749-0.761,8.078,2.69,11.934c3.863,4.317,6.55,9.688,9.877,14.798
	c-2.239,1.981-4.821,3.431-6.208,5.634c-6.683,10.613-18.085,14.845-27.945,21.122c-6.687,4.258-6.848,4.066-4.889,11.674
	c2.334,9.063,6.543,16.896,14.159,22.78c3.508,2.711,6.768,2.723,10.376,0.831c2.754-1.444,5.454-2.99,8.469-4.651
	c0.797,1.219,1.515,2.319,2.469,3.78c-1.271,0.814-2.359,1.574-3.505,2.233c-8.121,4.674-16.246,9.343-24.39,13.977
	c-1.976,1.125-3.84,2.217-2.165,4.89c1.525,2.435,3.417,2.945,6.006,1.401c6.115-3.648,12.235-7.302,18.504-10.674
	c4.781-2.571,9.792-4.713,14.851-7.117c0.762,7.948,2,15.046,2.008,22.145c0.019,15.744-0.463,31.492-1.011,47.23
	c-0.128,3.679-2.233,7.407-1.891,10.964c2.577,26.769-0.772,53.466-0.601,80.196c0.013,1.984,0.64,4.362-2.295,5.177
	c-0.343,0.095-0.709,1.092-0.622,1.593c0.711,4.063-2.002,8.748,2.246,12.224c0.46,0.377,0.248,1.66,0.232,2.521
	c-0.215,11.747-0.371,23.497-0.758,35.238c-0.066,1.989-0.767,4.174-1.809,5.882c-15.162,24.852-30.47,49.616-45.617,74.477
	c-1.501,2.464-3.114,3.313-5.965,3.309c-63.499-0.082-126.998-0.093-190.497,0.016c-3.63,0.006-4.765-0.883-5.2-4.653
	c-1.773-15.374-4.033-30.692-6.124-46.029c-0.063-0.463-0.253-0.909-1.182-1.256c1.153,8.999,2.487,17.98,3.409,27.003
	c0.953,9.319,1.914,18.67,2.116,28.024c0.199,9.201-0.549,18.423-0.886,27.772c0.532-0.418,1.204-0.946,2.121-1.667
	c2.057,3.382,1.32,6.667-1.038,8.643c-3.854,3.229-8.086,6.401-12.697,8.259c-14.982,6.037-30.792,7.272-46.784,6.501
	c-10.401-0.501-20.689-1.914-30.422-5.818c-3.443-1.381-6.959-3.091-9.723-5.482c-2.088-1.805-3.353-4.812-4.363-7.516
	c-0.589-1.576,0.061-3.594,3.21-2.388c-4.104-25.496,1.214-50.125,4.867-74.867c-0.387-0.085-0.775-0.169-1.162-0.254
	c-1.217,6.065-2.629,12.098-3.614,18.201c-2.43,15.053-5.352,30.229-3.428,45.438c1.154,9.122-3.484,14.332-8.581,20.144
	c-4.592,5.236-9.137,10.565-13.151,16.243c-3.964,5.606-3.316,11.586,0.55,17.163c4.22,6.089,10.425,9.645,16.94,12.602
	c14.205,6.448,29.363,8.926,44.77,9.957c15.402,1.031,30.734,0.138,45.897-2.871c1.55-0.308,2.946-1.398,4.413-2.125
	c-0.165-0.369-0.329-0.739-0.494-1.108c-5.997,0.902-11.974,1.985-17.995,2.675c-23.885,2.738-47.483,1.524-70.268-6.679
	c-6.011-2.164-11.675-5.674-16.941-9.363c-2.775-1.944-4.828-5.384-6.293-8.569c-1.004-2.182-0.434-5.088-0.052-7.696
	c8.566,17.094,24.821,21.236,40.917,24.482c27.636,5.573,55.173,4.767,82.086-4.685c0.858-0.301,1.787-0.4,3.257-0.717
	c-17.697,14.128-22.274,29.254-13.769,44.198c7.687,13.506,24.872,19.367,39.783,13.566c13.445-5.23,22.606-20.628,19.709-33.136
	c-2.233-9.643-6.993-17.57-15.572-22.901c-8.568-5.324-17.709-5.199-27.295-2.814c7.937-5.118,16.46-9.429,18.693-19.757
	c3.499,3.282,3.051,5.393-3.821,17.482c1.9-0.783,3.369-0.926,4.015-1.73c4.449-5.54,7.194-13.036,1.337-20.157
	c-4.955-6.024-9.575-12.227-16.002-17.098c-4.55-3.449-6.878-9.201-6.367-15.522c0.402-4.976,0.864-10,0.589-14.963
	c-0.222-3.999,1.152-4.742,4.834-4.732c45.874,0.117,91.748,0.077,137.623,0.076c16.625,0,33.25-0.005,49.874-0.008
	c1.462,0,2.925,0,5.127,0c-0.963,1.762-1.539,2.938-2.222,4.048c-6.812,11.067-13.603,22.147-20.496,33.164
	c-1.548,2.475-2.63,4.64,0.519,6.645c2.89,1.84,6.373,1.222,8.13-1.697c5.669-9.42,11.755-18.638,16.702-28.429
	c3.514-6.955,7.865-9.609,15.693-8.865c9.175,0.872,18.492,0.103,27.728,0.505c15.984,0.695,31.556-2.816,47.338-4.117
	c8.951-0.738,17.951-0.969,26.934-1.133c1.429-0.026,3.23,1.205,4.278,2.376c9.083,10.15,18.104,20.358,26.979,30.692
	c2.5,2.912,5.244,3.207,8.348,1.78c3.472-1.596,3.884-4.279,1.305-7.082c-7.954-8.645-15.92-17.279-23.869-25.929
	c-0.317-0.345-0.51-0.804-1.187-1.898c3.555,0,6.598-0.153,9.607,0.097c0.861,0.072,1.83,1.176,2.402,2.038
	c39.704,59.748,79.373,119.519,119.037,179.293c0.535,0.806,0.968,1.679,1.934,3.371C941.648,673.734,473.216,673.005,3.857,672.274
	z M469.21,394.591c7.497-0.053,14.995,0.041,22.492-0.042c2.981-0.033,2.712,1.958,2.642,3.825
	c-0.069,1.865,0.658,4.292-2.618,4.262c-3.873-0.035-7.747-0.008-11.621-0.008v0.094c-3.624,0-7.25-0.077-10.87,0.029
	c-2.107,0.062-3.248-0.769-2.713-2.826C467.023,398.003,465.058,394.62,469.21,394.591z M437.266,387.551
	c-0.208-0.879,0.144-2.597,0.657-2.786c0.947-0.349,2.546-0.254,3.276,0.363c3.307,2.797,5.463,3.069,7.835-0.437
	c3.238-4.785,8.035-3.765,10.775-4.429c-2.69,3.198-5.762,7.637-9.622,11.23C445.981,395.405,438.534,392.9,437.266,387.551z
	 M438.44,394.12c-4.034-0.357-5.782-2.763-6.473-6.024c-0.161-0.761,0.755-1.75,1.175-2.634c0.715,0.497,1.729,0.837,2.088,1.52
	C436.372,389.158,437.27,391.462,438.44,394.12z M442.591,384.702c1.823-0.903,3.645-1.805,5.656-2.801
	c0.154,0.936,0.222,1.126,0.183,1.151c-1.613,1.037-3.229,2.069-4.893,3.019C443.496,386.094,442.919,385.179,442.591,384.702z
	 M422.479,384.869c-1.889-2.192-3.132-3.636-4.376-5.079c-1.248,1.194-2.495,2.388-4.127,3.95c-0.372-0.949-1.244-2.469-1.565-4.097
	c-3.679-18.619-7.32-37.246-10.821-55.899c-0.359-1.915,0.253-4.011,0.465-6.658c1.355,2.586,1.999,4.235,3.071,5.529
	c0.229,0.276,2.931-0.759,2.922-1.153c-0.04-1.645-0.678-3.275-1.162-5.163c11.506-2.322,23.6-4.79,35.706-7.198
	c22.165-4.409,44.345-8.739,66.494-13.226c2.62-0.531,3.92-0.306,4.306,2.668c0.49,3.778,1.416,7.499,2.084,10.892
	c-3.022,0.356-5.644,0.3-7.971,1.101c-1.089,0.375-2.219,2.431-2.17,3.68c0.033,0.838,2.155,2.321,3.251,2.242
	c2.452-0.177,4.848-1.149,7.743-1.925c0.191,0.766,0.521,2.085,0.712,2.848c-3.063,0.423-5.833,0.502-8.368,1.315
	c-0.924,0.296-1.991,2.534-1.714,3.529c0.285,1.02,2.204,2.333,3.286,2.23c2.457-0.233,4.838-1.257,7.399-2.003
	c2.202,4.203,8.605,40.62,7.507,41.915c-0.928-1.693-1.644-3.358-2.732-4.724c-0.263-0.33-2.423,0.109-2.571,0.564
	c-0.511,1.575-0.52,3.313-0.84,6c-6.098,1.178-13.174,2.545-20.018,3.867c0.445-3.218,1.55-6.096,1.026-8.639
	c-0.74-3.597-2.682-6.948-4.11-10.404c-0.356,0.092-0.712,0.183-1.068,0.275c-0.225,1.27-0.451,2.541-0.754,4.252
	c-1.7-0.365-3.398-0.599-5.013-1.101c-6.851-2.131-11.952,1.48-12.303,8.689c-0.186,3.833-0.55,7.658-0.832,11.461
	C457.415,378.163,439.311,381.638,422.479,384.869z M410.947,383.933l-1.478,0.389c-4.887-20.668-8.256-41.671-12.598-62.458
	c-0.218-1.046,0.698-2.329,1.25-3.995C402.489,340.368,406.718,362.15,410.947,383.933z M525.867,280.353
	c0.427,1.231,3.366,2.61,4.715,2.235c1.593-0.443,2.846-2.597,3.908-4.229c0.44-0.677,0.003-1.925-0.035-2.913
	c1.443,2.776,1.307,5.695-1.324,7.244c-1.679,0.989-4.499,1.037-6.42,0.379c-2.672-0.916-3.471-3.864-2.385-6.229
	c0.461-1.004,1.454-1.764,2.516-2.492C526.237,276.317,525.277,278.652,525.867,280.353z M527.418,278.099
	c0.787-0.752,1.531-2.036,2.373-2.104c0.833-0.067,1.765,1.094,3.29,2.161c-1.562,1.069-2.523,2.239-3.346,2.148
	C528.892,280.212,528.184,278.886,527.418,278.099z M540.15,274.018c0.11,0.806,0.472,1.577,0.725,2.373
	c-2.836,0.759-2.836,0.759-5.184-4.725c1.407-0.3,2.724-0.582,4.429-0.946C540.12,272.14,540.023,273.094,540.15,274.018z
	 M614.528,325.646c-0.035,3.365-0.82,6.351-5.074,5.636c-3.276-16.707-6.479-33.042-9.723-49.585
	c2.753-1.405,5.017-1.088,6.527,2.419C611.971,297.381,614.676,311.234,614.528,325.646z M609.323,283.101
	c6.566,3.394,13.209,36.303,8.447,43.658c-0.943-7.651-1.448-14.998-2.843-22.172C613.517,297.337,611.227,290.256,609.323,283.101z
	 M605.091,331.337c-3.271-16.234-6.646-32.989-9.932-49.296C599.313,286.412,607.333,326.319,605.091,331.337z M600.7,328.957
	c0.247,1.36-0.467,3.742-1.484,4.311c-2.296,1.286-3.666,0.266-4.14-2.676c-1.916-11.877-4.057-23.72-6.268-35.547
	c-0.633-3.387-1.782-6.678-2.762-10.259c4.858-2.099,5.67-1.991,6.665,2.771C595.586,301.314,598.191,315.128,600.7,328.957z
	 M553.781,358.831c2.346-0.639,4.795-0.898,6.585-1.201c0.854,1.997,1.176,4.675,2.593,5.524c1.452,0.87,3.976-0.051,6.537-0.221
	c1.386,4.831,1.169,5.27-4.15,6.43c-3.853,0.84-7.73,1.575-11.212,2.278c-0.804-3.799-1.644-7.215-2.154-10.679
	C551.886,360.325,553.009,359.041,553.781,358.831z M551.749,346.628c1.879-0.432,3.758-0.863,5.637-1.295l0.409,3.631h-5.804
	C551.91,348.185,551.83,347.407,551.749,346.628z M562.958,350.819c-1.272,3.443-4.034,5.328-7.736,5.563
	c-0.707,0.045-1.449-0.477-2.17-1.675c0.822-0.192,1.637-0.509,2.466-0.555c3.451-0.188,6.453-1.619,7.021-5.03
	c0.374-2.245-0.395-5.256-1.771-7.082c-2.061-2.736-5.362-2.828-8.521-1.305c-0.438,0.211-0.923,0.327-1.387,0.487
	c-0.374-0.252-0.749-0.503-1.123-0.755c0.692-0.979,1.199-2.548,2.107-2.831c3.464-1.079,6.724-0.259,9.277,2.383
	C564.145,343.148,564.376,346.982,562.958,350.819z M545.657,362.05c-1.695-0.704-5.037,0.015-6.323,1.342
	c-4.165,4.3-0.068,7.519,2.832,10.877c-4.055-0.205-6.401-2.638-6.723-6.4c-0.358-4.177,2.231-7.728,6.229-8.544
	c4.067-0.831,8.027,1.383,9.261,5.177c1.177,3.618,0.003,6.813-3.587,8.59C548.831,368.851,551.141,364.327,545.657,362.05z
	 M533.462,363.277c-0.361-0.008-0.721-0.016-1.082-0.023c-1.246-5.607-2.868-11.132-2.923-16.999
	c1.865,2.161,3.562,4.039,2.358,7.591c-0.547,1.612,1.676,4.164,2.642,6.289c0.344-0.021,0.688-0.042,1.032-0.064
	C534.813,361.14,534.138,362.208,533.462,363.277z M535.357,374.667c-5.813-1.782-11.407-3.497-17.001-5.211
	c-0.033-0.217-0.066-0.434-0.099-0.651c4.627-0.942,9.255-1.883,14.044-2.858C533.393,369.062,534.29,371.621,535.357,374.667z
	 M535.148,341.914c1.057-0.124,2.305,1.39,4.407,2.821c-2.134,1.47-3.419,3.039-4.47,2.896c-1.155-0.158-2.093-1.893-3.126-2.942
	C533.015,343.7,533.993,342.05,535.148,341.914z M528.823,335.269c2.057-1.492,3.284-3.069,4.334-2.959
	c1.145,0.121,2.126,1.806,3.178,2.809c-1.012,1.05-1.923,2.78-3.066,2.95C532.228,338.224,530.935,336.685,528.823,335.269z
	 M539.796,354.228c-0.155,1.139-1.858,2.068-2.886,3.088c-1.026-1.041-2.754-2.006-2.875-3.144
	c-0.113-1.061,1.479-2.305,2.987-4.388C538.424,351.895,539.939,353.174,539.796,354.228z M543.368,352.453
	c1.003-1.052,1.903-2.785,3.04-2.958c1.053-0.161,2.36,1.347,4.514,2.739c-2.059,1.499-3.274,3.07-4.34,2.974
	C545.437,355.106,544.433,353.438,543.368,352.453z M558.726,335.403c-0.394,0.029-1.153-1.493-1.326-2.378
	c-2.057-10.53-3.995-21.084-6.066-31.612c-0.435-2.211,0.221-3.161,2.415-3.652c7.148-1.598,7.402-1.729,9.108,5.274
	c2.122,8.711,3.743,17.545,5.618,26.504c-0.594,1.656-0.762,4.113-1.76,4.516C564.258,335.046,561.428,335.202,558.726,335.403z
	 M580.317,279.073c-1.835,6.13-13.813,8.532-18.813,3.755C567.943,281.542,573.846,280.364,580.317,279.073z M566.597,275.299
	c0.257-1.371,1.869-3.113,3.203-3.432c0.855-0.205,3.079,1.789,3.19,2.942c0.123,1.275-1.464,2.715-2.307,4.082
	c-0.516-0.005-1.033-0.009-1.549-0.014C568.216,277.671,566.409,276.298,566.597,275.299z M567.087,288.526
	c0.797,0.403,1.51,0.971,2.262,1.464c-0.707,0.737-1.331,1.586-2.141,2.183c-1.212,0.894-2.554,1.611-4.393,2.742
	c-1.41-0.664-4.108-1.059-4.784-2.443c-1.225-2.507-1.246-5.604-1.77-8.454c0.319-0.202,0.637-0.405,0.956-0.607
	c0.976,0.58,1.921,1.219,2.933,1.728C562.447,286.298,564.79,287.366,567.087,288.526z M564.824,298.88
	c2.829,2.349,7.607,24.939,6.17,31.243C568.94,319.725,566.886,309.326,564.824,298.88z M568.186,295.087
	c0.146-0.28,0.292-0.56,0.439-0.84c0.733,0.769,1.943,1.438,2.127,2.321c2.273,10.949,4.445,21.92,6.472,32.916
	c0.176,0.955-0.862,2.134-1.619,3.852C572.988,319.844,570.587,307.466,568.186,295.087z M575.04,289.398
	c3.371,5.652,9.519,36.644,8.752,44.875C580.886,319.373,577.914,304.131,575.04,289.398z M577.972,286.329
	c3.069-2.216,4.919-1.796,6.223,2.461c4.141,13.525,6.959,27.32,7.936,41.448c0.331,4.788-0.136,5.122-4.577,5.272
	C584.341,319.019,581.198,302.889,577.972,286.329z M587.828,280.994c-0.433-0.377-1.167-0.695-1.255-1.14
	c-1.5-7.531-2.919-15.078-4.356-22.622c0.517-0.127,1.034-0.254,1.552-0.381c1.537,5.816,3.117,11.622,4.584,17.456
	c0.422,1.678,0.625,3.435,0.693,5.164C589.065,279.962,588.257,280.485,587.828,280.994z M582.8,275.988
	c-2.308,0.433-4.444,0.834-6.545,1.229c-0.817-2.588-1.511-4.784-2.207-6.989C581.08,267.225,582.407,268.008,582.8,275.988z
	 M580.09,265.683c-1.637-1.222-3.274-2.445-4.179-3.12v-8.418c0.445-0.109,0.891-0.218,1.336-0.327
	c1.448,3.669,2.896,7.337,4.344,11.006C581.091,265.11,580.59,265.397,580.09,265.683z M576.52,266.68
	c-5.744,1.151-11.107,2.226-17.104,3.429C562.348,263.105,571.609,261.296,576.52,266.68z M556.048,257.729
	c-0.116-0.565-0.231-1.13-0.347-1.695l16.571-3.215c0.11,0.537,0.219,1.074,0.329,1.612
	C567.084,255.53,561.566,256.63,556.048,257.729z M557.927,265.282c0.176-0.112,0.352-0.224,0.529-0.336
	c0.045,0.231,0.211,0.554,0.116,0.678c-1.349,1.771-2.733,3.514-4.108,5.265c-0.867-1.866-2.058-3.656-2.519-5.617
	c-0.604-2.571-1.997-5.277-0.021-8.731C554.229,259.897,556.078,262.589,557.927,265.282z M551.718,274.31
	c4.027-1.068,8.158-1.742,12.19-2.534c0.294,2.761,0.525,4.93,0.823,7.727c-3.782,0.759-7.716,1.783-11.71,2.132
	c-0.717,0.063-1.998-2.581-2.406-4.136C550.366,276.55,551.071,274.482,551.718,274.31z M554.598,331.557
	c0.071,0.367,0.111,0.74,0.295,1.996c-0.715,0.401-1.648,1.106-2.7,1.473c-1.758,0.612-2.762-0.058-3.129-2
	c-1.25-6.619-2.622-13.215-3.936-19.822c-0.949-4.771-1.834-9.556-2.84-14.315c-0.41-1.939-0.428-3.347,2.011-3.895
	c2.252-0.506,3.272,0.279,3.681,2.405C550.171,308.787,552.391,320.171,554.598,331.557z M546.028,286.329
	c0.214-0.443,1.014-0.984,1.383-0.884c0.596,0.161,1.358,0.729,1.52,1.28c0.477,1.629,0.695,3.335,1.107,5.498
	C546.854,291.468,545.041,288.37,546.028,286.329z M545.038,283.239c-1.594,0.157-3.165,0.849-4.738,0.822
	c-0.926-0.016-1.835-0.968-2.752-1.499c0.58-0.93,0.978-2.432,1.773-2.685c2.57-0.816,5.285-1.172,8.117-1.74
	C549.164,281.466,548.252,282.922,545.038,283.239z M541.136,286.581c0.771-0.04,1.612,1.279,2.421,1.978
	c-0.641,0.723-1.368,2.122-1.909,2.054c-2.358-0.297-4.662-1.02-6.986-1.589l-0.009-1.209
	C536.812,287.364,538.96,286.693,541.136,286.581z M532.786,291.331c3.044-0.495,5.271,0.811,5.936,3.813
	c1.59,7.173,2.953,14.397,4.466,21.886c-3.214,0.369-7.11,0.263-6.011,4.667c0.898,3.597,3.886,3.233,7.1,1.183
	c1.613,8.191,3.117,15.825,4.51,22.895c-2.604,1.342-4.694,2.474-6.839,3.488c-0.571,0.27-1.312,0.177-1.976,0.251
	c-0.071-0.672-0.413-1.472-0.167-1.996c1.551-3.302,0.265-5.782-2.308-8.093c0.314-0.911,0.693-1.81,0.932-2.745
	c0.718-2.802-0.281-4.957-2.776-6.281c-2.395-1.271-4.692-0.774-6.439,1.237c-1.823,2.098-2.492,4.823-0.237,6.707
	c3.09,2.581,0.357,5.008,0.392,7.443c-0.977-3.97-2.091-7.901-2.902-11.892c-2.459-12.108-4.736-24.253-7.212-36.358
	c-0.541-2.644-0.027-3.916,2.852-4.27C525.692,292.826,529.215,291.911,532.786,291.331z M523.468,332.249
	c-0.235,0.062-0.47,0.125-0.705,0.187c-0.842-4.196-1.685-8.392-2.527-12.588c0.224-0.043,0.448-0.085,0.673-0.128
	C521.762,323.896,522.615,328.072,523.468,332.249z M519.409,290.156c-0.849-4.285-1.698-8.57-2.546-12.856
	c0.485-0.098,0.97-0.196,1.455-0.294c1.94,4.047,2.364,8.426,2.744,12.813C520.511,289.931,519.96,290.044,519.409,290.156z
	 M516.772,273.946c-1.879-3.868-2.181-8.105-2.645-12.304c0.552-0.119,1.104-0.237,1.657-0.356
	c0.819,4.114,1.638,8.228,2.457,12.342C517.75,273.734,517.261,273.84,516.772,273.946z M514.789,279.602
	c0.461,3.208,1.369,6.361,1.665,9.577c0.093,1.008-1.002,2.93-1.829,3.101c-22.23,4.605-44.495,9.037-66.755,13.495
	c-0.366,0.073-0.742,0.102-1.872,0.252c-0.421-0.496-1.494-1.206-1.719-2.125c-0.861-3.509-1.391-7.098-2.16-10.632
	c-0.49-2.251,0.492-3.196,2.564-3.615c13.815-2.79,27.61-5.68,41.437-8.412c8.076-1.596,16.216-2.871,24.291-4.473
	C513.052,276.246,514.389,276.82,514.789,279.602z M505.335,275.204c-19.746,3.789-39.457,7.762-59.182,11.664
	c-0.98,0.194-1.955,0.415-3.552,0.756c-0.382-0.328-1.427-0.782-1.613-1.468c-0.715-2.645-1.359-5.35-1.552-8.066
	c-0.047-0.66,1.635-1.902,2.676-2.111c15.551-3.122,31.131-6.101,46.697-9.148c6.373-1.247,12.75-2.484,19.083-3.915
	c2.562-0.579,3.599,0.143,4.09,2.708C513.546,273.813,513.589,273.62,505.335,275.204z M442.023,305.486
	c-0.7,0.119-1.4,0.237-2.1,0.356c-0.867-4.561-1.735-9.123-2.602-13.684l1.819-0.366
	C440.101,296.356,441.062,300.921,442.023,305.486z M436.63,289.169c-0.749-3.917-1.498-7.835-2.365-12.366
	C437.145,278.671,438.703,285.766,436.63,289.169z M489.533,387.833c-2.93-0.196-5.883-0.043-8.819-0.043
	c0.472-6.852,0.888-12.883,1.291-18.741c3.311,0.81,6.241,1.694,9.234,2.204c2.282,0.388,3.324,1.467,3.219,3.724
	c-0.14,2.995-0.169,6.003-0.472,8.982C493.729,386.494,492.465,388.028,489.533,387.833z M492.417,392.353h-22.61
	C472.393,388.945,488.702,388.629,492.417,392.353z M485.998,358.189c-0.304,2.969-0.62,6.048-0.929,9.062
	C482.024,364.479,482.453,360.514,485.998,358.189z M492.891,369.69c-3.186,0.105-5.858-2.466-6.065-5.835
	c-0.223-3.635,2.469-6.626,6.023-6.689c3.155-0.057,5.771,2.632,5.846,6.011C498.775,366.691,496.199,369.581,492.891,369.69z
	 M470.025,378.751c0.259-0.987,3.122-1.29,4.806-1.902c0.372,0.292,0.744,0.585,1.116,0.877c-0.939,2.038-1.878,4.077-2.875,6.241
	c1.808,0.706,3.902,1.104,4.123-2.629c0.317-5.348,0.516-10.705,0.977-16.041c0.354-4.101,0.634-8.418,7.08-9.964
	c-5.484,5.569-3.642,11.967-4.66,17.711c-0.562,3.169-0.089,6.524-0.684,9.682c-0.317,1.681-1.745,4.228-2.975,4.417
	c-1.981,0.305-4.989-0.395-6.126-1.819C469.595,383.806,469.486,380.807,470.025,378.751z M523.808,529.22
	c1.121,3.831,2.339,7.649,3.827,11.348c0.521,1.294,1.984,2.188,2.928,3.338c0.674,0.822,1.441,1.688,1.757,2.666
	c5.61,17.341,11.691,34.56,16.385,52.148c1.374,5.146,0.75,11.385,3.676,15.874c6.219,9.539,7.514,20.653,11.371,30.915
	c0.445,1.182-0.161,2.759-0.279,4.153c-0.95-1.107-2.344-2.061-2.785-3.343c-16.566-48.16-33.092-96.333-49.512-144.543
	c-8.491-24.931-16.775-49.933-25.14-74.907c-0.424-1.267-0.734-2.572-1.149-4.042c2.839-1.033,4.085-0.343,4.799,1.961
	c1.479,4.767,3.056,9.511,4.817,14.18c0.462,1.226,1.774,2.119,2.643,3.208c0.731,0.916,1.678,1.798,2.029,2.86
	c8.37,25.371,16.694,50.757,24.919,76.175c0.388,1.198-0.275,2.715-0.346,4.089C523.68,526.609,523.454,528.01,523.808,529.22z
	 M527.214,526.676c0.429-0.161,1.532,0.343,1.699,0.791c1.424,3.825,2.702,7.703,4.084,11.743c-0.331,0.457-0.614,1.236-0.995,1.287
	c-0.604,0.082-1.707-0.164-1.847-0.547c-1.407-3.833-2.706-7.707-3.894-11.614C526.124,527.886,526.733,526.856,527.214,526.676z
	 M551.347,604.264c0.567-0.173,1.133-0.347,1.7-0.52l3.391,9.935l-1.662,0.582L551.347,604.264z M488.101,597.842
	c-0.224,2.604,0.032,5.245-0.04,7.867c-0.032,1.143-0.342,2.279-0.526,3.419c-0.456,0.01-0.911,0.019-1.367,0.029
	c-0.219-1.256-0.589-2.507-0.635-3.77c-1.949-52.804-3.872-105.61-5.787-158.415c-0.244-6.741-0.483-13.483-0.577-20.227
	c-0.015-1.051,0.763-2.112,1.174-3.169c0.935,0.795,2.327,1.41,2.724,2.418c1.507,3.829,2.707,7.78,3.983,11.698
	c0.188,0.576,0.461,1.446,0.193,1.799c-2.765,3.643-1.222,7.729-1.171,11.588c0.264,19.612,0.65,39.222,1.154,58.829
	c0.052,2.03,1.598,4.013,1.688,6.052c0.156,3.54-0.211,7.113-0.515,10.659c-0.11,1.276-0.988,2.515-0.98,3.768
	c0.089,13.742,0.238,27.485,0.511,41.224c0.032,1.611,1.033,3.179,1.359,4.812c0.359,1.801,1.286,4.166,0.526,5.396
	C486.618,586.993,488.559,592.515,488.101,597.842z M469.139,417.727h21.285C488.861,421.134,473.548,421.349,469.139,417.727z
	 M478.475,487.366h-20.488c6.031-17.984,11.904-35.498,17.778-53.012c0.352,0.064,0.704,0.129,1.056,0.193
	C477.37,452.048,477.918,469.55,478.475,487.366z M469.343,412.149c0.191-2.333,0.258-4.676,0.402-7.445
	c6.678,0,12.753-0.094,18.819,0.109c0.844,0.028,2.239,1.442,2.362,2.352c1.061,7.854,0.714,8.177-7.134,8.171
	c-3.727-0.003-7.458-0.096-11.181,0.035C470.217,415.456,469.143,414.595,469.343,412.149z M503.695,487.445h-14.646v-42.243
	c0.146-0.037,0.292-0.074,0.438-0.11C494.187,459.104,498.887,473.115,503.695,487.445z M498.958,438.89
	c-0.759,0.034-2.035-0.517-2.253-1.115c-1.697-4.657-3.254-9.369-4.676-14.117c-0.18-0.601,0.506-1.921,1.101-2.173
	c0.68-0.287,2.321,0.017,2.49,0.463c1.884,4.978,3.565,10.033,5.475,15.578C500.362,438.029,499.678,438.858,498.958,438.89z
	 M468.49,421.507c0.507,0.074,1.333,1.583,1.151,2.185c-1.447,4.769-2.97,9.528-4.827,14.146c-0.297,0.739-2.376,0.762-4.708,1.421
	c2.173-6.514,3.825-11.709,5.716-16.815C466.045,421.839,467.631,421.381,468.49,421.507z M465.807,441.518
	c0.862-0.241,1.339-2.254,1.779-3.529c1.589-4.602,2.988-9.273,4.708-13.823c0.317-0.838,1.743-1.438,2.774-1.719
	c0.332-0.09,1.039,1.195,1.393,1.629c-0.408,1.398-0.622,2.247-0.902,3.072c-24.794,72.923-49.593,145.844-74.391,218.766
	c-0.241,0.709-0.281,1.613-0.755,2.086c-0.678,0.677-1.669,1.041-2.527,1.538c-0.173-0.88-0.696-1.867-0.465-2.623
	c2.811-9.191,4.918-18.729,8.95-27.364c2.222-4.758,5.589-9.341,6.114-14.446c2.049-19.933,11.349-37.69,16.247-56.74
	c0.531-2.067,0.795-4.536,3.762-4.928c0.428-0.057,0.909-0.863,1.097-1.414c1.611-4.726,3.168-9.47,4.713-14.218
	c0.149-0.459,0.344-1.196,0.121-1.438c-2.896-3.148-0.552-6.104,0.384-8.995c7.614-23.515,15.307-47.005,23-70.495
	C462.528,444.691,462.883,442.337,465.807,441.518z M410.246,604.178c-1.082,3.374-2.165,6.749-3.419,10.659
	C405.356,611.787,406.946,606.4,410.246,604.178z M428.969,538.556c1.064-3.576,2.259-7.117,3.565-10.613
	c0.232-0.622,1.137-1.197,1.831-1.352c0.33-0.074,0.892,0.889,1.371,1.405c-1.404,4.091-2.692,7.99-4.131,11.831
	c-0.161,0.431-1.528,0.915-1.736,0.723C429.36,540.083,428.803,539.115,428.969,538.556z M463.329,410.876h-13.205
	c-0.026-0.299-0.052-0.598-0.079-0.897h13.248C463.306,410.278,463.318,410.577,463.329,410.876z M444.055,413.705
	c-3.858,0.131-7.724,0.038-11.587,0.038c0-0.018,0-0.036-0.001-0.054c-3.986,0-7.976,0.101-11.957-0.045
	c-1.804-0.066-3.34-0.697-3.353-3.124c-0.013-2.388,1.408-3.163,3.263-3.187c7.97-0.102,15.946-0.18,23.909,0.081
	c1.152,0.038,2.906,1.798,3.219,3.052C448.164,412.929,446.019,413.639,444.055,413.705z M954.933,543.992
	c-2.678,3.869-6.401,7.391-10.393,9.901c-10.898,6.854-23.321,9.478-35.909,11.01c-21.591,2.627-43,1.82-63.591-5.841
	c-5.611-2.088-11.086-5.391-15.635-9.289c-6.965-5.967-6.152-14.935,1.03-19.786c3.15,14.289,15.136,17.749,26.686,20.689
	c23.735,6.042,47.564,5.501,71.03-1.843c4.479-1.402,8.729-3.701,12.868-5.979c5.395-2.969,8.841-7.604,9.913-13.862
	C956.163,532.369,958.342,539.067,954.933,543.992z M959.305,539.721c0.494-0.041,0.988-0.081,1.483-0.122
	c0.292,2.159,1.466,4.724,0.697,6.396c-1.719,3.74-3.807,7.707-6.813,10.381c-8.049,7.157-18.189,10.336-28.473,12.645
	c-27.704,6.221-55.342,6.269-82.451-2.852c-6.479-2.18-12.58-6.06-18.189-10.086c-5.414-3.887-6.663-9.666-4.64-14.576
	c0.121-0.293,0.409-0.517,0.836-1.036c0.355,0.752,0.709,1.247,0.828,1.794c1.248,5.738,4.808,9.731,9.525,12.928
	c10.301,6.983,21.991,10.074,34.055,11.785c23.456,3.326,46.648,2.282,69.133-5.814c4.883-1.758,9.519-4.395,13.964-7.123
	C954.538,550.8,958.202,546.107,959.305,539.721z M834.238,533.258c0.968-1.023,1.805-2.628,2.946-2.884
	c0.893-0.201,2.162,1.268,4.059,2.519c-1.752,1.49-2.883,3.147-3.749,3.019C836.304,535.736,835.314,534.207,834.238,533.258z
	 M841.451,538.925c1.038-1.14,1.924-2.918,3.164-3.214c0.96-0.229,2.361,1.399,4.46,2.796c-2.017,1.515-3.198,3.093-4.309,3.045
	C843.626,541.504,842.553,539.867,841.451,538.925z M850.556,542.195c0.056-1.046,1.932-1.994,3.003-2.986
	c1.058,1.144,2.755,2.184,2.965,3.467c0.16,0.979-1.565,2.266-3.153,4.327C851.977,544.782,850.489,543.447,850.556,542.195z
	 M860.092,544.606c-0.161-0.972,1.502-2.247,3.07-4.346c1.422,2.246,2.907,3.565,2.835,4.792c-0.062,1.039-2.158,2.922-2.939,2.732
	C861.819,547.482,860.301,545.865,860.092,544.606z M869.797,546.669c-0.12-1.24,1.31-2.63,2.62-4.92
	c1.638,2.043,3.353,3.264,3.231,4.26c-0.158,1.287-1.782,2.395-2.776,3.58C871.779,548.622,869.9,547.731,869.797,546.669z
	 M879.629,546.989c0.061-1.06,1.9-2.831,2.93-2.811c1.245,0.025,2.458,1.606,4.724,3.281c-2.444,1.38-3.841,2.802-5.072,2.671
	C881.177,550.019,879.568,548.052,879.629,546.989z M889.445,547.503c0.24-1.29,1.938-2.308,3.009-3.443
	c1.043,1.151,2.721,2.203,2.923,3.487c0.156,0.995-1.533,2.281-3.001,4.234C890.939,549.803,889.263,548.48,889.445,547.503z
	 M899.106,546.822c1.09-1.08,2.054-2.785,3.311-3.041c0.982-0.199,2.33,1.401,4.523,2.882c-2.219,1.506-3.489,3.033-4.722,3.003
	C901.159,549.642,900.142,547.839,899.106,546.822z M909.051,545.72c0.239-1.283,1.799-2.924,3.072-3.213
	c0.95-0.215,2.329,1.466,4.437,2.95c-2.093,1.523-3.34,3.125-4.583,3.122C910.924,548.575,908.899,546.534,909.051,545.72z
	 M918.731,543.215c0.078-1.044,2.018-2.747,3.07-2.702c1.095,0.047,2.946,1.834,2.954,2.873c0.01,1.26-1.563,2.532-3.197,4.863
	C920.106,545.832,918.638,544.466,918.731,543.215z M928.205,540.519c0.298-1.232,1.918-2.739,3.178-2.952
	c0.964-0.163,2.237,1.491,4.316,3.041c-2.233,1.429-3.546,2.92-4.776,2.855C929.895,543.409,928.015,541.305,928.205,540.519z
	 M937.007,535.932c0.011-1.056,1.703-2.779,2.836-2.936c1.033-0.143,2.302,1.423,4.385,2.875c-2.058,1.465-3.296,3.026-4.33,2.9
	C938.762,538.633,936.997,536.935,937.007,535.932z M945.908,531.608c-0.982-0.63-2.101-1.765-2.206-2.803
	c-0.075-0.733,1.408-1.626,2.195-2.447c0.836,0.833,1.672,1.666,3.055,3.045C947.483,530.499,946.214,531.804,945.908,531.608z
	 M982.249,605.921c-3.395-11.79-8.002-22.934-16.218-32.808C972.4,574.63,983.486,597.277,982.249,605.921z M971.52,572.742
	c5.949,2.728,14.16,19.752,12.959,26.899C980.309,590.985,975.741,581.504,971.52,572.742z M936.812,607.32
	c6.608,5.15,13.389,10.435,19.84,15.463C951.849,623.525,936.964,612.098,936.812,607.32z M946.183,620.726
	c-6.099-1.33-10.743-5.536-10.347-9.49C939.298,614.411,942.559,617.401,946.183,620.726z M938.293,603.375
	c8.467,6.153,17.104,12.43,25.378,18.442C959.687,623.652,939.584,609.646,938.293,603.375z M941.078,601.874
	c-0.751-0.809-1.047-2.042-1.054-3.483c9.294,8.429,18.527,16.62,30.839,20.242c-0.11,0.499-0.22,0.997-0.33,1.495
	c-1.31-0.136-2.734,0.015-3.911-0.454C956.733,615.734,948.298,609.65,941.078,601.874z M942.268,594.563
	c9.711,9.003,19.46,17.888,33.547,21.213C968.097,618.231,945.655,603.932,942.268,594.563z M974.949,613.242
	c-12.513-2.779-21.671-10.767-30.171-19.708c-0.529-0.557-0.579-1.569-0.337-2.846c9.928,9.933,20.509,18.447,34.834,20.787
	c-0.064,0.602-0.128,1.204-0.191,1.806C977.702,613.282,976.265,613.535,974.949,613.242z M968.443,598.55
	c-5.639-0.762-10.74-1.451-15.842-2.14C957.374,592.851,967.322,594.46,968.443,598.55z M948.393,591.004
	c6.077-1.057,12.078-1.696,17.802,0.29c-0.064,0.656-0.129,1.312-0.193,1.967C960.131,592.343,954.069,593.658,948.393,591.004z
	 M958.714,599.36c3.929-0.178,7.824-0.139,11.444,1.626c-0.114,0.583-0.228,1.167-0.342,1.75c-3.789-0.602-7.579-1.203-11.368-1.805
	C958.536,600.408,958.625,599.884,958.714,599.36z M958.976,577.713c-0.263-0.304-0.205-0.886-0.398-1.837
	c6.602,2.295,17.787,24.268,16.695,33.052c-1.048-1.311-2.082-2.04-2.301-2.963C970.476,595.459,966.087,585.923,958.976,577.713z
	 M960.819,582.821c-0.019,0.428-0.038,0.856-0.056,1.284h-9.915c0.009-0.576,0.018-1.153,0.028-1.729
	C954.19,582.525,957.504,582.673,960.819,582.821z M963.681,588.253h-17.684C950.427,584.917,961.436,585.29,963.681,588.253z
	 M977.676,607.114c-2.078-11.448-7.048-21.516-14.226-30.578c-0.375-0.474-0.626-1.061-0.852-1.629
	c-0.063-0.158,0.168-0.434,0.264-0.656c5.805,1.486,17.513,24.691,16.722,35.325C978.926,608.76,977.84,608.021,977.676,607.114z
	 M933.186,609.59c-2.238-5.938,4.833-20.787,13.691-29.497c7.027-6.91,16.571-11.769,20.727-10.094
	C948.743,576.865,938.969,591.36,933.186,609.59z M930.418,604.154c-0.361-8.699,4.313-15.466,9.192-22.039
	c6.008-8.094,16.074-14.733,21.475-13.962C945.181,575.763,935.505,587.942,930.418,604.154z M930.492,592.835
	c-0.344-7.874,10.576-20.415,20.143-23.5C941.818,575.138,935.295,582.938,930.492,592.835z M839.176,435.094
	c2.504,4.645,6.444,7.617,11.408,9.116c2.36,0.713,4.936,0.685,7.332,1.309c9.92,2.582,25.078-4.829,22.401-19.011
	c-0.658-3.484,0.975-5.807,3.73-7.989c1.211,1.823,2.241,3.374,3.573,5.38c-1.614,0.075-2.466,0.1-3.316,0.158
	c-0.858,0.059-1.714,0.15-2.571,0.228c0.045,0.397,0.089,0.794,0.134,1.192c20.204,2.199,39.997,0.341,59.221-7.394
	c1.963,6.168-1.521,10.093-4.089,14.282c0.362,0.251,0.724,0.501,1.087,0.752c1.437-1.762,3.465-3.318,4.17-5.336
	c0.994-2.847,0.955-6.045,1.473-9.074c0.148-0.868,0.693-1.668,1.056-2.499c0.707,0.513,1.83,0.886,2.057,1.561
	c2.105,6.264,7.385,8.545,12.938,10.32c14.01,4.477,25.882-1.71,28.729-15.074c1.55-7.275,0.785-14.218-4.837-19.716
	c3.06-6.271,5.918-8.153,13.86-9.288c1.701-0.243,3.836-0.133,3.608-2.724c-0.222-2.522,1.071-5.744-2.873-6.799
	c-10.498-2.807-20.975-5.69-31.471-8.502c-0.916-0.245-1.91-0.194-2.868-0.281c-0.073,0.393-0.147,0.787-0.22,1.18
	c9.153,2.69,18.306,5.38,27.46,8.07c-0.044,0.372-0.087,0.744-0.131,1.116c-4.407,0.608-8.806,1.273-13.221,1.814
	c-37.702,4.622-75.402,9.255-113.119,13.75c-2.478,0.295-5.277-0.01-7.606-0.887c-19.64-7.401-39.208-14.995-58.789-22.551
	c-1.218-0.47-2.37-1.108-3.553-1.668c4.05-1.338,7.982-1.745,11.908-2.209c3.836-0.453,7.665-0.965,11.497-1.451
	c-0.035-0.391-0.07-0.783-0.105-1.174c-1.148,0-2.306-0.101-3.441,0.016c-7.582,0.78-15.163,1.572-22.735,2.443
	c-1.859,0.214-4.289-0.224-4.495,2.767c-0.206,2.986-0.919,6.326,2.926,7.587c7.264,2.382,11.566,8.19,15.867,13.061
	c-2.808,3.852-6.031,7.27-8.068,11.289c-3.744,7.387-3.253,14.875,2.154,21.42c5.141,6.222,11.678,8.155,19.509,5.401
	c0.921-0.324,2.361,0.656,3.501,1.164c3.126,1.394,6.101,3.503,9.362,4.106C835.648,431.507,837.751,432.449,839.176,435.094z
	 M842.363,414.509c3.931-6.692,6.427-8.263,9.378-6.727c-2.778,4.846-6.07,9.489-8.207,14.614
	c-2.317,5.557-0.332,10.995,2.634,16.086C838.363,433.711,836.892,423.82,842.363,414.509z M877.526,419.947
	c0.893-2.513,1.754-5.039,2.723-7.522c0.116-0.296,0.973-0.624,1.215-0.48c0.427,0.254,0.969,0.919,0.897,1.308
	C881.839,416.106,881.062,418.858,877.526,419.947z M896.201,423.574c-5.358,0.03-10.644-4.499-11.134-9.71
	c-0.068-0.72,0.719-1.521,1.11-2.284c0.709,0.529,1.5,0.982,2.093,1.619c0.28,0.301,0.148,0.961,0.263,1.444
	c0.823,3.457,2.856,5.825,6.4,6.534c3.452,0.69,6.065-0.9,8.052-3.588c0.732-0.989,1.08-2.271,1.848-3.223
	c0.727-0.901,1.775-1.545,2.681-2.301c-0.07,1.102,0.172,2.348-0.26,3.281C904.815,420.608,900.745,423.549,896.201,423.574z
	 M898.109,410.245c-0.052-0.35-0.103-0.701-0.155-1.051c15.168-2.227,30.337-4.455,45.505-6.682c0.024,0.395,0.047,0.79,0.071,1.185
	C928.692,408.002,913.6,410.527,898.109,410.245z M928.074,411.053c-1.358,1.632-2.475,3.588-4.131,4.82
	c-2.337,1.739-5.654,0.371-6.079-2.331c-0.122-0.775,0.623-2.33,1.213-2.464c2.704-0.615,5.495-0.853,8.254-1.226
	C927.578,410.252,927.826,410.652,928.074,411.053z M902.267,412.074c-0.32,3.894-2.819,6.752-5.768,6.916
	c-2.933,0.163-5.338-2.308-6.26-6.916H902.267z M905.795,423.779c-0.136-0.335-0.273-0.669-0.409-1.004
	c1.453-1.926,2.907-3.852,4.54-6.016c1.35,1.903,2.536,3.576,4.284,6.041C911.057,423.166,908.426,423.473,905.795,423.779z
	 M925.132,419.963c-3.873,2-8.38,1.612-10.629-1.315c-1.068-1.389-1.526-3.32-1.954-5.08c-0.122-0.499,0.832-1.26,1.293-1.902
	c0.57,0.507,1.539,0.942,1.645,1.533c0.633,3.52,2.481,5.713,6.151,5.898c3.264,0.164,6.707-2.881,8.02-6.819
	c0.383-1.149,0.81-2.283,1.217-3.425C932.596,412.688,929.478,417.718,925.132,419.963z M936.152,414.835
	c-0.504-2.169-0.401-4.478-0.529-6.734c0.4-0.033,0.799-0.067,1.199-0.1c0.853,2.387,1.707,4.775,2.963,8.29
	C938.185,415.688,936.298,415.464,936.152,414.835z M941.595,412.229c-3.184-4.124-2.096-5.57,4.372-6.935
	c0.289,0.247,0.579,0.493,0.868,0.74C945.12,408.061,943.406,410.089,941.595,412.229z M949.852,410.652
	c1.302-1.906,2.595-4.099,2.943-6.311c0.511-3.253,1.964-3.997,4.819-3.177c1.499,0.431,3.005,0.84,5.589,1.561
	c-8.88,4.593-10.89,11.452-8.687,19.968C948.33,420.719,946.564,415.465,949.852,410.652z M984.265,418.128
	c-3.593,6.654-10.145,9.385-18.721,8.673c-4.71-0.391-8.041-2.02-9.247-6.599c-1.25-4.747-0.596-9.25,3.475-12.603
	c3.829-3.155,8.151-4.383,12.915-2.417c3.557,1.468,5.009,5.409,3.754,9.501c-1.096,3.574-5.62,7.019-8.726,6.277
	c-1.296-0.31-3.237-1.498-3.341-2.454c-0.204-1.887,0.424-4.001,1.234-5.782c0.269-0.591,2.962-0.903,3.159-0.555
	c0.796,1.403,1.05,3.113,1.65,5.219c2.258,0.289,3.658-1.321,4.133-3.881c0.564-3.043-1.526-6.065-4.631-6.735
	c-3.612-0.779-6.778,0.276-9.049,3.162c-2.516,3.198-3.685,6.831-1.979,10.848c1.47,3.462,4.489,4.357,7.906,4.669
	c12.723,1.158,18.25-11.614,16.676-19.411c-1.463-7.246-7.996-10.75-17.031-9.405c-33.837,5.038-67.682,10.022-101.537,14.936
	c-10.677,1.549-17.2,11.403-13.868,21.315c1.846,5.492,7.969,8.485,14.424,7.052c5.895-1.308,9.696-6.031,9.219-11.454
	c-0.439-4.998-4.168-8.464-8.588-7.983c-4.614,0.502-8.897,5.659-8.167,10.127c0.366,2.24,1.764,3.357,3.629,3.804
	c-1.523-0.124-3.063-0.226-3.585-1.008c-1.205-1.806-1.964-4.764-1.352-6.758c1.484-4.834,5.097-7.935,10.339-8.547
	c4.177-0.488,7.358,1.291,9.272,4.976c2.417,4.655,2.63,9.37-0.599,13.793c-4.818,6.601-14.639,8.511-21.925,4.356
	c-7.395-4.217-10.585-12.929-7.481-20.634c0.65-1.613,1.473-3.181,2.404-4.651c2.686-4.241,5.7-6.907,11.598-7.117
	c11.071-0.395,22.099-2.227,33.124-3.624c22.793-2.888,45.576-5.863,68.357-8.847c5.446-0.713,10.855-1.735,16.312-2.321
	c1.315-0.141,3.185,0.491,4.07,1.445C987.639,401.469,988.4,410.47,984.265,418.128z M977.957,406.851
	c-2.614-5.207-8.297-4.833-12.886-6.754c5.65-2.568,12.73-0.935,15.157,3.341c2.99,5.267,0.79,13.667-5.567,18.15
	C979.003,416.629,980.572,412.06,977.957,406.851z M877.462,412.208c-0.325,5.469-2.274,5.975-9.598,1.37
	C871.433,413.069,874.263,412.665,877.462,412.208z M863.576,414.96c-3.474,3.319-7.125,6.806-10.406,9.94
	C852.386,419.985,859.101,413.331,863.576,414.96z M865.319,431.536c-1.687,0.048-3.798,0.117-3.129-2.244
	c0.328-1.156,2.677-2.749,3.63-2.474c1.32,0.381,3.16,2.423,3.054,3.598c-0.258,2.854-2.323,4.479-5.423,4.231
	c1.023-0.701,2.05-1.405,3.38-2.317C865.932,431.844,865.621,431.528,865.319,431.536z M864.859,394.162
	c36.096-4.357,72.175-8.859,108.258-13.332c7.316-0.907,14.617-1.949,21.947-2.721c1.327-0.14,2.76,0.733,4.144,1.138
	c-1.22,0.911-2.35,2.453-3.672,2.641c-23.007,3.271-46.038,6.374-69.063,9.517c-19.187,2.619-38.373,5.248-57.562,7.853
	c-2.444,0.332-4.906,0.541-7.564,0.828C860.526,396.33,861.177,394.606,864.859,394.162z M792.474,372.915
	c-2.179-0.879-4.302-1.766-2.467-5.358c6.394,2.447,12.545,4.789,18.687,7.153c15.708,6.047,31.395,12.152,47.135,18.114
	c2.983,1.13,4.382,2.634,2.849,6.291c-1.147-0.294-2.331-0.46-3.407-0.893C834.331,389.804,813.405,381.354,792.474,372.915z
	 M804.295,381.926c0.214-0.341,0.428-0.682,0.641-1.024c1.207,0.34,2.458,0.572,3.615,1.037c16.57,6.658,33.113,13.383,49.71,19.969
	c1.523,0.604,3.421,0.706,5.069,0.483c30.936-4.191,61.861-8.467,92.787-12.726c8.041-1.107,16.08-2.234,24.124-3.317
	c1.332-0.179,2.688-0.177,4.39-0.28c-1.122,4.39-3.572,5.501-7.424,5.976c-32.222,3.971-64.408,8.228-96.605,12.403
	c-3.467,0.449-7.016,0.587-10.38,1.448c-8.313,2.128-16.002,0.47-23.572-2.985c-13.057-5.96-26.179-11.779-39.212-17.792
	C806.171,384.534,805.333,383.013,804.295,381.926z M798.53,403.936c1.169-5.395,3.99-9.988,8.324-13.429
	c1.121-0.89,2.973-0.861,4.489-1.254c0.075,0.484,0.151,0.968,0.226,1.452c-10.799,9.718-12.34,19.798-6.016,30.544
	C800.004,418.252,796.974,411.122,798.53,403.936z M819.01,419.677c-2.311-0.563-4.157-1.013-6.004-1.463
	c-0.144,0.246-0.288,0.492-0.432,0.738c1.704,1.193,3.409,2.386,5.693,3.985c-3.773,1.244-6.372-0.009-8.626-1.916
	c-3.982-3.37-5.575-7.831-5.326-13.009c0.295-6.113,3.178-10.929,7.549-14.943c1.716-1.576,3.632-2.207,5.329,0.202
	c-9.464,9.696-11.465,16.337-6.262,23.966c-0.167-2.115-0.206-3.216-0.347-4.303c-0.624-4.81,0.601-9.162,3.263-13.139
	c3.862-5.769,7.571-6.235,13.857-1.323C820.853,403.954,817.753,410.821,819.01,419.677z M823.329,406.774
	c1.887-3.202,3.593-7.207,8.767-6.685c-6.633,6.03-10.25,12.977-8.402,22.069C820.027,417.059,820.382,411.776,823.329,406.774z
	 M825.913,416.907c-0.16-7.061,4.883-14.557,10.511-14.989c-8.47,10.323-9.499,12.924-6.853,18.523
	c0.378-1.559,0.495-2.588,0.874-3.509c1.313-3.185,2.226-6.687,4.193-9.418c3.596-4.991,6.237-5.074,12.041-1.197
	c-6.549,5.975-10.583,13.156-10.057,22.231C829.885,428.25,826.073,423.973,825.913,416.907z M838.837,150.573
	c8.857-0.31,17.711-0.748,26.57-0.923c1.644-0.032,3.307,0.935,5.617,1.642c6.07-5.267,12.274-2.582,17.726,1.741
	c5.658-3.976,10.801-7.913,16.275-11.318c3.348-2.083,6.275-0.375,5.522,3.302c-1.205,5.888-3.451,11.56-5.186,17.344
	c-0.318,1.059-0.6,2.277-0.391,3.321c1.344,6.723,3.302,13.358,4.164,20.136c1.484,11.67,0.461,23.04-7.132,32.809
	c-2.306,2.967-4.927,5.689-7.354,8.465c2.841-1.822,5.883-3.772,9.316-5.972c8.054,21.864-0.95,40.465-10.175,59.125
	c3.332-4.79,6.553-9.58,8.902-14.765c6.58-14.529,9.865-29.394,2.839-44.859c-0.324-0.714-0.464-1.82-0.14-2.467
	c1.414-2.824,3.032-5.547,4.347-7.897c7.057,3.779,9.022,11.729,15.902,16.012c11.622,7.235,22.302,16.05,33.018,24.65
	c9.371,7.52,15.321,17.261,17.021,29.453c1.466,10.518,0.991,20.915-0.71,31.338c-0.981,6.014-0.912,12.039,2.157,17.518
	c2.165,3.864,1.991,7.446-0.498,10.879c-4.246,5.857-8.724,11.546-12.955,17.413c-1.184,1.642-1.946,3.62-2.722,5.517
	c-1.854,4.531-2.269,10.101-7.904,11.974c-3.173,1.055-6.558,1.47-9.843,2.19c-3.251,0.713-4.907-0.903-4.871-3.906
	c0.047-3.908,0.569-7.81,0.884-11.68c-3.714,4.374-3.034,9.896-2.717,16.343c-3.136-1.353-6.524-1.72-7.524-3.459
	c-2.619-4.553-0.584-9.283,1.696-13.697c-0.424-0.137-0.848-0.275-1.273-0.412c-1.444,3.902-2.888,7.804-4.332,11.706
	c-1.073-1.659-2.219-3.939-1.564-5.421c1.726-3.903,3.804-7.82,6.526-11.077c5.114-6.118,10.886-11.68,16.168-17.664
	c2.424-2.746,3.146-5.745-0.12-8.826c-1.874-1.768-3.087-4.224-4.659-6.324c-12.35-16.493-11.204-36.99,2.908-52.084
	c0.655-0.7,1.163-1.538,1.739-2.312c-0.482-0.211-0.964-0.423-1.446-0.634c-12.854,11.439-16.741,25.831-12.596,43.164
	c-0.918-0.365-1.636-0.651-2.286-0.91c3.912,5.503,7.836,11.022,12.043,16.938c-15.881,5.088-31.13,9.33-47.977,6.04
	c0.815-1.808,1.422-3.126,2.006-4.455c4.963-11.294,10.345-22.427,14.768-33.929c4.746-12.342,6.805-25.327,6.223-38.61
	c-0.139-3.177-0.818-6.33-1.249-9.494c-0.616,1.189-0.578,2.299-0.622,3.406c-0.326,8.088,0.08,16.29-1.147,24.24
	c-3.407,22.073-13.464,41.711-23.742,61.198c-1.037,1.966-2.548,3.806-3.072,5.896c-1.31,5.222-0.551,10.057,3.346,14.27
	c3.504,3.789,4.31,7.819,2.764,10.808c-0.983-2.23-1.972-4.476-2.962-6.722c2.824,12.523,0.06,14.902-7.098,15.883
	c1.016-5.203,0.666-10.168-1.741-14.563c0,3.983,0.165,8.027-0.055,12.05c-0.159,2.902-1.873,4.598-4.987,4.201
	c-4.307-0.548-8.606-1.165-12.9-1.811c-4.22-0.635-5.413-3.549-5.249-7.319c0.07-1.613,0.314-3.23,0.616-4.819
	c3.38-17.791,6.96-35.546,10.053-53.386c0.7-4.038,2.011-7.305,4.688-10.27c2.117-2.345,3.971-4.927,5.942-7.404
	c-0.38-0.306-0.76-0.613-1.141-0.919c-3.507,4.544-7.027,9.079-10.499,13.65c-0.269,0.354-0.212,0.962-0.289,1.454
	c-1.02,6.537-1.998,13.081-3.081,19.607c-0.303,1.823,0.003,4.787-2.984,4.074c-2.7-0.644-6.658,0.137-7.288-4.352
	c-0.573-4.082-1.759-8.13-1.869-12.215c-0.241-8.993-3.897-15.963-10.959-21.391c-2.156-1.658-3.981-3.747-5.958-5.639
	c-0.276,0.299-0.551,0.598-0.827,0.897c3.891,4.004,7.88,7.92,11.619,12.061c1.258,1.393,2.391,3.266,2.717,5.075
	c2.034,11.307,3.897,22.647,5.671,33.998c1.424,9.108,5.725,18.088,1.601,27.486c-0.578,1.318-1.689,3.011-2.881,3.34
	c-3.941,1.089-8.006,1.973-12.074,2.296c-4.643,0.369-5.792-0.77-5.901-5.526c-0.079-3.498,0.524-7.011,0.822-10.518
	c-1.362,2.216-2.326,4.614-2.674,7.098c-0.347,2.48-0.076,5.047-0.076,7.638c-5.701-0.977-7.784-2.412-7.616-6.033
	c0.159-3.43,1.162-6.821,1.794-10.229c-0.186-0.085-0.372-0.17-0.557-0.255c-1.187,2.872-2.374,5.745-3.514,8.504
	c-1.228-3.332-0.659-7.594,2.47-10.835c5.789-5.997,5.767-12.518,2.99-19.743c-3.271-8.511-6.422-17.073-9.387-25.694
	c-5.441-15.823-9.252-31.933-7.652-48.872c0.116-1.232,0.256-2.462,0.493-4.722c2.411,5.163,4.041,9.356,6.262,13.207
	c2.147,3.722,4.904,7.093,7.393,10.618c0.354-0.185,0.708-0.369,1.063-0.554c-11.208-16.036-17.695-33.031-11.212-52.926
	c-1.932,3.608-3.498,7.244-3.929,11.009c-1.05,9.172-1.806,18.393-2.225,27.615c-0.254,5.59-0.32,11.339,0.672,16.809
	c3.446,19.003,9.816,37.16,17.077,55.006c2.089,5.134,2.13,9.894-1.503,14.396c-1.33,1.648-2.624,3.371-3.633,5.224
	c-4.423,8.124-1.847,15.417,6.625,19.009c1.032,0.438,2.097,0.827,3.18,1.111c6.711,1.759,13.326,1.517,19.92-0.756
	c1.318-0.454,3.81-0.65,4.267,0.033c4.366,6.532,11.207,7.256,17.91,7.5c7.113,0.259,14.476-0.958,19.027-6.942
	c2.749-3.615,5.21-4.069,9.223-3.8c11.595,0.777,17.158-2.882,19.533-12.771c0.863-3.591,2.743-6.183,4.867-8.997
	c3.859-5.113,7.019-10.753,10.861-15.88c1.047-1.396,3.588-2.568,5.268-2.369c2.142,0.254,3.245,4.707,1.961,6.601
	c-1.258,1.855-2.67,3.624-4.165,5.297c-5.323,5.955-10.756,11.812-16.061,17.783c-6.969,7.844-4.515,16.704,5.48,19.871
	c6.394,2.026,12.736,1.428,19.233,0.053c6.339-1.341,10.557-4.621,11.874-10.89c1.142-5.435,4.607-9.226,7.834-13.35
	c3.608-4.609,6.966-9.433,10.162-14.34c2.286-3.51,2.178-7.238,0.111-11.014c-2.928-5.349-3.05-10.99-2.425-17.066
	c0.991-9.645,1.378-19.416,1.087-29.105c-0.188-6.258-1.516-12.337-0.638-18.81c1.579-11.641,5.014-22.463,11.506-32.152
	c2.445-3.649,5.732-7.022,9.317-9.559c7.019-4.967,13.462-2.936,17.17,4.824c1.615,3.379,2.596,7.138,4.627,10.222
	c2.496,3.789,5.266,7.762,8.844,10.397c7.895,5.816,17.877,3.801,23.247-4.381c5.387-8.208,7.675-17.411,6.171-27.18
	c-2.739-17.789-20.37-32.993-38.949-33.836c-18.88-0.857-34.029,6.758-45.894,21.029c-6.549,7.877-9.442,17.539-11.365,27.436
	c-1.086,5.589-1.782,11.253-2.712,17.26c-1.051-0.663-1.897-1.119-2.659-1.688c-9.512-7.105-19.098-14.115-28.471-21.4
	c-3.5-2.72-6.531-6.054-9.709-9.176c-2.134-2.097-4.247-4.231-6.172-6.516c-0.813-0.965-1.751-2.476-1.554-3.539
	c2.408-12.99,0.337-25.609-2.635-38.217c-0.446-1.893-0.147-4.102,0.318-6.042c1.132-4.724,2.998-9.313,3.691-14.084
	c0.342-2.355-0.53-6.094-2.187-7.193c-1.65-1.093-5.338-0.345-7.482,0.806c-4.039,2.17-7.698,5.098-11.338,7.938
	c-1.656,1.292-2.865,1.491-4.627,0.28c-3.81-2.619-7.984-3.291-12.508-1.984c-1.393,0.402-2.952,0.266-4.436,0.31
	c-10.848,0.318-21.698,0.578-32.544,0.967c-1.624,0.058-3.228,0.688-4.841,1.054c0.045,0.349,0.09,0.698,0.135,1.047
	C834.53,150.584,836.686,150.648,838.837,150.573z M855.016,330.518c3.23,1.049,5.44,1.766,8.057,2.615
	c-1.093,5.538-2.154,10.913-3.215,16.288c-0.389,0.024-0.777,0.047-1.166,0.071C857.517,343.428,856.342,337.363,855.016,330.518z
	 M889.584,348.362c-1.941-4.614-0.662-9.95,2.503-12.075c0.548-0.368,1.412-0.473,2.095-0.395c3.047,0.349,6.081,0.808,10.343,1.397
	C899.044,341.351,894.391,344.8,889.584,348.362z M933.374,335.328c-2.634,3.482-5.346,6.907-8.068,10.322
	c-2.447,3.07-5.068,5.507-5.424,10.266c-0.604,8.094-8.69,12.789-16.44,10.628c-0.908-0.253-2.054-1.664-2.114-2.6
	c-0.242-3.772-0.1-7.568-0.1-11.153c-2.612,3.528-2.487,8.155-2.127,12.842c-0.57,0.114-1.14,0.228-1.71,0.342
	c-1.544-4.494-3.088-8.988-4.654-13.544c-0.399-0.175-1.264-0.554-2.129-0.933c0.527-0.895,0.836-2.137,1.618-2.628
	c5.156-3.236,10.766-5.86,14.104-11.372c0.248-0.41,1.066-0.579,1.648-0.669c8.826-1.372,17.657-2.712,26.718-4.095
	C934.408,333.315,934.047,334.44,933.374,335.328z M1052.551,206.311c1.864,4.952,3.465,10.003,5.21,15.183
	c-1.975,6.492-3.324,12.737-5.764,18.522c-3.576,8.478-13.434,11.501-21.005,6.233c-3.7-2.575-7.109-6.513-8.929-10.601
	c-2.235-5.02-2.745-10.826-3.85-16.322c-0.502-2.496,0.746-3.577,3.228-2.879c2.882,0.811,5.763,1.649,8.588,2.635
	c2.911,1.017,4.581,0.364,4.858-2.933c0.135-1.611,0.353-3.245,0.799-4.793c1.424-4.942,3.873-6.668,9.028-6.682
	c1.721-0.005,3.473-0.415,5.149-0.185C1050.851,204.624,1052.231,205.459,1052.551,206.311z M975.072,204.804
	c13.388-18.697,41.071-25.625,60.667-15.334c5.496,2.887,9.994,6.9,14.349,12.899c-2.262,0.188-3.537,0.387-4.812,0.385
	c-7.476-0.013-10.976,2.991-12.109,10.463c-0.698,4.603-0.695,4.593-5.064,3.206c-2.143-0.68-4.272-1.435-6.458-1.94
	c-3.877-0.896-5.364,0.407-5.244,4.404c0.037,1.225,0.133,2.449,0.225,4.06c-0.746-0.444-1.188-0.631-1.539-0.928
	c-7.11-6.004-12.701-6.184-20.062-0.33c-8.224,6.54-12.961,15.539-16.236,25.183c-2.141,6.305-3.015,13.039-4.297,18.861
	c-3.554-4.341-7.731-9.384-11.812-14.504c-0.482-0.604-0.653-1.645-0.599-2.459C963.11,233.143,965.681,217.919,975.072,204.804z
	 M928.499,309.515c0.398,0.158,0.806,0.32,1.237,0.492c-0.181-0.254-0.362-0.509-0.543-0.763
	C928.962,309.335,928.73,309.425,928.499,309.515z M778.444,612.696c4.584,0.354,9.211,1.208,13.752,0.885
	c19.265-1.368,27.671-17.348,24.264-32.745c-2.482-11.217-11.548-18.979-23.392-19.921c-9.957-0.792-21.299,4.356-26.047,14.755
	c-4.827,10.571-3.006,22.552,5.036,30.451c1.178,1.158,2.736,1.929,4.118,2.879c-1.55,1.376-2.224,1.485-2.665,1.865
	c-1.344,1.158-2.597,2.42-3.886,3.642c1.411,1.432,2.645,3.805,4.268,4.111c4.216,0.795,8.601,0.731,12.923,0.906
	c1.598,0.065,3.476-0.74,4.763-0.145c4.148,1.918,7.964,0.969,11.972-0.295c2.228-0.702,4.659-0.749,6.992-1.131
	c1.406-0.23,2.799-0.538,4.198-0.811c-0.077-0.57-0.153-1.139-0.23-1.709c-2.331,0.324-4.656,0.695-6.993,0.962
	c-4.284,0.491-8.566,1.062-12.866,1.326c-2.784,0.171-5.597-0.212-8.397-0.224c-3.721-0.015-7.47,0.366-11.15-0.001
	c-1.367-0.136-2.572-1.904-3.851-2.928c1.668-0.793,3.296-1.698,5.026-2.319C776.869,612.039,777.706,612.639,778.444,612.696z
	 M809.01,598.371c-1.248-6.729-2.496-13.458-3.818-20.585C808.78,584.433,810.715,591.045,809.01,598.371z M801.485,577.586
	c3.924,3.021,6.64,18.311,3.483,21.717C803.765,591.8,802.603,584.555,801.485,577.586z M802.331,596.393
	c0.093,0.756-0.926,1.649-1.43,2.479c-0.612-0.907-1.644-1.763-1.762-2.729c-0.461-3.798-0.634-7.631-1.594-11.433v12.487
	c-0.502,0.18-1.005,0.36-1.507,0.54c-0.516-1.114-1.388-2.198-1.485-3.347c-0.387-4.592-0.397-9.218-0.824-13.805
	c-0.211-2.268,0.951-3.14,2.69-3.088c1.156,0.035,3.136,0.878,3.285,1.643C800.813,584.847,801.623,590.618,802.331,596.393z
	 M809.767,578.083c1.208,3.94,2.415,7.881,3.623,11.821c-0.318,0.097-0.636,0.193-0.954,0.29c-1.264-3.923-2.528-7.846-3.793-11.768
	C809.017,578.311,809.392,578.197,809.767,578.083z M779.421,583.096c4.158-7.893,19.928-12.245,29.718-8.434
	C798.021,573.151,788.373,576.824,779.421,583.096z M793.322,594.88c-4.366-2.487-4.894-13.864-0.864-16.268
	C792.763,584.363,793.042,589.622,793.322,594.88z M787.912,581.104v10.689c-1.606-3.516-2.441-7.077-1.025-10.661
	C787.229,581.122,787.57,581.113,787.912,581.104z M807.914,571.693c-10.543-2.087-19.743,0.643-28.89,6.968
	C785.815,569.559,803.821,565.279,807.914,571.693z M799.625,566.13c-8.998,1.388-17.132,4.567-23.654,11.881
	C775.607,571.364,789.241,564.776,799.625,566.13z M787.182,564.754c-4.181,2.657-8.568,5.446-13.185,8.38
	C775.226,568.742,781.891,564.673,787.182,564.754z M786.451,593.878c5.803,5.595,13.262,8.223,21.607,7.666
	c-0.009,0.482-0.019,0.963-0.028,1.445c-2.37,0-4.815,0.386-7.096-0.064c-12.882-2.543-21.065-11.061-27.239-21.976
	c-0.881-1.557-1.486-3.269-1.888-4.167C776.388,582.213,780.929,588.554,786.451,593.878z M769.121,582.602
	c2.596,3.996,5.192,7.992,7.788,11.989c-0.231,0.211-0.462,0.422-0.693,0.633l-8.02-11.995
	C768.504,583.019,768.812,582.81,769.121,582.602z M768.589,587.839c5.408,8.654,12.496,15.466,21.596,20.096
	C779.859,606.493,769.097,596.455,768.589,587.839z M1065.823,553.84c-3.296-1-6.418-2.042-9.593-2.886
	c-3.696-0.982-4.445-0.09-3.906,3.688c0.177,1.242-0.239,3.514-0.952,3.777c-3.365,1.243-6.927,1.953-10.419,2.854
	c-0.152-0.403-0.304-0.806-0.457-1.209c0.836-0.636,1.658-1.291,2.51-1.904c11.216-8.074,14.748-22.601,8.249-34.263
	c-5.553-9.966-17.559-17.714-33.12-11.023c-9.556,4.109-15.901,13.394-15.961,23.835c-0.059,10.315,6.103,20.491,15.758,23.848
	c10.87,3.779,22.139,3.035,33.207,0.26c2.772-0.695,4.553-2.532,3.565-5.9c-0.682-2.325,0.713-2.596,2.516-2.07
	c0.956,0.279,1.849,0.794,2.813,1.026c3.002,0.724,6.025,1.363,9.72,2.187c-1.185-2.534-1.871-4.003-2.558-5.471
	c1.677-0.47,3.355-0.941,5.032-1.411c0.011-0.146,0.022-0.292,0.033-0.438h-7.123
	C1065.337,550.225,1065.537,551.712,1065.823,553.84z M1051.256,537.039c-1.401,4.268-2.802,8.536-4.203,12.805
	c-0.353-0.125-0.706-0.249-1.059-0.374c1.453-4.242,2.906-8.483,4.359-12.725C1050.654,536.843,1050.955,536.941,1051.256,537.039z
	 M1032.094,537.47c-4.295-0.517-8.564-1.255-12.841-1.92c-0.123-0.571-0.247-1.141-0.37-1.712c1.296-0.46,2.655-1.432,3.876-1.282
	c3.327,0.409,6.611,1.227,9.873,2.044c0.651,0.163,1.123,1.036,1.678,1.582C1033.568,536.636,1032.771,537.551,1032.094,537.47z
	 M1032.847,539.545c-0.129,0.492-0.258,0.983-0.387,1.474c-4.38,0.117-8.626-0.408-12.557-2.435c0.08-0.403,0.16-0.806,0.24-1.209
	C1024.378,538.099,1028.612,538.822,1032.847,539.545z M1022.39,531.19c2.403-1.835,8.596-0.902,12.408,2.29
	C1030.82,532.745,1026.841,532.011,1022.39,531.19z M1025.811,528.285c0.175-0.677,0.35-1.353,0.525-2.03
	c3.204,0.717,6.408,1.434,9.612,2.151c-0.124,0.597-0.247,1.194-0.371,1.79C1032.321,529.559,1029.066,528.922,1025.811,528.285z
	 M1034.68,518.17c-5.759,4.583-11.215,8.924-16.358,13.017C1019.775,525.242,1029.367,517.095,1034.68,518.17z M1030.694,515.18
	c-4.786,4.366-9.94,9.068-14.923,13.615C1019.132,522.484,1023.589,516.989,1030.694,515.18z M1021.654,516.231
	c0.219,0.194,0.438,0.389,0.657,0.583c-2.366,2.699-4.733,5.399-7.099,8.098c-0.247-0.219-0.494-0.438-0.741-0.656
	C1016.864,521.58,1019.259,518.905,1021.654,516.231z M1011.295,521.573c0.924,12.07,7.717,20.125,16.482,27.038
	C1018.692,548.045,1007.744,530.112,1011.295,521.573z M1008.626,525.416c1.465,10.87,6.858,18.928,15.828,25.054
	c-5.484-0.33-12.689-7.232-16.1-14.948C1005.89,529.951,1005.869,528.873,1008.626,525.416z M1023.776,553.151
	c-0.232,0.472-0.463,0.943-0.695,1.415c-1.514-0.43-3.22-0.548-4.51-1.342c-7.063-4.349-11.825-10.359-12.838-18.832
	C1009.638,542.647,1015.263,549.198,1023.776,553.151z M1007.41,545.88c4.61,3.858,8.679,7.262,12.747,10.666
	C1013.99,555.587,1010.299,551.757,1007.41,545.88z M1022.985,558.281c7.121-7.348,12.432-15.505,15.036-25.327
	c-0.89,9.678-5.997,17.183-12.281,24.084C1024.822,557.452,1023.904,557.867,1022.985,558.281z M1027.974,557.431
	c-0.357,0.302-1.422-0.234-2.173-0.397c1.807-1.336,3.948-2.406,5.289-4.108c7.881-9.997,12.462-20.941,8.739-33.974
	c-0.079-0.275,0.133-0.633,0.983-1.184c0.513,1.518,1.349,3.006,1.489,4.557C1043.575,536.471,1038.84,548.237,1027.974,557.431z
	 M1037.115,556.769c2.526-4.931,5.733-9.705,7.453-14.966c1.708-5.225,1.92-10.938,2.766-16.303
	C1051.17,532.553,1044.709,553.67,1037.115,556.769z M859.135,614.075c0-2.98-0.04-5.32,0.008-7.659
	c0.115-5.675,0.137-5.65,5.78-6.943c18.992-4.349,37.986-8.694,56.961-13.117c1.458-0.34,2.777-1.277,4.16-1.937
	c-0.201-0.455-0.403-0.91-0.604-1.365c-0.955,0.118-1.93,0.152-2.863,0.366c-19.843,4.552-39.69,9.082-59.508,13.739
	c-2.911,0.684-5.182,0.288-7.647-1.493c-22.587-16.314-45.257-32.511-67.892-48.759c-1.042-0.748-1.977-1.644-3.501-2.924
	c2.143-0.528,3.449-0.89,4.773-1.17c9.409-1.987,18.832-3.909,28.223-5.982c1.399-0.309,2.649-1.297,4.763-2.377
	c-1.506-0.455-1.762-0.627-1.969-0.581c-12.435,2.748-24.879,5.456-37.273,8.38c-1.088,0.257-2.507,1.87-2.625,2.975
	c-0.408,3.838-0.5,7.737-0.342,11.598c0.121,2.972,2.043,3.702,5.036,1.931c-4.791-3.055-2.238-7.415-2.731-11.792
	c1.081,0.416,1.581,0.5,1.952,0.766c23.876,17.087,47.747,34.182,71.586,51.32c0.738,0.531,1.588,1.499,1.631,2.303
	c0.181,3.42,0.077,6.856,0.077,10.286c-0.395,0.177-0.79,0.353-1.185,0.53c-12.042-9.009-24.084-18.017-36.127-27.026
	c-0.381,0.394-0.763,0.789-1.144,1.183c0.891,1.124,1.594,2.496,2.7,3.335c11.45,8.681,22.93,17.325,34.516,25.823
	c1.212,0.889,3.311,1.385,4.744,1.031c20.127-4.972,40.214-10.109,60.293-15.275c1.076-0.277,1.993-1.17,2.984-1.777
	c-0.206-0.531-0.411-1.061-0.617-1.592C902.042,603.24,880.794,608.606,859.135,614.075z M812.46,163.699
	c0.624,1.699,1.114,3.817,0.671,5.479c-2.882,10.829-4.235,21.787-3.55,32.979c0.509,8.314,3.652,15.585,9.578,21.354
	c2.397,2.334,5.774,3.661,8.706,5.446c0.221-0.361,0.441-0.722,0.662-1.083c-0.557-0.448-1.061-0.995-1.679-1.329
	c-8.326-4.503-12.641-11.806-14.283-20.825c-2.007-11.025-0.703-21.903,2.265-32.577c1.108-3.987,3.049-7.773-1.14-11.108
	c-0.118-0.094-0.015-0.464-0.015-0.705c1.781-2.104,2.722-4.546,3.896-6.87c0.492-0.974,1.333-1.964,2.271-2.481
	c1.868-1.029,3.913-1.737,6.335-2.769c0.785,0.313,2.176,0.867,3.568,1.422c0.14-0.314,0.281-0.629,0.421-0.943
	c-5.792-3.923-11.496-8.023-18.498-9.763c-5.334-1.325-7.678,0.742-6.046,6.061C807.473,152.021,810.277,157.757,812.46,163.699z
	 M809.993,141.202c4.077,1.431,8.008,3.297,11.919,5.158c0.571,0.272,1.17,1.512,0.993,2.057c-0.205,0.632-1.253,1.403-1.933,1.401
	c-4-0.01-5.34,2.217-5.726,5.827c-0.121,1.133-1.425,2.139-2.187,3.204c-0.865-0.896-2.11-1.645-2.528-2.716
	c-1.576-4.038-2.883-8.182-4.634-13.287C807.479,142.168,809.025,140.862,809.993,141.202z M1006.001,562.243
	c-8.385-4.155-16.656-8.54-24.974-12.833c-3.597-1.856-7.201-3.697-10.802-5.546c-0.247,0.35-0.494,0.699-0.741,1.049
	c1.32,1.064,2.515,2.36,3.982,3.155c8.669,4.695,17.404,9.267,26.107,13.899c1.161,0.618,2.264,1.345,3.393,2.021
	c-0.028,0.308-0.056,0.616-0.084,0.924c-8.023,1.89-16.046,3.78-24.068,5.671c-0.013,0.442-0.027,0.885-0.04,1.327
	c1.266,0.193,2.566,0.668,3.789,0.517c2.092-0.259,4.133-0.926,6.202-1.393c6.139-1.385,12.281-2.756,18.455-4.139
	c1.279,9.17,1.268,9.189-6.706,11.254c-2.174,0.563-4.358,1.084-6.527,1.663c-2.333,0.622-4.655,1.289-6.982,1.936l0.194,1.746
	c1.177,0,2.399,0.205,3.524-0.039c3.168-0.689,6.293-1.573,9.44-2.362c10.747-2.694,10.793-2.843,9.492-13.804
	C1009.356,564.763,1008.277,563.371,1006.001,562.243z M843.498,524.095c1.481,1.362,2.441,2.717,3.75,3.363
	c4.117,2.031,8.208,4.383,12.59,5.565c21.931,5.914,43.772,4.736,65.272-2.159c4.718-1.513,8.964-4.496,13.428-6.801
	c-0.231-0.472-0.461-0.944-0.692-1.416c-4.654,2.01-9.156,4.547-13.988,5.942C896.825,536.391,870.033,538.338,843.498,524.095z
	 M829.708,179.517c4.699,3.271,9.626,2.989,14.488,0.362c4.086-2.208,6.228-5.7,6.318-10.573c-3.173,7.001-7.962,11.427-16.02,9.904
	c-4.12-0.779-6.921-3.583-8.683-8.314c3.833-0.907,7.302-1.698,10.754-2.555c2.063-0.512,3.547-0.479,4.161,2.169
	c0.226,0.975,1.83,1.631,2.806,2.432c0.794-0.986,1.724-1.897,2.335-2.986c0.394-0.702,0.321-1.666,0.458-2.515
	c1.341-0.359,2.552-0.684,3.763-1.009c-0.076-0.395-0.152-0.79-0.227-1.185c-5.472,0.744-10.953,1.433-16.413,2.254
	c-3.11,0.467-6.188,1.148-10.099,1.887C823.497,173.655,826.036,176.962,829.708,179.517z M870.023,165.922
	c-4.487-0.285-5.78,1.835-4.346,6.159c1.735,5.232,7.29,8.963,14.197,9.033c5.501-0.353,10.596-2.605,13.609-8.501
	c1.371-2.683,0.924-4.304-2.252-4.633C884.167,167.25,877.108,166.373,870.023,165.922z M892.225,168.897
	c-1.116,6.358-7.322,10.548-13.867,10.027c-6.479-0.516-10.923-4.783-11.14-11.233c3.427,0,6.854-0.122,10.258,0.103
	c0.679,0.045,1.288,1.397,1.899,2.171c0.854,1.081,1.678,2.186,2.516,3.28c0.965-0.941,2.306-1.711,2.829-2.854
	C886.844,165.743,889.66,169.944,892.225,168.897z M856.787,176.101c-1.275,0.624-3.39,1.155-3.557,2.032
	c-0.242,1.273,0.764,2.918,1.555,4.211c0.678,1.108,2.585,1.939,2.59,2.9c0.023,3.949,0.294,8.203-1.095,11.725
	c-0.717,1.818-4.728,2.331-7.24,3.458c-0.186,0.084-0.281,0.372-0.418,0.565c3.056,2.137,4.696,1.779,10.172-2.291
	c4.686,4.205,8.182,4.761,11.083,1.688c-0.751-0.04-1.34-0.107-1.927-0.098c-5.764,0.083-7.727-1.601-8.306-7.22
	c-0.205-1.987-0.532-4.002-0.376-5.97c0.103-1.306,0.891-2.589,1.503-3.816c0.945-1.894,2.001-3.732,3.01-5.594
	c-1.96-0.555-3.916-1.127-5.885-1.65C857.551,175.949,857.097,175.95,856.787,176.101z M861.736,179.155
	c-1.145,0.905-2.253,2.459-3.446,2.527c-1.131,0.065-2.351-1.428-3.532-2.236c0.147-0.374,0.294-0.749,0.44-1.123h6.1
	L861.736,179.155z M931.563,435.437c-8.821,1.259-17.609,2.867-26.471,3.679c-8.8,0.806-17.673,0.812-26.515,1.169
	c0.035,0.397,0.07,0.794,0.105,1.191C896.574,442.195,914.361,441.827,931.563,435.437z M886.238,152.48
	c-4.596-2.818-10.827-2.365-15.806,1.391c-3.323,2.507-6.001,5.489-5.164,11.155c0.904-1.173,1.24-1.424,1.317-1.738
	c1.546-6.247,5.835-9.597,11.915-10.244c6.28-0.668,9.663,3.681,12.441,8.533c0.691,1.206,1.357,2.426,2.411,4.311
	C894.105,161.01,890.726,155.232,886.238,152.48z M837.042,155.125c5.962-0.122,10.701,2.859,13.423,8.598
	c-1.807-8.345-7.888-12.359-14.977-10.825c-7.043,1.524-13.162,8.216-10.785,13.09C827.204,160.097,830.64,155.256,837.042,155.125z
	 M838.314,184.472c2.381,3.614,6.302,2.763,9.699,3.426c-1.455,0.437-2.893,0.709-4.338,0.746c-1.497,0.038-3-0.151-5.422-0.295
	c5.396,2.944,14.385,2.277,15.433-0.734c-0.924-0.132-1.814-0.259-2.787-0.398c0.352-0.729,0.579-1.198,0.661-1.368
	C847.163,185.391,842.946,184.953,838.314,184.472z M853.127,215.637c1.395,3.901,4.248,4.343,7.241,3.54
	c3.079-0.825,5.356-2.704,4.998-6.744C862.278,217.412,858.355,218.735,853.127,215.637z M878.065,189.517
	c-3.639-0.631-7.772-1.347-11.907-2.064c-0.004-0.004-0.007-0.008-0.011-0.012c-0.009,0.001-0.018,0.002-0.027,0.003
	c0.005,0.003,0.123,0.099,0.123,0.099c-0.868,0.101-1.737,0.201-2.986,0.346C867.605,191.119,874.732,191.564,878.065,189.517z
	 M877.549,185.601h-13.147c0.82,0.865,1.293,1.364,1.745,1.841C869.836,186.921,874.004,188.84,877.549,185.601z M356.818,238.822
	c1.307,13.676,3.184,27.308,7.926,40.346c1.759,4.835,4.294,9.054,9.07,11.448c1.024,0.514,2.272,0.582,3.416,0.855l0.714-1.528
	c-0.637-0.4-1.242-0.865-1.915-1.191c-5.574-2.695-8.199-7.66-9.526-13.246c-2.477-10.435-5.239-20.869-6.687-31.467
	c-3.695-27.057-4.022-54.308-3.211-81.571c1.044-35.147,3.842-70.112,11.329-104.558c2.761-12.704,5.944-25.297,11.7-37.069
	c1.987-4.065,4.558-7.371,9.236-8.684c1.28-0.359,2.243-1.85,3.352-2.822c-7.596,0.496-12.309,4.455-15.31,10.978
	c-5.844,12.7-9.421,26.064-11.925,39.73C354.135,119.258,351.088,178.855,356.818,238.822z M475.86,341.449
	c6.931-1.34,13.86-2.687,19.729-3.826c0.419,2.676,0.519,4.887,1.289,6.833c0.146,0.37,3.605,0.275,4.409-0.618
	c2.644-2.939-0.227-4.725-2.476-6.624c0.829-0.264,1.274-0.431,1.731-0.548c4.951-1.267,4.963-1.302,3.961-6.316
	c-0.978-4.897-2.038-9.781-2.84-14.707c-0.512-3.145-1.542-4.557-5.164-3.768c-10.486,2.283-21.053,4.193-31.581,6.287
	c-2.06,0.41-3.7,0.613-5.752-0.936c-1.369-1.034-4.281-0.613-6.259-0.023c-1.132,0.337-1.774,2.315-2.637,3.554
	c1.335,0.889,2.692,2.54,3.999,2.501c2.327-0.07,4.623-1.162,7.134-1.884c0.329,1.604,0.661,3.223,0.841,4.1
	c-3.118,0.568-5.794,0.787-8.247,1.644c-0.884,0.309-1.85,2.276-1.651,3.256c0.198,0.975,1.849,2.381,2.802,2.336
	c2.594-0.123,5.157-0.914,8.06-1.508c0.129,0.576,0.356,1.594,0.56,2.508c-2.77,0.223-5.152-0.084-7.048,0.735
	c-1.347,0.582-2.04,2.68-3.025,4.102c1.536,0.816,3.093,2.325,4.603,2.279c2.07-0.063,4.104-1.305,6.17-2.048
	c1.902,4.364,1.903,4.368,6.984,3.484C472.923,342.005,474.393,341.732,475.86,341.449z M467.464,338.527
	c0.6-0.61,1.094-1.421,1.815-1.797c5.062-2.635,10.822-1.2,16.138-2.713c4.26-1.213,8.774-1.511,13.098-2.539
	c0.82-0.195,1.876-1.96,1.793-2.911c-0.237-2.717-1.11-5.372-1.533-8.082c-0.373-2.395-1.752-2.715-3.765-2.321
	c-5.503,1.077-10.995,2.225-16.528,3.121c-3.591,0.582-6.235,1.939-7.482,5.661c-0.851,2.54-2.251,4.896-3.406,7.335
	c-0.36-0.015-0.721-0.031-1.081-0.046c-0.745-3.984-1.586-7.955-2.121-11.968c-0.072-0.541,1.31-1.7,2.163-1.877
	c9.906-2.059,19.831-4.032,29.782-5.858c0.817-0.15,2.53,0.775,2.692,1.467c1.223,5.223,2.235,10.501,3.093,15.797
	c0.104,0.641-0.997,2.019-1.724,2.171c-10.147,2.12-20.32,4.124-30.514,6.006C469.191,340.102,468.277,339.037,467.464,338.527z
	 M455.213,353.872c-3.742,1.748-4.278,4.881-1.785,10.928c-0.969,0.49-2.166,0.781-2.874,1.533
	c-0.936,0.994-2.218,2.506-2.003,3.505c0.223,1.037,1.949,2.206,3.202,2.485c4.39,0.977,7.148-1.734,6.877-6.423
	c4.98-3.035,6.297-5.94,4.289-9.465C461.343,353.671,458.015,352.564,455.213,353.872z M457.546,363.269
	c-1.221-1.333-3.288-2.591-3.415-4.021c-0.118-1.323,1.843-2.83,2.888-4.256c0.558,0.024,1.115,0.048,1.673,0.072
	c0.934,1.503,2.767,3.151,2.555,4.471C461.022,360.942,458.862,362.038,457.546,363.269z M448.239,334.107
	c0.701-0.944,1.799-2.161,1.633-3.06c-0.319-1.734-1.404-3.327-2.301-5.258c2.146-2.745,2.232-6.008-1.097-8.588
	c-2.676-2.074-6.559-1.478-8.574,1.316c-2.392,3.316-1.151,6.688,3.667,9.959c-3.299,4.992-2.381,6.76,3.733,7.184
	c0.36,0.025,0.721,0.027,1.081,0.038C447.022,335.184,447.765,334.745,448.239,334.107z M442.972,325.511
	c-1.397-0.133-2.61-2.183-3.903-3.396c1.222-1.295,2.313-3.424,3.704-3.642c1.297-0.203,2.912,1.625,4.388,2.558
	c0.015,0.565,0.031,1.13,0.046,1.696C445.787,323.736,444.283,325.636,442.972,325.511z M510.298,355.227
	c3.333-0.03,6.161-2.994,6.061-6.35c-0.094-3.16-2.923-5.814-6.182-5.799c-3.222,0.014-6.009,2.732-6.081,5.929
	C504.022,352.312,506.959,355.257,510.298,355.227z M510.232,345.624c1.33-0.167,2.912,1.674,4.383,2.633
	c0.008,0.555,0.015,1.11,0.023,1.665c-1.447,1.001-2.984,2.894-4.315,2.758c-1.381-0.141-3.526-2.222-3.556-3.497
	C506.739,347.944,508.858,345.797,510.232,345.624z M452.914,347.388c0.583-2.703-2.404-3.244-4.705-3.253
	c-2.895-0.012-6.137,2.507-5.384,4.352c0.602,1.474,2.456,2.436,4.481,4.29C449.662,350.637,452.508,349.275,452.914,347.388z
	 M449.291,342.262c0.965-0.287,2.23-3.092,1.989-3.322c-1.311-1.253-3.049-2.061-4.641-3.019c-0.106-0.064-0.225-0.107-0.337-0.159
	l0.119-0.061c-0.013,0-0.025-0.001-0.038-0.001c-0.023,0.019-0.049,0.036-0.072,0.055c-1.294,0.677-2.709,1.191-3.807,2.091
	c-1.887,1.548-2.278,3.849,0.154,4.75C444.596,343.313,447.194,342.884,449.291,342.262z M518.806,352.327
	c0.905-0.147,1.904-0.877,2.458-1.657c0.443-0.623,0.287-1.673,0.495-3.296c-0.524-1.338-1.094-3.384-2.139-5.149
	c-0.382-0.645-1.893-0.622-2.889-0.904c-0.231,0.955-0.731,1.936-0.639,2.858c0.206,2.07,0.596,4.14,1.141,6.147
	C517.45,351.123,518.382,352.396,518.806,352.327z M474.111,342.833c-1.219,1.163-3.213,2.198-3.431,3.525
	c-0.205,1.251,1.461,2.809,2.304,4.232l1.573,0.074c0.992-1.333,2.856-2.745,2.744-3.977
	C477.177,345.317,475.252,344.111,474.111,342.833z M479.966,313.807c1.155-1.219,3.079-2.346,3.238-3.683
	c0.145-1.215-1.63-2.659-2.558-4.002c-0.531,0.012-1.063,0.025-1.594,0.037c-0.913,1.372-2.69,2.876-2.506,4.081
	C476.75,311.571,478.749,312.629,479.966,313.807z M467.294,315.983c1.199,0.197,2.715-1.536,4.092-2.418
	c0.011-0.519,0.021-1.038,0.032-1.558c-1.326-0.977-2.733-2.813-3.956-2.698c-1.311,0.124-3.372,2.061-3.402,3.25
	C464.03,313.749,465.977,315.766,467.294,315.983z M493.063,311.796c0.851-1.381,2.54-2.909,2.33-4.103
	c-0.231-1.31-2.211-2.313-3.429-3.449c-1.133,1.225-3.045,2.375-3.171,3.695c-0.115,1.21,1.699,2.604,2.663,3.916
	C491.992,311.835,492.528,311.815,493.063,311.796z M509.204,302.442c1.068,0.062,2.213-1.21,4.328-2.534
	c-2.093-1.412-3.204-2.731-4.295-2.714c-0.85,0.013-2.311,1.674-2.329,2.626C506.891,300.738,508.331,302.391,509.204,302.442z
	 M192.407,549.791c1.762,0.281,2.697,0.539,3.639,0.564c10.477,0.285,20.96,0.421,31.43,0.861c3.1,0.13,3.721-0.958,3.755-3.81
	c0.228-19.463,0.631-38.924,0.959-58.386c0.02-1.164-0.118-2.331-0.243-4.582C218.513,506.643,205.666,527.876,192.407,549.791z
	 M218.267,548.378c2.327-4.008,4.343-7.478,6.842-11.782c0.956,4.451,1.727,8.044,2.529,11.782H218.267z M229.098,542.166
	c-0.243-0.084-0.486-0.168-0.729-0.253c-0.269-3.461-0.538-6.922-0.806-10.383c0.512-0.018,1.024-0.036,1.536-0.054L229.098,542.166
	L229.098,542.166z M228.339,525.71c-4.232,6.758-8.118,13.733-12.292,20.528c-0.65,1.058-2.073,1.641-3.139,2.444
	c-0.287-0.304-0.574-0.608-0.861-0.912c5.65-10.623,11.3-21.246,16.95-31.869C229.869,519.331,230.352,522.495,228.339,525.71z
	 M226.885,514.104c-5.94,9.656-10.926,19.909-16.092,30.025c-1.541,3.018-3.272,4.65-6.841,4.084
	c-2.064-0.328-4.223-0.06-7.238-0.06c11.082-18.276,21.82-35.986,32.559-53.696c0.303,0.097,0.607,0.195,0.91,0.292
	C229.836,501.298,230.793,507.75,226.885,514.104z M243.853,552.144c17.004-2.021,33.914-4.031,51.759-6.151
	c-17.265-20.237-33.932-39.774-50.599-59.31c-0.387,0.157-0.773,0.315-1.16,0.472V552.144z M245.7,493.53l1.167-0.288
	c14.307,16.768,28.613,33.535,43.494,50.976c-15.374,1.837-29.994,3.584-44.661,5.337V493.53z M1192.346,488.283
	c0.561-23.185,1.105-45.662,1.649-68.138c-0.442-0.151-0.885-0.302-1.327-0.453c-14.173,22.898-28.346,45.796-42.455,68.591
	H1192.346z M1173.7,485.729c3.023-7.036,5.958-13.866,8.893-20.696c0.301,0.011,0.601,0.023,0.901,0.034
	c2.283,6.725,4.566,13.451,7.014,20.662H1173.7z M1190.921,465.142c-3.181-6.487-4.708-11.836,0-16.866V465.142z M1192.274,436.246
	c-1.357,3.387-2.317,7.01-4.158,10.109c-3.168,5.332-3.733,10.462-1.074,16.15c1.468,3.14,2.349,6.571,3.314,9.923
	c0.39,1.351,0.299,2.841-0.212,4.404c-2.245-6.26-4.49-12.521-6.735-18.781l-0.989,0.39c-3.657,8.274-7.313,16.548-10.97,24.822
	c-0.469-0.223-0.937-0.447-1.406-0.67c6.931-15.63,13.861-31.26,20.792-46.89C1191.315,435.883,1191.794,436.064,1192.274,436.246z
	 M1188.731,433.277c-7.735,17.539-15.469,35.079-23.414,53.093h-10.534c11.183-18.094,22.132-35.81,33.082-53.527
	C1188.153,432.988,1188.442,433.133,1188.731,433.277z M1203.355,418.337c-0.503,0.212-1.006,0.424-1.509,0.635
	c-0.487,22.992-0.975,45.985-1.469,69.299c20.361-2.07,40.191-4.087,60.557-6.158
	C1241.275,460.338,1222.315,439.337,1203.355,418.337z M1203.589,424.197c0.31-0.133,0.62-0.266,0.929-0.398
	c16.726,18.58,33.451,37.159,50.893,56.535c-18.169,1.82-35.331,3.54-53.085,5.318
	C1202.756,464.725,1203.173,444.461,1203.589,424.197z M1178.308,151.959c-0.11,6.327,5.037,11.569,11.288,11.498
	c6.181-0.071,11.054-5.062,11.046-11.316c-0.007-6.259-4.923-11.287-11.052-11.307
	C1183.424,140.815,1178.416,145.754,1178.308,151.959z M1189.874,143.543c4.697,0.213,8.415,4.296,8.181,8.982
	c-0.236,4.725-4.293,8.487-8.932,8.283c-4.661-0.206-8.355-4.297-8.151-9.028C1181.177,147.005,1185.151,143.328,1189.874,143.543z
	 M1152.558,153.648c3.963,4.265,8.104,7.738,10.953,12.063c2.846,4.319,4.398,9.49,6.547,14.354
	C1173.623,173.909,1161.071,154.446,1152.558,153.648z M531.207,312.199c3.49,0.126,6.288-2.492,6.329-5.924
	c0.04-3.344-2.866-6.246-6.189-6.179c-3.197,0.064-5.879,2.791-5.934,6.035C525.357,309.406,527.91,312.079,531.207,312.199z
	 M531.495,302.732c1.314-0.161,2.874,1.683,4.326,2.645c-0.002,0.564-0.004,1.129-0.005,1.693c-1.453,0.976-3.02,2.85-4.327,2.683
	c-1.403-0.18-2.561-2.277-3.827-3.537C528.93,304.974,530.095,302.904,531.495,302.732z"/>
</svg>
