<?xml version="1.0" encoding="utf-8"?>
<!-- Generator: Adobe Illustrator 21.0.2, SVG Export Plug-In . SVG Version: 6.00 Build 0)  -->
<svg version="1.1" id="Layer_1" xmlns="http://www.w3.org/2000/svg" xmlns:xlink="http://www.w3.org/1999/xlink" x="0px" y="0px"
	 viewBox="0 0 1359.783 782.726" style="enable-background:new 0 0 1359.783 782.726;" xml:space="preserve">
<path fill="white" d="M966.37,309.262c0.037,0.644,0.016,1.281,0.046,1.872C966.48,310.605,966.467,309.984,966.37,309.262z M1359.724,304.369
	c-119.146-1.435-238.292-2.87-357.762-4.308c0.093-1.724,0.095-2.945,0.234-4.15c3.897-33.763,7.513-67.562,11.785-101.277
	c6.423-50.697,13.263-101.342,20.019-151.996c1.899-14.235,4.124-28.426,6.2-42.638h-1.5c-1.622,11.243-3.372,22.47-4.845,33.733
	c-8.472,64.781-17.013,129.554-25.238,194.367c-3.255,25.651-5.768,51.397-8.571,77.105c-0.208,1.912-0.027,3.867-0.027,6.51
	c-3.788,0.691-7.845,1.432-12.696,2.317c0.748-7.181,1.361-13.458,2.061-19.725c2.672-23.946,5.279-47.899,8.084-71.83
	c3.213-27.405,6.467-54.807,9.963-82.176c4.287-33.556,8.814-67.082,13.301-100.612c1.555-11.622,3.314-23.217,4.936-34.83
	c0.224-1.602,0.195-3.238,0.282-4.859h-0.75c-1.08,8.275-2.135,16.554-3.245,24.825c-3.919,29.2-7.988,58.38-11.754,87.599
	c-4.263,33.073-8.383,66.166-12.334,99.277c-3.078,25.79-5.825,51.619-8.67,77.436c-0.807,7.318-1.507,14.648-2.134,21.984
	c-0.33,3.861-3.258,2.681-5.364,2.893c-2.871,0.289-2.416-1.747-2.163-3.528c-1.216,3.942-3,4.405-10.3,3.535
	c-2.358-0.281-2.746-1.444-2.819-2.887c-0.282,2.315-2.044,2.854-4.658,2.152c-2.227-0.598-4.366-1.526-6.548-2.295
	c-0.06-0.021-0.158,0.106-0.247,0.124c-5.166,1.054-5.777,0.238-5.382-4.901c0.842-10.949,1.373-21.923,1.973-32.89
	c1.473-26.931,2.906-53.865,4.368-80.797c1.597-29.424,3.115-58.852,4.842-88.268c1.785-30.408,3.773-60.804,5.692-91.204
	c0.275-4.355,0.66-8.703,0.995-13.054h-1.5c-0.27,7.094-0.409,14.196-0.836,21.28c-1.157,19.194-2.491,38.377-3.654,57.57
	c-1.714,28.292-3.38,56.588-4.99,84.886c-0.915,16.084-1.659,32.177-2.514,48.264c-1.386,26.061-2.818,52.119-4.193,78.18
	c-0.353,6.687-0.563,13.381-0.861,20.6c-4.026-1.458-3.866-4.525-3.786-6.954c0.364-10.985,1.032-21.96,1.593-32.938
	c1.447-28.319,2.846-56.64,4.352-84.955c2.342-44.032,4.744-88.06,7.147-132.088c0.946-17.337,1.959-34.67,2.953-52.005
	c0.035-0.617,0.19-1.227,0.288-1.84h-1.5c-0.061,0.369-0.158,0.735-0.179,1.106c-2.911,52.033-5.909,104.061-8.694,156.1
	c-2.317,43.304-4.383,86.62-6.56,129.931c-0.199,3.959-0.391,7.918-0.575,11.626h-55.841c2.397-14.421,4.663-28.198,7.046-41.955
	c0.124-0.717,1.145-1.566,1.927-1.836c5.489-1.893,8.297-5.863,8.811-11.445c0.481-5.228-0.838-9.684-6.767-11.655
	c8.194-45.238,16.353-90.279,24.512-135.322c-1.905-0.581-3.664-1.208-5.47-1.642c-1.757-0.423-3.678-1.215-5.327-0.875
	c-25.684,5.298-51.333,10.77-77.002,16.141c-1.92,0.402-3.972,0.657-5.905,0.447c-47.484-5.155-95.066-8.828-142.838-9.821
	c-53.915-1.121-107.699,0.794-161.373,6.148c-6.89,0.687-13.566,2.472-20.972,0.729c-24.302-5.717-48.888-10.221-73.283-15.562
	c-5.436-1.19-9.542,1.185-13.762,2.439c7.898,46.033,15.732,91.691,23.459,136.727c-2.07,1.789-3.926,2.796-4.916,4.354
	c-3.988,6.277-0.973,15.954,5.953,18.728c2.184,0.875,2.746,2.109,3.048,4.045c1.947,12.469,3.939,24.932,5.888,37.401
	c0.127,0.815,0.017,1.668,0.017,2.99c-1.483,0-2.822,0.002-4.162,0c-18.373-0.025-36.748-0.177-55.119,0.034
	c-3.483,0.04-4.403-0.793-4.568-4.193c-2.249-46.312-4.575-92.62-7.013-138.923c-2.076-39.437-4.337-78.865-6.481-118.299
	c-0.678-12.47-1.241-24.946-1.857-37.42h-1.5c1.092,20.709,2.163,41.42,3.279,62.128c2.218,41.172,4.506,82.34,6.677,123.514
	c2.046,38.802,3.973,77.609,5.97,116.414c0.358,6.95-0.512,8.484-7.121,9.713c-11.392,2.118-22.866,3.204-34.463,1.635
	c-4.603-0.623-9.24-0.993-13.304-1.42c0-2.877,0.17-4.688-0.025-6.459c-3.643-33.153-6.999-66.342-11.085-99.441
	c-6.061-49.096-12.529-98.143-19.065-147.178C298.688,39.226,295.423,19.633,292.45,0h-1.5c0.283,1.342,0.642,2.672,0.839,4.027
	c4.225,29.057,8.866,58.062,12.555,87.187c8.244,65.084,16.018,130.228,23.961,195.35c0.46,3.774,0.719,7.574,1.082,11.486
	c-110.178-1.16-219.759-2.313-329.341-3.466c-0.016,0.385-0.031,0.771-0.047,1.156c1.279,0.073,2.558,0.198,3.838,0.212
	c47.62,0.521,95.24,1.063,142.861,1.537c59.994,0.597,119.989,1.15,179.983,1.658c2.18,0.018,3.315,0.521,3.304,2.845
	c-0.005,1.116,0.113,2.272,0.418,3.341c0.684,2.399-0.091,3.626-2.526,4.35c-3.4,1.01-5.687,3.12-5.239,7.113
	c0.039,0.35,0.049,0.882-0.157,1.053c-3.085,2.569-4.147,6.962-8.51,8.531c-3.478,1.251-6.674,3.412-9.786,5.483
	c-0.954,0.635-1.759,2.337-1.697,3.501c0.22,4.11,1.107,8.19,1.238,12.298c0.115,3.605,1.307,4.951,5.095,4.931
	c26.619-0.144,53.24-0.063,79.86-0.137c1.265-0.004,2.86-0.44,3.739-1.27c6.627-6.254,13.165-12.605,19.587-19.069
	c0.936-0.942,1.572-2.645,1.551-3.984c-0.054-3.488-0.36-7.004-0.987-10.432c-0.18-0.986-1.731-2.33-2.765-2.438
	c-3.343-0.349-6.764,0.035-10.099-0.352c-1.391-0.161-2.766-1.408-3.922-2.42c-1.471-1.287-2.472-3.631-4.097-4.122
	c-4.729-1.429-4.304-4.53-3.707-7.895c0.364-0.229,0.467-0.349,0.57-0.35c20.369-0.037,40.738-0.094,61.107,0.013
	c0.838,0.004,2.174,1.437,2.409,2.413c0.757,3.15,1.109,6.397,1.614,9.607c2.876,18.271,5.728,36.546,8.676,54.806
	c0.194,1.202,1.082,3.234,1.697,3.254c2.082,0.065,4.934,0.14,6.171-1.103c17.099-17.181,33.991-34.569,50.887-51.951
	c1.528-1.571,2.924-3.337,4.065-5.205c4.834-7.912,10.294-14.309,21.101-12.042c3.492,0.732,7.266,0.115,11.467,0.115
	C451.41,461.056,345.534,621.386,239.582,781.83c3.286,1.921,4.037-0.577,4.997-2.023c11.899-17.9,23.75-35.832,35.573-53.781
	c43.928-66.689,87.854-133.379,131.755-200.086c48.574-73.806,97.122-147.631,145.679-221.448c2.894-4.399,5.094-5.106,10.352-3.159
	C467.059,461.582,366.202,621.796,265.345,782.011c0.361,0.239,0.722,0.477,1.083,0.716c0.693-0.966,1.439-1.899,2.071-2.903
	c11.722-18.61,23.431-37.229,35.141-55.847c53.229-84.626,106.468-169.245,159.68-253.881
	c34.786-55.328,69.54-110.676,104.266-166.042c1.528-2.436,3.217-3.632,6.301-3.627c65.124,0.094,130.248,0.089,195.372,0.016
	c2.592-0.003,4.005,0.842,5.33,3.035c27.835,46.105,55.705,92.19,83.656,138.225c49.743,81.928,99.547,163.818,149.32,245.728
	c18.625,30.65,37.229,61.312,55.863,91.956c0.68,1.118,1.58,2.102,2.378,3.148c0.303-0.237,0.607-0.475,0.91-0.712
	c-97.45-160.243-194.9-320.486-292.714-481.326c3.753,0.366,6.731-1.199,9.061,2.493c22.681,35.931,45.495,71.779,68.327,107.616
	c45.796,71.883,91.62,143.749,137.447,215.612c23.653,37.09,47.336,74.162,71.013,111.236c9.08,14.218,18.183,28.422,27.275,42.633
	c0.986,1.54,1.799,3.47,4.695,1.626C989.176,621.271,886.587,460.916,783.641,300.002c7.721,0,14.916-0.065,22.107,0.084
	c0.874,0.018,1.892,1.048,2.555,1.847c2.526,3.043,4.935,6.184,7.388,9.289c0.58-0.435,1.16-0.869,1.74-1.304
	c0.25-1.551,0.562-3.096,0.742-4.655c2.289-19.865,4.682-39.719,6.808-59.601c4.639-43.385,8.097-86.862,9.444-130.486
	c0.078-2.528,0.785-3.774,3.435-4.322c20.921-4.318,41.807-8.803,62.716-13.176c4.689-0.981,9.429-1.721,14.706-2.673
	c-18.697,90.39-32.917,180.776-45.746,272.397c-15.747-17.07-30.858-33.451-45.97-49.832c-0.192,0.985,0.146,1.487,0.547,1.932
	c14.247,15.761,28.605,31.423,42.659,47.354c2.66,3.016,5.255,4.15,9.609,3.188c3.797-23.101,7.637-46.462,11.418-69.465H943.6
	c0.573,3.819,0.665,6.574-3.553,7.673c-1.317,0.343-2.198,2.359-3.279,3.61c0.01,0.006,0.021,0.012,0.031,0.018
	c-1.743,3.513-4.987,3.19-8.193,3.194c-9.75,0.01-9.598,0.062-10.625,9.805c-0.402,3.816,0.434,6.817,3.196,9.412
	c5.915,5.559,11.718,11.239,17.73,16.69c1.058,0.959,2.906,1.45,4.398,1.468c20.871,0.258,41.743,0.448,62.615,0.529
	c6.12,0.024,12.24-0.378,18.362-0.52c1.884-0.044,2.969-0.529,3.143-2.726c0.374-4.73,0.897-9.459,1.625-14.147
	c0.329-2.118-0.397-3.203-2.131-4.142c-4.066-2.2-8.352-4.144-11.998-6.915c-2.5-1.9-5.448-4.867-5.75-7.624
	c-0.478-4.369-2.501-6.334-6.062-7.413c-3.739-1.133-1.692-3.827-1.777-5.872c-0.101-2.449,1.832-2.186,3.464-2.168
	c13.497,0.149,26.994,0.285,40.491,0.444c103.979,1.221,207.959,2.448,311.938,3.657c0.851,0.01,1.705-0.204,2.557-0.313
	C1359.763,304.949,1359.743,304.659,1359.724,304.369z M303.538,333.725c5.564-3.046,10.277-5.627,15.36-8.41
	c3.051,6.042,9.001,6.766,14.514,8.41H303.538z M389.151,349.17c-0.025,0.669-1.568,1.838-2.412,1.841
	c-26.219,0.101-52.439,0.112-78.658-0.014c-0.962-0.005-2.599-1.411-2.755-2.358c-0.67-4.041-0.901-8.155-1.353-12.871
	c26.385-0.504,52.323-0.999,79.009-1.508c-1.562-0.566-2.454-0.889-4.014-1.454c4.586-1.011,8.424-1.858,12.262-2.704
	c0.117,0.156,0.234,0.311,0.351,0.467c-0.965,0.781-1.93,1.561-2.318,1.875C389.263,338.331,389.35,343.756,389.151,349.17z
	 M408.874,316.468c0.168,0.227,0.336,0.453,0.504,0.68c-2.632,2.14-5.264,4.28-7.989,6.496c-0.418-2.706-0.744-4.816-1.109-7.177
	h8.594V316.468z M411.294,317.769c0.399,3.94,0.831,7.72,1.114,11.511c0.047,0.624-0.41,1.455-0.893,1.924
	c-6.513,6.323-13.071,12.599-20.404,19.642c-0.45-6.03-0.861-10.828-1.11-15.635c-0.036-0.696,0.525-1.663,1.11-2.113
	C397.692,328.029,404.331,323.038,411.294,317.769z M395.838,315.517c4.144,2.669,4.854,6.361,1.75,9.199
	c-1.769,1.618-4.092,3.056-6.395,3.597c-20.052,4.71-40.302,5.461-60.633,2.118c-2.562-0.421-5.141-1.83-7.298-3.363
	c-3.436-2.442-3.193-4.966-0.607-7.222c4.23,1.474,7.805,3.444,11.566,3.906c16.824,2.069,33.66,2.002,50.338-1.465
	C389.054,321.352,393.826,320.578,395.838,315.517z M391.735,318.346c-4.671,1.638-9.5,3.112-14.383,3.804
	c-14.021,1.985-28.131,2.138-42.176,0.247c-3.213-0.432-6.376-1.939-9.302-3.454c-1.193-0.618-1.693-2.573-2.508-3.918
	c24.331,5.952,47.691,5.215,71.438-1.938C395.869,315.275,394.258,317.462,391.735,318.346z M393.072,311.29
	c-1.687,0.826-3.1,1.96-4.653,2.204c-8.726,1.375-17.46,3.283-26.24,3.573c-10.047,0.332-20.152-0.725-30.212-1.448
	c-2.178-0.157-4.272-1.463-7.108-2.496c1.58-1.327,2.389-2.005,2.402-2.017c4.19,1.36,7.581,3.101,11.123,3.498
	c14.708,1.648,29.401,1.613,43.857-2.185c1.392-0.366,2.88-1.013,3.913-1.973C388.885,307.909,389.507,307.846,393.072,311.29z
	 M709.269,103.07c0.748-0.085,2.422,1.582,2.432,2.453c0.06,5.127-0.936,5.977-6.67,5.424
	C707.288,108.295,703.997,103.671,709.269,103.07z M761.181,236.942c1.506,1.329,2.967,2.716,4.542,3.958
	c1.597,1.259,3.317,2.361,4.983,3.531c-0.205,0.476-0.41,0.952-0.614,1.429c-2.52-0.801-5.203-1.286-7.52-2.481
	c-3.015-1.556-5.753-3.647-8.604-5.523c0.247-0.515,0.511-1.445,0.736-1.436c2.164,0.089,4.322,0.342,6.481,0.548
	C761.184,236.959,761.182,236.951,761.181,236.942z M558.759,274.865c2.243-4.706,11.364-10.703,15.929-10.223
	c0.826,0.087,1.566,0.987,2.345,1.512c1.588-0.521,3.176-1.496,4.765-1.497c59.115-0.044,118.23-0.028,177.345,0.139
	c2.383,0.007,4.761,1.531,7.141,2.36c2.896,2.932,5.799,5.87,9.232,9.345c-69.647,1.186-138.8,0.759-208.291-1.294
	c1.084-1.499,1.933-2.675,2.783-3.85C566.699,274.001,563.418,276.726,558.759,274.865z M578.329,243.496
	c2.375-1.942,4.751-3.883,7.126-5.825c0.002,0.002,0.003,0.003,0.005,0.005c1.958-0.616,3.917-1.773,5.873-1.77
	c52.062,0.082,104.124,0.266,156.185,0.527c2.149,0.011,4.293,0.942,6.44,1.445c0.001-0.002,0.002-0.004,0.003-0.006
	c2.735,2.292,5.472,4.587,8.84,7.412C700.888,246.678,639.779,245.916,578.329,243.496z M763.759,247.591
	c-1.031,4.653-2.05,9.577-3.299,14.442c-0.148,0.574-1.541,1.109-2.392,1.169c-2.362,0.165-4.742,0.074-7.115,0.076
	c-55.331,0.027-110.662,0.007-165.993,0.173c-3.976,0.012-5.542-1.188-5.925-5.043c-0.415-4.186-1.364-8.319-2.038-12.23
	C639.088,246.648,701.082,247.117,763.759,247.591z M589.751,234.688c-0.639-5.571-1.258-10.961-1.872-16.31
	c54.985,0.475,109.692,0.947,164.825,1.424c-0.915,4.778-1.866,9.745-2.851,14.887L589.751,234.688L589.751,234.688z
	 M588.462,234.498h-8.006c-0.558-5.487-1.116-10.98-1.724-16.965c2.294,0,4.14-0.159,5.935,0.074c0.78,0.101,2.006,0.932,2.092,1.56
	C587.443,224.165,587.903,229.194,588.462,234.498z M583.552,235.808c0.708,0.114,1.262,1.192,1.884,1.842
	c-2.258,1.355-4.73,2.466-6.681,4.172c-2.745,2.399-5.609,2.768-9.771,1.707C574.287,240.754,576.944,234.746,583.552,235.808z
	 M573.549,245.376c0.923,0.155,2.232,1.209,2.413,2.058c1.079,5.074,1.88,10.208,2.815,15.552c-8.434,1.007-8.412,1.004-9.536-6.473
	c-0.549-3.653-1.195-7.291-1.847-11.234C569.656,245.28,571.648,245.056,573.549,245.376z M774.797,274.171
	c-2.51-2.674-5.667-4.739-8.547-7.065c-0.595-0.544-1.202-1.099-2.167-1.982c4.199-0.81,7.372-0.777,10.29,2.218
	c2.923,3,6.367,5.492,10.031,8.584C780.54,276.633,777.592,277.148,774.797,274.171z M761.535,263.717
	c1.119-5.755,1.82-10.185,2.938-14.507c0.261-1.008,1.831-2.011,2.996-2.362c1.354-0.408,2.926-0.095,5.163-0.095
	c-1.13,5.36-1.778,10.544-3.542,15.315C768.65,263.257,764.609,263.113,761.535,263.717z M751.926,235.549
	c-0.254-0.422-0.507-0.843-0.761-1.265c0.561-3.303,1.133-6.604,1.681-9.909c0.994-5.999,1.605-6.396,8.222-4.905
	c-0.842,4.587-1.234,9.362-2.802,13.713C757.773,234.555,754.129,234.792,751.926,235.549z M758.721,217.775
	c-2.249-0.584-4.625-0.887-6.715-1.826c-2.321-1.043-4.381-2.666-6.554-4.037c1.864,1.622,3.729,3.244,6.368,5.539
	c-54.521,1.386-108.177,0.616-162.42-0.997c1.031-1.576,1.685-2.575,2.338-3.574c-6.34,3.942-6.34,3.942-10.344,2.917
	c4.918-5.895,7.487-7.095,13.571-6.041c-0.659,0.919-1.195,1.666-1.731,2.414c2.298-2.147,4.948-2.92,8.151-2.911
	c45.64,0.133,91.28,0.139,136.919,0.272c2.008,0.006,4.014,0.924,6.021,1.417c1.697-2.906,4.289-1.795,6.119-0.75
	c3.077,1.759,5.769,4.192,8.623,6.342C758.952,216.952,758.836,217.364,758.721,217.775z M628.675,117.017
	c2.24-2.872,4.149-4.484,7.357-4.468c21.973,0.112,43.947,0.052,65.918,0.259c2.316,0.022,4.619,1.404,6.927,2.158
	c0.569,0.654,1.136,1.306,1.784,2.051H628.675z M711.933,118.722c0.227,0.728,0.4,0.98,0.356,1.185
	c-1.762,8.232-0.329,6.635-8.101,6.664c-23.962,0.088-47.924,0.057-71.887,0.073c-1.231,0.001-2.462,0-4.096,0
	c-0.312-2.757-0.599-5.284-0.897-7.921L711.933,118.722L711.933,118.722z M622.239,117.652c-0.186-0.432-0.373-0.864-0.559-1.296
	c2.315-2.693,4.903-4.731,9.287-2.506C628.057,115.117,625.148,116.384,622.239,117.652z M626.602,126.387h-6.108
	c-0.276-2.459-0.558-4.975-0.837-7.457C626.236,117.53,627.017,118.383,626.602,126.387z M624.769,128.894
	c-2.967,1.145-5.928,2.309-8.914,3.402c-0.351,0.128-0.855-0.162-1.432-0.291C619.218,127.196,621.35,126.578,624.769,128.894z
	 M724.413,148.537c-0.714,0.635-1.401,1.686-2.162,1.744c-3.352,0.254-6.728,0.273-10.095,0.245
	c-31.053-0.259-62.106-0.544-93.159-0.831c-0.97-0.009-1.939-0.127-3.449-0.232c0.988-1.293,1.725-2.256,2.452-3.208
	c2.011-0.479,4.016-1.354,6.023-1.357c30.528-0.046,61.058-0.078,91.584,0.226C718.554,145.153,721.479,147.302,724.413,148.537z
	 M725.641,135.078c0.509,7.175-0.682,8.776-6.021,8.096C718.342,136.091,720.081,133.753,725.641,135.078z M726.551,151.5
	c-0.556,3.108-1.068,5.279-1.307,7.48c-0.299,2.748-1.553,3.658-4.401,3.645c-23.234-0.109-46.469-0.052-69.703-0.036
	c-10.493,0.007-20.986,0.033-31.479,0.05c-1.355,0.002-2.709,0-4.469,0c-0.402-3.926-0.775-7.582-1.139-11.139H726.551z
	 M710.35,143.546c-28.109,0.054-56.218,0.003-84.326,0.113c-2.979,0.012-4.414-0.769-4.319-3.909
	c0.055-1.835-0.291-3.682-0.459-5.548h97.755C718.358,143.443,718.358,143.53,710.35,143.546z M620.463,143.388h-6.185
	c-0.307-3.095-0.609-6.131-0.907-9.132C620.329,132.91,620.613,132.699,620.463,143.388z M617.924,146.209
	c-3.075,1.279-5.449,4.915-9.515,2.794C611.93,144.3,615.164,143.348,617.924,146.209z M613.499,156.715
	c0.147,1.823,0.234,3.651,0.371,5.832h-6.778c-0.419-3.959-0.828-7.821-1.237-11.678
	C612.623,150.002,612.982,150.283,613.499,156.715z M611.189,164.045c-0.446,0.85-0.878,1.674-1.311,2.498
	c2.601-2.518,5.733-2.941,9.256-2.925c34.281,0.158,68.563,0.165,102.845,0.29c1.8,0.007,3.597,0.693,5.395,1.063
	c0.006,0,0.013-0.001,0.019-0.002c1.62,1.412,3.257,2.838,5.373,4.681c-1.767,0.14-2.964,0.325-4.16,0.318
	c-38.991-0.231-77.982-0.468-116.972-0.783c-1.305-0.011-2.603-0.849-3.905-1.301c-2.32,0.441-4.64,0.882-6.96,1.323
	C603.354,165.26,606.249,162.427,611.189,164.045z M734.089,171.942c-0.668,3.327-1.138,6.777-2.163,10.053
	c-0.28,0.894-2.215,1.756-3.417,1.792c-6.24,0.189-12.488,0.113-18.733,0.118c-32.475,0.027-64.951,0.052-97.426,0.077
	c-1.461,0.001-2.921,0-4.537,0c-0.481-4.66-0.913-8.844-1.361-13.184C649.035,171.181,691.375,171.56,734.089,171.942z
	 M605.962,176.696c0.062,0.87-0.015,1.772,0.192,2.605c1.223,4.929-0.081,4.929-5.019,4.59c-0.712-0.049-1.82-1.237-1.929-2.013
	c-0.534-3.797-0.791-7.632-1.17-11.715C605.482,169.948,605.483,169.948,605.962,176.696z M601.397,185.147
	c1.509,0.25,2.223,0.583,0.917,1.994c2.206-0.658,4.412-1.885,6.62-1.89c40.42-0.084,80.841-0.043,121.261,0.078
	c1.864,0.006,3.724,1.014,5.586,1.555c0.003-0.008,0.007-0.013,0.01-0.021c1.818,1.584,3.635,3.165,5.492,4.781
	c-5.23,1.882-130.321,1.314-141.992-0.645c0.205-0.708,0.403-1.392,0.601-2.075c-2.772,1.027-5.544,2.054-8.316,3.081
	c-0.21-0.481-0.42-0.963-0.63-1.444C594.072,188.146,596.352,184.311,601.397,185.147z M742.9,194.433
	c-0.704,3.794-1.185,7.767-2.313,11.546c-0.298,0.999-2.583,1.983-3.964,1.994c-18.865,0.148-37.732,0.125-56.598,0.143
	c-25.613,0.024-51.226,0.047-76.839,0.07c-1.238,0.001-2.477,0-4.113,0c-0.542-5.154-1.065-10.132-1.578-15.009
	C646.122,193.597,694.38,194.014,742.9,194.433z M596.94,198.323c0.213,2.593,0.482,5.18,0.692,7.773
	c0.039,0.478-0.086,0.97-0.168,1.783h-7.283c-0.494-5.055-0.992-10.142-1.487-15.204
	C595.655,191.438,596.421,191.998,596.94,198.323z M748.294,206.322c-0.503,1.33-3.909,1.561-6.887,2.61
	c0.962-5.469,1.225-9.774,2.671-13.636c0.498-1.33,3.947-1.556,6.98-2.61C750.058,198.149,749.758,202.455,748.294,206.322z
	 M748.326,192.657c-2.236-0.75-4.559-1.315-6.684-2.304c-2.049-0.953-3.907-2.315-5.843-3.511c1.342-3.343,4.094-1.787,5.715-0.971
	c2.684,1.352,4.907,3.618,7.325,5.499L748.326,192.657z M733.985,184.339c-0.283-0.402-0.565-0.803-0.848-1.205
	c0.553-3.296,0.907-6.641,1.711-9.874c0.945-3.798,4.036-1.397,6.857-2.304c-0.789,4.195-1.048,7.959-2.366,11.306
	C738.862,183.469,735.843,183.675,733.985,184.339z M739.118,170.074c-1.953-0.54-4.005-0.859-5.833-1.678
	c-2.052-0.92-3.917-2.258-5.856-3.431c2.104-0.14,4.422-0.875,6.242-0.223c2.175,0.779,3.912,2.777,5.84,4.247
	C739.381,169.351,739.25,169.713,739.118,170.074z M725.785,162.17c0.493-2.987,0.414-6.035,1.612-8.45
	c0.714-1.44,3.432-1.887,5.563-2.934C733.946,159.911,732.065,162.854,725.785,162.17z M731.112,150.477
	c-2.211-0.663-4.423-1.326-6.634-1.99c-0.867-0.917-1.734-1.834-2.611-2.762c3.718-1.472,4.621-1.119,9.511,3.68
	C731.29,149.763,731.201,150.12,731.112,150.477z M725.397,133.832c-1.977-0.669-3.971-1.29-5.923-2.025
	c-1.008-0.38-1.942-0.959-2.909-1.448c0.632,0.729,1.264,1.458,1.863,2.149h-96.721c1.476-1.677,2.324-2.641,3.151-3.58
	c1.673-0.369,3.333-1.024,4.994-1.025c26.409-0.016,52.818,0.025,79.227,0.156c2.038,0.01,4.072,0.787,6.108,1.208
	c1.797-0.187,3.809-0.968,5.336-0.413c1.964,0.714,3.539,2.501,5.282,3.825C725.669,133.063,725.533,133.447,725.397,133.832z
	 M712.793,126.223c-0.608-6.92,0.248-7.945,5.981-6.834C718.055,127.005,718.025,127.038,712.793,126.223z M717.211,118.106
	c-2.794-1.083-5.588-2.166-8.383-3.25c-0.309-0.578-0.617-1.156-0.926-1.734c0.199-0.352,0.397-0.704,0.596-1.057
	c3.114,1.509,6.228,3.019,9.342,4.528C717.631,117.098,717.421,117.602,717.211,118.106z M705.962,102.634
	c-0.536,2.73-0.572,4.965-1.483,6.755c-0.516,1.015-2.463,1.82-3.773,1.832c-14.358,0.133-28.718,0.081-43.077,0.099
	c-6.243,0.008-12.493-0.1-18.727,0.159c-3.006,0.125-4.406-0.775-4.452-3.836c-0.024-1.595-0.398-3.184-0.646-5.01h72.158V102.634z
	 M627.225,103.743c0.036-0.564,1.886-1.354,2.933-1.405c0.863-0.042,2.382,0.703,2.549,1.366c0.592,2.351,0.728,4.816,1.142,8.055
	c-2.465-0.411-5.394-0.148-5.921-1.148C626.922,108.699,627.078,106.054,627.225,103.743z M436.731,242.91
	c-0.247-3.411,0.163-6.708,4.536-8.91c1.03,6.372,1.984,12.273,3.062,18.946C439.013,250.929,437.058,247.417,436.731,242.91z
	 M463.441,365.82c-5.486-35.944-10.774-71.923-16.741-107.788c-8.67-52.119-17.852-104.152-26.824-156.221
	c-0.338-1.961-0.758-3.909-1.199-6.166c2.154-0.709,3.897-1.283,6.203-2.042c17.491,91.256,31.097,182.858,43.341,274.779
	C465.391,369.371,463.936,369.068,463.441,365.82z M520.158,316.901c-16.486,16.385-32.836,32.908-49.237,49.378
	c-0.243,0.244-0.586,0.39-1.343,0.88c-12.048-91.874-25.749-183.025-43.354-273.884c0.9-0.047,1.728-0.257,2.483-0.105
	c24.724,4.985,49.436,10.036,74.169,14.976c2.809,0.561,3.918,1.756,3.978,4.717c1.336,65.554,8.362,130.648,16.056,195.682
	C523.316,311.966,522.65,314.425,520.158,316.901z M530.099,303.159c-1.763,1.716-3.175,3.792-5.516,6.65
	c-1.165-10.199-2.368-19.2-3.196-28.235c-4.022-43.904-8.074-87.807-11.815-131.735c-1.038-12.184-1.093-24.454-1.444-36.69
	c-0.028-0.96,1.037-2.672,1.818-2.816c4.519-0.834,9.106-1.303,14.124-1.954c0.138,1.581,0.321,2.768,0.335,3.957
	c0.701,61.104,3.399,122.121,8.115,183.045C532.76,298.47,532.39,300.93,530.099,303.159z M534.752,298.41
	c-0.734-10.108-1.611-19.788-2.11-29.488c-2.104-40.919-4.195-81.839-6.061-122.768c-0.517-11.349-0.205-22.735-0.365-34.103
	c-0.033-2.348,0.45-3.634,3.171-3.888c30.728-2.875,61.461-5.599,92.367-5.383c0.849,0.006,1.697,0.162,2.835,0.278
	c0.223,2.202,0.67,4.299,0.552,6.364c-0.065,1.127-0.827,2.822-1.719,3.194c-5.357,2.235-6.405,6.102-5.387,11.398
	c0.262,1.364-0.858,3.779-2.064,4.493c-3.807,2.254-5.037,5.249-3.903,9.324c1.244,4.472-0.385,7.464-4.504,9.238
	c-2.992,1.288-3.95,3.489-3.288,6.587c0.207,0.971,0.052,2.03,0.324,2.974c1.197,4.153,0.237,7.126-3.96,9.068
	c-3.364,1.557-4.973,4.248-3.826,8.232c2.078,7.215-0.181,12.475-7.308,15.448c-2.184,0.911-3.267,2.606-2.514,5.099
	c0.106,0.351,0.025,0.755,0.111,1.116c2.053,8.56,0.373,15.515-8.11,19.858c-0.919,0.47-1.579,2.404-1.533,3.628
	c0.17,4.489,0.85,8.961,0.975,13.449c0.036,1.295-0.815,3.037-1.835,3.86c-2.907,2.346-6.239,4.168-9.126,6.536
	c-0.956,0.784-1.593,2.647-1.474,3.933c0.451,4.841,1.447,9.634,1.849,14.477c0.117,1.408-0.687,3.33-1.73,4.314
	c-2.897,2.732-6.118,5.127-9.26,7.591c-1.777,1.394-2.22,2.952-1.736,5.232c1.369,6.456,2.448,12.973,3.727,19.94L534.752,298.41
	L534.752,298.41z M560.474,298.226c-1.231-7.301-2.446-14.506-3.697-21.921c2.536,0,4.884-0.147,7.193,0.086
	c0.734,0.074,1.834,1.07,1.972,1.796c1.234,6.477,2.29,12.989,3.492,20.039H560.474z M570.64,298.274
	c-1.257-7.16-2.5-14.24-3.692-21.032c69.547,0.508,138.953,1.016,208.821,1.526c-1.299,6.391-2.627,12.923-3.965,19.505H570.64
	V298.274z M781.209,298.264h-8.167c1.274-6.506,2.104-12.892,4.032-18.927c0.425-1.33,4.741-1.418,8.069-2.288
	C783.692,284.876,782.476,291.434,781.209,298.264z M804.857,297.602c-1.743,1.696-6.084,0.817-9.289,0.895
	c-4.071,0.099-8.146,0.024-12.698,0.024c1.184-6.234,2.116-12.246,3.529-18.143c0.791-3.302,0.022-5.414-2.696-7.35
	c-3.351-2.387-6.322-5.312-9.702-7.651c-2.103-1.455-2.647-3.067-2.196-5.38c0.789-4.042,1.614-8.082,2.179-12.157
	c0.158-1.141-0.145-2.976-0.916-3.509c-3.843-2.654-7.906-4.989-11.895-7.431c-0.255-1.656-0.742-3.318-0.672-4.955
	c0.096-2.233,0.262-4.591,1.053-6.643c2.482-6.433-0.407-10.538-5.749-13.235c-4.912-2.48-6.232-5.943-4.397-10.895
	c2.347-6.333,0.796-11.146-5.594-13.867c-4.43-1.886-5.514-5.137-3.861-9.274c2.648-6.628,0.072-10.699-5.781-13.747
	c-1.043-0.543-1.398-2.492-1.952-3.84c-0.168-0.409-0.033-1.014,0.123-1.475c2.186-6.454,0.257-11.008-6.023-13.873
	c-0.885-0.404-1.329-2.105-1.651-3.294c-0.211-0.78,0.012-1.773,0.299-2.578c1.923-5.384,0.222-9.134-4.991-11.348
	c-2.276-0.967-2.076-2.792-1.745-4.724c1.177-6.871,1.882-6.206-4.966-9.692c-4.501-2.291-1.515-5.39-1.58-8.072
	c-0.013-0.557,2.63-1.734,4.019-1.689c31.979,1.022,63.88,3.16,95.649,7.046c0.989,0.121,1.973,0.276,3.497,0.491
	c0,1.305,0.052,2.617-0.008,3.925c-1.533,33.318-2.754,66.655-4.729,99.947c-1.449,24.429-3.878,48.799-5.898,73.193
	C805.954,291.517,806.642,295.865,804.857,297.602z M816.158,308.642c-3.419-4.061-6.168-7.183-8.708-10.467
	c-0.491-0.635-0.292-1.916-0.196-2.878c5.264-52.593,9.11-105.278,10.445-158.13c0.192-7.617,0.348-15.235,0.541-22.853
	c0.025-0.969,0.174-1.935,0.31-3.368c4.871,0.472,9.522,0.923,14.521,1.408C831.195,177.963,824.048,242.686,816.158,308.642z
	 M903.834,242.585c-0.114,5.112-2.821,8.682-8.055,10.2c1.143-6.475,2.192-12.415,3.306-18.725
	C903.641,235.818,903.91,239.187,903.834,242.585z M875.747,365.816c-0.467,2.885-1.828,3.507-4.806,2.73
	c12.777-91.156,27.157-182.076,45.554-272.739c2.325,0.766,4.071,1.342,6.021,1.985c-1.856,9.334-3.81,18.461-5.471,27.64
	c-7.472,41.294-15.094,82.564-22.211,123.92C888.162,288.119,882.031,326.981,875.747,365.816z M922.579,316.359h8.803
	c-0.425,2.215-0.834,4.349-1.368,7.13c-2.633-2.104-5.233-4.181-7.832-6.259C922.314,316.94,922.447,316.649,922.579,316.359z
	 M940.59,350.912c-7.357-6.991-13.95-13.212-20.461-19.517c-0.615-0.596-1.048-1.741-1-2.599c0.205-3.589,0.626-7.165,1.04-11.502
	c2.19,1.838,3.884,3.366,5.686,4.752c4.64,3.569,9.395,6.991,13.94,10.675c0.915,0.742,1.557,2.385,1.544,3.604
	C941.291,340.793,940.913,345.255,940.59,350.912z M1025.978,351.005H942.65v-18.241c-0.536-0.439-1.559-1.278-3.477-2.85
	c4.881,1.052,8.651,1.864,12.42,2.676c-0.012,0.221-0.023,0.442-0.035,0.663c-0.896,0.234-1.792,0.468-2.688,0.701
	c0.016,0.104,0.032,0.208,0.048,0.313c26.047,0.498,52.093,0.997,78.582,1.504C1026.984,340.943,1026.506,345.726,1025.978,351.005z
	 M1012.788,325.444c4.788,2.587,9.63,5.203,15.261,8.245h-29.764C1009.478,329.655,1009.478,329.655,1012.788,325.444z
	 M1008.297,327.009c-2.269,1.579-4.961,3.031-7.638,3.468c-20.06,3.274-40.051,2.519-59.844-2.047
	c-2.529-0.583-5.084-2.165-7.019-3.945c-2.928-2.693-2.116-6.289,1.847-8.851c3.663,6.427,10.223,6.564,16.106,7.55
	c14.731,2.47,29.599,2.538,44.402,0.731c4.135-0.504,8.093-2.455,12.818-3.962C1011.511,321.964,1011.777,324.587,1008.297,327.009z
	 M1008.19,314.713c-0.798,1.509-1.166,3.407-2.262,4.036c-2.646,1.52-5.548,3.137-8.497,3.502
	c-17.834,2.209-35.639,2.151-53.236-2.076c-6.047-1.452-7.726-3.47-7.337-8.26c9.034,5.657,19.349,6.071,29.45,6.532
	c9.702,0.443,19.473-0.018,29.181-0.617C999.485,317.584,1003.394,315.939,1008.19,314.713z M1004.081,311.012
	c0.144,0.113,0.971,0.764,2.633,2.07c-2.863,1.055-4.951,2.414-7.099,2.518c-12.169,0.589-24.359,1.294-36.528,1.099
	c-6.523-0.105-13.036-1.84-19.514-3.054c-1.692-0.317-3.235-1.436-5.361-2.427c2.918-2.475,4.919-4.401,7.419-0.568
	c0.628,0.962,2.313,1.407,3.603,1.738c15.326,3.933,30.831,4.04,46.38,1.767C998.194,313.778,1000.617,312.333,1004.081,311.012z
	 M349.445,131.968c2.02,21.383,3.875,42.782,5.711,64.182c2.167,25.251,4.235,50.51,6.346,75.765
	c1.079,12.907,2.156,25.815,3.234,38.722c-0.29-12.589-1.152-25.138-2.188-37.672c-1.809-21.897-3.709-43.787-5.6-65.678
	c-1.913-22.144-3.787-44.291-5.82-66.424c-1.69-18.402-3.582-36.787-5.393-55.178c-1.92-19.495-3.868-38.988-5.767-58.485
	c-0.883-9.062-1.681-18.133-2.518-27.2h-0.75c1.392,14.661,2.76,29.325,4.182,43.984
	C343.729,73.313,346.675,102.632,349.445,131.968z M985.039,249.842c-1.997,20.234-3.748,40.493-5.607,60.741
	c1.208-10.653,2.498-21.298,3.607-31.962c2.648-25.448,5.107-50.916,7.835-76.356c2.822-26.308,5.76-52.605,8.851-78.883
	c3.236-27.52,6.726-55.01,10.081-82.517c1.661-13.618,3.265-27.243,4.895-40.866h-0.75c-0.087,1.489-0.086,2.99-0.274,4.466
	c-1.367,10.761-2.823,21.511-4.156,32.276c-3.099,25.017-6.217,50.032-9.193,75.064c-3.02,25.405-5.956,50.82-8.784,76.247
	C989.254,208.635,987.073,229.232,985.039,249.842z M303.017,43.751c4.637,33.02,9.323,66.033,13.771,99.079
	c3.832,28.467,7.402,56.97,11.016,85.465c3.094,24.394,6.085,48.801,9.122,73.203c0.24-1.139,0.35-2.267,0.222-3.367
	c-1.111-9.547-2.239-19.092-3.409-28.632c-3.345-27.259-6.578-54.533-10.109-81.768c-3.805-29.35-7.827-58.672-11.888-87.988
	c-3.289-23.748-6.796-47.466-10.165-71.203C300.228,19.035,298.989,9.514,297.7,0h-0.75c0.09,1.369,0.087,2.752,0.283,4.105
	C299.146,17.323,301.159,30.526,303.017,43.751z M360.678,103.022c1.678,21.412,3.186,42.837,4.766,64.256
	c1.984,26.898,3.97,53.795,5.943,80.694c1.28,17.446,2.54,34.894,3.809,52.341c0.191-2.261,0.326-4.514,0.17-6.747
	c-1.375-19.678-2.83-39.35-4.206-59.027c-1.359-19.433-2.562-38.877-3.996-58.304c-2.115-28.643-4.315-57.281-6.594-85.912
	c-1.555-19.543-3.337-39.069-4.954-58.607C354.742,21.149,354.001,10.572,353.2,0h-0.75c0.883,11.693,1.714,23.39,2.658,35.078
	C356.938,57.728,358.903,80.368,360.678,103.022z M968.837,277.86c-0.252,3.084-0.517,6.166-0.776,9.249
	c1.566-10.777,2.481-21.59,3.413-32.401c2.359-27.374,4.692-54.751,7.097-82.121c1.847-21.021,3.74-42.038,5.702-63.048
	c2.344-25.107,4.735-50.21,7.201-75.305C992.597,22.811,993.951,11.411,995.2,0h-1.5c-0.032,1.983,0.077,3.981-0.12,5.948
	c-1.925,19.251-3.979,38.49-5.842,57.747c-2.416,24.977-4.751,49.961-7.012,74.953c-2.452,27.109-4.823,54.226-7.147,81.347
	C971.928,239.277,970.414,258.571,968.837,277.86z M371.081,111.81c2.2,38.286,4.25,76.581,6.379,114.871
	c0.492,8.853,1.043,17.703,1.567,26.555c0.331-5.007-0.003-9.974-0.262-14.945c-1.377-26.441-2.651-52.888-4.122-79.324
	c-1.798-32.3-3.738-64.592-5.654-96.885C367.761,41.387,366.466,20.694,365.2,0h-0.75c0.241,4.487,0.459,8.975,0.728,13.46
	C367.146,46.243,369.197,79.022,371.081,111.81z M333.299,137.509c2.482,21.702,4.873,43.415,7.276,65.126
	c1.302,11.765,2.546,23.537,3.816,35.306c0.478-1.885,0.417-3.728,0.221-5.558c-2.14-19.985-4.262-39.972-6.466-59.95
	c-2.532-22.951-5.042-45.904-7.745-68.835c-2.571-21.807-5.335-43.592-8.098-65.376C320.686,25.47,318.907,12.74,317.2,0h-0.75
	c3.024,23.643,6.14,47.275,9.044,70.932C328.217,93.11,330.76,115.31,333.299,137.509z M979.45,0h-0.75
	c-0.733,8.685-1.457,17.371-2.202,26.055c-1.147,13.368-2.308,26.735-3.464,40.102c0.35-0.73,0.912-1.442,0.977-2.197
	C975.857,42.643,977.649,21.321,979.45,0z M240.707,733.061c-4.656-2-9.579-3.524-14.522-4.645
	c-2.551-0.579-3.476-1.235-3.593-3.939c-1.588-36.579-3.311-73.151-4.971-109.727c-0.123-2.707-0.016-5.425-0.016-8.32
	c1.083-0.115,2.053-0.306,3.023-0.309c25.6-0.06,47.438-9.876,66.556-26.193c21.126-18.031,35.293-40.882,44.919-66.726
	c0.309-0.83,0.74-1.615,1.115-2.421c0.202,14.159-0.19,28.136-0.792,42.104c-0.04,0.936-1.523,2.217-2.604,2.628
	c-3.584,1.362-7.443,2.064-10.918,3.635c-6.121,2.767-6.473,12.513-0.714,16.648c9.089,6.526,28.322,7.521,38.06,1.71
	c7.6-4.535,7.716-13.641,0.076-18.071c-2.441-1.416-5.238-2.351-7.987-3.063c-2.324-0.601-3.154-1.514-3.104-4.039
	c0.544-27.862,0.974-55.726,1.357-83.591c0.044-3.215,1.599-4.742,4.524-5.352c2.809-0.586,5.663-1.049,8.398-1.888
	c22.584-6.928,39.713-21.129,52.881-40.342c4.636-6.765,8.599-13.991,13.493-22.032c0.904,1.842,2.153,3.221,2.162,4.61
	c0.04,5.869-0.386,11.739-0.436,17.61c-0.019,2.292-1,2.871-3.074,3.22c-2.297,0.386-4.658,1.104-6.686,2.228
	c-5.086,2.817-5.271,8.567-0.575,11.94c6.465,4.644,21.607,5.123,28.467,0.9c5.186-3.193,5.405-8.942,0.233-12.101
	c-2.512-1.534-5.448-2.375-8.392-3.613c0-4.628-0.036-9.481,0.046-14.331c0.01-0.596,0.595-1.653,1.003-1.698
	c3.093-0.345,2.929-2.586,2.91-4.726c-0.033-3.872,0.043-7.756-0.231-11.613c-0.709-9.969-1.691-19.92-2.3-29.895
	c-0.119-1.954,0.304-4.9,1.59-5.801c3.709-2.598,3.334-4.377-0.266-6.183c2.377-5.102,1.983-8.502-1.126-11.153
	c-2.5-2.131-6.305-2.365-9.092-0.557c-3.434,2.227-4.152,5.654-2.363,11.317c-1.255,1.375-5.921,1.853-2.136,4.71
	c3.325,2.511,3.798,5.183,2.959,8.652c-0.763,3.154-1.497,6.333-2.544,9.399c-12.047,35.289-34.502,61.782-67.235,79.658
	c-3.565,1.947-6.543,2.684-9.528-0.609c3.484-5.937,3.292-10.682-0.622-14.618c-3.46-3.479-9.051-4.349-13.07-1.592
	c-1.76,1.207-3.811,3.12-4.163,5.006c-0.664,3.549-0.191,7.31-0.191,10.872c-1.03,1.054-3.791,3.208-3.515,3.717
	c1.064,1.965,3.098,3.405,5.427,5.681c0.093,1.331,0.896,3.935,0.341,6.206c-10.255,41.945-30.948,77.485-65.038,104.596
	c-12.505,9.945-26.36,17.563-41.773,22.781c0.321-5.2-4.286-5.091-7.174-6.765c5.305-8.012,4.57-15.423-1.923-20.936
	c-5.043-4.281-13.68-4.079-18.658,0.437c-6.219,5.642-6.543,13.082-0.66,21.514c-1.444,0.37-2.734,0.361-3.542,0.981
	c-1.493,1.147-3.686,2.622-3.743,4.036c-0.053,1.308,2.149,2.93,3.647,4.015c1.443,1.046,3.991,0.402,4.049,3.462
	c0.038,1.999,1.613,4.022,1.473,5.961c-0.935,12.955-2.328,25.878-3.217,38.835c-0.889,12.962-1.413,25.95-1.951,38.932
	c-0.06,1.434,0.465,3.85,1.35,4.196c3.409,1.333,3.356,3.855,3.239,6.679c-0.098,2.371,0.016,4.75-0.065,7.122
	c-0.072,2.117,0.708,3.435,2.962,3.376c2.195-0.057,2.704,1.109,2.727,3.049c0.068,5.747,0.192,11.496,0.437,17.238
	c0.087,2.049-0.712,2.583-2.638,3.147c-5.232,1.534-10.575,3.041-15.42,5.464c-9.584,4.793-8.305,18.852,0.985,22.376
	c5.879,2.23,12.14,4.058,18.364,4.651c12.232,1.164,24.101-0.413,34.948-7.162C249.435,749.633,249.307,736.755,240.707,733.061z
	 M199.416,687.159c-0.437,0.201-0.874,0.401-1.311,0.602c-0.542-1.191-1.605-2.409-1.546-3.57
	c0.737-14.532,1.637-29.055,2.857-43.571L199.416,687.159L199.416,687.159z M221.074,731.922c0.096,2.129,1.017,5.078-2.157,5.502
	c-3.317,0.443-6.76,0.027-10.137-0.183c-0.336-0.021-0.839-1.214-0.86-1.876c-0.288-9.237-0.507-18.476-0.721-27.716
	c-0.004-0.184,0.262-0.374,0.54-0.745c1.146,0.787,2.302,1.582,4.148,2.85c0-6.581,0.296-12.529-0.053-18.439
	c-1.316-22.32-2.887-44.625-4.249-66.942c-0.258-4.231,0.23-8.509-0.055-12.737c-0.25-3.712,0.949-5.394,4.759-4.907
	c0.832,0.107,1.689,0.016,2.841,0.016c0.168,1.826,0.376,3.404,0.449,4.988C217.426,651.796,219.263,691.859,221.074,731.922z
	 M317.305,572.042c13.527,7.251,26.608,7.441,39.971,1.898C353.31,581.14,325.836,582.171,317.305,572.042z M346.099,558.582
	c2.243,1.793,4.246,3.394,6.249,4.995c-1.704,1.981-3.408,3.962-5.449,6.333c2.882,0.142,5.033-1.173,6.684-3.35
	c2.269-2.991,0.023-5.044-1.422-7.571c1.303,0.713,2.656,1.349,3.901,2.152c5.65,3.646,5.604,8.388-0.547,11.28
	c-11.832,5.563-23.782,4.994-35.257-1.097c-5.723-3.038-5.5-7.901,0.137-11.095c1.685-0.955,3.562-1.57,4.916-2.154
	c-0.938,2.004-3.139,4.53-2.582,6.035c0.812,2.194,3.344,4.234,5.628,5.277c2.755,1.258,6.017,1.404,9.06,2.031
	c0.103-0.463,0.206-0.925,0.309-1.388c-1.096-0.269-2.189-0.548-3.288-0.805c-1.214-0.283-2.493-0.395-3.638-0.848
	c-2.592-1.027-6.479-1.541-6.19-4.949c0.307-3.614,4.172-3.944,7.524-4.8c-0.623,4.625,1.959,6.021,5.648,6.316
	C342.193,565.299,344.143,563.983,346.099,558.582z M334.263,559.125c0.708-18.954,1.194-37.916,1.792-56.874
	c0.035-1.106,0.357-2.204,0.566-3.303c1.886-9.911,3.766-19.823,5.682-29.728c0.228-1.18,0.663-2.321,1.002-3.479
	c0.368,0.042,0.735,0.085,1.103,0.127c0.099,1.159,0.301,2.321,0.282,3.478c-0.498,29.945-1.067,59.89-1.474,89.837
	c-0.047,3.469-1.949,3.959-4.516,3.885C336.235,562.996,334.129,562.717,334.263,559.125z M345.675,462.808
	c-2.52,0.522-5.104,1.111-7.646,1.035c-2.392-0.071-3.531-1.576-2.102-4.283c3.047,0,6.136-0.078,9.214,0.065
	c0.626,0.029,1.599,0.814,1.706,1.383C346.947,461.541,346.206,462.698,345.675,462.808z M437.743,427.291
	c1.009,0.37,1.997,0.562,2.798,1.057c2.424,1.498,2.397,3.084-0.229,4.308c-1.999,0.931-4.209,1.412-7.326,2.415
	c8.091,0.805,11.742-2.14,11.09-7.886c1.315,1.735,3.838,3.636,3.628,5.162c-0.242,1.758-2.626,3.886-4.552,4.629
	c-7.517,2.901-15.237,2.646-22.599-0.55c-1.973-0.857-4.475-3.284-4.504-5.027c-0.028-1.667,2.844-3.384,4.85-5.512
	c0,2.765-0.687,5.25,0.135,5.942c2.089,1.757,4.854,2.712,7.348,3.987c0.226-0.488,0.451-0.977,0.677-1.465
	c-0.944-0.321-2.014-0.459-2.806-1.002c-1.525-1.048-2.893-2.326-4.326-3.508c1.465-1.119,2.93-2.237,4.394-3.356
	c-0.013,0.511-0.026,1.023-0.039,1.534c1.78,1.088,3.438,2.67,5.369,3.147C434.467,431.861,436.771,430.586,437.743,427.291z
	 M429.371,425.48c0.457-13.355,0.702-26.719,1.234-40.071c0.107-2.687,1.222-5.322,1.726-8.009
	c1.075-5.724,2.055-11.465,3.074-17.199c0.263,0.006,0.525,0.012,0.788,0.019c0.091,0.914,0.274,1.829,0.259,2.741
	c-0.328,20.858-0.7,41.715-0.996,62.573c-0.034,2.395-0.26,4.247-3.336,4.089C429.219,429.475,429.295,427.7,429.371,425.48z
	 M430.406,356.076h7.212C435.657,358.99,435.11,358.999,430.406,356.076z M438.996,405.241c-0.271,0.009-0.541,0.018-0.812,0.026
	V380.47c0.271-0.003,0.541-0.006,0.812-0.009V405.241z M426.019,352.944c1.9-2.092,1.9-2.092,6-1.526
	c-1.136-1.974-2.926-4.233-3.704-6.799c-0.381-1.256,0.775-3.388,1.839-4.587c2.293-2.586,6.281-2.338,8.673,0.179
	c2.929,3.083,2.259,6.967-1.796,10.528c1.53,0.42,3.091,0.848,4.652,1.276c-0.038,0.416-0.076,0.832-0.115,1.248
	C436.466,354.905,431.391,354.28,426.019,352.944z M391.659,436.725c1.209-0.992,2.472-1.92,3.289-3.362
	c-9.894,7.385-20.019,14.166-31.545,18.658c16.692-10.02,31.132-22.54,42.831-38.094c11.707-15.564,20.19-32.698,24.529-51.786
	c-1.663,15.465-8.222,29.148-15.363,42.63c9.754-12.869,15.09-27.51,17.418-44.467c-0.005,18.952-12.081,54.076-37.339,77.665
	c-13.105,12.239-28.063,20.888-45.943,23.575l-0.953-1.787c1.484-0.717,2.901-1.669,4.462-2.115
	C367.475,453.529,380.133,446.182,391.659,436.725z M329.179,454.304c2.266-0.717,3.88-1.643,5.476-1.614
	c1.553,0.028,3.088,1.036,4.63,1.613l0.294-1.254c-6.156-4.2-7.646-6.825-6.258-11.22c1.14-3.607,3.728-5.568,7.419-5.92
	c3.437-0.328,6.862,2.115,8.096,5.517c1.497,4.129-0.077,7.46-6.403,12.328c2.187-0.374,3.425-0.838,4.604-0.718
	c1.281,0.131,2.506,0.805,3.966,1.316C346.11,458.447,336.233,458.561,329.179,454.304z M335.889,467.067
	c1.018,3.942-2.931,21.38-9.378,36.101c-5.082,11.605-11.172,22.768-16.751,34.001c0.462-0.512,1.217-1.198,1.793-2.011
	c14.049-19.832,22.864-41.745,26.181-65.851c0.149-1.084,0.75-2.107,1.141-3.158l1.236,0.256c0.049,1.015,0.247,2.048,0.125,3.042
	c-3.662,29.909-13.475,57.453-30.876,82.274c-11.383,16.238-25.134,29.739-42.461,39.433c-12.815,7.17-26.501,11.637-41.274,12.37
	c-0.998,0.05-1.999,0.081-2.997,0.065c-0.356-0.005-0.709-0.175-1.094-0.277c-1.053-2.682,0.226-3.545,2.679-3.842
	c18.149-2.195,34.358-9.377,49.353-19.521c3.311-2.24,6.286-4.978,9.15-7.855c-17.665,13.243-36.978,22.495-58.735,25.828
	C285.81,574.973,319.359,528.097,335.889,467.067z M193.311,593.303c2.417-3.532,5.515-4.366,9.225-2.74
	c1.272,0.557,2.777,0.582,4.425,0.266c-5.215-2.799-10.257-5.754-10.225-12.198c0.016-3.092,1.29-6.711,3.196-9.152
	c4.298-5.506,12.705-5.251,17.466-0.073c5.632,6.126,3.932,13.628-4.615,20.793c4.201-1.47,8.19-2.01,11.583,1.585
	C220.014,597.685,199.415,598.595,193.311,593.303z M200.275,599.195c6.506-0.406,12.774-0.797,19.464-1.214
	c-1.049,1.854-1.729,4.798-3.144,5.208c-3.367,0.976-7.093,1.055-10.652,0.919C203.117,604,200.732,602.595,200.275,599.195z
	 M202.028,702.069V649.56c0.106,0.037,0.213,0.074,0.319,0.11c0.455,5.554,0.91,11.108,1.365,16.661
	c0.286-0.013,0.572-0.027,0.858-0.04c-0.546-19.88-1.092-39.759-1.638-59.639l1.842-0.437c0.403,1.155,1.119,2.299,1.161,3.467
	c0.674,18.838,1.142,37.683,1.911,56.516c0.494,12.102,1.408,24.186,2.111,36.279c0.04,0.697-0.12,1.405-0.182,2.057
	C207.296,703.745,205.023,703.022,202.028,702.069z M186.852,737.223c4.655-3.118,10.083-5.082,15.168-7.558
	c0.168,0.27,0.336,0.54,0.504,0.81c-2.885,1.873-5.972,3.504-8.593,5.693c-2.306,1.925-2.286,4.557-0.438,7.048
	c3.181,4.287,16.037,7.295,21.887,4.544c-2.155-0.253-3.602-0.29-4.983-0.609c-4.345-1.003-8.873-1.617-12.94-3.315
	c-4.326-1.807-4.387-5.422-0.423-7.932c2.454-1.554,5.29-2.503,8.053-3.768c2.158,7.73,3.953,9.126,10.264,8.499
	c5.638-0.559,7.676-2.643,7.96-8.139c0.202-0.129,0.422-0.37,0.614-0.35c5.567,0.585,10.929,3.643,10.426,6.336
	c-0.91,4.869-5.416,5.729-9.26,7.053c-2.265,0.78-4.652,1.206-6.902,2.064c4.87,1.442,14.158-1.802,16.853-5.539
	c2.099-2.911,1.899-5.482-0.987-7.9c-1.58-1.324-3.541-2.194-5.918-3.623c5.832,0.621,10.521,2.482,14.463,5.793
	c3.89,3.268,3.782,8.01-0.46,11.171c-3.051,2.274-6.569,4.243-10.182,5.383c-12.575,3.968-25.319,4.22-37.997,0.307
	c-2.241-0.692-4.433-1.754-6.422-3.004C181.769,746.563,181.239,740.982,186.852,737.223z M210.369,760.014
	c-7.536-0.171-14.957-1.236-21.639-5.074c-1.731-0.995-3.154-2.526-4.525-4.03c19.777,10.049,38.666,9.358,60.265-2.422
	c0.198,0.242,0.396,0.485,0.594,0.727c-2.247,1.747-4.312,3.824-6.773,5.183C229.612,759.19,220.07,760.234,210.369,760.014z
	 M794.898,412.204c-14.819,2.369-24.827,10.518-29.737,24.707c-1.755,5.07-2.907,10.349-4.68,15.412
	c-2.704,7.726-6.797,14.439-14.495,18.325c-2.624,1.325-4.663,1.838-6.61-1.112c-0.834-1.264-2.499-2.022-3.868-2.88
	c-3.778-2.368-5.97-5.447-6.089-10.182c-0.402-15.995-3.727-31.247-12.58-44.888c-3.248-5.004-6.783-9.824-9.992-14.852
	c-0.555-0.869-0.658-2.774-0.084-3.504c7.497-9.536,8.887-20.344,7.181-31.934c-0.281-1.908,0.033-3.929,0.239-5.88
	c0.806-7.647,0.19-14.724-6.754-19.786c-0.979-0.714-1.618-2.389-1.745-3.684c-0.4-4.095-0.256-8.247-0.74-12.328
	c-0.742-6.264-3.63-7.704-8.854-4.089c-3.755,2.598-7.072,5.895-10.298,9.163c-1.735,1.758-3.393,2.506-5.872,2.425
	c-15.356-0.502-30.02,2.712-44.247,8.364c-1.407,0.559-3.617,0.252-4.994-0.498c-3.603-1.964-6.771-4.766-10.442-6.556
	c-5.92-2.887-9.979-0.001-9.411,6.598c0.319,3.703,1.036,7.452,2.168,10.989c2.224,6.95,4.488,13.617,4.19,21.286
	c-0.411,10.57,0.853,21.195,7.997,31.253c-1.832-0.745-2.539-0.902-3.098-1.279c-11.761-7.928-19.763-18.578-23.156-32.45
	c-0.319-1.304,0.013-3.019,0.626-4.253c2.45-4.932,3.75-10.254-0.534-14.263c-3.775-3.533-4.05-9.994-10-11.445
	c-0.121-0.029-0.239-0.13-0.352-0.12c-5.515,0.471-11.115,0.533-16.498,1.646c-2.015,0.416-3.467,3.342-5.273,5.019
	c-5.892,5.471-6.73,11.741-2.586,18.791c1.443,2.455,2.784,5.002,3.859,7.634c1.671,4.089,3.325,8.052,7.355,10.541
	c1.059,0.654,1.822,2.085,2.306,3.321c3.143,8.016,5.992,16.152,9.299,24.098c2.282,5.483,4.413,11.268,7.902,15.959
	c6.942,9.334,16.721,15.285,27.481,19.464c2.851,1.107,3.423,2.607,2.94,5.377c-0.75,4.3-1.44,8.649-1.625,12.999
	c-0.19,4.467-2.776,6.77-6.118,9.032c-2.068,1.4-4.534,3.37-5.129,5.547c-1.222,4.473-2.219,9.363-1.687,13.891
	c1.493,12.692,8.367,22.478,18.282,30.312c1.202,0.95,1.834,2.621,2.729,3.959c-4.879,4.646-3.612,12.144,2.921,13.738
	c5.088,1.242,10.608,1.056,15.922,0.923c4.531-0.114,7.639-2.906,9.148-7.18c0.684-1.938,1.465-3.174,3.73-2.196
	c2.006,0.866,5.311-0.248,4.972,3.971c-0.411,5.112,2.213,8.837,6.565,11.318c9.218,5.256,18.123,2.463,26.913-1.284
	c0.916-0.39,1.782-1.526,2.125-2.507c0.924-2.637,2.561-2.273,4.924-2.292c5.548-0.044,11.218-0.42,16.597-1.689
	c5.022-1.185,6.291-4.43,4.88-9.489c-0.708-2.538-1.74-4.986-2.797-7.96c-0.007,0.004,0.435-0.236,0.834-0.535
	c7.774-5.822,14.084-12.691,16.612-22.448c0.25-0.966,1.809-1.875,2.949-2.284c12.936-4.641,22.979-12.309,28.191-25.562
	c1.862-4.733,4.189-9.384,6.98-13.628c4.573-6.954,9.937-8.584,17.834-6.196c2.389,0.723,4.681,1.789,7.092,2.414
	c7.89,2.046,15.331,0.341,21.72-4.251c6.592-4.737,6.683-13.747,0.685-21.049C821.311,412.716,808.935,409.959,794.898,412.204z
	 M711.948,352.94c-1.352-2.82-2.48-5.174-3.646-7.605C712.178,344.328,713.449,346.993,711.948,352.94z M710.322,355.412
	c0.76,2.37-0.647,3.46-2.499,4.304c-5.171,2.356-11.896,0.929-16.048-3.475c0.814-0.991,1.639-1.995,3.194-3.887
	c-2.49,1.098-3.963,1.747-6.35,2.799c1.888-2.32,3.125-3.839,4.811-5.912c-1.4,0-1.672-0.08-1.86,0.012
	c-1.971,0.969-5.339,3.141-5.656,2.761c-1.846-2.217-3.115-4.974-4.207-7.698c-0.179-0.448,1.402-2.243,2.312-2.366
	c2.905-0.393,5.881-0.417,8.822-0.329c1.404,0.042,2.79,0.657,4.281,0.33c-4.69-3.955-9.903-3.46-15.324-1.113
	c-0.286-0.237-0.572-0.475-0.859-0.712c0.927-1.672,1.472-3.831,2.858-4.919c3.34-2.624,11.55-2.043,14.796,0.901
	C704.386,341.359,707.958,348.036,710.322,355.412z M690.781,321.679c2.656-2.22,5.44-4.33,8.388-6.141
	c1.901-1.168,3.649-0.118,3.934,1.93c0.591,4.247,0.784,8.549,1.213,13.71c-1.801-0.724-2.55-0.791-2.888-1.199
	c-2.568-3.094-5.03-6.269-9.827-5.394C691.486,324.606,690.448,321.957,690.781,321.679z M694.619,326.342
	c2.214-0.015,4.453,3.542,6.68,5.519c-0.238,0.436-0.476,0.872-0.714,1.308c-4.756-1.873-9.511-3.746-14.616-5.757
	C688.615,321.991,692.02,326.359,694.619,326.342z M687.689,331.366c-13.365,3.265-26.863,4.753-41.335,2.663
	C660.367,330.023,673.782,327.419,687.689,331.366z M680.397,334.804c-0.762,2.29-1.131,3.398-1.596,4.793
	c-5.124-1.828-9.83-1.743-14.361,1.825c-0.783-1.507-1.376-2.65-2.367-4.557C668.277,336.167,673.847,335.541,680.397,334.804z
	 M652.715,336.405c8.056-0.133,11.177,4.233,9.615,12.22c-0.355,1.818-0.84,3.722-1.775,5.28c-0.793,1.322-2.323,2.201-3.877,3.588
	c1.398,2.532-0.971,4.655-3.366,6.008c-3.719,2.101-7.679,4.299-11.795,5.057c-7.696,1.419-12.819-3.462-12.754-11.272
	C628.884,342.824,635.576,336.687,652.715,336.405z M612.547,333.495c0.071-3.692,2.889-5.423,5.915-3.571
	c4.24,2.596,8.006,5.959,12.059,8.877c0.71,0.511,1.832,0.45,2.299,0.552c-1.495,2.722-3.609,5.357-4.406,8.344
	c-0.888,3.33-2.419,4.976-6.761,5.126c2.317-3.799,4.36-7.149,6.403-10.498c-5.423,1.711-6.608,7.016-9.774,11.376
	C614.793,347.037,612.412,340.569,612.547,333.495z M621.88,387.121c-2.81-8.431-3.23-17.138-2.628-25.937
	c0.302-4.416,3.653-4.675,7.285-5.503c0.137,1.486,0.238,2.673,0.357,3.859c0.635,6.31,4.422,10.351,10.722,11.137
	c6.453,0.805,11.956-1.437,17.046-5.341c1.612-1.237,3.905-1.991,5.956-2.169c4.421-0.385,8.574-1.076,12.588-4.964
	c-5.012,1.39-9.165,2.542-13.318,3.694c-0.128-0.407-0.255-0.814-0.382-1.22c3.809-1.099,7.618-2.198,11.428-3.297
	c-0.119-0.399-0.238-0.798-0.357-1.198c-2.807,0.659-5.613,1.318-8.623,2.025c1.103-5.01,1.657-9.568,3.172-13.782
	c1.284-3.574,4.916-4.48,8.454-4.252c2.184,0.141,4.939,0.123,5.156,3.588c-2.628,0.676-5.243,1.013-7.566,2.022
	c-3.8,1.65-3.93,3.848-0.688,6.322c0.397,0.303,0.799,0.747,1.245,0.814c5.398,0.808,4.99,5.029,5.158,8.826
	c0.13,2.929,0.022,6.006-3.171,7.391c-2.949,1.28-6.037,1.843-8.222-2.058c-0.296,0.368-0.592,0.737-0.888,1.105
	c0.445,0.737,0.729,1.9,1.361,2.139c3.189,1.203,3.554,3.82,3.699,6.629c0.006,0.124,0.021,0.253,0.063,0.369
	c0.957,2.611,1.16,6.256,5.086,5.817c3.719-0.416,3.866-3.671,3.923-6.654c0.026-1.373,0.124-2.745,0.184-4.118
	c0.102-2.33,0.916-3.414,3.64-3.53c2.026-0.086,4.151-1.435,5.906-2.68c0.799-0.567,0.811-2.244,1.18-3.417
	c-0.389-0.104-0.778-0.209-1.167-0.313c-0.23,0.651-0.266,1.602-0.726,1.901c-1.651,1.075-3.43,2.588-5.19,2.628
	c-1.11,0.025-2.606-2.116-3.32-3.581c-0.739-1.517-0.47-3.505-1.123-5.089c-1.478-3.583-0.269-6.184,2.893-8.766
	c0.81,2.285,3.21,3.554,1.815,6.785c-0.563,1.305,0.788,3.452,3.453,3.675c3.275,0.274,6.538,1.104,9.716,2.01
	c5.137,1.464,10.076,1.206,14.952-1.311c0.361,0.659,0.735,1.052,0.792,1.487c2.551,19.432-4.456,33.702-22.004,41.448
	c-1.792,0.791-2.865,0.601-3.93-1.245c-1.484-2.572-4.201-3.65-6.794-2.47c-3.549,1.616-6.949,3.739-10.025,6.141
	c-1.579,1.233-2.541,2.133-4.786,1.624c-2.204-0.5-4.768-0.373-6.949,0.258c-2.065,0.598-3.028,0.037-4.48-1.277
	c-2.373-2.147-4.982-4.203-7.83-5.614c-4.255-2.107-6.383-1.301-9.483,2.746C628.965,399.813,624.295,394.366,621.88,387.121z
	 M678.617,347.99c-0.997,1.238-1.908,3.395-3.012,3.498c-1.644,0.154-3.424-1.14-5.146-1.818c0.03-0.541,0.061-1.082,0.091-1.623
	c2.38-0.521,4.76-1.041,7.14-1.562C677.999,346.987,678.308,347.488,678.617,347.99z M677.852,368.95
	c-0.235,1.465-0.494,2.775-0.643,4.098c-0.136,1.212-0.152,2.438-0.234,3.872c-1.354,0-2.657,0.303-3.696-0.09
	c-0.943-0.357-2.089-1.385-2.246-2.275c-0.157-0.892,0.539-2.356,1.325-2.903C673.942,370.55,675.841,369.901,677.852,368.95z
	 M705.337,397.482c-0.569,0.88-0.937,2.073-1.739,2.589c-5.184,3.333-10.464,6.518-15.785,9.797
	c-0.999-1.989-0.354-3.083,1.746-4.234c4.34-2.377,8.415-5.232,12.687-7.742C703.071,397.406,704.296,397.6,705.337,397.482z
	 M683.439,423.141c0.428,2.826-1.234,3.836-3.835,3.591c-4.529-0.426-8.105-2.641-12.075-6.564c2.132,0.312,3.194,0.468,3.924,0.574
	c-1.094-1.777-3.21-3.693-3.195-5.59c0.018-2.175,1.928-4.334,2.961-6.389c-0.43,0.123-1.216,0.347-2.057,0.587
	c1.276-4.033,8.455-8.821,12.212-7.626c1.644,0.523,3.252,2.594,3.919,4.331c0.605,1.576,0.437,3.909-0.318,5.456
	C683.13,415.299,682.824,419.084,683.439,423.141z M676.561,438.961c0.635,0.441,1.21,1.825,0.988,2.505
	c-1.375,4.211-2.985,8.346-4.516,12.506c-0.371-0.05-0.741-0.099-1.112-0.149c-2.415-9.246-3.858-18.59-2.871-28.901
	c2.88,1.273,5.276,2.331,7.953,3.514c-0.524,1.16-0.789,2.11-1.325,2.869C673.67,434.151,673.265,436.671,676.561,438.961z
	 M687.221,454.743c-1.746,0.942-9.918,0.808-10.895-0.357c-0.324-0.386-0.205-1.714,0.181-2.021
	C677.733,451.39,686.2,453.398,687.221,454.743z M678.251,449.559c1.683-0.984,3.308-2.538,5.073-2.719
	c0.921-0.095,2.091,2.228,3.148,3.458c-0.153,0.361-0.306,0.723-0.459,1.084c-2.421-0.198-4.843-0.396-7.264-0.593
	C678.584,450.378,678.418,449.969,678.251,449.559z M675.821,498.671c-0.899,3.625-2.949,4.496-6.012,2.286
	c-2.818-2.033-5.356-4.456-8.412-7.04c-2.097,1.959-4.369,3.834-6.337,5.988c-2.128,2.329-4.255,2.452-6.495,0.486
	c-4.765-4.183-9.462-8.446-14.158-12.706c-2.232-2.024-2.131-4.034-0.404-6.549c7.319-10.657,13.463-21.915,16.358-34.665
	c0.986-4.342,1.716-8.742,2.576-13.185c2.394,1.753,4.525,4.538,6.611,4.505c2.225-0.035,4.408-2.734,6.71-4.34
	c1.449,7.745,2.347,15.458,4.423,22.84c2.217,7.887,5.584,15.448,8.347,23.187c0.429,1.2,0.648,2.665,0.391,3.887
	C678.343,488.493,677.083,493.584,675.821,498.671z M676.343,508.215c7.451,1.016,14.136,1.927,21.719,2.96
	c-1.375,1.139-2.529,2.908-3.664,2.895c-5.184-0.057-10.396-0.372-15.532-1.079C675.677,512.553,674.89,510.415,676.343,508.215z
	 M637.4,409.242c0.117-2.104,0.058-4.811,1.286-6.073c1.006-1.033,4.008-0.913,5.751-0.278c3.928,1.431,7.27,3.867,9.198,7.615
	c-0.282,0.33-0.564,0.66-0.846,0.991c-0.739-0.255-1.479-0.511-2.349-0.811c2.983,5.485,2.95,5.627-2.626,8.808
	c2.042-0.184,3.257-0.293,4.737-0.426c0.09,0.732,0.448,1.532,0.207,2.056c-1.242,2.702-8.862,5.181-12.136,4.052
	c-2.908-1.003-3.749-3.959-3.055-8.651C637.918,414.159,637.266,411.661,637.4,409.242z M667.347,424.11
	c0.788,3.317-3.496,10.857-7.344,11.727c-0.675,0.153-1.746-0.268-2.264-0.79c-2.973-2.995-5.512-6.204-3.457-10.937L667.347,424.11
	L667.347,424.11z M654.791,416.391c0.13-2.529,0.103-5.48,3.635-6.605c5.208-1.659,8.229,0.615,7.992,6.044
	c-0.249,5.721-0.813,6.498-5.01,6.91C656.498,423.222,654.835,421.715,654.791,416.391z M645.957,430.036
	c-1.539-5.015,3.461-3.069,5.081-4.786c0.445,0.201,0.89,0.402,1.335,0.603c-1.928,9.296-3.857,18.592-5.785,27.888
	c-0.589-0.011-1.179-0.022-1.768-0.033c-0.466-4.176-0.944-8.35-1.371-12.53c-0.031-0.309,0.222-0.799,0.49-0.964
	C648.311,437.529,647.157,433.946,645.957,430.036z M676.671,468.848c-1.112-2.905-2.227-5.845-2.917-8.866
	c-0.747-3.267,0.519-4.224,3.797-3.648c2.782,0.489,5.611,0.715,8.993,1.127c-1.895,6.641-3.659,12.821-5.422,19.001
	c-0.338,0.074-0.676,0.148-1.014,0.223C678.952,474.076,677.689,471.509,676.671,468.848z M564.25,350.635
	c-0.117-0.52,0.447-1.388,0.946-1.773c0.257-0.198,1.367,0.152,1.568,0.531c1.151,2.168,2.144,4.419,3.191,6.643
	c-0.459,0.245-0.918,0.49-1.376,0.734C565.465,355.992,564.843,353.268,564.25,350.635z M579.656,379.271
	c0.122-0.445-0.77-1.516-1.402-1.764c-4.343-1.706-6.5-5.197-8.106-9.288c-1.348-3.435-2.906-6.788-4.22-9.83
	c1.49-0.282,3.97-0.13,4.365-0.965c0.667-1.409,0.494-3.666-0.198-5.163c-1.048-2.266-2.844-4.187-4.955-7.139
	c1.277-0.792,2.984-1.85,4.693-2.909c1.119-1.521,1.968-3.488,3.46-4.393c3.353-2.034,5.675-0.947,7.355,4.143
	c0.918-1.631,1.258-2.849,2.054-3.547c4.135-3.624,9.781-1.515,10.863,3.893c0.211,1.055,0.712,2.388,1.522,2.932
	c4.609,3.094,6.541,7.313,3.763,12.108c-2.728,4.706-1.822,8.862-0.14,13.136c1.345,3.418,0.311,5.804-2.135,7.958
	c-3.955,3.484-8.538,5.146-13.819,4.278C580.981,382.43,578.858,382.18,579.656,379.271z M581.028,384.69
	c7.96,0.955,14.549-1.426,19.449-7.933c0.385,0.158,0.77,0.317,1.155,0.475c-0.362,1.665-0.242,3.69-1.169,4.933
	c-3.697,4.959-8.824,7.146-15.007,6.353C583.473,388.263,581.133,387.99,581.028,384.69z M627.015,445.643
	c0.793-6.199-0.666-11.82-3.007-17.453c0.6,3.995,1.201,7.989,1.935,12.873c-9.773-3.523-17.477-8.653-24.443-14.884
	c-7.69-6.879-16.294-24.264-17.861-35.182c3.738-0.659,7.746-0.665,11.095-2.154c3.362-1.495,6.067-4.469,9.273-6.959
	c1.041,1.374,2.43,3.265,3.878,5.11c5.589,7.123,12.402,12.564,21.005,15.728c6.32,2.325,8.502,6.652,7.149,13.632
	c-1.346,6.943-0.752,8.234,5.506,10.94c3.071,1.328,3.969,8.081,1.805,10.632c-1.193,1.406-2.038,3.603-2.017,5.432
	c0.036,3.214,0.504,6.527,1.433,9.604c1.374,4.551,0.714,8.583-1.722,12.503c-4.02,6.467-8.016,12.949-12.026,19.423
	c-0.387,0.624-0.796,1.235-1.194,1.852c-0.45-0.125-0.9-0.251-1.35-0.376c-0.583-4.627-1.77-9.273-1.621-13.877
	C625.141,463.521,625.876,454.542,627.015,445.643z M619.07,470.479c0.577,1.019,1.168,2.063,2.048,3.619
	c0.249-2.669,0.448-4.793,0.646-6.917c0.313-0.031,0.626-0.062,0.939-0.093c0.193,0.816,0.476,1.623,0.564,2.45
	c0.58,5.448,1.15,10.898,1.639,16.354c0.093,1.034,0.173,2.378-0.372,3.108c-2.434,3.262-5.097,6.354-7.66,9.487
	C610.004,491.767,611.134,473.605,619.07,470.479z M657.692,529.69c-1.478,3.077-3.84,4.995-7.157,5.371
	c-3.334,0.377-6.728,0.586-10.073,0.419c-5.123-0.257-6.504-2.961-4.114-7.512c0.401-0.764,0.93-1.461,1.399-2.189
	c-0.313-0.191-0.627-0.382-0.941-0.572c-1.435,2.358-2.87,4.717-4.269,7.016c-1.99-2.621-1.824-3.647,1.519-8.258
	c-0.631-0.536-1.271-1.077-1.918-1.61c1.668,0.144,3.357,0.181,4.989,0.506c1.707,0.34,3.351,0.997,5.194,0.926
	c-4.236-2.497-8.696-4.688-12.636-7.586c-3.173-2.334-5.7-5.541-8.545-8.329c-2.727-2.672-2.89-5.762-1.195-8.905
	c1.492-2.765,3.349-5.333,5.457-8.633c0.915,1.703,1.37,2.393,1.677,3.144c5.76,14.078,15.146,24.849,28.949,31.496
	C658.425,526.126,658.773,527.44,657.692,529.69z M666.076,526.214c-12.811-2.617-22.358-10.144-29.932-20.329
	c-2.87-3.859-4.909-8.343-7.267-12.575c-1.534-2.752-0.9-4.981,2.222-6.857c0.847,0.94,1.646,1.996,2.611,2.868
	c4.884,4.411,9.743,8.854,14.752,13.12c2.434,2.073,4.917,1.903,7.235-0.6c1.749-1.889,3.784-3.514,5.282-4.884
	c4.496,2.972,8.576,5.67,13.35,8.826c-1.221,5.698-2.569,12.256-4.055,18.782C669.734,526.94,667.915,526.589,666.076,526.214z
	 M702.543,534.677c-0.798-1.72-1.596-3.441-2.783-6c0.371,4.034,1.313,7.2,0.773,10.089c-0.763,4.075-4.651,2.998-7.915,3.718
	c0.4-4.818,1.107-9.292-2.976-13.163c0.489,3.445,1.085,6.216,1.227,9.01c0.167,3.287-1.311,4.919-4.979,4.846
	c-4.702-0.094-8.889-1.072-12.361-4.38c-3.177-3.026-3.634-6.824-2.167-10.919c1.586-4.427,2.539-9.081,3.578-12.929
	c7.05,0.674,13.858,1.325,20.266,1.938c2.267,3.949,4.858,8.198,7.15,12.602c0.761,1.461,0.755,3.322,1.099,4.999
	C703.151,534.551,702.847,534.614,702.543,534.677z M727.155,531.926c-1.242-2.287-2.498-4.599-3.753-6.912
	c-0.342,0.174-0.684,0.349-1.025,0.523c0.135,0.426,0.209,0.885,0.413,1.274c2.612,4.977,1.207,7.722-4.401,8.301
	c-2.223,0.23-4.484,0.218-6.722,0.148c-3.396-0.105-6.355-0.559-6.772-5.112c-0.158-1.729-1.89-3.421-3.151-4.922
	c-4.454-5.303-4.536-12.051,0.062-17.066c0.464-0.506,1.912-0.745,2.496-0.406c6.722,3.895,14.028,5.754,21.67,6.562
	c0.31,0.033,0.592,0.334,1.292,0.752c-5.244,4.456-11.3,6.411-17.912,7.755c2.54,1.429,2.54,1.429,15.379-2.531
	C730.734,529.156,730.847,529.832,727.155,531.926z M742.385,496.447c-4.655,14.682-11.158,17.976-25.904,13.844
	c-3.342-0.936-6.497-2.541-9.742-3.829c-2.686-1.066-2.985-2.593-1.748-5.26c5.409-11.665,10.863-23.324,15.754-35.21
	c4.267-10.369,4.404-21.184,1.399-31.996c-0.362-1.301-0.962-2.536-1.895-3.681c0.601,2.797,1.255,5.583,1.795,8.392
	c2.384,12.393-1.141,23.841-6.109,34.881c-4.868,10.818-10.252,21.407-15.559,32.021c-0.562,1.125-2.163,2.51-3.232,2.47
	c-5.45-0.205-10.908-0.662-16.315-1.392c-3.105-0.419-4.16-2.264-3.265-5.667c4.607-17.51,8.98-35.082,13.424-52.635
	c0.206-0.813,0.312-1.652,0.464-2.478c-0.131-0.038-0.263-0.076-0.394-0.114c-0.702,1.373-1.405,2.745-2.321,4.535
	c-3.164-2.424-4.672-9.856-10.712-1.551c0.085-0.666,0.171-1.332,0.256-1.999c0.299-1.024,0.496-2.092,0.915-3.065
	c1.157-2.684,1.225-4.852-1.562-6.823c-2.112-1.494-0.066-6.645,3.014-8.061c5.307-2.44,5.525-2.491,4.562-8.01
	c-0.69-3.958,0.45-6.935,3.565-9.159c4.67-3.335,9.498-6.447,14.171-9.778c2.277-1.624,3.686-0.927,5.311,1.028
	c12.136,14.597,17.915,31.584,18.95,50.319c0.288,5.217,0.044,10.463,0.713,15.85l1.566-4.825c0.26-0.015,0.519-0.03,0.779-0.045
	c0.305,1.811,0.611,3.621,0.975,5.785c2.56-3.124,4.509-1.098,6.44,0.724C745.536,478.131,745.289,487.289,742.385,496.447z
	 M794.668,444.815c-5.295,0.146-9.581,3.046-12.47,7.34c-2.698,4.01-5.22,8.281-6.95,12.772
	c-4.509,11.702-12.706,19.502-24.049,24.288c-1.442,0.608-3.013,0.911-4.348,1.304c-1.008-5.826-1.952-11.279-2.942-16.999
	c13.915-4.944,17.849-17.392,20.998-30.435c2.555-10.583,7.536-19.596,17.474-24.964c6.613-3.572,13.881-4.63,21.595-4.872
	c-2.722,3.859-5.247,7.202-7.504,10.717c-1.82,2.834-1.566,5.454,1.703,7.228c0.218,0.118,0.426,0.268,0.607,0.437
	c1.904,1.783,5.704,3.029,4.213,6.183C801.46,441.061,799.581,444.679,794.668,444.815z M827.679,444.644
	c-6.045,4.883-19.856,4.791-26.508-0.313c0.46-0.682,0.709-1.111,1.014-1.496c4.822-6.076,4.725-8.102-1.825-12.449
	c-3.408-2.262-3.415-4.313-1.464-7.327c7.204-11.124,9.17-11.133,19.902-5.719c4.271,2.155,8.109,5.846,11.126,9.646
	C834.543,432.804,833.222,440.166,827.679,444.644z M1148.556,736.488c-3.095-1.828-6.342-3.489-9.697-4.761
	c-2.978-1.129-6.199-1.615-9.631-2.464c0.524-13.471,1.042-26.776,1.564-40.181c2.729-0.226,5.016-0.416,7.338-0.608
	c0.042-0.926,0.106-1.416,0.079-1.901c-1.358-24.328-2.579-48.666-4.213-72.976c-0.319-4.748,1.469-8.72,2.571-12.982
	c0.178-0.688,1.449-1.202,2.31-1.576c1.137-0.494,2.554-0.513,3.512-1.205c1.24-0.896,3.043-2.316,2.969-3.398
	c-0.096-1.388-1.62-2.918-2.899-3.91c-1.09-0.846-2.704-1.016-4.106-1.492c5.398-9.239,5.183-15.951-0.624-21.362
	c-4.77-4.446-13.077-5.309-17.962-1.17c-2.53,2.144-4.609,5.287-5.833,8.395c-1.856,4.71,0.095,9.165,3.042,13.131
	c-7.421,2.424-8.094,3.268-6.492,7.832c-0.234-0.01-0.483,0.022-0.698-0.049c-0.593-0.193-1.177-0.418-1.757-0.65
	c-27.984-11.192-50.683-29.222-68.85-53.142c-17.188-22.631-28.899-47.806-35.198-75.508c-1.031-4.536-0.091-7.029,2.737-8.725
	c1.35-0.81,2.292-2.3,3.419-3.482c-1.248-1.081-2.488-2.174-3.751-3.237c-0.341-0.287-0.756-0.488-1.117-0.716
	c3.048-6.347,2.418-11.055-1.86-14.763c-3.543-3.071-9.193-3.549-12.828-0.608c-1.75,1.416-3.723,3.558-3.99,5.582
	c-0.454,3.449,0.359,7.064,0.671,10.998c-4.007,2.125-4.023,2.153-8.768-0.433c-24.139-13.157-42.648-31.976-55.951-55.948
	c-6.408-11.548-10.932-23.822-13.294-36.845c-0.282-1.556-1.318-3.373,1.34-4.309c1.349-0.475,3.259-1.743,3.349-2.787
	c0.105-1.225-1.493-2.595-2.697-4.426c1.486-3.911,0.93-7.188-2.411-9.698c-3.182-2.39-6.032-2.354-9.206,0.116
	c-3.313,2.578-3.766,5.753-2.028,10.324c-0.887,2.242-2.381,4.425-1.893,5.043c3.089,3.91,3.519,8.409,3.367,12.976
	c-0.453,13.61-1.174,27.212-1.608,40.823c-0.042,1.308,1.162,2.672,1.846,3.979c0.273,0.521,1.003,0.953,1.013,1.437
	c0.074,3.493,0.553,7.124-0.271,10.417c-0.316,1.262-3.703,1.752-5.687,2.602c-0.459,0.197-0.915,0.407-1.353,0.647
	c-2.748,1.502-4.95,3.331-4.894,6.897c0.057,3.569,2.226,5.513,5.132,6.688c8.651,3.498,17.317,3.324,25.835-0.493
	c2.937-1.316,4.722-3.49,4.597-7.026c-0.128-3.598-2.298-5.44-5.242-6.554c-2.528-0.956-5.197-1.538-8.256-2.415v-29.807
	c2.785,5.577,5.267,11.311,8.389,16.671c15.958,27.4,37.767,47.296,69.911,53.629c2.186,0.431,2.728,1.595,2.741,3.653
	c0.171,27.993,0.378,55.986,0.675,83.979c0.024,2.288-0.954,2.86-2.895,3.443c-3.197,0.961-6.404,2.11-9.336,3.684
	c-7.034,3.775-5.443,13.445,0.313,16.195c12.821,6.125,25.692,6.116,38.132-0.633c6.948-3.77,6.693-12.484-0.21-16.316
	c-2.988-1.659-6.472-2.707-9.858-3.277c-2.68-0.451-3.497-1.334-3.534-3.979c-0.167-11.995-0.533-23.987-0.808-35.981
	c-0.018-0.763,0.126-1.529,0.239-2.793c20.763,51.289,52.538,88.883,110.775,95.671c-3.735,34.223-7.465,68.406-11.235,102.952
	c2.184-0.471,3.619-0.882,5.084-1.077c4.113-0.547,4.678-0.029,4.481,3.973c-0.222,4.493-0.552,8.982-0.696,13.477
	c-0.064,1.995-0.866,2.621-2.835,3.058c-4.724,1.048-9.473,2.231-13.976,3.971c-5.027,1.943-7.906,5.712-8.064,11.481
	c-0.151,5.504,2.74,8.816,6.986,11.499c7.779,4.917,16.568,6.273,25.45,6.771c9.447,0.53,18.645-0.778,27.293-5.171
	C1155.165,753.605,1156.164,740.983,1148.556,736.488z M1127.314,727.351c-0.098,2.496-0.337,5.007-0.174,7.489
	c0.19,2.883-1.133,4.208-3.795,4.41c-1.603,0.122-3.245,0.182-4.831-0.023c-3.457-0.445-5.014-2.074-4.783-6.013
	c2.418-41.154,4.645-82.319,6.937-123.48c0.047-0.852,0.232-1.696,0.363-2.61c3.685,0.58,6.959,1.094,10.809,1.7
	c0,0.932,0.045,2.247-0.007,3.558C1130.332,650.705,1128.82,689.028,1127.314,727.351z M1120.328,599.416
	c4.321,0.233,8.853,0.478,13.135,0.709c-0.562,1.953-0.57,4.526-1.622,5.066c-1.79,0.919-4.318,1.008-6.39,0.635
	C1122.2,605.239,1119.099,603.956,1120.328,599.416z M1136.094,686.499h-5.159c0.618-16.287,1.226-32.301,1.834-48.315
	c0.261-0.013,0.522-0.026,0.782-0.039C1134.392,654.136,1135.233,670.127,1136.094,686.499z M1123.581,591.118
	c-8.47-7.119-10.128-14.737-4.504-20.736c4.92-5.248,12.798-5.231,17.546,0.051c3.329,3.703,4.501,8.345,2.181,12.455
	c-2.03,3.596-5.833,6.192-9.157,9.537c4.274-0.101,9.899-4.667,13.297,1.864c-5.219,5.283-25.847,4.42-31.1-1.42
	C1115.168,588.863,1119.375,589.992,1123.581,591.118z M896.049,351.314c2.192-0.715,3.763-1.228,5.225-1.705
	c-3.999-4.244-4.412-8.051-1.043-10.951c2.707-2.33,6.751-1.911,8.925,0.926c2.718,3.546,1.473,7.277-3.828,10.758h7.96
	C908.676,354.036,901.751,354.314,896.049,351.314z M907.41,386.739c0.932,12.672,0.721,25.426,1.138,38.14
	c0.075,2.29-0.271,3.562-2.865,3.567c-2.306,0.004-3.373-0.746-3.379-3.251c-0.05-20.455-0.199-40.91-0.295-61.365
	c-0.003-0.662,0.231-1.326,0.354-1.989c0.259,0.012,0.518,0.024,0.777,0.036C904.618,370.161,906.797,378.393,907.41,386.739z
	 M911.236,425.913c0.792,0.239,1.726,0.312,2.392,0.773c0.86,0.596,2.201,1.634,2.085,2.243c-0.19,1-1.225,2.11-2.196,2.628
	c-1.581,0.843-3.397,1.246-5.014,2.111c3.243,0.761,6.126-0.157,8.14-2.578c0.845-1.015,0.516-3.007,0.835-5.418
	c1.46,1.458,3.815,2.813,4.306,4.663c0.314,1.184-1.788,3.792-3.386,4.568c-7.649,3.711-15.702,3.911-23.606,0.95
	c-2.033-0.762-4.456-2.93-4.842-4.83c-0.284-1.398,2.457-3.411,3.851-5.15c-0.863,5.852,2.883,8.946,10.045,7.585
	c-1.318-0.318-2.742-0.421-3.927-1.008c-1.584-0.784-2.982-1.943-4.46-2.942c1.183-1.262,2.367-2.524,3.636-3.878
	C903.56,431.809,908.614,431.756,911.236,425.913z M936.336,430.681c-19.252-21.203-30.149-46.057-31.072-74.919
	c1.143,17.711,7.176,33.704,17.4,48.223c-6.94-13.379-13.18-27.024-15.21-42.798c2.593,7.811,4.545,15.269,7.541,22.281
	c3.076,7.199,6.762,14.222,10.937,20.845c4.11,6.52,8.793,12.776,13.918,18.531c5.211,5.852,10.979,11.3,17.033,16.282
	c6,4.937,12.66,9.07,19.461,13.859c-12.453-5.203-23.156-12.275-32.963-20.812c-0.2,0.25-0.4,0.499-0.599,0.749
	c2.277,2.004,4.469,4.117,6.847,5.993c10.597,8.363,22.238,14.757,35.259,18.543c1.402,0.407,2.664,1.295,3.585,2.68
	C967.232,457.112,950.374,446.141,936.336,430.681z M986.711,454.858c-0.042-0.385-0.084-0.77-0.127-1.155
	c2.403-0.332,4.807-0.663,7.542-1.041c-3.619-2.083-6.402-4.946-5.679-9.33c0.338-2.048,1.53-4.297,3.023-5.742
	c3.266-3.16,8.756-2.268,11.557,1.465c3.534,4.709,1.767,9.387-5.203,13.774c0.06,0.328,0.121,0.655,0.181,0.982
	c1.492-0.394,2.979-1.084,4.476-1.104c1.686-0.022,3.381,0.558,5.561,0.969C1003.317,458.082,993.695,458.351,986.711,454.858z
	 M990.698,459.612h11.128c-0.783,1.212-1.231,2.82-2.114,3.11C996.218,463.872,993.197,462.669,990.698,459.612z M1000.991,499.865
	c0.375,2.198,0.531,4.45,0.589,6.682c0.429,16.486,0.697,32.977,1.29,49.457c0.129,3.588-1.307,4.832-4.432,4.797
	c-2.905-0.032-4.668-0.84-4.68-4.581c-0.09-28.86-0.437-57.72-0.686-86.579c-0.013-1.537,0.145-3.076,0.223-4.615
	c0.473-0.047,0.947-0.093,1.42-0.14c0.239,1.098,0.516,2.189,0.712,3.295C997.299,478.74,999.188,489.295,1000.991,499.865z
	 M979.569,571.234c12.15,5.384,24.369,5.188,36.721,0.69C1007.291,578.306,987.827,577.939,979.569,571.234z M1004.993,557.231
	c0.366-0.183,0.48-0.295,0.572-0.279c2.972,0.532,6.82,1.08,6.825,4.407c0.002,1.602-3.86,3.575-6.286,4.706
	c-2.131,0.994-4.699,1.048-7.641,1.629c4.664,1.925,13.042-0.403,15.384-3.803c2.079-3.017,0.175-5.057-2.11-7.184
	c0.753-0.034,1.157-0.171,1.452-0.048c3.345,1.398,7.452,2.591,7.652,6.788c0.205,4.282-3.773,5.887-7.14,7.184
	c-9.413,3.626-19.009,3.739-28.622,0.783c-1.648-0.507-3.25-1.314-4.718-2.232c-4.317-2.7-4.492-6.689-0.421-9.62
	c1.499-1.079,3.207-1.866,4.82-2.787c-1.54,2.525-3.402,4.717-1.082,7.554c1.614,1.975,3.658,3.425,6.202,2.92
	c-1.799-2.178-3.45-4.175-5.1-6.173c1.984-1.483,3.968-2.966,6.138-4.587c1.968,5.313,4.138,6.743,8.572,6.324
	C1002.976,562.485,1005.616,561.309,1004.993,557.231z M1112.257,603.461c-10.305-0.681-20.23-3.106-29.777-7.02
	c-19.884-8.151-36.203-21.01-49.419-37.845c-20.28-25.833-31.87-55.201-35.354-87.808c-0.186-1.741-0.024-3.518,0.629-5.442
	c3.851,26.639,13.076,50.981,29.317,72.466c-13.08-22.103-23.428-45.205-26.412-71.043c15.287,58.369,46.63,103.96,102.906,129.868
	c-0.159,0.353-0.319,0.707-0.478,1.06c-8.619-3.49-17.493-6.469-25.785-10.615c-8.269-4.134-15.952-9.437-23.955-14.07
	c17.818,15.452,38.582,24.542,61.938,28.05c0.086,0.431,0.172,0.861,0.257,1.292
	C1114.834,602.744,1113.517,603.545,1112.257,603.461z M1105.862,706.494c3.799-34.207,7.587-68.312,11.375-102.417
	c0.53,0.049,1.06,0.099,1.589,0.148c0.023,24.231-5.191,48.091-5.312,72.361c0.655-4.399,1.31-8.799,1.964-13.198
	c0.11,0.005,0.22,0.01,0.33,0.015c-0.792,13.961-1.583,27.923-2.365,41.701C1110.916,705.568,1108.531,706.005,1105.862,706.494z
	 M1141.62,758.128c-10.048,3.44-20.404,4.029-30.679,1.712c-5.751-1.297-11.241-3.852-16.744-6.098
	c-2.012-0.821-3.721-2.387-5.569-3.612c0.528-0.513,1.055-1.025,1.583-1.538c12.593,12.074,45.77,13.651,60.217,3.249
	C1148.543,755.339,1145.15,756.919,1141.62,758.128z M1147.52,751.008c-4.502,2.458-9.652,4.159-14.716,5.071
	c-10.482,1.888-20.941,0.874-30.995-2.72c-3.12-1.115-6.125-2.866-8.797-4.847c-4.848-3.593-4.728-9.284,0.424-12.302
	c3.986-2.335,8.484-3.796,12.754-5.645c0.16,0.364,0.319,0.728,0.479,1.093c-1.605,0.8-3.304,1.454-4.797,2.426
	c-4.28,2.785-4.53,6.874-0.735,10.216c3.394,2.989,10.499,5.179,15.545,4.164c-1.392-0.453-2.819-0.821-4.169-1.377
	c-3.424-1.411-7.08-2.498-10.141-4.486c-2.987-1.94-2.76-4.76,0.325-6.613c2.597-1.56,5.615-2.421,8.554-3.636
	c1.452,7.298,3.843,9.392,9.969,9.254c6.042-0.136,7.044-1.084,8.317-8.57c3.14,1.554,6.327,2.661,8.95,4.55
	c3.219,2.319,2.88,5.734-0.949,7.259c-4.211,1.678-8.834,2.339-13.298,3.354c-1.181,0.269-2.436,0.212-4.754,0.387
	c6.051,2.831,18.596,0.051,21.792-4.123c1.984-2.59,1.957-5.368-0.518-7.345c-2.832-2.262-6.138-3.931-9.051-5.74
	c5.861,1.119,11.731,3.07,16.63,7.169C1153.349,742.74,1153.262,747.872,1147.52,751.008z M704.225,587.807
	c-2.108-0.264-4.575-1.481-5.965-3.057c-10.823-12.271-21.419-24.743-32.095-37.145c-3.165-3.677-3.837-3.69-6.857-0.019
	c-10.236,12.447-20.399,24.954-30.736,37.317c-1.331,1.592-3.402,3.269-5.329,3.551c-22.989,3.366-46.017,6.468-69.031,9.668
	c-1.54,0.214-3.048,0.658-5.571,1.216c2,2.017,3.282,3.455,4.711,4.728c13.339,11.882,26.665,23.777,40.096,35.555
	c2.252,1.975,2.93,3.779,2.13,6.791c-5.584,21.004-10.971,42.06-16.4,63.105c-0.417,1.615-0.67,3.272-1.065,5.234
	c1.052-0.142,1.551-0.122,1.983-0.281c26.954-9.93,53.889-19.914,80.883-29.733c1.918-0.698,4.501-0.837,6.387-0.158
	c21.861,7.866,43.643,15.95,65.454,23.953c6.055,2.222,12.139,4.367,19.026,6.84c-0.304-1.829-0.362-2.67-0.587-3.464
	c-6.156-21.754-12.243-43.528-18.582-65.228c-1.06-3.629-0.501-5.85,2.368-8.395c14.017-12.436,27.828-25.103,41.667-37.739
	c0.838-0.766,1.284-1.962,1.912-2.957c-1.109-0.426-2.188-1.102-3.333-1.24C751.602,593.498,727.899,590.768,704.225,587.807z
	 M772.095,601.877c-13.128,11.937-26.22,23.916-39.463,35.724c-2.65,2.362-3.484,4.4-2.419,8.034
	c5.933,20.262,11.538,40.621,17.243,60.95c0.357,1.271,0.609,2.572,1.089,4.623c-1.832-0.53-2.975-0.795-4.072-1.188
	c-24.937-8.93-49.895-17.803-74.775-26.889c-3.785-1.382-7.031-1.336-10.772,0.092c-23.927,9.133-47.928,18.073-71.908,27.067
	c-1.713,0.642-3.455,1.207-5.963,2.078c0.5-2.651,0.75-4.567,1.228-6.424c5.139-19.965,10.219-39.946,15.57-59.855
	c0.896-3.335,0.143-5.293-2.303-7.44c-12.867-11.29-25.621-22.709-38.406-34.091c-1.17-1.041-2.289-2.139-4.065-3.805
	c2.055-0.41,3.216-0.703,4.396-0.868c21.905-3.06,43.804-6.159,65.727-9.087c3.006-0.401,4.949-1.762,6.772-4.012
	c9.914-12.232,19.927-24.383,29.919-36.551c0.775-0.944,1.654-1.804,2.861-3.109c2.506,2.826,4.825,5.376,7.073,7.988
	c9.209,10.704,18.328,21.486,27.671,32.071c1.233,1.397,3.494,2.379,5.396,2.616c22.319,2.776,44.66,5.371,66.995,8.021
	c1.468,0.174,2.929,0.404,5.302,0.734C773.816,600.038,773.023,601.033,772.095,601.877z M589.263,84.588
	c3.174,1.808,5.695-0.122,7.681-2.706c7.572-9.848,17.451-16.277,29.289-19.851c1.963-0.593,3.367-0.745,4.766,1.311
	c5.856,8.606,14.735,12.842,24.177,16.15c0.592,0.207,1.32,0.027,2.42,0.027c-4.591-10.712-13.947-14.828-23.271-19.354
	c0.907-0.241,1.803-0.632,2.724-0.701c11.038-0.832,8.931-2.701,15.307,7.29c4.081,6.395,9.974,11.669,15.306,17.202
	c1.139,1.182,3.367,1.314,5.093,1.93c0.265-0.394,0.53-0.787,0.795-1.181c-4.335-10.13-9.902-19.382-20.058-26.237
	c3.356,0,5.938,0.109,8.506-0.03c2.64-0.144,3.792,0.879,4.071,3.575c0.79,7.634,4.777,13.839,9.384,19.683
	c0.921,1.168,2.225,2.035,3.353,3.041c0.313-0.204,0.625-0.408,0.938-0.612c-0.706-8.014-3.218-15.505-7.218-22.675
	c1.4,0.963,2.285,2.24,3.345,3.351c4.036,4.229,8.036,8.501,12.261,12.537c1.158,1.106,3.05,1.443,4.605,2.132
	c0.237-0.365,0.474-0.73,0.711-1.095c-2.45-7.417-8.135-12.517-13.358-18.143c1.94,0.519,3.741,1.337,4.729,2.731
	c4.107,5.798,8.902,10.836,15.173,14.235c2.105,1.141,4.586,1.587,6.896,2.351l0.564-1.278c-3.959-7.264-11.986-10.63-17.643-16.912
	c4.913-0.967,7.547,1.342,10.084,4.102c5.213,5.669,10.894,10.715,18.66,12.609c1.053,0.257,2.188,0.174,4.137,0.307
	c-4.343-6.937-10.907-9.859-16.813-14.721c4.046-0.116,6.825,0.34,9.794,2.182c6.857,4.257,14.02,8.052,21.245,11.662
	c1.635,0.817,4.026,0.12,6.069,0.12c0.123-0.451,0.246-0.901,0.369-1.352c-3.562-2.757-7.123-5.514-10.685-8.271
	c9.324,2.47,18.58,4.372,28.059,2.49c0.101-0.512,0.202-1.024,0.303-1.536c-4.395-1.798-8.789-3.597-13.299-5.443
	c19.676-8.381,20.81-9.06,23.156-14.299c-4.746,0.67-9.149,1.292-14.608,2.062c4.457-5.144,9.304-8.729,9.889-15.313
	c-3.4,0.979-6.611,2.174-9.519,3.884c-7.581,4.46-13.127,11.078-18.365,17.978c-2.064,2.719-2.714,2.884-5.756,1.524
	c7.641-6.207,14.938-12.642,18.109-22.249c-0.26-0.312-0.52-0.624-0.78-0.936c-1.812,0.883-3.625,1.766-5.689,2.773
	c-0.193-1.242-0.348-2.245-0.56-3.609c-3.206,1.814-6.105,3.454-9.007,5.095c-1.257-2.574-1.321-2.744-3.854-1.797
	c-8.815,3.296-16.537,8.224-22.347,15.774c-1.545,2.007-3.004,3.6-6.049,1.863c6.625-5.401,13.682-10.078,18.517-18.277
	c-1.722,0.487-2.533,0.652-3.297,0.942c-7.667,2.904-14.154,7.482-18.978,14.128c-2.485,3.423-5.251,2.718-9.158,1.404
	c7.825-4.955,14.443-10.271,19.84-18.073c-1.691,0.138-2.532,0.082-3.301,0.289c-8.352,2.255-15.221,6.735-20.526,13.622
	c-3.355,4.356-4.704,4.627-10.214,2.347c6.411-5.819,14.532-10.217,15.955-20.035c-2.672,0.646-5.079,1.569-7.253,2.878
	c-5.918,3.56-10.226,8.73-13.864,14.5c-1.139,1.806-2.35,3.227-5.102,1.636c5.544-6.447,10.038-13.258,11.39-21.563
	c-0.312-0.283-0.625-0.565-0.937-0.848c-2.749,1.9-5.498,3.8-8.254,5.706c0.605-1.892,1.184-3.7,1.763-5.508
	c-0.32-0.356-0.639-0.712-0.959-1.069c-4.688,2.667-9.376,5.334-14.883,8.468c2.588-5.06,5.438-9.044,5.365-14.673
	c-6.659,2.793-11.355,7.057-14.995,12.303c-3.652,5.264-6.701,10.946-10.52,17.283c-2.908-14.354-10.938-23.676-23.747-28.955
	c2.34,12.523,11.188,21.297,18.077,31.566c-6.006,1.918-11.892,3.26-17.305,5.666c-6.33,2.814-12.415,6.296-18.256,10.035
	c-2.115,1.354-3.722,4.097-4.65,6.551C585.977,79.442,586.253,82.873,589.263,84.588z M704.687,77.256
	c-8.452-3.014-15.008-8.241-19.082-16.362C693.006,65.123,699.082,70.913,704.687,77.256z M588.385,76.589
	c1.343-2.681,3.34-5.586,5.842-7.026c6.337-3.649,13-6.807,19.755-9.63c4.799-2.006,9.96-3.146,15.588-4.864
	c-7.156-9.836-15.017-18.751-18.824-30.163c12.48,5.606,19.055,15.741,21.519,29.054c0.387,0.012,0.774,0.024,1.161,0.037
	c1.004-1.724,2.145-3.384,2.99-5.184c3.863-8.224,8.496-15.873,15.77-21.587c1.241-0.975,2.637-1.753,4.843-3.201
	c-1.077,7.081-5.375,11.548-8.359,16.598c0.248,0.187,0.496,0.374,0.744,0.561c5.609-3.613,11.218-7.227,16.828-10.84
	c0.305,0.398,0.609,0.797,0.914,1.195c-4.943,9.194-13.313,15.082-21.404,21.845c4.398-0.241,8.82-0.298,13.176-0.862
	c1.001-0.13,1.957-1.899,2.624-3.088c2.608-4.653,4.921-9.481,7.712-14.018c1.007-1.638,3.047-2.64,5.002-3.578
	c-1.75,8.06-6.014,14.584-11.695,20.351c4.586,2.34,6.266,2.016,8.537-1.502c3.913-6.061,8.527-11.41,14.909-15
	c1.007-0.566,2.097-0.985,3.498-1.013c-3.076,8.809-10.883,13.092-17.474,18.537c5.097,3.356,10.884,2.682,14.175-1.858
	c4.027-5.556,9.428-9.209,15.519-12.029c0.79-0.366,1.627-0.645,2.464-0.887c0.321-0.093,0.704,0.032,1.81,0.112
	c-5.467,7.183-12.419,11.817-19.642,16.314c4.997,3.129,10.326,2.44,13.575-1.502c5.733-6.953,10.973-10.784,16.519-12.073
	c0.242,0.277,0.485,0.554,0.727,0.831c-5.972,5.014-11.944,10.028-17.901,15.031c5.941,2.257,6.871,1.899,10.83-2.925
	c5.587-6.807,12.831-11.24,21.559-14.759c-0.248,1.233-0.316,1.767-0.468,2.277c-0.167,0.559-0.412,1.095-1.048,2.743
	c4.276-2.439,7.651-4.365,11.351-6.476c0.272,1.023,0.491,1.849,0.829,3.123c1.944-0.821,3.725-1.573,5.505-2.324
	c-0.236,5.138-11.131,17.284-18.749,20.269c1.803-3.611,3.299-6.61,4.814-9.645c-4.84,2.936-9.547,5.803-14.283,8.621
	c-0.192,0.114-0.659-0.235-1.417-0.533c0.922-1.643,1.796-3.202,2.671-4.761c-0.184-0.279-0.368-0.558-0.551-0.838
	c-3.497,1.692-6.993,3.384-10.49,5.075c0.014,0.362,0.028,0.724,0.042,1.086c3.606,0.548,7.213,1.095,10.819,1.645
	c3.552,0.541,7.108,1.065,10.656,1.633c3.386,0.542,6.04,0.164,8.359-3.122c5.431-7.695,11.726-14.648,20.409-18.914
	c1.313-0.645,2.681-1.179,4.381-1.377c-2.349,6.465-7.431,10.632-12.723,14.63c0.164,0.291,0.329,0.581,0.494,0.872
	c5.06-0.871,10.12-1.742,15.18-2.613c-6.218,7.913-15.575,9.501-24.203,13.247c4.636,1.402,9.273,2.804,13.91,4.206
	c-0.108,0.368-0.216,0.735-0.324,1.103c-12.237,2.651-23.069-4.735-35.526-5.471c7.05,4.002,13.487,7.657,19.924,11.311
	l-0.622,1.659c-1.546-0.315-3.285-0.279-4.606-1.005c-6.863-3.768-13.435-8.118-20.486-11.471c-3.971-1.888-8.67-2.245-13.041-3.291
	c-0.195,0.468-0.389,0.936-0.583,1.404c5.875,4.281,11.75,8.563,17.625,12.844c-0.228,0.428-0.456,0.855-0.685,1.283
	c-1.534-0.478-3.357-0.581-4.552-1.5c-5.214-4.011-10.354-8.136-15.306-12.465c-3.43-3-10.224-4.206-13.484-2
	c-0.005-0.009-0.01-0.018-0.015-0.028c-3.345-0.829-6.69-1.656-10.035-2.482c-0.196,0.437-0.393,0.874-0.589,1.31
	c7.033,4.43,13.059,9.758,17.175,18.319c-10.462-4.31-13.804-15.057-22.532-19.862c3.534,7.762,7.695,15.078,8.231,23.741
	c-4.652-4.704-8.206-10.065-9.832-16.559c-1.993-7.963-1.958-7.989-10.231-8.051c-1.995-0.015-3.993,0.091-5.985,0.217
	c-0.442,0.028-0.864,0.376-2.137,0.967c11.642,5.198,17.13,14.95,22.152,25.082c-0.247,0.337-0.495,0.674-0.742,1.012
	c-1.967-1.227-4.397-2.064-5.815-3.751c-4.636-5.516-9.295-11.089-13.196-17.124c-3.63-5.616-3.976-6.365-10.619-5.724
	c-3.033,0.292-6.042,0.84-9.061,1.272c-0.137,0.499-0.273,0.998-0.41,1.497c1.767,1.076,3.42,2.457,5.322,3.171
	c5.696,2.139,10.988,4.829,15.012,9.54c1.013,1.186,1.88,2.497,2.814,3.751c-0.262,0.393-0.524,0.786-0.785,1.179
	c-4.43-2.265-9.155-4.106-13.202-6.922c-3.513-2.444-6.504-5.789-9.252-9.127c-1.569-1.906-2.781-2.268-5.027-1.591
	c-12.308,3.711-22.789,10.083-30.665,20.424c-1.475,1.937-3.193,3.987-5.912,2.556C587.281,81.992,587.242,78.87,588.385,76.589z
	 M665.145,37.872c-1.62,3.829-3.192,7.824-5.035,11.69c-0.437,0.917-1.723,1.865-2.722,1.992c-2.299,0.294-4.661,0.093-7.586,0.093
	C655.267,46.741,660.255,42.262,665.145,37.872z M729.092,54.15c-0.755,4.967-1.167,5.249-5.89,3.962
	C725.273,56.72,727.039,55.532,729.092,54.15z M319.471,103.606c3.684,29.11,7.252,58.235,10.724,87.371
	c3.31,27.769,6.438,55.56,9.64,83.342c1.29,11.199,2.563,22.4,3.844,33.6c-0.188-6.512-0.77-12.977-1.492-19.427
	c-3.057-27.294-6.088-54.591-9.258-81.872c-3.04-26.163-6.078-52.329-9.414-78.455c-3.511-27.491-7.356-54.939-11.121-82.397
	c-0.246-1.795-0.983-3.522-1.529-5.275c0.533,3.845,1.071,7.688,1.596,11.534C314.81,69.218,317.293,86.393,319.471,103.606z
	 M310.778,40.227c0.027,0.089,0.059,0.177,0.086,0.266c-0.015-0.107-0.03-0.214-0.044-0.321c-0.036-0.259-0.071-0.518-0.107-0.778
	c0.025,0.273,0.051,0.545,0.077,0.818C310.785,40.217,310.778,40.227,310.778,40.227z M344.81,241.461
	c2.14,20.756,4.28,41.512,6.421,62.268c0.244-0.024,0.488-0.049,0.732-0.073c-2.146-20.756-4.291-41.511-6.436-62.267
	C345.287,241.414,345.048,241.437,344.81,241.461z M380.652,270.402c-0.205-0.017-0.41-0.034-0.615-0.052
	c0.419,8.468,0.839,16.936,1.258,25.404c0.166-0.008,0.333-0.015,0.5-0.023C381.414,287.289,381.033,278.845,380.652,270.402z
	 M308.416,14.909c-0.352,0.041-0.704,0.081-1.055,0.122c1.117,8.121,2.235,16.241,3.352,24.362
	C309.954,31.223,309.185,23.066,308.416,14.909z M973.027,66.249c0.003-0.031,0.005-0.062,0.008-0.092
	c-0.009,0.018-0.02,0.036-0.028,0.053l0.001,0.002l-0.001-0.002c-0.008,0.236-0.012,0.472-0.019,0.708
	c0.016-0.217,0.034-0.433,0.05-0.65C973.034,66.264,973.03,66.256,973.027,66.249z M956.485,285.921
	c-0.461,6.532-0.689,13.08-1.025,19.62c1.209-10.935,2.067-21.882,2.846-32.835c1.381-19.425,2.665-38.857,4.08-58.28
	c1.65-22.662,3.367-45.32,5.11-67.975c1.599-20.792,3.329-41.575,4.874-62.371c0.424-5.704,0.44-11.438,0.618-17.161
	c-0.38,5.026-0.767,10.039-1.159,15.05c-2.865,36.603-5.808,73.2-8.573,109.81C960.886,223.151,958.7,254.537,956.485,285.921z
	 M993.724,303.5c13.073-98.448,26.147-196.895,39.22-295.342c-0.29-0.038-0.579-0.077-0.869-0.115l-39.088,295.181
	C993.233,303.316,993.478,303.408,993.724,303.5z M662.7,449.96c-0.168-1.216-2.03-2.199-3.151-3.283
	c-0.931,1.224-2.448,2.377-2.606,3.694c-0.127,1.055,1.397,2.309,2.854,4.454C661.259,452.528,662.86,451.122,662.7,449.96z
	 M657.856,466.879c-0.16,0.635,1.734,2.513,2.675,2.496c0.974-0.017,1.919-1.647,3.388-3.066c-1.502-1.294-2.422-2.086-3.342-2.879
	C659.605,464.564,658.182,465.584,657.856,466.879z M658.801,346.605c-6.01-5.015-17.403-1.322-18.76,6.836
	C645.295,346.773,651.376,344.679,658.801,346.605z M588.07,359.713c-1.814-3.043-4.647-5.15-8.535-5.089
	c-4.815-0.039-8.711,3.153-9.438,7.838c-0.806,5.198,3.213,4.501,6.227,5.009c0.119,0.02,0.231,0.089,0.345,0.139
	c4.399,1.916,7.461-1.59,10.942-3.007C588.363,364.297,588.785,360.912,588.07,359.713z M584.146,364.408
	c-3.629,2.848-7.11,1.28-10.655,0.98c-0.64-0.054-1.722-2.022-1.577-2.945c0.578-3.686,3.685-6.001,8.709-6.031
	c0.759,0.398,2.682,1.039,4.139,2.244C587.853,361.21,587.142,362.057,584.146,364.408z M586.641,348.77
	c0.815-1.826,0.869-4.119,0.749-6.181c-0.057-0.989-1.177-2.581-1.988-2.697c-1.073-0.154-2.809,0.557-3.381,1.456
	c-1.161,1.826-1.731,4.026-2.83,6.789c1.177,1.481,2.365,2.974,3.552,4.468C584.087,351.347,585.949,350.32,586.641,348.77z
	 M582.278,343.787c0.512-1.007,1.809-1.615,2.758-2.4c0.492,1.039,0.983,2.079,1.354,2.863c-0.465,1.765-0.6,3.183-1.219,4.343
	c-0.495,0.926-1.579,1.538-2.401,2.289c-0.469-0.933-1.294-1.855-1.322-2.801C581.404,346.644,581.636,345.048,582.278,343.787z
	 M588.666,357.149c0.669,0.349,2.229,0.149,2.652-0.39c1.725-2.197,3.315-4.54,4.609-7.011c0.341-0.651-0.299-2.229-0.974-2.863
	c-0.502-0.471-2.2-0.506-2.657-0.04c-2.14,2.179-4.034,4.599-6.086,7.015C587.409,355.553,587.844,356.721,588.666,357.149z
	 M588.688,354.387c1.269-2.125,2.673-4.173,4.14-6.168c0.068-0.093,1.092,0.516,1.671,0.799c-1.231,2.375-2.461,4.749-4.072,7.856
	C589.359,355.379,588.558,354.605,588.688,354.387z M575.677,353.149c0.921-0.303,1.883-2.024,1.912-3.148
	c0.051-1.946-0.413-3.971-1.004-5.854c-1.264-4.028-3.418-4.579-6.725-1.907c0.774,3.19,1.348,6.458,2.453,9.535
	C572.608,352.596,574.756,353.453,575.677,353.149z M571.29,344.654c0.32-0.477,0.998-1.486,1.676-2.494
	c0.786,0.846,1.648,1.637,2.328,2.561c0.343,0.466,0.541,1.192,0.485,1.769c-0.172,1.769-0.499,3.523-0.766,5.284
	c-1.126-1.471-2.31-2.903-3.341-4.437C571.362,346.878,571.479,346.132,571.29,344.654z M569.86,342.24
	c-0.003-0.014-0.006-0.028-0.01-0.042c0,0-0.005,0.007-0.006,0.008c-0.004,0.002-0.007,0.005-0.011,0.007
	c-0.025,0.034-0.049,0.072-0.075,0.106C569.793,342.29,569.826,342.268,569.86,342.24z M673.776,631.582
	c1.631-8.292-3.271-16.116-10.259-16.682c-6.862-0.556-12.741,6.072-13.147,14.553c0.473,1.916,0.819,3.874,1.446,5.738
	c1.522,4.527,4.63,7.41,9.446,7.897c4.591,0.465,7.883-2.014,10.207-5.67C672.574,635.679,673.377,633.609,673.776,631.582z
	 M662.489,636.594c-3.724-0.132-6.621-3.959-6.531-8.63c0.088-4.594,2.782-7.884,6.365-7.772c3.609,0.112,6.655,4.113,6.593,8.659
	C668.854,633.343,666.052,636.72,662.489,636.594z M648.648,640.387c1.212-2.345,1.226-4.117-1.643-5.388
	c-2.894-1.282-5.591-3.01-8.875-4.818c4.743-5.256,8.964-9.933,13.176-14.601c-2.182-3.095-3.988-3.167-6.135-0.526
	c-2.199,2.706-4.639,5.217-6.974,7.813c-0.253-0.192-0.505-0.384-0.758-0.575c0.226-2.021,0.452-4.041,0.691-6.178
	c-3.433-0.6-5.13,0.269-5.504,3.587c-0.405,3.592-1.255,7.131-1.85,10.704c-0.688,4.129-1.308,8.269-1.954,12.379
	c6.786,1.946,5.095-3.794,7.017-6.801c3.008,1.598,5.719,3.11,8.498,4.483C645.723,641.151,647.256,643.082,648.648,640.387z
	 M688.346,639.778c-0.586-5.456-0.883-10.942-1.422-16.404c-0.238-2.414-0.054-4.095,2.994-4.416
	c0.813-0.086,1.886-1.892,1.975-2.98c0.049-0.592-1.728-1.921-2.663-1.904c-3.86,0.07-7.716,0.485-11.565,0.865
	c-1.464,0.145-3.599-0.424-3.36,2.262c0.193,2.161,1.137,3.575,3.625,3.039c2.646-0.57,3.525,0.644,3.648,3.165
	c0.275,5.607,0.675,11.21,1.197,16.799c0.107,1.143,0.974,2.216,1.276,2.863C687.372,643.124,688.628,642.407,688.346,639.778z
	 M653.114,603.397c-1.762,2.923-0.36,5.143,2.947,5.837c4.918,1.032,9.722,1.502,14.426-0.604c1.226-0.549,2.839-1.382,3.18-2.438
	c0.344-1.067-0.265-3.169-1.162-3.776c-2.869-1.944-6.065-3.405-9.135-5.053c-0.168,0.308-0.336,0.617-0.504,0.925
	C658.744,598.329,655.314,599.746,653.114,603.397z M663.422,599.367c2.542,1.374,5.263,2.506,7.564,4.206
	c1.621,1.197,1.409,2.476-0.898,3.459c-4.746,2.022-9.404,1.402-14.16,0.418c-2.187-0.453-2.26-1.675-1.262-3.26
	C656.59,601.132,659.469,599.973,663.422,599.367z M685.881,653.665c1.091,2.205,2.196,4.438,3.224,6.515h7.501
	c0.147-2.14,0.306-4.451,0.454-6.594c-2.161-1.242-4.335-2.49-6.394-3.673C689.053,651.178,687.385,652.486,685.881,653.665z
	 M670.626,653.657c0.907,2.34,1.759,4.535,2.517,6.49h7.156c0.398-2.1,0.812-4.284,1.227-6.474
	c-1.849-1.163-3.966-2.494-5.905-3.713C673.935,651.206,672.223,652.474,670.626,653.657z M655.267,653.708
	c0.634,2.127,1.273,4.274,1.916,6.422c2.513,0.001,5.024,0.001,6.974,0.001c0.679-2.377,1.265-4.426,1.858-6.502
	c-1.675-1.083-3.579-2.313-5.484-3.544C658.819,651.264,656.95,652.55,655.267,653.708z M640.233,653.909
	c0.419,2.281,0.817,4.446,1.156,6.288h6.837c0.893-2.182,1.751-4.277,2.605-6.364c-1.669-1.183-3.479-2.466-5.03-3.565
	C643.787,651.584,641.891,652.824,640.233,653.909z M624.857,654.167c0.336,0.98,0.888,1.991,0.984,3.043
	c0.094,1.026-0.277,2.095-0.42,2.998h6.989c1.09-2.156,2.161-4.276,3.196-6.325c-1.587-1.197-3.187-2.404-4.588-3.462
	C628.914,651.7,626.953,652.893,624.857,654.167z M668.476,596.996c2.755,0.563,6.269-3.922,5.86-7.735
	c-0.142-1.325-1.904-3.308-3.164-3.511c-2.725-0.44-5.811,3.941-5.774,8.811C665.976,595.047,667.085,596.711,668.476,596.996z
	 M671.146,587.298c0.854,0.2,1.471,1.412,2.85,2.848c-2.094,2.115-3.778,3.815-5.462,5.516c-0.601-0.927-1.658-1.827-1.714-2.786
	C666.666,590.243,669.338,586.875,671.146,587.298z M675.441,601.66c2.301,0.801,8.189-4.473,8.251-7.947
	c-0.722-0.387-1.825-1.441-2.979-1.501c-2.631-0.135-6.987,3.347-7.34,6.049C673.233,599.335,674.431,601.308,675.441,601.66z
	 M683.073,594.758c-2.709,2.278-4.934,4.15-7.691,6.468C674.79,596.031,678.086,593.343,683.073,594.758z M659.085,597.065
	c1.463-0.31,2.629-2.016,3.238-2.521c-0.05-5.81-2.236-9.294-4.933-8.967c-2.811,0.341-3.409,2.512-3.389,4.919
	C654.032,594.091,656.542,597.604,659.085,597.065z M657.564,587.171c1.396,1.763,2.792,3.526,4.606,5.818
	c-1.564,1.374-2.445,2.149-3.326,2.923c-1.138-1.772-2.623-3.432-3.25-5.37C655.326,589.717,656.853,588.312,657.564,587.171z
	 M651.185,601.057c1.076-0.209,2.518-1.69,2.692-2.77c0.47-2.917-3.109-7.648-5.547-7.384c-1.305,0.141-2.472,1.548-3.147,2.007
	C645.125,597.238,648.622,601.555,651.185,601.057z M648.359,592.255c1.375,1.792,2.857,3.518,4.041,5.429
	c0.255,0.412-0.565,1.49-0.889,2.261c-0.419,0.081-0.839,0.163-1.258,0.244c-1.208-1.87-2.549-3.676-3.513-5.665
	C646.546,594.123,647.782,593.03,648.359,592.255z M748.204,56.421l-0.783-1.238c-2.224,1.399-4.448,2.797-6.672,4.196
	c0.275,0.435,0.551,0.87,0.826,1.306C743.785,59.263,745.995,57.842,748.204,56.421z"/>
</svg>
