<?xml version="1.0" encoding="utf-8"?>
<!-- Generator: Adobe Illustrator 21.0.2, SVG Export Plug-In . SVG Version: 6.00 Build 0)  -->
<svg version="1.1" id="Layer_1" xmlns="http://www.w3.org/2000/svg" xmlns:xlink="http://www.w3.org/1999/xlink" x="0px" y="0px"
	 viewBox="0 0 1085.534 569.54" style="enable-background:new 0 0 1085.534 569.54;" xml:space="preserve">
<path fill="white" d="M877.858,505.97c-11.418-4.598-21.643-11.03-29.489-20.625c-8.061-9.858-15.718-20.045-23.596-30.053
	c-3.163-4.018-6.291-8.079-9.708-11.875c-4.38-4.865-10.006-5.833-16.127-4.133c-2.387,0.663-4.604,1.943-6.996,2.58
	c-13.792,3.673-28.269,4.979-41.563,12.68c0-2.243,0.002-3.815,0-5.388c-0.012-7.033-0.013-7.033-6.938-7.033
	c-139.611,0.001-279.221,0.002-418.832,0.003c-3.25,0-6.503,0.099-9.748-0.017c-2.866-0.102-4.158,1.083-4.045,3.977
	c0.1,2.537,0.021,5.082,0.021,7.165c-7.594-2.391-14.648-4.755-21.788-6.824c-8.492-2.461-17.061-4.653-25.589-6.991
	c-6.499-1.782-12.433-1.11-17.197,4.114c-2.689,2.949-5.321,5.974-7.716,9.162c-4.501,5.993-8.818,12.124-13.201,18.206
	c-12.642,17.544-28.219,31.106-49.125,38.257c-13.221,4.523-26.031,10.253-39.003,15.497c-1.446,0.584-2.745,1.532-4.112,2.312
	c0.197,0.43,0.394,0.861,0.591,1.291c4.129-1.273,8.37-2.266,12.366-3.87c13.101-5.257,26.001-11.033,39.195-16.037
	c11.237-4.261,20.951-10.531,28.891-19.452c5.394-6.061,10.564-12.337,15.577-18.718c5.785-7.363,11.265-14.964,16.921-22.429
	c4.607-6.079,10.373-7.141,17.617-4.954c11.463,3.461,23.208,5.982,34.683,9.404c3.823,1.14,7.353,3.584,10.701,5.891
	c2.261,1.558,2.08,6.756-0.004,7.44c-3.385,1.112-6.902,1.82-10.484,2.729c0.254-2.728,0.474-5.089,0.694-7.45
	c-0.354-0.036-0.708-0.071-1.062-0.107c-0.503,1.662-1.139,3.298-1.48,4.993c-0.77,3.825-3.195,5.045-6.803,4.673
	c-3.473-0.358-6.947-0.712-10.427-0.977c-0.735-0.056-1.501,0.283-3.451,0.69c2.449,1.658,3.949,2.674,5.502,3.725
	c-5.966,2.707-6.026,2.558-8.183-2.94c-1.295-3.302-3.193-6.367-4.82-9.539c-0.444,0.237-0.889,0.473-1.333,0.71
	c0.545,1.186,1.154,2.346,1.621,3.562c1.027,2.673,2.111,5.337,2.884,8.086c0.224,0.797-0.528,1.869-0.833,2.814
	c-0.728-0.549-1.63-0.969-2.151-1.672c-1.405-1.896-2.647-3.911-3.954-5.88c-0.309,0.185-0.618,0.37-0.926,0.555
	c1.084,2.405,2.168,4.81,3.285,7.286c-2.6,0.885-4.839,1.647-7.078,2.408c0.061,0.52,0.122,1.04,0.184,1.56
	c1.855,0,3.799,0.366,5.549-0.061c9.08-2.215,18.116-4.612,27.158-6.984c7.672-2.013,15.331-4.077,22.995-6.119
	c0.146,0.337,0.293,0.673,0.439,1.01c-0.32,0.451-0.919,0.904-0.915,1.353c0.025,2.996-0.518,6.293,0.592,8.855
	c0.529,1.221,4.282,1.397,6.574,1.394c1.909-0.003,3.816-0.957,5.725-1.49c-1.144,1.645-2.533,2.678-4.08,3.346
	c-8.359,3.611-17.167,6.409-25.03,10.878c-8.618,4.898-17.642,10.147-24.221,17.323c-10.826,11.808-23.382,19.217-38.82,22.343
	c-1.173,0.237-2.287,0.766-3.428,1.16c0.055,0.374,0.11,0.748,0.165,1.122c2.076,0.203,4.153,0.407,6.739,0.66
	c-5.155,4.509-10.765,6.885-16.941,7.235c-8.719,0.494-17.149,2.235-25.169,5.436c-13.433,5.362-26.689,11.171-39.966,16.917
	c-1.516,0.656-2.683,2.116-4.013,3.203c0.256,0.394,0.512,0.788,0.768,1.182c1.539-0.591,3.101-1.128,4.612-1.782
	c11.115-4.815,22.059-10.076,33.374-14.36c10.348-3.917,20.811-7.525,32.25-7.721c8.715-0.149,15.718-5.178,22.049-10.926
	c1.248-1.133,2.634-2.257,4.159-2.918c8.435-3.659,16.697-7.73,22.583-14.98c2.913-3.588,5.657-5.719,10.231-4.053
	c1.399,0.509,2.801,1.211,3.961,2.128c2.335,1.844,4.541,3.856,6.729,5.877c1.316,1.216,2.573,2.515,3.723,3.889
	c3.096,3.7,5.693,7.976,9.339,10.996c2.045,1.694,5.935,2.185,8.7,1.664c2.23-0.42,4.022-3.17,6.418-5.241
	c3.251,1.729,7.555,2.788,11.315-0.744c3.889-3.654,1.786-7.696-0.292-11.455c10.16-3.784,10.866-7.165,4.001-18.007
	c7.361-4.723,7.877-6.931,3.023-14.378c-1.561-2.396-3.587-4.486-5.215-6.844c-0.618-0.895-1.258-2.408-0.897-3.17
	c0.372-0.786,1.925-1.079,3.012-1.432c0.565-0.184,1.239-0.034,1.864-0.034c127.112,0.001,254.224,0.002,381.336,0.003
	c1,0,2.04-0.16,2.988,0.066c0.875,0.208,2.146,0.678,2.347,1.315c0.267,0.845-0.065,2.156-0.614,2.932
	c-1.652,2.341-3.762,4.376-5.282,6.789c-4.692,7.443-5.215,10.197,1.98,14.343c-1.281,3.825-3.48,7.485-3.483,11.147
	c-0.003,4.481,4.418,6.063,8.417,7.291c-2.373,3.807-4.111,7.63-0.651,11.196c3.775,3.891,8.207,2.635,12.762,0.441
	c1.478,5.251,5.119,7.786,9.892,5.924c3.415-1.332,6.725-3.843,9.13-6.645c3.814-4.445,6.044-10.271,11.816-12.965
	c0.532-0.248,1.058-0.782,1.309-1.314c2.128-4.517,6.512-3.831,10.286-4.395c0.731-0.109,1.886,0.633,2.393,1.317
	c6.736,9.09,16.158,14.328,26.28,18.628c1.198,0.509,2.281,1.417,3.247,2.322c7.239,6.781,15.381,11.374,25.646,11.629
	c3.823,0.095,7.732,0.662,11.418,1.677c17.644,4.86,34.585,11.567,50.852,19.973c1.449,0.749,3.058,1.19,4.593,1.774
	c0.228-0.388,0.455-0.776,0.683-1.164c-1.237-1.047-2.332-2.364-3.733-3.101c-20.431-10.749-41.437-19.86-64.739-22.297
	c-6.541-0.684-12.454-2.86-17.703-7.52c2.636-0.174,4.818-0.318,7-0.463c0.035-0.444,0.07-0.888,0.104-1.332
	c-1.6-0.416-3.187-0.887-4.8-1.241c-12.999-2.849-24.739-8.264-33.721-18.26c-10.596-11.792-23.51-19.899-38.002-25.831
	c-5.43-2.223-10.845-4.487-16.218-6.845c-1.178-0.517-2.148-1.51-3.214-2.284c4.535,0.123,8.985,4.005,12.634-0.047
	c2.588-2.874,2.55-7.101-0.051-11.098c8.021,1.673,15.787,3.82,23.58,5.859c9.043,2.366,18.093,4.711,27.183,6.883
	c1.611,0.385,3.435-0.116,5.16-0.208c0.035-0.427,0.07-0.854,0.105-1.281c-2.313-0.842-4.626-1.683-6.996-2.546
	c1.113-2.578,2.098-4.863,3.084-7.147c-0.312-0.164-0.625-0.328-0.937-0.493c-1.322,2.065-2.581,4.177-4.006,6.169
	c-0.422,0.59-1.314,0.843-1.99,1.251c-0.319-0.713-0.925-1.438-0.894-2.136c0.054-1.226,0.351-2.492,0.807-3.638
	c1.177-2.96,2.495-5.863,3.758-8.789c-4.701,3.329-5.983,8.505-7.735,13.866c-2.283-0.59-4.371-1.13-6.751-1.745
	c1.982-1.423,3.401-2.441,4.821-3.46c-1.119-1.064-1.704-1.286-2.265-1.239c-3.602,0.307-7.2,0.668-10.799,1.02
	c-3.392,0.332-5.819-0.672-6.62-4.375c-0.425-1.964-1.189-3.855-1.801-5.779c-0.336,0.077-0.673,0.154-1.009,0.23
	c0.32,2.57,0.64,5.139,0.983,7.891c-3.168-0.813-6.11-1.419-8.941-2.359c-1.363-0.452-3.522-1.491-3.558-2.34
	c-0.076-1.787,0.461-4.41,1.723-5.289c3.623-2.527,7.522-5.042,11.693-6.319c9.182-2.812,18.72-4.463,27.89-7.307
	c15.835-4.911,17.102-5.148,27.488,7.723c5.721,7.091,10.628,14.834,16.252,22.009c9.903,12.635,20.264,24.873,35.465,31.561
	c6.276,2.761,12.656,5.291,19.026,7.831c10.789,4.301,21.589,8.575,32.432,12.738c1.906,0.732,4.04,0.867,6.069,1.278
	c0.109-0.426,0.219-0.852,0.328-1.278c-1.868-0.87-3.701-1.827-5.61-2.597C907.775,517.97,892.808,511.991,877.858,505.97z
	 M286.206,509.712c-1.64-0.202-3.285-0.405-6.071-0.748c2.959-1.892,5.003-3.199,7.852-5.02
	C287.247,506.338,286.783,507.841,286.206,509.712z M322.74,477.277c-3.82,1.148-5.714-0.478-5.301-4.811
	c0.037-0.102,0.118-0.616,0.384-1.001c1.328-1.927,11.278-3.282,12.969-1.616c0.782,0.771,1.298,2.087,1.362,3.189
	c0.029,0.508-1.243,1.284-2.057,1.611C327.682,475.62,325.232,476.528,322.74,477.277z M309.25,532.443
	c-2.961-2.775-5.631-5.983-7.807-9.4c-0.634-0.996,0.847-3.34,1.396-5.191c-1.664,0.527-3.855,1.967-4.802,1.385
	c-3.03-1.865-5.869-4.243-8.209-6.924c-0.905-1.037-0.418-3.422-0.303-5.176c0.093-1.422,0.58-2.818,1.104-5.182
	c1.821,1.338,3.767,2.551,5.456,4.053c4.345,3.862,8.577,7.851,12.85,11.794c0.354,0.327,0.774,0.639,0.994,1.049
	c2.509,4.688,4.985,9.394,7.651,14.437C314.619,534.785,311.533,534.582,309.25,532.443z M332.771,528.319
	c-1.573,1.121-4.261,1.714-6.1,1.175c-2.506-0.735-4.675-2.68-6.924-4.202c-0.703-0.476-1.211-1.251-1.782-1.912
	c-3.52-4.078-8.886-7.552-3.84-14.451l-1.544-0.137c-1.073,1.725-2.146,3.451-3.684,5.924c-3.517-3.617-7.197-6.929-10.273-10.731
	c-2.076-2.565,0.2-6.996,3.916-9.185c9.47,4.792,15.504,13.167,22.67,20.297c2.449,2.436,4.863,5.004,6.747,7.87
	C332.909,524.418,333.471,527.82,332.771,528.319z M339.273,511.283c1.132,2.354-4.2,5.549-7.528,4.194
	c-2.466-1.004-4.93-2.59-6.725-4.534c-3.004-3.254-5.413-7.049-8.206-10.509c-0.743-0.92-1.952-1.478-2.98-2.152
	c-2.453-1.61-4.926-3.191-8.17-5.287c4.5-1.529,7.965-2.86,11.534-3.8c0.789-0.208,2.25,0.728,2.875,1.542
	c3.385,4.403,7.432,7.775,12.208,10.772C335.447,503.494,337.54,507.678,339.273,511.283z M340.426,493.365
	c0.397,0.71-0.697,3.268-1.368,3.381c-2.427,0.406-5.478,1.016-7.359-0.07c-3.761-2.171-6.905-5.412-10.869-8.677
	c4.604-2.455,7.985-4.258,12.145-6.477C335.395,485.282,338.103,489.216,340.426,493.365z M780.426,507.934
	c-0.046,0.357-0.092,0.714-0.137,1.071c-1.555,0.271-3.11,0.543-4.326,0.755c-1.323-2.054-2.444-3.797-3.561-5.532
	C775.077,505.464,777.751,506.699,780.426,507.934z M772.192,504.132c0.012,0.005,0.023,0.011,0.035,0.016
	c-0.457,0.321-1.138,0.792-1.119,0.822c4.109,6.508-0.848,9.466-4.971,12.716c-1.072,0.845-2.261,1.54-3.369,2.285
	c-1.348-0.884-2.569-1.685-3.791-2.486c4.434,7.46-2.423,10.389-5.808,14.32c-2.287,2.656-5.806,3.13-9.207,1.521
	c2.751-5.184,4.858-10.593,8.224-15.052c2.768-3.665,7.078-6.147,10.612-9.258c2.138-1.882,4.076-3.989,6.148-5.948
	C770.622,501.483,771.57,502.374,772.192,504.132z M760.3,507.134c-2.488,2.555-5.149,4.943-7.741,7.414
	c-1.437-2.304-2.571-4.121-4.169-6.683c-0.156,1.408-0.267,1.77-0.222,2.112c0.307,2.318,1.778,5.517,0.779,6.791
	c-4.154,5.301-7.771,11.638-15.19,13.075c-1.569,0.304-4-0.386-4.964-1.524c-0.744-0.879-0.295-3.453,0.474-4.781
	c1.405-2.426,3.349-4.567,5.229-6.683c4.044-4.55,8.183-9.016,12.302-13.499c0.577-0.628,1.209-1.233,1.907-1.716
	c3.257-2.252,6.546-4.458,10.18-6.921C764.857,498.339,765.364,501.933,760.3,507.134z M745.916,489.528
	c2.864,1.193,5.857,2.076,8.795,3.093l0.638,1.025c-0.568,0.281-1.124,0.592-1.706,0.84c-7.07,3.011-10.743,9.555-15.619,14.872
	c-1.91,2.083-4.11,4.152-6.599,5.366c-1.757,0.857-4.408,0.827-6.325,0.189c-2.905-0.968-3.947-3.217-1.921-6.17
	c2.379-3.468,4.549-6.792,8.606-8.987c3.578-1.936,6.432-5.424,9.184-8.592C742.502,489.4,743.623,488.574,745.916,489.528z
	 M740.68,487.948c-3.863,3.248-7.052,6.12-10.468,8.691c-1.096,0.825-2.784,1.156-4.215,1.192c-4.844,0.123-6.433-2.39-3.996-6.481
	c2.009-3.372,4.42-6.505,6.634-9.717C732.584,483.704,736.064,485.528,740.68,487.948z M738.678,477.23
	c-2.253-0.68-4.502-1.44-6.636-2.419c-1.051-0.482-1.837-1.541-2.743-2.339c1.08-1.204,2.209-3.469,3.229-3.421
	c3.528,0.165,7.042,1.04,10.501,1.888c0.631,0.155,0.982,1.452,1.137,1.702C744.025,477.424,742.658,478.432,738.678,477.23z
	 M737.527,464.112c-5.016,0.347-9.631,1.402-11.912,6.84c-0.348,0.83-2.485,1.274-3.797,1.28c-17.998,0.083-35.997,0.06-53.996,0.06
	c-108.992,0-217.984-0.009-326.976,0.04c-2.789,0.001-4.596-0.258-6.08-3.299c-1.827-3.743-6.015-4.647-9.989-4.884
	c-3.207-0.192-6.435-0.039-10.371-0.039c0.474-3.333,1.23-6.537,1.329-9.761c0.257-8.317,0.141-8.357,8.61-8.3
	c3.347,0.022,7.622-0.933,9.745,0.746c1.692,1.338,0.746,5.998,1.001,9.181c0.048,0.602,0.238,1.194,0.396,1.949h4.42v-11.637
	h19.289c0,2.741,0.125,5.443-0.032,8.129c-0.189,3.224,0.964,4.462,4.699,3.148c0-2.791,0.04-5.75-0.015-8.707
	c-0.032-1.727,0.301-2.875,2.425-2.844c5.356,0.078,10.714,0.026,16.673,0.026v11.446c3.791,1.357,5.073,0.457,5.04-3.131
	c-0.078-8.328,0.058-8.33,8.526-8.325c2,0.001,4-0.002,6,0.001c4.78,0.008,4.78,0.009,4.785,4.974
	c0.002,1.625-0.243,3.307,0.111,4.852c0.199,0.867,1.386,2.077,2.142,2.087c0.774,0.01,2.142-1.184,2.241-1.976
	c0.307-2.463-0.041-5.006,0.242-7.475c0.101-0.877,1.261-2.308,1.977-2.333c5.584-0.194,11.177-0.107,17.211-0.107v11.534
	c3.287,1.065,4.72,0.582,4.715-2.946c-0.012-8.619,0.111-8.619,8.946-8.613c3.234,0.002,6.469,0,10.295,0
	c0,3.029,0.16,5.746-0.04,8.437c-0.251,3.375,1.136,4.323,4.641,3.208v-11.276h19.562c0,2.893,0.016,5.841-0.006,8.789
	c-0.012,1.617,0.148,3.372,2.281,2.791c0.961-0.262,1.571-1.825,2.326-2.809c0.061-0.079,0.007-0.244,0.01-0.369
	c0.247-8.768,0.247-8.768,8.871-8.771c2.125-0.001,4.275,0.211,6.369-0.045c3.461-0.424,4.434,1.097,4.095,4.273
	c-0.198,1.853-0.25,3.789,0.093,5.601c0.162,0.856,1.57,2.217,2.128,2.091c0.964-0.218,2.281-1.325,2.428-2.225
	c0.357-2.193,0.233-4.487,0.106-6.729c-0.132-2.323,0.868-3.049,3.094-2.991c4.497,0.117,9,0.107,13.497,0.005
	c2.151-0.049,2.893,0.848,2.79,2.895c-0.1,1.995-0.011,3.999-0.014,5.998c-0.002,1.669-0.149,3.296,2.392,3.243
	c2.282-0.048,2.179-1.476,2.237-3.037c0.106-2.84-0.752-7.12,0.699-8.173c2.101-1.525,5.895-0.788,8.971-0.881
	c3.082-0.093,6.168-0.02,9.641-0.02v11.821h4.657v-11.765c6.196,0,12.015-0.067,17.827,0.107c0.561,0.017,1.448,1.486,1.542,2.35
	c0.23,2.1,0.088,4.242,0.083,6.366c-0.004,1.675-0.139,3.292,2.397,3.243c2.296-0.044,2.142-1.496,2.234-3.042
	c0.176-2.933-0.605-7.057,0.982-8.464c1.721-1.526,5.688-0.595,8.676-0.593c2.986,0.002,6.967-0.927,8.669,0.603
	c1.591,1.429,0.585,5.581,1.093,8.469c0.192,1.088,1.263,2.607,2.217,2.86c2.331,0.62,2.435-1.23,2.501-2.992
	c0.332-8.954,0.354-8.99,9.43-8.94c3.092,0.017,7.273-0.875,8.964,0.737c1.641,1.566,0.719,5.812,0.936,8.88
	c0.043,0.608,0.146,1.213,0.241,1.986c2.888,0.938,4.404,0.613,4.417-2.976c0.031-8.646,0.154-8.673,8.936-8.633
	c3.233,0.015,7.324-0.934,9.419,0.663c1.616,1.232,0.724,5.752,0.947,8.811c0.2,2.748,0.224,2.761,4.49,2.148v-11.596
	c6.248,0,12.06-0.068,17.866,0.103c0.588,0.017,1.54,1.432,1.62,2.266c0.227,2.353-0.126,4.772,0.196,7.102
	c0.129,0.936,1.424,1.711,2.189,2.56c0.77-0.836,2.118-1.617,2.205-2.518c0.283-2.949,0.106-5.943,0.106-9.496
	c6.196,0,12.011-0.067,17.82,0.111c0.539,0.016,1.393,1.55,1.474,2.437c0.215,2.356-0.137,4.777,0.21,7.101
	c0.133,0.889,1.554,1.585,2.388,2.369c0.699-0.784,1.935-1.526,2.001-2.361c0.242-3.069,0.096-6.168,0.096-9.694
	c6.113,0,11.705-0.087,17.286,0.109c0.708,0.025,1.845,1.471,1.953,2.359c0.284,2.341-0.108,4.77,0.229,7.097
	c0.133,0.918,1.483,1.661,2.279,2.483c0.795-0.835,2.185-1.611,2.275-2.515c0.292-2.952,0.109-5.95,0.109-9.524
	c6.094,0,11.785-0.07,17.469,0.098c0.634,0.019,1.668,1.347,1.757,2.153c0.248,2.223-0.091,4.512,0.177,6.731
	c0.133,1.104,1.254,2.053,1.63,3.172c0.61,1.815,0.974,3.713,1.514,5.863C743.199,464.077,740.351,463.917,737.527,464.112z
	 M281.798,94.674c1.514,0.164,3.096-0.307,4.647-0.483c-0.037-0.393-0.073-0.786-0.11-1.179c-1.05-0.106-2.101-0.212-3.151-0.318
	c-11.283-1.131-19.532-12.137-16.771-23.047c1.177-4.648,3.036-9.33,5.556-13.396c9.434-15.222,23.139-25.302,39.778-31.558
	c0.986-0.371,2.054-0.522,3.584-0.898c-1.11,4.239-2.152,7.903-3.023,11.608c-2.086,8.873-1.099,16.461,7.832,21.597
	c4.013,2.308,4.349,5.523,2.2,9.744c-0.846,1.661-0.971,2.655,0.455,4.207c1.925,2.095,0.704,4.573-1.799,5.988
	c-5.062,2.863-10.311,5.6-14.791,9.241c-7.371,5.991-15.061,10.674-25.889,10.616c3.207,2.916,6.062,2.174,8.73,1.594
	c6.337-1.378,11.977-4.253,16.939-8.452c2.289-1.937,4.569-3.894,6.956-5.705c5.581-4.234,11.912-6.397,18.913-5.855
	c6.775,0.524,10.198,5.642,8.288,12.154c-0.586,1.999-1.497,4.055-2.782,5.668c-3.417,4.29-7.21,8.279-10.689,12.522
	c-6.243,7.614-12.851,14.993-18.404,23.089c-5.786,8.437-9.266,18.114-9.37,28.489c-0.166,16.609,6.059,30.665,18.189,42.057
	c1.462,1.373,2.795,2.436,1.982,5.022c-2.899,9.221-3.038,18.698-1.729,28.208c0.458,3.328,0.597,6.87,1.887,9.885
	c5.256,12.284,10.804,24.446,16.443,36.561c2.922,6.277,4.311,12.702,3.699,19.621c-0.484,5.474-1.03,10.979-0.927,16.459
	c0.114,6.08,4.674,10.186,7.745,14.915c0.113,0.174,0.494,0.353,0.657,0.29c3.277-1.265,3.652,1.794,5.165,3.314
	c4.018,4.035,7.892,8.307,12.383,11.755c6.928,5.32,14.184,10.252,21.563,14.936c6.216,3.946,11.687,8.439,15.694,14.719
	c7.574,11.87,18.597,17.172,32.595,16.938c7.315-0.122,14.504-0.554,21.209-3.783c8.044-3.873,10.462-9.813,7.497-18.221
	c-0.649-1.84-1.409-3.641-2.3-5.925c3.957,0,7.421-0.137,10.867,0.05c2.14,0.116,4.365,0.426,6.355,1.171
	c4.787,1.792,9.337,4.286,14.199,5.801c21.25,6.617,43.06,8.462,65.205,7.082c1.477-0.092,2.994,0.005,4.459,0.229
	c23.833,3.64,47.665,7.289,71.483,11.031c1.9,0.298,3.817,1.07,5.504,2.017c3.109,1.745,6.076,1.605,9.354,0.485
	c2.847-0.973,5.864-1.642,8.857-1.943c3.216-0.323,6.493-0.108,9.741-0.033c1.718,0.039,3.696-0.225,5.101,0.513
	c7.463,3.922,14.775,3.863,22.27,0.141c0.833-0.414,3.023,0.097,3.339,0.766c1.377,2.92,3.884,3.37,6.517,3.5
	c7.486,0.37,14.978,0.649,22.471,0.844c1.569,0.041,3.151-0.431,4.728-0.666c-1.414-1.011-2.743-1.261-4.082-1.35
	c-5.985-0.395-11.979-0.667-17.957-1.134c-4.129-0.323-4.399-0.957-2.92-4.901c1.722,1.066,3.465,3.053,5.276,3.117
	c10.108,0.356,20.233,0.28,30.352,0.27c2.004-0.002,4.008-0.362,6.012-0.556c-0.003-0.319-0.005-0.637-0.008-0.956
	c-1.665-0.221-3.325-0.575-4.996-0.64c-8.366-0.324-16.737-0.54-25.102-0.884c-1.1-0.045-2.179-0.605-3.268-0.926
	c0.132-0.637,0.263-1.273,0.395-1.91h27.27c0.004-0.538,0.009-1.076,0.013-1.614c-6.047-0.202-12.094-0.431-18.142-0.591
	c-1.922-0.051-3.344-0.28-3.528-2.768c-0.17-2.3,0.425-3.434,2.794-3.898c3.082-0.604,6.045-1.671,8.421,1.607
	c0.485,0.669,1.782,1.044,2.708,1.05c5.862,0.035,11.726-0.041,17.588-0.17c0.698-0.015,1.383-0.57,2.075-0.874
	c-0.04-0.307-0.081-0.614-0.121-0.921c-4.574-0.201-9.149-0.404-13.723-0.603c-3.58-0.156-3.676-0.298-2.897-2.963
	c9.166,0.922,18.082,0.892,27.033-0.724c-6.408-0.451-12.816-0.903-19.224-1.354c0.012-0.476,0.023-0.952,0.034-1.428
	c4.811-0.409,9.621-0.818,14.431-1.227c-0.003-0.392-0.006-0.784-0.009-1.176c-3.904-0.256-7.805-0.672-11.711-0.718
	c-3.274-0.039-4.007-1.385-3.505-4.458c1.692-10.363-2.348-16.535-12.426-19.323c-7.643-2.115-15.349-1.478-23.076-0.531
	c-2.951,0.362-6.051,1.027-8.893,0.508c-21.303-3.887-42.194-9.244-62.295-17.526c-5.274-2.173-9.431-4.395-8.754-10.967
	c0.073-0.711-0.188-1.497-0.441-2.194c-1.192-3.287-0.202-5.418,2.722-7.517c13.38-9.608,20.741-22.624,21.486-39.32
	c3.898-1.219,3.811-1.438,1.721-5.224c-1.407-2.548-2.523-5.389-3.11-8.234c-1.927-9.349-5.652-17.865-11.361-25.458
	c-1.664-2.213-1.79-4.109-1.471-6.81c0.886-7.516,1.575-15.125,1.399-22.675c-0.144-6.167-3.585-7.951-9.52-6.018
	c-1.534,0.5-3.127,1.076-4.425,1.996c-4.979,3.528-9.994,7.034-14.7,10.907c-2.49,2.049-4.439,2.231-7.414,1.008
	c-3.38-1.389-7.15-1.959-10.808-2.449c-0.928-0.124-2.078,1.404-3.126,2.173c0.121,0.191,0.243,0.382,0.364,0.573
	c-10.76,1.624-21.521,3.249-32.553,4.914c1.464-1.045,2.72-1.942,3.976-2.838c-1.086-0.717-2.144-1.02-2.89-0.666
	c-3.918,1.86-7.698,4.013-11.636,5.826c-5.985,2.756-12.044,5.355-18.12,7.906c-0.697,0.293-1.704-0.132-2.563-0.251
	c-8.663-1.2-17.305-2.581-25.996-3.519c-3.29-0.355-7.045-0.518-9.951,0.723c-3.58,1.528-5.491,0.222-7.874-1.805
	c-10.944-9.31-21.844-18.677-32.976-27.76c-16.746-13.663-34.875-23.833-57.342-25.024c-16.668-0.884-32.717-0.26-47.675,8.034
	c-0.483,0.268-1.134,0.232-1.779,0.351c-0.334-0.744-0.647-1.286-0.823-1.869c-0.252-0.834-0.44-1.691-0.592-2.549
	c-2.06-11.675,0.603-22.58,6.89-32.24c6.452-9.914,13.686-19.365,21.099-28.6c13.086-16.303,18.579-34.504,15.491-55.279
	c-2.789-18.757-17.781-33.441-36.314-35.808c-25.231-3.222-46.922,4.638-65.667,21.057c-9.405,8.238-17.011,18.018-19.478,30.822
	C261.101,81.655,269.686,93.359,281.798,94.674z M468.374,363.952c-4.848-0.406-9.551,0.323-14.057-3.698
	c-4.733-4.224-8.408-9-12.172-13.976c-3.079-4.071-7.437-7.255-11.515-10.468c-4.104-3.234-8.624-5.936-12.816-9.066
	c-0.937-0.7-1.962-2.357-1.759-3.324c0.961-4.569,2.334-9.052,3.502-13.351c1.033,0,1.366-0.104,1.499,0.015
	c9.552,8.545,19.746,16.41,25.622,28.397c4.357,8.89,11.586,15.557,19.121,21.816c1.03,0.856,2.037,1.739,3.055,2.609
	C468.694,363.254,468.534,363.603,468.374,363.952z M441.676,352.039c-12.119,0.639-26.81-12.017-25.567-21.766
	C425.865,334.033,439.679,345.686,441.676,352.039z M713.026,378.968c-0.883-10.28-6.586-16.492-15.327-20.368
	c8.645-0.804,17.969,7.393,17.804,15.976C715.476,376.041,714.275,377.483,713.026,378.968z M737.214,358.876
	c2.493,5.121,1.973,8.071-2.531,11.491c-0.687-1.482-1.549-2.771-1.894-4.186c-1.541-6.321-3.829-12.105-10.25-15.385
	C728.443,349.344,734.15,352.583,737.214,358.876z M630.476,328.765c4.075,1.652,8.65,3.545,13.253,5.365
	c18.079,7.146,36.847,11.854,55.995,14.819c5.271,0.816,10.886-0.645,16.348-0.971c1.489-0.089,2.998,0.15,4.498,0.239
	c-0.029,0.534-0.057,1.069-0.086,1.603h-9.122c-0.074,0.435-0.148,0.871-0.222,1.306c2.439,0.682,4.851,1.49,7.323,2.021
	c5.506,1.182,8.592,4.843,10.227,9.9c2.074,6.412-2.774,13.007-9.475,12.901c-0.151-0.415-0.429-0.862-0.468-1.329
	c-0.982-11.531-8.304-16.962-18.675-19.513c-9.29-2.285-18.584-1.49-27.918-0.29c-2.548,0.328-5.272,0.396-7.764-0.132
	c-12.937-2.739-25.828-5.695-38.726-8.619c-1.655-0.375-3.254-1.002-4.89-1.516C624.073,339.183,627.156,334.167,630.476,328.765z
	 M632.93,195.777c2.563-0.744,4.316,0.717,4.425,3.194c0.228,5.17,0.069,10.357,0.069,15.537c-0.378,0.286-0.756,0.572-1.134,0.857
	c-1.816-1.39-4.051-2.471-5.355-4.239c-2.346-3.179-5.004-4.507-8.948-3.837c-1.575,0.267-3.314-0.438-5.999-0.861
	C621.474,200.908,626.748,197.572,632.93,195.777z M616.474,208.111c1.565,0.814,3.608,1.319,5.327,1.099
	c3.305-0.424,5.402,0.589,7.164,3.409c1.073,1.718,2.728,3.411,4.526,4.263c3.082,1.461,3.493,3.181,1.863,5.629
	c-7.452-4.547-14.708-8.974-22.294-13.604C613.465,208.009,614.132,206.893,616.474,208.111z M494.313,222.21
	c7.205,0.14,14.409,1.255,21.57,2.255c3.534,0.494,6.95,1.79,10.465,2.504c0.986,0.2,2.178-0.25,3.194-0.624
	c3.263-1.201,6.488-2.506,9.994-3.874c0.348,1.234,0.591,2.094,0.914,3.235c0.607-0.477,1.077-0.696,1.325-1.065
	c1.979-2.933,4.67-4.614,8.124-5.547c17.455-4.716,35.049-8.219,53.265-6.596c1.761,0.157,3.418,1.272,5.177,1.748
	c1.095,0.296,2.289,0.225,3.438,0.32c1.196,0.099,2.442,0.016,3.58,0.328c10.001,2.74,17.484,8.836,23.068,17.447
	c4.749,7.323,8.03,15.199,9.646,23.816c0.493,2.627,1.836,5.095,2.413,6.632c-0.64,3.07-1.292,5.299-1.55,7.572
	c-1.772,15.62-8.315,28.226-21.915,36.972c-10.137,6.519-21.008,10.949-32.65,13.721c-1.668,0.397-3.304,0.926-4.844,1.784
	c12.679,0.172,24.112-4.163,35.382-10.487c2.081,6.573,2.728,12.876,0.779,18.807c-1.277,3.885-4.378,7.249-7.033,10.548
	c-0.685,0.851-2.987,1.165-4.174,0.724c-8.898-3.303-17.707-6.845-26.535-10.336c-14.618-5.781-28.914-12.683-43.953-16.992
	c-10.385-2.975-18.863-7.221-25.402-15.64c-0.75-0.966-2.185-1.399-3.814-2.391c-0.983-1.598,4.557-6.216-2.429-6.385
	c0.113-1.191,0.105-2.308,0.345-3.369c0.496-2.191,0.544-3.769-1.09-6.021c-1.718-2.368-1.689-6.141-2.038-9.342
	c-1.62-14.854,2.441-27.937,12.511-39.078c0.498-0.551,0.907-1.197,1.268-1.849c0.162-0.293,0.103-0.708,0.145-1.068
	c-0.318-0.246-0.635-0.493-0.953-0.739c-8.315,4.669-11.508,13.18-15.248,22.635c-5.076-4.763-9.733-8.971-14.18-13.39
	c-1.663-1.652-2.929-3.737-4.213-5.73C485.066,226.792,487.243,222.072,494.313,222.21z M357.517,171.262
	c26.147-6.557,51.724-4.704,74.765,10.855c10.33,6.976,20.015,14.936,29.746,22.757c7.105,5.71,13.824,11.903,20.663,17.939
	c0.776,0.685,1.743,1.762,1.724,2.638c-0.12,5.615,2.888,9.832,6.295,13.633c4.238,4.729,8.883,9.113,13.567,13.411
	c1.662,1.525,2.26,2.846,2.058,5.121c-0.837,9.41,0.078,18.704,2.391,27.873c0.386,1.531,0.153,3.209,0.462,4.769
	c0.404,2.044,1.113,4.027,1.589,6.06c0.242,1.033,0.297,2.115,0.371,3.18c0.085,1.223-0.394,2.937,0.241,3.576
	c1.391,1.403,3.596,3.446,4.997,3.131c4.896-1.101,5.34,4.057,8.712,4.757c-0.045,0.3-0.091,0.601-0.136,0.901
	c-3.411,0.795-6.823,1.591-11.175,2.605c1.283,0.209,1.671,0.369,2.029,0.317c14.346-2.077,27.826,1.371,40.864,6.806
	c16.139,6.728,32.007,14.112,48.195,20.715c19.889,8.112,40.755,12.797,61.957,15.81c4.446,0.632,9.156-0.769,13.757-1.01
	c5.606-0.293,11.3-1.193,16.661,1.416c-1.661,0.015-3.31,0.016-4.957,0.016c-0.14,0.396-0.281,0.792-0.421,1.187
	c8.837,2.988,16.157,7.421,16.808,17.73c0.219,3.466-1.453,6.213-5.244,8.884c-0.743-2.571-1.737-4.635-1.884-6.758
	c-0.577-8.332-6.327-15.739-14.324-17.782c-1.429-0.365-3.031-0.052-4.789,0.833c1.037,0.443,2.066,0.906,3.111,1.327
	c5.064,2.038,9.099,5.19,11.237,10.385c3.136,7.621-0.735,15.978-8.793,17.452c-4.118,0.753-8.656,0.132-12.854-0.664
	c-9.523-1.804-18.857-2.849-28.304,0.632c-2.141,0.789-5.002,0.002-7.442-0.499c-2.875-0.59-5.6-2.12-8.48-2.447
	c-37.803-4.3-75.155-11.011-112.013-20.471c-2.912-0.747-5.964-0.951-9.096-0.729c9.696,4.969,20.607,5.834,30.643,9.974
	c-1.024,0.059-2.052,0.214-3.07,0.162c-19.976-1.032-39.488-4.031-57.78-12.819c-11.949-5.74-21.951-13.963-28.442-25.273
	c-6.96-12.127-16.282-21.727-26.889-30.349c-2.74-2.227-3.534-4.465-2.609-7.743c2.977-10.547,0.938-20.14-5.176-29.208
	c-3.198-4.744-5.544-10.06-8.329-15.087c-0.611-1.103-1.455-2.077-2.192-3.11c-0.314,0.157-0.628,0.313-0.942,0.47
	c0.355,1.246,0.531,2.58,1.095,3.722c2.819,5.707,5.21,11.72,8.74,16.959c6.252,9.279,6.097,18.989,3.494,29.117
	c-1.582,6.157-3.707,12.19-4.999,18.402c-2.338,11.24,1.623,20.09,11.097,26.542c4.509,3.071,9.004,5.661,14.617,6.832
	c9.999,2.086,17.206,8.304,20.966,18.008c1.638,4.228,1.198,7.202-1.344,10.69c-0.472-9.466,0.143-19.265-12.164-21.624
	c8.379,5.803,11.873,13.296,7.832,23.035c-1.81,4.362-6.179,4.272-10.965,5.226c5.267-8.062,4.903-15.376,0.144-22.456
	c-2.377-3.536-6.264-4.536-9.957-5.752c-0.189,0.27-0.378,0.54-0.567,0.809c1.596,1.238,3.166,2.513,4.794,3.707
	c4.516,3.312,6.414,7.902,6.225,13.326c-0.232,6.69-5.146,10.914-11.79,10.709c-11.216-0.347-20.466-4.624-26.932-13.863
	c-5.977-8.541-13.27-15.46-22.146-20.919c-5.949-3.659-11.769-7.616-17.198-11.995c-2.491-2.009-4.053-5.266-5.76-8.123
	c-1.257-2.105-2.111-4.373-5.459-1.334c-1.819-4.1-3.344-7.745-5.063-11.297c-0.595-1.231-1.67-2.229-2.526-3.334
	c-0.754,1.016-1.507,2.032-2.944,3.969c-0.93-2.99-2.392-5.597-2.425-8.223c-0.076-5.982,1.031-11.997,0.743-17.954
	c-0.248-5.135-0.984-10.521-2.877-15.247c-3.988-9.96-8.655-19.671-13.443-29.285c-7.978-16.019-9.633-32.491-3.724-49.392
	C328.43,187.874,339.962,175.664,357.517,171.262z M330.447,20.226c10.187-0.855,20.317-0.294,29.679,4.378
	c14.665,7.319,21.108,19.789,22.064,35.722c1.049,17.487-4.546,32.587-15.344,46.174c-7.371,9.274-14.759,18.619-21.136,28.575
	c-7.745,12.092-10.803,25.442-6.725,39.792c0.254,0.893,0.015,2.461-0.608,2.986c-7.376,6.211-12.955,13.776-17.288,23.081
	c-6.742-5.416-11.081-11.702-14.312-18.832c-7.759-17.119-5.595-33.61,4.388-48.888c5.423-8.3,12.432-15.566,18.765-23.267
	c3.485-4.238,7.321-8.217,10.504-12.666c3.426-4.788,4.996-10.269,1.861-15.842c-3.096-5.502-8.419-6.599-14.253-6.168
	c-0.595,0.044-1.197,0.006-1.974,0.006c-0.453-3.883-2.376-7.206-0.87-11.309c1.21-3.298-0.547-6.649-3.639-8.311
	c-8.597-4.618-9.119-11.803-7.396-20.203C316.68,23.168,318.355,21.241,330.447,20.226z M174.976,442.79
	c2.679-4.915,5.297-9.87,8.14-14.69c5.873-9.959,13.27-19.191,14.218-31.611c5.563,0,10.799-0.001,16.036,0
	c6.424,0.002,6.428,0.003,6.429-6.499c0.002-75.624,0.003-151.248,0.003-226.872c0-40.5,0.002-80.999-0.006-121.499
	c-0.001-4.938-0.366-5.29-5.35-5.3c-7.25-0.014-14.503-0.128-21.748,0.067c-3.029,0.082-5.175-0.405-6.593-3.471
	c-0.854-1.846-2.489-3.478-4.109-4.792c-4.06-3.293-8.228-6.467-12.503-9.475c-7.234-5.09-14.594-9.999-21.881-15.013
	c-5.308-3.652-10.895-5.027-16.897-1.894c-3.426,1.788-6.813,3.696-10.026,5.838c-6.028,4.019-11.939,8.217-17.86,12.395
	C85.232,32.392,66.104,39.84,44.156,39.639C31.176,39.52,18.184,40.62,5.2,41.225c-1.741,0.081-3.467,0.473-5.2,0.721
	c0.003,0.367,0.005,0.734,0.008,1.101c1.13,0.25,2.254,0.674,3.392,0.717c3.868,0.143,7.75,0.363,11.609,0.173
	c12.858-0.634,25.7-1.617,38.562-2.112c10.118-0.389,19.915-1.923,28.911-6.727c7.486-3.998,14.92-8.132,22.112-12.63
	c8.467-5.295,16.628-11.077,24.961-16.589c6.106-4.038,11.791-3.298,17.573,1.116c6.344,4.842,12.921,9.419,19.668,13.681
	c7.436,4.698,14.922,9.204,18.924,17.525c0.656,1.363,1.01,2.872,1.712,4.921c-6.064-0.615-11.067-1.122-16.234-1.646
	c1.152-2.48,2.155-4.64,3.158-6.801c-0.301-0.179-0.601-0.358-0.902-0.537c-1.21,1.657-2.562,3.231-3.597,4.991
	c-1.518,2.582-3.87,2.758-6.181,2.022c-2.956-0.941-5.715-2.486-8.62-3.614c-1.318-0.512-2.782-0.648-4.179-0.954
	c0.806,1.272,1.62,2.539,2.409,3.822c0.107,0.174,0.09,0.424,0.216,1.087c-2.137-0.22-4.145-0.427-6.471-0.666
	c0.273-5.467,0.562-10.673-2.128-15.905c0,4.534,0.112,8.379-0.073,12.21c-0.05,1.042-0.995,2.042-1.529,3.061
	c-0.623-0.923-1.468-1.769-1.82-2.785c-0.681-1.964-1.084-4.024-1.602-6.044c-0.348,0.081-0.697,0.162-1.045,0.243
	c0.211,2.541,0.422,5.081,0.653,7.871h-7.384c-0.045,0.432-0.089,0.863-0.134,1.295c8.675,3.46,17.901,3.794,27.168,4.119
	c9.311,0.326,18.613,0.918,27.919,1.393l0.099,1.232c-0.437,0.37-1.132,0.663-1.269,1.123c-0.856,2.875-2.345,5.875-2.023,8.648
	c0.148,1.277,3.847,2.357,6.077,3.103c1.503,0.502,3.253,0.264,4.893,0.357c0.021,0.311,0.042,0.623,0.063,0.934
	c-2.148,0.351-4.284,0.872-6.445,1.023c-8.216,0.572-16.574,0.276-24.625,1.72c-9.16,1.643-18.907,3.245-26.867,7.639
	c-14.282,7.884-28.812,10.814-44.699,8.522c-0.863-0.125-1.776,0.091-2.665,0.148l-0.2,0.965c1.807,0.864,3.615,1.727,5.815,2.779
	c-6.415,2.731-12.615,2.526-18.905,1.051c-3.524-0.826-7.05-2.243-10.591-2.294c-13.857-0.199-27.725-0.139-41.579,0.214
	c-4.956,0.126-9.898,1.268-14.813,2.135c-1.22,0.215-2.31,1.164-3.46,1.776c0.135,0.367,0.269,0.734,0.404,1.102
	c1.817-0.104,3.653-0.073,5.447-0.332c17.39-2.515,34.863-2.939,52.372-1.94c3.445,0.197,6.967,0.862,10.239,1.953
	c9.46,3.154,18.463,1.774,27.405-1.902c1.901-0.781,3.967-1.397,6.002-1.576c8.91-0.781,17.757-1.995,25.439-6.887
	c3.353-2.135,5.903-2.621,9.387-0.456c1.812,1.126,2.984,2.105,3.761,4.119c0.929,2.408,2.557,4.538,3.776,6.845
	c0.896,1.694,1.731,3.438,2.399,5.232c1.554,4.179,2.339,8.8,4.619,12.516c3.82,6.227,9.705,6.497,14.844,1.342
	c4.071,4.468,8.767,5.81,14.589,1.786c0,2.718,0,4.699,0,6.681c-0.001,71.624-0.002,143.248-0.003,214.873
	c0,4.875-0.08,9.752,0.035,14.624c0.058,2.449-1.025,3.363-3.284,3.319c-3.6-12.423-5.278-13.491-15.414-9.651
	c-0.993-3.831-2.265-7.686-7.078-7.899c-5.713-0.253-7.655,4.159-9.474,8.516c-4.713-4.041-10.598-0.021-12.171,5.327
	c-1.562,5.309-0.216,10.376,1.127,15.471c0.335,1.271,0.535,2.636,0.468,3.941c-0.185,3.579-0.69,7.145-0.791,10.724
	c-0.08,2.808-4.473,8.17-6.978,7.81c-10.803-1.551-20.816,1.242-30.672,5.205c-1.328,0.534-2.877,0.666-4.333,0.712
	c-9.694,0.302-18.381,3.018-25.641,9.816c-2.704,2.531-5.752,4.825-8.968,6.655c-15.364,8.738-31.533,15.675-48.371,21.064
	c-1.562,0.5-3,1.389-4.496,2.097c0.171,0.443,0.342,0.885,0.514,1.328c1.676-0.214,3.478-0.1,5.007-0.692
	c11.976-4.638,24.028-9.114,35.795-14.242c8.576-3.737,16.73-8.332,23.764-14.79c4.596-4.22,10.288-6.562,17.041-6.936
	c-1.608,1.949-2.878,3.489-4.149,5.029c0.321,0.335,0.642,0.671,0.963,1.006c1.221-0.747,2.451-1.479,3.662-2.242
	c12.387-7.807,25.602-12.345,40.508-10.442c1.837,0.234,3.759,0.17,5.601-0.068c14.459-1.867,28.468-5.206,41.497-12.112
	c3.506-1.859,7.535-2.731,11.324-4.056c0.135,0.34,0.269,0.681,0.403,1.021c-1.366,0.764-2.748,1.502-4.096,2.298
	c-5.749,3.395-6.021,7.204-0.703,11.386c1.05,0.826,2.49,1.155,4.696,2.132c-7.427,4.254-14.251,8.1-21.014,12.051
	c-7.748,4.527-15.481,9.082-23.123,13.783c-1.448,0.891-2.443,2.519-3.647,3.807c0.272,0.375,0.545,0.751,0.817,1.126
	c2.111-1.033,4.222-2.067,6.564-3.214c0.958,2.433,1.875,4.76,2.792,7.087l0.997-0.3c-0.422-2.124-0.95-4.235-1.218-6.378
	c-0.118-0.947,0.289-1.96,0.458-2.943c0.848,0.572,2.062,0.952,2.479,1.749c1.383,2.643,2.477,5.437,3.685,8.171
	c0.391,0.884,0.794,1.763,1.191,2.645l1.482-0.587c-1.708-4.694-3.416-9.389-5.255-14.442c1.47-0.92,3.266-2.044,5.553-3.476
	c-1.777,6.05-1.756,6.105,1.56,5.548l-0.008,0.025c0,0,0-0.001,0-0.001c-0.002,0.008-0.005,0.017-0.005,0.017
	c0.001,0.002,0.003,0.003,0.004,0.005c0-0.004,0-0.007,0.001-0.011c2.502-3.215,4.802-6.622,7.59-9.568
	c1.51-1.596,3.766-2.273,6.104-0.647c1.68,1.168,3.635,1.94,5.468,2.888c0.189-0.274,0.378-0.548,0.566-0.823
	c-1.904-1.536-3.809-3.072-5.587-4.505c3.881-4.692,8.752-3.418,13.977-2.607c-0.053,4.878-0.891,9.437-3.335,13.627
	c-5.347,9.166-10.854,18.242-16.063,27.486c-6.521,11.573-8.327,12.705-21.562,11.005c-8.05-1.034-16.031-2.608-24.081-3.646
	c-16.532-2.132-33.105-4.011-49.27,2.125c-5.829,2.212-11.547,4.721-17.28,7.177c-10.796,4.624-21.587,9.261-32.327,14.01
	c-1.909,0.844-3.565,2.262-5.338,3.416c0.201,0.369,0.401,0.738,0.602,1.106c1.592-0.511,3.235-0.901,4.767-1.553
	c12.192-5.184,24.631-9.878,36.48-15.759c19.965-9.908,40.68-10.944,62.153-7.442c10.463,1.706,20.995,3.097,31.545,4.129
	C167.098,452.833,171.743,448.721,174.976,442.79z M138.514,383.873c1.566-2.082,2.464-3.275,3.577-4.755
	c1.474,0.903,2.615,1.602,4.537,2.779C143.875,382.568,141.781,383.077,138.514,383.873z M151.418,361.058
	c-1.042,6.563-0.376,13.396-0.464,20.111l-1.175,0.131c-0.426-0.525-0.766-1.168-1.295-1.552c-1.855-1.347-5.081-2.337-5.412-3.949
	c-0.799-3.898-0.26-8.072-0.26-11.924c2.309-0.621,3.6-0.968,5.942-1.598c-8.797-2.239-6.353-8.769-6.603-13.912
	c-0.172-3.536,1.816-5.398,6.059-7.158C147.338,348.289,152.574,353.781,151.418,361.058z M165.909,363.989
	c-0.133,4.439-0.881,8.908-1.917,13.23c-0.216,0.9-3.304,2.098-4.334,1.609c-2.045-0.969-4.781-2.818-5.084-4.658
	c-0.735-4.455-0.239-9.113-0.239-13.92c2.697,0.565,4.574,0.957,6.741,1.411c-0.256-0.779-0.261-1.083-0.414-1.215
	c-1.857-1.606-5.126-3.01-5.355-4.807c-0.792-6.198-2.486-12.761,1.354-18.596c0.907-1.378,3.093-2.926,4.432-2.719
	c1.283,0.198,2.872,2.443,3.193,4.019c0.686,3.374,0.676,6.894,0.886,10.358C165.481,353.796,166.061,358.905,165.909,363.989z
	 M178.768,356.23c-0.973,3.991-0.177,8.387-0.462,12.585c-0.088,1.294-0.871,3.022-1.895,3.677
	c-2.593,1.657-5.504,2.817-8.843,4.448c0-1.423-0.226-2.246,0.035-2.863c2.923-6.92,0.446-13.886,0.334-20.834
	c-0.044-2.699,0.264-5.488,0.956-8.091c0.83-3.123,3.324-4.662,6.533-4.539c3.164,0.122,2.922,2.99,3.449,5.01
	C179.791,349.135,179.67,352.529,178.768,356.23z M146.035,75.474c-1.44-0.664-2.817-1.298-4.194-1.932
	c0.015-0.307,0.031-0.615,0.046-0.922c2.118-0.514,4.235-1.027,7.069-1.714C147.807,72.702,147.019,73.935,146.035,75.474z
	 M158.932,102.61c-1.49-2.976-2.676-6.24-3.189-9.503c-0.213-1.356,1.675-3.043,2.683-4.703c0.052,0.074-0.153-0.305-0.207-0.284
	c-5.562,2.105-6.445-2.75-8.478-5.76c-2.109-3.122-2.392-6.151,0.719-8.995c0.868-0.794,1.243-2.128,2.364-4.151
	c3.425,6.859,5.866,13.19,9.536,18.704c3.902,5.864,1.68,12.954,5.487,18.591C163.741,107.61,160.874,106.489,158.932,102.61z
	 M182.605,107.556c-1.033,0.756-3.578,0.528-4.787-0.279c-2.099-1.402-3.813-3.474-5.421-5.479c-0.905-1.129-1.317-2.67-1.88-4.055
	c-1.919-4.725-5.383-9.514,1.288-13.966c-0.449-0.21-0.899-0.421-1.348-0.631c-1.518,1.167-3.036,2.334-5.343,4.107
	c-2.067-4.521-4.445-8.822-5.981-13.404c-0.982-2.931,2.736-6.114,7.902-6.86c5.063,9.984,10.299,20.19,15.389,30.469
	c0.811,1.638,1.267,3.589,1.336,5.416C183.821,104.483,183.619,106.813,182.605,107.556z M186.776,366.774
	c-0.154,1.342-2.776,2.401-4.473,3.753c-2.667-7.571-0.676-15.851,4.678-18.447C186.981,357.381,187.308,362.127,186.776,366.774z
	 M187.3,82.011c-0.406,4.394-0.08,8.856-0.08,14.476c-1.791-1.661-3.104-2.347-3.578-3.408c-2.31-5.166-4.369-10.443-6.583-15.653
	c-0.514-1.21-1.185-2.386-1.966-3.443c-1.667-2.256-3.454-4.424-5.581-7.121c1.37-0.287,1.733-0.444,2.086-0.425
	c3.565,0.188,7.129,0.404,10.693,0.612C183.488,72.181,187.84,76.169,187.3,82.011z M193.694,57.335l0,0.045
	c-1.241,0-2.484,0.039-3.724-0.009c-2.217-0.085-4.271-0.212-4.014-3.434c0.239-3.002,1.568-4.284,4.547-3.787
	c2.081,0.347,4.368,0.288,6.175,1.189c1.492,0.744,3.22,2.525,3.414,4.031c0.337,2.615-2.135,1.968-3.791,1.965
	C195.432,57.334,194.563,57.335,193.694,57.335z M187.505,381.29c-1.748-2.763-0.042-3.828,1.971-4.851
	c2.332-1.186,4.729-2.246,7.058-3.437c2.69-1.375,3.218,0.434,3.91,2.868c-0.561,0.868-1.082,2.179-2.024,3.017
	c-1.573,1.399-3.438,2.465-5.139,3.727C190.81,384.447,189.105,383.819,187.505,381.29z M190.399,392.572
	c2.792-2.298,4.764-3.749,6.526-5.422c1.622-1.54,3.227-3.176,4.475-5.017c4.964-7.328,1.851-13.975-6.954-15.056
	c-1.101-0.135-2.215-0.169-3.722-0.279c-0.091-1.27-0.249-2.454-0.249-3.639c-0.004-97.47,0.021-194.941-0.056-292.411
	c-0.003-3.401,0.579-5.258,4.39-5.697c1.925-0.222,3.952-1.615,5.464-2.993c5.29-4.822,4.855-10.344-1.116-14.308
	c-2.05-1.361-4.574-1.99-6.713-3.241c-0.86-0.503-1.266-1.782-1.878-2.707c0.819-0.535,1.611-1.473,2.463-1.532
	c2.861-0.197,5.743-0.089,8.617-0.076c0.494,0.002,1.275-0.066,1.437,0.198c2.431,3.965,6.331,2.343,9.669,2.467
	c2.384,0.089,3.363,0.772,3.275,3.259c-0.151,4.243-0.141,8.499-0.006,12.743c0.075,2.368-0.948,3.083-3.126,2.98
	c-2.119-0.1-4.279-0.213-6.356,0.106c-0.852,0.131-1.533,1.377-2.292,2.116c0.756,0.747,1.438,2.019,2.284,2.139
	c2.206,0.313,4.485,0.174,6.733,0.116c1.854-0.048,2.764,0.638,2.736,2.609c-0.064,4.498-0.085,8.998,0.015,13.495
	c0.049,2.199-0.963,2.829-2.963,2.741c-2.12-0.094-4.275-0.204-6.359,0.087c-0.889,0.124-1.638,1.247-2.45,1.916
	c0.805,0.822,1.515,2.191,2.436,2.353c2.062,0.363,4.236,0.232,6.352,0.103c2.321-0.141,3.056,0.857,2.994,3.084
	c-0.118,4.245-0.129,8.5,0.006,12.744c0.074,2.344-0.898,3.109-3.102,2.995c-2.118-0.109-4.291-0.261-6.351,0.106
	c-0.895,0.159-1.566,1.57-2.339,2.412c0.784,0.697,1.523,1.925,2.36,1.995c2.945,0.247,5.923,0.096,9.138,0.096v18.823
	c-2.962,0-5.786,0.025-8.609-0.01c-1.653-0.02-3.314,0.202-2.769,2.32c0.229,0.887,1.687,1.461,2.597,2.163
	c0.079,0.061,0.244,0.007,0.369,0.012c8.67,0.332,8.695,0.332,8.658,8.977c-0.013,2.984,0.909,6.904-0.607,8.673
	c-1.372,1.6-5.524,0.657-8.367,1.239c-1.043,0.214-1.85,1.585-2.764,2.428c0.919,0.711,1.757,1.86,2.773,2.05
	c2.858,0.533,7.005-0.363,8.367,1.24c1.513,1.78,0.584,5.697,0.595,8.683c0.033,8.608,0.004,8.538-8.678,9.116
	c-1.057,0.07-2.031,1.379-3.044,2.114c1,0.758,1.938,2.044,3.012,2.17c2.682,0.315,5.426,0.104,8.669,0.104
	c0,6.02,0.072,11.593-0.106,17.158c-0.019,0.589-1.464,1.534-2.315,1.618c-2.352,0.23-4.766-0.1-7.101,0.203
	c-0.805,0.104-2.025,1.43-2.015,2.184c0.011,0.783,1.22,1.624,2.032,2.283c0.304,0.246,0.968,0.047,1.468,0.054
	c8.085,0.122,8.085,0.122,8.092,8.06c0,0.25,0.009,0.5-0.001,0.75c-0.124,3.098,0.826,7.03-0.721,9.028
	c-1.211,1.564-5.545,0.565-8.431,1.056c-0.96,0.164-1.735,1.418-2.595,2.174c0.865,0.747,1.674,2.045,2.605,2.139
	c2.828,0.284,5.704,0.103,9.083,0.103c0,5.933,0.071,11.516-0.106,17.09c-0.019,0.581-1.471,1.503-2.33,1.595
	c-2.225,0.236-4.526-0.132-6.723,0.214c-0.937,0.148-1.689,1.473-2.525,2.264c0.876,0.746,1.668,1.965,2.645,2.137
	c1.94,0.342,3.987,0.203,5.979,0.086c2.176-0.128,3.22,0.57,3.153,2.936c-0.122,4.37-0.107,8.748-0.013,13.119
	c0.046,2.159-0.902,2.871-2.927,2.795c-2.246-0.084-4.518-0.166-6.736,0.103c-0.766,0.093-2.049,1.361-1.955,1.888
	c0.161,0.905,1.119,2.205,1.922,2.351c1.937,0.353,3.989,0.27,5.975,0.113c2.654-0.209,3.917,0.558,3.755,3.509
	c-0.218,3.987-0.185,8-0.007,11.991c0.121,2.709-1,3.547-3.528,3.363c-1.988-0.145-4.033-0.237-5.979,0.089
	c-0.855,0.143-1.526,1.386-2.281,2.129c0.745,0.749,1.416,2.027,2.25,2.145c2.206,0.312,4.485,0.171,6.733,0.117
	c1.797-0.043,2.805,0.485,2.769,2.534c-0.082,4.622-0.077,9.248,0.006,13.87c0.036,1.989-0.851,2.656-2.708,2.604
	c-2.247-0.063-4.525-0.199-6.734,0.104c-0.855,0.117-1.557,1.352-2.329,2.077c0.751,0.735,1.453,2.034,2.262,2.104
	c2.951,0.255,5.937,0.101,9.447,0.101c0,6,0.071,11.572-0.103,17.137c-0.019,0.598-1.429,1.562-2.265,1.647
	c-2.352,0.238-4.766-0.087-7.101,0.223c-0.826,0.109-1.494,1.41-2.234,2.166c0.763,0.733,1.451,1.969,2.306,2.098
	c2.078,0.315,4.238,0.205,6.357,0.099c2.214-0.111,3.176,0.693,3.112,3.015c-0.12,4.37,0.112,8.756-0.16,13.113
	c-0.058,0.931-1.537,2.345-2.545,2.528c-2.179,0.396-4.517-0.101-6.707,0.265c-0.896,0.149-1.576,1.586-2.355,2.437
	c0.799,0.7,1.528,1.875,2.41,2.005c2.081,0.305,4.24,0.212,6.357,0.095c2.319-0.129,3.06,0.893,3.001,3.111
	c-0.113,4.246-0.121,8.499-0.004,12.744c0.063,2.301-0.856,3.152-3.091,3.015c-1.867-0.115-3.797-0.271-5.604,0.081
	c-1.154,0.225-2.149,1.319-3.186,2.065c-0.554,0.399-1.034,1.255-1.566,1.272C198.889,392.626,195.204,392.572,190.399,392.572z
	 M344.944,415.029c168.592,0.684,337.183,1.361,505.775,2.032c1.12,0.004,2.501,0.265,3.29-0.278
	c0.878-0.604,1.911-2.224,1.654-2.994c-0.693-2.078-1.924-4.014-3.145-5.872c-2.49-3.792-5.948-7.187-7.476-11.313
	c-2.049-5.53-8.61-8.119-8.765-14.583c-0.002-0.092-0.179-0.169-0.246-0.272c-2.947-4.498-6.031-8.913-8.796-13.52
	c-2.952-4.918-5.448-10.112-8.433-15.009c-2.721-4.464-6.139-8.521-8.659-13.084c-1.617-2.928-3.431-4.141-6.722-4.17
	c-44.864-0.397-89.728-0.888-134.591-1.343c-1.061-0.011-2.123,0.133-3.185,0.206c-0.055,0.414-0.11,0.828-0.165,1.242
	c3.168,0.562,6.33,1.571,9.506,1.618c31.364,0.468,62.729,0.822,94.096,1.058c3.061,0.023,4.684,1.026,6.087,3.705
	c11.769,22.471,23.681,44.866,35.531,67.295c0.596,1.128,1.012,2.352,1.776,4.152c-174.272-0.707-347.766-1.411-522.153-2.119
	c1.217-2.233,1.923-3.637,2.726-4.983c12.792-21.46,25.565-42.931,38.426-64.349c2.505-4.172,3.781-9.979,11.1-9.271
	c-1.673-1.301-3.2-2.161-4.746-2.196c-9.368-0.211-18.744-0.125-28.111-0.367c-4.108-0.106-7.876-0.218-8.729,5.073
	c-0.068,0.418-0.637,0.738-0.914,1.143c-2.58,3.779-5.147,7.567-7.72,11.351c-0.418,0.614-0.743,1.345-1.291,1.808
	c-3.861,3.266-5.264,7.847-6.849,12.37c-0.388,1.107-1.224,2.098-1.999,3.02c-3.23,3.839-6.534,7.616-9.759,11.459
	c-0.464,0.553-0.577,1.385-0.971,2.014c-0.958,1.529-2.134,2.938-2.958,4.531c-2.079,4.023-5.149,7.044-8.81,9.627
	c-0.776,0.547-0.959,1.959-1.372,2.99c-0.367,0.918-0.487,1.994-1.04,2.768c-2.984,4.176-6.091,8.263-9.099,12.422
	c-0.597,0.825-0.945,1.831-1.592,3.118c1.313,0.14,2.017,0.277,2.722,0.28C281.207,414.743,313.075,414.899,344.944,415.029z
	 M851.433,412.503c-6.246,2.659-34.493,1.669-36.744-0.928c1.676-0.116,2.913-0.266,4.151-0.277
	c9.823-0.09,19.646-0.198,29.469-0.163C849.352,411.138,850.392,412.026,851.433,412.503z M776.762,339.375h30.05
	c-0.01,0.589-0.019,1.178-0.029,1.767c-9.588,0-19.177,0.019-28.764-0.068C777.632,341.07,777.255,340.067,776.762,339.375z
	 M779.404,343.679h29.911c-0.006,0.449-0.012,0.899-0.018,1.348c-9.971-0.002-19.945,0.258-29.915,0.101
	C779.389,344.645,779.396,344.162,779.404,343.679z M779.958,348.681c5.648-2.556,30.656-1.754,32.722,1.24
	c-10.343,0-20.075,0.023-29.806-0.043C782.088,349.873,781.306,349.255,779.958,348.681z M814.965,353.532
	c-5.674,1.757-29.641,1.098-31.319-1.096C789.438,350.824,813.225,351.739,814.965,353.532z M817.955,356.969
	c-0.027,0.343-0.055,0.687-0.082,1.03c-5.567,1.907-30.048,1.374-31.767-1.03H817.955z M821.006,363.902
	c-1.405-0.145-2.81-0.418-4.214-0.412c-8.105,0.036-16.209,0.183-24.314,0.17c-1.293-0.002-2.586-0.621-3.879-0.955
	c0.088-0.476,0.175-0.953,0.263-1.429c1.176-0.08,2.352-0.239,3.526-0.226c8.229,0.095,16.458,0.223,24.686,0.351
	c0.87,0.014,2.052-0.241,2.551,0.217c1.561,1.429,2.865,3.14,4.268,4.742c-1.565,0.544-3.111,1.491-4.698,1.565
	c-8.093,0.378-16.195,0.6-24.296,0.694c-1.318,0.015-2.646-0.88-3.97-1.355c0.128-0.581,0.255-1.162,0.383-1.743h29.753
	C821.046,364.98,821.026,364.441,821.006,363.902z M793.681,370.683h31.57l0.125,1.446c-1.149,0.113-2.296,0.302-3.446,0.325
	c-8.327,0.168-16.654,0.356-24.981,0.39c-1.218,0.005-2.44-0.768-3.66-1.182C793.419,371.337,793.55,371.01,793.681,370.683z
	 M796.186,375.396c10.827,0,21.654-0.014,32.48,0.078c0.277,0.002,0.544,1.166,0.976,2.154c-1.326,0.12-2.263,0.272-3.201,0.278
	c-8.828,0.051-17.658,0.136-26.485,0.046c-1.373-0.014-2.737-0.862-4.106-1.324C795.962,376.217,796.074,375.806,796.186,375.396z
	 M798.887,381.361l0.381-1.109c10.391,0,20.782-0.019,31.172,0.067c0.437,0.004,0.866,0.992,2.195,2.618
	c-11.533,0-21.998,0.019-32.463-0.067C799.74,382.867,799.316,381.886,798.887,381.361z M801.442,385.954
	c11.151-0.636,22.114-0.46,33.085-0.613c-0.042,0.724-0.084,1.447-0.126,2.171c-2.199,0-4.399-0.032-6.598,0.006
	c-7.619,0.13-15.237,0.34-22.856,0.37C803.719,387.893,802.487,387.139,801.442,385.954z M804.034,389.993
	c2.013,0,3.953,0.001,5.894,0c7.956-0.005,15.914-0.078,23.868,0.052c1.33,0.022,2.647,0.925,3.969,1.421
	c-0.094,0.362-0.188,0.724-0.283,1.086c-1.038,0.093-2.076,0.26-3.115,0.269c-8.832,0.078-17.665,0.117-26.497,0.194
	C805.942,393.033,804.015,393.157,804.034,389.993z M806.751,395.504c2.484,0,4.677,0.023,6.87-0.004
	c8.474-0.104,16.948-0.264,25.422-0.279c0.851-0.002,1.703,0.838,2.555,1.288c-0.822,0.481-1.641,1.373-2.468,1.381
	c-8.353,0.079-16.708-0.003-25.063,0.006c-1.36,0.001-2.825-0.062-4.058,0.397C807.264,399.316,807.181,397.609,806.751,395.504z
	 M809.291,402.15c0.133-0.366,0.266-0.731,0.399-1.097c0.915-0.083,1.829-0.227,2.745-0.24c9.702-0.129,19.405-0.31,29.106-0.275
	c1.533,0.005,3.062,1.012,4.593,1.556c-0.165,0.544-0.331,1.089-0.496,1.633c-2.551-0.138-5.102-0.402-7.652-0.392
	c-8.582,0.034-17.163,0.213-25.744,0.195C811.257,403.527,810.274,402.631,809.291,402.15z M812.194,406.574
	c11.535-0.228,22.457-0.462,33.379-0.596c0.456-0.006,0.924,0.918,1.701,1.743C840.866,409.056,814.109,408.552,812.194,406.574z
	 M332.246,334.214c-1.189,1.854-24.827,2.229-29.357,0H332.246z M330.18,339.459h-28.729
	C303.097,337.819,326.007,337.099,330.18,339.459z M301.019,342.161c8.827-0.144,17.657-0.084,26.486-0.084
	c0.178,0.424,0.356,0.847,0.533,1.271c-1.014,0.527-2.022,1.496-3.043,1.51c-8.836,0.121-17.674,0.069-26.512,0.069
	c-0.132-0.312-0.265-0.624-0.397-0.936C299.063,343.353,300.031,342.177,301.019,342.161z M296.974,346.813
	c9.209-0.078,18.418-0.053,27.628-0.053c0.167,0.552,0.333,1.104,0.5,1.657c-1.171,0.423-2.342,1.214-3.512,1.211
	c-8.107-0.016-16.215-0.164-24.32-0.382c-0.755-0.02-1.489-0.819-2.233-1.256C295.682,347.58,296.325,346.819,296.974,346.813z
	 M294.256,351.701c8.609-0.095,17.219-0.055,25.829-0.025c0.569,0.002,1.136,0.253,1.704,0.388c0.121,0.365,0.241,0.73,0.362,1.095
	c-0.984,0.473-1.971,1.36-2.952,1.354c-8.985-0.057-17.97-0.265-26.954-0.458c-0.295-0.006-0.583-0.336-1.53-0.92
	C292.21,352.505,293.229,351.712,294.256,351.701z M290.943,356.858c9.285-0.088,18.57-0.06,27.856-0.06
	c0.163,0.332,0.327,0.663,0.49,0.995c-0.935,0.502-1.865,1.428-2.805,1.439c-9.053,0.11-18.107,0.066-27.161,0.066l-0.357-1.111
	C289.625,357.724,290.28,356.864,290.943,356.858z M289.408,361.31c7.597-0.043,15.195-0.002,22.793,0.014
	c1.302,0.003,2.604,0,3.905,0l0.4,1.452c-1.228,0.506-2.462,1.46-3.684,1.447c-7.846-0.086-15.692-0.342-23.531-0.679
	c-0.814-0.035-1.589-0.967-2.382-1.483C287.741,361.799,288.573,361.314,289.408,361.31z M314.543,366.85
	c-1.7,0.956-2.544,1.839-3.399,1.849c-8.782,0.102-17.565,0.063-26.348,0.063c-0.01-0.637-0.019-1.274-0.029-1.912H314.543z
	 M282.197,371.246c9.32-0.092,18.642-0.063,27.963-0.063c0.169,0.301,0.338,0.602,0.507,0.904c-0.89,0.651-1.776,1.86-2.671,1.866
	c-8.848,0.06-17.698-0.073-26.546-0.186c-0.297-0.004-0.589-0.375-1.445-0.957C280.89,372.153,281.539,371.252,282.197,371.246z
	 M278.352,376.041c8.474,0.018,16.949,0.24,25.422,0.428c1.047,0.023,2.089,0.239,3.439,1.295c-0.77,0.512-1.537,1.462-2.312,1.47
	c-9.933,0.101-19.867,0.066-29.801,0.066c-0.152-0.564-0.304-1.128-0.456-1.692C275.88,377.06,277.117,376.038,278.352,376.041z
	 M275.05,381.394c9.678-0.102,19.358-0.07,29.037-0.07c0.138,0.46,0.277,0.919,0.416,1.379c-0.925,0.549-1.845,1.564-2.777,1.575
	c-9.427,0.118-18.857,0.072-28.286,0.072c-0.143-0.47-0.286-0.939-0.429-1.409C273.69,382.402,274.365,381.401,275.05,381.394z
	 M271.784,385.533c8.324,0.364,16.654,0.59,24.982,0.851c1.451,0.046,2.904,0.007,4.357,0.007c0.184,0.446,0.368,0.892,0.552,1.339
	c-1.047,0.59-2.093,1.689-3.141,1.69c-9.484,0.008-18.968-0.172-28.452-0.321c-0.337-0.005-0.671-0.267-1.114-0.456
	C268.739,386.522,269.329,385.426,271.784,385.533z M267.414,391.61c9.83-0.089,19.663,0.119,29.495,0.25
	c0.336,0.004,0.668,0.272,1.802,0.763c-1.312,0.815-2.167,1.804-3.035,1.815c-10.929,0.135-21.861,0.13-32.791,0.148
	c-0.069,0-0.138-0.177-0.683-0.918C264.029,392.913,265.716,391.626,267.414,391.61z M263.284,396.471
	c9.204,0.376,18.414,0.618,27.622,0.902c1.193,0.037,2.388,0.005,3.582,0.005l0.365,1.774c-1.358,0.302-2.715,0.857-4.076,0.867
	c-9.958,0.075-19.918,0.04-30.131,0.04C260.326,398.074,260.091,396.341,263.284,396.471z M259.483,401.882
	c9.831,0.262,19.656,0.734,29.481,1.171c0.793,0.035,1.575,0.287,2.523,1.297c-0.893,0.342-1.786,0.98-2.679,0.981
	c-10.591,0.004-21.182-0.084-31.773-0.17c-0.2-0.002-0.399-0.266-1.815-1.272C257.056,402.988,258.285,401.85,259.483,401.882z
	 M256.32,407.315c10.078,0.21,20.155,0.496,30.232,0.778c0.578,0.016,1.151,0.247,1.726,0.378c0.159,0.38,0.317,0.76,0.476,1.14
	c-1.153,0.688-2.303,1.964-3.461,1.971c-10.841,0.063-21.683-0.089-32.525-0.2c-0.199-0.002-0.396-0.256-0.846-0.565
	C252.556,408.628,253.932,407.265,256.32,407.315z M1080.633,378.606c-4.346,0.167-8.832,0.065-12.988,1.136
	c-12.88,3.321-24.669,0.741-35.414-6.363c-8.365-5.53-16.576-7.391-26.146-3.384c-2.65,1.109-7.068,1.176-9.208-0.344
	c-4.361-3.098-10.038-5.209-11.845-11.242c-0.291-0.972-1.713-1.959-2.803-2.271c-2.848-0.815-5.783-1.387-8.718-1.821
	c-4.147-0.613-8.328-0.998-12.491-1.51c-2.412-0.297-3.653-1.528-3.925-4.119c-1.003-9.563-2.24-19.101-3.305-28.658
	c-2.895-25.99-2.526-51.918,2.469-77.623c1.807-9.301,0.432-17.537-4.789-25.335c-0.835-1.247-1.14-2.991-1.276-4.542
	c-0.751-8.58-0.989-17.223-2.135-25.745c-1.575-11.707-4.262-23.221-11.977-32.662c-2.019-2.47-4.954-4.566-7.9-5.823
	c-5.376-2.292-11.282-3.373-16.582-5.802c-5.917-2.711-10.841-1.68-15.727,1.954c-7.33,5.452-12.683,12.339-15.312,21.161
	c-1.925,6.459-3.909,12.911-5.515,19.452c-7.227,29.43-9.504,59.159-4.662,89.211c1.535,9.528,4.034,18.821,9.149,27.185
	c4.717,7.713,10.109,9.902,18.931,8.072c5.594-1.16,11.265-1.955,17.773-3.061c-0.321,2.163-0.459,3.489-0.719,4.792
	c-2.448,12.251-5.032,24.477-7.303,36.76c-0.582,3.147-1.836,4.533-4.981,5.416c-7.19,2.019-14.362,4.279-21.25,7.143
	c-6.047,2.514-10.118,7.2-12.847,13.447c-2.554,5.846,0.931,8.955,5.584,10.626c3.969,1.426,8.185,2.363,12.371,2.958
	c29.993,4.263,60.037,4.25,90.049,0.317c5.761-0.755,11.54-2.231,16.989-4.244c4.445-1.643,8.091-5.438,13.435-4.609
	c0.661,0.103,1.466-0.323,2.124-0.661c6.189-3.17,12.036-2.271,17.771,1.266c2.441,1.506,5.048,2.745,7.588,4.089
	c8.12,4.298,16.858,5.203,25.847,4.634c0.867-0.055,1.71-0.477,3.471-0.996c-1.479-0.362-1.955-0.59-2.424-0.577
	c-13.313,0.361-25.27-3.816-36.551-10.578c-4.562-2.734-9.371-2.49-14.424-0.619c-3.155,1.169-6.753,1.361-10.174,1.52
	c-2.38,0.11-3.518-1.443-3.068-3.224c5.183-1.331,9.844-2.506,14.493-3.728c4.715-1.239,9.182-0.562,13.405,1.75
	c2.409,1.319,4.71,2.835,7.094,4.203c9.948,5.711,20.403,8.379,31.994,6.3c6.09-1.092,12.365-1.147,18.554-1.693
	c0.762-0.067,1.513-0.271,2.269-0.412C1083.929,379.24,1082.266,378.543,1080.633,378.606z M972.279,356.902
	c3.085,0.544,6.17,1.087,9.255,1.631c-0.122,0.682-0.243,1.364-0.365,2.046c-3.082-0.561-6.164-1.122-9.245-1.684
	C972.043,358.231,972.161,357.567,972.279,356.902z M983.06,363.933c-4.57,3.194-12.701,1.346-13.983-2.789
	C973.62,362.05,978.103,362.944,983.06,363.933z M949.838,227.118c0.188-1.307,0.29-2.627,0.432-3.942
	c0.328-0.03,0.657-0.059,0.985-0.089c1.952,4.205,3.513,8.563,2.55,13.391c-7.399,37.116-5.955,74.26-0.404,111.414
	c0.49,3.281,1.405,6.498,2.222,10.191c-4.303,0.565-8.231,1.093-12.162,1.592c-2.702,0.343-2.677-1.545-2.683-3.364
	c-0.059-16.104-0.311-32.21-0.099-48.31c0.149-11.355,0.752-22.714,1.527-34.045c0.268-3.93,1.885-7.749,2.496-11.679
	C946.52,250.574,948.149,238.841,949.838,227.118z M881.321,296.265c-2.947-7.476-4.671-15.461-6.566-23.312
	c-0.872-3.612-1.018-7.423-1.256-11.16c-0.444-6.979-0.714-13.969-0.992-19.638c0.85-22.573,1.582-43.878,8.282-64.273
	c2.664-8.11,6.692-15.834,10.693-23.42c2.628-4.983,6.312-4.978,8.707,0.206c2.847,6.16,5.144,12.764,6.436,19.417
	c3.328,17.135,3.437,34.536,2.451,51.906c-1.106,19.495-3.336,38.859-9.734,57.449c-1.612,4.682-3.766,9.29-6.386,13.485
	C889.084,303.129,883.976,303,881.321,296.265z M896.368,306.336c-1.7,0.906-4.086,0.524-6.163,0.72
	c12.69-14.701,15.864-32.271,18.783-49.769c4.654-27.902,5.631-55.926,0.965-83.971c-0.348-2.093-0.809-4.174-1.34-6.229
	c-1.882-7.295-3.855-14.557-10.365-19.32c3.917-5.012,10.862-4.974,15.06,0.773c3.327,4.555,5.944,9.85,7.837,15.185
	c4.128,11.637,5.367,23.878,5.734,36.153c0.866,29.011-2.333,57.446-13.531,84.493c-2.36,5.699-5.849,11.022-9.43,16.085
	C902.142,302.968,899.163,304.847,896.368,306.336z M905.7,304.389c16.495-22.694,21.378-49.001,23.676-75.855
	c2.302-26.903,1.91-53.695-10.729-79.628c6.622,1.563,12.254,2.693,15.975,8.396c4.393,6.734,7.21,13.995,8.704,21.769
	c6.629,34.498,4.477,68.379-7.873,101.383c-1.861,4.972-4.633,9.7-7.579,14.147C923.588,301.069,914.117,305.04,905.7,304.389z
	 M910.15,354.995c3.19-15.405,5.802-30.93,8.718-46.393c0.251-1.33,0.848-3.267,1.817-3.683c7.482-3.208,11.185-9.688,14.774-16.327
	c0.594-1.098,1.153-2.214,1.772-3.297c0.085-0.149,0.426-0.152,1.048-0.349c-0.234,4.816-0.605,9.484-0.664,14.157
	c-0.237,18.856-0.486,37.713-0.458,56.569c0.005,3.542-0.746,5.055-4.466,4.827c-6.351-0.389-12.718-0.545-19.08-0.736
	C910.301,359.664,909.366,358.78,910.15,354.995z M991.025,381.119c-4.536,1.345-9.173,2.575-13.855,3.167
	c-29.027,3.667-58.096,3.735-87.121,0.061c-5.529-0.7-10.904-2.612-16.351-3.966c-2.559-0.636-2.944-2.125-2.076-4.492
	c1.879-5.125,4.722-9.678,9.802-11.753c7.712-3.151,15.697-5.644,23.631-8.214c0.566-0.183,2.516,1.565,2.39,1.954
	c-1.075,3.338,1.19,4.074,3.443,4.51c3.302,0.639,6.687,1.399,10.009,1.29c10.965-0.359,21.924-0.985,32.871-1.728
	c3.386-0.23,6.88-1.029,4.485-6.797c2.289,0.531,3.578,0.891,4.891,1.121c2.99,0.526,4.946,1.317,3.288,5.161
	c-0.444,1.03,1.138,3.94,2.453,4.545c5.354,2.463,10.918,4.559,16.578,0.308c0.559-0.42,2.462,0.156,3.145,0.853
	c1.671,1.703,2.992,3.749,4.454,5.657c-2.008,1.152-3.906,3.005-6.041,3.337c-10.724,1.668-21.473,3.465-32.283,4.237
	c-21.484,1.533-42.98,1.113-64.321-2.138c-5.595-0.852-11.066-2.517-16.594-3.808c-0.195,0.276-0.391,0.552-0.586,0.827
	c1.354,0.826,2.624,2.151,4.077,2.399c10.568,1.804,21.119,4.151,31.776,4.895c25.104,1.752,50.222,1.62,75.073-3.218
	c3.589-0.699,7.037-2.119,10.765-3.271C995.541,379.42,993.081,380.51,991.025,381.119z M783.232,468.793
	c1.102-4.597,2.04-8.514,3.081-12.86C782.466,458.166,780.934,464.248,783.232,468.793z M151.74,35.391
	c3.439-3.502,4.039-8.832,1.17-12.396C152.543,26.884,152.175,30.773,151.74,35.391z M171.666,423.264
	c0.278-1.508,0.308-3.026-0.379-4.072c-1.708-2.599-3.744-4.984-5.648-7.455C165.054,416.916,169.73,419.324,171.666,423.264z
	 M275.285,456.412c0.918,3.846,1.837,7.691,2.755,11.537C280.225,463.835,279.078,458.937,275.285,456.412z M590.097,245.665
	c5.024,0.851,5.211,4.053,5.488,7.711c0.094,1.246,0.274,2.485,0.367,3.731c0.417,5.608-0.977,8.594-5.741,10.022
	c-7.155,2.145-10.479,2.514-14.049-2.303c-0.508,1.192-0.993,2.814-0.398,3.502c0.975,1.127,2.571,2.072,4.045,2.351
	c7.438,1.406,13.824-0.615,18.837-6.658c5.614,3.137,10.906,2.205,15.974-1.075c3.783-2.449,4.312-4.592,2.323-8.592
	c0.985-0.768,1.942-1.515,3.349-2.611c-1.784-0.809-2.7-1.224-3.556-1.612c1.761-1.947,3.383-3.741,5.006-5.535
	c-0.268-0.265-0.536-0.531-0.804-0.796c-1.479,0.872-2.901,1.871-4.454,2.579c-1.479,0.674-3.097,1.044-4.653,1.548
	c7.321-5.022,8.327-6.596,5.036-9.241c-2.338,6.446-8.645,5.714-14.644,7.201c1.966,0.936,2.922,1.391,4.457,2.121
	c-1.572,0.498-2.559,0.81-3.167,1.003c0.494,5.964,4.685,5.953,8.908,5.801c3.049-0.109,3.272,1.864,2.717,3.954
	c-0.684,2.576-5.392,4.527-9.697,4.405c-3.159-0.089-5.21-1.509-5.946-4.638c-0.601-2.555-0.936-5.199-1.806-7.656
	c-1.045-2.953-0.697-5.044,1.363-7.693c1.492-1.919,2.104-5.596,1.294-7.832c-0.494-1.365-4.404-1.581-6.824-2.112
	c-0.778-0.171-1.726,0.216-2.546,0.495c-3.06,1.041-6.924,1.811-7.246,5.547C583.398,243.118,587.229,245.179,590.097,245.665z
	 M587.045,238.505c2.2-0.612,4.37-1.451,6.611-1.751c1.309-0.175,2.732,0.512,4.104,0.811c-0.391,1.255-0.447,2.831-1.26,3.684
	c-0.972,1.02-2.847,2.24-3.879,1.919c-2.093-0.651-3.883-2.28-5.797-3.506C586.898,239.276,586.972,238.89,587.045,238.505z
	 M573.376,236.27c-4.232-4.209-13.991-4.892-20.641-1.648c-4.3,2.097-8.381,4.62-9.449,10.379c5.155-3.206,9.291-7.034,14.128-8.429
	C562.198,235.192,567.691,236.27,573.376,236.27z M623.972,227.037c-1.549-4.409-5.118-5.664-12.754-5.214
	c-6.065,0.357-10.608,3.313-11.285,7.951C607.094,222.87,615.409,224.695,623.972,227.037z M568.401,248.021
	c-2.375,3.409-1.82,5.25,1.323,5.98c5.706,1.326,11.179,0.359,16.362-2.215c0.92-0.457,1.545-1.507,2.307-2.283
	c-0.202-0.292-0.405-0.585-0.607-0.877c-1.11,0.381-2.199,0.852-3.334,1.127c-3.258,0.789-6.507,1.698-9.815,2.176
	C571.964,252.314,569.279,252.008,568.401,248.021z M590.33,252.156c-7.226,1.945-14.644,3.942-21.897,5.894
	C573.699,261.484,588.144,257.653,590.33,252.156z M589.931,281.636c4.847-2.376,8.869-4.347,13.501-6.617
	C598.688,273.8,592.625,276.732,589.931,281.636z M590.599,256.093c-4.017,1.83-8.034,3.66-12.051,5.49
	C583.567,261.769,587.924,260.576,590.599,256.093z M897.197,246.436c-2.103-0.675-3.906-1.254-6.04-1.94
	c3.773-12.082,3.83-24.259,1.692-36.174c2.124-1.574,5.865,0.346,5.849-3.763c-2.364-0.255-4.581-0.816-6.735-0.635
	c-2.098,0.177-4.431-2.204-6.348,0.605c-1.319,1.932-2.953,3.648-4.371,5.516c-0.441,0.581-0.683,1.329-0.942,2.028
	c-3.59,9.698-3.788,19.554-0.746,29.356C881.747,248.49,891.11,251.247,897.197,246.436z M886.277,244.433
	c-0.993-1.002-2.426-1.827-2.909-3.033c-4.207-10.504-3.311-20.996,0.683-31.321c0.416-1.076,2.102-2.157,3.281-2.254
	c0.705-0.059,2.071,1.698,2.272,2.798c0.783,4.272,1.218,8.608,1.871,13.593c-0.856,5.227-1.692,11.008-2.825,16.729
	C888.399,242.214,887.096,243.275,886.277,244.433z M895.356,285.227c-2.269,2.914-4.538,5.827-6.806,8.741
	c0.389,0.269,0.778,0.538,1.168,0.808c2.083-3.048,4.167-6.096,6.25-9.144C895.763,285.497,895.56,285.362,895.356,285.227z
	 M889.276,177.511c-0.316-0.141-0.632-0.281-0.948-0.422c-1.622,3.686-3.245,7.372-4.867,11.057
	c0.238,0.078,0.477,0.155,0.715,0.233C885.876,184.756,887.576,181.133,889.276,177.511z M884.026,228.794
	c0.756-5.673,1.436-10.775,2.116-15.877C882.641,215.939,881.693,224.647,884.026,228.794z"/>
</svg>
