<?xml version="1.0" encoding="utf-8"?>
<!-- Generator: Adobe Illustrator 21.0.2, SVG Export Plug-In . SVG Version: 6.00 Build 0)  -->
<svg version="1.1" id="Layer_1" xmlns="http://www.w3.org/2000/svg" xmlns:xlink="http://www.w3.org/1999/xlink" x="0px" y="0px"
	 viewBox="0 0 1266.56 621.942" style="enable-background:new 0 0 1266.56 621.942;" xml:space="preserve">
<path fill="white" d="M1264.251,613.633c-5.124-5.744-10.37-11.381-15.651-16.983c-7.916-8.398-15.976-16.661-23.831-25.115
	c-9.749-10.493-19.332-21.139-29.023-31.687c-9.022-9.82-18.054-19.63-27.15-29.381c-7.035-7.541-14.214-14.947-21.26-22.477
	c-8.583-9.173-17.053-18.451-25.69-27.572c-1.018-1.075-2.771-2.028-4.195-2.046c-6.226-0.078-12.455,0.265-18.684,0.349
	c-5.676,0.077-11.353,0.016-17.373,0.016c0.751-8.475,1.41-16.289,2.141-24.097c6.148-65.698,12.258-131.399,18.482-197.09
	c5.221-55.113,10.557-110.215,15.941-165.313c0.282-2.882-0.617-4.316-3.12-5.51c-9.136-4.361-18.34-8.618-27.214-13.472
	c-5.039-2.756-10.085-3.807-15.701-3.664c-3.145,0.08-4.967,0.826-4.777,2.782c-0.178-9.243-2.135-11.638-13.019-12.866
	c-20.484-2.311-40.998-4.365-61.502-6.501c-4.129-0.43-8.269-0.749-12.599-1.136c2.462-5.274,1.757-6.823-3.259-7.87
	c-1.57-0.328-3.239-0.154-4.834-0.397c-1.004-0.153-2.202-0.391-2.892-1.039c-7.807-7.335-16.812-10.945-27.608-9.199
	c-10.081-17.724-26.401-17.826-39.225-0.269c-9.148-1.628-18.501,0.79-25.737,7.204c-2.155,1.91-4.103,2.532-6.898,2.488
	c-6.281-0.099-8.018,2.061-6.657,7.803c-1.241,0.115-2.451,0.242-3.663,0.339c-24.908,1.997-49.819,3.955-74.716,6.07
	c-1.643,0.14-3.77,1.086-4.637,2.361c-1.363,2.006-2.877,2.612-4.999,2.309c-4.619-0.659-8.429,0.958-12.196,3.549
	c-5.865,4.034-11.917,7.822-18.073,11.399c-3.085,1.792-4.159,3.871-4.05,7.492c1.808,59.717,3.483,119.437,5.148,179.158
	c1.247,44.728,2.451,89.458,3.647,134.188c0.555,20.741,1.086,41.482,1.483,62.226c0.031,1.63-0.586,4.001-1.746,4.794
	c-4.015,2.745-6.637,6.278-8.373,10.746c-0.393,1.011-1.994,2.082-3.12,2.179c-3.213,0.277-6.495-0.194-9.7,0.125
	c-2.876,0.286-4.488-0.997-6.333-2.925c-8.755-9.151-14.339-20.142-18.484-31.878c-3.806-10.775-7.958-21.25-15.243-30.285
	c-2.161-2.68-2.391-5.946-0.537-9.463c1.954-3.708,3.402-7.784,4.428-11.861c2.579-10.244,1.75-20.595,0.229-30.913
	c-0.259-1.753-0.521-3.505-0.804-5.412c2.936,1.744,5.339,3.161,7.731,4.596c1.848,1.108,3.682,2.239,5.522,3.359
	c2.289,4.315,4.583,8.639,6.878,12.963c0.499-0.045,0.997-0.09,1.496-0.135c0.872-3.911,1.744-7.823,2.681-12.023
	c1.138,1.298,1.92,2.189,3.399,3.876c0.32-2.483,0.894-4.159,0.674-5.722c-0.904-6.428-1.601-12.946-3.309-19.174
	c-0.773-2.821-3.251-5.906-5.812-7.333c-3.703-2.062-8.112-3.177-12.355-3.852c-3.698-0.588-7.487-0.116-8.835-4.811
	c-0.172-0.598-1.008-1.259-1.655-1.422c-2.826-0.715-2.176-2.561-2.024-4.673c0.519-7.208,1.031-14.44,0.971-21.657
	c-0.042-5.062-3.045-6.578-7.611-4.531c-5.683,2.548-5.728,2.581-9.427-2.532c-1.088-1.503-1.578-3.485-2.799-4.836
	c-2.111-2.335-4.244-5.094-6.975-6.317c-3.92-1.755-8.338-2.602-12.633-3.25c-3.659-0.552-7.443-0.315-11.173-0.359
	c-10.596-0.125-21.193-0.262-31.79-0.298c-4.347-0.015-8.706,0.063-13.04,0.369c-9.848,0.693-19.962,0.651-25.09,11.869
	c-0.878,1.921-4.418,3.943-6.51,3.733c-5.215-0.521-7.527,0.4-8.943,5.561c-0.389,1.417-0.592,3.052-1.445,4.148
	c-3.988,5.119-4.059,5.064-0.057,9.966c-0.825,0.885-1.7,1.757-2.498,2.693c-2.547,2.99-2.233,4.983,1.059,6.977
	c3.221,1.951,4.109,5.14,2.258,8.521c-7.763,14.184-10.759,29.537-10.619,45.499c0.088,10.003,2.272,19.62,8.294,27.969
	c1.671,2.317,1.49,4.555,0.245,7.015c-2.978,5.884-4.898,12.156-4.532,18.759c0.372,6.71-1.007,12.877-2.772,19.335
	c-2.077,7.602-2.324,15.757-2.848,23.706c-0.214,3.243-0.503,4.675-4.294,4.349c-5.33-0.457-10.726-0.166-16.093-0.175
	c-7.053-0.011-14.105-0.003-21.288-0.003c0-2.083-0.064-3.573,0.01-5.057c0.78-15.602,1.607-31.202,2.369-46.804
	c0.463-9.487,0.834-18.978,1.251-28.467c0.086-1.964,0.272-3.613,2.981-3.861c0.895-0.082,2.157-1.881,2.337-3.037
	c0.727-4.682,1.171-9.413,1.537-14.14c0.073-0.944-0.398-2.188-1.052-2.888c-4.264-4.567-8.927-8.787-12.926-13.568
	c-6.125-7.324-14.117-9.294-23.065-9.215c-3.082,0.027-6.164,0.004-9.547,0.004c0-1.243-0.038-2.206,0.006-3.166
	c0.722-15.73,1.456-31.46,2.184-47.19c0.098-2.112-0.209-4.355,3.016-4.604c0.624-0.048,1.483-1.632,1.628-2.599
	c1.394-9.28,2.666-18.589,0.956-27.962c-0.22-1.206-1.014-2.782-2.004-3.298c-8.298-4.325-16.543-8.889-26.343-8.797
	c-53.495,0.502-106.991,1.119-160.487,1.365c-12.041,0.055-23.74,0.426-34.194,7.319c-0.305,0.201-0.69,0.293-1.049,0.397
	c-3.137,0.906-5.034,3.066-4.963,6.238c0.196,8.713,0.647,17.421,1.12,26.124c0.045,0.823,0.909,2.248,1.473,2.289
	c3.274,0.239,2.794,2.546,2.888,4.628c0.646,14.232,1.257,28.466,1.974,42.695c0.491,9.766,0.559,9.774-9.397,9.806
	c-4.861,0.016-10.01-0.679-13.964,2.873c-7.042,6.326-13.834,12.932-20.666,19.489c-0.551,0.528-0.883,1.587-0.844,2.377
	c0.227,4.605,0.471,9.218,1.01,13.793c0.121,1.029,1.506,2.783,2.191,2.729c4.072-0.323,3.929,2.232,4.051,5.011
	c1.029,23.472,2.132,46.94,3.189,70.411c0.092,2.053,0.012,4.113,0.012,6.109c-15.66,0-30.942,0.369-46.195-0.143
	c-8.713-0.293-15.863,0.984-21.675,8.415c-6.33,8.093-13.641,15.429-20.64,22.988c-9.97,10.766-20.098,21.386-30.061,32.158
	c-9.446,10.213-18.723,20.583-28.156,30.81c-10.615,11.509-21.286,22.969-31.998,34.387c-9.282,9.894-18.631,19.727-28.02,29.52
	c-1.44,1.502-3.255,2.646-4.896,3.955c0.199,0.525,0.399,1.05,0.598,1.575c2.964,0.564,5.926,1.608,8.892,1.615
	c23.401,0.058,46.802-0.102,70.203-0.154c20.676-0.046,41.351-0.004,62.027-0.067c19.015-0.058,38.029-0.249,57.044-0.301
	c18.891-0.052,37.782-0.002,56.673-0.003c20.04-0.001,40.08-0.02,60.121-0.011c19.424,0.009,38.847,0.1,58.271,0.054
	c18.177-0.043,36.354-0.274,54.532-0.315c12.454-0.028,24.908,0.198,37.361,0.187c16.424-0.015,32.847-0.213,49.271-0.219
	c14.294-0.005,28.587,0.213,42.881,0.215c20.019,0.003,40.038-0.126,60.058-0.156c14.312-0.021,28.624,0.039,42.937,0.042
	c17.652,0.004,35.305-0.047,52.957-0.012c14.194,0.028,28.388,0.198,42.582,0.213c11.192,0.012,22.385-0.172,33.577-0.169
	c19.075,0.006,38.15,0.118,57.224,0.13c11.336,0.007,22.673-0.172,34.009-0.121c15.528,0.069,31.055,0.336,46.583,0.402
	c10.175,0.043,20.351-0.216,30.525-0.173c17.26,0.074,34.52,0.309,51.78,0.421c12.562,0.082,25.125,0.075,37.688,0.107
	c18.205,0.046,36.409,0.13,54.614,0.125c18.779-0.005,37.558-0.18,56.337-0.128c17.825,0.049,35.65,0.316,53.475,0.446
	c16.11,0.117,32.223,0.316,48.329,0.092c2.058-0.029,4.311-2.164,5.953-3.836C1266.876,617.624,1265.36,614.877,1264.251,613.633z
	 M1085.025,54.312c9.429,4.615,18.815,9.318,28.283,13.85c2.147,1.028,2.774,2.189,2.538,4.617
	c-6.344,65.293-12.671,130.587-18.833,195.898c-5.905,62.573-11.629,125.163-17.395,187.749c-0.184,1.999-0.462,3.513-2.735,4.287
	c-9.108,3.102-18.157,6.381-27.233,9.576c-0.441,0.155-0.942,0.139-2.02,0.283c11.424-139.17,22.824-278.056,34.261-417.378
	C1083.246,53.671,1084.181,53.899,1085.025,54.312z M1067.638,91.361c0.843-11.66,1.248-23.359,1.527-35.048
	c0.09-3.772,1.247-5.249,5.033-4.672c1.69,0.258,3.453,0.044,5.859,0.044c-11.503,140.149-22.971,279.864-34.466,419.921
	c-2.002-0.166-3.573-0.296-5.662-0.47c0.362-6.787,0.704-13.348,1.064-19.909c0.137-2.494,0.106-5.022,0.538-7.466
	c0.298-1.685,1.302-3.237,1.91-4.878c0.379-1.023,0.786-2.088,0.873-3.16c0.72-8.84,1.443-17.682,1.955-26.536
	c0.076-1.306-0.979-2.665-1.455-4.02c-0.306-0.872-0.776-1.799-0.717-2.67c2.235-33.148,4.469-66.296,6.822-99.436
	c2.035-28.661,4.195-57.313,6.334-85.966c2.352-31.516,4.662-63.035,7.161-94.539C1065.24,112.138,1066.884,101.783,1067.638,91.361
	z M1039.189,434.498c-0.116-2.22,0.22-4.463,0.374-6.697c0.023,0.002,0.046,0.003,0.068,0.005
	c0.441-5.954,0.795-11.917,1.409-17.853c0.102-0.984,1.334-1.851,2.044-2.772c0.432,0.992,1.291,2.013,1.228,2.973
	c-0.535,8.191-1.196,16.375-1.949,24.549c-0.079,0.857-0.997,1.636-1.525,2.451C1040.26,436.271,1039.237,435.41,1039.189,434.498z
	 M1065.792,90.378c-0.505,7.836-1.118,15.667-1.868,23.483c-0.103,1.07-1.143,2.049-1.749,3.071c-0.485-1.086-1.18-2.133-1.395-3.27
	c-0.201-1.065,0.105-2.227,0.188-3.345c0.528-6.711,0.975-13.429,1.652-20.125c0.1-0.986,1.292-1.861,1.978-2.788
	C1065.018,88.397,1065.854,89.417,1065.792,90.378z M786.744,39.105c25.777-2.05,51.562-4.016,77.344-6.007
	c1.338-0.103,2.679-0.178,4.83-0.319c-1.84-2.294-3.118-3.887-5.262-6.561c3.571-0.326,6.056-0.429,8.495-0.822
	c1.414-0.228,3.122-0.542,4.067-1.464c5.826-5.678,12.889-9.796,20.762-8.578c5.678,0.878,7.143-0.733,10.398-4.829
	c9.185-11.558,21.038-10.289,29.943,0.818c1.258,1.568,1.684,3.803,2.604,5.988c8.683-4.268,16.385-1.054,23.306,3.887
	c3.997,2.854,7.286,6.275,12.773,5.274c0.886-0.162,1.963,0.726,3.514,1.358c-1.739,2.071-3.124,3.722-4.896,5.833
	c1.386,0.286,2.378,0.584,3.389,0.685c26.101,2.618,52.207,5.182,78.303,7.839c6.24,0.635,8.688,3.596,8.293,9.898
	c-0.641,10.226-1.233,20.461-2.205,30.657c-1.024,10.742-3.764,21.477-3.485,32.156c0.792,30.374-3.324,60.414-4.893,90.615
	c-1.757,33.813-4.293,67.586-6.451,101.379c-1.903,29.801-3.615,59.615-5.724,89.4c-0.516,7.286-2.443,14.461-3.373,21.731
	c-0.744,5.818-2.065,11.89-1.115,17.509c1.052,6.225,0.611,12.19,0.281,18.278c-0.237,4.366-0.81,8.723-0.863,13.088
	c-0.041,3.383-1.293,4.341-4.679,4.331c-41.119-0.117-82.238-0.075-123.358-0.076c-31.871-0.001-63.741-0.005-95.612-0.007
	c-6.151,0-6.815-0.531-8.704-7.355c1.605-0.127,3.135-0.347,4.667-0.354c32.245-0.139,64.49-0.252,96.736-0.373
	c5.083-0.019,5.062-0.024,5.157-5.236c0.189-10.371,0.318-20.745,0.661-31.111c0.103-3.128-0.966-4.122-4.07-4.088
	c-35.617,0.394-71.236,0.727-106.855,0.929c-3.639,0.021-4.359,1.407-4.275,4.7c0.213,8.327,0.071,16.662,0.071,25.496
	c-3.422-1.993-6.09-3.715-5.776-8.021c0.263-3.601-0.086-7.243-0.089-10.867c-0.002-2.254-0.849-4.747,1.9-6.294
	c0.487-0.274,0.553-1.601,0.529-2.433c-0.3-10.368-0.599-20.738-1.073-31.099c-0.047-1.035-1.344-1.964-1.86-3.038
	c-0.583-1.217-1.295-2.529-1.342-3.823c-1.037-28.349-2.131-56.697-2.93-85.054c-1.821-64.585-3.491-129.174-5.21-193.762
	c-0.064-2.415-0.8-5.226,3.252-5.353c0.52-0.016,1.421-1.915,1.4-2.927c-0.172-8.37-0.454-16.74-0.912-25.099
	c-0.049-0.896-1.404-2.41-2.202-2.443c-2.179-0.09-2.409-1.201-2.436-2.896c-0.12-7.748-0.375-15.494-0.417-23.242
	C779.326,42.274,781.766,39.501,786.744,39.105z M1034.597,473.698c-1.635,4.461-2.89,8.734-4.853,12.652
	c-0.497,0.992-3.26,1.158-4.962,1.101c-0.779-0.026-1.958-1.408-2.181-2.358c-0.847-3.607-1.377-7.288-2.106-11.395H1034.597z
	 M736.664,554.301c-12.634-1.123-24.915-3.901-36.909-7.984c-0.898-0.306-1.721-0.833-2.969-1.45
	c0.847-1.133,1.507-1.975,2.124-2.848c3.311-4.684,7.053-9.135,9.771-14.142c2.025-3.73,4.214-4.324,8.061-3.661
	c9.552,1.648,19.167,1.822,28.589-0.957c3.089-0.911,6.198-2.025,9.004-3.578c10.511-5.816,13.001-15.28,6.992-25.66
	c-0.348-0.602-0.609-1.254-1.417-2.939c3.276,1.849,5.542,3.271,7.93,4.442c3.964,1.944,6.28,0.853,6.97-3.494
	c0.606-3.815,0.846-7.697,1.071-11.56c0.148-2.534,1.161-3.399,3.58-2.51c0.584,0.215,1.201,0.341,1.806,0.496
	c10.203,2.6,15.245,0.14,19.369-9.436c0.29-0.673,0.628-1.326,1.413-2.974c1.159,1.992,1.973,3.185,2.586,4.474
	c11.165,23.444,4.636,49.738-15.848,68.132C773.654,552.243,756.119,556.031,736.664,554.301z M769.224,557.965
	c-5.874-2.957-9.715,1.086-14.067,3.605c-4.566,2.643-9.39,2.542-14.046,0.509c-1.271-0.555-1.914-2.545-2.846-3.877
	c1.26-0.442,2.493-1.148,3.785-1.283c8.055-0.841,16.131-1.49,24.184-2.351C768.396,554.336,769.623,554.615,769.224,557.965z
	 M711.509,558.96c0.323,4.942-0.127,5.38-4.986,4.607c-4.121-0.655-7.589-2.039-9.081-6.578c-0.723-2.199-2.413-4.064-3.488-6.17
	c-0.452-0.885-0.446-2.004-0.648-3.017c1.137-0.097,2.401-0.566,3.389-0.227c4.811,1.651,9.429,4.022,14.341,5.184
	c6.508,1.539,13.228,2.17,19.85,3.237c1.918,0.309,3.811,0.771,5.716,1.163c-0.089,0.537-0.178,1.074-0.267,1.61
	c-8.186-2.391-15.811-1.758-22.813,4.626c-0.744-2.689-1.283-4.638-2.021-7.302C711.503,557.529,711.463,558.247,711.509,558.96z
	 M670.893,556.25c-7.037-7.622-6.792-15.157-3.178-24.397c6.225-15.92,11.271-32.306,16.647-48.551
	c2.036-6.151,3.956-12.379,5.33-18.702c2.594-11.929,0.804-23.862-0.423-35.818c-0.625-6.09-0.109-12.297-0.109-18.451
	c0.492,0.001,0.984,0.003,1.476,0.004c9.304,24.035,11.081,48.757,5.717,74.13c0.428,0.053,0.856,0.105,1.284,0.158
	c1.153-4.333,2.307-8.666,3.45-12.961c8.562,1.679,14.012,8.58,15.091,18.774c0.918,8.679-0.882,16.928-3.95,24.948
	c-4.845,12.668-9.578,19.41-22.375,32.328c1.815,3.067,3.916,6.008,5.401,9.232c6.229,13.528,3.464,19.196-12.012,23.335
	c-2.511,0.672-5.356,0.094-7.841,0.094c-0.27-0.876-0.469-1.167-0.393-1.325C679.152,570.451,676.88,562.735,670.893,556.25z
	 M670.243,572.653c1.064,7.092-0.379,9.11-7.089,11.461c-1.273,0.446-2.587,0.771-4.537,1.345
	c1.363-7.939,1.286-15.235-3.743-21.565c0.31,0.99,0.697,1.963,0.916,2.973c0.632,2.919,1.499,5.83,1.729,8.786
	c0.702,9.014-1.393,11.597-10.327,10.811c-6.359-0.56-12.636-2.525-18.832-4.279c-3.461-0.98-4.571-4.295-4.506-7.512
	c0.075-3.71,0.681-7.434,1.34-11.101c2.275-12.658,4.753-25.28,6.962-37.949c0.476-2.727,1.433-3.668,4.168-3.037
	c8.004,1.848,15.178,0.945,20.938-5.84c1.853-2.183,4.698-3.525,7.873-5.818c1.18,6.196,3.153,11.35,2.41,16.861
	c-0.53,0.106-1.06,0.212-1.589,0.318c-0.617-2.737-1.233-5.473-2.059-9.137c-3.546,4.534-7.019,8.227-13.445,6.532
	c3.623,4.256,3.04,8.161,0.311,12.639c2.072-0.209,3.144-0.248,4.189-0.436c4.076-0.731,7.588,1.48,7.846,5.646
	c0.377,6.084,3.069,10.64,6.923,15.271c2.675,3.214,3.597,7.995,4.865,12.208c0.422,1.402-0.516,3.213-0.968,5.535
	c-2.093-5.507-3.816-10.041-5.539-14.575c-0.298,0.12-0.597,0.24-0.895,0.359C668.233,565.646,669.707,569.079,670.243,572.653z
	 M633.685,517.073c0.305-1.11,1.666-1.94,2.621-2.848c0.135-0.128,0.495-0.084,0.73-0.031c8.271,1.874,14.606-2.013,20.803-6.723
	c3.534-2.686,7.437-4.884,12.035-7.859c0.846,7.643,4.43,14.273-0.925,21.119c-0.432-2.533-0.792-5.08-1.311-7.594
	c-0.852-4.12-2.186-4.782-5.583-2.419c-3.575,2.487-7.021,5.188-10.323,8.028c-2.445,2.103-4.881,3.171-8.16,2.293
	c-2.517-0.674-5.215-0.688-7.713-1.409C634.906,519.355,633.509,517.715,633.685,517.073z M662.714,537.565
	c-2.829-0.737-5.742-1.495-8.394-2.186v-7.901c2.388-1.105,5.367-2.483,8.58-3.97C665.188,528.08,667.332,532.989,662.714,537.565z
	 M799.256,455.458c-0.224-8.863-0.145-17.733-0.359-26.597c-0.077-3.194,1.933-2.871,3.952-2.888
	c18.857-0.15,37.714-0.319,56.571-0.461c15.236-0.115,30.472-0.2,45.708-0.297c1.213-0.008,2.426-0.001,4.103-0.001
	c0,1.645,0.021,2.856-0.003,4.066c-0.191,9.364-0.481,18.727-0.532,28.091c-0.015,2.666-0.963,3.355-3.502,3.359
	c-33.345,0.051-66.689,0.202-100.034,0.298C801.115,461.04,799.359,459.501,799.256,455.458z M791,411.343
	c0,4.37,0.104,8.745-0.075,13.107c-0.044,1.067-1.015,2.096-1.56,3.143c-0.514-0.952-1.435-1.886-1.479-2.859
	c-0.402-8.983-0.715-17.971-0.87-26.961c-0.02-1.165,1.002-2.348,1.542-3.522c0.542,1.204,1.5,2.39,1.552,3.615
	c0.188,4.485,0.075,8.983,0.075,13.477C790.456,411.343,790.728,411.343,791,411.343z M783.322,89.047
	c0,3.484,0.081,6.972-0.054,10.451c-0.036,0.934-0.728,1.843-1.119,2.763c-0.501-0.823-1.405-1.628-1.44-2.47
	c-0.302-7.339-0.486-14.683-0.582-22.028c-0.01-0.735,0.795-1.481,1.222-2.222c0.427,0.768,1.197,1.525,1.224,2.307
	c0.13,3.729,0.058,7.464,0.058,11.197C782.861,89.047,783.092,89.047,783.322,89.047z M773.81,43.499
	c2.789,0.096,3.583,1.011,3.637,3.739c0.727,36.237,1.457,72.474,2.393,108.705c1.259,48.728,2.634,97.453,4.081,146.175
	c0.861,28.982,2.173,57.953,2.703,86.939c0.077,4.229-1.865,8.628-1.591,13.211c0.453,7.607-0.319,15.388,1.013,22.81
	c1.081,6.024,2.5,11.922,2.369,18.078c-0.028,1.315-0.128,2.628-0.198,4.012c-6.577-1.526-6.975-1.971-7.151-7.799
	c-3.051-101.191-6.127-202.38-9.131-303.572c-0.872-29.358-1.489-58.724-2.359-88.082C769.477,44.343,770.533,43.386,773.81,43.499z
	 M747.904,249.528c-1.645-60.696-3.386-121.389-5.32-182.076c-0.168-5.285,1.106-8.476,5.874-11.013
	c6.335-3.371,12.236-7.557,18.831-11.713c3.869,133.37,7.712,265.824,11.546,397.993c-8.548-0.554-17.009-1.102-25.824-1.673
	c-0.044-0.484-0.205-1.578-0.233-2.676C751.153,375.422,749.61,312.473,747.904,249.528z M758.205,443.506
	c14.619-1.197,27.765,2.554,37.832,13.982c1.676,1.902,4.225,4.622,3.841,6.425c-0.82,3.848-2.82,7.72-5.281,10.836
	c-1.439,1.822-4.7,2.204-6.694,3.046c-3.618-0.841-6.447-1.328-9.164-2.175c-2.961-0.922-4.271,0.17-4.543,3.035
	c-0.401,4.222-0.774,8.447-1.196,12.667c-0.312,3.115-2.153,4.07-4.622,2.411c-6.192-4.161-12.54-8.201-18.177-13.044
	c-4.731-4.064-7.05-9.935-7.896-16.179C740.838,453.667,747.514,444.382,758.205,443.506z M727.065,459.775
	c3.656,0,7.316-0.071,10.967,0.071c0.591,0.023,1.169,0.969,1.698,1.54c0.131,0.142,0.064,0.482,0.06,0.731
	c-0.129,9.322,4.926,16.208,10.688,22.764c2.799,3.185,5.76,6.247,8.35,9.594c4.264,5.511,4.669,12.56,1.245,17.07
	c-0.346,0.456-0.897,0.756-2.046,1.696c-7.823-19.431-17.53-37.302-31.583-52.548C726.65,460.388,726.857,460.082,727.065,459.775z
	 M689.423,397.682c0.827,1.104,1.887,2.103,2.442,3.331c3.179,7.044,6.756,13.967,9.233,21.259
	c5.474,16.114,15.332,29.3,26.318,41.89c12.285,14.078,21.239,30.177,28.339,47.387c1.109,2.687,0.906,4.542-1.791,5.859
	c-0.223,0.109-0.424,0.264-0.638,0.392c-6.627,3.928-6.922,3.631-10.303-3.138c-5.797-11.606-11.936-23.04-17.964-34.53
	c-0.656-1.251-1.526-2.39-2.296-3.581c-0.171,0.115-0.342,0.229-0.514,0.344c3.454,6.159,7.131,12.205,10.305,18.505
	c3.76,7.463,7.016,15.178,10.642,22.711c1.294,2.689,0.301,3.642-2.231,3.99c-0.989,0.136-1.961,0.385-2.947,0.55
	c-8.282,1.384-8.818,1.088-11.914-6.815c-0.089,0.575-0.224,0.856-0.152,1.067c1.89,5.543,2.42,6.673-5.008,5.776
	c-2.666-0.322-5.301-0.91-8.437-1.463c0.856-2.419,1.506-4.263,2.161-6.105c2.833-7.969,4.758-16.128,3.578-24.615
	c-1.234-8.878-4.283-16.785-13.638-20.293c-3.132-1.174-3.333-3.652-3.197-6.426c0.696-14.221-0.689-28.236-4.893-41.852
	c-1.648-5.338-4.255-10.373-6.199-15.629c-0.961-2.597-1.41-5.384-2.091-8.085C688.626,398.034,689.024,397.858,689.423,397.682z
	 M697.508,337.12c-1.774-1.891-3.548-3.783-5.322-5.674c0.359-0.57,0.718-1.14,1.077-1.71c1.496,0.638,3.41,0.913,4.371,2.018
	c0.959,1.101,0.964,3.034,1.388,4.602C698.517,336.61,698.013,336.865,697.508,337.12z M712.255,352.825
	c-2.94-3.795-5.366-6.927-7.793-10.061c1.128-0.198,2.294-0.673,3.373-0.521c1.219,0.171,2.359,0.905,4.168,1.659
	c-1.308-2.508-2.404-4.159-2.968-5.974c-0.159-0.514,1.234-1.51,2.368-2.8C714.301,341.155,713.44,346.513,712.255,352.825z
	 M716.06,340.031c-1.396-2.953-2.791-5.905-4.537-9.599C716.602,331.478,717.139,332.6,716.06,340.031z M714.161,321.782
	c0.601,3.007,1.003,5.021,1.506,7.544C711.803,327.27,711.426,325.766,714.161,321.782z M712.368,319.434
	c-0.393,1.154-0.832,2.295-1.165,3.467c-0.36,1.267-0.621,2.563-0.924,3.846c-0.354,0.126-0.708,0.252-1.062,0.378
	c-0.979-2.132-1.959-4.264-3.042-6.622c0.619-0.248,1.367-0.711,2.165-0.829C709.665,319.477,711.023,319.502,712.368,319.434z
	 M708.867,330.056c0.104,0.235-1.16,1.559-1.68,1.494c-1.213-0.153-2.859-0.53-3.406-1.398c-0.692-1.098-0.54-2.728-0.717-4.151
	c1.162-0.023,2.64-0.433,3.328,0.126C707.541,327.063,708.236,328.637,708.867,330.056z M708.938,316.499
	c-3.68,2.544-4.983,2.031-6.573-2.451C705.012,315.035,706.975,315.767,708.938,316.499z M692.716,313.191
	c5.293-1.332,8.269,0.545,9.61,6.369c-3.517-1.164-6.796-2.197-10.027-3.366c-0.579-0.21-0.955-0.982-1.425-1.495
	C691.485,314.181,692.02,313.366,692.716,313.191z M699.367,321.214c-0.022,0.506-0.044,1.013-0.066,1.519
	c-1.357,0.307-3.015,1.239-3.996,0.767c-1.27-0.612-1.999-2.345-2.961-3.595c0.311-0.401,0.623-0.803,0.934-1.204
	C695.308,319.539,697.338,320.376,699.367,321.214z M691.73,319.426c1.691,6.632,2.926,7.314,8.616,4.253
	c2.972-1.599,2.769,0.393,2.599,2.326c0.027,0,0.057-0.003,0.085-0.003c-0.247,1.766-1.16,3.971-0.423,5.077
	c0.832,1.25,3.206,1.633,4.99,2.027c0.986,0.218,2.139-0.316,3.637-0.588c-2.365,5.349-4.634,6.939-8.132,5.631
	c-1.152-0.431-2.413-1.962-2.657-3.183c-0.943-4.722-2.799-6.253-7.627-6.23c-1.124,0.005-2.772-0.979-3.273-1.968
	c-1.055-2.08-1.714-4.43-2.102-6.742c-0.142-0.843,0.948-1.893,1.476-2.849C689.89,317.917,691.493,318.497,691.73,319.426z
	 M687.385,307.501c2.469,2.239,1.973,6.117-1.363,8.271c-0.949-2.157-2.06-4.183-2.678-6.349c-0.225-0.788,0.485-2.361,1.209-2.746
	C685.193,306.336,686.694,306.875,687.385,307.501z M680.82,275.093c2.144-1.13,4.023,0.212,4.05,2.346
	c0.084,6.688-0.005,13.4-0.537,20.063c-0.22,2.75-2.964,2.103-4.437,1.148c-1.441-0.935-2.75-2.57-3.36-4.184
	c-1.352-3.575-3.361-5.092-7.127-3.6c-0.527,0.209-1.172,0.12-2.267,0.211C668.296,282.349,674.369,278.495,680.82,275.093z
	 M645.612,259.371c2.773,0.695,7.936,1.623,12.845,3.299c8.225,2.809,11.802,16.248,6.473,23.34
	c-0.15,0.199-0.316,0.386-0.473,0.579c-5.614,6.915-5.615,6.918-13.023,2.274c-6.675-4.185-13.914-6.857-21.803-6.978
	c-4.381-0.067-5.997-2.626-6.839-6.033c-0.937-3.791-1.457-7.766,2.201-10.642C630.312,261.027,636.526,259.515,645.612,259.371z
	 M655.505,294.364c-2.6,0.381-4.911,0.72-7.223,1.059C651.891,290.125,652.435,290.084,655.505,294.364z M644.366,291.599
	c-1.274-0.911-1.78-2.896-2.629-4.402c0.513-0.396,1.026-0.792,1.539-1.188c2.23,1.234,4.46,2.467,6.869,3.8
	C648.301,292.549,646.152,292.876,644.366,291.599z M616.052,288.102c-3.196-0.165-6.717,0.051-8.115,3.331
	c-1.097,2.575-2.66,2.856-4.87,2.929c-2.562,0.084-5.119,0.322-7.678,0.494c-0.097-0.426-0.194-0.852-0.291-1.277
	c2.105-0.592,4.178-1.389,6.323-1.729c3.361-0.533,5.93-1.522,6.375-5.543c0.103-0.933,1.839-2.183,2.993-2.405
	c2.801-0.539,5.705-0.525,8.561-0.8c2.473-0.238,4.196,0.12,4.984,3.088c0.344,1.296,2.408,2.232,3.826,3.113
	c0.983,0.611,2.198,0.848,3.31,1.252c0.028,0.559,0.057,1.119,0.085,1.678c-2.984,0.819-5.943,1.773-8.974,2.352
	c-0.651,0.125-2.156-1.025-2.247-1.72C619.985,290.165,618.95,288.252,616.052,288.102z M618.772,292.219
	c-0.872,0.694-1.67,1.536-2.644,2.027c-0.592,0.298-1.458,0.055-2.2,0.055c-0.08,0.168-0.16,0.337-0.239,0.505
	c-1.527-0.708-3.054-1.417-4.58-2.125c1.622-1.051,3.183-2.222,4.897-3.093c0.677-0.344,1.894-0.33,2.507,0.07
	C617.431,290.258,618.034,291.341,618.772,292.219z M609.888,282.52c1.109-3.416,1.819-6.274,2.975-8.939
	c0.818-1.885,5.923-1.555,6.696,0.392c0.901,2.274,1.481,4.675,2.432,7.775C617.931,282.008,614.207,282.245,609.888,282.52z
	 M627.599,284.109c0.166-0.331,0.333-0.662,0.499-0.993c1.522,0.134,3.127,0.025,4.534,0.499c0.766,0.258,1.198,1.506,1.781,2.307
	c-1.019,0.452-2.311,1.528-3.001,1.227C629.972,286.522,628.851,285.166,627.599,284.109z M635.846,295.774
	c-1.873-0.217-3.746-0.435-6.421-0.746C632.365,292.619,634.299,292.523,635.846,295.774z M634.081,289.505
	c0.709-1.085,1.004-1.782,1.509-2.258c1.021-0.963,2.156-1.806,3.243-2.699c0.635,1.278,1.398,2.511,1.867,3.847
	c0.426,1.216,0.532,2.543,0.966,4.791C638.723,291.757,636.53,290.693,634.081,289.505z M625.059,261.177
	c-2.722,6.642-12.401,9.356-18.361,0H625.059z M572.357,264.057c9.802-5.385,22.578-6.958,33.209-0.161
	c3.008,1.923,4.711,4.409,4.347,7.647c0.032,7.458-3.412,11.114-10.122,13.033c-7.401,2.116-14.595,5.001-21.769,7.83
	c-1.707,0.673-2.638,0.935-3.69-0.713c-2.017-3.158-4.273-6.17-6.187-9.387C565.19,277.338,567.416,266.772,572.357,264.057z
	 M584.718,294.296c-0.271-0.282-1.583-1.115-1.466-1.608c0.848-3.562,4.222-2.834,6.71-3.489c0.547-0.144,1.906,0.751,2.002,1.318
	C592.289,292.442,588.944,294.315,584.718,294.296z M547.961,287.707h6.935C552.277,290.576,549.292,290.573,547.961,287.707z
	 M550.33,301.083c-2.107-0.29-4.26-0.785-3.187-5.148c3.631,5.707,7.008,2.934,10.476,0.51
	C557.14,299.86,554.154,301.608,550.33,301.083z M542.809,339.134c1.534-9.531,3.86-18.85,8.453-27.454
	c0.059-0.11,0.148-0.221,0.158-0.337c0.44-5.015,1.49-9.516,7.268-11.253c0.665-0.2,0.576-2.907,0.837-4.452
	c-1.543,0.072-3.109,0.005-4.619,0.268c-0.871,0.151-1.65,0.833-2.708,1.405c-1.037-3.089-1.6-5.48,2.117-6.504
	c0.809-0.223,1.868-0.688,2.175-1.341c0.615-1.307,0.789-2.821,1.145-4.249c-1.318-0.042-2.638-0.136-3.954-0.096
	c-0.439,0.014-0.868,0.373-1.851,0.829c-0.407-3.945-0.442-7.535,1.984-10.421c0.813-0.967,3.607-1.628,4.379-1.018
	c2.378,1.88,5.372,4.149,6.043,6.795c1.793,7.068,4.17,13.333,11.803,16.631c-3.904,4.829-8.169,8.959-8.603,14.959
	c0.365,0.2,0.73,0.4,1.094,0.6c0.692-1.342,1.362-2.696,2.081-4.023c3.31-6.104,7.29-11.21,14.867-12.45
	c8.267-1.353,17.54,4.29,19.671,12.471c0.181,0.694,0.386,1.382,0.581,2.073c0.391-0.124,0.782-0.248,1.173-0.372
	c0.833-6.314-3.826-9.896-8.887-14.499c13.571-1.203,25.818-0.057,38.492,1.222c-8.543,9.009-8.543,9.009-9.143,13.546
	c3.897-9.074,10.505-12.565,18.819-12.865c9.273-0.334,13.115,6.735,16.949,13.953c1.104-3.468,1.104-3.468-7.273-14.216
	c5.076-1.515,8.805-6.162,14.54-5.718c1.317,0.102,3.347,0.753,3.715,1.68c1.66,4.187,3.817,7.372,9.271,6.675
	c-0.185,1.428,0.01,2.603-0.482,3.273c-2.578,3.513-1.018,6.646,0.261,10.123c5,13.589,7.68,27.645,7.808,42.167
	c0.117,13.263-3.244,25.205-12.852,34.87c-0.515,0.518-0.906,1.16-1.536,1.98c0.878,0.246,1.511,0.423,2.504,0.701
	c-2.687,6.805-7.059,12.281-12.471,16.971c-9.162,7.939-20.261,11.538-31.817,14.235c-21.51,5.021-41.98,1.833-61.508-7.858
	c-9.971-4.948-16.991-12.992-21.277-23.312c-0.587-1.414-0.879-2.951-1.563-5.313c2.11,1.186,3.352,1.885,5.226,2.938
	c-0.44-1.091-0.518-1.689-0.851-2.051C541.38,375.083,539.834,357.624,542.809,339.134z M617.175,467.453
	c0.506,0.603,0.604,1.549,0.965,2.547h-10.592c1.245-2.382,2.202-4.214,3.233-6.186c-2.936-3.875-4.258-8.232-3.46-12.797h12.245
	c-0.728,3.118-0.942,6.646-2.409,9.538C615.829,463.172,615.188,465.088,617.175,467.453z M618.155,447.434
	c-0.384,2.451-4.101,3.035-9.906,1.557c-0.056-4.541,2.33-8.158,5.231-7.928C615.63,441.233,618.511,445.158,618.155,447.434z
	 M614.003,438.665c-1.039-0.32-1.834-1.432-2.73-2.217c0.702-0.681,1.423-1.93,2.103-1.908c0.968,0.031,1.907,0.994,3.479,1.928
	C615.499,437.561,614.532,438.827,614.003,438.665z M615.307,432.982c-0.739-0.084-1.491-0.437-2.2-0.353
	c-17.118,2.034-31.385-5.002-44.834-14.305c-3.874-2.679-7.39-5.964-10.705-9.33c-2.127-2.16-3.586-4.978-5.344-7.5
	c17.723,23.739,42.662,28.518,69.804,26.92c8.629-0.508,17.369-2.289,25.652-4.818c14.262-4.354,21.489-10.596,31.718-24.183
	c-0.518,1.35-0.896,2.776-1.577,4.038c-3.876,7.178-10.263,11.825-16.766,16.297c-11.905,8.187-25.14,12.707-39.512,13.837
	C619.492,433.746,617.385,433.219,615.307,432.982z M543.806,423.057c3.495,13.198,10.836,23.978,20.17,33.58
	c-1.542-2.314-3.056-4.647-4.631-6.939c-6.726-9.785-12.527-20.095-13.417-32.149c-0.48-6.497,0.631-13.12,1.154-19.676
	c0.088-1.1,0.836-2.148,1.197-3.019c9.866,26.113,31.299,35.544,56.114,40.127c5.814,1.074,6.817,2.675,3.85,7.715
	c-1.83,3.109-3.485,6.33-5.061,9.578c-0.945,1.949-1,3.837,1.262,5.184c0.675,0.402,1.051,1.305,1.567,1.976
	c2.382,3.104,3.041,6.086,0.575,9.707c-1.632,2.396-0.47,3.497,2.519,3.265c2.435-0.189,4.897,0.009,7.347-0.019
	c1.077-0.012,2.152-0.159,3.228-0.245c-0.12-1.172-0.045-2.408-0.41-3.498c-0.466-1.394-1.287-2.67-0.911-3.837
	c0.595-1.709,1.069-3.472,1.814-5.113c1.01-2.224-0.097-5.443,3.152-6.727c0.246-0.097,0.083-2.193-0.419-3.048
	c-1.849-3.146-4.149-6.042-5.828-9.267c-1.07-2.056,1.225-4.608,3.841-5.111c7.461-1.436,15.061-2.45,22.307-4.625
	c10.545-3.164,19.633-9.211,27.875-16.474c6.562-5.782,10.474-12.945,11.217-21.757c0.106-1.261,0.588-2.491,0.982-4.088
	c3.83,4.575,4.762,21.982,2.256,34.694c-2.316,11.748-7.864,21.894-15.533,31.012c8.68-6.304,13.364-15.219,16.601-25.441
	c5.993,12.665-2.932,66.796-13.383,80.628c-0.399-2.946-0.706-5.157-0.997-7.37c-0.623-4.724-1.749-5.33-5.655-2.803
	c-5.875,3.801-11.677,7.716-17.527,11.556c-4.281,2.81-8.954,1.154-13.47,0.987c-0.379-0.014-1.065-1.591-0.991-2.385
	c0.524-5.589,0.98-11.204,1.97-16.718c0.343-1.915,1.962-3.714,3.298-5.316c4.065-4.876,8.276-9.63,12.478-14.488
	c-0.534-0.31-0.842-0.531-0.87-0.5c-5.256,5.833-10.551,11.634-15.666,17.588c-0.801,0.932-0.9,2.548-1.124,3.881
	c-4.25,25.244-8.447,50.497-12.793,75.724c-0.148,0.858-1.742,2.107-2.641,2.09c-6.075-0.115-12.145-0.523-18.849-0.869
	c-1.217-8.25-2.763-16.965-3.743-25.744c-1.925-17.254-3.523-34.544-5.304-51.814c-0.112-1.084-0.359-2.338-1-3.155
	c-4.768-6.069-9.652-12.046-14.499-18.053c-0.267,0.165-0.534,0.33-0.802,0.495c0.4,0.745,0.717,1.551,1.217,2.222
	c1.269,1.702,2.598,3.361,3.941,5.007c10.367,12.702,10.319,12.701,10.498,29.023c0.027,2.479-0.837,3.23-3.176,3.413
	c-5.861,0.459-11.224,0.058-16.119-4.059c-4.178-3.515-9.077-6.185-13.714-9.138c-3.383-2.154-4.456-1.604-5.154,2.425
	c-0.337,1.947-0.656,3.897-1.526,5.923c-5.203-13.5-8.101-27.546-10.337-41.726C538.431,451.37,538.857,437.161,543.806,423.057z
	 M563.615,584.769c-4.198-0.322-8.319-1.19-10.193-4.271c-3.904-6.42,0.08-12.36,2.804-18.189c-0.37-0.159-0.74-0.317-1.109-0.476
	c-1.954,4.361-3.909,8.722-6.329,14.123c-0.291-2.514-1.054-4.397-0.573-5.876c1.216-3.741,2.186-8.05,4.717-10.77
	c4.708-5.058,8.369-10.206,8.135-17.582c1.185,0,2.504,0.311,2.722-0.047c2.702-4.438,6.768-4.217,12.208-2.602
	c-2.626-4.811-3.893-8.75,0.037-12.733c-5.944,0.459-10.242-1.502-12.768-6.965c-0.31,0.252-0.621,0.503-0.931,0.755
	c-0.369,2.144-0.53,4.355-1.19,6.406c-0.362,1.124-1.566,1.977-2.39,2.953c-0.712-1.065-2.136-2.221-2.015-3.181
	c0.613-4.862,1.627-9.673,2.683-15.511c3.547,2.618,6.657,4.189,8.778,6.622c5.27,6.046,11.726,7.076,18.945,5.316
	c3.786-0.923,4.946,0.256,5.408,4.039c1.663,13.636,3.749,27.221,5.54,40.842c0.338,2.57,0.363,5.265-0.007,7.824
	c-0.535,3.701-2.587,6.343-6.409,7.514c-6.968,2.135-13.951,3.789-21.35,3.322c-3.227-0.204-5.218-1.592-5.114-4.639
	c0.196-5.738,0.903-11.458,1.349-16.621C563.129,570.456,561.891,577.087,563.615,584.769z M546.062,575.898
	c-3.693,0-7.109,0.549-10.263-0.126c-5.022-1.073-8.07-6.359-6.105-11.027c1.743-4.141,4.275-8.201,7.362-11.435
	c2.026-2.122,2.282-3.26,0.974-5.575c-6.444-11.406-10.903-23.547-12.894-36.523c-1.319-8.595-1.996-17.333,1.878-25.384
	c1.813-3.766,4.944-7.133,8.132-9.937c3.273-2.88,4.517-1.985,5.718,2.206c5.152,17.983,10.418,35.933,15.679,53.884
	c0.767,2.618,2.267,5.133,2.491,7.775c0.414,4.896-0.279,9.579-4.097,13.468C548.917,559.355,544.447,566.308,546.062,575.898z
	 M554.967,499.739c3.166,2.026,5.749,3.669,8.322,5.33c1.468,0.948,3.008,1.812,4.36,2.906c5.808,4.7,12.056,7.87,19.85,6.229
	c0.59-0.124,1.467-0.208,1.818,0.115c0.807,0.744,1.765,1.693,1.909,2.67c0.111,0.758-0.79,2.298-1.458,2.435
	c-4.025,0.828-8.098,1.553-12.189,1.855c-1.233,0.091-2.682-1.13-3.845-2c-3.793-2.837-7.394-5.939-11.272-8.649
	c-3.185-2.225-4.594-1.522-5.388,2.32c-0.521,2.521-0.849,5.081-1.264,7.624C550.918,513.885,553.54,507.252,554.967,499.739z
	 M573.095,535.573c-3.449,0.905-6.339,1.663-9.41,2.469c-1.142-1.665-2.622-3.824-4.17-6.08c1.332-2.461,2.85-5.263,4.314-7.968
	c2.918,1.342,5.984,2.753,9.276,4.267C571.453,530.413,570.456,533.039,573.095,535.573z M265.114,236.329
	c49.104-0.396,98.207-0.845,147.31-1.244c9.871-0.08,19.743-0.054,29.613,0.017c3.909,0.028,7.711,0.638,11.163,3.042
	c-67.145,0.75-133.901,1.496-201.018,2.246C256.217,237.634,260.418,236.367,265.114,236.329z M241.403,269.402
	c-0.128-6.731-0.604-13.461-0.524-20.187c0.05-4.263,1.323-5.194,5.937-5.367c13.236-0.495,26.472-1.182,39.713-1.307
	c55.479-0.522,110.959-0.906,166.439-1.249c14.127-0.087,12.326,0.612,12.56,12.625c0.097,4.982-0.556,9.973-0.675,14.965
	c-0.073,3.031-1.334,3.999-4.36,4.014c-27.492,0.132-54.984,0.421-82.475,0.626c-8.372,0.063-16.745,0.01-25.117,0.01
	c0,0.098,0,0.196,0,0.295c-35.491,0-70.982-0.054-106.472,0.083C242.892,273.923,241.469,272.836,241.403,269.402z M459.501,280.357
	c-0.907,19.588-1.96,39.169-2.848,58.758c-0.165,3.65-2.034,4.603-5.303,4.649c-27.98,0.395-55.957,1.004-83.938,1.286
	c-37.226,0.376-74.454,0.52-111.681,0.749c-5.625,0.035-5.928-0.156-6.232-5.832c-1.069-19.954-1.971-39.918-3.109-59.868
	c-0.198-3.462,1.315-3.804,4.144-3.798c34.105,0.07,68.21,0.045,102.316,0.045l0.001-1.017c33.854,0,67.708,0.006,101.561-0.006
	C459.589,275.32,459.736,275.29,459.501,280.357z M233.767,335.534c3.49,0.165,7.012-0.218,10.487,0.055
	c0.965,0.076,2.618,1.624,2.597,2.464c-0.26,10.552,3.128,10.239,11.676,10.146c63.862-0.693,127.724-1.324,191.587-1.997
	c7.548-0.08,8.643-0.98,8.936-8.674c0.147-3.863,1.392-5.305,5.302-4.914c3.593,0.359,7.252,0,10.864,0.234
	c5.1,0.33,9.752,1.796,13.344,5.806c2.797,3.123,5.802,6.06,8.714,9.08c-0.122,0.373-0.244,0.746-0.366,1.119
	c-95.344,1.828-190.705,2.082-286.28,2.162C217.513,344.455,222.209,334.986,233.767,335.534z M204.344,367.19
	c-0.057-2.623-0.136-5.247-0.127-7.871c0.012-3.477,1.733-5.261,5.272-5.308c8.871-0.117,17.743-0.147,26.614-0.222
	c86.589-0.734,173.178-1.47,259.767-2.205c6.213-0.053,8.097,1.922,7.612,8.006c-0.219,2.74-0.592,5.472-0.687,8.215
	c-0.072,2.081-0.903,2.792-2.983,2.78c-11.988-0.07-23.977-0.028-35.966-0.027c-36.736,0.001-73.472,0-110.208,0
	c0,0.527,0,1.053,0,1.58c-48.107,0-96.213,0-144.32,0C204.457,372.138,204.452,372.137,204.344,367.19z M210.98,380.146
	c-0.07-1.344-0.009-2.695-0.009-4.373c1.806-0.088,3.275-0.211,4.746-0.224c92.097-0.825,184.193-1.642,276.29-2.452
	c4.971-0.044,5.106-0.003,4.863,4.799c-1.721,34.062-3.487,68.122-5.282,102.18c-0.215,4.084-1.811,5.408-6.396,5.464
	c-67.595,0.83-135.19,1.766-202.787,2.378c-20.112,0.182-40.232-0.549-60.349-0.878c-4.376-0.072-5.537-1.138-5.766-5.469
	C214.502,447.764,212.738,413.955,210.98,380.146z M1258.977,619.276c-29.204-0.038-58.407-0.208-87.611-0.272
	c-27.764-0.061-55.527,0.013-83.291-0.061c-19.686-0.053-39.371-0.275-59.057-0.383c-14.853-0.082-29.707-0.167-44.561-0.134
	c-19.233,0.043-38.465,0.299-57.698,0.288c-26.359-0.014-52.719-0.181-79.078-0.304c-14.913-0.069-29.827-0.246-44.74-0.256
	c-17.314-0.012-34.629,0.169-51.943,0.152c-21.163-0.02-42.326-0.262-63.488-0.217c-20.398,0.044-40.794,0.399-61.192,0.484
	c-10.321,0.043-20.644-0.315-30.965-0.305c-20.667,0.021-41.334,0.261-62,0.239c-15.578-0.017-31.155-0.412-46.732-0.436
	c-13.178-0.02-26.356,0.322-39.535,0.376c-13.436,0.055-26.872-0.062-40.308-0.074c-13.814-0.012-27.628,0.041-41.442,0.012
	c-14.18-0.03-28.359-0.17-42.539-0.181c-21.12-0.016-42.24,0.039-63.361,0.065c-17.665,0.022-35.33,0-52.994,0.078
	c-23.61,0.104-47.22,0.341-70.83,0.419c-20.844,0.069-41.689-0.047-62.534,0.002c-17.785,0.042-35.571,0.208-53.356,0.306
	c-4.876,0.027-9.752,0.004-14.628,0.004l-0.275-1.286c4.111-4.453,8.216-8.913,12.334-13.359
	c13.723-14.815,27.428-29.648,41.188-44.429c7.103-7.63,14.369-15.109,21.456-22.755c12.1-13.056,24.092-26.212,36.178-39.28
	c7.106-7.684,14.318-15.271,21.462-22.92c3.905-4.181,7.954-8.248,11.592-12.652c2.982-3.609,6.738-4.226,10.977-4.192
	c14.801,0.116,29.602,0.213,44.403,0.218c8.012,0.003,7.912-0.083,8.305,8.077c0.281,5.834,0.82,11.658,1.354,17.476
	c0.32,3.486,3.058,5.356,7.663,5.435c23.119,0.394,46.243,1.294,69.357,1.074c65.235-0.619,130.465-1.692,195.697-2.615
	c4.198-0.059,6.79-2.7,7.149-7.02c0.583-7.02,1.132-14.044,1.744-21.68c7.319,0,14.515-0.008,21.711,0.003
	c5.243,0.008,10.494,0.224,15.726,0c3.462-0.148,5.213,0.945,5.002,4.554c-0.158,2.694-0.229,5.394-0.45,8.082
	c-0.024,0.292-0.768,0.56-1.209,0.776c-8.688,4.271-12.771,11.715-13.867,20.902c-1.945,16.291,2.438,31.462,8.756,46.229
	c0.098,0.23,0.188,0.47,0.328,0.674c4.115,6.041,6.323,11.864-1.07,17.317c-1.258,0.928-1.786,2.971-2.426,4.588
	c-3.405,8.603,0.976,15.825,10.152,15.879c5.374,0.032,9.482,0.89,13.969,4.647c7.173,6.007,16.541,6.795,25.684,5.657
	c6.656-0.829,13.478-1.805,18.743-6.69c1.153-1.07,2.26-2.413,2.825-3.851c1.309-3.336,3.541-5.028,7.107-4.97
	c3.744,0.061,7.49,0.063,11.23,0.226c2.22,0.097,3.659,1.205,4.071,3.593c0.844,4.89,4.209,7.349,8.637,8.902
	c13.875,4.866,27.369,5.251,40.393-2.751c1.202-0.739,3.166-0.695,4.665-0.415c6.405,1.194,12.097-0.558,17.596-3.645
	c4.924-2.764,7.688-6.649,7.09-12.504c-0.073-0.711-0.01-1.436-0.01-2.525c1.275,0.272,2.224,0.406,3.13,0.679
	c5.49,1.653,10.416,1.247,15.058-2.733c4.201-3.602,12.756-3.784,17.32-0.628c7.924,5.48,15.71,5.877,23.543,0.004
	c2.81-2.107,5.751-2.703,9.163-1.61c2.457,0.787,3.809-0.223,2.774-2.865c-1.169-2.983,0.276-4.081,2.728-5.387
	c18.181-9.687,31.78-23.473,36.763-44.015c1.5-6.183,1-12.857,1.344-19.31c0.066-1.234-0.298-2.486-0.299-3.73
	c-0.008-9.653,1.048-10.722,10.458-10.722c63.746,0.003,127.491,0.006,191.237,0.01c1.593,0,3.185,0,4.844,0
	c0.565,4.384,1.033,8.33,1.594,12.264c0.361,2.534,1.309,4.88,4.389,4.517c3.079-0.363,7.255,1.738,8.386-3.726
	c0.881-4.261,2.46-8.377,3.75-12.625c6.835-0.713,13.692-1.428,19.695-2.054c1.292-1.31,1.958-2.532,2.941-2.893
	c7.466-2.748,14.935-5.525,22.541-7.836c2.227-0.676,4.906,0.28,7.371,0.218c8.209-0.206,16.421-0.413,24.618-0.871
	c3.848-0.215,6.51,1.217,8.994,4.056c5.974,6.827,12.165,13.465,18.336,20.117c7.624,8.217,15.324,16.362,22.976,24.552
	c7.234,7.744,14.439,15.516,21.672,23.262c11.719,12.55,23.468,25.072,35.17,37.638c14.162,15.208,28.288,30.45,42.423,45.683
	c0.33,0.356,0.582,0.784,1.548,2.104C1262.397,618.516,1260.686,619.279,1258.977,619.276z M289.505,473.913h135.859
	c-0.006-0.709-0.012-1.418-0.018-2.127c-44.817,0.454-89.633,0.908-134.652,1.364c0-16.798-0.032-32.911,0.019-49.023
	c0.016-4.938,0.12-4.892,4.922-4.968c40.86-0.642,81.72-1.299,122.58-1.964c1.369-0.022,2.736-0.183,4.104-0.279
	c-1.393-0.982-2.723-1.145-4.052-1.147c-14.496-0.025-28.996-0.242-43.488,0.017c-27.361,0.487-54.717,1.283-82.077,1.858
	c-2.992,0.063-4.276,1.145-4.221,4.157c0.312,17.102,0.555,34.205,0.845,51.307C289.335,473.705,289.598,474.297,289.505,473.913z
	 M300.087,401.317c4.384-0.597,7.442-1.36,10.504-1.377c27.466-0.158,54.934-0.206,82.401-0.214c2.459-0.001,4.959,0.31,7.37,0.811
	c4.197,0.872,7.929-0.638,9.804-4.269c1.792-3.472,0.929-7.697-2.08-10.172c-3.152-2.594-7.057-2.459-10.711,0.063
	c-1.216,0.839-2.849,1.514-4.294,1.518c-26.458,0.078-52.916,0.019-79.374,0.07c-2.75,0.005-5.179,0.168-7.621-1.867
	c-2.875-2.395-6.395-2.073-9.293,0.395c-2.549,2.172-4.46,4.823-3.223,8.494C294.824,398.487,298.2,401.258,300.087,401.317z
	 M408.356,389.941c1.568,3.398-0.151,6.821-4.525,8.452c-1.248-3.519,2.467-9.222-5.481-10.108
	C403.409,385.614,406.78,386.525,408.356,389.941z M395.38,389.774c4.123-0.208,6.183,1.152,6.454,3.748
	c0.392,3.755-1.558,4.519-4.422,4.02c-2.611,0.403-4.751,0.27-4.258-2.95C393.422,392.839,391.72,389.959,395.38,389.774z
	 M316.315,389.328c23.489,0.052,46.979,0.01,70.468-0.138c3.377-0.021,4.192,1.261,4.177,4.44c-0.016,3.346-1.244,4.277-4.44,4.237
	c-11.743-0.145-23.49-0.057-35.235-0.057v0.22c-11.62,0-23.242-0.095-34.86,0.06c-3.303,0.044-4.283-1.09-4.305-4.336
	C312.098,390.545,312.983,389.32,316.315,389.328z M309.912,389.674c0.202,1.029,0.379,1.61,0.422,2.201
	c0.412,5.714-2.399,7.848-7.719,5.559c-0.858-0.369-1.375-2.403-1.361-3.66c0.012-1.046,0.83-2.73,1.654-2.992
	C305.081,390.09,307.452,390.017,309.912,389.674z M296.438,389.917c1.716-3.115,4.83-3.912,8.731-1.504
	c-7.916-0.128-5.418,5.419-5.848,9.372C295.803,396.123,294.742,392.997,296.438,389.917z M353.844,428.016
	c-2.955,0.39-5.965,0.605-8.941,0.525c-3.045-0.082-4.244,0.969-4.158,4.115c0.187,6.834-1.355,13.374-4.221,19.572
	c-0.483,1.045-1.265,2.29-2.227,2.707c-2.112,0.915-2.338,2.247-1.863,4.202c0.411,1.691,0.43,3.485,0.921,5.146
	c0.266,0.902,1.016,1.977,1.814,2.288c0.492,0.192,2.015-0.786,2.171-1.452c0.996-4.232,4.024-4.423,7.477-4.232
	c2.36,0.131,4.74,0.039,7.104-0.091c2.912-0.16,5.136,0.39,5.782,3.807c0.276,1.458,2.359,3.368,2.886,1.56
	c0.986-3.385,1.298-7.606,0.041-10.736c-0.637-1.587-2.134-3.199-2.186-5.269c-0.072-2.864-0.018-5.731-0.018-8.597
	c-0.039,0-0.078,0-0.117,0c0-3.115-0.056-6.231,0.016-9.344C358.398,429.079,357.241,427.567,353.844,428.016z M352.15,453.53
	c-0.007,0.455-0.93,1.258-1.457,1.283c-2.688,0.132-5.386,0.061-8.129,0.061c1.048-6.305,1.914-12.087,3.054-17.815
	c0.19-0.952,1.439-2.055,2.435-2.393c1.221-0.415,2.69-0.099,4.162-0.099C352.216,440.941,352.247,447.236,352.15,453.53z
	 M413.667,427.016c-2.238-0.54-4.094,0.372-4.41,3.188c-0.801,7.151-5.937,11.747-9.71,17.142c-0.304-0.136-0.608-0.273-0.912-0.409
	c0-5.107-0.037-10.214,0.02-15.32c0.02-1.763,0.035-3.388-2.368-3.288c-2.017,0.084-3.706,0.524-3.695,3.15
	c0.041,9.602,0.071,19.205-0.029,28.806c-0.028,2.715,1.393,3.572,3.46,2.681c1.304-0.562,2.711-2.165,3.02-3.538
	c1.517-6.741,6.418-11.279,10.111-16.677c-0.032,6.08-0.433,12.006-0.86,17.93c-0.136,1.887,0.385,3.574,2.533,3.064
	c1.362-0.323,2.841-1.576,3.541-2.82c0.586-1.043,0.084-2.68,0.125-4.052c0.263-8.728,0.612-17.455,0.74-26.186
	C415.253,429.413,414.464,427.209,413.667,427.016z M325.169,426.854c-2.204-0.19-3.99,0.494-4.263,3.103
	c-0.767,7.332-6.013,12.007-9.859,17.512c-0.285-0.124-0.569-0.247-0.854-0.371c0-5.114-0.056-10.229,0.029-15.341
	c0.032-1.913,0.127-3.662-2.533-3.444c-2.377,0.195-3.767,0.931-3.685,3.936c0.242,8.844,0.073,17.698,0.079,26.548
	c0.001,1.728-1.081,4.072,1.885,4.384c2.486,0.262,4.37-0.577,4.805-3.482c1.051-7.034,6.393-11.541,10.043-17.109
	c-0.072,6.196-0.621,12.238-0.831,18.29c-0.034,0.97,1.699,2.94,2.185,2.812c1.409-0.37,3.069-1.314,3.738-2.525
	c0.636-1.15,0.108-2.924,0.154-4.421c0.271-8.735,0.533-17.471,0.868-26.204C326.992,428.918,327.659,427.069,325.169,426.854z
	 M372.408,462.238c3.739-0.224,7.474-0.505,11.216-0.665c2.29-0.098,4.482-0.247,4.092-3.386c-0.359-2.886-2.223-3.558-4.881-3.145
	c-2.677,0.416-5.389,0.604-8.493,0.936v-9.145c2.149,0,4.241-0.109,6.317,0.028c2.437,0.162,3.914-0.496,3.702-3.271
	c-0.19-2.483-1.321-3.633-3.914-3.15c-1.468,0.273-2.987,0.551-4.454,0.441c-0.751-0.056-1.864-0.824-2.084-1.506
	c-1.353-4.202,0.138-6.049,4.501-5.829c1.622,0.082,3.243,0.176,4.862,0.289c2.02,0.141,3.511-0.424,3.545-2.762
	c0.03-2.103-0.66-3.7-3.117-3.812c-3.985-0.181-7.969-0.424-11.956-0.525c-2.434-0.062-3.595,1.185-3.58,3.719
	c0.054,9.238,0.116,18.478-0.046,27.714C368.062,461.422,369.533,462.411,372.408,462.238z M428.468,417.182
	c-0.325-0.043-0.65-0.086-0.974-0.129c-2.188,7.722-1.527,50.169,0.974,53.566V417.182z M792.705,157.836
	c0.543,42.241,1.08,84.482,1.62,126.723c0.013,0,0.026,0,0.038,0c0.6,42.365,1.201,84.73,1.797,127.095
	c0.073,5.21,0.059,5.219,5.208,5.211c75.492-0.115,150.984-0.233,226.476-0.352c1.125-0.002,2.434,0.329,3.326-0.134
	c1.082-0.562,2.525-1.756,2.59-2.756c1.363-21.07,2.535-42.152,3.782-63.229c2.325-39.292,4.657-78.584,7.018-117.874
	c2.182-36.296,4.392-72.591,6.615-108.885c1.169-19.082,2.336-38.164,3.637-57.237c0.309-4.52,0.319-5.01-4.246-5.461
	c-28.339-2.8-56.636-6.345-85.042-8.084c-56.419-3.453-112.665-0.393-168.681,7.024c-4.973,0.659-5.39,1.139-5.325,6.186
	C791.909,96.655,792.312,127.245,792.705,157.836z M798.536,411.394c-1.168-84.32-2.336-168.639-3.51-253.417
	c3.153,0.971,5.803,1.42,8.029,2.641c0.988,0.542,1.545,2.634,1.574,4.038c0.283,13.866,0.416,27.735,0.588,41.603
	c0.787,63.468,1.597,126.935,2.259,190.405c0.024,2.268-1.086,4.741-2.254,6.781C803.576,406.319,801.38,408.879,798.536,411.394z
	 M817.772,215.924c3.778,0.786,7.652,1.707,11.464,1.625c13.605-0.294,27.202-0.987,40.802-1.533
	c1.208-0.048,2.416-0.122,3.474-0.176c-0.732,6.82-1.56,13.324-2.099,19.852c-0.785,9.497-0.698,9.522,8.739,10.551
	c8.82,0.961,17.67,1.694,26.455,2.905c3.502,0.483,4.85-0.776,5.266-3.907c0.927-6.987,1.765-13.987,2.843-20.951
	c0.784-5.057,1.858-10.071,2.868-15.091c2.466-12.245,5.068-24.465,7.391-36.737c0.585-3.09,2.189-3.13,4.702-3.106
	c2.652,0.025,3.721,0.774,3.984,3.515c1.575,16.414,3.464,32.8,4.923,49.224c0.658,7.405,0.599,14.875,0.801,22.317
	c0.095,3.515,1.323,4.966,5.248,4.51c10.423-1.21,20.894-2.017,31.356-2.863c2.805-0.227,4.234-1.098,4.195-4.261
	c-0.081-6.492,0.443-12.995,0.294-19.483c-0.666-29.026-1.483-58.048-2.231-87.072c-0.025-0.966,0.116-1.936,0.206-3.303
	c7.162,0.842,14.074,1.647,20.984,2.468c7.817,0.929,15.62,2.003,23.455,2.739c2.891,0.272,3.734,1.221,3.562,4.154
	c-1.19,20.206-2.183,40.424-3.275,60.637c-1.186,21.959-2.43,43.914-3.611,65.873c-2.315,43.046-4.633,86.092-6.84,129.143
	c-0.165,3.218-1.154,4.293-4.432,4.165c-6.864-0.268-13.745-0.183-20.618-0.104c-2.427,0.028-3.652-0.482-3.495-3.316
	c0.648-11.727,1.107-23.464,1.643-35.197c0.023-0.495-0.069-1.224,0.21-1.446c5.18-4.121,2.783-10.077,3.701-15.204
	c1.84-10.281-4.766-16.781-10.897-23.363c-0.832-0.893-2.722-1.087-4.129-1.105c-6.622-0.087-13.248-0.075-19.87,0.065
	c-2.42,0.051-3.518-0.739-3.221-3.222c0.103-0.864,0.029-1.748,0.05-2.622c0.168-6.824,0.143-6.85-6.76-6.884
	c-2.893-4.747-3.714-4.626-13.034,1.5c1.516-2.455,3.115-4.864,4.513-7.384c0.661-1.191,1.584-3.541,1.284-3.745
	c-1.764-1.202-3.792-2.227-5.867-2.658c-0.772-0.16-2.506,1.282-2.779,2.275c-1.19,4.326-2.003,8.757-2.953,13.149
	c-0.147,0.677-0.296,1.354-0.271,1.242c-2.617-2.748-4.933-6.655-8.336-8.259c-2.476-1.167-6.686,0.049-9.593,1.37
	c-5.712,2.597-6.166,6.834-2.178,15.195c-1.364,0.068-2.55,0.158-3.738,0.182c-9.871,0.204-19.741,0.492-29.613,0.532
	c-2.768,0.011-4.308,1.077-5.598,3.409c-5.342,9.656-7.043,20.146-3.923,30.435c4.256,14.035,1.264,28.28,3.006,42.312
	c0.346,2.785-1.823,2.45-3.538,2.447c-11.998-0.022-23.995-0.066-35.993-0.104c-4.499-0.014-9.005-0.189-13.495,0.014
	c-3.008,0.136-3.812-0.995-3.838-3.89c-0.21-23.244-0.586-46.486-0.87-69.73c-0.653-53.36-1.282-106.72-1.918-160.081
	c-0.02-1.716-0.003-3.432-0.003-5.227h7.857c0,1.827,0.024,3.411-0.004,4.994c-0.249,14.369-0.394,28.74-0.839,43.103
	C813.077,213.424,814.648,215.274,817.772,215.924z M890.377,209.038c-1.167-14.825-2.149-29.665-3.189-44.5
	c-0.139-1.981-0.214-3.966-0.31-5.787c1.787,0,3.496,0.402,4.916-0.068c6.89-2.281,12.858-6.033,17.463-11.766
	c1.664-2.071,2.09-4.058,0.391-6.442c-1.516-2.126-2.444-4.68-4.009-6.761c-2.427-3.227-2.337-6.453-1.423-10.199
	c0.887-3.634,2.735-3.908,5.581-2.983v11.696c0.328,0.024,0.656,0.048,0.984,0.072c0.553-3.964,1.106-7.929,1.659-11.893
	c0.443,0.045,0.886,0.09,1.329,0.135v10.687c0.468,0.037,0.936,0.075,1.404,0.112c0.353-3.496,0.706-6.992,1.087-10.769h6.615
	c-0.319,2.326-0.747,4.475-0.881,6.642c-0.233,3.779,1.078,4.966,4.788,4.67c4.587-0.367,9.176-0.704,14.03-1.075v-9.825h7.634
	v11.572c3.457-3.295,0.132-8.667,3.387-11.849c0.344,0.105,0.689,0.21,1.033,0.314v10.524c0.392,0.059,0.785,0.117,1.177,0.176
	c0.474-3.411,0.948-6.821,1.503-10.814c0.698,0.893,1.086,1.388,1.02,1.304c2.06-0.642,3.815-1.513,5.637-1.687
	c3.475-0.332,7.004-0.105,10.478-0.445c1.386-0.136,2.647-1.27,4.036-1.74c0.987-0.334,2.09-0.412,3.146-0.44
	c3.956-0.104,7.988,0.286,11.838-0.388c1.841-0.323,3.823-2.32,4.893-4.076c2.832-4.646,5.301-9.525,7.697-14.418
	c0.783-1.599,1.246-3.531,1.229-5.305c-0.027-2.682-1.395-4.456-4.477-4.278c-1.856,0.107-3.723,0.02-5.667,0.02
	c1.171-3.34,5.096-4.91,9.256-3.911c3.397,0.816,5.958,4.69,4.937,8.494c-0.687,2.558-2.167,5.024-3.752,7.195
	c-2.918,3.996-6.261,7.873-4.047,13.207c2.211,5.325,7.223,6.403,12.298,7.178c5.18,0.791,10.431,1.353,15.489,2.648
	c5.672,1.452,9.72,7.122,9.801,13.084c-20.165-2.392-40.267-4.776-60.369-7.16c0.043-0.408,0.087-0.815,0.13-1.223
	c19.445,2.172,38.89,4.344,58.335,6.515c0.243-0.37,0.486-0.74,0.729-1.11c-1.131-1.441-2.027-3.189-3.435-4.268
	c-5.106-3.916-11.147-5.623-17.417-6.299c-12.279-1.323-24.59-2.34-36.872-3.64c-2.643-0.28-3.737,0.669-3.824,3.117
	c-0.302,8.483-0.581,16.966-0.852,25.45c-0.046,1.447-0.007,2.897-0.007,4.634c-3.913-0.316-6.175-2.389-8.056-4.9
	c-3.869-5.166-5.656-11.081-5.833-17.491c-0.078-2.816-0.013-5.637-0.013-9.031c-7.125,10.62,1.494,31.231,13.787,33.984
	c0.092,0.887,0.267,1.851,0.281,2.818c0.284,19.117,0.507,38.236,0.867,57.351c0.052,2.738-0.513,3.914-3.583,4.171
	c-10.321,0.863-20.61,2.107-31.463,3.264c-0.52-4.728-1.048-9.384-1.54-14.043c-0.486-4.598-0.912-9.202-1.408-13.798
	c-0.509-4.72-1.322-9.424-1.534-14.156c-0.195-4.345-3.049-8.538-0.99-13.757c-4.7-0.279-9.642-0.572-14.583-0.865
	c-0.071,0.344-0.142,0.687-0.213,1.031c0.737,0.533,1.475,1.065,2.197,1.587c0,0.269,0.046,0.526-0.006,0.761
	c-3.518,15.714-7.095,31.416-10.549,47.145c-1.741,7.928-1.647,8.004-9.802,6.999c-7.441-0.917-14.868-1.954-22.297-2.974
	c-1.456-0.2-2.888-0.565-4.514-0.891c0.111-1.754,0.203-3.22,0.32-5.079c2.962-0.334,5.894-0.827,8.843-0.957
	C889.369,214.37,890.668,212.726,890.377,209.038z M901.954,117.381c-1.36-0.028-2.721-0.004-4.082-0.004
	c-0.024-0.548-0.047-1.097-0.071-1.645c21.315-3.523,42.73-2.22,64.682-1.223c-1.642,3.416-3.497,4.137-6.298,4.058
	C938.112,118.06,920.032,117.749,901.954,117.381z M903.054,120.308c-0.472,1.759-0.894,3.332-1.568,5.844
	c-1.321-2.317-2.201-3.86-3.331-5.844H903.054z M858.893,114.344c-7.088-0.1-14.19,0.247-21.275,0.6
	c-4.967,0.247-9.911,0.986-14.878,1.212c-3.381,0.154-6.784-0.2-10.178-0.326c-0.06-0.517-0.12-1.034-0.18-1.551
	c2.398-0.507,4.775-1.271,7.198-1.467c4.721-0.381,9.472-0.373,14.202-0.669c2.223-0.139,4.489-0.385,6.624-0.983
	c3.685-1.033,6.955-2.557,7.447-7.194c0.137-1.293,1.447-2.461,2.287-3.679c-0.66,6.417,0.769,8.688,7.247,10.056
	c3.359,0.709,6.927,0.467,10.403,0.58c4.605,0.15,9.228,0.04,13.812,0.423c1.932,0.161,3.783,1.295,5.671,1.987
	c-0.052,0.529-0.105,1.057-0.157,1.586c-2.836,0.209-5.682,0.684-8.505,0.574C872.032,115.235,865.469,114.437,858.893,114.344z
	 M873.717,117.993h-41.77c-0.007-0.339-0.014-0.679-0.021-1.018h41.763C873.698,117.315,873.707,117.654,873.717,117.993z
	 M850.959,88.82c-1.233-1.095-4.068-0.563-6.183-0.427c-1.468,0.094-2.901,0.722-4.821,1.239c0.509-5.154,3.806-6.372,7.173-7.27
	c3.447-0.919,6.416,0.13,8.589,3.041c2.136,2.861,2.124,5.874,0.003,8.641c-1.606,2.095-3.571,3.914-5.393,5.844
	c0.569-1.669,1.404-3.321,1.518-5.021C851.984,92.801,852.144,89.872,850.959,88.82z M846.482,91.398
	c1.085,0.004,2.169,0.18,3.353,0.285c-0.136,3.815-1.427,5.664-5.414,5.635c-12.714-0.09-25.429,0.095-38.143,0.25
	c-2.377,0.029-4.015-0.063-3.975-3.262c0.038-3.016,1.586-3.062,3.795-3.049C819.559,91.341,833.02,91.345,846.482,91.398z
	 M816.097,99.441c9.973-0.061,19.946-0.013,30.222-0.013c-1.842,7.817-3.994,9.711-11.271,10.12
	c-5.237,0.295-10.516,0.163-15.709,0.787c-3.39,0.407-6.77,1.556-9.947,2.872c-2.733,1.132-3.623,0.503-3.833-2.273
	C804.698,99.55,804.668,99.51,816.097,99.441z M875.591,108.322c-4.304-0.488-8.723,0.147-13.08-0.008
	c-2.327-0.083-4.868-0.336-6.866-1.373c-1.445-0.75-2.969-2.898-3.005-4.456c-0.055-2.38,2.039-3.268,4.526-3.28
	c20.707-0.097,41.413-0.287,62.119-0.438c3.565-0.026,7.13-0.004,10.784-0.004c-1.303,5.42-2.709,6.878-8.237,7.381
	c-4.832,0.439-9.715,0.346-14.577,0.395c-5.707,0.058-11.196,0.667-15.828,4.564c-0.609,0.512-1.997,0.372-2.943,0.164
	C884.174,110.318,879.943,108.815,875.591,108.322z M857.852,96.804c0.757-4.262,2.934-5.523,7.046-5.474
	c21.477,0.255,42.957,0.169,64.436,0.201c1.482,0.002,2.964,0,4.717,0c-0.45,3.028-1.2,5.126-4.478,5.143
	c-23.477,0.117-46.953,0.263-70.43,0.389C858.781,97.065,858.417,96.922,857.852,96.804z M897.001,110.755
	c3.098-0.847,6.326-1.415,9.533-1.615c4.481-0.279,9.004,0.093,13.482-0.212c5.579-0.379,10.89-1.235,12.632-8.117
	c0.681-2.69,3.099-4.92,3.897-7.606c0.541-1.82,0.167-5.508-0.723-5.834c-1.985-0.727-4.585-0.046-6.863,0.416
	c-1.086,0.22-2.009,1.248-3.751,2.405c0.323-5.587,2.423-7.722,7.388-8.765c3.643-0.766,7.017,0.672,8.665,3.693
	c1.598,2.929,0.892,5.98-2.358,8.986c-2.787,2.578-6.241,5.078-4.45,9.377c1.687,4.049,5.941,4.795,9.814,5.081
	c5.223,0.385,10.484,0.24,15.728,0.354c4.518,0.098,8.76,1.14,11.819,4.696c1.192,1.386,1.735,3.331,2.201,5.083
	c-11.341-7.647-23.727-7.769-36.329-7.037c-3.976,0.231-7.999,0.324-11.961-0.003c-9.329-0.769-18.442,0.056-27.446,2.608
	c-1.15,0.326-2.583-0.349-3.885-0.561C895.252,112.682,895.942,111.045,897.001,110.755z M1000.363,96.163
	c-19.105,0.071-38.209,0.243-57.314,0.366c-0.475,0.003-0.951-0.169-1.626-0.298c1.232-3.416,3.212-4.817,6.951-4.766
	c16.605,0.227,33.214,0.133,49.822,0.176c1.587,0.004,3.174,0.151,4.749,0.23C1003.39,94.429,1003.489,96.152,1000.363,96.163z
	 M1001.785,98.578c-2.476,5.07-4.744,9.974-7.291,14.729c-0.568,1.061-2.093,2.23-3.213,2.267c-4.799,0.156-9.615-0.01-14.412-0.284
	c-0.726-0.042-1.465-1.213-2.058-1.972c-3.071-3.931-6.951-6.45-12.018-6.693c-5.476-0.263-10.974-0.17-16.435-0.591
	c-2.666-0.205-5.391-0.948-7.84-2.018c-0.935-0.409-1.528-2.405-1.559-3.695c-0.013-0.548,1.813-1.632,2.81-1.641
	c20.448-0.187,40.897-0.254,61.347-0.333C1001.348,98.346,1001.581,98.504,1001.785,98.578z M938.359,120.695v7.93
	c-4.631,0.263-9.024,0.512-14.065,0.798c0.262-3.222,0.485-5.953,0.71-8.729H938.359z M1011.872,98.215
	c5.456-0.108,10.916-0.059,16.835-0.059c-0.42,7.745-0.823,15.172-1.267,23.348c-6.391-1.069-12.522-1.536-18.302-3.214
	c-6.179-1.795-7.412-6.369-4.013-12.016c1.41-2.343,3.033-4.567,4.681-6.753C1010.274,98.9,1011.163,98.229,1011.872,98.215z
	 M1011.496,95.751c0.393-1.904,0.731-3.543,1.069-5.18c1.189,0.355,2.374,0.983,3.568,0.998c7.448,0.094,14.899,0.047,22.648,0.047
	v4.135H1011.496z M978.786,121.846c15.078,1.612,29.834,3.188,44.589,4.77c3.394,0.364,4.595,2.042,3.032,5.639
	c-1.259-0.058-2.601-0.045-3.924-0.193c-13.407-1.494-26.799-3.131-40.223-4.454C978.381,127.227,977.691,125.555,978.786,121.846z
	 M1028.956,128.107c2.523,1.551,4.745,2.917,6.967,4.283C1028.926,133.498,1028.279,133.1,1028.956,128.107z M979.013,243.027
	c-12.374,1.336-24.363,2.63-36.779,3.97c-0.449-6.508-0.949-12.696-1.209-18.893c-0.031-0.74,1.178-2.131,1.926-2.216
	c11.394-1.293,22.806-2.418,34.59-3.62C978.035,229.224,978.508,235.899,979.013,243.027z M877.592,223.317
	c10.523,1.373,21.033,2.861,31.511,4.541c0.963,0.154,2.485,1.907,2.387,2.761c-0.622,5.427-1.626,10.81-2.572,16.62
	c-12.309-1.554-24.37-3.077-36.727-4.637c0.953-6.103,1.771-11.887,2.856-17.621C875.182,224.261,876.794,223.213,877.592,223.317z
	 M978.816,393.003c-8.478,0.469-16.968,0.933-25.457,0.973c-26.605,0.127-53.212,0.075-79.817,0.072
	c-5.495-0.001-5.489-0.041-5.637-5.536c-0.161-5.993-0.278-11.988-0.529-17.978c-0.088-2.107,0.68-2.877,2.782-2.875
	c37.098,0.034,74.196,0.022,111.294,0.034c0.354,0,0.707,0.17,1.75,0.436c-0.359,7.717-0.619,15.306-1.205,22.869
	C981.937,391.773,979.956,392.94,978.816,393.003z M981.823,394.959c-0.198,3.589-0.322,7.124-0.678,10.635
	c-0.044,0.435-1.316,1.064-2.02,1.066c-14.346,0.042-28.692,0.006-43.038-0.03c-0.217-0.001-0.434-0.202-0.895-0.43
	c-0.916-10.746-0.916-10.578,9.316-10.599c10.726-0.022,21.452-0.416,32.178-0.638C978.173,394.932,979.663,394.959,981.823,394.959
	z M924.455,406.803c-2.096,0.001-4.192,0-6.564,0c0.121-4.099,0.225-7.615,0.328-11.131c4.45-0.023,8.9-0.078,13.349-0.013
	c0.373,0.005,0.807,0.777,1.074,1.267c0.159,0.291,0.037,0.731,0.056,1.103C933.151,406.799,933.152,406.799,924.455,406.803z
	 M868.416,395.391c2.066,0,3.895,0.004,5.725-0.001c11.736-0.028,23.472-0.062,35.209-0.085c6.444-0.012,5.667-0.369,5.931,5.52
	c0.082,1.829,0.013,3.665,0.013,5.707c-1.355,0.11-2.444,0.273-3.534,0.275c-13.11,0.027-26.22-0.045-39.329,0.098
	c-2.906,0.032-4.144-0.91-4.035-3.801C868.49,400.648,868.416,398.184,868.416,395.391z M864.387,339.257
	c-0.036-2.604,0.998-3.836,3.771-3.867c14.353-0.162,28.705-0.398,43.055-0.721c2.59-0.058,3.487,0.742,3.402,3.403
	c-0.186,5.835-0.058,11.681-0.058,17.798c-2.576,0.126-4.671,0.312-6.766,0.318c-12.857,0.036-25.716-0.09-38.569,0.119
	c-3.639,0.059-4.887-1.293-4.809-4.697C864.508,347.495,864.444,343.374,864.387,339.257z M944.262,315.178
	c-0.283-1.141-0.045-2.411-0.045-3.563c4.653-1.067,4.997-0.812,4.988,3.484c-0.005,2.235,0.166,4.496-0.123,6.695
	c-0.133,1.008-1.017,2.428-1.864,2.693c-0.944,0.296-2.238-0.491-3.371-0.836c-0.946-0.288-1.897-0.924-2.815-0.872
	c-2.525,0.144-5.034,0.57-7.815,0.08c2.486-0.914,4.907-2.151,7.473-2.659C943.74,319.598,945.053,318.365,944.262,315.178z
	 M979.282,326.762c0.001,0.287,0.001,0.575,0.002,0.862h-29.555c-0.001-0.287-0.001-0.575-0.002-0.862H979.282z M953.66,324.648
	c0.07-0.212,0.14-0.424,0.21-0.636h22.761c0.001,0.212,0.002,0.424,0.004,0.636H953.66z M979.052,329.733
	c1.735,0.037,3.444,1.32,5.164,2.026l-0.521,1.396c-3.717,0-7.436,0.059-11.152-0.011c-10.477-0.198-20.955-0.398-31.427-0.74
	c-1.36-0.044-2.694-0.931-4.039-1.427c0.107-0.461,0.213-0.921,0.32-1.382c1.161-0.087,2.322-0.256,3.483-0.249
	C953.605,329.429,966.331,329.46,979.052,329.733z M935.959,345.847c-0.242,5.74-0.743,11.47-0.969,17.211
	c-0.085,2.146-0.689,3.194-3.033,3.123c-4.119-0.124-8.249,0.078-12.364-0.104c-0.928-0.041-2.587-1.085-2.598-1.69
	c-0.164-9.703-0.116-19.41-0.116-29.459h19.107C935.987,338.721,936.109,342.29,935.959,345.847z M935.918,319.268
	c-2.503,1.043-4.845,2.473-7.655,3.932c1.855-7.187,6.215-11.713,12.981-15.078c0.145,1.341,0.242,1.945,0.271,2.554
	C941.812,316.902,941.778,316.827,935.918,319.268z M928.227,311.103c0.68-3.14,1.276-6.301,2.062-9.414
	c0.852-3.373,1.128-3.429,4.716-1.671c-2.121,3.742-4.237,7.476-6.353,11.211C928.51,311.187,928.369,311.145,928.227,311.103z
	 M935.117,330.796c-0.089,0.411-0.178,0.821-0.267,1.232h-17.726c-0.137-0.315-0.275-0.629-0.412-0.944
	c0.822-0.522,1.789-1.633,2.442-1.472C924.367,330.902,930.177,327.681,935.117,330.796z M911.239,316.729
	c3.15,2.504,5.857,4.656,8.939,7.105c-1.138,0.587-1.502,0.943-1.738,0.872c-5.19-1.559-9.931-3.904-12.688-8.825
	c-0.609-1.087-0.471-3.057,0.097-4.251c1.768-3.712,5.3-4.613,9.063-4.873c3.531-0.244,5.34,2.015,6.264,4.863
	c1.323,4.077,2.223,8.291,3.304,12.446C920.276,321.057,918.132,315.341,911.239,316.729z M908.5,324.414
	c0.001,0.118,0.002,0.236,0.003,0.354h-16.69c-0.001-0.118-0.002-0.236-0.003-0.354H908.5z M914.583,327.945h-45.966
	C871.046,325.983,911.215,325.64,914.583,327.945z M869.763,329.534c14.612-0.151,29.225-0.114,43.839-0.1
	c0.457,0,0.913,0.266,2.364,0.718c-1.405,0.988-2.208,2.045-3.018,2.05c-15.334,0.098-30.669,0.072-46.003,0.072
	c-0.212-0.22-0.424-0.44-0.636-0.66C867.46,330.89,868.605,329.546,869.763,329.534z M914.361,358.791v7.054h-46.657v-7.054H914.361
	z M978.97,365.79c-12.587,0.116-25.174,0.217-37.761,0.306c-1.219,0.009-2.438-0.109-3.857-0.178v-6.895
	c15.369,0.405,30.487,0.804,45.536,1.201C983.918,365.368,983.648,365.746,978.97,365.79z M982.26,357.657
	c-13.721-0.304-27.44-0.696-41.163-0.92c-2.886-0.047-3.867-0.933-3.723-3.946c0.275-5.717,0.08-11.457,0.08-17.53
	c1.736-0.165,2.797-0.374,3.852-0.35c13.72,0.306,27.439,0.716,41.161,0.927c3.494,0.054,4.951,1.295,4.82,4.886
	c-0.199,5.454-0.052,10.922-0.052,16.678C984.935,357.526,983.595,357.687,982.26,357.657z M1028.211,414.193H800.566
	c2.874-4.138,5.321-7.849,8.015-11.372c0.514-0.671,2.007-0.828,3.047-0.827c16.996,0.031,33.992,0.153,50.988,0.173
	c2.234,0.003,3.432,0.466,3.541,3.042c0.16,3.803,2.875,4.39,6.097,4.373c26.369-0.138,52.738-0.215,79.107-0.3
	c9.123-0.029,18.246-0.056,27.369-0.02c2.956,0.012,5.196-0.439,5.107-4.24c-0.017-0.708,1.659-2.072,2.573-2.088
	c8.245-0.152,16.494-0.081,24.742-0.038c0.727,0.004,1.58,0.075,2.158,0.45c5.092,3.299,10.135,6.673,15.193,10.026
	C1028.406,413.646,1028.309,413.919,1028.211,414.193z M1031.169,82.971c0.417-6.358,0.66-12.729,1.238-19.071
	c0.089-0.978,1.644-2.676,2.384-2.606c5.814,0.551,11.594,1.451,17.623,2.276c-7.035,116.382-14.029,232.091-21.087,348.858
	c-6.02-4.094-11.454-7.694-16.735-11.505c-0.635-0.458-0.661-2.075-0.604-3.135c2.31-43.047,4.676-86.09,7.003-129.136
	c1.854-34.312,3.66-68.627,5.502-102.941c0.487-9.08,1.029-18.157,1.575-27.75c3.425,0.356,6.477,0.723,9.538,0.979
	c3.761,0.314,4.641-0.65,3.603-4.303c-1.534-5.398-4.577-9.585-9.853-12.073c-1.088-0.513-2.266-2.275-2.25-3.446
	c0.077-5.742,0.747-11.477,0.795-17.218c0.028-3.391,1.37-4.421,4.497-4.028c1.333,0.168,2.704,0.028,4.267,0.028
	c0.18,1.121,0.429,1.94,0.42,2.756c-0.022,1.927,0.191,3.475,2.706,3.543c2.38,0.064,4.485-0.357,4.625-3.122
	c0.233-4.609,0.237-9.237,0.14-13.853c-0.052-2.47-2.048-2.243-3.848-2.414c-3.209-0.306-3.791,1.623-3.788,4.106
	c-0.44,0.211-0.759,0.478-1.101,0.511C1030.672,90.1,1030.701,90.097,1031.169,82.971z M1041.634,88.244
	c0.007-0.322,0.899-0.847,1.402-0.874c0.503-0.027,1.5,0.492,1.481,0.704c-0.381,4.479-0.873,8.948-1.378,13.415
	c-0.006,0.053-0.456,0.055-1.568,0.175C1041.571,97.16,1041.541,92.7,1041.634,88.244z M808.569,60.773
	c46.959-5.751,94.099-8.134,141.352-6.244c25.682,1.027,51.297,3.737,76.949,5.586c3.002,0.216,4.009,1.123,3.721,4.314
	c-0.65,7.208-0.92,14.456-1.153,21.695c-0.082,2.558-0.949,3.577-3.559,3.443c-3.364-0.173-6.747-0.134-10.115-0.007
	c-1.075,0.041-2.13,0.632-3.194,0.984l0.002-0.008c-0.402-0.414-0.987-0.718-1.245-1.198c-4.118-7.663-12.457-8.475-17.995-1.82
	c-0.761,0.915-2.131,1.871-3.225,1.878c-14.614,0.095-29.23,0.026-43.845-0.019c-0.349-0.001-0.697-0.198-1.011-0.293
	c-1.865-7.473-5.739-11.175-11.27-10.826c-6.36,0.401-10.531,4.314-11.458,11.15c-1.156,0-2.376,0.001-3.595,0
	c-18.363-0.018-36.726-0.074-55.089-0.008c-2.419,0.009-3.744-0.477-4.59-3.056c-1.479-4.508-5.446-6.969-10.074-6.971
	c-5.161-0.001-9.79,2.684-11.274,7.15c-0.743,2.238-1.759,2.875-3.953,2.849c-8.368-0.099-16.74-0.143-25.107,0.003
	c-2.835,0.049-3.651-0.982-3.615-3.704c0.094-6.993,0.047-13.993-0.184-20.983C804.954,61.95,805.879,61.103,808.569,60.773z
	 M803.259,61.987v26.52c-0.621-2.55-1.547-4.008-4.607-3.764c-3.317,0.264-3.03,2.6-3.016,4.567
	c0.035,5.04,0.354,10.078,0.56,15.116c0.448,0.171,0.895,0.342,1.343,0.513c1.968-1.426,3.936-2.851,6.182-4.478
	c-0.215,6.05,2.192,12.343-3.217,17.923c-2.468,2.547-3.712,6.28-5.627,9.679c-0.078-1.167-0.209-2.323-0.224-3.48
	c-0.24-18.227-0.464-36.454-0.695-54.681C793.857,61.924,794.381,61.448,803.259,61.987z M799.536,87.566v13.278
	c-0.368-0.016-0.737-0.032-1.105-0.048V87.563C798.799,87.564,799.167,87.565,799.536,87.566z M794.088,151.088
	c1.35-6.604,2.095-13.349,3.746-19.869c1.116-4.406,3.291-8.558,5.14-12.759c0.998-2.268,2.69-2.636,5.221-2.051
	c23.518,5.441,47.236,6.126,71.06,2.357c3.423-0.542,6.825-1.62,10.038-2.934c2.256-0.923,3.617-0.419,4.681,1.422
	c4.748,8.217,9.513,16.427,14.034,24.769c0.465,0.858-0.271,2.899-1.088,3.833c-4.53,5.182-10.315,8.531-17.64,11.309
	c-1.15-3.574-2.456-6.655-3.087-9.869c-0.612-3.118-0.531-6.371-1.276-9.529c-0.179,24.589,1.791,49.06,3.94,73.735
	c-0.735,0.219-1.413,0.572-2.105,0.605c-20.197,0.955-40.387,2.247-60.596,2.662c-11.087,0.228-11.075-0.507-10.797-11.399
	c0.486-18.981,0.868-37.965,1.246-56.949c0.04-2-0.242-4.007-0.375-6.01c-0.409,0-0.818-0.001-1.227-0.002
	c-0.155,1.996-0.219,4.004-0.486,5.985c-0.511,3.792-1.015,7.594-1.825,11.327c-0.156,0.717-1.866,1.771-2.577,1.586
	c-4.701-1.223-9.332-2.719-13.971-4.175C794.139,154.501,793.648,153.242,794.088,151.088z M1028.718,424.114
	c-34.707-0.487-69.412-1.104-104.115-1.778c-2.868-0.056-4.004,0.696-3.985,3.734c0.069,10.862,0.031,21.728-0.239,32.586
	c-0.087,3.518,1.093,4.449,4.503,4.418c16.98-0.154,33.962-0.07,50.943-0.07v-0.211c17.231,0,34.462-0.045,51.692,0.044
	c2.917,0.015,4.248-0.712,4.334-3.953c0.264-9.982,0.731-19.962,1.369-29.927C1033.448,425.39,1032.377,424.165,1028.718,424.114z
	 M1029.363,460.19H923.037c0-11.097,0.026-21.961-0.024-32.825c-0.009-1.971,0.811-2.639,2.699-2.583
	c3.997,0.118,7.998,0.093,11.997,0.165c29.491,0.532,58.981,1.071,88.471,1.618c1.358,0.025,2.714,0.146,4.632,0.253
	C1030.329,437.947,1029.856,448.851,1029.363,460.19z M882.811,36.172c-0.46-1.411-0.775-2.379-1.24-3.806
	c1.832-0.137,3.284-0.222,4.731-0.361c0.924-0.089,2.19,0.086,2.708-0.441c5.67-5.766,12.176-8.445,20.368-5.752
	c1.826-6.248,6.28-9.813,12.29-9.938c6.588-0.138,10.961,4.009,13.058,10.463c5.591-2.885,10.485-0.992,15.081,1.717
	c3.569,2.103,6.321,5.853,11.212,4.959c0.239-0.044,0.567,0.402,1.031,0.754c-0.425,0.943-0.84,1.866-1.256,2.789
	c0.313,0.199,0.626,0.398,0.939,0.597c0.871-1.253,2.51-2.588,2.386-3.733c-0.111-1.024-2.181-2.619-3.361-2.596
	c-3.578,0.069-5.907-1.918-8.557-3.763c-4.743-3.303-10.018-5.042-16.161-3.927c-7.144-11.143-18.686-13.065-27.284-1.567
	c-0.496,0.663-1.844,1.051-2.752,0.984c-5.639-0.419-10.669,1.204-15.114,4.511c-2.227,1.657-4.236,3.25-7.288,2.932
	c-1.106-0.115-2.872,0.447-3.333,1.265c-0.54,0.958-0.174,2.59,0.191,3.812C880.608,35.556,881.804,35.728,882.811,36.172z
	 M612.066,335.677c4.117,2.523,3.708,5.928,3.272,9.67c-0.158,1.356,0.212,2.833-0.188,4.087c-0.513,1.608-1.364,3.205-2.428,4.516
	c-1.264,1.559-2.907,2.81-4.386,4.194c2.825-0.407,4.986-1.992,7.219-2.103c2.248-0.111,4.569,1.244,7.884,2.277
	c-1.209-1.305-1.585-2.017-2.167-2.291c-3.787-1.781-4.558-4.924-4.222-8.704c0.154-1.733-0.24-3.556,0.144-5.216
	c0.416-1.799,1.289-3.552,2.251-5.152c1.426-2.372,3.106-4.592,4.679-6.876c-2.878-0.79-5.726-2.015-8.645-2.221
	c-2.03-0.143-4.158,1.114-6.242,1.745C610.142,331.688,610.478,334.704,612.066,335.677z M611.754,330.124h9.839
	c-1.097,3.426-2.905,5.853-5.521,5.477c-1.859-0.267-3.381-2.875-5.054-4.438C611.264,330.816,611.509,330.47,611.754,330.124z
	 M636.233,332.008c7.941,4.064,15.688,3.072,22.174-2.84c4.398-4.009,6.41-8.761,4.906-12.378
	c-3.228,9.1-8.457,15.789-18.802,15.262c-8.715-0.444-14.15-5.56-16.895-15.003C626.832,323.288,630.513,329.08,636.233,332.008z
	 M589.566,334.134c10.291-1.196,18.081-9.07,16.27-17.079c-2.441,9.47-8.415,14.652-18.093,15.029
	c-9.47,0.369-15.768-4.722-20.065-12.885C567.977,328.754,579.393,335.317,589.566,334.134z M586.033,343.987
	c0.583,0.764,1.003,1.895,1.773,2.234c7.259,3.19,14.053,0.253,21.017-1.678c-2.58,3.728-6.648,4.825-10.655,5.67
	c-4.166,0.878-8.451,1.191-12.855,1.774c5.066,2.91,19.329,0.044,23.743-4.824c0.778-0.858,0.695-2.498,1.009-3.777
	c-1.19-0.043-2.456-0.373-3.558-0.082C599.86,345.059,593.272,348.108,586.033,343.987z M646.173,328.395
	c0.944-0.863,2.362-1.562,2.73-2.625c0.719-2.075,0.85-4.353,1.225-6.547c-0.094-0.012-0.188-0.024-0.282-0.036
	c0-0.868,0.27-1.86-0.059-2.578c-0.603-1.32-1.559-2.478-2.367-3.704c-1.084,1.02-2.894,1.905-3.112,3.085
	c-0.576,3.112-0.667,6.363-0.501,9.536C643.859,326.521,645.344,327.441,646.173,328.395z M587.946,329.041
	c0.808-0.066,2.011-0.791,2.234-1.493c0.666-2.094,1.318-4.324,1.263-6.483c-0.065-2.568,0.377-6.68-2.98-6.679
	c-3.574,0.001-3.075,4.07-3.455,7.552c0.285,1.406,0.583,3.496,1.18,5.496C586.395,328.124,587.386,329.087,587.946,329.041z
	 M615.605,380.69c-4.094,1.139-6.597-1.048-8.965-4.058c0.201,1.687,0.668,3.135,1.346,4.476c0.712,1.407,1.626,2.712,2.413,3.999
	c2.286,0,4.724,0.232,7.101-0.052c3.998-0.477,4.983-1.371,5.798-4.325C620.724,380.231,617.992,385.826,615.605,380.69z
	 M646.705,351.977c-8.28-0.576-16.414-1.413-23.582-7.672C626.003,351.053,639.936,355.345,646.705,351.977z M646.592,343.702
	c-7.736,4.806-14.216,0.488-21.227-1.771C631.144,348.566,644.307,349.818,646.592,343.702z M609.149,350.887
	c-3.996,2.374-7.992,4.748-11.988,7.122C602.282,357.654,606.271,355.195,609.149,350.887z M634.901,357.39
	c-3.486-2.167-6.973-4.334-10.459-6.5C626.92,354.668,630.118,357.296,634.901,357.39z M549.352,469.788
	c2.31,0.924,6.022-0.395,8.572-1.724c2.069-1.078,0.982-5.853-1.651-8.981c-2.083,4.145-5.288,3.03-9.066,1.29
	C547.793,464.042,545.496,468.245,549.352,469.788z M551.933,478.191c-1.37,0.78-2.741,1.56-4.613,2.625
	c1.529,1.102,2.56,1.845,3.598,2.593c3.837-5.58,4.595-5.714,10.346-2.015c0.631-1.165,1.255-2.317,2.079-3.838
	c-1.854-0.362-3.165-0.619-5.25-1.026c2.11-1.684,3.501-2.794,5.127-4.091c-0.914-0.575-1.526-0.956-2.133-1.345
	c-0.579-0.37-1.153-0.748-1.769-1.148c-2.659,6.343-2.659,6.343-11.207,2.905c-1,1.077-2.026,2.182-3.394,3.654
	c2.752,0.235,4.948,0.423,7.143,0.61C551.883,477.474,551.908,477.833,551.933,478.191z M661.364,489.655
	c2.436-0.922,4.872-1.844,7.308-2.767c-0.183-0.267-0.366-0.534-0.549-0.8c-1.398,0.269-2.796,0.537-4.662,0.896
	c-0.164-2.767-0.306-5.167-0.448-7.567c-0.451-0.01-0.902-0.019-1.353-0.028c-0.344,1.937-0.689,3.874-1.03,5.794
	c-0.98-0.113-1.809-0.209-3.716-0.43c2.491,3.13,4.332,5.443,6.173,7.756C662.512,491.557,661.938,490.606,661.364,489.655z
	 M671.524,474.795c3.164,0.041,4.346,1.255,2.612,4.744c0.538,0.021,1.076,0.041,1.614,0.062c0.421-1.207,1.547-2.867,1.121-3.53
	c-1-1.556-2.742-2.636-4.619-4.292c0.006-0.022,0.236-0.86,0.466-1.699c-0.348-0.195-0.695-0.389-1.043-0.584
	c-0.683,1.17-1.573,2.28-1.931,3.542C669.628,473.451,670.884,474.786,671.524,474.795z M680.299,470.154
	c-0.255,0.833-0.521,1.704-0.787,2.575c0.299,0.224,0.599,0.447,0.898,0.671c0.741-0.797,2.028-1.559,2.082-2.4
	c0.065-1.018-0.751-2.236-1.48-3.126c-1.013-1.237-2.301-2.249-3.504-3.388C674.885,467.004,674.932,467.121,680.299,470.154z
	 M672.092,482.406c-1.456-1.951-2.911-3.903-4.367-5.854c-0.423,0.323-0.846,0.646-1.269,0.968c1.47,1.941,2.94,3.882,4.409,5.823
	C671.274,483.031,671.683,482.718,672.092,482.406z M406.163,301.927c-4.296-3.261-9.329-5.841-14.402-7.731
	c-12.548-4.677-25.749-5.829-39.051-5.951c-0.053-0.34-0.107-0.68-0.16-1.02c-11.074,1.679-22.217,3.01-33.199,5.159
	c-7.488,1.466-14.579,4.471-20.505,9.577c-6.729,5.798-7.104,13.28-0.295,18.907c3.865,3.194,8.455,5.996,13.185,7.578
	c27.272,9.12,54.718,9.106,81.984-0.057c4.506-1.514,8.859-4.161,12.596-7.145C413.495,315.513,413.487,307.488,406.163,301.927z
	 M405.3,319.389c-5.411,4.964-12.111,7.481-19.03,9.265c-22.343,5.759-44.802,5.956-67.076-0.078
	c-6.153-1.667-12.254-4.5-17.582-8.009c-7.909-5.208-7.93-12.681,0.015-17.798c5.672-3.653,12.13-6.74,18.661-8.258
	c10.641-2.474,21.627-3.461,32.467-5.075c0.051,0.322,0.103,0.644,0.154,0.966c13.179,0.193,26.263,1.317,38.682,6.036
	c4.718,1.793,9.356,4.277,13.374,7.314C410.933,308.263,410.813,314.331,405.3,319.389z M854.822,440.108
	c4.884-0.054,8.676-2.386,8.68-5.339c0.004-2.92-3.802-5.303-8.653-5.418c-5.002-0.118-9.028,2.255-9.036,5.328
	C845.805,437.718,849.862,440.163,854.822,440.108z M854.484,430.355c2.632,1.7,6.431,3.127,6.354,4.297
	c-0.228,3.447-3.933,3.457-6.453,3.146c-2.171-0.268-4.166-1.959-6.239-3.021C850.096,433.416,852.046,432.056,854.484,430.355z
	 M640.622,268.033c0.438-0.09,0.875-0.18,1.313-0.27c-0.249-1.163-0.126-2.666-0.818-3.426c-2.163-2.378-8.004-1.875-10.937,0.695
	C639.986,264.049,640.405,264.17,640.622,268.033z M574.173,272.582c3.207-1.76,6.627-3.23,9.55-5.378
	c2.135-1.569,1.326-3.554-1.324-4.191c-3.336-0.802-10.082,2.605-11.284,5.789C570.159,271.334,571.684,271.874,574.173,272.582z
	 M572.88,267.909c2.661-2.884,5.982-3.641,10.528-2.867c-2.606,3.692-5.871,4.813-9.263,5.624c-0.541,0.129-1.618-0.331-1.798-0.78
	C572.139,269.367,572.449,268.376,572.88,267.909z M851.716,171.4c0.181-2.552,1.018-4.731,0.281-5.651
	c-2.866-3.579-1.688-7.578-1.876-11.431c-0.078-1.603,0.397-3.836-2.094-3.316c-2.195,0.459-5.761-1.861-6.353,2.945
	c-0.419,3.397-1.023,7.277-2.986,9.835c-1.97,2.567-1.61,4.242-0.516,7.07C841.478,166.568,848.6,166.508,851.716,171.4z
	 M844.169,155.516c0.157-0.634,1.038-1.088,1.586-1.625c0.482,0.691,1.28,1.339,1.382,2.082c0.216,1.576,0.069,3.202,0.071,4.807
	c0.004,4.322-0.368,4.59-4.825,3.375C842.958,161.277,843.461,158.371,844.169,155.516z M824.226,169.691
	c0.783-0.813,1.845-1.497,2.296-2.465c1.337-2.877,2.434-5.866,3.624-8.811c0.348,0.119,0.695,0.238,1.043,0.357
	c0,2.725-0.128,5.46,0.075,8.17c0.064,0.857,1.012,1.647,1.556,2.468c0.478-0.833,1.341-1.654,1.368-2.502
	c0.133-4.113,0.156-8.239-0.048-12.347c-0.055-1.095-1.051-2.143-1.615-3.213c-0.85,0.736-1.993,1.312-2.494,2.237
	c-1.383,2.553-2.498,5.251-3.718,7.892c-0.318-0.075-0.636-0.151-0.954-0.226c0-2.682,0.118-5.372-0.077-8.04
	c-0.053-0.733-1.039-1.398-1.597-2.094c-0.449,0.709-1.283,1.418-1.284,2.126c-0.001,4.491,0.096,8.987,0.371,13.468
	C822.834,167.732,823.719,168.7,824.226,169.691z M869.52,169.655c0.814-0.741,1.95-1.331,2.382-2.252
	c1.405-2.998,2.553-6.117,3.799-9.19c0.287,0.102,0.574,0.204,0.861,0.307c0,2.828-0.132,5.665,0.079,8.477
	c0.064,0.857,1.071,1.643,1.646,2.461c0.477-0.83,1.341-1.648,1.366-2.492c0.128-4.23,0.13-8.471-0.05-12.699
	c-0.042-0.982-0.968-1.927-1.487-2.889c-0.867,0.689-2.044,1.205-2.541,2.1c-1.417,2.553-2.558,5.26-3.807,7.906
	c-0.884-2.075-0.775-4.002-0.916-5.911c-0.133-1.788,0.975-4.537-2.685-4.279c0,5.345-0.065,10.546,0.061,15.743
	C868.252,167.853,869.07,168.749,869.52,169.655z M857.32,168.837c1.943,0.238,3.977-0.056,5.943-0.352
	c0.545-0.082,1.465-1.079,1.367-1.364c-0.241-0.697-0.895-1.607-1.528-1.74c-1.286-0.269-2.667-0.08-4.158-0.08
	c-0.956-2.994,1.113-2.744,2.977-3.057c1.076-0.181,2.034-1.068,3.045-1.638c-0.985-0.476-2.044-1.467-2.943-1.339
	c-4.04,0.574-4.028-1.615-3.549-3.816c2.33-1.216,3.949-2.06,5.567-2.904c-1.869-0.539-3.739-1.08-5.609-1.616
	c-0.118-0.034-0.302-0.094-0.362-0.039c-0.854,0.769-2.368,1.513-2.422,2.346c-0.282,4.346-0.297,8.72-0.143,13.075
	C855.535,167.218,856.593,168.748,857.32,168.837z M926.573,135.469c-2.946,5.193-3.294,24.81,0,30.288V135.469z M936.437,138.248
	c-0.489,0.001-0.977,0.003-1.466,0.004c-0.541,8.448-1.082,16.896-1.623,25.344c0.478,0.026,0.957,0.052,1.435,0.077
	C935.334,155.198,935.885,146.723,936.437,138.248z M925.755,377.834c-0.115-6.891-0.051-6.896-6.873-6.339
	c-0.349,0.029-0.682,0.244-1.17,0.428c-0.22,1.43-0.269,2.943-0.704,4.335c-0.916,2.933-1.407,6.31-3.233,8.566
	c-2.135,2.638-1.072,4.216-0.021,6.496c4.094-4.056,9.818-4.01,13.714,0.713c0.155-2.497,1.033-4.916,0.223-5.817
	C925.355,383.618,925.802,380.707,925.755,377.834z M922.803,383.487c-0.496,3.18-2.982,1.708-5.663,1.517
	c2.811-3.454,0.462-8.574,4.425-11.005c0.446,0.117,0.891,0.233,1.337,0.35C922.903,377.4,923.268,380.508,922.803,383.487z
	 M954.455,371.673c-0.896,0.631-2.152,1.067-2.622,1.931c-1.5,2.753-2.708,5.666-4.369,9.253
	c-1.726-11.076-1.726-11.076-3.299-11.199c0,4.948-0.096,9.896,0.065,14.837c0.042,1.292,0.881,2.558,1.354,3.835
	c0.928-1.082,2.103-2.038,2.732-3.272c1.378-2.7,2.48-5.542,3.694-8.326c0.838,3.258,0.711,6.123,0.918,8.963
	c0.061,0.834,1.071,1.598,1.646,2.394c0.493-0.811,1.387-1.61,1.412-2.435c0.132-4.349,0.138-8.709-0.037-13.056
	C955.908,373.604,954.977,372.647,954.455,371.673z M907.647,371.748c-0.685-0.041-1.725,0.817-2.101,1.545
	c-1.489,2.887-2.778,5.878-4.141,8.83c-0.33-0.087-0.659-0.173-0.989-0.26c0-2.823,0.138-5.657-0.093-8.46
	c-0.061-0.737-1.265-1.38-1.945-2.066c-0.486,0.684-1.41,1.382-1.386,2.048c0.16,4.591,0.449,9.182,0.863,13.757
	c0.098,1.077,0.834,2.096,1.276,3.141c0.875-0.832,2.074-1.508,2.565-2.525c1.451-3.007,2.622-6.149,3.902-9.239
	c0.84,2.45,0.678,4.564,0.888,6.641c0.185,1.83-1.386,4.789,3.029,4.886c0-5.591,0.064-11.037-0.082-16.479
	C909.416,372.901,908.304,371.787,907.647,371.748z M936.277,382.952c0.736-0.319,1.775,0.103,2.561-0.16
	c0.77-0.258,1.389-0.969,2.074-1.482c-0.742-0.588-1.414-1.516-2.243-1.688c-1.36-0.283-2.822-0.077-4.298-0.077v-4.015
	c2.287-0.938,5.429-1.792,5.373-2.274c-0.408-3.514-3.566-1.144-5.347-2.043c-0.21-0.106-0.592-0.199-0.717-0.091
	c-0.808,0.693-2.199,1.411-2.238,2.181c-0.237,4.594-0.261,9.208-0.095,13.805c0.031,0.867,1.165,2.317,1.924,2.411
	c1.942,0.24,3.98-0.007,5.933-0.34c0.561-0.096,1.392-1.204,1.319-1.742c-0.082-0.603-0.969-1.313-1.654-1.554
	c-0.63-0.221-1.515,0.334-2.184,0.157c-0.785-0.207-1.458-0.836-2.18-1.282C935.085,384.133,935.56,383.263,936.277,382.952z
	 M984.688,431.868c-3.374-2.732-11.857-2.716-15.312,0.029c-2.42,1.923-2.459,4.572,0.265,6.1c2,1.122,4.387,1.552,7.038,2.437
	c2.588-0.855,5.457-1.379,7.874-2.719C987.124,436.29,986.967,433.714,984.688,431.868z M970.954,436.198
	c-0.455-0.438-0.462-2.14-0.011-2.588c2.648-2.633,10.504-1.818,13.081,1.199C981.38,437.906,973.674,438.82,970.954,436.198z
	 M349.042,309.167c-0.559-3.529-0.752-7.116-1.098-10.607c-6.507-0.173-6.5,0.039-7.563,5.64
	c-1.065,5.613-0.757,11.662-5.189,16.377c-0.732,0.779-0.038,3.894,0.984,5.076c1.316,1.522,2.57,0.359,3.56-1.401
	c0.863-1.535,5.75-0.792,7.33,0.379c0.756,0.56,3.024,0.561,3.159,0.229c0.636-1.568,1.21-3.398,0.992-5.025
	C350.738,316.246,349.609,312.749,349.042,309.167z M344.939,319.03c-0.772,0.068-1.877,0.165-3.289,0.289
	c0.898-5.456,1.718-10.442,2.539-15.428c0.25,0,0.5-0.001,0.751-0.001V319.03z M380.534,297.777c-1.99,3.965-3.87,7.711-5.75,11.458
	c-0.611-2.441-0.694-4.551-0.589-6.652c0.131-2.621-0.632-4.114-3.967-3.336c0,7.678-0.078,15.371,0.115,23.056
	c0.02,0.809,1.637,1.579,2.347,2.217c1.927-4.66,3.552-8.59,5.177-12.52c0.397,0.11,0.795,0.221,1.192,0.331
	c0,2.963-0.135,5.937,0.092,8.882c0.059,0.76,1.256,1.432,1.93,2.145c0.594-0.726,1.471-1.37,1.712-2.198
	c0.3-1.036,0.069-2.224,0.082-3.346c0.067-6.01,0.138-12.02,0.216-18.677C382.95,299.063,381.897,298.503,380.534,297.777z
	 M328.628,298.045c-1.877,3.84-3.693,7.556-5.51,11.272c-0.222-0.071-0.444-0.142-0.666-0.214c0-2.302-0.063-4.606,0.016-6.905
	c0.102-2.959-1.335-3.596-4.065-2.935c0,7.76-0.092,15.341,0.127,22.914c0.025,0.863,1.795,1.676,2.43,2.229
	c1.982-4.656,3.652-8.579,5.323-12.503c0.34,0.11,0.679,0.221,1.019,0.331c0,2.213-0.04,4.428,0.011,6.64
	c0.051,2.214-0.744,5.162,3.828,4.218c0-1.417-0.018-2.875,0.003-4.332c0.081-5.48-0.24-11.01,0.429-16.418
	C331.932,299.442,331.251,298.555,328.628,298.045z M363.044,316.984c-1.245-0.288-2.608-0.07-4.221-0.07
	c0.111-1.643-0.288-3.707,0.39-4.161c1.621-1.085,3.749-1.412,6.269-2.241c-0.675-1.426-0.955-3.233-1.927-3.757
	c-1.157-0.624-2.907-0.147-5.129-0.147c2.3-2.966,9.328-0.261,6.357-6.768c-2.598-0.269-4.925-0.749-7.222-0.636
	c-0.988,0.049-2.722,1.303-2.744,2.05c-0.211,7.051-0.125,14.11-0.125,21.796c3.669-0.56,6.508-0.79,9.206-1.531
	c0.797-0.219,1.593-1.868,1.623-2.884C365.535,318.085,363.998,317.204,363.044,316.984z"/>
</svg>
