<?xml version="1.0" encoding="utf-8"?>
<!-- Generator: Adobe Illustrator 21.0.2, SVG Export Plug-In . SVG Version: 6.00 Build 0)  -->
<svg version="1.1" id="Layer_1" xmlns="http://www.w3.org/2000/svg" xmlns:xlink="http://www.w3.org/1999/xlink" x="0px" y="0px"
	 viewBox="0 0 779.91 547.369" style="enable-background:new 0 0 779.91 547.369;" xml:space="preserve">
<path fill="white" d="M509.47,144.7c-3.658,0.954-5.832,3.152-5.96,6.024c6.65-6.066,9.376-6.243,17.281-0.577
	C518.1,145.46,513.786,143.574,509.47,144.7z M542.926,146.066c-3.642,2.228-4.866,7.422-10.453,7.45
	c0.269,0.317,0.537,0.635,0.806,0.952h6.978c-0.019-3.199,0.8-6.329,4.603-7.65c3.574-1.241,6.576-0.205,9.131,2.701
	C552.213,144.897,547.279,143.402,542.926,146.066z M558.562,110.452c-0.411-6.962-5.166-9.648-10.126-6.033
	C553.623,102.802,556.637,105.091,558.562,110.452z M587.752,140.976c1.281-2.723,0.335-4.773-1.882-6.081
	c-2.73-1.61-5.229-0.926-7.148,1.462c2.103,0,4.287-0.578,5.824,0.171C585.945,137.21,586.641,139.333,587.752,140.976z
	 M495.356,139.945c3.504-6.816-0.765-26.012-6.292-31.34c1.665,5.159,3.695,9.998,4.721,15.04
	C494.806,128.662,494.819,133.883,495.356,139.945z M358.316,144.297c0.146,0.283,0.296,0.565,0.444,0.847
	c0.161-0.469,0.319-0.931,0.476-1.389C358.929,143.937,358.623,144.117,358.316,144.297z M479.332,158.534
	c3.651-1.901,5.219-9.067,11.408-4.447c2.206-8.731,7.665-14.489,17.136-15.532c9.323-1.027,16.063,2.852,19.889,11.562
	c4.68-6.508,11.158-8.531,18.453-8.469c7.342,0.063,13.495,2.861,18.001,9.129c3.125-4.226,7.253-5.149,11.824-4.835
	c4.701,0.324,7.597,3.267,9.823,7.172c-0.923-6.787-5.915-8.483-11.821-9.267c1.22-4.946,0.065-9.162-2.781-12.911
	c-2.349-3.094-3.401-3.213-5.561-0.043c-2.193,3.218-4.727,4.599-8.728,4.131c-2.784-0.325-5.702,0.347-8.544,0.705
	c-6.133,0.773-7.38-0.554-5.797-6.338c1.184-0.915,2.412-1.776,3.527-2.763c3.047-2.698,2.485-7.939,6.83-9.771
	c0.242-0.102,0.465-0.672,0.414-0.976c-0.361-2.16-0.797-4.308-1.3-6.939c-4.039,2.32-7.402-0.708-11.209-2.303
	c-7.146-2.993-14.596,0.53-17.47,7.565c-0.838,2.051-2.476,4.146-4.32,5.321c-2.23,1.421-5.104,1.799-7.626,2.81
	c-0.931,0.373-1.88,1.131-2.37,1.976c-0.214,0.37,0.561,1.538,1.128,2.101c4.316,4.287,9.611,5.334,15.442,4.509
	c1.164-0.165,2.338-0.266,3.507-0.397c0.287,0.382,0.574,0.764,0.86,1.145c-2.268,2.639-4.274,5.609-6.955,7.725
	c-0.851,0.671-3.545-0.819-5.317-1.521c-8.393-3.327-22.217-0.274-26.851,10.341c-0.493,1.129-2.192,2.129-3.504,2.427
	C483.295,151.58,480.161,154.316,479.332,158.534z M527.924,128.57c-2.178,0.744-4.646,0.636-8,1
	c3.836-1.386,6.693-2.418,9.551-3.45l-0.145-1.041c-6.355,1.819-12.735,3.939-18.792-0.988c6.254-1.26,12.393-2.458,14.841-9.668
	c0.09,0.904,0.349,1.829,0.237,2.707c-0.332,2.603,0.581,4.205,3.1,5.232c1.13,0.461,2.826,2.387,2.629,2.744
	C530.574,126.499,529.339,128.087,527.924,128.57z M528.035,121.025c0.75-4.073,1.343-7.295,2.037-11.066
	C534.177,113.583,533.386,117.741,528.035,121.025z M527.546,137.103c1.541-1.768,2.242-4.278,3.275-6.474
	c0.413-0.878,0.528-1.931,1.063-2.71c1.574-2.294,2.323-4.477,0.531-5.801c0.654-3.685,1.451-6.625,1.563-9.591
	c0.043-1.147-1.26-2.69-2.369-3.369c-0.457-0.28-2.052,1.196-3.06,1.964c-0.535,0.408-0.923,1.009-1.377,1.523
	c-0.323-0.331-0.646-0.662-0.969-0.993c1.143-1.103,2.098-2.681,3.464-3.22c4.091-1.615,8.205-1.503,12.323,0.472
	c2.585,1.24,5.454,1.887,8.381,2.863v4.332c-0.572,0.913-1.482,2.282-2.308,3.701c-1.871,3.216-3.701,6.456-5.546,9.683
	c0.036-0.028,0.074-0.055,0.11-0.083c-0.7,1.963-2.409,4.438-1.76,5.716c0.747,1.472,3.646,2.6,5.592,2.574
	c5.933-0.08,11.858-0.787,17.527-1.23c1.135-1.89,2.416-4.025,3.96-6.596c3.607,3.221,4.923,6.552,4.893,10.643
	c-0.042,5.649-5.924,4.015-8.101,7.059c-11.868-10.202-23.96-10.334-36.31-1.47C523.488,142.104,523.591,141.639,527.546,137.103z
	 M459.422,62.557c0.904-0.362,1.467-1.576,2.188-2.396c-6.202,3.805-12.402,2.203-18.528,1.566
	C448.386,64.689,453.879,64.777,459.422,62.557z M445.873,32.647c10.561-16.653,23.665-15.753,34.728,2.494
	c0.766-5.691-3.876-11.914-10.589-14.538c-4.865-1.901-9.886-2.981-15.85-2.315c1.281,1.002,1.914,1.497,2.703,2.114
	C451.394,22.909,446.785,25.865,445.873,32.647z M461.391,44.483c-0.106-1.081-1.417-2.043-2.178-3.059
	c-1.029,0.88-2.625,1.581-2.972,2.677c-0.768,2.425-0.907,5.049-1.304,7.599c-3.552-1.36-3.552-1.36-9.02-10.962
	c-0.183,5.839,3.797,11.391,10.187,14.211c7.24,3.195,14.494,1.868,20.214-4.091c2.929-3.051,5.606-6.465,4.404-11.105
	c-3.703,10.865-12.469,17.181-19.225,14.24C461.496,50.624,461.691,47.529,461.391,44.483z M321.736,144.875
	c11.545-4.578,12.094-4.413,17.272,4.765c0.647-4.053-1.266-7.702-4.863-9.282C330.109,138.587,325.433,140.141,321.736,144.875z
	 M202.697,152.469c-0.628-0.158-1.385,0.202-2.082,0.32c1.766,1.276,3.511,2.056,5.322,2.265
	c11.279,1.301,22.546,3.015,33.868,3.585c30.7,1.545,61.42,3.417,92.143,3.649c57.984,0.438,115.984,0.337,173.962-0.586
	c28.827-0.459,57.623-3.159,86.419-5.046c4.314-0.283,8.594-1.52,12.814-2.608c1.769-0.456,3.523-2.077,1.587-3.832
	c-2.255-2.044-5.257-2.901-8.316-2.697c-0.185,0.389-0.371,0.777-0.556,1.166c1.463,0.954,2.925,1.907,4.706,3.068
	c-1.253,0.416-2.149,0.871-3.09,1c-6.055,0.83-12.106,1.735-18.19,2.256c-1.358,0.116-3.119-0.901-4.204-1.919
	c-2.087-1.959-4.14-2.702-7.4-1.989c2.929,1.333,5.044,2.296,7.158,3.258c-0.164,0.402-0.328,0.804-0.492,1.206
	c-1.234,0.108-2.466,0.267-3.702,0.317c-31.585,1.3-63.161,3.194-94.759,3.73c-42.108,0.714-84.238,0.786-126.351,0.346
	c-33.486-0.35-66.958-1.919-100.438-2.876C234.856,156.619,218.599,156.465,202.697,152.469z M598.835,145.175
	c9.646,1.951,19.63,2.537,28.913,7.066c-3.161,1.695-6.335,2.917-9.623,3.565c-24.848,4.893-50.081,6.233-75.276,7.592
	c-71.3,3.844-142.655,4.052-214.023,2.51c-43.862-0.948-87.663-2.973-131.31-7.636c-1.716-0.183-3.43-0.398-5.144-0.598
	c-0.073,0.506-0.147,1.012-0.22,1.518c1.107,0.392,2.186,0.986,3.326,1.142c6.43,0.88,12.858,1.832,19.316,2.437
	c45.076,4.223,90.292,5.679,135.53,6.368c75.25,1.145,150.476,0.603,225.562-5.202c18.007-1.392,36.134-2.511,53.963-8.581
	c0,4.306,0.303,8.505-0.062,12.644c-0.793,8.99-3.253,12.226-12.094,14.34c-9.94,2.377-20.002,4.44-30.122,5.839
	c-41.409,5.724-83.12,7.547-124.848,8.719c-54.36,1.527-108.727,1.338-163.05-1.4c-38.551-1.943-77.161-3.597-115.044-12.064
	c-0.775-0.173-1.698,0.311-2.551,0.489c0.009,0.352,0.019,0.705,0.028,1.057c1.742,0.527,3.453,1.212,5.23,1.552
	c6.618,1.264,13.213,2.91,19.898,3.521c30.351,2.774,60.689,6.028,91.109,7.658c60.182,3.225,120.43,3.222,180.661,0.972
	c42.467-1.586,84.924-3.525,126.87-11.058c5.865-1.053,11.635-2.842,17.3-4.736c3.833-1.282,6.169-4.192,7.319-8.332
	c1.852-6.67,1.649-13.3,1.046-20.069c-0.346-3.883-2.229-6.033-5.772-6.779c-7.815-1.646-15.654-3.192-23.517-4.589
	c-1.113-0.198-2.414,0.664-3.629,1.036C598.692,144.496,598.764,144.835,598.835,145.175z M297.108,125.088
	c2.581-1.172,5.414-2.458,8.451-3.836C301.021,119.842,297.842,121.495,297.108,125.088z M312.712,144.496
	c-1.395-3.584-3.915-4.505-6.953-4.528c-2.779-0.021-4.635,1.309-5.604,4.299C304.382,141.098,308.507,141.634,312.712,144.496z
	 M347.027,121.077c3.887-10.892,10.75-19.815,19.157-27.714c-0.52-0.414-1.041-0.828-1.561-1.242
	c-3.389,3.698-6.81,7.369-10.155,11.107c-1.739,1.943-3.04,4.403-5.061,5.946c-7.042,5.377-14.247,10.551-21.549,15.569
	c-1.463,1.005-3.63,1.358-5.471,1.356c-3.076-0.003-5.519,0.745-7.477,3.683c6.313-1.74,8.128-1.901,11.783,0.079
	c2.352,1.274,3.712,1.125,5.709-0.859c4.321-4.295,11.985-4.604,16.197-1.147c4.656,3.82,5.374,9.966,1.832,15.948
	c-1.127,1.903-2.327,3.762-3.493,5.641c9.171-3.054,13.029,2.563,16.916,8.939c-0.026-2.315-0.586-4.259-1.429-6.07
	c-1.131-2.431-2.417-4.79-3.663-7.167c-0.262,0.764-0.533,1.555-0.833,2.43c-2.151-0.535-4.01-0.997-5.939-1.477
	c3.615-7.783,3.744-12.382,0.636-17.013c-4.512-6.721-14.09-7.609-20.779-1.989c-0.84,0.706-1.969,1.068-2.965,1.59
	c-0.258-0.49-0.516-0.98-0.774-1.47c6.375-4.656,12.75-9.312,20.013-14.616c-0.852,3.461-1.428,5.803-2.005,8.144
	C346.419,120.855,346.723,120.966,347.027,121.077z M426.601,62.283h-15.93C413.899,64.827,422.301,64.849,426.601,62.283z
	 M406.07,16.686c-9.616,0.466-19.098,10.085-17.87,19.444c3.823-9.644,8.144-17.517,19.164-17.463
	c10.697,0.053,15.508,7.18,18.51,16.326C426.435,24.482,417.168,16.149,406.07,16.686z M460.407,66.699
	c-6.189-0.494-12.407-0.991-18.578-1.483C447.894,68.445,454.161,69.29,460.407,66.699z M428.09,65.761
	c-7.009,0.437-13.577,0.847-20.324,1.268C414.649,69.016,421.228,68.775,428.09,65.761z M398.474,53.547
	c7.912,3.182,15.432,2.356,22.149-3.067c4.084-3.298,5.941-8.029,4.988-11.666c-6.082,11.842-11.362,15.759-18.761,14.054
	c0-2.877,0.218-5.744-0.102-8.549c-0.137-1.203-1.393-2.279-2.141-3.412c-1.075,0.977-2.79,1.789-3.094,2.966
	c-0.687,2.661-0.677,5.502-0.967,8.437c-6.262-1.736-9.425-6.565-12.481-11.569C389.161,46.972,392.727,51.236,398.474,53.547z
	 M432.61,103.97c-2.699-0.742-4.822-3.583-6.969-5.318c0.387,4.004,3.185,6.973,7.645,7.724c4.01,0.675,7.048-0.748,8.146-3.338
	C438.665,103.408,435.353,104.724,432.61,103.97z M430.243,51.211c-0.006,0.013-0.013,0.026-0.019,0.039
	c0.04-0.011,0.08-0.023,0.119-0.034C430.31,51.214,430.276,51.212,430.243,51.211z M435.919,49.633
	c-1.861,0.518-3.719,1.052-5.576,1.582c3.354,0.173,6.711,0.345,10.458,0.538c-1.06,3.678-2.893,6.142-5.497,5.627
	c-2.163-0.427-3.904-2.993-5.832-4.611c0.25-0.507,0.501-1.014,0.751-1.521c-0.736,0.21-1.473,0.417-2.21,0.627
	c1.566,2.294,3.146,4.579,4.691,6.887c0.561,0.839,1.488,1.742,1.474,2.603c-0.061,3.615-0.27,7.242-0.692,10.834
	c-0.861,7.329-5.374,10.998-12.675,9.658c-2.935-0.538-5.568-2.717-8.331-4.145c-0.36,2.523,1.803,4.405,4.2,4.992
	c3.167,0.775,6.773,1.208,9.859,0.446c2.965-0.733,5.507-3.178,8.336-4.933c4.609,5.415,12.443,7.534,18.318,4.373
	c2.32-1.249,4.127-3.117,2.988-6.975c-2.967,5.776-5.09,6.858-11.174,6.185c-6.094-0.675-8.98-3.523-9.428-9.598
	c-0.202-2.734-0.029-5.495-0.067-8.243c-0.036-2.6,0.464-4.514,3.182-6.036c1.687-0.945,2.333-3.749,3.446-5.718
	c-1.825-0.844-3.647-1.697-5.481-2.522C436.446,49.588,436.146,49.57,435.919,49.633z M276.963,152.656
	c0.885-3.656-1.655-7.75-5.571-8.978c-3.657-1.147-7.006,0.411-8.458,3.934C269.917,142.415,273.167,143.583,276.963,152.656z
	 M636.033,290.888c-0.224,0.883-0.679,1.78-0.628,2.647c0.159,2.694,0.509,5.376,0.891,9.092c-3.367-2.611-5.639-4.372-7.911-6.134
	c-0.396,0.307-0.791,0.614-1.187,0.922l6.562,12.851c0.453-0.153,0.906-0.306,1.359-0.459c-0.178-1.439-0.355-2.878-0.573-4.641
	c4.366,2.153,5.197-0.376,4.926-4.109c1.327,1.133,2.275,1.943,3.224,2.753c0.347-0.229,0.694-0.458,1.041-0.687
	c-1.039-3.944-3.104-7.487-5.331-10.92C637.971,291.533,636.842,291.314,636.033,290.888z M654.04,285.355
	c-2.267,0.783-5.083,2.356-5.867,4.323c-0.652,1.638,1.277,4.305,2.373,7.39c-0.554,1.258-3.954,2.658-3.289,5.76
	c0.612,0.471,1.223,0.941,1.835,1.412c1.676-2.494,3.353-4.989,5.029-7.483c0.273,0.286,0.545,0.572,0.818,0.858
	c0.284,1.86,0.568,3.719,0.852,5.579l1.694-0.026c0.348-5.199,0.903-10.401,0.833-15.595
	C658.307,286.745,655.149,284.972,654.04,285.355z M654.127,292.724c-0.922,0.229-2.267-1.248-3.423-1.965
	c1.465-1.101,2.864-2.32,4.446-3.213c0.353-0.2,1.351,0.742,2.849,1.631C656.332,290.802,655.39,292.411,654.127,292.724z
	 M602.899,192.634c-2.913,9.134-6.458,18.175-8.219,27.543c-2.741,14.584-4.05,29.43-6.288,44.116
	c-2.882,18.914-8.895,36.604-21.308,51.638c-6.417,7.772-13.859,14.35-22.257,19.902c-0.973,0.643-1.495,1.967-2.227,2.976
	l0.977,0.728c0.65-0.31,1.342-0.555,1.945-0.94c16.89-10.789,29.549-25.191,37.298-43.771c5.831-13.979,8.199-28.744,10.092-43.648
	c2.091-16.455,3.197-33.108,8.799-48.929c1.52-4.292,3.317-8.486,4.987-12.725c-0.353-0.258-0.705-0.516-1.057-0.775
	C604.704,190.038,603.358,191.194,602.899,192.634z M516.361,300.094c1.988,6.349,4.773,12.288,8.85,17.564
	c0.334-0.172,0.669-0.344,1.004-0.515c-2.988-5.835-5.975-11.671-8.963-17.506C516.955,299.789,516.658,299.942,516.361,300.094z
	 M526.803,292.638c1.155,8.082,2.31,16.164,3.464,24.246c0.504-0.071,1.008-0.141,1.513-0.212l-3.35-24.263
	C527.888,292.485,527.346,292.562,526.803,292.638z M536.77,299.611c-0.579,5.392-1.158,10.783-1.737,16.175
	c0.436,0.046,0.871,0.092,1.307,0.138c0.569-5.393,1.138-10.786,1.707-16.178C537.621,299.701,537.196,299.656,536.77,299.611z
	 M664.453,290.821c-2.147,4.144-0.808,7.05,0.69,9.654c1.268,2.204,0.935,3.573-0.823,5.148c-0.981,0.879-1.611,2.149-2.703,3.663
	c4.515-0.339,13.527-10.117,14.168-15.496c-2.698,2.537-4.822,4.534-7.386,6.945C667.067,297.391,665.95,294.584,664.453,290.821z
	 M568.695,341.664c-4.901-0.213-9.838,0.394-15.239,0.667c-0.567-1.431-1.375-3.473-2.184-5.515
	c-0.46,0.136-0.921,0.272-1.381,0.408c0.367,1.797,0.933,3.581,1.057,5.395c0.238,3.482,1.83,3.295,4.728,2.726
	c4.323-0.85,8.93-1.5,13.235-0.912c6.539,0.893,11.723,6.752,12.698,12.26c0.608,3.432-1.529,5.03-3.851,6.008
	c-1.456,0.613-3.947,0.379-5.245-0.523c-5.794-4.028-12.035-5.293-18.871-4.08c-2.549,0.452-5.075,1.033-8.58,1.755
	c-1.585-8.921-3.214-17.581-4.527-26.289c-0.126-0.835,1.539-2.249,2.659-2.911c4.814-2.844,8.915-5.944,8.521-12.45
	c-0.503-8.299-1.692-9.341-9.673-7.336c0.298-3.879,0.859-7.703,0.829-11.522c-0.065-8.384-5.173-14.147-13.432-13.84
	c-4.618,0.171-9.54,1.976-13.638,4.271c-7.879,4.413-9.313,9.41-6.484,18.011c0.911,2.769,1.833,5.533,2.992,9.029
	c-3.811-1.827-6.665-2.393-8.942,0.999c-4.83,7.196-2.145,18.287,6.085,20.687c5.206,1.518,6.674,4.613,8.003,8.768
	c0.493,1.541,1.381,2.978,1.713,4.542c0.213,1.005,0.083,2.404-0.488,3.2c-3.001,4.18-1.964,8.936,2.685,11.198
	c1.204,0.586,2.53,0.922,3.7,1.337c0.446,2.611,0.342,5.327,1.417,7.445c1.335,2.63,3.164,5.85,5.613,6.934
	c13.781,6.101,27.965,5.9,41.934,0.62c5.857-2.214,7.263-7.607,4.364-13.294c-0.548-1.074-1.13-2.131-1.734-3.266
	c0.8-0.614,1.38-1.071,1.972-1.511c6.718-4.992,7.244-10.126,1.583-16.435C577.128,344.596,573.385,341.868,568.695,341.664z
	 M577.135,375.001c0.087,1.622-0.928,3.304-1.435,4.958c-0.326-0.126-0.652-0.253-0.978-0.379c-0.959-2.439-1.55-5.126-2.982-7.246
	c-1.404-2.079-3.662-3.582-5.545-5.337c-0.268,0.237-0.535,0.475-0.803,0.712c1.131,1.354,2.563,2.56,3.322,4.099
	c1.098,2.224,2.546,4.77,2.328,7.033c-0.321,3.337-3.788,3.438-6.492,3.871c-1.067,0.171-2.164,0.159-3.296,0.234
	c0.781-7.202-1.944-12.269-8.486-14.897c2.047,2.432,3.972,4.073,5.022,6.156c0.962,1.908,1.631,4.416,1.249,6.437
	c-0.494,2.614-2.997,3.458-5.643,3.098c-5.423-0.737-10.874-1.326-16.253-2.309c-6.16-1.126-9.234-5.137-9.271-11.346
	c-0.019-3.285-0.638-5.601-4.53-6.392c-1.497-0.304-2.939-2.492-3.657-4.147c-0.257-0.592,1.863-2.045,2.58-3.288
	c0.505-0.875,0.916-2.222,0.602-3.077c-1.201-3.276-2.835-6.393-4.059-9.662c-0.653-1.745-0.799-3.68-1.275-6.032
	c-1.212-0.222-3.043-0.504-4.85-0.896c-7.042-1.529-10.746-8.143-8.371-14.89c1.433-4.07,3.215-4.604,6.569-1.908
	c2.039,1.639,4.018,3.351,6.025,5.03c0.339-0.267,0.678-0.534,1.017-0.801c-0.389-1.214-0.732-2.445-1.176-3.638
	c-1.786-4.8-3.75-9.54-5.372-14.394c-2.076-6.215-1.106-9.709,4.335-13.25c3.276-2.132,7.054-3.95,10.849-4.733
	c7.901-1.63,13.951,3.558,13.668,11.618c-0.192,5.458-1.332,10.882-2.033,16.324c-0.162,1.256-0.261,2.519-0.49,4.767
	c2.596-2.928,4.256-5.23,6.341-7.044c2.735-2.38,3.937-1.801,4.656,1.781c1.335,6.655-1.239,10.83-8.863,12.581
	c2.582-2.82,5.163-5.64,7.745-8.461c-0.304-0.247-0.609-0.493-0.913-0.74c-3.364,3.195-8.642,5.2-7.99,11.177
	c0.985,9.028,2.295,18.04,3.986,26.96c0.555,2.93,0.595,4.713-2.306,5.965c-1.338,0.577-2.532,1.489-3.791,2.249
	c0.376,0.452,0.753,0.904,1.129,1.355c0.611-0.178,1.334-0.203,1.815-0.557c6.139-4.516,13.138-5.994,20.556-5.585
	C568.829,360.881,576.742,367.658,577.135,375.001z M157.974,197.922c9.377,0.072,16.651-4.357,20.886-12.31
	c4.017-7.543,6.655-15.829,9.793-23.83c3.917-9.988,12.604-13.636,22.439-9.337c1.183,0.517,2.427,0.892,4.622,1.687
	c-1.13-1.723-1.636-2.495-2.319-3.536c1.212,0,1.959,0.036,2.702-0.01c0.736-0.046,1.466-0.174,3.112-0.38
	c-18.236-3.208-26.511-3.389-33.764,13.314c0-4.406,0.186-8.458-0.051-12.486c-0.25-4.257-2.31-5.57-6.302-4.081
	c-3.623,1.351-7.132,3.015-10.666,4.599c-4.513,2.022-4.502,2.047-5.739-2.866c-2.892-11.486-7.92-14.744-19.631-12.793
	c-1.1,0.183-2.257,0.024-4.155,0.024c1.374-2.415,2.205-4.2,3.319-5.785c12.824-18.237,30.495-26.691,52.593-24.618
	c21.206,1.989,38.672,11.251,50.803,29.311c0.758,1.128,1.66,3.03,1.212,3.939c-1.555,3.158-3.677,6.037-5.614,9.069
	c-8.405-2.84-15.956-0.119-16.668,6.996c5.104-6.909,10.958-8.972,18.053-4.426c3.104-9.881,10.084-15.151,20.356-15.609
	c10.364-0.463,17.669,3.565,20.565,14.416c0.534-1.299,0.332-2.273,0.573-3.121c0.684-2.409,0.986-5.247,2.494-7.015
	c1.659-1.945,2.168-3.212,1.458-5.764c-3.211-11.538,3.414-22.923,13.944-24.458c4.91-0.716,9.268,0.715,13.262,3.956
	c0.052-10.991,3.427-15.018,12.341-14.39c-3.53-6.586-3.874-13.168-1.472-20c2.309-6.569,5.883-12.171,11.582-16.182
	c5.837-4.108,12.28-5.707,19.39-3.69c2.954-5.62,4.758-6.786,8.816-5.531c-0.521,6.177-1.59,12.398-1.394,18.58
	c0.158,4.98-1.716,7.285-6.222,8.168c-5.502-5.041-9.123-5.71-14.651-2.691c-5.276,2.881-8.588,8.445-7.79,13.082
	c7.408-14.682,13.673-17.155,22.136-8.767c1.922-0.757,3.844-1.513,6.468-2.546c0.625,9.979,3.759,18.299,8.556,26.072
	c0.453,0.735,0.313,2.203-0.108,3.056c-7.833,15.888-6.076,32.018-1.32,48.228c0.262,0.893,0.902,1.675,1.366,2.508
	c0.36-0.103,0.719-0.206,1.079-0.309c-4.911-16.876-7.439-33.692,0.428-50.346c4.24,3.056,8.249,5.946,12.258,8.836
	c-3.075-3.961-6.944-6.97-9.96-10.673c-9.34-11.47-11.185-25.053-10.178-39.285c0.84-11.875,2.878-23.519,7.166-34.642
	c-0.934-0.795-1.998-1.278-2.366-2.08c-3.405-7.431-6.016-15.147-6.128-23.389c-0.06-4.445,3.108-6.271,7.14-4.479
	c2.267,1.008,4.477,2.267,6.472,3.739c5.289,3.903,10.448,7.984,15.796,12.1c8.223-6.519,16.919-9.581,25.532-2.639
	c1.806-0.889,2.951-1.945,4.085-1.933c9.734,0.102,19.465,0.395,29.197,0.633c8.882,0.218,17.993,3.99,26.678-2.287
	c0.697,3.813,3.161,4.765,6.142,4.813c2.426,0.039,3.747,1.104,3.847,3.572c0.168,4.14,1.321,7.676,6.124,8.897
	c-0.781,1.401-1.132,2.558-1.891,3.297c-2.509,2.445-2.02,5.01-1.158,8.047c3.881,13.678,6.278,27.602,4.24,41.843
	c-2.051,14.335-8.902,25.551-22.418,31.979c-0.668,0.318-1.247,0.824-2.634,1.758c12.782-2.508,18.883-11.433,24.532-21.924
	c1.638,2.649,2.632,4.256,3.767,6.091c3.608-2.83,7.465-5.198,12.303-3.776c4.894,1.438,7.151,5.208,8.091,10.052
	c1.333-4.211-0.492-7.209-3.427-9.578c-5.432-4.386-10.897-3.125-16.011,0.411c-4.094-2.707-4.351-5.946-3.083-10.281
	c1.169-3.998,1.188-8.379,1.374-12.607c0.212-4.814,0.049-9.644,0.049-14.912c4.843-0.26,9.313,1.435,13.089,4.655
	c8.817,7.519,10.371,17.442,8.658,27.796c2.908-0.268,5.926-1.334,8.336-0.544c2.35,0.77,4.079,3.436,6.231,5.408
	c4.699-5.998,11.609-7.576,19.11-6.486c10.805,1.569,15.543,11.006,10.776,20.732c-0.147,0.3-0.111,0.69-0.217,1.434
	c4.53-1.893,9.241-2.411,11.768,2.073c1.964,3.485,2.258,7.911,3.301,11.946c7.607-2.152,12.4-1.156,15.402,3.565
	c3.202,5.035,2.153,9.793-2.854,15.41c0.693,2.474,1.201,4.287,1.93,6.892c0.521-1.675,1.411-2.971,1.083-3.764
	c-1.046-2.527,0.261-4.095,1.465-6.036c4.988-8.04-0.75-18.425-10.221-18.68c-1.825-0.049-3.653-0.007-5.469-0.007
	c-0.989-10.25-2.448-12.004-12.399-14.989c0.764-8.561-1.134-13.808-6.755-17.295c-9.534-5.916-18.542-3.553-26.765,2.014
	c-2.087-1.404-3.778-3.043-5.796-3.755c-1.992-0.703-4.314-0.47-6.596-0.656c0-0.927-0.065-1.906,0.01-2.874
	c0.973-12.502-7.827-27.846-22.853-28.423c-0.981-0.038-2.403-1.814-2.745-3.028c-1.555-5.523-2.887-11.115-4.081-16.728
	c-0.264-1.239-0.04-2.931,0.641-3.966c5.085-7.736,8.339-16.206,10.348-25.171c1.557-6.95-1.232-9.407-8.159-7.407
	c-0.719,0.208-1.463,0.404-2.117,0.753c-6.921,3.697-13.803,7.466-20.757,11.101c-1.21,0.632-2.794,1.233-4.045,0.998
	c-16.419-3.087-32.92-4.377-49.601-2.825c-1.321,0.123-2.773,0.019-4.016-0.409c-6.767-2.331-13.083-1.513-18.863,2.643
	c-2.246,1.615-3.892,1.286-6.001-0.317c-5.168-3.928-10.439-7.737-15.852-11.317c-2.686-1.777-5.829-3.457-9.115-1.496
	c-3.444,2.055-3.669,5.735-2.92,9.034c1.568,6.91,3.734,13.682,5.512,20.548c0.478,1.845,0.87,3.899,0.55,5.726
	c-0.664,3.801-1.898,7.499-2.76,11.271c-0.427,1.869-1.043,2.863-3.26,3.317c-2.135,0.437-3.972,2.24-5.999,3.334
	c-1.488,0.804-3.078,2.059-4.608,2.037c-8.371-0.116-15.538,2.578-21.114,8.796c-8.059,8.985-12.037,19.148-7.612,31.515
	c-7.743,0.702-10.328,6.015-11.564,12.443c-16.747-7.373-32.879,7.88-25.976,27.469c-4.399-0.063-8.516,0.939-12.833-1.214
	c-6.609-3.296-13.591-2.647-20.419-0.198c-1.485,0.533-2.92,1.206-4.423,1.833c-1.342-1.893-2.403-3.591-3.658-5.13
	c-17.642-21.648-40.14-31.777-68.057-27.383c-32.648,5.138-63.257,46.245-36.471,84.49
	C145.189,194.38,150.817,197.867,157.974,197.922z M482.938,10.023c5.562-2.732,11.222-5.361,17.068-7.38
	c3.316-1.145,4.699,0.445,5.311,4.083c-2.437,6.513-4.813,13.051-7.418,19.496c-0.224,0.553-2.661,0.97-2.898,0.631
	c-1.217-1.74-2.605-3.668-2.898-5.682c-0.548-3.759-1.806-6.142-6.047-5.959c-0.949,0.041-2.097-0.203-2.849-0.742
	C481.423,13.191,480.562,11.191,482.938,10.023z M137.931,138.037c2.106-0.157,3.833-0.075,5.459-0.441
	c9.665-2.174,14.647,0.767,17.356,10.383c2.246,7.97,2.229,7.935,9.895,4.361c3.054-1.424,6.166-2.735,9.308-3.952
	c2.267-0.878,3.92,0.113,3.866,2.481c-0.263,11.682,0.865,23.775-6.595,33.921c-2.584,3.515-6.084,6.731-9.841,8.932
	c-7.768,4.552-16.855,2.975-22.927-3.681C134.831,179.494,127.213,156.085,137.931,138.037z M673.33,405.814
	c1.847-1.31,3.693-2.619,5.54-3.929c-0.245-0.38-0.49-0.761-0.736-1.141c-1.937,1.195-3.874,2.391-5.811,3.587
	C672.66,404.825,672.995,405.32,673.33,405.814z M779.354,298.002c-1.502-2.82-3.724-1.667-5.828-0.706
	c-8.178,3.737-16.393,7.395-24.53,11.219c-4.654,2.187-8.175,5.529-10.204,10.444c-4.813,11.661-9.968,23.183-14.596,34.914
	c-1.503,3.809-3.465,4.612-7.287,4.149c-7.858-0.952-15.739-0.535-23.373,1.786c-4.343,1.32-5.31,3.233-4.727,7.527
	c0.249,1.831,0.372,3.727,0.192,5.559c-0.474,4.816-1.147,9.612-1.801,14.902c-4.582,0.937-9.623,1.47-14.31,3.05
	c-5.974,2.014-12.144,4.141-17.357,7.552c-7.01,4.588-6.78,11.301,0.067,16.217c3.492,2.507,7.534,4.597,11.64,5.847
	c28.564,8.694,57.344,8.835,86.097,1.033c4.845-1.315,9.695-3.523,13.826-6.36c7.831-5.379,7.335-12.546-0.675-17.72
	c-6.833-4.413-14.437-6.764-22.357-8.251c-0.762-0.143-1.504-0.389-2.7-0.705c5.227-4.206,8.569-9.187,5.977-15.273
	c-2.375-5.576-8.098-6.098-13.921-5.541c3.573-5.512-2.042-6.047-4.159-8.588c4.505-10.971,9.002-21.933,13.506-32.892
	c2.319-5.643,5.945-9.975,11.711-12.482c7.443-3.236,14.783-6.711,22.14-10.141C779.016,302.456,780.883,300.875,779.354,298.002z
	 M764.264,399.523c7.255,4.473,7.781,10.266,0.303,14.259c-6.392,3.413-13.513,5.969-20.615,7.451
	c-23.817,4.967-47.679,4.43-71.281-1.636c-4.664-1.199-9.252-3.161-13.482-5.487c-8.215-4.517-8.376-11.155-0.107-15.426
	c5.794-2.992,12.26-4.735,18.514-6.762c3.425-1.11,7.035-1.651,10.13-2.352c3.044,3.249,5.748,6.112,8.418,9.007
	c0.399,0.433,0.904,1.009,0.912,1.526c0.068,4.809,3.701,6.123,7.259,6.656c4.146,0.621,8.457,0.648,12.65,0.33
	c5.062-0.385,6.249-1.809,7.568-6.862c0.168-0.644,0.777-1.201,1.257-1.73c2.559-2.824,5.141-5.626,8.183-8.948
	C743.669,392.331,754.684,393.617,764.264,399.523z M699.01,401.264c7.877,2.321,15.624,2.502,23.586-0.104
	c-1.414,3.994-5.143,4.128-8.324,4.394C708.787,406.012,703.269,405.74,699.01,401.264z M745.806,379.803
	c-1.519,5.163-6.17,8.239-12.944,8.076c0.819-1.455,1.16-3.005,1.903-3.23c6.267-1.9,8.557-6.525,8.893-12.913
	C747.064,374.026,746.645,376.952,745.806,379.803z M734.159,382.541c-2.484-5.631,0.203-9.371,7.455-10.375
	C742.288,377.271,739.033,381.8,734.159,382.541z M740.429,369.67c-2.787,1.824-5.121,3.351-7.585,4.964
	C731.728,369.638,734.112,367.981,740.429,369.67z M729.335,362.146c1.733,0.066,3.542,1.035,2.539,3.443
	c-2.024,4.859-1.193,9.72-0.47,14.694c1.774,12.212-9.056,21.998-22.605,20.639c-13.399-1.344-20.543-10.589-18.729-23.928
	c0.463-3.407-0.049-6.949,0.439-10.35c0.237-1.653,1.425-4.076,2.736-4.522c8.878-3.018,18.017-3.172,27.554-1.718
	c-2.348,6.984-2.352,7.129-8.685,6.966c-4.227-0.109-8.47-0.521-12.65-1.163c-1.975-0.304-3.819-1.465-6.547-1.775
	c0.849,0.897,1.564,2.353,2.57,2.593c3.866,0.923,7.818,1.967,11.75,2.019c6.334,0.084,12.686-0.487,19.014-0.992
	c1.906-0.152,3.885-0.882,3.661-4.063c-1.219,0.656-2.088,1.123-3.09,1.662c-0.074-0.433-0.293-0.907-0.158-1.051
	C727.513,363.69,728.468,362.113,729.335,362.146z M729.743,353.101c-1.618,3.789-3.255,7.578-5.107,11.255
	c-0.55,1.092-1.863,1.799-2.826,2.682c-0.286-0.269-0.571-0.538-0.857-0.808c0.231-0.797,0.387-1.627,0.705-2.388
	c5.357-12.783,10.729-25.56,16.112-38.332c0.712-1.689,1.205-3.885,4.43-1.815C738.013,333.591,733.905,343.358,729.743,353.101z
	 M776.865,301.547c-7.65,3.675-15.358,7.232-23.111,10.687c-0.562,0.251-1.582-0.526-2.389-0.825
	c0.506-0.93,0.781-2.347,1.554-2.713c7.332-3.475,14.747-6.772,22.141-10.117c0.451-0.204,0.916-0.376,2.291-0.937
	c0.085,0.245,0.517,0.864,0.442,1.414C777.673,299.936,777.453,301.265,776.865,301.547z M673.15,389.297
	c-17.76-1.167-35.403-1.609-52.915-5.737c1.159-7.24,2.206-14.123,3.435-20.974c0.138-0.767,1.206-1.544,2.022-1.983
	c7.04-3.794,14.095-7.561,21.222-11.188c0.901-0.458,2.511-0.496,3.331,0.015c6.145,3.824,12.16,7.856,18.242,11.783
	c12.243,7.904,10.066,5.062,10.202,18.583c0.026,2.633,0.004,5.266,0.004,7.9c0.591,0.078,1.181,0.156,1.772,0.234
	c0.329-1.191,0.914-2.376,0.945-3.574c0.136-5.246-0.051-10.506,0.232-15.741c0.099-1.841,0.789-3.962,1.926-5.381
	c4.685-5.848,9.83-11.333,14.408-17.259c1.67-2.162,2.312-5.118,3.383-7.743c0.498,1.432,1.332,2.851,1.381,4.297
	c0.12,3.489-0.273,6.994-0.195,10.487c0.028,1.27,0.802,2.523,1.236,3.783c0.496-1.248,1.158-2.459,1.44-3.754
	c0.262-1.2,0.1-2.489,0.155-3.737c0.638-14.35,0.771-28.745,2.045-43.039c1.897-21.276,4.572-42.484,7.002-63.71
	c0.324-2.826-0.339-4.979-2.247-7.141c-6.457-7.317-11.933-15.124-10.87-25.679c0.11-1.095-0.318-2.234-0.31-3.351
	c0.022-3.08-1.485-4.054-4.471-4.009c-17.104,0.261-34.209,0.453-51.315,0.519c-7.075,0.027-7.339-0.143-7.361,6.854
	c-0.016,5.337-1.483,9.733-4.596,14.165c-4.437,6.314-8.024,13.235-11.813,19.986c-0.815,1.451-1.333,3.288-1.329,4.945
	c0.028,10.741-0.28,21.519,0.494,32.214c1.644,22.704,3.368,45.388,1.267,68.134c-0.988,10.694-2.439,21.349-3.854,31.999
	c-0.395,2.973,0.134,4.388,3.396,5.235c14.541,3.774,29.381,4.29,44.249,4.5C668.15,390.962,670.654,389.869,673.15,389.297z
	 M678.675,357.148c-0.304,2.187-0.054,4.45-0.054,7.722c-2.946-1.864-5.125-3.228-7.29-4.614
	c-6.924-4.434-13.805-8.939-20.813-13.237c-0.887-0.544-2.639-0.424-3.636,0.083c-6.219,3.163-12.336,6.527-18.493,9.815
	c-1.17,0.625-2.366,1.203-4.349,2.207c0.438-4.712,0.651-8.641,1.27-12.506c0.151-0.946,1.501-1.907,2.516-2.474
	c6.312-3.528,12.654-7.005,19.069-10.338c1.019-0.529,2.803-0.784,3.658-0.248c7.913,4.965,15.61,10.277,23.566,15.17
	C677.467,350.786,679.238,353.105,678.675,357.148z M678.833,342.741c-0.288,1.663-0.046,3.417-0.046,6.331
	c-9.616-6.151-18.282-11.555-26.766-17.229c-1.896-1.268-3.1-1.777-5.233-0.509c-5.683,3.381-11.547,6.458-17.345,9.644
	c-1.053,0.578-2.136,1.102-3.265,1.682c-1.862-6.725-0.703-10.04,4.618-13.331c5.31-3.284,10.633-6.554,16.065-9.628
	c1.058-0.599,2.963-0.834,3.931-0.281c7.584,4.33,14.886,9.174,22.586,13.276C677.755,335.025,679.676,337.872,678.833,342.741z
	 M678.815,331.845c-0.009,0.2-0.247,0.39-0.528,0.808c-0.721-0.299-1.533-0.528-2.235-0.944c-8.373-4.96-16.7-9.999-25.132-14.854
	c-0.885-0.509-2.611-0.399-3.533,0.136c-6.042,3.508-11.969,7.215-17.936,10.851c-0.919,0.56-1.854,1.094-3.026,1.783
	c-0.256-0.777-0.506-1.211-0.531-1.657c-0.776-13.957-1.429-27.922-2.367-41.868c-0.203-3.018,0.744-4.406,3.394-5.676
	c6.751-3.236,13.354-6.789,19.957-10.326c2.463-1.32,4.739-1.307,7.066,0.134c8.484,5.253,16.99,10.472,25.412,15.825
	c0.74,0.471,1.338,1.834,1.303,2.756C680.117,303.16,679.462,317.503,678.815,331.845z M704.046,309.411
	c-0.371,7.974-0.692,15.951-1.213,23.916c-0.107,1.631-0.983,3.212-1.507,4.817c0.001,0.003,0.002,0.006,0.003,0.009
	c-5.497,6.529-10.99,13.061-16.498,19.582c-0.77,0.911-1.612,1.761-3.325,2.379c0-4.543,0.335-9.116-0.075-13.621
	c-0.694-7.638,1.424-13.874,6.697-19.626c4.778-5.212,8.558-11.338,12.788-17.053c0.773-1.045,1.597-2.053,2.981-3.825
	C703.982,307.802,704.083,308.61,704.046,309.411z M707.48,281.15c-0.51,4.089-1.232,8.16-1.539,12.264
	c-0.444,5.923-1.904,11.047-6.282,15.656c-5.306,5.586-9.603,12.13-14.355,18.245c-0.742,0.955-1.582,1.833-3.08,3.555
	c-0.135-2.122-0.305-3.27-0.266-4.411c0.425-12.359,0.841-24.719,1.388-37.073c0.061-1.373,0.551-3.052,1.455-4.012
	c7.447-7.91,15.035-15.687,22.594-23.491c0.498-0.514,1.102-0.925,1.657-1.384c0.309,0.104,0.619,0.209,0.928,0.313
	C709.148,267.592,708.325,274.372,707.48,281.15z M706.792,259.802c-6.278,6.413-12.492,12.887-18.753,19.317
	c-1.1,1.13-2.297,2.165-4.165,3.915c-0.255-6.229-0.072-10.714,4.4-14.784c7.54-6.862,14.273-14.611,21.353-21.98
	c0.497-0.517,1.052-0.979,1.673-1.551C712.353,250.856,710.822,255.686,706.792,259.802z M621.898,249.099
	c0.023-1.626,0.814-3.37,1.647-4.836c4.443-7.82,9.139-15.499,13.469-23.379c1.557-2.833,3.414-3.181,6.394-2.213
	c-3.744,7.288-2.755,14.272,4.005,19.99c5.251,4.442,11.299,1.372,16.556-1.049c6.079-2.799,7.438-7.885,5.522-18.328h27.288
	c0.003-0.373,0.007-0.747,0.01-1.12c-2.776-0.122-5.551-0.266-8.328-0.362c-4.246-0.147-8.492-0.27-12.738-0.386
	c-3.657-0.099-6.889-0.11-10.184-3.042c-4.371-3.89-9.996-3.384-14.987-0.102c-3.31,2.176-6.81,2.864-11.177,2.018
	c0.344-3.471,0.565-6.898,1.129-10.268c0.099-0.593,1.64-1.354,2.51-1.348c16.239,0.122,32.478,0.349,48.717,0.555
	c0.624,0.008,1.251,0.079,1.873,0.048c5.896-0.293,6.314-0.256,5.747,5.542c-1.098,11.232,4.938,19.189,11.574,26.939
	c1.248,1.457,1.955,2.515,0.443,4.086c-8.645,8.988-17.282,17.985-25.922,26.979l-0.984-0.315v-14.716
	c-0.38-0.011-0.759-0.022-1.139-0.033c-0.53,5.751-1.059,11.502-1.641,17.824c-1.333-0.705-2.295-1.124-3.162-1.687
	c-6.809-4.422-13.651-8.797-20.379-13.342c-4.096-2.767-7.86-3.356-12.454-0.673c-7.107,4.149-14.589,7.655-22.546,11.761
	c-0.358-1.329-0.787-2.248-0.827-3.184C622.094,259.339,621.825,254.216,621.898,249.099z M664.192,234.095
	c-1.415-1.756-2.835-3.518-4.255-5.28c-0.25,0.164-0.501,0.328-0.751,0.492c1.014,1.896,2.028,3.793,3.134,5.86
	c-1.502,1.671-2.984,2.428-4.672,0.047c-1.068-1.507-2.202-2.966-4.004-4.032c1.136,1.858,2.273,3.716,3.412,5.578
	c-3.386,1.837-5.892-0.548-8.192-7.334c4.713-1.731,9.421-3.46,14.378-5.28C667.207,228.276,667.693,231.365,664.192,234.095z
	 M664.193,218.73c0.45-0.102,0.9-0.203,1.35-0.305c3.313,6.633,3.313,6.633,1.816,9.78
	C666.131,224.532,665.162,221.631,664.193,218.73z M650.947,237.681c-4.158-1.512-4.844-5.594-6.432-9.008
	C649.095,229.873,648.948,234.572,650.947,237.681z M659.823,222.188c-3.497,1.971-7.405,3.213-11.108,4.722
	c-2.093-0.995-4.183-1.353-4.879-2.533c-0.502-0.851,0.532-3.045,1.435-4.209c3.353-4.321,8.401-5.059,13.372-5.449
	c0.987-0.077,2.972,1.68,2.995,2.628C661.679,218.999,661.021,221.512,659.823,222.188z M629.037,266.98
	c6.149-3.064,12.324-6.082,18.38-9.321c2.997-1.604,5.632-1.471,8.438,0.299c8.023,5.061,16.102,10.032,24.122,15.096
	c0.653,0.412,1.455,1.267,1.456,1.918c0.006,3.066-0.244,6.133-0.445,10.019c-6.734-4.355-12.757-8.26-18.79-12.149
	c-2.727-1.758-5.43-3.56-8.225-5.203c-2.412-1.418-4.755-1.46-7.381,0.042c-5.96,3.41-12.097,6.51-18.174,9.713
	c-1.506,0.794-3.06,1.496-4.717,2.301c-0.425-0.793-0.518-0.896-0.537-1.012C621.849,270.536,621.86,270.557,629.037,266.98z
	 M678.347,250.376c-16.937-2.2-34.02-2.282-51.035-3.354c-0.04,0.558-0.08,1.116-0.12,1.674c16.991,1.192,33.983,2.385,50.974,3.577
	C678.227,251.64,678.287,251.008,678.347,250.376z M685.552,249.476c4.508-9.169,9.016-18.338,13.524-27.507
	c-0.359-0.193-0.719-0.386-1.078-0.579c-3.109,2.491-13.897,24.635-13.441,27.589C684.888,249.145,685.22,249.311,685.552,249.476z
	 M685.14,400.908c2.566-0.494,5.132-0.988,7.698-1.483c-0.064-0.477-0.128-0.955-0.192-1.432c-2.597,0.469-5.195,0.939-7.792,1.408
	C684.949,399.904,685.044,400.406,685.14,400.908z M730.314,395.651c1.687,0.984,2.604,1.519,3.818,2.227
	c-1.939,0.107-3.441,0.191-4.942,0.274c0.016,0.151,0.031,0.303,0.047,0.454c7.05,2.251,14.1,4.501,21.297,6.799
	c-0.149-0.709-0.341-1.62-0.649-3.086c3.103,2.242,1.89,4.047,0.087,5.018c-2.715,1.462-5.651,2.761-8.65,3.411
	c-19.314,4.182-38.697,4.157-58.031,0.158c-3.371-0.697-6.759-1.952-9.763-3.625c-3.482-1.94-3.376-4.237,0.319-5.816
	c4.095-1.75,8.523-2.724,12.811-4.02c1.183-0.358,2.385-0.656,3.578-0.981c-0.05-0.309-0.101-0.617-0.151-0.926
	c-0.781-0.099-1.625-0.44-2.335-0.258c-4.819,1.237-9.76,2.215-14.339,4.071c-1.93,0.782-4.151,3.433-4.255,5.343
	c-0.088,1.627,2.346,4.138,4.232,4.971c4.074,1.799,8.435,3.178,12.816,4.004c12.711,2.395,25.584,2.824,38.45,1.724
	c8.569-0.733,17.284-1.343,25.099-5.433c1.883-0.985,4.343-3.294,4.29-4.921c-0.062-1.913-2.209-4.727-4.092-5.426
	c-5.328-1.978-10.974-3.107-16.518-4.476C732.746,394.967,731.917,395.366,730.314,395.651z M182.656,370.774
	c36.066,3.346,72.132,6.692,108.198,10.038c0.049-0.536,0.099-1.072,0.148-1.609c-36.03-3.283-72.06-6.565-108.089-9.848
	C182.827,369.828,182.742,370.301,182.656,370.774z M182.079,356.199c36.305,3.229,72.611,6.458,108.916,9.687
	c0.051-0.592,0.102-1.183,0.153-1.775c-36.321-3.049-72.642-6.098-108.964-9.147C182.149,355.376,182.114,355.788,182.079,356.199z
	 M288.835,394.387c-36.45-3.582-72.899-7.163-109.348-10.745C215.756,389.059,252.115,393.564,288.835,394.387z M507.777,73.511
	c2.148,2.307,4.497,4.828,6.637,7.125C514.451,76.131,511.837,73.436,507.777,73.511z M272.247,268.423
	c1.656,1.142,3.023,2.703,4.29,3.865c2.217-1.001,4.747-2.09,7.228-3.281c1.782-0.856,3.708-1.593,5.203-2.828
	c4.344-3.588,3.437-9.132-1.711-11.4c-6.081-2.679-14.453,0.497-17.193,6.571C268.732,264.306,269.56,266.569,272.247,268.423z
	 M281.632,260.425c0.462-1.06,1.656-2.724,2.252-2.617c1.415,0.255,3.064,1.137,3.84,2.289c0.454,0.675-0.21,2.831-1.034,3.484
	c-1.655,1.312-3.765,2.05-5.688,3.025c-0.303-0.319-0.606-0.639-0.909-0.958C280.586,263.9,280.912,262.077,281.632,260.425z
	 M272.979,262.429c0.935-3.012,2.931-5.057,6.926-4.279c-0.694,2.122-1.084,4.217-2.076,5.973c-0.506,0.895-2.51,1.91-3.093,1.576
	C273.785,265.154,272.704,263.317,272.979,262.429z M284.531,409.613c-36.486-3.853-72.971-7.707-109.457-11.56
	C211.329,403.943,247.705,408.673,284.531,409.613z M346.61,67.963c2.65-1.048,5.497-2.173,7.959-3.147
	C351.396,62.756,348.283,63.914,346.61,67.963z M512.716,348.896c-13.902,1.464-27.787,3.09-41.694,4.499
	c-1.22,0.124-2.991-0.619-3.785-1.565c-9.07-10.807-18.063-21.68-26.911-32.669c-1.664-2.066-3.368-2.994-5.971-3.058
	c-1.296-0.032-2.824-0.774-3.806-1.675c-4.508-4.141-8.696-8.643-13.315-12.65c-4.859-4.216-9.157-8.598-11.199-14.981
	c-0.569-1.778-2.858-3.198-4.636-4.352c-3.1-2.012-6.398-3.725-9.656-5.485c-0.766-0.414-1.7-0.516-2.557-0.761
	c0.025,0.913-0.109,1.865,0.104,2.731c0.827,3.357,1.582,6.75,2.722,10.004c0.818,2.336,1.633,5.34,3.446,6.538
	c5.501,3.635,8.583,8.72,11.111,14.529c1.99,4.572,4.586,8.878,6.808,13.354c0.443,0.892,0.771,2.121,0.521,3.02
	c-0.554,1.997-1.508,3.883-2.391,6.039c-4.314,0.333-4.781,4.245-4.031,7.096c1.328,5.042-1.319,8.254-3.48,11.984
	c-1.214,2.095-2.585,3.014-5.061,2.889c-25.209-1.278-50.421-2.514-75.638-3.628c-3.441-0.152-4.41-1.245-4.01-4.751
	c1.984-17.379,3.728-34.785,5.515-52.186c1.177-11.455,2.66-22.826,6.646-33.745c0.966-2.648,2.379-3.486,4.992-3.141
	c4.826,0.636,9.67,1.578,14.502,1.553c2.443-0.013,5.441-1.279,7.207-2.991c4.966-4.813,6.235-11.188,6.002-17.922
	c-0.281-8.13-4.553-12.195-12.602-11.958c-7.991,0.235-15.98,0.608-23.972,0.693c-38.878,0.414-77.739,0.047-116.546-2.736
	c-2.562-0.184-3.421-1.065-4.168-3.567c-2.746-9.193-5.882-18.273-9.046-27.334c-0.466-1.334-1.879-2.337-2.854-3.493
	c-0.373,0.265-0.746,0.53-1.119,0.795c5.302,10.216,8.785,20.992,10.866,32.164c-0.665,0.275-0.881,0.421-1.11,0.446
	c-0.369,0.039-0.766,0.073-1.117-0.021c-8.162-2.187-13.624,2.126-18.511,7.725c-7.634,8.746-13.158,18.842-15.318,30.109
	c-3.288,17.15-5.462,34.518-7.918,51.82c-0.453,3.191-0.68,5.859-4.753,6.171c-1.258,0.096-2.428,1.208-3.658,1.815
	c-7.157,3.527-14.152,7.459-21.533,10.431c-6.077,2.447-13.084,3.054-15.514,10.647c-0.033,0.103-0.2,0.157-0.265,0.259
	c-4.757,7.444-9.984,14.635-14.149,22.396c-5.958,11.103-11.104,22.641-16.684,33.949c-1.038,2.104-2.07,4.564-3.834,5.89
	c-4.948,3.719-10.123,7.197-15.489,10.282c-9.012,5.181-14.697,12.519-16.609,22.821c-0.342,1.843-1.382,3.73-2.582,5.203
	c-2.417,2.965-4.913,5.129-9.593,5.099c-3.07-0.019-6.163,3.494-9.83,5.792c-8.907-1.791-7.031,7.313-9.898,11.871
	C9.1,461.42,5.713,464.936,4.659,476.695c-1.456,0.931-2.834,1.812-4.659,2.979h6.04c0.864-4.092,1.459-8.113,2.679-11.935
	c0.349-1.092,2.579-2.313,3.816-2.188c1.248,0.126,2.474,1.737,3.443,2.916c0.667,0.812,0.88,1.997,1.296,3.016
	c1.541-3.931,2.053-7.739,3.142-11.373c1.621-5.409,2.838-5.675,7.027-2.208c0.128,0.106,0.461-0.036,0.142-0.001
	c1.987-2.535,3.442-5.09,5.562-6.84c1.307-1.079,3.954-1.713,5.4-1.11c1.41,0.589,2.246,2.925,2.974,4.647
	c0.523,1.236,0.452,2.723,0.72,4.622c2.293-1.888,3.911-3.432,5.736-4.671c2.489-1.689,5.624-3.914,8.174-1.737
	c1.958,1.672,2.636,5.071,3.397,7.836c0.488,1.774,0.091,3.791,0.091,6.318c1.609-1.244,2.601-2.146,3.722-2.839
	c1.162-0.719,2.41-1.34,3.689-1.822c3.941-1.487,7.001-0.747,9.07,2.091c2.332,3.2,1.323,6.094-0.772,8.931
	c-1.039,1.407-1.967,2.897-3.262,4.819c1.347,0.103,1.871,0.292,2.282,0.151c3.301-1.133,5.961-0.615,7.408,2.875
	c1.482,3.572-0.86,5.611-3.228,7.57c-1.066,0.882-2.21,1.668-4.005,3.011c1.569,0.322,2.21,0.312,2.697,0.58
	c1.742,0.957,4.331,1.664,4.891,3.121c0.574,1.495-0.254,4.507-1.531,5.536c-2.921,2.353-6.5,3.884-9.79,5.787
	c-0.756,0.437-1.425,1.026-2.134,1.546c0.721,0.492,1.402,1.326,2.169,1.415c3.179,0.366,4.695,2.481,5.028,5.199
	c0.378,3.088-2.026,4.554-4.611,4.915c-2.767,0.386-5.629,0.087-8.58,0.087c0.116,1.713,0.219,3.226,0.277,4.08
	c2.241-0.536,4.421-1.257,6.658-1.558c8.101-1.088,11.243-7.522,5.785-12.717c-0.234-0.223-0.258-0.666-0.374-0.992
	c11.373-7.722,12.439-10.771,7.07-17.658c1.03-3.563,1.677-6.66,2.87-9.529c0.512-1.231,2.009-2.501,3.314-2.885
	c12.342-3.629,20.762-11.105,24.1-23.806c0.474-1.802,0.818-3.727,1.721-5.311c5.087-8.932,5.956-18.123,2.249-27.752
	c-1.313-3.411,1.311-7.363,4.835-8.082c8.809-1.798,16.18-5.923,20.67-14.059c3.725-6.75,7.244-13.613,10.48-19.72
	c-2.322,15.247-7.579,30.513-14.852,45.939c3.914,1.277,7.487,2.949,11.235,3.583c26.23,4.434,52.403,9.402,78.781,12.714
	c22.913,2.877,46.074,3.768,69.117,5.631c3.096,0.25,4.878-0.497,5.617-3.789c0.763-3.399,2.136-6.658,3.16-10.003
	c6.325-20.66,9.295-41.92,11.336-63.35c0.551-5.79,1.268-11.565,1.869-16.987c27.416,1.316,54.305,2.606,81.194,3.896
	c0.242,0.305,0.483,0.61,0.725,0.915c-2.872,2.993-5.432,6.388-8.67,8.912c-14.98,11.677-26.066,25.771-29.31,45.045
	c-0.178,1.058-0.606,2.157-1.198,3.051c-13.52,20.426-27.075,40.827-40.638,61.224c-0.739,1.112-1.606,2.139-2.374,3.152
	c-6.823-3.508-10.013-2.261-15.009,5.565c-10.239-0.634-7.67,8.709-10.565,13.78c-4.879-3.634-7.539-2.901-9.558,2.749
	c-0.869,2.431-1.269,5.029-1.942,7.797c-3.596-0.659-6.083,0.892-7.319,4.217c-1.138,3.059-1.494,6.147,0.759,9.063
	c0.232-2.784,0.052-5.474,0.806-7.87c0.466-1.481,2.195-2.859,3.695-3.551c0.483-0.223,2.054,1.876,3.105,2.935
	c0.388,0.392,0.71,0.849,1.063,1.276c0.675-1.314,0.371-2.458,0.483-3.56c0.361-3.557,0.665-7.146,1.451-10.619
	c0.261-1.154,1.888-2.737,2.935-2.772c1.079-0.036,2.568,1.369,3.24,2.516c1.009,1.726,1.462,3.776,2.151,5.689
	c1.143-1.321,1.55-2.652,1.748-4.014c0.485-3.331,0.596-6.74,1.364-9.999c1.272-5.396,2.729-5.979,7.404-3.591
	c1.429-2.284,2.517-4.934,4.411-6.736c1.317-1.253,3.957-2.138,5.605-1.696c1.313,0.353,2.28,2.866,2.918,4.597
	c0.547,1.485,0.41,3.223,0.681,5.887c1.794-2.04,2.839-3.23,3.885-4.418c1.074-1.218,2.113-2.47,3.233-3.644
	c2.237-2.343,4.911-3.638,8.092-2.296c3.22,1.358,2.788,4.321,2.702,7.102c-0.032,1.042,0.324,2.096,0.504,3.145
	c1.053-0.441,2.124-0.844,3.149-1.342c0.436-0.212,0.727-0.767,1.169-0.916c1.691-0.571,3.889-1.925,5.007-1.326
	c1.397,0.749,2.27,3.051,2.703,4.844c0.355,1.47-0.282,3.173-0.444,4.777c-0.09,0.892-0.107,1.791-0.179,3.097
	c1.252-0.393,1.967-0.531,2.606-0.832c4.943-2.323,8.629-0.335,8.623,5.077c-0.003,2.486-1.117,4.999-1.901,7.444
	c-0.34,1.059-1.119,1.977-1.562,2.727c2.29,0.533,5.156,0.424,5.717,1.508c0.891,1.721,0.656,4.349,0.118,6.387
	c-0.447,1.691-1.792,3.338-3.144,4.554c-2.122,1.908-4.62,3.391-6.885,5.149c-0.942,0.731-1.695,1.706-2.883,2.93
	c3.993,1.142,8.516-1.025,10.165,3.649c1.441,4.084-1.66,6.115-4.501,8.19c3.835,0.26,5.633-1.824,6.324-5.029
	c0.836-3.875-0.886-6.268-5.833-8.462c2.32-2.198,4.872-4.202,6.911-6.637c4.088-4.883,3.905-9.508-0.123-14.397
	c-0.359-0.435-0.822-1.11-0.718-1.551c0.985-4.183,1.322-8.741,3.273-12.437c10.267-19.45,20.888-38.714,31.578-57.937
	c1.105-1.986,3.217-3.831,5.3-4.785c12.267-5.62,24.69-10.899,37-16.427c3.168-1.423,5.937-4.024,9.204-4.88
	c9.239-2.422,14.204-8.719,17.235-17.161c0.652-1.817,1.324-3.627,2.191-5.999c2.07,2.177,3.731,3.844,5.302,5.591
	c6.403,7.12,5.731,7.542,14.313,0.83c3.294-2.576,3.432-4.039,1.042-7.592c-4.812-7.153-9.664-14.279-14.408-21.477
	c-0.707-1.073-1.208-2.453-1.297-3.727c-0.193-2.781-0.06-5.584-0.06-8.757c0.844-0.088,2.042-0.245,3.244-0.333
	c5.609-0.408,11.247-0.568,16.822-1.248c7.435-0.906,14.831-2.15,22.217-3.41c1.131-0.193,2.115-1.25,3.167-1.908
	C515.311,349.358,513.975,348.763,512.716,348.896z M346.958,256.491c-3.942-0.464-8.296-0.977-13.862-1.632
	c2.987-5.114,5.176-9.862,8.369-13.795c1.146-1.411,4.712-0.857,7.117-1.192C347.985,245.984,347.485,251.098,346.958,256.491z
	 M357.671,230.456c1.447,0.432,3.121,1.813,3.692,3.177c2.432,5.812-0.204,16.667-5.02,20.821c-1.268,1.093-3.576,2.204-4.826,1.74
	c-1.185-0.44-2.338-2.984-2.228-4.511c0.296-4.119,1.272-8.19,2.092-12.938c-1.982-0.137-4.671-0.322-7.367-0.508
	C345.63,233.465,353.039,229.074,357.671,230.456z M83.963,477.524c-0.107,0.186-0.407,0.261-0.67,0.419
	c-1.67-0.966-3.362-1.944-5.457-3.155c2.816-4.508,3.409-8.871-0.392-12.846c-4.588-4.798-9.521-2.804-14.553-0.106
	c-1.094-4.506-1.041-9.574-5.824-11.626c-4.634-1.988-8.351,1.037-12.107,3.48c-2.425-2.949-2.42-5.127,0.404-7.982
	c7.804-7.886,15.204-16.171,22.835-24.23c0.805-0.85,2.018-1.435,3.151-1.834c13.77-4.843,29.669,3.269,33.789,17.285
	c0.352,1.196,0.403,2.868-0.171,3.888C98.054,453.102,90.997,465.307,83.963,477.524z M97.607,460.622
	c-0.232-0.396-0.464-0.791-0.696-1.187c2.203-1.185,4.406-2.37,7.318-3.936C103.311,460.314,100.074,459.817,97.607,460.622z
	 M101.011,462.263c-2.584,2.396-5.168,4.793-7.753,7.19c-0.267-0.289-0.534-0.579-0.8-0.868
	C93.073,463.89,96.946,462.986,101.011,462.263z M99.592,455.318c2.255-4.047,4.034-7.241,6.182-11.098
	C106.989,450.549,105.877,452.625,99.592,455.318z M88.482,476.29c-0.251-0.262-0.502-0.523-0.753-0.785
	c1.234-1.233,2.246-3.016,3.734-3.614c17.903-7.193,23.502-33.159,7.701-47.861c-13.871-12.907-35.414-9.249-44.803,7.472
	c-0.865,1.54-1.867,3.002-3.291,5.275c0.12-12.377,13.305-23.582,27.192-24.203c16.494-0.738,31.268,12.428,33.088,29.472
	C112.943,456.953,105.47,472.234,88.482,476.29z M82.73,410.285c9.132-3.114,18.975,0.317,25.001,8.666
	c2.34,3.242,5.148,6.642,2.957,12.379C104.331,419.417,95.318,412.432,82.73,410.285z M113.656,443.884
	c1.987-11.726,1.184-22.623-8.755-30.759c-9.885-8.091-20.525-7.618-32.197-1.477c6.521-8.448,21.461-9.146,31.376-2.363
	C115.332,416.983,120.303,433.949,113.656,443.884z M152.117,374.456c-1.493,2.65-2.078,5.806-3.52,8.494
	c-1.806,3.368-3.429,7.305-6.275,9.537c-4.629,3.629-10.122,6.196-15.383,8.959c-2.134,1.121-4.615,1.582-6.938,2.343
	c0.067,0.352,0.133,0.704,0.2,1.056c6.924-0.238,13.06-3.065,19.387-6.857c-2.719,7.59-16.362,15.557-21.109,12.515
	c-1.223,2.269-2.435,4.518-3.864,7.169c-7.387-11.096-17.43-16.218-30.866-14.778c0.399-1.06,0.549-1.768,0.902-2.353
	c7.244-12.002,13.398-24.517,18.647-37.535c2.022-5.015,5.428-9.478,8.282-14.144c0.26-0.426,1.103-0.483,1.661-0.742
	c0.68-0.315,1.675-0.488,1.961-1.027c1.227-2.314,2.349-4.697,3.309-7.134c1.174-2.978,3.516-4.339,6.351-5.322
	c3.84-1.332,7.711-2.639,11.4-4.327c6.586-3.012,13.038-6.318,19.569-9.452c0.966-0.464,2.06-0.661,4.09-1.29
	c-1.489,6.569,0.167,12.9-3.908,19.283c-0.595-2.603-0.939-4.105-1.282-5.607c1.204,7.017-5.298,9.115-8.38,13.932
	c-0.907-2.852-1.655-5.205-2.579-8.112c-0.308,4.28,0.266,8.151-1.046,11.212c-1.315,3.067-4.514,5.325-6.887,7.938
	c0.296,0.304,0.591,0.608,0.887,0.912c3.871-3.732,7.678-7.534,11.628-11.18c5.73-5.289,11.564-10.465,16.822-15.209
	c3.266,2.363,5.58,4.138,7.995,5.762c3.575,2.404,4.444-2.679,8.159-2.693c-1.259,2.951-2.149,5.702-3.572,8.143
	c-0.976,1.676-2.561,3.081-4.097,4.333C164.723,355.572,157.741,364.476,152.117,374.456z M169.072,334.062
	c0.072-0.507,0.145-1.014,0.217-1.521c4.396-3.168,8.691-6.499,13.292-9.334c0.73-0.45,2.838,1.335,5.073,2.478
	c-4.664,4.09-8.318,7.799-12.551,10.644C174.069,337.025,171.134,334.893,169.072,334.062z M313.469,382.285
	c-2.125,20.336-6.404,40.184-12.673,59.64c-1.043,3.238-2.47,4.119-5.858,3.839c-21.291-1.759-42.706-2.433-63.882-5.056
	c-26.88-3.329-53.581-8.122-80.337-12.42c-3.394-0.545-6.656-1.914-10.313-3.001c0.572-1.55,0.916-2.708,1.413-3.797
	c6.216-13.61,10.613-27.814,12.774-42.587c1.142-7.81,5.431-13.622,10.229-19.152c5.214-6.01,10.971-11.555,16.632-17.16
	c0.689-0.683,2.275-0.748,3.408-0.654c34.982,2.907,69.96,5.872,104.939,8.815c0.979,0.082,1.97,0.01,2.956,0.01
	c-0.028-0.424-0.056-0.847-0.084-1.271c-36.696-2.89-73.393-5.779-110.422-8.695c0.324-2.565,0.49-5.159,1.013-7.679
	c0.583-2.812,3.761-4.821,6.818-4.564c27.016,2.269,54.028,4.596,81.051,6.792c8.193,0.666,16.415,0.976,24.623,1.449
	c0.024-0.325,0.049-0.65,0.073-0.975c-13.114-1.212-26.214-2.615-39.346-3.594c-21.804-1.625-43.631-2.948-65.438-4.537
	c-1.061-0.077-2.502-1.279-2.951-2.311c-1.855-4.26-3.982-4.931-7.929-2.623c-6.221,3.637-12.584,7.032-19.621,10.936
	c0.295-3.646,0.452-6.891,0.835-10.109c2.035-17.119,3.77-34.284,6.31-51.329c2.121-14.235,7.12-27.508,15.875-39.22
	c5.309-7.101,11.504-10.188,20.855-9.073c38.792,4.628,77.807,4.445,116.801,4.089c9.99-0.091,19.975-0.627,29.964-0.922
	c1.184-0.035,2.376,0.159,3.591,0.492c-12.712,4.844-17.918,16.041-22.996,27.041c-5.669,12.278-7.477,25.567-8.857,38.926
	C319.864,323.163,316.56,352.713,313.469,382.285z M468.443,363.364c-8.485-11.043-16.618-21.627-24.941-32.459
	C448.403,330.48,469.247,357.47,468.443,363.364z M470.312,378.599c-2.096-2.37-4.624-4.488-6.19-7.168
	c-2.442-4.181-8.021-5.49-9.255-10.607c-0.192-0.795-0.397-1.587-0.863-3.447c3.447,2.419,6.582,2.922,7.615,7.266
	c0.769,3.237,3.974,5.888,6.067,8.819C468.769,374.979,469.794,376.537,470.312,378.599z M440.197,331.224
	c3.661,4.822,7.321,9.644,11.161,14.702c-3.592,3.022-6.962,5.858-10.368,8.723c-3.653-3.129-6.009-6.19-3.745-11.302
	c1.039-2.345,0.502-5.37,0.788-8.075c0.141-1.336,0.528-2.647,0.804-3.969L440.197,331.224z M424.253,373.99
	c0.667-1.864,1.377-3.847,1.385-5.781c0.013-2.871-0.595-5.751,2.659-7.414c2.054,6.665-1.533,18.186-7.048,19.925
	C422.443,378.086,423.501,376.093,424.253,373.99z M419.311,379.687c-0.631-0.203-1.261-0.405-1.892-0.608
	c1.596-4.173,3.191-8.347,4.786-12.52c0.425,0.154,0.849,0.308,1.274,0.462C425.095,372.256,419.959,375.215,419.311,379.687z
	 M430.201,372.105c0.725-1.999,1.1-4.159,1.376-6.28c0.533-4.111,0.856-8.249,1.35-12.366c0.067-0.556,0.625-1.052,1.412-2.299
	c0.892,1.897,1.569,2.878,1.82,3.957c0.764,3.276,1.459,6.576,1.974,9.899c0.177,1.144-0.083,2.438-0.449,3.565
	c-0.692,2.131-1.73,4.151-2.401,6.288c-1.707,5.434-1.658,5.45-8.513,4.643C427.995,376.92,429.302,374.586,430.201,372.105z
	 M439.804,360.372c0.388-0.122,0.776-0.243,1.165-0.365c2.349,3.191,6.081,6.15,6.665,9.636c0.609,3.638-1.816,7.784-3.027,12.114
	c-2.575-0.688-5.018-1.341-7.472-1.997C437.286,372.692,443.832,367.456,439.804,360.372z M435.246,323.644
	c0.534-0.547,2.55-0.51,3.104,0.039c0.728,0.721,1.32,2.645,0.871,3.312c-2.646,3.931-5.49,7.747-8.518,11.394
	c-1.635,1.969-4.391,0.902-7.035-2.161C427.621,331.877,431.329,327.658,435.246,323.644z M433.413,322.345
	c-3.744,3.019-7.324,5.905-11.193,9.024c-1.305-1.734-2.446-3.25-3.706-4.924c3.866-3.006,7.449-5.793,11.301-8.789
	C430.939,319.121,431.967,320.46,433.413,322.345z M416.241,337.208c-0.388-0.199-0.775-0.399-1.163-0.598v-7.803
	c0.339-0.164,0.677-0.329,1.016-0.493c1.257,1.671,3.147,3.214,3.519,5.063C419.815,334.387,417.448,335.914,416.241,337.208z
	 M428.109,315.384c-0.047,0.435-0.095,0.869-0.142,1.304c-2.834,2.224-5.614,4.522-8.543,6.613c-0.651,0.465-1.824,0.2-2.756,0.271
	c0.287-0.822,0.331-1.927,0.903-2.418c2.355-2.024,4.791-3.983,7.377-5.694C425.693,314.967,427.039,315.384,428.109,315.384z
	 M395.635,286.615c0.527,1.157,0.895,2.43,1.627,3.439c0.722,0.997,1.705,1.964,2.794,2.458c0.413,0.187,2.116-1.07,2.058-1.519
	c-0.152-1.189-0.748-2.463-1.534-3.393c-0.856-1.013-2.125-1.677-3.214-2.493l0.704-0.793c4.35,0.823,9.858,7.261,9.373,11.67
	c-0.131,1.188-2.568,3.147-3.744,3.01C399.393,298.492,394.373,291.192,395.635,286.615z M411.574,314.85
	c-1.375-2.521-2.673-5.084-4.013-7.624c-2.898-5.494-2.9-5.493,2.836-8.815c4.486,4.86,9.02,9.772,13.777,14.924
	c-2.473,1.957-5.563,4.404-9.24,7.314C413.732,318.583,412.606,316.742,411.574,314.85z M410.366,335.133
	c3.694,3.598,3.553,4.416-0.707,6.723C409.926,339.315,410.146,337.224,410.366,335.133z M462.192,395.867
	c-3.105,9.048-9.354,14.295-17.826,17.908c-14.244,6.075-28.319,12.546-42.483,18.809c-3.519,1.556-7.124,2.919-10.658,4.443
	c-0.921,0.397-1.724,1.068-2.328,2.472c1.089,0.103,2.179,0.207,3.787,0.359c-10.839,19.738-21.556,39.252-32.105,58.461
	c-3.268-1.086-6.128-2.036-8.71-2.894c-1.268-2.977-1.826-7.047-4.152-8.899c-1.952-1.555-5.964-0.524-9.097-0.64
	c-0.913-1.638-1.691-5.018-3.716-6.134c-2.213-1.22-5.843-1.079-8.368-0.174c-2.454,0.88-4.292,3.479-7.213,4.863
	c0.637-1.302,1.14-2.693,1.932-3.893c11.419-17.312,22.905-34.579,34.304-51.904c2.951-4.486,5.682-9.118,8.454-13.72
	c0.634-1.052,1.25-2.21,1.482-3.395c2.824-14.411,9.629-27.212,20.944-35.881c9.682-7.418,15.384-17.029,21.77-26.587
	c0.991-1.483,2.368-2.708,3.581-4.043c0.069-0.003,0.128,0.009,0.196,0.008c-0.035-0.035-0.069-0.07-0.104-0.105
	c-0.003,0.003-0.031,0.027-0.059,0.051c-0.026,0.023-0.053,0.045-0.053,0.045c2.821-2.781,5.641-5.561,8.415-8.295
	c8.318,6.758,8.318,6.758,15.351,0.732c-0.353,2.429-0.131,4.393-0.925,5.773c-4.024,6.992-8.033,14.024-12.587,20.672
	c-4.434,6.473-7.719,13.137-7.145,21.173c0.104,1.457,0.725,2.876,1.107,4.313c0.297-0.058,0.593-0.117,0.89-0.175
	c0.198-1.38,0.396-2.761,0.648-4.517c3.541,2.246,5.723,7.06,11.07,4.862c-2.552-1.663-4.889-3.186-7.225-4.709
	c0.158-0.361,0.317-0.722,0.475-1.083c10.694-2.3,20.979-1.827,30.247,5.559c0.162-0.29,0.324-0.581,0.486-0.871
	c-1.646-2.34-4.165-4.499-4.699-7.07c-0.556-2.68,0.802-5.757,1.475-9.506c1.364,1.264,2.106,1.818,2.683,2.509
	c2.563,3.068,4.781,6.496,7.685,9.189C463.694,387.259,463.896,390.902,462.192,395.867z M472.256,381.017
	c0.323-0.369,0.646-0.737,0.97-1.106c1.964,1.642,4.128,3.101,5.838,4.976c1.92,2.105,3.516,4.53,5.056,6.941
	c0.399,0.625,0.401,1.988-0.026,2.531c-0.502,0.638-1.742,1.155-2.535,1.012c-2.019-0.362-9.419-11-9.455-13.266
	C472.098,381.744,472.202,381.38,472.256,381.017z M475.062,392.426c1.709,2.092,3.432,4.172,5.23,6.357
	c-2.644,2.404-3.976,0.54-5.18-0.929c-7.83-9.557-15.625-19.143-23.377-28.762c-3.278-4.067-6.426-8.24-9.881-12.684
	c3.852-2.904,7.219-5.441,11.015-8.302c2.411,3.086,4.728,6.052,7.046,9.018c-0.142,0.194-0.284,0.388-0.426,0.582
	c-2.321-0.961-4.642-1.922-6.967-2.884c-1.511,4.172,1.229,11.323,4.659,13.14c0.943,0.499,1.903,1.241,2.476,2.118
	c3.453,5.287,9.419,8.783,10.438,15.92C470.428,388.332,473.326,390.301,475.062,392.426z M418.317,349.753
	c-1.229-2.715-2.973-4.764-6.33-4.726c1.856,1.861,3.705,3.728,5.555,5.595C417.8,350.333,418.059,350.043,418.317,349.753z
	 M193.168,315.217c35.794,2.695,71.588,5.389,107.382,8.084c0.038-0.571,0.076-1.142,0.114-1.712
	c-35.801-2.557-71.603-5.114-107.404-7.671C193.23,314.351,193.199,314.784,193.168,315.217z M505.528,325.808
	c3.739,3.321,7.658,6.347,12.561,7.761c0.2-0.328,0.4-0.656,0.6-0.984c-4.188-2.586-8.375-5.172-12.563-7.758
	C505.927,325.155,505.728,325.482,505.528,325.808z M212.727,271.243c4.918,0.479,12.526-3.743,14.595-8.27
	c1.481-3.241,0.164-6.33-3.363-7.362c-1.871-0.547-3.874-0.644-5.824-0.945c1.74-8.053,1.952-8.176,9.561-8.516
	c1.843-0.082,3.661-0.695,5.491-1.064c-2.56-2.703-11.275-2.901-13.42-1.376c-0.291,0.207-0.602,0.495-0.725,0.815
	c-3.01,7.777-6.055,15.541-8.949,23.361C209.287,270.069,210.488,271.025,212.727,271.243z M221.39,258.667
	c0.899,0.173,2.313,0.76,2.406,1.332c0.147,0.907-0.332,2.36-1.052,2.881c-2.549,1.843-5.312,3.39-8.779,5.533
	C214.277,260.165,216.422,257.714,221.39,258.667z M228.698,273.038c0.382,0.197,0.763,0.393,1.145,0.59
	c0.609-0.665,1.572-1.241,1.766-2.011c0.74-2.942,2.849-3.498,5.449-4.109c2.73-0.641,5.497-1.793,7.806-3.369
	c2.429-1.658,3.389-4.386,1.865-7.288c-1.463-2.784-3.763-3.36-6.924-2.997c-3.567,0.41-5.021,2.441-6.14,5.338
	c-1.35,3.495-2.878,6.922-4.227,10.418C229.021,270.687,228.935,271.892,228.698,273.038z M236.443,258.948
	c0.766-3.465,3.153-3.17,5.468-2.207c2.257,0.939,2.692,2.856,0.565,4.283c-1.985,1.332-4.382,2.049-6.598,3.036
	c-0.266-0.303-0.531-0.607-0.797-0.91C235.543,261.751,236.127,260.379,236.443,258.948z M255.311,268.892
	c1.63-0.156,3.32,0.315,5.655,0.579c1.355-4.452,5.244-8.913,5.241-14.968c-1.98,1.892-3.086,4.338-4.784,6.26
	c-1.788,2.023-4.143,3.546-6.25,5.288l-1.751-1.117c0.872-2.611,1.807-5.204,2.576-7.845c0.229-0.787-0.013-1.711-0.039-2.572
	c-0.821,0.378-2.17,0.574-2.375,1.166c-1.088,3.149-2.272,6.351-2.672,9.626C250.581,268.019,252.475,269.163,255.311,268.892z
	 M300.507,307.645c-34.725-2.343-69.45-4.686-104.175-7.03c-0.015,0.41-0.03,0.82-0.045,1.23
	c34.699,2.535,69.399,5.07,104.098,7.605C300.426,308.849,300.467,308.247,300.507,307.645z"/>
</svg>
