<?xml version="1.0" encoding="utf-8"?>
<!-- Generator: Adobe Illustrator 21.0.2, SVG Export Plug-In . SVG Version: 6.00 Build 0)  -->
<svg version="1.1" id="Layer_1" xmlns="http://www.w3.org/2000/svg" xmlns:xlink="http://www.w3.org/1999/xlink" x="0px" y="0px"
	 viewBox="0 0 812.621 745.182" style="enable-background:new 0 0 812.621 745.182;" xml:space="preserve">
<style type="text/css">
	.st0{fill:#FFFFFF;}
	.st1{fill:#E6D813;}
</style>
<path class="st0" d="M812.36,47.876c0.181-7.432,2.089-8.295-7.927-8.216c-27.122,0.214-54.244,0.382-81.366,0.445
	c-79.118,0.185-158.236,0.318-237.355,0.41c-2.054,0.002-4.366-0.212-6.122-1.145c-16.222-8.613-32.329-17.442-48.522-26.109
	c-2.255-1.207-3.587-2.534-3.99-5.259c-0.734-4.958-5.017-8.196-9.805-7.995c-4.86,0.204-9.133,3.706-9.214,8.654
	c-0.06,3.689-1.957,4.858-4.674,6.173c-15.633,7.566-31.287,15.098-46.766,22.97c-4.173,2.123-8.242,3.045-12.86,3.046
	c-64.494,0.015-128.989,0.092-193.483,0.248c-48.865,0.118-97.729,0.385-146.594,0.524c-2.308,0.007-3.206,0.817-3.102,3.048
	c0.116,2.496,0.106,4.998,0.2,7.496c1.201,32.095,2.812,64.18,3.528,96.286c1.136,50.977,2.228,101.967,2.296,152.953
	c0.055,41.61-1.111,83.23-2.303,124.83c-0.945,32.975-2.753,65.925-4.172,98.886c-0.438,10.164-0.311,10.338,9.705,10.57
	c12.494,0.289,24.99,0.706,37.486,0.704c92.117-0.021,184.234-0.134,276.35-0.217c1.557-0.001,3.113,0,4.933,0
	c-1.174,7.63-2.605,14.609-3.236,21.66c-0.67,7.486-1.688,14.582-8.078,19.618c-0.469,0.37-0.629,1.13-1.097,1.5
	c-1.113,0.88-2.226,2.091-3.513,2.374c-21.394,4.705-42.323,10.828-61.933,20.765c-15.465,7.836-30.121,16.891-39.633,32.059
	c-8.289,13.219-8.84,26.854-0.48,40.969c7.072,11.942,17.482,20.418,29.304,27.1c6.187,3.497,10.663,7.487,13.388,14.443
	c5.557,14.185,15.985,23.547,31.064,27.426c8.837,2.274,16.982,1.104,24.064-4.585c3.63-2.916,6.537-6.731,10.019-10.401
	c3.307,0.677,7.178,1.632,11.103,2.248c22.333,3.504,44.803,5.738,67.406,5.995c23.069,0.262,46.143-0.361,68.941-4.306
	c16.77-2.903,33.597-5.766,50.098-9.859c17.697-4.389,34.612-11.211,50.442-20.505c11.281-6.623,21.572-14.397,29.018-25.281
	c5.964-8.717,8.877-18.377,6.624-29.08c-2.954-14.032-11.848-24.008-22.8-32.271c-19.844-14.974-42.591-23.757-66.418-29.999
	c-2.3-0.602-3.687-1.568-4.564-3.786c-1.74-4.401-4.173-8.372-9.032-9.897c-3.556-1.116-4.716-3.595-5.035-7.019
	c-0.545-5.844-1.245-11.677-2.026-17.494c-0.612-4.557-1.445-9.084-2.302-14.379c2.444,0,4.168,0.01,5.891-0.002
	c25.372-0.172,50.745-0.632,76.114-0.467c77.49,0.503,154.979,1.246,232.468,1.897c5.044,0.042,5.044,0.048,4.975-4.897
	c-0.149-10.623-0.274-21.246-0.453-31.868c-1.697-100.984-2.217-201.972-0.298-302.956
	C809.553,146.073,811.164,96.979,812.36,47.876z M417.748,4.378c3.098,0.076,5.37,2.456,5.296,5.548
	c-0.073,3.07-2.489,5.373-5.562,5.305c-3.057-0.068-5.368-2.498-5.299-5.571C412.253,6.573,414.645,4.302,417.748,4.378z
	 M363.514,37.954c14.116-6.934,28.254-13.825,42.348-20.804c2.182-1.08,3.746-1.413,5.988,0.396
	c4.607,3.718,9.072,2.635,14.856-2.999c15.293,8.263,30.635,16.551,45.976,24.84c-0.057,0.282-0.115,0.564-0.172,0.846H359.445
	C361.412,39.127,362.435,38.484,363.514,37.954z M307.981,589.779c1.444-1.673,2.893-3.351,4.59-5.317
	C312.808,589.834,311.638,591.044,307.981,589.779z M297.736,586.547c3.833-0.881,7.666-1.763,12.229-2.812
	c-0.842,2.494-1.442,4.273-2.038,6.038c-4.292,2.624-6.847-1.229-10.192-2.111C297.735,587.29,297.736,586.919,297.736,586.547z
	 M293.584,587.682c1.296,5.699,0.354,6.714-4.51,5.668c-2.104-0.453-4.261-0.66-6.394-0.978l-0.075-1.244
	C286.252,589.983,289.899,588.839,293.584,587.682z M279.275,593.18c3.557,0.569,6.975,1.115,10.392,1.662
	c-0.002,0.297-0.004,0.593-0.006,0.89c-3.33,1.029-6.66,2.057-10.386,3.208V593.18z M276.979,592.877
	c1.542,5.409,0.41,6.716-4.381,5.66c-1.632-0.36-3.272-0.682-4.908-1.022c-0.067-0.336-0.134-0.672-0.202-1.008
	C270.635,595.303,273.783,594.099,276.979,592.877z M265.362,598.84c2.842,0.398,5.683,0.796,8.525,1.195
	c0.083,0.345,0.166,0.689,0.249,1.034c-2.586,1.067-5.135,2.269-7.813,2.996c-0.272,0.074-1.32-2.712-2.007-4.17
	C264.665,599.543,265.013,599.192,265.362,598.84z M263.146,598.259c0.889,5.779,0.496,6.245-4.255,6.132
	c-2.218-0.053-4.439-0.009-6.658-0.009c-0.125-0.371-0.251-0.742-0.376-1.113C255.561,601.625,259.266,599.981,263.146,598.259z
	 M251.113,605.858h9.414c0.121,0.208,0.242,0.416,0.363,0.624c-2.493,1.303-4.903,2.868-7.543,3.714
	c-0.612,0.196-2.01-2.064-3.047-3.194C250.571,606.621,250.842,606.24,251.113,605.858z M248.329,605.021
	c0.972,2.249,1.682,3.891,2.691,6.222h-11.537c-0.123-0.277-0.246-0.554-0.37-0.832
	C241.999,608.724,244.884,607.036,248.329,605.021z M248.227,612.65c0.026,0.475,0.052,0.95,0.078,1.426
	c-2.137,1.434-4.273,2.868-6.864,4.607c-0.785-1.784-1.441-3.276-2.403-5.461C242.493,613.007,245.36,612.828,248.227,612.65z
	 M232.803,614.823c4.626-3.168,5.223-2.898,6.315,3.264c-3.475,0.515-6.934,1.028-10.392,1.541c-0.18-0.447-0.361-0.893-0.541-1.34
	C229.721,617.13,231.216,615.91,232.803,614.823z M223.994,621.801c5.048,4.326,5.289,5.147,1.905,7.267
	c1.56,0.162,2.666,0.278,4.286,0.446c-1.739,2.625-3.328,5.021-5.223,7.882c-2.312-1.778-4.381-3.368-6.924-5.323
	c2.073-0.804,3.405-1.32,4.738-1.837c-0.01-0.263-0.02-0.526-0.031-0.789l-5.345,0.544c-0.176-0.248-0.352-0.495-0.528-0.743
	C219.196,626.819,221.519,624.389,223.994,621.801z M214.006,633.346c0.361-0.534,1.873-0.914,2.401-0.6
	c1.968,1.169,3.746,2.657,5.596,4.025c-0.023,0.449-0.045,0.897-0.068,1.346c-3.78,1.059-7.559,2.117-11.339,3.176
	c-0.25-0.285-0.5-0.57-0.75-0.856C211.21,638.057,212.476,635.613,214.006,633.346z M208.514,644.682
	c0.218-0.61,1.645-1.379,2.189-1.184c2.851,1.025,5.599,2.338,9.502,4.039c-1.956,1.511-3.12,2.411-4.284,3.31
	c1.958-0.81,3.997-1.473,5.843-2.486c1.16-0.636,2.032-1.799,2.689-3.073c-4.599,2.931-7.318-1.617-10.821-2.156
	c-0.082-0.348-0.163-0.696-0.245-1.044c3.108-0.958,6.189-2.035,9.349-2.763c0.55-0.127,1.438,1.217,2.312,2.011
	c2.519-4.149,5.357-8.824,7.925-13.053c-1.941-1.792-4.143-3.823-6.344-5.855c0.12-0.462,0.24-0.923,0.359-1.385
	c3.629-0.401,7.258-0.802,10.887-1.202c0.179,0.339,0.358,0.679,0.537,1.018c-1.269,1.484-2.539,2.968-3.808,4.452
	c0.167,0.257,0.333,0.513,0.5,0.77c17.739-15.792,39.327-23.778,61.91-30.778c-0.819-0.995-1.548-1.475-1.568-1.984
	c-0.052-1.307,0.03-2.696,0.488-3.887c0.102-0.264,1.993,0.066,3.026,0.286c0.715,0.153,1.525,0.429,2.027,0.92
	c2.905,2.844,6.128,3.498,10.43,0.789c0,6.939,0.094,13.005-0.129,19.06c-0.026,0.695-1.807,1.864-2.808,1.901
	c-12.404,0.462-23.414,4.858-33.504,11.764c-18.399,12.592-27.496,30.471-29.415,52.352c-0.109,1.243-0.168,2.491-0.294,3.732
	c-0.02,0.199-0.27,0.375-0.414,0.561c-0.128,0.028-0.308,0.131-0.358,0.087c-5.148-4.616-11.408-2.592-17.271-2.872
	c-2.233-0.107-4.475-0.017-6.832-0.017c1.489-4.52,6.872-8.46,10.834-7.215c-1.007-2.093-1.719-3.574-2.379-4.945
	c-5.423,3.805-9.97,0.287-15.023,0.121c3.594-4.38,8.664-6.615,11.795-4.659c-0.435-2.392-0.757-4.161-1.098-6.041
	c-4.626,2.879-8.224-0.214-12.136-0.985c-0.242-0.412-0.484-0.824-0.726-1.236c1.029-0.66,2.058-1.32,3.087-1.98
	c-2.261,0.838-4.523,1.676-7.587,2.812c5.053,1.609,9.104,2.898,13.156,4.188c0.039,0.365,0.077,0.73,0.116,1.095
	c-3.734,2.286-7.468,4.572-11.533,7.061C205.906,658.67,206.015,651.676,208.514,644.682z M208.948,667.887
	c0.26-0.309,0.521-0.619,0.781-0.928c5.044,0.687,10.089,1.375,15.133,2.062c0.114,0.413,0.228,0.827,0.342,1.24
	c-3.083,2.751-6.167,5.501-9.909,8.84C212.96,674.973,210.954,671.43,208.948,667.887z M225.683,689.657
	c-3.185-2.875-6.064-6.089-9.054-9.181c0.192-0.279,0.383-0.559,0.575-0.838h20.287c-3.109,3.93-5.433,7.156-8.121,10.042
	C228.775,690.32,226.399,690.303,225.683,689.657z M237.344,682.099c1.047-0.957,3.683-0.993,5.218-0.425
	c3.121,1.155,3.186,4.27,2.88,7.005c-0.324,2.891-2.747,1.68-4.453,1.773c-3.288,0.18-6.574,0.382-10.934,0.638
	C232.943,687.409,234.822,684.402,237.344,682.099z M230.21,693.572c0.133-0.45,0.265-0.899,0.398-1.349
	c2.337-0.103,4.674-0.229,7.012-0.305c8.022-0.261,8.036-0.257,9.668,7.794c0.237,1.169,0.259,2.382,0.514,4.885
	C241.304,700.525,235.757,697.049,230.21,693.572z M290.059,742.761c-11.74-0.595-22.927-6.633-30.387-18.909
	c-0.882-1.451-0.723-3.612-0.783-5.453c-0.031-0.946,0.496-1.919,0.813-2.866c3.555-10.632,9.346-13.976,20.331-11.748
	c4.829,0.979,5.431,0.576,6.131-4.19c0.653-4.447,1.227-8.906,1.942-13.342c0.762-4.727,2.227-5.441,6.185-2.965
	c11.134,6.965,19.584,15.731,22.755,29.24C320.594,727.646,308.302,743.44,290.059,742.761z M378.301,734.608
	c-10.835-0.941-21.67-1.881-33.584-2.916c2.207-1.992,3.582-3.234,4.938-4.458c4.548-2.248,9.221-4.281,13.598-6.825
	c2.641-1.535,4.098-1.146,5.849,1.191c3.033,4.047,6.36,7.873,9.564,11.792C378.544,733.798,378.423,734.203,378.301,734.608z
	 M383.091,734.7c-0.112-0.352-0.225-0.703-0.337-1.054c3.884-3.195,7.763-6.396,11.657-9.579c0.865-0.707,1.843-1.286,2.66-2.041
	c1.615-1.495,3.055-1.71,4.886-0.163c4.974,4.205,10.074,8.262,15.689,12.837L383.091,734.7L383.091,734.7z M421.337,735.002
	c-0.163-0.455-0.327-0.91-0.49-1.365c3.126-2.927,6.212-5.899,9.385-8.773c6.901-6.25,6.898-6.196,14.806-1.082
	c2.348,1.518,4.852,2.798,7.286,4.183c1.083,1.238,2.181,2.495,4.085,4.675C444.098,733.47,432.718,734.236,421.337,735.002z
	 M492.472,726.919c-10.441,1.674-20.883,3.348-32.453,5.202c2.746-5.12,4.939-9.208,7.131-13.296
	c-2.236,3.048-4.772,5.928-6.621,9.195c-1.671,2.953-3.167,3.306-5.629,1.133c-0.702-0.62-1.75-0.849-2.638-1.258
	c0.008,0.009,0.016,0.019,0.024,0.028c-3.09-2.39-6.183-4.774-9.266-7.172c-1.133-0.881-2.242-1.794-4.175-3.345
	c10.56-1.352,20.089-2.572,30.011-3.842c-0.681,2.008-1.263,3.721-1.844,5.434c2.079-4.007,4.654-3.943,8.346-1.736
	c4.247,2.538,8.966,4.285,13.46,6.416c1.292,0.613,2.518,1.367,3.774,2.057C492.552,726.129,492.512,726.524,492.472,726.919z
	 M515.321,721.012c-5.277,1.43-10.566,2.819-15.884,4.087c-0.968,0.231-2.091-0.191-3.144-0.316
	c1.615-4.378,3.127-8.799,4.93-13.098c0.44-1.048,2.198-2.588,2.78-2.371c6.715,2.502,13.321,5.299,19.955,8.018
	c0.004,0.356,0.007,0.713,0.011,1.069C521.088,719.276,518.227,720.225,515.321,721.012z M542.474,711.986
	c-3.911,1.562-7.848,3.072-11.826,4.455c-2.373,0.825-3.847,0.524-3.206-2.727c0.646-3.276,0.999-6.649,1.055-9.987
	c0.041-2.477,1.213-3.289,3.189-2.709c6.498,1.906,12.931,4.036,19.389,6.079c0.025,0.374,0.049,0.749,0.074,1.123
	C548.26,709.482,545.4,710.817,542.474,711.986z M553.289,707.492c-1.707-5.29-3.167-9.818-4.945-15.327
	c8.234,1.395,15.549,2.635,22.863,3.874c0.063,0.458,0.126,0.916,0.189,1.374C565.639,700.618,559.881,703.823,553.289,707.492z
	 M574.845,694.484c-0.401,0.303-1.792-0.011-2.173-0.483c-2.706-3.347-5.269-6.81-8.336-10.838h16.589
	c0.014-0.271,0.028-0.542,0.042-0.813c-4.7-0.22-9.411-0.311-14.094-0.719c-2.157-0.188-4.26-0.996-6.388-1.523
	c2.444-1.684,4.983-3.249,7.296-5.097c1.612-1.288,2.911-2.966,4.593-4.723c5.337,4.191,9.827,8.756,13.839,15.22
	C582.855,688.189,578.905,691.409,574.845,694.484z M588.214,683.712c-3.807-4.282-7.148-8.039-10.739-12.078h19.548
	C593.954,675.841,591.365,679.392,588.214,683.712z M596.949,638.947c4.789,9.611,5.105,19.47,1.211,29.43
	c-0.227,0.579-2.055,1.21-2.563,0.893c-3.754-2.34-7.363-4.915-11.017-7.415c0.14-0.353,0.281-0.705,0.421-1.058
	c4.596-0.762,9.191-1.524,14.921-2.473c-5.044-2.887-9.222-5.279-14.319-8.196c4.859-0.963,8.653-1.716,12.446-2.468
	c0.034-0.265,0.067-0.529,0.101-0.794c-4.552-1.936-9.105-3.872-13.657-5.808c0.01-0.416,0.02-0.832,0.03-1.248
	c3.422-0.843,6.825-1.787,10.283-2.435C595.419,637.259,596.584,638.215,596.949,638.947z M589.629,628.131
	c1.833,1.974,3.363,4.229,5.013,6.373c-0.141,0.401-0.282,0.802-0.422,1.203c-5.015-1.218-10.031-2.436-15.046-3.654
	c-0.059-0.452-0.118-0.904-0.178-1.357c2.496-1.253,4.925-2.686,7.527-3.653C587.34,626.74,588.945,627.395,589.629,628.131z
	 M586.153,625.432c-4.799-0.69-9.05-1.301-14.159-2.035C580.143,617.56,580.782,618.039,586.153,625.432z M577.384,616.603
	c-0.135,0.407-0.269,0.815-0.404,1.222c-4.657-0.605-9.314-1.211-15.146-1.969c2.21-2.377,3.698-3.978,5.527-5.946
	C570.781,612.194,574.082,614.399,577.384,616.603z M564.617,608.327c-0.083,0.295-0.166,0.59-0.25,0.885h-14.108
	c1.662-2.598,2.812-4.395,4.193-6.554C558.205,604.751,561.411,606.539,564.617,608.327z M538.839,596.074
	c4.225,1.735,7.987,3.281,11.749,4.826c-0.036,0.454-0.072,0.907-0.108,1.361c-3.97,0.472-7.939,0.945-12.506,1.488
	C538.312,600.748,538.53,598.815,538.839,596.074z M535.642,594.933c-8.469,4.786-10.576,4.112-11.794-4.226
	C528.04,592.209,531.65,593.502,535.642,594.933z M510.857,586.981c2.889,0.83,5.777,1.66,9.165,2.634
	c-2.322,2.737-4.816,4.837-7.67,3.896c-1.324-0.436-1.687-3.786-2.486-5.815C510.196,587.458,510.527,587.22,510.857,586.981z
	 M510.504,597.53c4.013-2.29,7.551-4.31,11.635-6.641c0.604,2.343,1.503,4.121,1.413,5.848c-0.167,3.185,1.089,3.306,3.591,2.524
	c3.05-0.954,6.191-1.619,9.683-2.509v8.456c4.622-0.475,9.284-0.955,14.967-1.539c-1.529,2.604-2.547,4.339-3.993,6.802h15.093
	c0.167,0.366,0.334,0.732,0.501,1.098c-1.244,1.691-2.487,3.381-3.86,5.247c5.098,0.684,10.077,1.353,15.055,2.021
	c0.044,0.422,0.089,0.844,0.133,1.265c-2.517,1.127-5.034,2.254-7.72,3.457c1.279,1.379,2.191,2.17,4.927,1.478
	c2.968-0.751,6.495,0.705,9.778,1.199c0.094,0.375,0.189,0.75,0.283,1.125c-2.622,1.348-5.245,2.695-7.868,4.043
	c-0.096,0.293-0.191,0.587-0.287,0.88c5.454,1.257,10.908,2.513,16.363,3.77c-0.022,0.391-0.043,0.783-0.064,1.174
	c-3.497,0.916-6.995,1.833-10.519,2.756c-0.61-1.581-1.057-2.739-1.503-3.896c-0.206,0.068-0.411,0.135-0.617,0.203
	c0.435,1.906,0.87,3.812,1.279,5.608c5.696-1.062,9.845,2.643,14.684,4.127c0.003,0.38,0.006,0.76,0.009,1.14
	c-3.546,0.716-7.092,1.432-11.584,2.339c4.683,2.799,8.686,5.191,12.688,7.584c-0.061,0.297-0.121,0.593-0.182,0.89
	c-4.493,0.622-8.986,1.244-14.663,2.03c4.623,3.236,8.485,5.939,12.348,8.643c-0.05,0.385-0.1,0.77-0.151,1.155
	c-5.591,0-11.184,0.076-16.767-0.131c-0.496-0.018-0.924-1.875-1.62-3.393c-0.909,0.683-2.2,1.171-2.657,2.08
	c-2.197,4.367-5.908,7.05-9.819,9.641c-0.767,0.508-0.98,1.854-1.448,2.813c0.107,0.047,0.292,0.152,0.308,0.131
	c0.197-0.267,0.37-0.551,0.548-0.831c0.004-0.003,0.008-0.005,0.012-0.008c3.201,4.339,6.41,8.7,9.62,13.061
	c-0.141,0.388-0.282,0.776-0.423,1.164c-7.656-1.163-15.312-2.326-22.968-3.489c1.332,4.475,2.667,8.96,4.338,14.573
	c-8.077-2.331-15.288-4.412-22.498-6.492c0.025-0.31,0.049-0.62,0.074-0.931c1.702-0.88,3.404-1.761,5.106-2.642
	c-0.145-0.294-0.291-0.588-0.436-0.882c-4.225,1.701-9.251,1.573-12.919,6.189c2.552-0.716,4.528-1.27,7.441-2.087
	c-0.72,6.263-1.344,11.698-2.061,17.94c-7.878-3.186-15.289-6.184-22.701-9.181c-0.02-0.321-0.039-0.642-0.059-0.963
	c5.324-1.695,10.647-3.391,15.971-5.086c-0.103-0.382-0.207-0.764-0.31-1.146c-13.792,3.454-27.583,6.908-41.375,10.362
	c0.092,0.468,0.184,0.935,0.277,1.403c7.624-1.557,15.248-3.115,23.412-4.782c-1.724,6.488-3.208,12.077-4.691,17.659
	c-0.002,0-0.003,0-0.005-0.001c-3.678-1.37-7.397-2.646-10.983-4.225c-4.585-2.019-9.062-4.283-13.355-7.251
	c1.336-0.334,2.672-0.667,4.008-1.001c-0.05-0.45-0.1-0.899-0.149-1.349c-5.869-0.19-11.599,1.486-17.4,2.324
	c-5.909,0.854-11.823,1.731-17.763,2.279c-5.989,0.553-12.015,0.715-18.024,1.049c-0.004,0.332-0.008,0.663-0.011,0.995h11.98
	c0.185,0.276,0.37,0.551,0.555,0.827c-3.341,3.177-6.675,6.36-10.027,9.525c-0.543,0.513-1.17,0.935-1.743,1.417
	c-5.286,4.448-5.265,4.426-10.421-0.072c-3.427-2.99-6.922-5.902-10.386-8.849c0.108-0.449,0.216-0.897,0.325-1.346
	c5.933-0.238,11.867-0.477,17.8-0.715c-0.042-0.376-0.085-0.752-0.127-1.129H390.19c-0.033,0.427-0.066,0.854-0.099,1.281
	c2.429,0.313,4.857,0.626,8.238,1.062c-6.229,4.824-11.86,9.185-17.808,13.792c-4.233-4.97-8.308-9.754-12.749-14.967h20.838
	c0.039-0.357,0.077-0.714,0.116-1.072c-0.905-0.182-1.804-0.484-2.716-0.525c-6.407-0.285-12.815-0.612-19.225-0.684
	c-1.268-0.014-2.547,0.998-3.821,1.547c-0.634,0.823-1.144,1.831-1.964,2.373c-3.728,2.469-7.554,4.792-11.344,7.167
	c0.033-0.03,0.067-0.061,0.101-0.091c-2.171,0.886-4.349,1.776-6.744,2.755c-2.482-2.76-5.089-5.658-7.695-8.557
	c1.766,2.795,3.532,5.589,5.502,8.707c-0.948,0.2-1.63,0.536-2.248,0.445c-5.773-0.857-11.545-1.729-17.289-2.758
	c-0.925-0.166-2.478-1.231-2.412-1.689c0.19-1.321,0.745-2.963,1.735-3.71c1.543-1.163,3.673-1.511,5.359-2.528
	c3.718-2.244,6.903-2.286,9.471,1.653c-0.988-1.82-1.979-3.647-3.043-5.607c-4.343,1.783-8.309,3.41-12.146,4.986
	c-0.395-0.57-0.514-0.665-0.531-0.776c-1.301-8.494-1.297-8.519,6.878-7.308c5.229,0.775,10.443,1.651,15.67,2.435
	c0.655,0.098,1.353-0.097,2.116-0.835c-2.638-0.594-5.263-1.256-7.918-1.766c-5.098-0.979-10.226-1.808-15.31-2.854
	c-1.008-0.207-2.456-0.919-2.715-1.718c-2.788-8.588-8.744-15.046-14.268-21.816c-1.416-1.735-2.853-3.529-3.854-5.512
	c-5.478-10.852,2.413-23.717,14.814-24.271c0.596-0.027,1.43-0.043,1.77,0.307c5.258,5.417,12.327,4.759,18.909,5.72
	c0.614,0.09,1.264,0.143,1.869,0.043c12.685-2.1,24.615,1.915,36.79,4.309c21.444,4.216,43.014,3.524,64.523,0.422
	c6.778-0.977,13.437-2.774,20.163-4.13c1.068-0.215,2.206-0.095,3.312-0.111c9.83-0.147,19.682,0.06,29.484-0.539
	c8.857-0.54,13.128-9.362,8.493-17.088c-1.469-2.449-3.097-4.839-4.93-7.024c-1.338-1.594-1.652-2.764-0.325-4.552
	C503.361,622.76,508.949,610.626,510.504,597.53z M320.644,656.205c9.398-1.68,18.418-0.731,26.935,3.743
	C338.363,660.488,329.105,661.355,320.644,656.205z M492.365,577.845c0.169,1.788,0.392,3.571,0.59,5.356c0.357,0,0.714,0,1.071,0
	c0.244-3.228,0.488-6.457,0.752-9.952c4.307,0.821,7.601,2.602,9.841,6.289c4.85,7.983,4.62,16.476,2.375,25.032
	c-3.866,14.738-11.426,27.347-22.579,37.782c-1.038,0.971-1.819,2.216-2.719,3.335c0.415,0.398,0.83,0.795,1.245,1.193
	c3.029-2.907,6.059-5.815,9.397-9.019c4.136,3.938,7.2,8.22,7.905,13.761c0.45,3.538-2.267,7.233-6.613,7.872
	c-7.108,1.045-14.723,2.9-21.424,1.362c-8.264-1.897-15.198,1.13-22.597,2.371c-27.333,4.584-54.63,6.136-81.973,0.381
	c-4.441-0.935-8.784-2.33-13.12-4.004c13.971,0.793,27.512,0.01,39.753-7.75c-1.001,0.268-2.037,0.444-2.997,0.818
	c-15.857,6.188-32.028,5.765-48.314,2.222c-10.013-2.178-20.035-3.174-30.016-0.181c-3.183,0.954-6.359,2.368-9.124,4.198
	c-6.948,4.598-9.23,11.747-6.71,19.657c0.486,1.524,1.077,3.015,1.972,5.499c-1.93-1.176-3.112-1.913-4.31-2.623
	c-4.73-2.805-7.178-1.897-8.299,3.527c-0.984,4.762-1.527,9.62-2.129,14.453c-0.278,2.236-1.147,2.903-3.456,2.524
	c-13.381-2.194-18.046,0.495-23.069,13.015c-0.31,0.772-0.729,1.501-1.49,3.048c-6.548-13.254-9.476-26.417-8.494-40.291
	c1.598-22.574,11.384-40.615,30.403-53.315c13.734-9.171,28.884-11.128,44.894-8.84c12.207,1.745,23.795,5.534,35.248,9.989
	c8.354,3.249,17.101,4.972,26.022,2.642c3.114-0.813,5.936-2.745,8.892-4.166c-0.179-0.437-0.358-0.873-0.537-1.31
	c-1.404,0.515-2.837,0.964-4.208,1.557c-8.898,3.847-18.029,3.275-26.725,0.097c-14.71-5.377-29.368-10.621-45.146-11.865
	c-1.037-0.082-2.717-1.291-2.85-2.165c-1.627-10.719-1.273-21.229,4.637-30.81c1.126-1.825,2.773-3.328,4.879-5.801
	c0.242,4.158,0.414,7.123,0.587,10.087c0.417,0.048,0.834,0.095,1.251,0.143c0.318-1.139,0.889-2.271,0.916-3.417
	c0.933-38.695,11.132-74.933,28.725-109.254c0.976-1.905,0.914-4.321,1.531-6.442c0.277-0.951,1.036-1.762,1.872-3.113
	c-21.953-22.181-18.546-48.456-10.192-76.201c1.38,1.26,2.13,1.945,2.88,2.63c0.263-0.088,0.526-0.176,0.789-0.265
	c-0.211-1.077-0.365-2.168-0.644-3.227c-1.652-6.271-3.363-12.528-4.98-18.808c-0.307-1.194-0.384-2.473-0.394-3.714
	c-0.043-5.093,2.694-6.936,6.852-3.95c6.066,4.356,11.617,9.428,17.384,14.199c0.974,0.806,1.929,1.634,2.893,2.451
	c0.32-0.31,0.641-0.621,0.961-0.931c-1.613-1.822-3.225-3.645-4.843-5.472c10.732-8.491,69.447-8.794,87.758-0.324
	c-2.787,2.559-5.438,4.993-8.09,7.428c0.277,0.331,0.555,0.662,0.832,0.993c2.579-2.129,5.157-4.257,7.965-6.575
	c1.754,3.104,4.283,3.889,7.61,3.23c0.773-0.153,2.563,1.259,2.717,2.153c0.763,4.419,2.104,8.078,7.974,8
	c-1.169,2.737-2.07,4.848-3.128,7.323c1.233-0.34,2.088-0.576,3.329-0.918c5.397,27.872,5.328,54.152-16.208,74.857
	c1.235,1.439,2.219,2.292,2.819,3.359c0.724,1.288,0.944,2.865,1.689,4.136c13.137,22.4,21.049,46.647,24.908,72.193
	C490.782,555.395,491.307,566.66,492.365,577.845z M460.39,367.373c5.359-3.953,10.902-7.734,16.72-10.956
	c2.777-1.538,4.353,0.401,4.63,4.496c-1.407,5.915-2.733,11.851-4.291,17.727c-0.293,1.107-1.574,2.824-2.279,2.767
	c-1.417-0.114-2.783-1.204-4.098-2.009c-0.356-0.218-0.603-0.845-0.646-1.308c-0.477-5.123-2.331-8.112-8.342-6.629
	C459.884,372.003,458.482,368.78,460.39,367.373z M805.705,496.13c0.204,10.122,0.345,20.245,0.465,30.368
	c0.059,4.997,0.006,5.018-5.265,4.977c-49.871-0.388-99.742-0.994-149.615-1.12c-52.371-0.132-104.744,0.15-157.115,0.415
	c-3.85,0.019-5.737-0.88-6.156-4.857c-0.282-2.672-1.273-5.27-2.139-8.651c2.24,0,3.925-0.007,5.611,0.001
	c88.494,0.439,176.988,0.876,265.482,1.322c10.374,0.052,20.749,0.148,31.123,0.231c4.436,0.036,5.474-0.845,5.522-5.455
	c0.072-6.998,0.015-14-0.112-20.997c-2.005-110.113-2.075-220.229-0.319-330.345c0.498-31.243,1.474-62.478,2.203-93.717
	c0.036-1.519-0.197-3.044-0.304-4.567c-0.417-0.042-0.834-0.084-1.25-0.126c-0.262,1.135-0.729,2.265-0.755,3.406
	c-0.899,38.362-2.197,76.72-2.528,115.087c-0.686,79.614-1.021,159.233-1.154,238.851c-0.051,30.368,0.778,60.74,1.409,91.105
	c0.08,3.852-1.748,3.906-4.524,3.874c-30.872-0.353-61.743-0.805-92.616-0.94c-67.871-0.297-135.742-0.467-203.614-0.521
	c-3.959-0.003-5.551-1.099-6.749-4.894c-4.182-13.245-9.387-26.091-16.831-37.921c-2.968-4.717-2.8-8.222,0.757-12.298
	c7.043-8.071,10.817-17.61,12.703-27.976c0.409-2.249,1.137-3.21,3.548-3.197c31.498,0.176,62.997,0.269,94.496,0.404
	c0.824,0.004,1.646,0.255,2.839,0.452c-0.692,1.952-1.289,3.636-2.077,5.858c7.543,0.623,11.901-4.683,17.533-7.338
	c-2.375-3.436-12.197-7.593-17.5-7.592c0.391,1.544,0.763,3.017,1.261,4.985c-1.713,0.144-3.133,0.369-4.552,0.366
	c-30.124-0.066-60.248-0.2-90.372-0.185c-3.181,0.002-4.381-0.661-4.167-4.152c0.677-11.055-0.729-21.937-3.336-32.7
	c-0.436-1.799-0.069-3.902,0.335-5.776c1.495-6.945,3.462-13.801,4.674-20.79c1.107-6.387-2.318-8.974-8.124-5.998
	c-4.954,2.539-9.357,6.142-14.089,9.138c-1.129,0.715-2.916,1.615-3.866,1.201c-9.383-4.085-19.409-4.754-29.342-5.46
	c-18.013-1.28-36.109-1.317-53.552,3.913c-5.837,1.75-9.475,0.907-13.436-3.117c-2.146-2.18-4.922-3.872-7.666-5.302
	c-4.605-2.4-8.756-0.337-8.656,4.786c0.106,5.417,1.313,10.862,2.5,16.191c0.679,3.047,0.76,5.7-0.396,8.683
	c-4.469,11.533-6.735,23.529-6.519,35.921c0.042,2.431-0.63,3.28-3.135,3.272c-26.624-0.094-53.248-0.076-79.872-0.128
	c-4.261-0.008-4.73-0.632-4.738-5.625c-0.089-60.498-0.172-120.996-0.256-181.494c-0.032-23.124-0.067-46.248-0.089-69.373
	c-0.001-1.106,0.113-2.212,0.202-3.847c2.006,0.451,3.726,0.838,6.157,1.385c-0.65-2.293-1.091-4.145-1.701-5.94
	c-1.164-3.426-2.174-6.938-3.717-10.191c-1.506-3.175-3.445-3.166-4.991-0.133c-2.21,4.336-4.205,8.783-6.201,13.223
	c-0.309,0.686-0.135,1.59-0.215,2.896c2.528-0.727,4.598-1.322,7.185-2.066c0.115,1.719,0.279,3.019,0.278,4.318
	c-0.121,84.372-0.254,168.744-0.4,253.117c-0.003,1.495-0.183,2.989-0.266,4.484c-0.168,3.026,1.175,3.989,4.138,3.346
	c2.635-0.572,5.343-1.139,8.019-1.143c25.249-0.033,50.498,0.12,75.747,0.027c3.192-0.012,4.407,0.887,4.745,4.034
	c1.047,9.728,4.968,18.289,11.424,25.604c3.476,3.937,3.676,8.32,1.456,12.502c-7.407,13.956-13.718,28.349-18.173,43.507
	c-0.92,3.129-2.998,2.812-5.221,2.817c-47.998,0.094-95.996,0.333-143.994,0.232c-53.247-0.112-106.492-0.567-159.739-0.792
	c-9.216-0.039-8.297,0.58-7.944-8.315c1.803-45.455,4.353-90.893,5.359-136.365c0.976-44.101,1.044-88.246,0.334-132.353
	c-0.897-55.728-2.985-111.437-4.554-167.155c-0.088-3.119-0.048-6.244-0.227-9.357c-0.122-2.112,0.709-2.97,2.788-2.936
	c4.374,0.072,8.749,0.066,13.124,0.081c144.743,0.501,289.486,1.014,434.23,1.496c90.496,0.301,180.992,0.57,271.488,0.813
	c14.999,0.04,29.997-0.111,44.996-0.218c1.681-0.012,3.36-0.318,5.04-0.488c0.034-0.435,0.067-0.87,0.101-1.304
	c-1.905-0.219-3.809-0.622-5.714-0.629c-37.623-0.132-75.246-0.191-112.869-0.318c-204.616-0.691-409.231-1.399-613.847-2.089
	c-12.249-0.041-24.499,0.018-36.749,0.029c-4.99,0.005-5.315,0.281-5.132,5.368c1.225,34.097,2.589,68.189,3.696,102.29
	c1.687,51.979,1.953,103.976,0.851,155.965c-0.983,46.356-2.501,92.701-3.87,139.048c-0.535,18.113-1.309,36.22-1.974,54.329
	c-0.13,3.546,0.869,4.234,4.367,4.183c6.99-0.103,13.984,0.143,20.977,0.183c85.239,0.483,170.478,0.971,255.717,1.409
	c10.998,0.056,21.998-0.167,32.997-0.259c1.093-0.009,2.187-0.001,3.843-0.001c-1.172,4.575-2.064,8.698-3.385,12.679
	c-0.271,0.816-2.133,1.527-3.284,1.562c-8.12,0.245-16.245,0.404-24.369,0.403c-86.246-0.013-172.492-0.072-258.738-0.089
	c-11.623-0.002-23.247,0.154-34.87,0.234c-1.363,0.009-2.725,0.001-4.681,0.001c0-1.443-0.039-2.628,0.006-3.81
	c1.868-49.208,4.136-98.404,5.523-147.625c1.87-66.355,1.791-132.727-0.199-199.087c-0.704-23.486-1.513-46.969-2.471-70.445
	C5.788,91.211,4.69,69.493,3.556,47.778c-0.173-3.315,0.547-4.526,4.214-4.522c137.741,0.132,275.483,0.201,413.224,0.17
	c127.746-0.029,255.492-0.182,383.237-0.282c4.923-0.004,4.922-0.013,4.77,4.946C804.45,197.412,802.698,346.753,805.705,496.13z
	 M546.609,690.831c0.034,0.005,0.069,0.01,0.103,0.016c-0.011-0.039-0.023-0.077-0.035-0.116L546.609,690.831z M362.937,717.706
	c0.008-0.004,0.017-0.008,0.025-0.012c0.026-0.034,0.049-0.071,0.076-0.104L362.937,717.706z M179.665,379.654
	c-0.153-3.137-1.219-6.229-1.875-9.341c0.028,0.004,0.056,0.011,0.083,0.015c-0.029-0.007-0.057-0.017-0.086-0.025
	c-0.006-0.027-0.012-0.054-0.018-0.081c0.001,0.026,0.002,0.051,0.003,0.077c-2.342-0.627-4.712-1.835-7.019-1.725
	c-14.349,0.686-28.674,2.057-43.026,2.397c-6.407,0.152-12.446-0.684-19.047,1.417c-8.063,2.566-17.094,1.9-25.53,3.538
	c-9.468,1.839-8.593-0.344-8.271,9.444c1.043,31.661,2.253,63.316,3.405,95.173c0.241-0.016,0.977,0.025,1.672-0.123
	c31.125-6.636,62.655-7.719,94.332-7.06c9.908,0.206,9.361,1.954,9.079-8.355C182.592,436.542,181.05,408.099,179.665,379.654z
	 M117.064,371.752c2.813,0.112,4.854,1.486,5.011,4.402c0.16,2.954-2.049,3.928-4.616,4.329c-2.535-0.295-4.759-1.244-4.64-4.187
	C112.918,373.848,113.966,371.629,117.064,371.752z M180.943,471.741c-34.113-2.207-67.585,0.115-100.893,6.383
	c-0.156-0.734-0.361-1.212-0.343-1.681c1.216-31.027-1.867-61.904-3.248-92.839c-0.241-5.408-0.355-5.617,5.029-6.29
	c9.38-1.172,18.797-2.052,28.527-3.09c0.141,5.907,2.802,8.719,8.294,8.974c1.843,0.086,3.279,1.291,2.006,3.672
	c-0.486,0.908-0.528,2.054-0.772,3.091c0.291,0.118,0.582,0.237,0.873,0.355c0.626-1.369,1.182-2.776,1.893-4.1
	c1.544-2.879,2.788-2.96,4.997-0.617c1.231,1.306,2.677,2.41,4.026,3.605c0.24-0.211,0.48-0.423,0.721-0.634
	c-0.642-0.783-1.199-1.659-1.941-2.332c-1.958-1.776-3.07-3.466-2.172-6.495c0.512-1.727-0.822-4.002-1.415-6.394
	c0.096-0.028,0.85-0.4,1.624-0.447c15.958-0.968,31.919-1.903,47.88-2.822c0.575-0.033,1.163,0.137,1.746,0.23
	C178.86,404.068,181.713,437.777,180.943,471.741z M739.882,298.115c-7.783-1.8-15.62-3.384-23.469-4.878
	c-3.038-0.578-5.445-1.479-7.362-4.275c-2.808-4.096-5.846-4.07-9.836-1.088c-1.224,0.915-3.105,1.574-4.585,1.417
	c-6.456-0.688-12.874-1.726-19.307-2.625c-7.671-1.071-15.335-2.192-23.017-3.175c-6.711-0.859-7.881-0.104-9.24,6.404
	c-1.633,7.822-3.282,15.658-4.453,23.557c-3.169,21.371-6.138,42.773-9.052,64.181c-0.406,2.986-0.056,6.075-0.056,9.081
	c34.304,2.46,67.822,5.632,100.872,16.08c0.181-1.063,0.408-2.248,0.583-3.441c3.006-20.513,5.967-41.033,9.023-61.538
	c1.602-10.749,3.416-21.465,5.043-32.211C745.922,299.683,745.875,299.501,739.882,298.115z M705.132,288.273
	c3.198,0.25,3.609,2.734,3.692,5.135c0.095,2.747-2.358,4.947-5.484,4.886c-2.272-0.303-4.021-1.621-4.093-4.484
	C699.174,290.86,702.19,288.043,705.132,288.273z M743.584,304.066c-4.123,23.999-8.163,48.014-12.054,72.052
	c-1.077,6.65-1.561,13.396-2.336,20.095c-0.138,1.19-0.37,2.369-0.59,3.749c-31.877-9.161-64.002-13.766-97.324-14.648
	c2.9-33.411,8.999-66.63,13.837-100.793c16.614,2.257,32.946,4.475,49.875,6.774c-0.942,2.178-1.833,3.68-2.209,5.302
	c-0.259,1.118-0.253,3.063,0.402,3.508c5.694,3.872,15.345,1.368,17.38-3.631c0.965-2.371,2.4-2.443,4.408-2.059
	c8.46,1.622,16.913,3.292,25.401,4.756C743.468,299.705,744.1,301.063,743.584,304.066z M648.566,246.379
	c29.223-0.95,58.455-1.638,87.684-2.424c0.723-0.019,1.442-0.2,2.434-0.345c-0.093-1.097-0.112-2.069-0.266-3.019
	c-2.605-16.076-4.234-32.252-3.117-48.526c1.085-15.819,2.751-31.599,4.275-47.385c0.47-4.867,0.347-5.159-4.452-5.318
	c-8.367-0.277-16.731-0.68-25.099-0.88c-2.526-0.06-4.27-0.643-5.975-2.847c-3.923-5.069-7.049-5.079-11.251-0.32
	c-1.932,2.188-4.009,2.864-6.849,2.856c-12.87-0.04-25.741,0.092-38.61,0.257c-5.539,0.071-5.834,0.17-6.274,5.568
	c-1.278,15.685-2.579,31.376-3.371,47.09c-0.852,16.908,0.314,33.699,4.292,50.252C642.914,245.198,644.49,246.512,648.566,246.379z
	 M694.822,138.639c0.208-2.527,1.482-4.235,4.138-4.447c2.157-0.172,4.487,2.863,4.367,6.855c-0.865,0.631-2.25,2.329-3.931,2.707
	C696.891,144.317,694.591,141.454,694.822,138.639z M640.811,169.737c0.613-8.597,1.335-17.187,1.876-25.788
	c0.172-2.726,0.97-3.808,4.04-3.762c12.991,0.192,25.987,0.024,38.982,0.067c1.14,0.004,3.119,0.395,3.242,0.939
	c0.253,1.12-0.478,2.466-0.816,3.716c-0.271,0.999-0.561,1.993-0.842,2.989c1.117,0.169,2.23,0.436,3.351,0.474
	c0.835,0.029,1.768-0.539,2.508-0.325c5.733,1.659,9.08-1.653,12.221-5.599c0.635-0.798,1.61-1.912,2.412-1.899
	c9.956,0.162,19.909,0.507,30.235,0.815c-4.452,33.608-8.498,66.81-1.094,100.497c-2.318,0.125-4.151,0.264-5.987,0.318
	c-27.599,0.816-55.199,1.585-82.795,2.484c-2.649,0.086-3.622-0.649-4.224-3.299C638.529,217.664,639.1,193.73,640.811,169.737z
	 M489.34,128.228c0.042,6.272,0.05,6.272,6.944,6.166c-1.258-9.606,5.186-16.323,8.89-24.189c0.52,6.515,0.572,12.878,0.489,19.239
	c-0.025,1.967,0.484,3.095,2.66,3.083c1.222-0.007,2.445,0.229,4.59,0.451c0-9.748-0.109-18.972,0.042-28.192
	c0.086-5.263,0.596-10.52,0.965-16.612c-1.115-0.65-3.189-1.859-5.461-3.183c-3.824,7.885-7.437,15.336-11.051,22.787
	c-0.258-0.072-0.516-0.144-0.774-0.216V88.047c-2.565-0.341-4.846-0.643-7.53-1c0,1.639-0.007,2.86,0.001,4.081
	C489.181,103.495,489.256,115.861,489.34,128.228z M517.091,128.432c1.671,2.539,3.211,4.88,5.425,8.244
	c5.117-6.024,9.871-11.619,14.935-17.58v13.556c7.036-0.621,6.819-0.631,7.121-6.812c0.547-11.206-1.741-22.645,2.702-33.587
	c0.356-0.876-0.827-3.076-1.871-3.703c-5.207-3.129-10.868-3.6-16.577-1.553c-4.225,1.515-8.141,3.708-8.76,8.765
	c-0.658,5.378,1.108,9.86,5.866,12.852c1.661,1.044,3.377,2.001,5.153,3.047C528.35,118.939,523.032,123.792,517.091,128.432z
	 M527.96,101.144c-0.686-0.933-0.708-3.106-0.078-4.117c1.993-3.199,5.31-3.149,8.873-2.791v9.533
	C533.268,104.337,530.083,104.031,527.96,101.144z M202.233,230.744c-0.493,33.879,1.371,67.749-6.771,100.227
	c-16.586-1.294-32.854-2.693-49.143-3.798c-16.415-1.114-32.85-2.073-49.538,0.858c1.038-5.536,2.137-10.383,2.834-15.288
	c3.675-25.842,4.25-51.785,2.02-77.775c-0.312-3.638,0.802-4.428,4.208-4.407c29.363,0.183,58.728,0.217,88.092,0.27
	c1.587,0.003,3.174-0.225,4.76-0.346c-0.034-0.454-0.068-0.909-0.103-1.363c-32.969-1.27-65.941-1.672-99.152,0.081
	c2.219,33.803,1.718,67.244-5.297,100.569c1.225,0,1.703,0.026,2.178-0.004c9.455-0.595,18.956-2.095,28.356-1.618
	c22.948,1.164,45.855,3.179,68.763,5.042c2.687,0.219,3.928-0.325,4.418-2.929c1.201-6.379,2.764-12.701,3.707-19.115
	c3.877-26.383,2.311-52.862,1.085-79.327C202.633,231.456,202.377,231.102,202.233,230.744z M164.371,205.919
	c4.7-12.039,8.625-24.306,9.601-37.229c1.364-18.055,2.249-36.146,3.275-54.225c0.345-6.077,0.252-5.995-5.999-6.137
	c-11.987-0.274-24.006-0.198-35.948-1.107c-17.053-1.298-34.057-3.279-51.062-5.153c-2.886-0.318-4.152,0.355-4.454,3.259
	c-0.801,7.695-1.724,15.377-2.623,23.061c-2,17.099-3.695,34.243-6.189,51.269c-0.942,6.432-3.748,12.592-5.83,19.276
	c2.384,0.347,4.599,0.608,6.79,0.998c28.838,5.13,57.996,7.086,87.176,8.824C161.473,208.894,163.283,208.705,164.371,205.919z
	 M157.8,207.349c-28.681-3.103-57.367-6.161-86.048-9.256c-1.094-0.118-2.161-0.486-3.456-0.788
	c0.107-0.751,0.063-1.377,0.287-1.884c6.386-14.411,8.101-29.839,9.534-45.26c1.306-14.049,2.121-28.149,2.869-42.241
	c0.191-3.605,1.411-4.36,4.787-4.005c18.629,1.957,37.26,3.944,55.927,5.457c9.574,0.776,19.226,0.576,28.842,0.84
	c1.58,0.043,3.157,0.207,5.037,0.335c-0.28,4.088-0.537,7.796-0.787,11.504c-0.941,13.959-1.849,27.92-2.827,41.876
	c-0.985,14.076-4.436,27.575-9.573,40.687C161.5,206.892,160.119,207.6,157.8,207.349z M379.891,135.239
	c1.375-2.493,2.115-5.765,4.094-6.925c2.343-1.373,5.754-0.925,8.83-1.282c0.801,2.803,1.505,5.268,2.275,7.964
	c2.225-0.42,4.146-0.783,6.679-1.261c-2.073-9.507-4.261-18.475-5.925-27.539c-1.16-6.322-3.729-12.227-4.891-18.524
	c-0.088-0.474-0.763-0.948-1.274-1.217c-1.634-0.86-3.32-1.622-5.227-2.538c-0.406,1.408-0.779,2.438-0.999,3.5
	c-2.838,13.694-5.665,27.391-8.472,41.092C373.901,133.781,374.566,134.591,379.891,135.239z M387.16,106.084
	c0.276-0.015,0.552-0.031,0.828-0.046c0.903,3.786,1.805,7.571,2.844,11.929c-2.025,0.229-3.781,0.428-6.401,0.724
	C385.4,114.214,386.28,110.149,387.16,106.084z M295.546,134.107c4.993-1.723,9.597-4.607,14.284-7.142
	c0.596-0.323,1.027-1.7,0.896-2.481c-0.424-2.516-1.148-4.982-1.851-7.86c-1.899,1.214-3.287,2.281-4.826,3.046
	c-2.77,1.376-5.537,2.896-8.482,3.739c-2.464,0.705-4.802-0.424-4.352-3.45c1.048-7.044,5.155-12.278,10.762-17.315
	c0.134,2.627,0.228,4.457,0.392,7.672c2.89-1.84,6.571-2.982,6.731-4.496c0.669-6.343,0.282-12.796,0.282-19.191
	c-5.372-0.007-5.345,0.01-7.792,3.782c-0.381,0.588-1.112,0.968-1.72,1.386c-9.365,6.436-14.669,15.48-16.613,26.503
	c-0.485,2.751-0.406,5.77,0.174,8.505C284.682,132.699,289.884,136.061,295.546,134.107z M348.662,132.772
	c6.62,0.311,6.677,0.272,6.715-5.874c0.024-3.832,0.004-7.665,0.004-11.5c10.26-1.15,15.408-7.266,17.697-16.064
	c2.376-9.135-3.894-16.297-13.17-14.76c-5.061,0.839-9.898,3.037-14.876,4.635C350.867,104.119,346.585,118.709,348.662,132.772z
	 M355.605,97.349c0.091-1.173,0.784-3.234,1.323-3.273c2.231-0.164,4.706-0.156,6.676,0.721c0.882,0.392,1.461,3.215,1.008,4.532
	c-1.36,3.952-4.908,5.229-9.069,6.217C355.542,102.543,355.404,99.933,355.605,97.349z M434.92,111.778
	c0.03,1.622,0.036,3.245,0.038,4.868c0.004,5.462,0.002,10.924,0.002,17.017c8.112-0.987,15.342-1.866,22.38-2.722v-8.948
	c-5.222,0.405-10.097,0.784-15.05,1.168v-10.869c3.288-0.407,7.047,0.142,9.241-1.458c1.839-1.341,1.851-5.188,2.867-8.578
	c-4.726,0.233-8.258,0.407-11.734,0.578c-0.958-5.133-0.892-5.195,3.68-5.6c2.446-0.217,4.881-0.544,7.239-0.812v-8.78
	c-7.492,0.642-14.599,1.251-21.925,1.879c0.323,2.256,0.133,4.077,0.853,5.406C435.417,100.294,434.813,106.069,434.92,111.778z
	 M325.689,97.34v35.696c6.806,0.671,7.116,0.415,7.149-5.402c0.054-9.357,0.166-18.714,0.118-28.07
	c-0.011-2.208,0.64-3.151,2.925-3.206c2.186-0.053,4.363-0.505,6.845-0.821c-0.165-3.084-0.308-5.761-0.473-8.854
	c-9.148,0.789-17.889,1.542-26.958,2.324c0.529,3.32,0.971,6.092,1.455,9.135C319.786,97.87,322.448,97.631,325.689,97.34z
	 M412.008,97.319v35.906c7.245,0.172,7.245,0.172,7.276-6.065c0.04-7.994,0.086-15.989,0.12-23.983
	c0.027-6.281,0.022-6.276,6.024-7.089c1.092-0.148,2.176-0.352,3.261-0.53V86.67c-9.149,0.802-17.891,1.568-26.946,2.361
	c0.565,3.4,1.023,6.163,1.516,9.129C406.275,97.871,408.848,97.623,412.008,97.319z M464.188,112.974
	c0.217,4.234,0.112,8.484,0.137,12.727c0.015,2.452,0.003,4.904,0.003,7.3c6.812,0.518,7.019,0.324,7.039-5.599
	c0.03-8.861,0.151-17.722,0.081-26.581c-0.02-2.529,0.798-3.576,3.397-3.631c2.699-0.057,5.389-0.561,8.078-0.869v-8.866
	c-7.36,0.621-14.368,1.212-21.959,1.853c0.394,2.602,0.155,4.867,1.082,6.446C465.279,101.26,463.893,107.204,464.188,112.974z
	 M190.306,283.397c-2.487,0-4.977,0.058-7.462-0.026c-1.125-0.038-2.631,0.031-3.289-0.625c-2.086-2.078-4.173-1.789-6.51-0.754
	c-1.708,0.756-3.435,1.495-5.209,2.071c-3.008,0.978-6.012,1.716-6.238-3.475c-1.982,0.81-3.516,1.747-5.162,2.023
	c-1.708,0.286-4.223,0.629-5.14-0.292c-1.699-1.706-2.738-0.799-4.227-0.234c-2.647,1.005-5.359,1.835-8.925,3.035
	c0.559-2.284,0.78-3.188,1.226-5.008c-4.344,1.803-7.882,3.521-11.583,4.747c-5.144,1.704-5.973,1.151-7.273-4.193
	c-2.18,1.679-4.157,3.202-6.134,4.724c0.151,0.233,0.302,0.466,0.453,0.699c1.131-0.393,2.262-0.785,3.35-1.163
	c3.645,3.211,5.335,3.467,11.042,1.659c3.131-0.992,6.18-3.475,9.494-0.321c0.345,0.329,1.26,0.299,1.816,0.128
	c4.682-1.433,9.364-1.809,14.303-1.416c2.422,0.192,4.717-1.014,7.033,1.146c0.892,0.833,3.152,0.647,4.639,0.295
	c2.527-0.598,4.897-1.836,7.41-2.52c1.175-0.32,3.043-0.502,3.722,0.157c4.222,4.096,8.473-0.57,12.602,1.348
	C190.265,284.734,190.285,284.065,190.306,283.397z M151.106,239.462c-1.011-1.454-2.291-2.971-3.821-3.761
	c-3.392-1.75-6.909-3.831-10.566-4.304c-2.67-0.346-5.872,5.923-5.527,9.213c0.355,3.382,2.863,5.34,7.2,5.617
	c0.622,0.04,1.244,0.075,2.963,0.178c-0.228,0,0.736,0.245,1.496-0.043c2.941-1.116,5.87-2.301,8.652-3.752
	C151.857,242.425,151.667,240.27,151.106,239.462z M137.595,243.489c-2.722-0.005-4.026-1.635-4.166-4.222
	c-0.178-3.289,1.496-5.379,4.586-5.429c2.441,0.128,3.976,1.683,4.244,4.373C142.518,240.809,140.129,243.493,137.595,243.489z
	 M118.381,269.542c1.162-0.892,2.07-1.589,3.204-2.458c0.096,0.91,0.018,1.579,0.256,2.104c0.386,0.853,0.98,1.613,1.486,2.412
	c0.391-0.792,1.114-1.582,1.119-2.377c0.03-4.478-0.061-8.958-0.254-13.432c-0.027-0.636-0.831-1.24-1.276-1.858
	c-0.473,0.6-1.164,1.131-1.38,1.812c-0.779,2.457-1.397,4.964-2.076,7.452c-0.337,0.001-0.674,0.002-1.012,0.002
	c-1.031-2.505-1.993-5.042-3.142-7.491c-0.292-0.623-1.179-0.968-1.792-1.441c-0.371,0.577-1.068,1.159-1.061,1.731
	c0.06,4.851,0.211,9.703,0.452,14.548c0.026,0.513,0.811,0.988,1.244,1.481c0.454-0.598,1.202-1.152,1.3-1.803
	c0.203-1.355,0.061-2.762,0.061-4.147c0.229,0,0.459,0.001,0.688,0.001C116.883,267.166,117.569,268.254,118.381,269.542z
	 M179.038,270.452c2.185-1.308,4.375-2.62,6.782-4.061c0.378,1.669,0.64,2.828,0.942,4.164c0.67-0.158,1.516-0.235,1.527-0.378
	c0.411-5.253,0.745-10.512,1.116-16.162c-3.516-1.976-7.666-1.379-9.538,1.42c-1.899,2.839-0.803,6.111,2.894,8.64
	C177.552,268.241,177.552,268.241,179.038,270.452z M182.242,258.709c0.789-1.099,1.579-2.197,2.368-3.296
	c0.541,0.307,1.082,0.613,1.622,0.92l-1.43,3.802C183.949,259.66,183.096,259.184,182.242,258.709z M116.686,313.07
	c1.732-0.462,4.472-1.16,5.303-0.315c4.473,4.552,9.164,2.539,13.951,1.214c3.157-0.874,6.361-2.636,9.362,0.527
	c0.4,0.422,1.436,0.385,2.161,0.331c6.684-0.499,13.363-1.053,20.045-1.573c0.606-0.047,1.228-0.022,1.831,0.056
	c4.432,0.574,8.861,1.171,13.29,1.76c0.286-0.604,0.571-1.208,0.857-1.813c-0.484-0.157-0.96-0.412-1.454-0.457
	c-4.729-0.428-9.471-1.232-14.19-1.125c-6.694,0.152-13.37,1.002-20.059,1.494c-0.699,0.051-1.676-0.06-2.1-0.502
	c-2.333-2.435-4.987-1.721-7.678-1.017c-2.533,0.662-5.033,1.586-7.608,1.897c-1.735,0.21-3.923,0.093-5.305-0.805
	c-4.809-3.127-10.264-2.327-14.138,2.872C113.124,314.621,114.83,313.564,116.686,313.07z M128.42,254.433
	c0,5.216-0.045,10.425,0.058,15.631c0.013,0.644,0.811,1.273,1.245,1.91c0.473-0.572,1.124-1.074,1.386-1.73
	c0.843-2.114,1.543-4.285,2.298-6.434c0.24,0.068,0.479,0.137,0.719,0.205c0.491,2.434,0.983,4.869,1.474,7.303l2.003-0.415
	c0-5.329,0.057-10.66-0.08-15.986c-0.015-0.595-1.14-1.161-1.985-1.963c-1.419,2.875-2.561,5.191-4.057,8.224
	C130.136,254.703,130.136,254.703,128.42,254.433z M170.115,268.973c0.842-1.818,1.57-3.688,2.344-5.537
	c0.318,0.092,0.637,0.184,0.955,0.275c0.076,1.459-0.012,2.954,0.289,4.365c0.19,0.891,0.963,1.659,1.474,2.482
	c0.37-0.8,1.032-1.589,1.063-2.402c0.169-4.479,0.248-8.966,0.181-13.447c-0.01-0.683-0.94-1.352-1.792-2.493
	c-1.539,3.071-2.751,5.49-4.299,8.579c-1.247-6.669-1.247-6.669-3.002-6.699c0,4.851-0.065,9.705,0.057,14.554
	c0.023,0.918,0.784,1.817,1.205,2.725C169.106,270.578,169.72,269.826,170.115,268.973z M160.873,258.147
	c0.781-1.168,1.194-2.582,2.113-4.654c-6.529,1.839-11.021,9.473-9.642,14.503c0.943,3.442,3.52,3.349,5.952,2.342
	c2.207-0.914,5.839-1.403,3.631-5.854c-1.329,0.718-2.261,1.382-3.298,1.735c-0.876,0.298-1.874,0.236-2.819,0.333
	c-0.01-1.043-0.412-2.322,0.047-3.082C157.999,261.578,159.638,259.993,160.873,258.147z M148.325,258.656
	c0.789-1.181,1.24-2.588,1.843-3.894c-0.48-0.24-0.96-0.48-1.44-0.72c-4.348,2.025-6.84,5.659-7.623,10.258
	c-0.34,1.999-0.106,5.314,1.088,6.05c1.521,0.937,4.379,0.198,6.477-0.432c2.133-0.641,3.833-2.094,1.489-4.718
	c-1.012,0.519-1.955,1.143-2.99,1.491c-0.872,0.293-1.853,0.266-2.785,0.381c-0.039-1.043-0.483-2.326-0.036-3.081
	C145.47,262.093,147.093,260.499,148.325,258.656z M111.462,303.214c1.628-0.281,3.305-0.399,4.875-0.873
	c4.236-1.279,8.386-3.616,12.665,0.036c0.622,0.531,1.984,0.555,2.888,0.337c4.14-1.001,8.062-2.495,12.596-1.365
	c2.962,0.738,6.281,0.226,9.421,0.003c2.528-0.18,5.028-0.766,7.54-1.171l-0.172-0.893c-2.907,0-5.814,0.004-8.721-0.001
	c-2.204-0.004-4.432-0.232-6.607,0.014c-4.909,0.555-9.787,1.385-14.691,1.991c-0.8,0.099-1.931-0.105-2.464-0.625
	c-2.978-2.908-6.101-1.883-9.378-0.734c-2.628,0.921-5.356,1.554-8.04,2.315C111.403,302.568,111.433,302.891,111.462,303.214z
	 M189.568,299.732c-4.205-0.315-8.254-0.298-12.303-0.334c-0.586-0.005-1.371-0.069-1.722-0.434
	c-2.452-2.546-4.589-0.211-6.854-0.05c-0.002,0.432-0.004,0.864-0.006,1.296c3.276,0.264,6.553,0.508,9.827,0.8
	c1.273,0.114,2.584,0.176,3.797,0.536C185.292,302.432,187.454,301.147,189.568,299.732z M423.992,474.261
	c-14.309-1.034-28.525-2.061-43.315-3.129C395.214,475.895,409.458,476.49,423.992,474.261z M580.435,647.289
	c-1.823,6.02-3.646,12.04-5.47,18.06C579.762,660.181,580.808,653.92,580.435,647.289z M546.615,690.822
	c-0.006,0.009,0.062-0.091,0.062-0.091c-0.008-0.008-0.017-0.016-0.025-0.023C546.64,690.745,546.628,690.785,546.615,690.822z
	 M547.392,688.897c2.516-1.497,5.174-2.755,7.702-4.234c0.96-0.562,1.702-1.495,2.544-2.26c-0.186-0.178-0.372-0.356-0.558-0.534
	c-4.103,2.234-8.206,4.467-12.567,6.842c0.947,0.883,1.545,1.441,2.139,1.996C546.873,690.049,546.948,689.162,547.392,688.897z
	 M360.841,715.446c-2.62-0.536-5.322-0.713-8.001-0.884c-0.657-0.042-1.35,0.466-2.026,0.721c0.03,0.32,0.061,0.641,0.091,0.961
	c3.975,0.441,7.95,0.882,11.925,1.323C362.185,716.775,361.616,715.605,360.841,715.446z M362.939,717.702
	c-0.002,0.004,0.099-0.112,0.099-0.112l-0.208-0.023C362.866,717.612,362.902,717.66,362.939,717.702z M544.133,690.922l-0.73-1.467
	c-2.636,1.35-5.272,2.7-7.909,4.049c0.163,0.433,0.325,0.866,0.488,1.299C538.699,693.509,541.416,692.216,544.133,690.922z
	 M155.06,432.493c-1.647,0.095-4.409,0.386-4.783-0.357c-1.536-3.054-3.601-1.977-5.713-1.411c-2.29,0.614-4.538,1.408-6.851,1.901
	c-0.979,0.208-2.789,0.172-3.007-0.307c-1.391-3.05-3.601-1.474-5.485-1.146c-4.238,0.738-8.238,3.827-12.815,1.129
	c-0.425-0.25-1.212,0.1-1.828,0.19c-3.842,0.559-7.668,2.683-11.551,0.01c-0.374-0.257-1.21,0.07-1.803,0.231
	c-4.616,1.253-9.225,2.532-13.836,3.803c-0.073,0.388-0.145,0.777-0.218,1.165c1.68,0,3.414,0.264,5.029-0.061
	c2.559-0.515,5.026-1.476,7.56-2.143c1.05-0.276,2.173-0.393,3.261-0.389c2.901,0.011,5.803,0.204,8.703,0.17
	c1.48-0.017,3.353-1.042,4.361-0.447c3.482,2.058,6.5,0.399,9.668-0.494c2.427-0.684,4.788-2.014,7.098,0.613
	c0.56,0.637,2.407,0.419,3.58,0.183c2.563-0.515,5.062-1.346,7.613-1.934c0.925-0.213,2.432-0.526,2.81-0.073
	c2.924,3.506,6.383,1.556,9.732,1.302c2.618-0.199,5.279,0.16,7.893-0.063c2.853-0.243,5.674-0.87,8.509-1.329
	c-0.099-0.586-0.198-1.173-0.297-1.759C166.813,431.692,160.94,432.153,155.06,432.493z M165.249,459.031
	c-2.989,0.121-5.971,0.446-8.952,0.726c-8.731,0.82-17.459,1.68-26.192,2.481c-3.316,0.304-6.64,0.574-9.967,0.705
	c-3.059,0.121-6.156-0.226-9.181,0.117c-2.828,0.321-5.567,1.366-8.381,1.907c-1.025,0.197-2.297,0.16-3.209-0.281
	c-4.735-2.293-7.24-1.815-11.378,2.452c0.215,0.054,0.484,0.217,0.639,0.143c3.533-1.685,6.937-4.333,10.875-0.591
	c0.582,0.553,2.178,0.254,3.244,0.041c2.811-0.562,5.563-1.45,8.387-1.907c2.287-0.37,4.646-0.422,6.972-0.401
	c3.183,0.028,6.413,0.677,9.538,0.317c7.758-0.893,15.463-2.237,23.201-3.317c1.075-0.15,2.221,0.289,3.325,0.245
	c5.583-0.222,11.164-0.514,16.746-0.782l0.002-1.552C169.028,459.221,167.132,458.955,165.249,459.031z M97.782,452.936
	c2.802-0.492,5.909-2.206,8.307-1.481c6.683,2.019,12.826,0.393,19.131-1.144c1.282-0.313,3.026-0.793,3.931-0.215
	c3.04,1.94,5.97,1.143,9.02,0.426c2.055-0.483,4.125-1.052,6.216-1.203c3.39-0.244,6.802-0.217,10.204-0.225
	c2.167-0.005,4.338,0.238,6.502,0.179c2.348-0.064,4.69-0.35,7.034-0.54c-0.079-0.346-0.157-0.692-0.236-1.038
	c-2.754-0.436-5.512-1.236-8.261-1.207c-2.818,0.03-5.669,1.442-8.432,1.24c-5.999-0.438-11.808,0.255-17.617,1.506
	c-0.467,0.101-1.13,0.131-1.463-0.122c-2.959-2.238-5.912-0.723-8.943-0.219c-4.15,0.69-8.833,2.455-12.438,1.24
	c-7.156-2.413-12.708,1.746-18.997,2.782C93.804,453.446,95.809,453.283,97.782,452.936z M95.079,424.178
	c3.527-0.775,6.956-1.995,10.478-2.802c1.22-0.28,2.6,0.081,3.899,0.222c2.23,0.242,4.508,0.974,6.666,0.705
	c2.556-0.319,4.981-1.578,7.513-2.238c1.293-0.337,3.109-0.856,3.978-0.259c3.927,2.698,7.659,0.959,11.499,0.093
	c1.668-0.376,3.391-0.564,5.099-0.691c2.293-0.17,4.596-0.194,6.895-0.288c2.352-0.097,4.721-0.062,7.05-0.349
	c1.91-0.236,3.771-0.86,5.654-1.311c-5.162-1.669-9.962-0.665-14.828-0.33c-5.697,0.392-11.111,1.647-16.657,2.451
	c-0.359,0.052-0.852,0.079-1.096-0.116c-3.963-3.169-7.811-0.829-11.699,0.178c-3.399,0.881-6.79,2.806-10.202-0.223
	c-0.551-0.489-1.962-0.258-2.893-0.026c-5.479,1.366-10.934,2.831-16.397,4.262c-0.027,0.262-0.055,0.523-0.082,0.785
	C91.669,424.24,93.446,424.537,95.079,424.178z M145.433,412.105c2.463-0.904,5.202-1.625,7.104-3.275
	c1.134-0.983,1.652-3.765,1.147-5.313c-0.948-2.903-3.813-1.999-6.128-1.81c-0.238,0.019-0.484-0.051-1.108-0.125
	c-0.333-2.42-0.644-4.679-0.954-6.937c-0.356-0.09-0.712-0.181-1.069-0.271c-0.449,0.879-1.303,1.77-1.278,2.635
	c0.128,4.343,0.418,8.686,0.827,13.012C144.047,410.793,145.209,412.187,145.433,412.105z M115.559,411.563
	c-0.207-1.072-0.35-2.432-0.753-3.71c-0.336-1.065-1.181-1.987-1.428-3.059c-0.304-1.317-0.07-2.755-0.345-4.084
	c-0.312-1.505-0.931-2.947-1.416-4.417c-0.441,1.575-1.105,3.129-1.262,4.732c-0.168,1.715,0.087,3.482,0.255,5.216
	c0.241,2.485-0.95,2.967-3.163,2.502c-0.232-3.524-0.389-6.876-0.725-10.209c-0.067-0.664-0.82-1.259-1.257-1.885
	c-0.456,0.624-1.32,1.259-1.305,1.871c0.123,4.813,0.414,9.622,0.657,14.513C108.477,412.532,111.699,412.091,115.559,411.563z
	 M122.306,412.657c1.764-0.702,3.454-1.592,5.174-2.405c-1.681-0.667-3.362-1.334-5.995-2.378c-0.344-1.196-0.7-2.923,2.343-3.466
	c0.747-0.133,1.24-1.697,2.092-2.964c-2.228-0.266-3.474-0.415-4.719-0.563c-0.061-0.322-0.121-0.644-0.182-0.967
	c0.901-0.348,1.897-0.555,2.673-1.085c0.675-0.461,1.101-1.287,1.638-1.952c-0.703-0.466-1.431-1.358-2.105-1.319
	c-2.042,0.118-4.063,0.596-5.824,0.889c0.663,5.863,1.265,11.182,1.878,16.598C120.609,412.89,121.534,412.965,122.306,412.657z
	 M131.845,410.691c0.978-2.561,1.752-5.199,2.782-8.368c3.166,7.147,4.134,8.774,5.423,8.838c-1.558-5.815-3.09-11.536-4.623-17.257
	c-0.436,0.037-0.872,0.074-1.308,0.111c-1.644,5.332-3.331,10.651-4.87,16.013c-0.163,0.566,0.543,1.382,0.846,2.082
	C130.696,411.644,131.613,411.299,131.845,410.691z M664.905,319.447c3.282,7.086,4.228,8.32,6.776,7.92
	c3.748-0.588,5.283-3.432,6.126-6.726c1.037-4.05-0.217-8.285-2.997-9.66c-4.9-2.423-6.481,2.303-9.871,5.464
	c0.301-2.867,0.497-4.727,0.733-6.975c-2.93,0.622-5.359,9.101-4.952,16.056C664.97,325.387,662.032,320.307,664.905,319.447z
	 M672.001,314.156c1.393,0.05,2.704,2.343,4.857,4.381c-2.118,2.255-3.366,4.762-5.062,5.116c-2.574,0.536-3.306-2.179-3.309-4.357
	C668.484,316.873,669.032,314.048,672.001,314.156z M699.559,330.235c0.493,0.836,1.036,1.757,1.579,2.677
	c0.913-0.963,1.826-1.927,2.847-3.003c1.599,1.498,3.2,2.998,5.168,4.841c2.378-4.996-3.688-5.587-3.742-9.729
	c1.83-1.666,4.201-3.693,6.376-5.912c0.439-0.448,0.135-1.625,0.173-2.466c-0.745,0.118-1.768-0.03-2.184,0.404
	c-1.333,1.389-2.441,2.995-3.635,4.516c-0.346-0.279-0.691-0.559-1.037-0.838v-3.874l-1.145-0.545
	c-0.913,1.764-1.826,3.528-2.868,5.54c-1.549-1.626-3.061-3.214-5.116-5.372c-2.206,5.1,3.55,6.069,3.782,9.625
	c-2.292,1.796-4.696,3.681-7.442,5.833C696.191,335.196,697.177,330.14,699.559,330.235z M714.024,357.037
	c-3.126-3.347-6.645-1.639-10.119-1.625c-1.494,0.006-3.779-0.636-4.329-1.697c-1.278-2.465-3.078-2.736-5.273-2.409
	c-3.825,0.57-7.612,1.433-11.449,1.861c-1.273,0.142-3.36-0.266-3.859-1.127c-1.856-3.203-4.524-3.23-7.466-2.577
	c-2.799,0.622-5.519,1.651-8.337,2.106c-0.892,0.144-2.754-0.864-2.863-1.553c-0.551-3.473-2.772-3.518-5.277-2.893
	c-2.842,0.709-5.62,1.676-8.426,2.53c0.104,0.3,0.207,0.6,0.311,0.9c2.612-0.698,5.207-1.474,7.844-2.064
	c1.566-0.35,3.553-0.787,3.563,1.788c0.015,3.679,2.434,3.684,4.878,3.241c3.061-0.555,6.02-1.74,9.09-2.14
	c1.45-0.189,3.8,0.346,4.449,1.372c1.808,2.858,4.093,2.852,6.822,2.297c3.545-0.721,7.086-1.505,10.665-1.995
	c1.045-0.143,2.915,0.328,3.213,1.028c1.763,4.132,4.943,3.324,8.244,2.956c1.87-0.208,4.325-0.483,5.621,0.479
	c3.823,2.837,7.437,0.761,11.15,0.364c-1.223-0.669-2.481-0.662-3.738-0.671C717.124,357.2,714.785,357.852,714.024,357.037z
	 M647.169,323.012c2.49-0.031,5.29,0.377,7.363-0.645c1.59-0.784,3.059-3.39,3.155-5.259c0.147-2.855-2.664-3.061-4.944-3.277
	c-0.477-0.045-0.944-0.202-1.428-0.31c-0.79-3.708,1.074-3.993,3.958-3.575c0.844,0.122,1.857-0.924,2.792-1.434
	c-0.422-0.623-0.779-1.721-1.277-1.789c-2.769-0.377-5.572-0.505-7.971-0.687c-0.776,5.23-1.518,9.965-2.144,14.716
	C646.573,321.504,647,323.015,647.169,323.012z M681.311,329.802c1.78,0.165,3.558,0.487,5.298,0.904
	c0.796,0.191,1.5,0.763,2.246,1.163c0.428-0.983,1.229-1.973,1.212-2.949c-0.046-2.688-0.435-5.371-0.688-8.056
	c0.131-0.01,0.263-0.019,0.394-0.029c0.086-1.741,0.149-3.484,0.263-5.224c0.114-1.729,0.065-3.556-2.253-3.295
	c-1.122,0.126-2.571,1.045-3.108,2.024c-2.241,4.086-4.269,8.296-6.188,12.544c-0.415,0.919-0.057,2.187-0.054,3.294
	C679.393,330.04,680.371,329.715,681.311,329.802z M686.26,316.445c0.382,0.051,0.765,0.102,1.147,0.153
	c-0.327,3.506-0.654,7.012-1.007,10.795c-1.306-0.266-2.217-0.451-3.62-0.737C684,323.078,685.13,319.762,686.26,316.445z
	 M720.496,319.48c-1.789-0.372-3.662-0.341-5.407-0.468c-0.753,5.677-1.462,11.013-2.168,16.334
	c7.238,1.785,8.525,1.456,8.353-2.178c-1.612-0.339-3.25-0.684-5.087-1.071c0.29-1.438,0.504-2.495,0.679-3.363
	c1.78-0.957,5.067,0.73,4.486-3.076c-1.224-0.5-2.391-0.978-3.559-1.455c0.029-0.309,0.057-0.619,0.086-0.928
	c0.852-0.119,1.778-0.07,2.535-0.403c0.846-0.372,1.54-1.092,2.3-1.66C721.98,320.61,721.32,319.651,720.496,319.48z
	 M734.439,321.562c-2.664-0.364-5.352-0.551-8.032-0.801c-0.259,0.306-0.517,0.612-0.776,0.917c0.864,1.227,1.727,2.455,3.179,4.518
	c-0.488,2.723-1.185,6.252-1.7,9.807c-0.09,0.624,0.58,1.357,0.899,2.04c0.583-0.5,1.518-0.904,1.685-1.517
	c0.621-2.27,0.953-4.617,1.462-6.919c0.477-2.156,0.099-4.982,3.74-4.811c0.337,0.016,0.983-1.3,1.01-2.016
	C735.921,322.376,735.005,321.639,734.439,321.562z M716.997,375.23c-1.464,0.088-3.856,0.241-4.266-0.501
	c-1.327-2.407-3.178-1.973-5.142-1.827c-2.372,0.176-5.065,1.244-5.977-2.412c-0.11-0.441-1.284-0.996-1.837-0.881
	c-2.555,0.531-5.064,1.28-7.589,1.951c0.076,0.313,0.152,0.625,0.228,0.938c2.276-0.411,4.552-0.822,7.348-1.327
	c0.748,3.556,3.116,3.902,5.959,3.573c2.395-0.277,4.984-1.007,6.295,2.239c0.195,0.483,1.789,0.624,2.705,0.548
	c2.382-0.195,4.748-0.599,7.369-0.953C720.833,373.971,718.832,375.119,716.997,375.23z M671.42,367.759
	c-4.658,0.126-9.277,1.019-13.471-2.539c-2.362-2.004-8.859,0.177-11.66,3.475c2.199-0.725,3.88-1.621,5.622-1.766
	c2.116-0.177,4.335,0.057,6.419,0.521c2.444,0.544,4.748,1.987,7.19,2.214c4.084,0.379,8.229,0.104,13.315,0.104
	c-1.63-0.934-2.596-1.779-3.7-2.041C673.965,367.449,672.663,367.726,671.42,367.759z M675.776,200.412
	c-2.812,1.009-5.66,1.916-8.82,2.976c0-1.523,0.057-2.135-0.012-2.733c-0.134-1.153-0.341-2.298-0.517-3.446
	c-1.244,0.283-2.653,0.288-3.697,0.908c-1.92,1.141-3.5,2.877-5.459,3.918c-1.441,0.765-3.261,0.817-5.927,1.414
	c-0.489,1.033,0.092,2.446,2.529,2.067c1.753-0.272,3.45-1.309,5.017-2.26c1.954-1.186,3.748-2.635,5.872-4.158
	c0.157,6.333,1.288,7.033,6.766,4.799c2.17-0.885,4.348-1.753,6.779-2.733c1.404,3.861,3.982,3.534,6.819,2.392
	c1.736-0.699,3.488-1.362,5.252-1.987c2.469-0.875,4.92-2.791,7.378,0.3c0.418,0.525,2.157,0.29,3.166-0.005
	c2.029-0.593,3.933-1.622,5.971-2.166c1.059-0.282,2.3,0.028,3.445,0.177c1.805,0.234,3.651,0.964,5.382,0.736
	c2.026-0.267,3.948-1.334,5.763-1.999c1.034,1.176,1.856,2.111,2.678,3.046c0.189-5.909-0.316-6.238-5.107-4.403
	c-1.398,0.536-2.768,1.253-4.218,1.509c-0.922,0.163-1.965-0.381-2.958-0.589c-1.427-0.299-2.943-1.024-4.266-0.768
	c-2.173,0.42-4.191,1.592-6.34,2.221c-0.963,0.282-2.601,0.454-3.048-0.073c-2.069-2.442-4.202-1.465-6.451-0.6
	c-2.678,1.03-5.337,2.134-8.08,2.954c-0.87,0.26-2.607,0.021-2.876-0.522C679.46,198.653,677.674,199.731,675.776,200.412z
	 M696.216,182.478c1.392-3.082,2.521-5.581,4.039-8.943c0.606,3.538,1.02,5.953,1.433,8.368c0.504-0.074,1.008-0.148,1.513-0.222
	c0.4-5.381,0.827-10.761,1.145-16.148c0.025-0.422-0.735-1.271-1.09-1.249c-0.594,0.035-1.376,0.477-1.69,0.987
	c-1.095,1.781-2.022,3.664-3.013,5.508c-0.29-0.048-0.58-0.095-0.87-0.143c0-1.319,0.163-2.667-0.06-3.948
	c-0.137-0.789-0.863-1.476-1.325-2.208c-0.507,0.703-1.423,1.388-1.453,2.111c-0.191,4.594-0.253,9.198-0.177,13.796
	C694.679,181.069,695.64,181.735,696.216,182.478z M662.694,178.879c1.364,0.117,2.605,1.66,3.899,2.578
	c0.3-0.199,0.6-0.398,0.9-0.597c-1.748-6.17-1.393-12.916-4.822-18.627c-0.5,0.1-1.001,0.2-1.501,0.3
	c-1.326,5.558-2.695,11.107-3.919,16.688c-0.145,0.663,0.509,1.501,0.622,1.804C659.853,180.075,661.335,178.762,662.694,178.879z
	 M728.615,184.079c1.01-6.973-2.335-18.63-5.195-19.577c-3.415,9.351-4.559,16.989-2.651,18.885
	C723.217,178.398,725.819,180.61,728.615,184.079z M711.082,178.426c1.781,0.95,3.699,1.972,5.983,3.191
	c1.506-5.216-4.594-4.332-5.209-7.618c1.235-1.694,2.549-3.507,3.875-5.31c2.482-3.375,2.485-3.373-0.03-4.969
	c-1.475,1.877-2.966,3.774-4.889,6.221c-0.182-1.912-0.293-3.08-0.404-4.247c-3.033,0.289-4.098,8.206-1.487,16.548
	C709.605,181.034,710.289,179.827,711.082,178.426z M670.891,181.328c0.755-1.251,1.509-2.503,2.316-3.842
	c1.84,1.001,3.657,1.989,5.863,3.189c1.518-5.204-4.286-4.454-5.27-7.559c1.646-2.226,3.367-4.651,5.195-6.993
	c1.451-1.858,0.91-2.828-1.279-3.384c-1.449,1.874-2.866,3.706-4.911,6.352c-0.088-1.837,0.046-2.634-0.209-3.278
	c-0.213-0.537-0.937-1.292-1.331-1.235c-0.536,0.077-1.382,0.828-1.392,1.304c-0.101,5.031-0.063,10.064-0.063,15.097
	C670.171,181.095,670.531,181.212,670.891,181.328z M688.563,215.206c-4.123,1.663-8.156,3.479-12.738,1.438
	c-0.609-0.271-1.644,0.384-2.471,0.641c-1.663,0.516-3.327,1.033-4.977,1.588c-2.167,0.729-4.024,0.94-5.436-1.54
	c-0.375-0.659-2.227-1.064-3.093-0.747c-2.617,0.959-5.082,2.33-7.607,3.54c0.154,0.401,0.307,0.801,0.46,1.202
	c1.883-0.742,3.746-1.541,5.657-2.202c0.992-0.343,2.767-0.919,3.002-0.577c2.987,4.355,6.376,1.644,9.684,0.776
	c1.887-0.495,4.521-1.87,5.595-1.113c5.455,3.844,9.157-1.374,13.756-1.893C689.784,215.629,689.015,215.023,688.563,215.206z
	 M685.328,181.353c0.41,0.235,0.82,0.469,1.23,0.704c0.474-0.948,1.268-1.865,1.359-2.849c0.242-2.606,0.163-5.242,0.245-7.864
	c0.054-1.732-0.182-3.605,2.468-3.791c0.482-0.034,0.887-1.185,1.327-1.82c-0.71-0.473-1.421-1.348-2.131-1.348
	c-2.59-0.001-5.18,0.291-7.77,0.472c-0.215,0.356-0.431,0.712-0.646,1.068c1.187,1.042,2.374,2.084,3.918,3.44L685.328,181.353
	L685.328,181.353z M649.284,173.176c-0.022,1.873-0.184,3.753-0.065,5.615c0.041,0.648,0.738,1.254,1.136,1.879
	c0.518-0.573,1.437-1.113,1.486-1.724c0.222-2.735,0.182-5.491,0.264-8.238c0.055-1.832-0.301-3.868,2.536-4.124
	c0.471-0.042,1.333-1.531,1.152-1.833c-0.393-0.654-1.346-1.36-2.067-1.357c-2.579,0.011-5.158,0.309-7.736,0.498
	c-0.196,0.378-0.392,0.756-0.588,1.134c1.103,0.996,2.206,1.992,3.886,3.511C649.289,169.688,649.305,171.432,649.284,173.176z
	 M713.769,212.505c-4.236-1.676-7.512-1.235-11.207,3.263c1.135-0.498,1.804-0.701,2.376-1.058c3.008-1.882,5.801-2.889,9.196-0.301
	c1.287,0.981,3.789,0.727,5.668,0.487c2.477-0.315,4.885-1.17,7.322-1.794c0.001-0.254,0.003-0.508,0.004-0.762
	c-1.737,0.199-3.473,0.542-5.212,0.563C719.181,212.936,716.166,213.453,713.769,212.505z M719.314,229.311
	c-2.786,0.741-5.186,1.634-8.196,0.032c-2.841-1.512-5.345,0.717-7.698,2.441c3.681-1.332,7.164-2.014,10.682,0.337
	c0.556,0.372,1.702-0.042,2.548-0.221c2.846-0.602,5.681-1.262,8.519-1.9c0.051-0.348,0.101-0.697,0.152-1.045
	C723.312,229.047,721.214,228.806,719.314,229.311z M89.114,149.412c-0.438,0.115-0.619,1.202-0.919,1.839
	c0.711,0.331,1.5,1.045,2.118,0.919c1.559-0.317,3.041-1.012,4.126-1.401c5.196,5.797,10-0.401,14.116-0.002
	c4.993,6.423,9.995,0.091,14.87,0.834c0.277,2.695,1.879,2.827,4.219,2.098c2.515-0.784,5.191-2.681,7.612,0.61
	c0.417,0.566,2.363,0.117,3.579-0.042c1.445-0.19,2.864-0.574,4.294-0.874c-0.151,0.314-0.303,0.628-0.454,0.942
	c1.195,0.993,2.437,2.883,3.579,2.824c4.777-0.247,9.524-1.077,14.37-1.706c-4.463-4.386-9.534,0.513-14.501-0.493
	c0.438-3.09-1.367-3.117-3.69-2.695c-1.933,0.351-5.065,1.261-5.682,0.437c-2.367-3.16-4.922-1.163-7.425-1.137
	c-0.973,0.01-1.969-0.299-2.919-0.582c-1.314-0.392-2.678-1.436-3.874-1.252c-3.272,0.504-6.468,1.504-10.152,2.422
	c0.376-4.894-2.132-4.008-4.737-3.187c-2.893,0.911-5.832,1.678-9.382,2.687c0.638-1.882,0.983-2.9,1.593-4.7
	C95.801,147.851,92.432,148.536,89.114,149.412z M157.34,166.275c-2.442-0.173-4.889-0.303-7.324-0.546
	c-1.285-0.128-2.545-0.632-3.824-0.663c-5.159-0.127-10.321-0.097-15.48-0.204c-2.628-0.055-5.252-0.273-7.878-0.427
	c-0.852-0.05-2.143,0.193-2.478-0.258c-1.808-2.438-3.983-1.299-6.15-0.986c-2.928,0.423-6.501,1.895-8.675,0.763
	c-3.555-1.851-6.667-1.278-10.09-0.895c-1.296,0.145-3.275,0.458-3.84-0.222c-2.37-2.851-4.059-0.91-5.898,0.902
	c1.062,0,2.594-0.453,3.105,0.077c2.446,2.538,5.138,1.056,7.769,0.883c1.953-0.129,4.542-0.995,5.744-0.081
	c3.089,2.347,6.056,1.649,9.261,1.082c2.709-0.479,5.483-2.005,8.103,0.575c0.49,0.483,1.901,0.04,2.887,0.007
	c4.707-0.158,9.413-0.339,14.121-0.456c0.446-0.011,0.886,0.474,1.356,0.544c1.639,0.245,3.287,0.52,4.938,0.568
	c1.224,0.036,2.84-0.839,3.626-0.319c4.871,3.226,9.856-0.213,14.746,0.562C160.055,166.459,158.697,166.371,157.34,166.275z
	 M123.957,191.925c-0.368-0.001-0.853,0.019-1.086-0.19c-2.616-2.353-5.584-1.43-8.519-1.018c-0.719,0.101-1.869,0.243-2.147-0.132
	c-1.758-2.373-3.795-0.904-5.802-0.716c-1.92,0.18-3.889,0.165-5.805-0.048c-1.674-0.186-3.286-0.976-4.959-1.126
	c-2.487-0.222-5.655,2.559-7.151-1.809c-0.076-0.223-1.19-0.292-1.722-0.123c-2.22,0.708-4.401,1.535-6.597,2.318l0.224,1.184
	c1.138-0.264,2.265-0.595,3.416-0.772c0.926-0.142,2.364-0.511,2.742-0.068c1.978,2.314,4.261,1.379,6.589,1.107
	c1.552-0.181,3.808-0.613,4.604,0.195c2.338,2.375,4.776,1.544,7.323,1.17c1.215-0.178,2.464-0.566,3.648-0.431
	c5.186,0.594,10.352,1.368,15.531,2.03c2.477,0.317,4.965,0.692,7.453,0.737c1.692,0.031,3.393-0.466,5.09-0.726
	c-0.053-0.526-0.106-1.051-0.159-1.577C132.407,191.933,128.182,191.937,123.957,191.925z M134.519,141.457
	c0.326,0.392,1.002,0.491,1.516,0.726c0.28-0.733,0.852-1.491,0.793-2.196c-0.351-4.213-0.727-8.433-1.356-12.611
	c-0.243-1.615-1.172-3.127-2.011-5.249c-3.653,5.885-6.758,17.29-5.455,19.57C131.157,138.376,131.975,138.397,134.519,141.457z
	 M162.044,126.374c6.737-0.151,6.737-0.151,5.73-6.879c-0.516-3.451-5.206-7.628-8.624-7.681c-3.023-0.047-5.826,2.402-6.483,5.665
	C151.572,122.922,155.369,126.524,162.044,126.374z M158.989,113.953c2.754,0.224,4.703,1.647,4.708,4.733
	c0.005,2.707-2.368,5.161-4.972,5.042c-3.145-0.144-4.204-2.201-4.241-5.146C154.75,115.916,155.741,113.689,158.989,113.953z
	 M138.196,179.539c-1.83,0.484-3.898,0.237-5.84,0.074c-1.71-0.143-3.381-0.808-5.088-0.902c-2.203-0.121-5.215,1.028-6.467-0.034
	c-2.333-1.979-4.331-1.109-6.593-0.944c-1.699,0.124-4.166,0.7-4.981-0.162c-2.135-2.26-4.245-1.307-6.547-1.117
	c-2.662,0.221-5.909,1.088-7.906-0.06c-3.595-2.066-6.551-0.804-9.788,0.521c1.389-0.088,2.779-0.255,4.167-0.24
	c1.215,0.013,2.894-0.231,3.558,0.44c2.263,2.285,4.703,1.649,7.319,1.233c2.167-0.345,5.17-1.293,6.43-0.275
	c2.76,2.231,5.272,1.614,8.083,1.102c0.968-0.176,2.431-0.574,2.893-0.106c2.95,2.991,6.182,1.563,9.407,0.966
	c0.715-0.132,1.875-0.326,2.151,0.032c1.977,2.567,4.529,1.909,7.143,1.69c2.548-0.214,5.128-0.047,7.936-0.047
	C142.465,179.56,140.777,178.857,138.196,179.539z M106.337,136.02c0.448-2.572,0.599-5.195,1.021-7.773
	c0.186-1.137,0.753-2.211,1.147-3.314c0.424,0.096,0.849,0.192,1.273,0.288c-0.322,4.194-0.644,8.389-0.977,12.734
	c2.705-0.827,4.4-8.352,3.954-16.256c-1.957-0.099-3.702-0.392-5.384-0.182c-0.815,0.102-2.063,1.065-2.172,1.781
	c-0.635,4.181-1.045,8.401-1.379,12.62c-0.048,0.611,0.721,1.287,1.112,1.933C105.419,137.244,106.22,136.692,106.337,136.02z
	 M143.497,134.532c0.442,0.106,0.884,0.212,1.326,0.317c-0.167,1.909-0.417,3.816-0.45,5.727c-0.01,0.563,0.595,1.137,0.918,1.705
	c0.539-0.39,1.489-0.722,1.554-1.18c0.712-4.993,1.285-10.006,1.895-15.014c-0.502-0.187-1.004-0.374-1.506-0.561
	c-0.946,1.851-1.893,3.702-2.839,5.553c-0.303-0.083-0.607-0.166-0.91-0.249c0-1.151,0.125-2.321-0.052-3.444
	c-0.09-0.568-0.635-1.225-1.154-1.494c-0.249-0.129-1.29,0.502-1.338,0.872c-0.665,5.089-1.219,10.193-1.8,15.292
	c0.577,0.158,1.154,0.316,1.73,0.474C141.746,139.865,142.622,137.198,143.497,134.532z M115.923,138.14
	c1.387-2.372,2.596-4.848,4.029-7.59c1.93,3.401-0.044,7.362,2.724,9.799c0.408-0.12,0.816-0.24,1.225-0.36
	c-0.289-3.053-0.579-6.106-0.868-9.159c-0.27-2.859-0.539-5.718-0.808-8.578c-0.406,0.029-0.812,0.058-1.219,0.087
	c-0.382,0.624-0.807,1.227-1.138,1.877c-2.142,4.212-4.32,8.408-6.329,12.683c-0.283,0.603,0.292,1.609,0.47,2.429
	C114.663,138.942,115.587,138.714,115.923,138.14z M84.975,117.695c1.462,0.82,3.252,1.056,4.107,1.316
	c2.579-0.171,4.318-0.178,6.01-0.463c0.526-0.088,1.278-0.896,1.327-1.429c0.346-3.75-4.162-9.379-8.025-9.275
	c-1.922,0.052-4.517,1.543-5.516,3.174C81.427,113.387,82.319,116.205,84.975,117.695z M87.79,108.083
	c1.749,2.507,3.536,3.966,3.5,5.378c-0.028,1.061-2.53,3.001-3.687,2.836c-1.258-0.179-2.807-2.212-3.128-3.678
	C84.271,111.687,86.073,110.316,87.79,108.083z M148.736,194.799c2.686,1.234,5.273,0.504,7.82-1.183h-7.802
	C148.748,194.01,148.742,194.405,148.736,194.799z M585.172,187.123c-4.765-1.012-9.549-1.954-14.271-3.137
	c-1.157-0.29-2.593-1.171-3.074-2.175c-2.8-5.854-5.321-11.841-8.019-17.746c-0.562-1.23-1.474-2.301-2.708-4.183
	c-3.23,5.547-6.731,10.002-8.545,15.062c-2.33,6.498-6.782,7.888-12.76,8.197c-5.032,0.261-10.026,1.251-15.536,1.985
	c5.214,4.903,9.858,9.269,14.969,14.076c-1.907,1.432-2.251,1.816-2.681,1.995c-6.963,2.9-13.929,5.792-20.902,8.665
	c-4.108,1.693-8.216,3.388-12.336,5.05c-0.92,0.371-2.394,0.061-3.34-0.442c-5.378-2.862-10.241-0.572-11.677,5.337
	c-0.378,1.556-1.574,3.383-2.926,4.159c-9.75,5.598-19.602,11.022-29.528,16.302c-1.067,0.567-3.143,0.355-4.182-0.344
	c-3.931-2.642-7.9-3.18-11.96-0.761c-4.269,2.543-6.178,6.527-5.46,11.437c0.31,2.125,0.052,3.452-1.812,4.717
	c-8.892,6.032-17.673,12.228-26.572,18.248c-0.834,0.565-2.339,0.682-3.336,0.373c-6.307-1.952-10.427,1.146-10.531,7.891
	c-0.018,1.184-0.582,2.735-1.445,3.472c-7.598,6.494-15.287,12.886-23.058,19.172c-0.836,0.676-2.691,1.072-3.526,0.609
	c-5.146-2.849-10.121-2.984-14.655,0.858c-4.826,4.09-5.674,9.357-3.831,15.335c0.365,1.182-0.152,3.212-1.025,4.108
	c-6.974,7.161-14.095,14.182-21.287,21.125c-0.805,0.777-2.407,1.265-3.52,1.097c-6.01-0.907-9.793,2.893-9.096,8.999
	c0.18,1.578-0.352,3.673-1.347,4.878c-6.6,7.997-13.474,15.768-20.116,23.73c-1.517,1.819-2.788,2.241-5.089,1.478
	c-6.468-2.144-13.108,1.381-15.27,7.803c-2.391,7.099,0.959,14.702,7.501,17.022c4.69,1.663,9.696,0.399,12.988-3.28
	c3.872-4.328,4.769-10.471,1.694-15.663c-1.461-2.466-1.054-4.005,0.604-5.913c6.719-7.735,13.311-15.582,20.12-23.235
	c0.83-0.933,2.777-1.491,4.063-1.292c5.561,0.859,10.087-3.45,8.679-8.954c-0.608-2.377,0-3.747,1.541-5.255
	c6.251-6.12,12.549-12.196,18.625-18.486c2.421-2.506,4.486-4.059,7.764-1.42c0.875,0.704,2.352,0.812,3.575,0.909
	c9.122,0.727,15.595-7.952,12.708-17.251c-0.724-2.333-0.709-3.779,1.349-5.434c7.205-5.795,14.171-11.887,21.407-17.64
	c1.175-0.935,3.435-1.342,4.896-0.933c5.63,1.579,10.295-1.578,10.033-7.458c-0.103-2.311,0.505-3.762,2.338-5.014
	c8.564-5.849,17.051-11.81,25.684-17.553c0.875-0.582,2.878-0.456,3.788,0.17c3.889,2.677,7.853,3.263,11.97,0.943
	c4.228-2.383,6.184-6.27,5.544-11.008c-0.389-2.878,0.535-4.351,2.926-5.639c9.46-5.094,18.811-10.392,28.32-15.392
	c1.192-0.627,3.346-0.43,4.599,0.239c5.258,2.805,10.832,0.347,11.397-5.624c0.246-2.602,1.346-3.735,3.472-4.6
	c3.117-1.269,6.229-2.547,9.343-3.823c7.516-3.079,15.029-6.165,22.553-9.223c0.959-0.39,2.049-0.459,3.755-0.82
	c-1.884,7.958-3.615,15.267-5.345,22.576c0.391,0.174,0.781,0.348,1.172,0.521c6.345-2.546,12.721-5.018,19.018-7.679
	c2.138-0.904,3.774-0.856,5.909,0.325c4.954,2.739,10.162,5.017,15.995,7.833c0.114-2.475,0.317-3.912,0.22-5.329
	c-0.309-4.487-0.606-8.982-1.156-13.444c-0.304-2.464,0.266-4.107,2.231-5.814c3.765-3.271,7.218-6.911,10.689-10.506
	C589.122,188.824,588.718,187.875,585.172,187.123z M286.78,398.947c0.1,6.239-4.646,11.379-10.503,11.375
	c-5.715-0.004-10.401-4.908-10.51-10.999c-0.111-6.212,4.625-11.322,10.507-11.338C282.019,387.969,286.681,392.835,286.78,398.947z
	 M313.546,360.383c-2.885,0.012-5.288-2.627-5.203-5.714c0.081-2.975,2.366-5.351,5.151-5.356c2.934-0.005,5.3,2.578,5.204,5.679
	C318.607,357.947,316.29,360.372,313.546,360.383z M353.01,327.047c-5.803,0.031-10.551-4.827-10.612-10.859
	c-0.063-6.109,4.896-11.303,10.722-11.23c5.773,0.072,10.439,5.055,10.391,11.097C363.463,322.098,358.765,327.016,353.01,327.047z
	 M395.129,286.218c-3.013-0.014-5.214-2.436-5.141-5.656c0.066-2.926,2.31-5.328,5.077-5.434c2.894-0.111,5.362,2.426,5.362,5.514
	C400.428,283.774,398.091,286.233,395.129,286.218z M440.487,258.302c-4.794-0.231-8.63-4.558-8.495-9.582
	c0.139-5.186,4.389-9.318,9.369-9.109c4.878,0.204,8.684,4.479,8.488,9.534C449.647,254.357,445.373,258.537,440.487,258.302z
	 M491.821,226.252c-2.93,0.115-5.474-2.291-5.601-5.297c-0.131-3.092,2.431-5.838,5.472-5.865c2.907-0.026,5.39,2.49,5.416,5.489
	C497.134,223.53,494.703,226.139,491.821,226.252z M574.52,198.986c-3.844,3.103-4.331,6.947-3.619,11.399
	c0.607,3.789,0.981,7.616,1.593,12.503c-4.76-2.681-8.656-4.617-12.266-6.99c-2.967-1.95-5.593-2.006-8.719-0.439
	c-4.731,2.371-9.636,4.395-15.075,6.84c1.235-6.196,2.211-11.676,3.458-17.094c0.577-2.507,0.026-4.309-1.874-5.976
	c-4.457-3.91-8.827-7.919-14.03-12.608c6.887-0.871,12.743-1.778,18.633-2.287c2.938-0.253,4.918-1.367,6.236-3.943
	c2.545-4.974,5.15-9.918,7.962-15.322c2.263,4.902,4.513,9.391,6.42,14.022c1.846,4.482,4.915,6.89,9.757,7.523
	c3.752,0.491,7.427,1.573,12.11,2.608C581.049,192.999,577.96,196.21,574.52,198.986z"/>
<path class="st1" d="M539.893,205.205c-1.247,5.418-2.223,10.898-3.458,17.094c5.439-2.444,10.344-4.468,15.075-6.84
	c3.125-1.567,5.752-1.511,8.719,0.439c3.609,2.373,7.505,4.309,12.266,6.99c-0.612-4.887-0.987-8.713-1.593-12.503
	c-0.713-4.452-0.225-8.296,3.619-11.399c3.44-2.776,6.529-5.987,10.588-9.763c-4.683-1.035-8.358-2.117-12.11-2.608
	c-4.841-0.633-7.911-3.04-9.757-7.523c-1.907-4.631-4.158-9.12-6.42-14.022c-2.813,5.404-5.417,10.347-7.962,15.322
	c-1.318,2.576-3.297,3.689-6.236,3.943c-5.89,0.508-11.746,1.415-18.633,2.287c5.203,4.688,9.573,8.698,14.03,12.608
	C539.919,200.895,540.47,202.698,539.893,205.205z"/>
</svg>
