<?xml version="1.0" encoding="utf-8"?>
<!-- Generator: Adobe Illustrator 21.0.2, SVG Export Plug-In . SVG Version: 6.00 Build 0)  -->
<svg version="1.1" id="Layer_1" xmlns="http://www.w3.org/2000/svg" xmlns:xlink="http://www.w3.org/1999/xlink" x="0px" y="0px"
	 viewBox="0 0 760.586 646.722" style="enable-background:new 0 0 760.586 646.722;" xml:space="preserve">
<path fill="white" d="M760.264,639.255c0-211.098-0.001-422.197,0.013-633.295c0-1.987,0.201-3.973,0.309-5.96h-3
	c0.087,1.616,0.251,3.231,0.251,4.847c0.011,211.25,0.01,422.5,0.009,633.75c0,1,0.292,2.136-0.087,2.965
	c-0.451,0.988-1.344,2.18-2.287,2.454c-1.913,0.555-2.646-0.728-2.583-2.566c0.047-1.373,0.017-2.75-0.008-4.125
	c-0.121-6.528-3.741-10.158-10.287-10.199c-7.75-0.048-15.5-0.022-23.25-0.016c-8.429,0.007-11.478,3.071-11.522,11.548
	c-0.028,5.466-0.028,5.472-5.486,5.468c-107.497-0.071-214.994-0.173-322.492-0.207c-106.625-0.033-213.25,0.002-319.875,0.008
	c-7.175,0-7.175,0-7.453-7.249c-0.218-5.681-3.548-9.567-8.871-9.675c-9.121-0.186-18.25-0.172-27.372-0.007
	c-5.013,0.091-8.324,3.546-8.702,8.576c-0.14,1.866-0.134,3.751-0.062,5.622c0.071,1.865-0.597,2.736-2.576,2.757
	c-1.984,0.022-2.677-0.821-2.596-2.703c0.081-1.871,0.012-3.749,0.012-5.624C2.345,423.75,2.341,211.875,2.336,0h-2.25
	C0.081,213.973,0.084,427.946,0,641.918c-0.001,3.434,0.902,4.583,4.384,4.434c5.343-0.228,5.352-0.014,5.351-5.424
	c0-1.125-0.01-2.25,0.006-3.375c0.079-5.793,2.459-8.257,8.179-8.294c7.374-0.048,14.748-0.01,22.122-0.005
	c8.339,0.006,10.179,1.833,10.175,10.093c-0.004,6.929-0.004,6.927,6.814,6.929c110.11,0.042,220.22,0.101,330.329,0.123
	c104.737,0.021,209.474,0.006,314.21,0c2.726,0,6.362,0.952,7.907-0.419c1.389-1.232,0.483-5.052,0.585-7.731
	c0.014-0.374-0.003-0.75,0.011-1.125c0.189-5.117,2.593-7.606,7.683-7.652c8.248-0.075,16.498-0.064,24.747-0.007
	c5.503,0.038,7.99,2.55,8.093,8.041c0.055,2.934,0.01,5.87,0.01,8.903c2.429,0,4.175-0.147,5.887,0.033
	c2.963,0.311,4.186-0.837,3.793-3.817C760.141,641.521,760.264,640.38,760.264,639.255z M68.628,628.81
	c0.875,0.019,1.75,0.006,2.625,0.006c206.113,0,412.226,0.001,618.339-0.003c1.249,0,2.513,0.058,3.744-0.105
	c3.416-0.454,5.375-2.469,5.78-5.879c0.161-1.358,0.092-2.746,0.092-4.12c0.002-204.488,0.002-408.976-0.004-613.465
	c0-1.748-0.077-3.496-0.118-5.244h-2.25c-0.057,33.496-0.152,66.991-0.164,100.487c-0.024,65.992-0.001,131.984,0,197.976
	c0,57.993-0.034,115.986,0.004,173.978c0.032,48.995,0.147,97.99,0.219,146.985c0.009,6.321-0.754,7.083-7.161,7.067
	c-30.496-0.076-60.992-0.224-91.488-0.243c-62.741-0.039-125.482-0.045-188.224-0.002c-44.869,0.031-89.739,0.178-134.608,0.237
	c-7.998,0.01-15.995-0.241-23.993-0.233c-60.494,0.063-120.988,0.163-181.481,0.241c-5.831,0.008-6.817-0.943-6.779-6.732
	c0.112-17.121,0.415-34.242,0.393-51.362c-0.077-58.867-0.282-117.734-0.382-176.601c-0.015-8.746,0.417-17.492,0.399-26.238
	c-0.101-49.491-0.296-98.983-0.402-148.474c-0.016-7.62,0.398-15.242,0.385-22.862C63.45,133.107,63.292,71.99,63.148,10.872
	C63.139,7.248,63.107,3.624,63.086,0h-2.25c-0.007,190.614-0.014,381.227-0.019,571.841c0,16.374-0.013,32.748,0.036,49.122
	C60.869,626.387,63.237,628.695,68.628,628.81z M125.165,332.415c0.736,0.105,1.498,0.044,2.248,0.044
	c10.264-0.001,19.968-2.897,29.636-5.877c1.153-0.355,2.68-1.461,2.92-2.481c1.13-4.8,2.356-9.671,2.557-14.558
	c0.107-2.605,0.548-3.422,2.9-3.32c1.121,0.049,2.254,0.134,3.351,0.354c3.273,0.655,5.439-0.326,5.844-3.881
	c0.59-5.171,3.574-8.947,7.774-11.353c8.315-4.764,16.897-9.068,25.446-13.41c0.861-0.437,2.751-0.272,3.321,0.366
	c5.112,5.717,10.035,11.602,15.013,17.438c-2.616-1.031-5.146-2.324-7.293-4.084c-7.16-5.869-15.021-6.564-22.907-1.714
	c-4.948,3.042-8.485,7.34-10.73,12.667c-6.998,16.602-16.651,31.52-28.29,45.23c-1.97,2.321-3.889,5.044-4.722,7.904
	c-2.648,9.091-4.886,18.307-7.046,27.53c-1.038,4.433-1.545,8.991-2.401,14.148c3.223-0.195,5.9,0.249,8.072-0.599
	c7.287-2.846,14.657-5.671,21.504-9.404c8.752-4.771,9.392-7.234,6.409-16.863c-0.648-2.091-1.967-3.98-3.023-5.938
	c-0.561-1.04-1.219-2.028-2.307-3.82c3.086-0.617,5.438-1.23,7.83-1.529c2.974-0.372,4.183-1.672,4.353-4.858
	c0.18-3.377,0.83-6.949,2.226-10.001c4.185-9.146,11.645-15.418,19.659-21.132c2.047-1.459,3.268-1.171,5.056,0.514
	c20.756,19.571,45.45,30.824,73.638,34.706c5.31,0.731,9.117-0.993,12.207-5.351c4.695-6.621,9.736-12.996,14.557-19.529
	c1.366-1.851,2.716-2.641,5.277-2.415c5.091,0.45,9.238-1.915,12.514-5.831c-4.22,1.129-7.926,4.322-13.173,3.236
	c1.79-2.757,3.256-5.015,4.722-7.273c-0.276-0.202-0.552-0.404-0.827-0.605c-0.987,0.897-2.114,1.682-2.939,2.709
	c-6.881,8.563-14.056,16.923-20.414,25.862c-3.667,5.156-6.996,7.298-13.837,6.24c-20.472-3.166-38.878-10.961-55.85-22.444
	c-5.257-3.557-10.372-7.485-14.878-11.927c-2.349-2.316-3.676-2.531-6.11-0.807c-3.607,2.555-7.36,4.905-11.284,7.496
	c-1.2-2.187-2.87-4.018-3.177-6.055c-0.536-3.562-1.877-6.422-4.555-8.727c-2.558-2.202-2.784-4.886-1.561-7.819
	c2.487-5.963,6.398-10.724,12.161-13.758c6.018-3.169,12.175-2.946,17.128,1.609c3.555,3.27,7.501,5.215,11.821,6.75
	c10.562,3.752,21.003,7.98,31.794,10.907c8.869,2.405,15.969,6.228,19.966,14.769c0.239,0.511,0.657,0.939,0.992,1.406
	c-0.467-5.188-3.249-9.105-6.963-12.204c-2.431-2.028-3.137-4.297-3.021-7.179c0.485-12.027,3.175-23.487,8.716-34.226
	c0.572-1.109,1.068-2.257,1.599-3.387l-1.163-0.409c-8.936,11.955-11.009,26.119-12.101,40.637c-3.055-0.673-5.938-1.016-8.614-1.95
	c-9.039-3.157-18.008-6.514-26.99-9.833c-0.555-0.205-1.055-0.682-1.463-1.138c-4.075-4.561-8.144-9.128-12.177-13.727
	c-2.779-3.169-5.499-6.39-8.096-9.414c-3.249,1.285-6.128,2.426-9.009,3.562c-5.029,1.983-5.12,2.029-7.542-2.506
	c-0.566-1.06-0.161-2.598-0.434-3.866c-0.4-1.859-0.548-4.021-1.618-5.438c-2.901-3.842-3.092-4.655-0.032-8.56
	c4.292-5.476,9.834-8.947,16.801-9.489c6.407-0.498,10.768,3.047,15.665,7.073c9.314,7.657,19.726,14.023,29.962,20.481
	c2.367,1.493,2.793,2.567,2.656,5.098c-0.407,7.473-0.466,14.968-0.511,22.456c-0.008,1.401,0.681,2.806,1.048,4.209
	c0.465-0.072,0.93-0.144,1.395-0.216c0-1.374,0.122-2.76-0.018-4.119c-2.93-28.369,5.947-52.709,25.111-73.512
	c7.874-8.547,15.925-16.931,23.741-25.531c1.727-1.9,2.929-1.522,4.744-0.398c16.999,10.528,34.014,21.032,51.095,31.426
	c2.305,1.403,3.093,3.008,3.252,5.678c0.44,7.376,3.618,13.248,10.792,16.151c2.388,0.967,2.266,2.552,2.119,4.5
	c-0.647,8.598-1.55,17.193-1.758,25.803c-0.199,8.254-2.182,15.351-6.726,22.638c-11.556,18.536-12.807,37.756,0.296,56.532
	c0.19,0.273,0.17,0.692,0.248,1.043c-0.295-0.184-0.59-0.367-0.885-0.551c-5.855,8.356-12.205,16.415-17.424,25.15
	c-5.201,8.705-9.267,18.089-14.002,27.516c-24.72-15.913-45.61-35.852-61.967-60.576c3.431,9.085,8.843,16.898,15.236,23.97
	c26.451,29.261,57.259,51.546,96.967,59.724c-0.802,3.225-1.701,6.439-2.394,9.698c-3.044,14.321,1.369,27.495,12.787,34.123
	c9.339,5.422,19.345,9.806,29.353,13.929c7.82,3.221,16.269,4.907,24.121,8.065c7.348,2.956,9.121,9.562,5.178,16.328
	c-1.189,2.04-2.385,4.213-4.07,5.806c-13.967,13.21-28.091,26.254-42.059,39.463c-2.492,2.357-4.955,4.979-6.616,7.936
	c-5.863,10.439-11.331,21.098-17.032,31.629c-2.62,4.84-2.06,6.287,3.363,7.664c0.603,0.153,1.233,0.193,1.848,0.303
	c12.295,2.209,24.387,0.611,36.442-1.888c2.428-0.504,4.388-1.229,5.53-3.816c0.439-0.994,2.314-1.661,3.639-1.902
	c5.525-1.007,11.132-1.602,16.612-2.795c1.471-0.32,3.445-2.041,3.735-3.423c1.12-5.34,1.755-10.793,2.314-16.23
	c0.105-1.021-0.827-2.266-1.525-3.231c-1.908-2.637-1.282-4.418,1.997-4.803c2.097-0.247,4.276-0.323,6.359-0.04
	c2.829,0.383,3.506-0.856,4.036-3.396c0.887-4.248,1.804-8.661,3.733-12.488c6.989-13.864,16.884-25.214,30.209-33.497
	c6.294-3.912,9.818-9.895,8.996-17.346c-0.862-7.814-3.237-14.94-11.527-18.673c-8.822-3.973-15.372-10.621-19.305-19.574
	c-4.257-9.69-3.996-9.87,4.243-16.433c7.941-6.327,18.141-10.416,21.073-20.558c5.566,5.481,10.988,11.109,16.767,16.342
	c1.838,1.664,4.819,3.445,6.935,3.096c3.128-0.516,4.882,0.847,7.007,2.237c1.148,0.751,2.298,1.592,3.571,2.046
	c7.744,2.762,15.492,5.524,23.336,7.977c0.878,0.275,2.365-1.396,3.798-2.311c4.948,4.589,4.948,4.589,7.887-2.934
	c2.281,4.574,4.336,8.697,6.836,13.71c0.92-1.801,1.658-2.828,1.973-3.972c0.355-1.285,0.328-2.675,0.567-4.973
	c3.053,9.554,3.053,9.554,9.495,9.447c0.789,3.225-6.013,7.091,0.921,9.608c-3.529,17.694-0.481,35.714,6.846,38.512v-8.299
	c0.931,1.342,1.223,1.728,1.478,2.136c4.465,7.14,11.107,11.358,18.938,13.836c1.063,0.336,2.474-0.43,3.725-0.685
	c-0.44-1.088-0.691-2.313-1.358-3.238c-1.716-2.378-3.616-4.623-5.443-6.921c0.264-0.19,0.527-0.38,0.791-0.57
	c1.205,0.872,2.327,1.917,3.645,2.557c0.88,0.427,2.039,0.277,3.073,0.385c-0.101-1.019-0.119-2.056-0.32-3.055
	c-0.483-2.397-1.628-4.812-1.484-7.157c0.546-8.845,5.876-14.544,13.269-18.622c0.505-0.278,1.324,0.004,1.997,0.043
	c1.596,0.093,3.283,0.586,4.771,0.233c9.288-2.201,14.26-9.962,18.672-16.997c8.321-13.267,10.583-30.7-5.852-44.441
	c-6.447-5.39-11.696-11.679-16.439-18.721c-7.138-10.597-16.267-19.947-29.172-22.865c-16.8-3.799-33.952-4.793-50.798,0.406
	c-9.306,2.872-18.442,6.29-27.684,9.372c-7.396,2.467-14.935,3.148-22.477,0.795c-4.794-1.496-9.715-3.34-12.032-8.204
	c-5.482-11.509-13.056-21.188-23.443-28.638c-2.716-1.948-5.319-4.055-7.053-5.384c1.112-5.058,3.012-9.471,2.801-13.781
	c-0.277-5.644-1.973-11.277-3.553-16.773c-0.795-2.767-0.527-4.072,2.043-5.698c10.766-6.813,20.199-14.84,22.628-28.376
	c0.046-0.257,0.485-0.443,0.943-0.835c0.498,1.185,0.974,2.167,1.331,3.191c5.271,15.092,10.382,30.241,15.831,45.268
	c4.255,11.735,8.891,23.333,13.458,34.953c0.552,1.404,1.732,2.562,2.62,3.834c0.445-0.196,0.89-0.392,1.334-0.588
	c-0.204-2.289-0.064-4.674-0.672-6.851c-2.316-8.294-4.541-16.637-7.408-24.747c-6.365-18.009-13.103-35.886-19.666-53.825
	c-0.584-1.596-0.996-3.254-1.462-4.796c0.592-0.331,0.794-0.517,1.02-0.554c0.49-0.08,0.997-0.145,1.49-0.111
	c7.036,0.485,13.346-1.72,19.146-5.434c5.257-3.366,10.246-7.154,15.532-10.47c6.913-4.336,14.289-6.189,22.53-4.032
	c7.468,1.954,13.855-0.736,19.032-6.109c5.188-5.384,5.238-14.343,0.871-20.393c-4.861-6.735-11.691-9.269-19.482-9.363
	c-15.31-0.185-27.106,6.867-37.147,18.046c-4.345,4.838-9.822,8.748-15.149,12.572c-2.224,1.596-5.396,1.87-8.138,2.746
	c-0.294-0.466-0.589-0.931-0.883-1.397c1.118-1.311,2.345-2.546,3.325-3.954c1.21-1.739,3.553-4.653,3.08-5.268
	c-2.405-3.124-0.258-5.431,0.625-7.963c3.11-8.911,7.361-16.146,17.346-19.799c11.553-4.227,21.744-11.201,28.061-22.539
	c2.122-3.808,4.504-7.504,7.112-10.994c1.178-1.576,3.211-2.507,4.839-3.753c2.821-2.159,5.675-4.277,8.423-6.525
	c1.687-1.38,3.027-3.239,4.829-4.414c5.252-3.424,6.745-8.566,3.868-14.152c-0.393-0.763-0.649-1.613-0.86-2.45
	c-1.168-4.627-10.536-11.704-15.238-11.415c-0.979,0.06-2.069,0.204-2.887,0.684c-3.371,1.977-6.473,4.399-10.576,4.938
	c-1.03,0.135-2.211,1.335-2.773,2.349c-1.147,2.073-2.548,2.365-4.643,1.65c-2.716-0.927-5.57-1.466-8.25-2.474
	c-1.58-0.595-3.256-1.502-4.339-2.747c-2.962-3.406-4.124-6.897-1.516-11.509c2.663-4.709,4.758-9.914,6.076-15.159
	c1.223-4.87-1.625-7.811-6.684-8.251c-1.84-0.16-3.706-0.026-5.609-0.026c-0.463-1.557-1.477-3.642-1.106-3.928
	c3.162-2.434,0.842-4.328-0.316-6.389c-1.619-2.88-1.125-4.461,1.578-5.195c5.648-1.533,8.359-7.394,5.548-12.509
	c-4.77-8.679-11.862-15.02-21.308-17.84c-21.636-6.458-42.792-3.596-63.331,4.837c-15.029,6.17-21.259,17.975-20.888,33.892
	c0.341,14.606,4.526,28.009,11.626,40.654c0.784,1.397,1.472,3.455,1.033,4.833c-2.833,8.9-1.253,17.857-0.671,26.79
	c0.086,1.317,1.375,2.517,1.879,3.857c0.411,1.093,1.077,2.856,0.597,3.386c-2.24,2.472-4.507,5.237-7.368,6.772
	c-11.109,5.96-22.443,11.501-33.706,17.171c-1.255,0.632-2.598,1.091-4.033,1.686c-0.212-0.908-0.381-1.268-0.362-1.618
	c0.07-1.247,0.157-2.497,0.323-3.734c2.236-16.692,4.666-33.221,2.794-50.314c-2.164-19.764-8.341-37.43-20.993-52.749
	c-6.712-8.126-14.069-15.582-23.112-21.19c-1.574-0.976-3.029-1.932-0.774-3.944c2.764-2.467,5.217-5.28,7.881-7.864
	c0.63-0.611,1.57-0.905,2.367-1.344c1.322,2.868,3.511,0.786,5.308,1.063c3.119,0.479,6.127,1.681,9.182,2.58
	c-0.116,0.284-0.231,0.569-0.347,0.853c-2.296,0.822-4.592,1.644-6.888,2.466c0.056,0.336,0.112,0.672,0.169,1.008
	c5.545,1.321,11.105,2.61,15.762,6.991c-1.928,0.506-3.356,0.88-4.784,1.254c1.818,0.803,3.555,0.627,5.238,0.852
	c1.676,0.224,3.299,0.851,4.945,1.301c-0.069,0.336-0.138,0.672-0.207,1.008c-0.969,0.283-1.937,0.565-2.906,0.848
	c1.293,0.837,2.582,0.917,3.87,1.019c2.886,0.227,11.193,7.469,10.328,9.733c-1.748,4.578,1.792,7.478,2.353,11.214
	c0.58,3.867,0.012,7.942,3.073,11.524c-1.486-0.08-2.18-0.117-2.395-0.128c2.229,7.252,4.41,14.346,6.842,22.257
	c-5.464-0.899-4.349,2.053-3.874,4.553c0.815,4.295,1.725,8.572,2.541,12.866c0.16,0.839,0.333,2.384,0.062,2.491
	c-3.736,1.472-0.5,3.43-0.451,5.129c0.055,1.907,0.537,5.342,0.057,5.484c-4.334,1.281-2.018,4.036-1.731,6.306
	c0.309,2.441,1.694,5.318,0.846,7.217c-1.974,4.423-0.16,8.011,0.975,11.885c0.377-2.489-0.521-5.513,0.581-7.308
	c1.782-2.902,1.218-5.405,0.739-8.201c-0.163-0.951-0.21-1.952-0.116-2.911c0.553-5.635,1.752-11.281,1.589-16.89
	c-0.16-5.51-1.683-10.981-2.589-16.355h4.011c-0.158-1.421-0.19-2.87-0.501-4.257c-0.518-2.312-1.295-4.565-1.821-6.875
	c-2.435-10.696-4.823-21.403-7.22-32.107c-0.129-0.578-0.475-1.508-0.241-1.705c3.031-2.555,0.574-4.619-0.771-6.405
	c-2.393-3.176-4.845-6.46-7.874-8.972c-5.306-4.4-11.067-8.25-16.358-12.125c0.607-0.707,2.342-1.924,2.166-2.716
	c-0.261-1.176-1.703-2.51-2.943-2.977c-5.196-1.958-10.504-3.617-15.87-5.42c0.608-3.705,1.422-7.841,1.894-12.015
	c0.147-1.302-0.629-2.708-0.982-4.066c-1.382,0.404-2.904,0.563-4.118,1.258c-3.53,2.021-6.936,4.257-10.597,6.537
	c-0.266-0.907-0.459-1.244-0.446-1.572c0.187-4.559-0.047-4.767-4.04-2.814c-5.049,2.469-9.955,5.255-15.107,7.477
	c-2.129,0.919-4.731,0.895-7.129,0.983c-1.499,0.055-3.194-1.044-4.497-0.641c-3.596,1.11-7.032,2.737-10.452,4.128
	c-0.648-0.251-1.656-1.055-2.449-0.88c-3.797,0.838-5.698,4.934-4.096,8.543c0.504,1.137,1.253,2.163,1.802,3.282
	c0.988,2.017,0.805,3.153-1.731,4.178c-3.763,1.521-7.248,3.774-10.759,5.87c-10.799,6.444-21.203,13.671-32.436,19.227
	c-8.988,4.446-18.917,7.037-28.517,10.181c-5.997,1.964-8.381,6.114-8.785,12.05c-0.355,5.215-1.07,10.404-1.474,15.616
	c-0.182,2.346-0.267,4.764,0.091,7.073c0.492,3.175,2.414,5.726,5.57,6.432c2.998,0.67,4.596,1.609,4.45,5.063
	c-0.047,1.12,1.807,2.507,3.037,3.452c1.966,1.512,4.368,2.506,6.173,4.167c3.711,3.417,5.783,4.136,10.347,1.945
	c3.362-1.614,6.577-3.609,9.644-5.742c2.483-1.727,4.494-1.862,7.127-0.174c7.567,4.851,15.311,9.424,22.974,14.125
	c5.379,3.299,10.738,6.63,16.241,10.029c-0.786,1.043-1.189,1.673-1.684,2.222c-7.107,7.884-14.28,15.71-21.329,23.645
	c-10.438,11.749-19.789,24.19-24.247,39.605c-0.805,2.782-1.479,5.603-2.426,9.217c-9.967-7.084-19.36-13.664-28.633-20.408
	c-2.706-1.968-4.832-4.781-7.636-6.556c-9.814-6.213-23.767-2.916-30.544,6.891c-1.341,1.94-2.796,3.842-4.442,5.523
	c-11.272,11.521-24.273,20.754-38.119,28.915c-2.838,1.673-5.813,3.798-7.588,6.469c-6.548,9.854-12.658,20.001-18.852,30.087
	C118.467,330.492,117.998,331.392,125.165,332.415z M174.032,383.189c-7.228,3.812-14.651,7.268-22.09,10.659
	c-1.701,0.775-3.803,0.672-6.464,1.089c1.286-6.051,2.356-11.49,3.683-16.866c0.188-0.76,1.583-1.633,2.5-1.738
	c8.364-0.954,16.746-1.75,24.93-2.572C178.478,379.696,178.353,380.91,174.032,383.189z M191.115,323.054
	c-0.017,0.573,0.209,1.357,0.614,1.708c3.863,3.355,2.15,6.051-0.581,9.162c-4.826,5.496-8.994,11.426-8.216,19.369
	c0.221,2.258-0.904,3.081-3.065,3.202c-1.603,0.09-3.347,0.291-4.73,1.013c-1.535,0.802-3.554,2.079-3.845,3.467
	c-0.293,1.398,1.15,3.263,2.063,4.786c1.138,1.898,2.512,3.654,4.067,5.877c-9.65,0.624-18.252,1.18-27.485,1.777
	c2.025-7.518,2.52-15.823,7.699-21.857c9.999-11.65,18.76-23.998,25.559-37.749c0.268-0.543,0.67-1.02,1.247-1.885
	C188.11,315.118,191.26,318.082,191.115,323.054z M356.602,222.682c-7.655-5.048-15.459-9.886-22.936-15.186
	c-19.767-14.01-39.365-28.257-59.105-42.305c-2.656-1.89-3.37-3.467-0.055-6.227c27.627,20.912,55.222,41.8,82.818,62.688
	C357.083,221.996,356.842,222.339,356.602,222.682z M338.835,108.949c-0.044,2.454-2.859,4.709-5.483,4.461
	c-2.911-0.276-4.043-2.249-3.981-4.874c0.074-3.112,2.283-3.749,4.864-3.691C336.984,104.879,338.889,105.926,338.835,108.949z
	 M337.717,102.272c3.691-3.338,7.09-6.411,10.489-9.484c0.545,0.451,1.09,0.901,1.635,1.352c-2.744,3.59-5.487,7.181-8.5,11.124
	C340.023,104.176,339.135,103.443,337.717,102.272z M328.491,99.949c-2.394-4.697-5.331-9.117-8.171-13.871
	c3.728,0.065,10.997,8.667,12.625,14.855C331.094,102.309,329.874,102.663,328.491,99.949z M329.934,114.912
	c-0.537,0.851-0.708,1.371-1.065,1.652c-14.206,11.166-28.377,22.378-42.695,33.399c-2.834,2.181-6.186,3.731-9.427,5.309
	c-0.734,0.357-2.002-0.385-3.024-0.621c0.362-0.9,0.462-2.148,1.126-2.649c16.791-12.692,33.639-25.306,50.483-37.928
	c0.585-0.438,1.215-0.815,2.262-1.512C328.396,113.368,329.159,114.134,329.934,114.912z M372.916,250.458
	c-3.223-3.995-4.453-8.626-3.814-13.689c0.571-4.52,4.119-7.729,8.72-7.73c1.192,0,3.149,0.789,3.408,1.629
	c0.467,1.517-0.082,3.347-0.232,5.391c8.117,1.101,11.19,4.794,5.352,10.354c0.082,0.226,0.111,0.508,0.266,0.665
	c1.363,1.378,2.749,2.734,4.128,4.096c-1.591,1.247-3.005,2.955-4.808,3.65C381.667,256.471,376.153,254.471,372.916,250.458z
	 M382.777,227.922c2.862-0.65,5.278,0.285,6.688,2.53c0.92,1.466,0.797,3.587,1.173,5.586
	C384.147,235.738,383.83,231.68,382.777,227.922z M388.153,319.365c-3.613-4.966-3.268-8.747,1.24-11.524
	C389.015,311.355,388.637,314.869,388.153,319.365z M387.641,328.221c-0.426,0.095-0.852,0.191-1.279,0.286
	c-0.766-2.393-1.533-4.785-2.299-7.178c0.356-0.135,0.712-0.27,1.069-0.405C386.168,323.277,389.531,324.697,387.641,328.221z
	 M383.454,305.859c-0.736-5.259-0.982-10.036,4.184-13.187C390.087,297.369,389.345,299.785,383.454,305.859z M383.956,292.195
	v-33.058c0.404-0.029,0.808-0.058,1.212-0.087c0.445,3.734,0.932,7.465,1.325,11.204c0.507,4.823,0.813,9.67,1.445,14.475
	C388.395,288.204,386.687,290.241,383.956,292.195z M381.468,269.401c0,7.052-0.071,14.105,0.017,21.156
	c0.126,10.088,0.2,20.183,0.668,30.257c0.135,2.895,1.375,5.801,2.478,8.553c0.356,0.888,1.887,1.763,2.895,1.78
	c0.76,0.013,1.893-1.218,2.241-2.131c0.656-1.72,1.106-3.595,1.224-5.432c1.275-19.772-0.648-39.402-2.733-59.024
	c-0.209-1.964-0.247-3.947-0.364-5.92c0.214-0.018,0.427-0.035,0.641-0.053c0.911,7.873,1.853,15.743,2.726,23.621
	c1.279,11.54,2.88,23.063,3.583,34.639c0.293,4.821-1.077,9.834-2.264,14.618c-0.654,2.634-2.691,5.556-5.792,4.741
	c-1.914-0.503-3.763-3.007-4.695-5.045c-1.165-2.547-1.62-5.509-1.927-8.342C378.231,304.961,380.261,287.188,381.468,269.401z
	 M435.325,292.738c-1.326,1.105-2.297,1.888-3.24,2.704c-2.495,2.158-2.921,4.661-1.665,7.738c2.385,5.845,1.331,7.223-4.634,9.529
	c-8.007,3.095-15.786,6.78-23.663,10.214c-1.423,0.62-2.841,1.25-4.947,2.177c0-2.049,0.085-3.356-0.015-4.65
	c-0.428-5.569-0.858-11.139-1.386-16.699c-0.547-5.759,3.022-8.274,8.883-5.887c0.48-1.76,0.993-3.641,1.506-5.523
	c0.992,0.811,1.984,1.621,2.977,2.432c-6.768-17.931-3.182-32.547,13.788-44.013C419.933,267.282,423.5,281.147,435.325,292.738z
	 M442.334,326.147c0.667,2.874,0.975,5.832,1.539,9.325c-7.441-2.952-20.625-13.899-23.044-18.954
	c1.749-0.657,3.424-1.523,5.203-1.912c7.675-1.679,9.449-4.744,6.549-12.075c-0.904-2.286-0.602-3.927,1.036-5.751
	c2.053-2.288,3.77-2.582,6.344-0.637c2.254,1.702,4.964,2.844,7.565,4.032c3.678,1.68,4.563,7.392,0.855,9.209
	C440.593,313.197,440.724,319.217,442.334,326.147z M395.019,297.192c-0.457-4.093-0.977-7.374-1.068-10.666
	c-0.02-0.708,1.858-2.236,2.264-2.054c1.757,0.788,3.696,1.768,4.803,3.25c1.331,1.782,1.31,3.897-1.139,5.375
	C398.351,294.019,397.103,295.405,395.019,297.192z M420.407,250.23c-6.701,4.486-12.313,10.033-14.849,17.723
	c-1.737,5.269-2.111,10.987-3.004,15.996c-1.379-0.586-3.612-1.482-5.789-2.497c-0.601-0.28-1.409-0.862-1.488-1.399
	c-0.55-3.705-1.969-7.162,0.142-11.192c2.02-3.856,2.781-8.449,3.635-12.809c0.508-2.592,1.182-4.147,4.151-3.989
	c1.159,0.062,2.925-0.148,3.442-0.901c4.291-6.253,11.34-4.489,17.044-6.548c0.364,0.424,0.727,0.848,1.091,1.271
	C423.335,247.35,422.084,249.108,420.407,250.23z M394.89,266.614c-0.654-0.117-1.308-0.234-1.962-0.351
	c0-3.347,0.06-6.696-0.018-10.042c-0.064-2.742,1.274-3.798,4.874-3.668C396.781,257.428,395.835,262.021,394.89,266.614z
	 M378.867,329.632c0.573,1.361,1.092,2.747,1.732,4.076c1.238,2.571,2.957,5.3,6.013,4.738c2.412-0.443,5.984-2.097,6.505-3.933
	c1.761-6.206,6.818-7.93,11.565-10.334c3.342-1.693,6.609-3.573,10.076-4.955c1.103-0.44,3.316-0.037,4.038,0.814
	c6.405,7.56,14.428,13.043,22.76,18.123c1.874,1.143,2.59,2.37,2.396,4.514c-0.504,5.559-0.304,10.985,3.317,15.745
	c0.382,0.503-0.021,2.326-0.613,2.736c-6.741,4.667-13.276,9.777-20.504,13.547c-6.159,3.212-13.076,2.593-19.617-0.227
	c-9.649-4.16-17.433-10.587-23.679-18.988C377.014,347.632,377.107,338.774,378.867,329.632z M369.169,317.664
	c1.958-3.975,4.285-7.768,6.442-11.645c0.545,0.129,1.091,0.257,1.636,0.386c0,5.669,1.166,11.639-0.203,16.955
	c-5.82,22.603,1.231,37.49,23.009,50.985c12.464,7.724,24.701,6.627,36.503-1.486c4-2.75,7.851-5.778,11.434-9.048
	c2.043-1.864,3.606-2.126,5.846-0.663c1.511,0.987,3.262,1.608,5.573,2.712c-13.875,11.762-26.137,25.153-46.209,23.623
	c-7.491-0.571-14.032-3.859-19.981-7.91c-6.043-4.115-11.882-8.793-16.912-14.079C363.878,354.432,361.168,333.905,369.169,317.664z
	 M371.014,370.404c0.664-0.733,2.668-1.167,3.466-0.693c2.333,1.385,4.357,3.289,6.38,4.892c-2.717,4.613-4.833,4.726-7.324,2.091
	c-0.936-0.99-2.528-1.568-3.036-2.69C370.058,373.028,370.311,371.18,371.014,370.404z M345.386,422.724
	c-2.644-1.033-3.124-2.763-2.154-5.357c4.621-12.351,11.029-23.748,18.278-34.707c0.344-0.52,0.721-1.019,1.074-1.533
	c5.305-7.723,5.603-7.739,12.472-0.466c-1.07,1.288-2.151,2.617-3.261,3.921c-9.189,10.794-17.027,22.458-22.999,35.354
	C348.181,421.264,348.179,423.815,345.386,422.724z M435.503,603.323c-0.431,6.639-1.921,9.176-6.531,9.585
	c-10.044,0.89-20.117,1.536-30.191,1.976c-2.747,0.12-5.542-0.852-9.215-1.475c3.613-6.167,6.455-11.437,9.77-16.39
	c0.863-1.29,3.274-2.36,4.852-2.214c6.653,0.615,13.277,1.629,19.875,2.716c2.189,0.361,4.364,1.186,6.372,2.156
	C432.296,600.577,435.748,599.549,435.503,603.323z M401.955,592.411c4.254-8.924,7.588-17.287,15.317-23.625
	c11.84-9.708,22.675-20.635,34.067-30.901c1.423-1.283,3.632-1.693,5.477-2.507c0.282,0.356,0.564,0.712,0.846,1.068
	c-0.528,3.843,0.777,5.347,4.76,5.871c2.035,0.268,3.662,3.636,5.373,5.494c-4.062,5.544-8.355,10.611-11.714,16.235
	c-2.836,4.748-4.971,10.02-6.672,15.3c-0.929,2.883-2.012,3.777-4.855,3.536c-2.081-0.176-4.285-0.043-6.308,0.458
	c-4.563,1.13-5.715,4.97-3.25,8.905c1.046,1.669,1.216,3.887,1.3,6.195C425.023,594.799,414.352,590.527,401.955,592.411z
	 M459.149,596.833c-0.727,7.301-0.683,7.355-7.806,8.398c-3.942,0.577-7.897,1.066-11.85,1.565
	c-0.338,0.043-0.705-0.142-1.329-0.281c-0.609-5.961,3.742-12.431-2.285-17.907c0.32-0.27,0.639-0.54,0.959-0.811
	c2.852,0.51,5.757,0.823,8.543,1.577c3.842,1.04,7.563,2.523,11.397,3.601C458.952,593.585,459.354,594.77,459.149,596.833z
	 M477.245,556.685c-3.489,5.269-5.786,10.993-6.723,17.295c-0.128,0.862-1.63,1.924-2.664,2.159
	c-1.913,0.436-3.999,0.094-5.927,0.495c-5.023,1.044-6.263,4.616-3.487,8.817c0.967,1.463,1.187,3.419,2.091,6.208
	c-6.407-2.263-11.507-4.065-16.607-5.866c0.033-0.199,0.065-0.398,0.098-0.596c2.125,0.161,4.25,0.322,6.914,0.523
	c1.72-15.704,11.069-27.033,21.595-38.061c1.544,1.26,2.726,2.003,3.622,3.003C477.708,552.392,478.851,554.26,477.245,556.685z
	 M504.307,444.107c-3.748,3.281-7.896,6.106-11.875,9.123c-1.094,0.83-2.232,1.603-3.33,2.427
	c-10.083,7.565-10.491,8.706-5.647,20.244c3.93,9.362,10.685,16.196,19.833,20.548c7.432,3.536,11.787,11.871,10.039,19.856
	c-0.936,4.275-2.782,7.953-6.735,10.348c-10.182,6.169-18.621,14.223-25.495,23.932c-0.268,0.379-0.677,0.66-1.03,0.996
	c-1.518-1.457-3.359-2.587-4.143-4.224c-0.446-0.93,0.426-3.204,1.41-3.985c4.293-3.406,8.643-6.826,13.342-9.618
	c11.241-6.678,14.709-18.04,8.994-29.863c-1.749-3.619-3.89-5.898-7.822-7.644c-11.465-5.093-19.394-13.736-23.029-26.069
	c-1.04-3.527-0.152-5.83,2.865-7.524c4.353-2.445,8.642-5.032,13.13-7.203c11.407-5.515,19.086-13.855,21.111-26.731
	c0.07-0.447,0.385-0.856,0.62-1.356C510.296,431.646,509.325,439.714,504.307,444.107z M474.604,366.675
	c11.719,6.531,19.45,16.529,25.469,28.182c4.69,9.08,12.996,12.766,22.508,13.095c5.978,0.207,12.208-0.865,17.997-2.514
	c10.673-3.041,20.937-7.595,31.679-10.303c15.055-3.796,30.448-2.623,45.276,1.221c12.387,3.212,20.642,12.683,27.862,22.819
	c1.446,2.031,2.568,4.29,3.953,6.367c1.86,2.789,3.255,5.359,6.878,7.246c14.058,7.32,19.251,25.026,12.488,39.706
	c-0.437,0.948-1.895,1.424-2.878,2.12c-0.44-0.217-0.88-0.433-1.32-0.65c-1.161,8.819-4.204,16.28-13.679,19.629
	c-0.316-1.426-0.563-2.543-0.806-3.642c-10.708,0.994-21.26,13.468-23.894,28.785c-1.143-1.954-1.859-3.393-2.783-4.685
	c-0.631-0.881-1.551-1.554-2.342-2.321c-0.381,1.099-1.115,2.208-1.082,3.294c0.14,4.542,0.793,8.982,3.93,12.626
	c0.278,0.323,0.361,0.812,0.869,2.015c-8.89-3.815-14.675-9.373-17.807-18.511c-1.104,2.179-2.209,4.357-3.535,6.974
	c-4.284-7.892-4.789-16.002-2.14-23.77c2.569-7.531,6.692-14.531,10.628-22.806c-3.937,4.263-7.308,7.914-10.68,11.565
	c-0.253-0.16-0.505-0.32-0.758-0.48c1.609-4.383,3.218-8.766,4.827-13.149c-0.397-0.223-0.793-0.446-1.19-0.669
	c-1.292,1.354-2.422,2.936-3.922,3.997c-1.543,1.092-3.446,1.676-5.191,2.482c-0.636-1.522-1.314-3.027-1.9-4.568
	c-1.459-3.84-2.827-7.715-4.351-11.529c-0.328-0.82-1.159-1.439-1.759-2.15c-0.36,0.091-0.721,0.182-1.081,0.273
	c0.281,3.763,0.563,7.526,0.928,12.411c-3.126-4.701-5.598-8.417-8.07-12.133c-0.416,0.121-0.832,0.242-1.247,0.363
	c-0.382,2.683-0.763,5.366-1.275,8.962c-3.122-3.506-5.689-6.389-8.255-9.271c-0.31,0.097-0.62,0.193-0.93,0.29
	c0.225,2.415,0.451,4.831,0.684,7.328c-15.113-3.617-25.562-5.081-37.662-21.511c-0.344,0.082-0.687,0.165-1.031,0.247
	c0.69,2.88,1.381,5.76,2.195,9.159c-1.199-0.758-2.321-1.365-3.331-2.121c-10.593-7.92-16.452-18.869-20.018-31.296
	c-1.715-5.977-3.488-11.938-5.321-17.879c-0.359-1.164-1.115-2.206-1.687-3.303c-0.387,0.132-0.774,0.264-1.161,0.396
	c0.272,1.193,0.592,2.376,0.807,3.579c1.204,6.735,3.193,13.451,3.394,20.218c0.372,12.529-5.735,21.987-16.356,28.453
	c-5.438,3.311-11.122,6.218-16.579,9.501c-4.964,2.987-5.546,5.076-3.965,10.617c3.906,13.685,12.886,22.722,25.479,28.793
	c2.206,1.063,4.043,3.552,5.301,5.801c4.466,7.988,1.527,19.594-6.814,24.562c-6.712,3.998-12.838,9.048-18.909,14.016
	c-2.441,1.998-3.704,1.51-5.553-0.402c-1.751-1.81-3.796-3.336-6.081-4.645c-1.047-2.118,0.617-6.134-5.203-5.487
	c1.214-1.652,2.014-2.659,2.725-3.725c1.517-2.276,3.313-4.438,4.417-6.905c3.221-7.199,1.108-14.015-6.035-17.361
	c-5.491-2.572-11.583-3.829-17.324-5.901c-10.311-3.722-20.946-6.828-30.75-11.614c-17.598-8.591-22.892-21.693-17.762-40.674
	c3.664-13.556,12.036-24.229,21.17-34.454c1.793-2.007,3.188-4.413,4.507-6.78c0.481-0.863,0.209-2.145-0.217-3.384
	c-1.721,6.414-7.273,9.733-10.819,14.546c-4.485,6.088-8.301,12.671-12.366,19.065c-0.66,1.038-1.113,2.208-1.548,3.088
	c-13.271-2.563-25.726-6.745-37.561-12.727c-4.456-2.252-4.479-2.245-2.42-6.6c7.164-15.149,16.751-28.648,27.889-41.111
	c1.839-2.058,3.077-2.284,5.527-0.562c5.086,3.575,10.405,6.911,15.939,9.737c12.387,6.324,24.95,5.53,36.421-1.808
	c8.241-5.272,15.644-11.923,23.096-18.336C465.505,363.813,468.552,363.302,474.604,366.675z M487.594,312.051
	c-5.022,4.932-11.093,8.8-16.73,13.097c-1.169,0.891-2.508,1.56-3.86,2.388c6.064,4.45,8.759,25.201,3.806,30.877v-7.952
	c-1.752,4.433-1.462,9.946-7.048,11.788c-1.915,0.632-4.214,0.1-6.631-0.364c3.991-3.682,5.589-7.777,3.782-12.893
	c-0.321,1.847-0.203,3.945-1.076,5.478c-1.08,1.898-2.727,4.072-4.613,4.719c-1.429,0.491-4.055-0.765-5.378-2.042
	c-3.445-3.325-3.846-7.791-4.035-12.433c-0.288-7.055-0.76-14.156-1.932-21.107c-1.13-6.697-0.946-8.156,4.763-11.542
	c3.025-1.794,5.387-7.258,4.169-10.325c-0.398-1.003-1.704-1.695-2.683-2.408c-5.03-3.661-10.592-6.759-15.028-11.031
	c-8.524-8.207-11.351-18.812-10.589-30.457c0.03-0.455,0.282-0.895,0.668-2.055c2.721,3.413,5.612,5.905,4.542,10.318
	c-0.201,0.829,0.511,2.344,1.268,2.865c4.094,2.819,8.215,5.644,12.574,8.011c2.185,1.186,4.893,2.138,7.177-0.55
	c0.427-0.502,1.885-0.488,2.719-0.231c12.019,3.714,24.203,4.725,36.656,2.714c0.863-0.139,2.555,0.971,2.86,1.849
	C496.939,292.154,496.671,303.136,487.594,312.051z M449.151,274.72c-0.265,0.669-2.308,1.383-2.966,1.029
	c-4.472-2.403-8.872-4.969-13.095-7.782c-0.825-0.55-1.296-2.539-1.031-3.65c0.865-3.622,2-7.204,3.385-10.659
	c0.298-0.743,2.408-1.558,3.123-1.205c4.352,2.149,8.589,4.548,12.748,7.056c0.901,0.544,1.329,1.873,2.027,2.917
	C451.919,266.724,450.704,270.789,449.151,274.72z M454.407,266.865c7.019,1.563,14.35,1.936,20.411,4.904
	c5.929,2.902,10.667,1.379,16.004-0.005c2.496-0.647,5.089-0.921,7.813-1.394c0.62,3.6-1.713,4.274-3.988,4.885
	c-11.968,3.218-23.933,2.845-35.886-0.114c-0.121-0.03-0.238-0.074-0.359-0.106C452.02,273.305,452.02,273.305,454.407,266.865z
	 M430.267,258.799c-5.063-4.096-5.726-6.854-3.006-12.5C433.318,250.166,434.107,253.445,430.267,258.799z M518.413,340.735
	c3.745,10.96,7.544,21.903,11.318,32.853c-0.402,0.104-0.804,0.209-1.206,0.313c-2.502-6.646-5.089-13.261-7.49-19.943
	c-8.575-23.865-17.086-47.752-25.618-71.632c-0.336-0.941-0.846-1.892-0.867-2.847c-0.015-0.654,0.582-1.76,1.083-1.872
	c0.592-0.132,1.801,0.43,1.998,0.966c0.731,1.982,1.034,4.118,1.713,6.123C505.673,303.385,512.033,322.064,518.413,340.735z
	 M566.352,239.262c5.996,0.577,11.232,2.658,14.561,7.895c1.605,2.525,2.531,5.481,3.764,8.242
	c-0.769,8.294-8.316,15.43-16.951,14.981c-4.024-0.209-8.036-1.539-11.95-2.706c-2.856-0.852-3.359-2.711-1.057-4.939
	c0.446-0.431,0.759-1.011,1.235-1.398c3.418-2.779,4.27-5.388,1.709-9.784C554.288,245.764,559.756,238.628,566.352,239.262z
	 M503.611,271.787c9.813-1.218,16.753-7.018,23.479-13.635c5.385-5.298,11.118-10.393,17.34-14.634
	c3.587-2.445,8.452-3.016,13.659-4.733c-1.266,3.24-2.408,5.124-2.677,7.125c-0.304,2.26-0.568,5.065,0.482,6.847
	c1.84,3.122,0.886,4.935-1.242,7.114c-2.411,2.469-5.384,4.945-2.003,9.55c-11.811,1.866-19.38,10.321-28.725,15.707
	c-5.295,3.052-10.787,5.062-17.025,4.988c-3.049-0.036-4.977-0.717-5.515-4.057c-0.633-3.937-3.658-7.692-1.024-11.817
	C501.058,273.15,502.425,271.934,503.611,271.787z M479.535,271.269c1.642-3.626,5.263-5.415,8.97-5.088
	c2.593,0.229,5.47,0.358,6.523-3.288c0.276-0.957,1.921-1.819,3.099-2.151c2.472-0.697,5.052-1.012,8.383-1.632
	C503.128,265.367,486.694,272.301,479.535,271.269z M485.413,239.225c1.061,2.915,2.883,4.807,0.12,6.325
	c-1.213,0.667-3.015,1.887-4.005-0.601C479.838,240.696,484.391,242.046,485.413,239.225z M480.646,238.298
	c1.395-0.948,2.79-1.897,4.184-2.845c0.362,0.671,1.1,1.884,1.032,1.931c-1.365,0.942-2.822,1.75-4.261,2.584
	C481.283,239.411,480.964,238.854,480.646,238.298z M487.21,246.427c2.192,4.795,2.102,5.053-2.588,7.023
	c-0.571-1.386-1.141-2.768-1.808-4.388C484.331,248.153,485.656,247.359,487.21,246.427z M488.607,252.748
	c2.089,3.259,1.197,4.693-0.79,5.53c-0.422,0.178-1.277-0.668-1.932-1.042C486.675,255.935,487.464,254.633,488.607,252.748z
	 M490.158,259.363c0.406,0.156,0.812,0.312,1.218,0.468c-0.135,1.271-0.27,2.543-0.405,3.814c-1.143-0.512-2.286-1.023-4.198-1.88
	C488.486,260.549,489.322,259.956,490.158,259.363z M514.183,234.979c-0.673-2.445-1.355-4.277-1.667-6.17
	c-1.437-8.717-0.479-17.256,3.176-25.246c1.057-2.31,3.663-4.253,6.007-5.561c4.643-2.589,9.598-4.619,14.89-7.098
	c1.299,5.569,2.593,10.98,3.818,16.407c1.376,6.096,1.346,6.094,7.216,4.107c0.774-0.262,1.595-0.384,3.406-0.808
	C541.631,224.057,527.396,228.108,514.183,234.979z M514.988,199.917c-5.347,11.549-7.24,23.022-2.947,35.683
	c-5.123-0.792-7.714-3.927-9.441-7.661c-3.455-7.469-2.583-15.314,0.174-22.571c0.878-2.311,5.403-3.298,8.337-4.731
	C512.061,200.174,513.26,200.217,514.988,199.917z M514.95,198.276c1.296-6.475,3.401-8.08,8.997-7.85
	c2.536,0.104,5.081,0.018,7.621,0.018c0.117,0.249,0.234,0.498,0.35,0.747C526.431,193.482,520.944,195.773,514.95,198.276z
	 M543.318,209.881c-1.294-5.294-2.771-10.779-3.961-16.325c-1.886-8.795-3.323-6.152,5.109-10.628
	c0.862-0.458,1.831-0.715,3.461-1.335c1.736,7.127,6.034,11.454,13.126,13.281C556.729,201.957,553.557,209.562,543.318,209.881z
	 M552.125,166.551c0.605-2.617,2.521-4.467,5.827-4.233c0,2.897-0.241,5.585,0.121,8.19c0.141,1.017,1.637,1.845,2.516,2.759
	c0.749-1.121,1.99-2.185,2.127-3.375c0.19-1.651,0.019-3.689-0.824-5.048c-2.363-3.807,0.397-5.209,2.822-6.628
	c3.062-1.792,5.826-1.111,7.478,1.514c0.527,0.837,0.981,1.719,1.618,2.845c3.226-2.141,5.267-0.892,6.903,2.664
	c-4.724-0.502-6.294,3.015-8.183,5.898c-0.59,0.9-0.178,2.458-0.224,3.715c1.37,0.043,2.956,0.535,4.053,0.009
	c1.241-0.595,2.187-2.008,3.003-3.238c1.423-2.145,2.662-1.691,4.213,0.029c-1.768,1.475-3.452,2.824-5.072,4.247
	c-1.67,1.467-3.48,2.727-2.505,5.639c0.278,0.832-1.273,2.276-2.054,3.463c-0.021,0.014-0.038,0.021-0.059,0.034
	c-0.003,0.021-0.003,0.04-0.007,0.061c0.003-0.005,0.104-0.117,0.104-0.117c-2.308,5.423-7.334,8.321-12.839,7.404
	c-5.966-0.994-11.324-6.273-11.156-11.931C550.126,175.795,551.07,171.114,552.125,166.551z M578.993,168.145
	c-1.313,1.964-2.626,3.927-3.939,5.891c-0.514-0.335-1.027-0.671-1.541-1.006c1.297-1.973,2.594-3.946,3.891-5.919
	C577.934,167.456,578.463,167.8,578.993,168.145z M536.338,129.183c2.266,4.121-0.104,8.073-2.547,12.245
	c-2.983-4.88-5.676-9.286-8.37-13.692C529.978,126.962,534.246,125.377,536.338,129.183z M529.077,148.845
	c-0.689-3.162-3.462-6.075-0.168-9.316C532.031,142.834,532.078,145.511,529.077,148.845z M429.733,110.306
	c0.977-10.139,5.754-17.716,14.785-22.404c19.891-10.326,40.911-12.472,62.61-7.731c9.824,2.147,17.35,8.09,22.623,16.683
	c2.588,4.219,0.733,8.709-3.995,10.168c-4.755,1.467-5.27,4.544-2.258,8.684c-0.612,12.159-0.696,23.347,3.17,34.201
	c3.077,8.637,7.841,16.03,15.75,20.937c0.261-0.233,0.523-0.466,0.784-0.699c-1.163-1.381-2.325-2.763-3.488-4.144
	c0.114-0.277,0.228-0.553,0.342-0.83c2.637,0.736,5.282,1.444,7.901,2.238c0.409,0.124,0.841,0.577,1.021,0.984
	c1.752,3.962-0.856,10.392-4.648,12.464c-3.203,1.751-6.165,3.947-9.2,5.997c-1.816,1.226-11.389,1.686-15.551,0.335
	c5.465-5.265,10.612-10.224,16.478-15.874c-1.475-1.701-3.531-4.071-5.961-6.873c-1.154,6.704-6.106,9.422-10.021,13.416
	c-0.088-1.383-0.201-2.765-0.256-4.15c-0.054-1.373,0.281-2.854-0.123-4.105c-2.604-8.075,0.542-15.751,1.375-23.593
	c0.26-2.447,0.199-5.012-0.237-7.429c-0.7-3.874-3.575-5.342-6.902-3.264c-3.03,1.893-5.708,4.427-8.283,6.943
	c-1.995,1.95-4.316,2.671-6.4,1.223c-5.878-4.083-12.44-3.85-19.078-3.914c-4.872-0.047-7.114-2.063-8.167-6.935
	c-0.549-2.542-0.747-5.159-1.393-7.695c-1.508,5.115-0.087,9.751,2.61,14.151c-4.181,1.78-4.527,1.462-10.767-9.767
	c-0.329,0.132-0.659,0.263-0.988,0.395c1.398,3.378,2.796,6.756,4.352,10.517c-2.24,0.409-4.834,1.021-7.462,1.265
	c-0.673,0.063-1.518-0.972-2.175-1.615c-2.75-2.695-5.212-5.756-8.249-8.067c-3.249-2.473-5.991-1.176-6.127,2.897
	c-0.195,5.839,0.271,11.698,0.396,17.55c0.032,1.494-0.16,2.993-0.249,4.49c-0.468,0.249-0.936,0.499-1.405,0.748
	c-0.211-0.606-0.348-1.251-0.644-1.812C432.405,141.483,428.167,126.569,429.733,110.306z M519.552,182.911
	c3.769-4.647,7.538-9.295,11.307-13.942c0.501,0.092,1.002,0.184,1.503,0.276c0,1.076,0.464,2.613-0.074,3.153
	c-3.838,3.857-7.881,7.51-11.859,11.228C520.136,183.388,519.844,183.15,519.552,182.911z M518.304,150.79
	c-3.294-2.449-4.298-7.928-10.336-6.748c0.031-0.601,0.063-1.202,0.095-1.802c2.561-1.958,4.997-4.141,7.783-5.697
	c0.609-0.34,3.455,1.439,3.573,2.441c0.441,3.747,0.176,7.578,0.176,11.377C519.165,150.504,518.735,150.647,518.304,150.79z
	 M454.939,141.862c-3.611,2.755-6.875,5.246-10.587,8.078v-17.581C449.476,134.324,451.956,138.347,454.939,141.862z
	 M440.518,182.141c-2.276-10.857,0.316-21.096,5.723-30.609c3.005-5.288,8.772-6.257,13.906-8.035
	c9.73-3.369,19.804-1.488,29.732-1.609c1.973-0.024,3.988,1.282,5.939,2.084c2.972,1.222,5.905,2.538,9.218,3.972
	c0.624-1.522,0.985-2.402,1.538-3.752c2.238,0.884,5.817,1.315,6.176,2.625c1.04,3.801,7.566,5.51,4.259,11.222
	c-2.492-3.027-4.787-5.814-7.083-8.601l-0.845,0.567c0.141,0.364,0.187,0.821,0.438,1.078c8.117,8.315,9.112,18.585,7.719,29.323
	c-0.446,3.434,0.448,6.936-1.821,10.405c-2.802,4.281-5.879,7.989-10.542,9.926c-3.881,1.613-8.058,2.505-12.08,3.793
	c-0.875,0.28-1.791,0.735-2.442,1.363c-6.884,6.645-13.718,13.341-21.297,20.736c-2.562-6.466-5.115-12.1-6.994-17.951
	c-1.163-3.622-2.625-5.962-6.607-7.033c-3.153-0.848-6.089-2.846-8.821-4.761c-1.264-0.886-1.821-2.787-2.673-4.243
	c-0.116-0.199-0.011-0.661-0.125-0.707C438.946,190,441.202,185.402,440.518,182.141z M441.805,200.437
	c0.61-0.987,2.96-1.503,4.336-1.262c1.725,0.302,3.274,1.608,4.887,2.474c-4.044,5.842-7.799,11.265-11.988,17.316
	C437.957,211.968,438.425,205.912,441.805,200.437z M449.21,207.799c1.123-1.731,2.76-3.129,4.818-5.409
	c1.193,2.521,1.912,4.204,2.765,5.816c2.854,5.395,5.857,10.714,8.576,16.175c0.774,1.554,1.004,3.483,1.078,5.257
	c0.123,2.942-0.225,5.906-0.055,8.843c0.047,0.813,1.224,1.56,1.882,2.337c0.674-0.628,1.778-1.158,1.947-1.9
	c0.651-2.859,0.94-5.798,1.496-8.682c0.244-1.267,0.426-2.927,1.278-3.636c8.545-7.112,17.221-14.067,25.876-21.046
	c0.351-0.283,0.862-0.367,1.862-0.772c-3.151,12.808-5.362,25.093,8.824,33.206c-1.551,1.307-2.838,2.392-4.125,3.476
	c0.16,0.244,0.321,0.487,0.481,0.731c2.065-1.08,4.13-2.161,6.978-3.65c-2.87,6.354-5.143,12.002-8.023,17.321
	c-0.694,1.281-3.351,1.644-5.185,2.135c-6.081,1.628-6.202,1.603-7.688-4.397c-1.467-5.924-2.792-11.889-3.961-17.878
	c-0.445-2.28-1.453-2.953-3.597-2.499c-4.139,0.875-6.825,5.242-5.484,9.922c1.579,5.512,3.494,10.949,5.629,16.272
	c1.075,2.68,0.483,3.732-1.686,5.694c-4.764,4.31-9.728,4.221-15.236,2.601c-2.874-0.846-5.813-1.485-8.65-2.433
	c-2.017-0.674-4.611-1.029-4.156-4.247c0.029-0.203-0.142-0.54-0.322-0.651c-5.808-3.587-11.628-7.155-17.446-10.725
	c-3.988,1.703-5.737-1.243-7.153-3.882c-0.82-1.528-0.833-3.684-0.644-5.499c0.148-1.409,1.035-2.813,1.828-4.071
	C437.104,226.709,443.103,217.219,449.21,207.799z M417.992,214.874c3.682-1.848,7.255-3.93,11.007-5.619
	c2.282-1.027,4.812-1.502,7.296-2.244c0,2.087-0.727,5.202,0.151,7.768c1.853,5.413,0.315,9.506-3.049,13.644
	c-1.944,2.392-3.585,5.194-4.684,8.071c-1.523,3.987-4.034,6.007-8.256,6.242c-1.933,0.108-3.841,0.64-5.761,0.98
	c-0.159-0.242-0.318-0.484-0.476-0.726c1.069-1.294,2.039-2.689,3.229-3.86c2.241-2.205,1.861-4.06-0.37-5.981
	c-3.594-3.094-7.132-6.255-10.65-9.434c-0.603-0.545-0.994-1.325-1.719-2.323C409.317,219.135,413.673,217.041,417.992,214.874z
	 M400.646,223.121c0.806-0.285,2.235,0.123,2.917,0.73c3.819,3.4,7.441,7.02,11.248,10.433c1.592,1.427,1.535,2.552,0.223,4.083
	c-2.842,3.317-5.237,7.113-8.482,9.951c-1.86,1.627-5.027,1.76-8.805,2.941c2.195-7.66,1.575-13.681-2.696-19.037
	c0.619,5.949,4.21,12.055-0.865,17.753c-4.703-3.13-3.668-8.115-2.462-11.396c1.53-4.164,1.537-7.331-1.19-11.284
	C394.234,225.733,397.386,224.273,400.646,223.121z M357.722,98.38c19.774,15.263,33.918,34.203,37.83,59.483
	c2.284,14.76,2.352,29.603,0.104,44.42c-0.974,6.42-1.801,12.863-2.676,19.299c-0.456,3.351-2.54,5.17-5.872,4.658
	c-5.222-0.803-10.059,0.289-14.862,2.231c-1.027,0.415-2.789,0.354-3.615-0.274c-16.11-12.245-32.133-24.606-48.165-36.953
	c-0.285-0.22-0.475-0.563-0.971-1.169c4.01-5.636,8.071-11.344,12.132-17.052c-0.31-0.241-0.621-0.483-0.931-0.724
	c-4.216,5.313-8.433,10.625-12.649,15.938c-0.313-0.169-0.626-0.337-0.939-0.506c1.429-6.157,3.54-12.266,1.471-18.725
	c-1.156,5.471-2.312,10.942-3.72,17.6c-8.568-6.598-16.242-12.506-23.916-18.415c0.115-0.335,0.231-0.669,0.346-1.004
	c1.508,0.074,3.072-0.085,4.517,0.259c11.369,2.708,22.39,0.713,33.171-2.757c6.429-2.069,11.832-5.766,14.013-13.658
	c-1.078,0.592-1.704,0.724-1.955,1.104c-6.678,10.104-17.239,12.244-28.084,13.259c-5.033,0.471-10.187-0.406-15.288-0.595
	c-2.81-0.104-5.647,0.156-8.431-0.135c-1.837-0.193-3.788-0.77-5.356-1.722c-2.293-1.392-4.288-3.275-6.593-5.093
	c0.644-0.711,0.71-0.834,0.813-0.891c2.73-1.509,5.432-4.095,8.208-4.178c2.289-0.068,4.667,2.83,7.137,4.502
	c0-0.402,0.125-0.795-0.018-1.012c-3.82-5.795-3.671-5.594,1.927-9.95c11.533-8.975,22.85-18.227,34.346-27.25
	c1.804-1.416,4.16-2.107,6.121-3.353c2.143-1.361,4.125-2.977,6.388-4.636c5.55,9.763,6.004,20.48,3.289,32.185
	c7.203-5.854,4.386-27.011-3.991-34.594c3.545-4.391,7.111-8.806,10.974-13.591C354.216,96.163,356.087,97.119,357.722,98.38z
	 M364.28,63.238c3.823,11.781-10.828,27.884-25.34,26.269c2.7-2.029,4.552-3.747,6.689-4.963c5.589-3.18,10.849-6.7,14.653-12.024
	c0.672-0.941,1.287-1.923,1.929-2.885c-0.233-0.206-0.466-0.412-0.7-0.618c-0.589,0.456-1.318,0.808-1.746,1.384
	c-3.887,5.233-8.942,8.91-14.659,11.989c-3.097,1.668-5.714,4.307-8.325,6.746c-0.748,0.699-0.718,2.232-1.044,3.382
	c1.121,0.185,2.237,0.478,3.364,0.525c1.213,0.051,2.435-0.13,4.148,0.545c-2.269,2.128-4.537,4.257-6.82,6.398
	c-3.182-4.188-6.253-8.04-9.016-12.101c-0.359-0.528,0.564-2.587,1.418-3.173c5.553-3.807,11.159-7.555,16.926-11.026
	C351.83,70.031,358.101,66.705,364.28,63.238z M349.07,66.165c-1.432,6.573-7.574,6.304-11.101,9.742
	C338.031,70.377,339.556,69.05,349.07,66.165z M306.443,77.639c0.61,2.305,1.063,4.016,1.462,5.523
	c1.712-2.165,2.981-4.401,4.833-5.933c1.885-1.56,4.344-2.428,6.751-3.705c0.318,2.192,0.51,3.516,0.702,4.841
	c1.199-0.541,2.362-1.191,3.604-1.6c3.048-1.005,6.132-1.899,9.201-2.838c0.256,0.434,0.512,0.869,0.768,1.303
	c-1.389,2.014-2.63,4.154-4.204,6.011c-2.055,2.422-4.7,2.911-7.981,2.863c-3.629-0.054-7.383,1.013-10.883,2.188
	c-2.377,0.798-3.619,0.617-4.758-1.643C304.743,82.279,303.313,80.077,306.443,77.639z M262.765,117.848
	c9.268-5.411,18.448-10.971,27.666-16.466c0.619-0.369,1.298-0.639,1.92-0.942c1.008,1.448,1.917,2.756,3.022,4.343
	c-0.214,0.711-0.893,1.816-0.784,2.837c0.25,2.365,0.336,5.068,1.588,6.871c0.62,0.893,3.763,0.453,5.599-0.023
	c2.39-0.619,4.648-1.804,6.905-2.868c3.993-1.883,4.729-6.018,0.909-8.326c-3.12-1.885-7.157-2.267-10.806-3.248
	c-0.656-0.176-1.4-0.025-2.767-0.025c2.765-4.063,5.736-7.145,10.309-7.059c4.013,0.075,8.006,1.193,12.009,1.851
	c0.154-0.31,0.308-0.619,0.463-0.929c-3.074-1.391-6.148-2.781-9.19-4.158c3.641-3.912,7.235-4,10.169,0.229
	c2.615,3.77,5.063,7.738,6.954,11.904c1.6,3.523,0.922,7.125-2.389,9.733c-11.284,8.887-22.579,17.762-33.888,26.617
	c-0.542,0.424-1.261,0.623-2.807,1.361c1.26-3.781,2.255-6.769,3.251-9.757c-0.292-0.122-0.585-0.244-0.877-0.366
	c-1.278,2.858-3.013,5.608-3.711,8.601c-0.783,3.361-2.519,5.54-5.347,7.188c-2.992,1.743-5.924,3.588-9.453,5.736
	c-0.495-2.149-0.721-3.716-1.218-5.191c-2.701-8.013-5.388-16.033-8.28-23.977C261.394,120.091,260.703,119.052,262.765,117.848z
	 M300.027,113.691c0.966-3.484,1.917-6.914,3.006-10.841c1.06,0.4,2.731,0.765,4.114,1.603c3.292,1.996,3.124,4.094-0.307,5.821
	C304.456,111.474,302.069,112.667,300.027,113.691z M260.897,124.174c2.691,7.352,4.832,14.908,7.086,22.413
	c0.435,1.447,0.968,3.158-1.655,3.667c-2.426,0.471-2.825-0.658-3.462-2.59c-2.793-8.476-5.816-16.876-8.811-25.462
	C258.101,119.296,259.11,119.292,260.897,124.174z M259.62,173.425c-3.216,2.14-6.444,4.288-9.817,6.162
	c-2.741,1.523-5.222,1.408-7.639-1.324c-1.663-1.88-4.433-2.736-6.418-4.396c-1.058-0.885-1.498-2.507-2.218-3.796
	c1.159-0.481,2.291-1.286,3.481-1.386c5.147-0.431,10.31-0.655,15.468-0.955c0.117-0.331,0.234-0.663,0.351-0.994
	c-1.522-0.473-3.048-1.346-4.566-1.334c-3.108,0.025-6.21,0.541-9.317,0.823c-1.739,0.158-3.52,0.543-5.22,0.328
	c-7.903-0.996-11.046-3.925-10.013-12.011c0.723-5.661,1.196-11.37,1.412-17.072c0.142-3.736,1.672-6.309,5.039-7.522
	c6.336-2.284,12.738-4.399,19.186-6.343c0.844-0.255,2.8,0.665,3.087,1.458c3.002,8.312,5.851,16.683,8.509,25.112
	c0.381,1.209-0.3,2.873-0.794,4.215c-1.094,2.974-1.527,5.62,0.992,8.291C263.787,165.484,262.844,171.279,259.62,173.425z
	 M261.941,157.959c-0.681-2.475,2.083-4.861,4.898-4.787c2.569,0.068,4.243,1.323,4.455,4.007c0.201,2.557-1.895,4.474-6.236,4.537
	C264.385,160.954,262.41,159.664,261.941,157.959z M264.751,169.477c0.264-2.12-1.031-4.678,2.307-4.906
	c0.647-0.044,1.917,1.313,1.998,2.114C269.33,169.415,267.555,169.928,264.751,169.477z M267.148,172.548
	c2.852-2.086,4.847-1.112,6.919,0.217c12.507,8.018,25.096,15.909,37.552,24.005c13.289,8.636,26.466,17.444,39.677,26.2
	c1.284,0.851,2.461,1.865,3.687,2.803c-0.161,0.223-0.322,0.447-0.482,0.67C325.48,208.537,296.459,190.632,267.148,172.548z
	 M135.189,307.385c1.226-2.03,2.589-3.976,3.869-5.974c3.362-5.247,8.041-8.703,13.335-12.105
	c10.776-6.922,20.741-15.107,31.018-22.801c1.069-0.8,1.99-1.798,3.035-2.755c3.233,2.365,6.073,4.471,4.863,8.99
	c-0.256,0.955,0.435,2.396,1.096,3.322c2.64,3.693,2.488,4.054-1.432,6.475c-4.876,3.011-9.853,5.968-14.244,9.604
	c-2.003,1.658-3.187,4.764-3.87,7.436c-0.782,3.058-1.717,4.8-5.214,3.903c-1.179-0.302-2.492-0.206-3.732-0.12
	c-4.027,0.279-5.379,2.414-4.422,6.367c0.459,1.897,0.422,3.915,0.578,5.546c-8.908-2.036-17.108-3.91-25.649-5.862
	C134.535,309.095,134.724,308.156,135.189,307.385z M131.5,313.816c0.447-0.722,1.983-1.309,2.86-1.142
	c7.33,1.389,14.643,2.885,21.905,4.587c1.02,0.239,2.563,1.926,2.419,2.66c-0.271,1.381-1.347,3.317-2.519,3.699
	c-10.687,3.482-21.513,6.414-33.868,5.883C125.574,323.855,128.432,318.771,131.5,313.816z M313.325,246.187
	c-11.269,0.643-22.368,6.561-24.54,13.739c16.945-15.28,34.161-14.791,51.774-2.529
	C337.801,250.995,324.569,245.546,313.325,246.187z M16.895,303.351c4.361,0.099,8.727,0.02,13.09,0.017s8.729,0.089,13.09-0.026
	c5.554-0.146,9.185-3.602,9.387-9.081c0.18-4.855,0.171-9.727,0.012-14.584c-0.182-5.56-3.696-9.117-9.245-9.207
	c-8.849-0.144-17.704-0.152-26.553-0.002c-5.639,0.096-8.983,3.574-9.141,9.255c-0.132,4.734-0.113,9.476-0.01,14.211
	C7.653,299.774,11.089,303.219,16.895,303.351z M9.771,279.985c0.112-4.598,2.646-7.176,7.27-7.231
	c8.608-0.101,17.219-0.098,25.828,0.005c4.632,0.055,7.191,2.622,7.309,7.207c0.119,4.614,0.116,9.235,0.006,13.849
	c-0.11,4.616-2.606,6.998-7.298,7.242c-0.249,0.013-0.499,0.01-0.749,0.01c-4.118,0.001-8.235,0-12.353,0
	c-4.118-0.004-8.236,0.058-12.352-0.02c-5.155-0.099-7.595-2.508-7.677-7.588C9.682,288.969,9.662,284.474,9.771,279.985z
	 M717.256,49.064c4.365,0.093,8.734,0.018,13.101,0.024c2.121,0.005,4.242,0.006,6.364,0.005c2.246-0.002,4.494,0.055,6.737-0.021
	c5.714-0.195,9.27-3.722,9.412-9.482c0.114-4.614,0.102-9.234,0.003-13.849c-0.126-5.834-3.826-9.587-9.673-9.66
	c-8.608-0.107-17.219-0.102-25.827,0.003c-5.786,0.07-9.346,3.594-9.514,9.354c-0.139,4.737-0.122,9.484-0.008,14.223
	C707.99,45.497,711.453,48.94,717.256,49.064z M710.11,25.585c0.126-4.613,2.664-7.01,7.394-7.104
	c4.245-0.085,8.494-0.018,12.742-0.018c4.247-0.009,8.496-0.07,12.742,0.007c4.885,0.089,7.457,2.536,7.585,7.341
	c0.123,4.619,0.125,9.246-0.006,13.865c-0.123,4.335-2.752,7.085-7.055,7.153c-8.742,0.137-17.489,0.127-26.232,0.014
	c-4.376-0.057-7.038-2.702-7.17-7.018C709.964,35.082,709.981,30.329,710.11,25.585z M717.327,252.746
	c4.372,0.091,8.747,0.018,13.121,0.017c4.249-0.001,8.499,0.071,12.746-0.018c5.989-0.125,9.584-3.662,9.714-9.596
	c0.101-4.621,0.102-9.249-0.007-13.87c-0.137-5.813-3.908-9.534-9.773-9.588c-8.497-0.079-16.996-0.067-25.493,0.008
	c-6.045,0.053-9.662,3.516-9.838,9.46c-0.14,4.744-0.154,9.5,0.003,14.244C707.992,249.24,711.497,252.625,717.327,252.746z
	 M710.041,229.339c0.133-4.677,2.625-7.134,7.274-7.248c4.364-0.107,8.733-0.023,13.1-0.023c4.242-0.001,8.486-0.076,12.726,0.018
	c4.851,0.108,7.378,2.608,7.486,7.432c0.101,4.489,0.097,8.984,0,13.474c-0.104,4.769-2.713,7.421-7.479,7.47
	c-8.608,0.088-17.219,0.089-25.827-0.009c-4.56-0.052-7.149-2.664-7.278-7.268C709.915,238.574,709.91,233.952,710.041,229.339z
	 M717.379,201.835c4.247,0.085,8.497,0.017,12.745,0.019c4.124,0.003,8.247,0.003,12.371,0.003c0.25,0,0.5,0.001,0.75-0.007
	c5.886-0.185,9.541-3.774,9.667-9.68c0.099-4.621,0.109-9.249-0.003-13.869c-0.137-5.671-3.783-9.42-9.452-9.505
	c-8.745-0.131-17.495-0.128-26.24,0.003c-5.76,0.086-9.258,3.661-9.422,9.477c-0.134,4.744-0.144,9.5,0.011,14.243
	C707.997,198.297,711.569,201.719,717.379,201.835z M710.044,178.238c0.144-4.521,2.862-7.14,7.407-7.183
	c8.613-0.082,17.228-0.094,25.84,0.002c4.519,0.051,7.198,2.749,7.319,7.272c0.123,4.616,0.13,9.239,0.01,13.855
	c-0.123,4.755-2.759,7.256-7.605,7.341c-4.243,0.075-8.488,0.016-12.733,0.016v-0.014c-4.369,0-8.74,0.087-13.107-0.024
	c-4.36-0.111-6.982-2.659-7.123-7.036C709.899,187.728,709.894,182.977,710.044,178.238z M743.226,270.646
	c-8.604-0.088-17.211-0.094-25.816-0.003c-5.894,0.062-9.363,3.429-9.548,9.257c-0.15,4.734-0.135,9.48-0.012,14.216
	c0.153,5.886,3.532,9.275,9.387,9.438c4.362,0.122,8.729,0.024,13.094,0.019c4.365-0.005,8.732,0.088,13.094-0.028
	c5.705-0.151,9.301-3.752,9.433-9.438c0.107-4.612,0.101-9.23,0.003-13.842C752.737,274.365,749.105,270.706,743.226,270.646z
	 M750.564,294.108c-0.13,4.526-2.771,7.127-7.388,7.18c-8.612,0.1-17.227,0.105-25.838-0.017c-4.609-0.065-7.113-2.657-7.235-7.309
	c-0.121-4.615-0.13-9.24,0.005-13.854c0.135-4.594,2.709-7.049,7.371-7.149c4.242-0.091,8.488-0.019,12.732-0.019
	c4.244-0.004,8.489-0.059,12.732,0.011c4.877,0.081,7.495,2.541,7.623,7.303C750.691,284.869,750.697,289.493,750.564,294.108z
	 M707.811,599.741c0.157,5.84,3.609,9.282,9.414,9.435c4.369,0.115,8.743,0.023,13.114,0.027c4.372,0.004,8.746,0.104,13.114-0.021
	c5.764-0.166,9.296-3.71,9.442-9.463c0.117-4.619,0.112-9.244,0.012-13.863c-0.128-5.861-3.766-9.602-9.662-9.696
	c-8.616-0.139-17.238-0.134-25.854-0.007c-5.823,0.086-9.368,3.596-9.561,9.352C707.671,590.245,707.684,594.999,707.811,599.741z
	 M710.044,585.868c0.147-4.825,2.728-7.352,7.568-7.402c8.484-0.087,16.971-0.093,25.455,0.009c4.843,0.058,7.417,2.638,7.535,7.429
	c0.113,4.614,0.124,9.236-0.008,13.849c-0.129,4.528-2.803,7.097-7.373,7.191c-4.366,0.089-8.734,0.019-13.102,0.019
	c-4.243,0-8.487,0.075-12.727-0.02c-4.554-0.102-7.2-2.666-7.339-7.226C709.914,595.104,709.904,590.481,710.044,585.868z
	 M16.575,99.669c8.855,0.15,17.715,0.136,26.571,0.014c5.467-0.075,9.156-3.745,9.329-9.176c0.154-4.86,0.153-9.733,0.008-14.594
	c-0.164-5.506-3.761-9.005-9.301-9.144c-4.364-0.109-8.732-0.022-13.098-0.023c-4.491-0.001-8.985-0.098-13.473,0.024
	c-5.438,0.147-8.898,3.518-9.066,8.922c-0.154,4.985-0.154,9.983,0,14.968C7.712,96.045,11.186,99.578,16.575,99.669z M9.75,76.562
	c0.08-4.801,2.639-7.518,7.367-7.575c8.615-0.104,17.233-0.108,25.847,0.005c4.522,0.06,7.136,2.771,7.243,7.334
	c0.109,4.617,0.12,9.242-0.013,13.859c-0.13,4.536-2.771,7.092-7.372,7.207c-4.243,0.106-8.49,0.023-12.736,0.023
	c-4.246,0.005-8.493,0.076-12.736-0.014c-4.997-0.105-7.519-2.689-7.596-7.729C9.688,85.303,9.677,80.931,9.75,76.562z
	 M716.999,99.836c4.365,0.113,8.735,0.023,13.102,0.023v0.014c2.246,0,4.493,0.001,6.739,0c2.246-0.002,4.494,0.051,6.738-0.021
	c5.29-0.17,9.066-3.648,9.253-8.838c0.184-5.109,0.193-10.237-0.014-15.345c-0.2-4.916-3.766-8.591-8.611-8.687
	c-9.231-0.182-18.47-0.192-27.7-0.003c-4.999,0.102-8.406,3.604-8.61,8.621c-0.207,5.108-0.2,10.236-0.013,15.345
	C708.082,96.384,711.552,99.695,716.999,99.836z M710.093,76.725c0.096-4.82,2.638-7.475,7.416-7.534
	c8.493-0.103,16.989-0.098,25.482-0.004c4.936,0.055,7.517,2.766,7.595,7.765c0.069,4.371,0.081,8.745-0.007,13.115
	c-0.096,4.79-2.681,7.335-7.442,7.527c-0.25,0.01-0.5,0.008-0.75,0.008c-3.997,0-7.995,0-11.992,0
	c-4.122,0.007-8.245,0.054-12.367-0.004c-5.316-0.075-7.86-2.548-7.944-7.758C710.015,85.47,710.005,81.095,710.093,76.725z
	 M752.914,382.305c-0.117-6.129-3.718-9.679-9.904-9.801c-4.121-0.081-8.245-0.015-12.367-0.017
	c-4.497-0.002-8.997-0.107-13.491,0.025c-5.614,0.165-9.15,3.618-9.322,9.159c-0.151,4.867-0.153,9.747,0,14.614
	c0.176,5.597,3.619,9.138,9.251,9.245c8.866,0.168,17.741,0.17,26.606-0.017c5.528-0.117,9.032-3.807,9.202-9.341
	C753.031,391.552,753.003,386.925,752.914,382.305z M750.585,396.207c-0.127,4.274-2.817,7.021-7.135,7.088
	c-8.735,0.135-17.475,0.129-26.21-0.002c-4.36-0.065-7.011-2.711-7.167-7.047c-0.171-4.737-0.15-9.487-0.017-14.227
	c0.129-4.587,2.731-7.121,7.329-7.231c4.366-0.105,8.737-0.023,13.105-0.023c4.244-0.001,8.489-0.075,12.731,0.019
	c4.563,0.1,7.245,2.679,7.369,7.195C750.72,386.719,750.727,391.468,750.585,396.207z M43.06,117.64
	c-4.362-0.115-8.73-0.023-13.096-0.027c-4.241-0.004-8.483-0.066-12.722,0.011c-6.245,0.113-9.637,3.542-9.735,9.839
	c-0.07,4.489-0.079,8.982,0.01,13.47c0.121,6.057,3.555,9.606,9.553,9.681c8.605,0.108,17.213,0.104,25.818-0.004
	c5.847-0.073,9.484-3.798,9.612-9.693c0.099-4.613,0.119-9.232-0.007-13.844C52.334,121.277,48.838,117.792,43.06,117.64z
	 M50.226,140.353c-0.078,5.341-2.527,7.828-7.797,7.912c-4.121,0.066-8.244,0.013-12.366,0.013
	c-4.122,0.007-8.244,0.045-12.366-0.002c-5.373-0.061-7.865-2.467-7.947-7.728c-0.068-4.371-0.078-8.745,0.004-13.115
	c0.094-4.981,2.686-7.541,7.75-7.579c8.368-0.062,16.738-0.071,25.106,0.017c4.992,0.052,7.515,2.671,7.609,7.741
	C50.3,131.858,50.288,136.107,50.226,140.353z M743.83,117.875c-8.981-0.153-17.969-0.153-26.95-0.01
	c-5.395,0.086-8.832,3.596-9.009,9.02c-0.159,4.861-0.148,9.734-0.016,14.597c0.155,5.749,3.746,9.232,9.521,9.351
	c4.241,0.087,8.484,0.017,12.727,0.015c4.492-0.002,8.987,0.104,13.475-0.03c5.271-0.157,9.058-3.733,9.252-8.893
	c0.192-5.108,0.205-10.237-0.016-15.343C752.591,121.45,749.013,117.963,743.83,117.875z M750.56,141.398
	c-0.131,4.398-2.713,6.924-7.102,7.035c-4.37,0.111-8.744,0.024-13.117,0.024c-4.372-0.001-8.747,0.081-13.117-0.024
	c-4.44-0.107-6.975-2.568-7.107-7.007c-0.142-4.743-0.143-9.496-0.003-14.239c0.129-4.382,2.751-7.019,7.088-7.069
	c8.744-0.101,17.49-0.103,26.234,0c4.341,0.051,7.01,2.72,7.13,7.041C750.698,131.902,750.701,136.655,750.56,141.398z
	 M43.015,474.152c-8.728-0.121-17.46-0.121-26.188-0.006c-5.63,0.074-9.122,3.547-9.283,9.126c-0.14,4.86-0.14,9.729-0.011,14.589
	c0.151,5.716,3.747,9.144,9.576,9.252c4.239,0.078,8.48,0.015,12.72,0.016c4.365,0.001,8.731,0.074,13.094-0.017
	c5.677-0.118,9.372-3.69,9.55-9.349c0.149-4.734,0.144-9.48,0.01-14.215C52.32,477.799,48.771,474.232,43.015,474.152z
	 M50.186,497.388c-0.118,4.854-2.613,7.248-7.553,7.335c-4.242,0.074-8.487,0.015-12.731,0.015
	c-4.244,0.008-8.489,0.078-12.731-0.011c-4.86-0.101-7.321-2.58-7.413-7.468c-0.084-4.492-0.092-8.988,0.006-13.479
	c0.103-4.742,2.744-7.36,7.532-7.401c8.487-0.073,16.976-0.086,25.462,0.009c4.732,0.053,7.337,2.743,7.434,7.521
	C50.282,488.401,50.294,492.898,50.186,497.388z M43.145,525.004c-8.725-0.132-17.455-0.124-26.18-0.001
	c-5.809,0.082-9.282,3.607-9.428,9.401c-0.12,4.734-0.124,9.477-0.006,14.211c0.144,5.785,3.65,9.254,9.451,9.394
	c4.361,0.105,8.727,0.021,13.09,0.019c4.364-0.002,8.73,0.1,13.09-0.028c5.471-0.161,9.116-3.728,9.308-9.216
	c0.17-4.856,0.168-9.728-0.005-14.584C52.27,528.718,48.624,525.086,43.145,525.004z M50.199,547.971
	c-0.093,5.085-2.588,7.614-7.616,7.714c-4.244,0.085-8.49,0.018-12.735,0.018c-4.12,0-8.242,0.053-12.361-0.014
	c-5.099-0.082-7.633-2.548-7.729-7.57c-0.084-4.369-0.081-8.741-0.004-13.11c0.091-5.113,2.576-7.685,7.585-7.73
	c8.365-0.076,16.732-0.069,25.097-0.004c5.06,0.04,7.647,2.586,7.755,7.586C50.285,539.23,50.279,543.603,50.199,547.971z
	 M707.863,548.835c0.17,5.791,3.695,9.233,9.487,9.374c4.238,0.103,8.48,0.02,12.72,0.018c4.49-0.002,8.982,0.099,13.468-0.028
	c5.451-0.155,9.133-3.784,9.3-9.224c0.149-4.859,0.152-9.73,0.003-14.589c-0.162-5.302-3.684-9.016-8.979-9.132
	c-8.975-0.197-17.96-0.194-26.936-0.025c-5.389,0.101-8.852,3.649-9.046,9.018C707.706,539.104,707.721,543.975,707.863,548.835z
	 M710.105,534.87c0.128-4.787,2.732-7.36,7.559-7.407c8.493-0.082,16.989-0.081,25.481,0.007c4.572,0.047,7.269,2.659,7.407,7.182
	c0.145,4.742,0.158,9.496,0.002,14.237c-0.144,4.369-2.755,6.85-7.189,6.964c-4.369,0.112-8.743,0.024-13.115,0.024
	c-4.122-0.001-8.245,0.044-12.366-0.012c-5.158-0.07-7.67-2.447-7.79-7.507C709.988,543.865,709.986,539.364,710.105,534.87z
	 M42.798,608.991c5.978-0.111,9.574-3.616,9.723-9.558c0.116-4.617,0.112-9.242-0.004-13.859c-0.147-5.85-3.843-9.563-9.716-9.636
	c-8.615-0.108-17.233-0.114-25.848,0.004c-5.772,0.079-9.308,3.666-9.449,9.434c-0.116,4.742-0.117,9.492-0.004,14.234
	c0.138,5.797,3.633,9.242,9.451,9.367c4.368,0.094,8.741,0.019,13.111,0.019v0.011C34.307,609.007,38.554,609.07,42.798,608.991z
	 M17.311,606.784c-4.81-0.047-7.472-2.643-7.596-7.369c-0.121-4.611-0.118-9.231,0.005-13.842c0.123-4.645,2.656-7.069,7.267-7.258
	c0.125-0.005,0.249-0.004,0.374-0.004c4.24,0,8.481,0,12.721,0c4.24,0.007,8.482-0.062,12.721,0.025
	c4.812,0.099,7.316,2.608,7.424,7.475c0.1,4.488,0.102,8.981,0.002,13.468c-0.106,4.766-2.719,7.438-7.477,7.494
	C34.273,606.875,25.791,606.867,17.311,606.784z M16.895,48.866c8.73,0.126,17.465,0.13,26.195-0.009
	c5.757-0.092,9.251-3.694,9.402-9.477c0.121-4.612,0.114-9.233,0.005-13.846c-0.139-5.902-3.795-9.54-9.644-9.656
	c-4.24-0.084-8.482-0.016-12.724-0.017c-4.366,0-8.733-0.065-13.098,0.016c-5.78,0.107-9.362,3.604-9.498,9.34
	c-0.113,4.738-0.109,9.482-0.011,14.22C7.644,45.269,11.055,48.782,16.895,48.866z M9.775,25.414
	c0.11-4.604,2.634-7.133,7.327-7.185c8.616-0.095,17.236-0.099,25.852,0.022c4.656,0.065,7.125,2.61,7.247,7.29
	c0.121,4.618,0.134,9.244,0.002,13.862c-0.13,4.552-2.771,7.1-7.374,7.207c-4.369,0.101-8.742,0.022-13.113,0.022
	c-4.122,0.009-8.244,0.067-12.364-0.006c-4.843-0.085-7.489-2.618-7.59-7.35C9.664,34.658,9.665,30.033,9.775,25.414z
	 M7.524,344.835c0.133,5.937,3.696,9.354,9.752,9.448c4.239,0.065,8.48,0.013,12.72,0.012s8.481,0.064,12.72-0.016
	c5.952-0.112,9.608-3.635,9.77-9.51c0.127-4.611,0.119-9.23,0.004-13.841c-0.149-5.95-3.696-9.574-9.643-9.662
	c-8.603-0.127-17.21-0.122-25.813,0.003c-5.811,0.084-9.338,3.609-9.498,9.351C7.403,335.355,7.417,340.099,7.524,344.835z
	 M9.773,330.79c0.114-4.506,2.771-7.201,7.334-7.259c8.616-0.11,17.236-0.109,25.851,0.02c4.536,0.068,7.118,2.779,7.229,7.369
	c0.111,4.618,0.119,9.244-0.009,13.861c-0.127,4.584-2.712,7.071-7.354,7.167c-4.369,0.09-8.742,0.019-13.113,0.019
	c-4.121,0.004-8.244,0.059-12.364-0.01c-4.93-0.083-7.466-2.493-7.576-7.305C9.665,340.034,9.655,335.408,9.773,330.79z
	 M752.891,432.957c-0.148-5.838-3.858-9.42-9.79-9.534c-4.247-0.082-8.497-0.016-12.746-0.016v0.015c-4.374,0-8.749-0.08-13.12,0.02
	c-5.619,0.129-9.217,3.534-9.407,9.078c-0.171,4.992-0.17,10,0.018,14.992c0.204,5.424,3.649,8.822,9.144,8.91
	c8.87,0.143,17.745,0.136,26.615-0.005c5.578-0.088,9.123-3.677,9.285-9.217C753.028,442.456,753.011,437.702,752.891,432.957z
	 M750.6,446.746c-0.106,4.731-2.742,7.432-7.509,7.493c-8.607,0.111-17.219,0.108-25.826-0.016
	c-4.464-0.064-7.093-2.808-7.223-7.381c-0.131-4.613-0.132-9.235,0.006-13.847c0.139-4.653,2.654-7.095,7.315-7.203
	c4.364-0.101,8.733-0.022,13.1-0.022v0.017c4.367,0,8.736-0.094,13.1,0.026c4.362,0.12,6.917,2.7,7.026,7.083
	C750.703,437.512,750.703,442.132,750.6,446.746z M52.493,432.315c-0.176-5.262-3.807-8.98-9.058-9.07
	c-8.99-0.155-17.987-0.164-26.976,0.011c-5.381,0.104-8.787,3.701-8.939,9.118c-0.137,4.867-0.143,9.744-0.016,14.611
	c0.147,5.649,3.577,9.069,9.198,9.22c4.368,0.117,8.742,0.023,13.114,0.023v0.016c4.122,0,8.243,0,12.365,0
	c0.25,0,0.5,0.002,0.749-0.007c5.845-0.211,9.408-3.569,9.575-9.311C52.646,442.059,52.656,437.18,52.493,432.315z M50.233,446.362
	c-0.101,4.995-2.653,7.545-7.72,7.596c-8.352,0.084-16.707,0.081-25.059,0.005c-5.061-0.046-7.634-2.578-7.748-7.567
	c-0.103-4.486-0.107-8.978,0.006-13.464c0.121-4.81,2.659-7.291,7.526-7.402c4.237-0.097,8.477-0.02,12.716-0.02
	c4.114-0.004,8.229-0.054,12.343,0.009c5.336,0.082,7.849,2.532,7.933,7.752C50.301,437.635,50.321,442.001,50.233,446.362z
	 M16.595,201.642c8.867,0.159,17.74,0.152,26.607,0c5.492-0.094,9.137-3.785,9.314-9.253c0.158-4.867,0.168-9.747-0.001-14.613
	c-0.192-5.513-3.856-9.029-9.359-9.148c-4.37-0.095-8.744-0.019-13.117-0.018c-4.372,0.001-8.746-0.068-13.117,0.019
	c-5.661,0.112-9.234,3.45-9.429,9.014c-0.174,4.99-0.169,9.997,0.01,14.987C7.697,197.987,11.22,201.545,16.595,201.642z
	 M9.712,178.139c0.123-4.62,2.676-7.188,7.27-7.236c8.609-0.089,17.22-0.089,25.829-0.005c4.802,0.047,7.317,2.622,7.421,7.489
	c0.096,4.49,0.096,8.985-0.002,13.476c-0.104,4.788-2.694,7.306-7.475,7.497c-0.249,0.01-0.499,0.006-0.749,0.006
	c-3.993,0-7.986,0-11.979,0c-4.118,0.003-8.236,0.046-12.353-0.008c-5.292-0.069-7.882-2.556-7.979-7.743
	C9.613,187.124,9.593,182.628,9.712,178.139z M7.503,395.821c0.129,5.863,3.537,9.301,9.355,9.445
	c4.368,0.108,8.741,0.021,13.112,0.027c4.121,0.005,8.242,0.006,12.363,0.005c0.25,0,0.5,0.002,0.749-0.008
	c5.748-0.232,9.289-3.702,9.432-9.471c0.117-4.743,0.135-9.493-0.001-14.235c-0.158-5.483-3.739-9.213-9.236-9.319
	c-8.863-0.172-17.734-0.168-26.597,0.002c-5.584,0.107-9.023,3.725-9.17,9.318C7.385,386.329,7.398,391.078,7.503,395.821z
	 M9.742,381.498c0.147-4.316,2.835-6.824,7.229-6.927c4.363-0.101,8.731-0.022,13.097-0.022c4.241,0.001,8.484-0.074,12.723,0.021
	c4.646,0.104,7.284,2.594,7.418,7.128c0.139,4.736,0.132,9.482,0.004,14.218c-0.117,4.349-2.701,7.018-7.068,7.083
	c-8.854,0.131-17.713,0.14-26.567,0.001c-4.132-0.065-6.709-2.74-6.841-6.911C9.584,391.23,9.576,386.357,9.742,381.498z
	 M743.306,321.529c-8.731-0.107-17.466-0.114-26.196,0.015c-5.626,0.083-9.064,3.549-9.239,9.183
	c-0.147,4.736-0.134,9.482-0.019,14.22c0.145,5.988,3.663,9.456,9.677,9.598c4.239,0.1,8.482,0.019,12.724,0.019
	c4.366,0,8.736,0.113,13.097-0.028c5.699-0.185,9.36-3.828,9.507-9.444c0.123-4.737,0.134-9.483-0.007-14.22
	C752.68,325.165,749.07,321.6,743.306,321.529z M750.577,344.625c-0.118,4.994-2.692,7.489-7.771,7.586
	c-4.244,0.08-8.491,0.016-12.736,0.016c-3.996-0.003-7.992,0.04-11.987-0.014c-5.351-0.072-7.893-2.503-7.995-7.729
	c-0.085-4.369-0.089-8.742,0.008-13.111c0.111-5.002,2.667-7.535,7.75-7.584c8.366-0.08,16.733-0.09,25.098,0.005
	c4.993,0.057,7.541,2.688,7.64,7.721C750.671,335.883,750.68,340.257,750.577,344.625z M717.603,507.3
	c4.239,0.082,8.481,0.016,12.722,0.011c4.365-0.005,8.734,0.092,13.096-0.029c5.664-0.157,9.288-3.8,9.427-9.462
	c0.113-4.612,0.107-9.231,0.014-13.844c-0.117-5.794-3.526-9.491-9.259-9.61c-8.852-0.183-17.713-0.173-26.565-0.002
	c-5.649,0.109-9.007,3.599-9.179,9.251c-0.144,4.735-0.125,9.481-0.002,14.218C708.013,503.839,711.487,507.181,717.603,507.3z
	 M710.106,483.758c0.135-4.523,2.804-7.13,7.396-7.182c8.489-0.096,16.98-0.103,25.468-0.004c4.949,0.058,7.527,2.756,7.619,7.765
	c0.08,4.368,0.088,8.741-0.014,13.108c-0.115,4.907-2.534,7.362-7.431,7.495c-4.367,0.119-8.739,0.025-13.109,0.025
	c-4.12-0.007-8.241,0.059-12.36-0.024c-4.976-0.101-7.445-2.452-7.574-7.326C709.979,492.998,709.968,488.373,710.106,483.758z
	 M52.541,229.124c-0.152-5.892-3.818-9.497-9.714-9.617c-4.37-0.089-8.744-0.018-13.117-0.023c-2.124-0.005-4.247-0.005-6.371-0.005
	c-2.124,0.001-4.249-0.055-6.371,0.015c-5.811,0.191-9.324,3.605-9.486,9.408c-0.133,4.743-0.133,9.496-0.013,14.24
	c0.147,5.808,3.621,9.322,9.457,9.403c8.743,0.122,17.49,0.131,26.233-0.014c5.711-0.095,9.238-3.774,9.381-9.543
	C52.655,238.37,52.661,233.743,52.541,229.124z M50.225,242.849c-0.109,4.77-2.689,7.247-7.507,7.442
	c-0.249,0.01-0.499,0.007-0.748,0.007c-3.991,0-7.981,0-11.972,0c-4.115,0.001-8.231,0.048-12.346-0.01
	c-5.291-0.075-7.873-2.574-7.959-7.745c-0.072-4.363-0.071-8.73,0.011-13.093c0.093-4.965,2.472-7.488,7.315-7.54
	c8.604-0.093,17.21-0.085,25.813,0.008c4.888,0.053,7.304,2.54,7.401,7.464C50.323,233.869,50.328,238.362,50.225,242.849z
	 M480.419,409.033c0.207,5.848,1.348,12.579,0.437,19.02c-1.045,7.385-8.369,10.304-13.553,14.635
	C483.306,437.513,489.827,418.98,480.419,409.033z M486.639,522.487c6.057-5.434,6.363-10.809,1.418-15.46
	c0.568,2.563,1.65,4.954,1.452,7.235C489.297,516.728,487.889,519.091,486.639,522.487z M369.998,159.331
	c3.737,19.249-5.378,34.157-16.373,48.43C367.363,198.933,376.967,170.502,369.998,159.331z M449.435,161.787
	c2.055-0.092,3.906-0.219,5.759-0.247c3.471-0.052,6.479,0.083,9.269,3.278c2.378,2.724,1.179,5.124,1.193,7.631
	c0.007,1.153-1.207,3.136-2.107,3.284c-1.465,0.241-3.187-0.579-4.677-1.232c-0.621-0.272-0.926-1.264-1.375-1.928
	c-0.381,0.23-0.762,0.461-1.142,0.691c1.193,1.87,2.294,3.812,3.645,5.561c0.337,0.436,1.801,0.628,2.205,0.288
	c3.364-2.832,4.266-0.253,5.134,2.259c0.446,1.289,0.451,2.748,0.995,3.981c0.655,1.483,1.537,3.842,2.558,3.974
	c1.826,0.235,4.419-0.347,5.633-1.607c2.286-2.372,3.786-5.493,5.679-8.256c1.134-1.655,2.394-3.224,4.107-5.512
	c-1.552-0.918-3.507-2.075-5.462-3.232c0.263,0.986,1.134,1.379,1.237,1.918c0.135,0.707-0.084,1.848-0.59,2.25
	c-2.886,2.296-6.202,3.273-9.82,2.138c-3.306-1.037-3.26-4.043-3.596-6.765c-0.284-2.299,0.368-3.842,2.554-5.202
	c3.505-2.182,4.378-5.19,2.248-6.082c-3.207-1.344-2.916-3.672-3.285-6.258c-0.966-6.76-4.103-8.631-10.382-6.565
	c-0.83,0.273-1.657,0.558-2.483,0.845c-9.158,3.183-9.15,3.181-7.194,12.774C449.648,160.322,449.486,160.928,449.435,161.787z
	 M470.194,178.524c3.214,0.969,6.442,4.592,9.752-1.323c-0.457,5.21-0.457,5.21-9.769,6.562c-0.831-1.987-1.592-3.807-2.555-6.109
	C468.732,178.031,469.456,178.302,470.194,178.524z M470.436,159.522c0.244,0.732,0.489,1.464,0.733,2.196
	c-1.582,0.59-3.139,1.301-4.772,1.647c-0.266,0.057-0.874-1.496-1.324-2.305C466.86,160.547,468.648,160.034,470.436,159.522z
	 M454.081,149.526c2.12-0.718,4.276-1.334,6.429-1.951c3.919-1.123,5.508-0.37,6.638,3.555c0.811,2.815,2.068,5.915-2.751,6.787
	c-2.262,0.409-4.358,1.731-6.53,2.639c-3.066-0.629-5.861-0.271-7.112-3.751C449.486,153.272,450.529,150.73,454.081,149.526z
	 M484.451,163.554c4.928,0.298,9.888,0.069,14.99,0.069c0.703-1.334,1.581-2.448,1.887-3.701c0.541-2.217,1.486-4.724,0.933-6.746
	c-1.701-6.227-6.807-8.646-12.697-9.269c-4.778-0.505-7.761,2.836-10.059,6.353C476.738,154.496,480.088,163.29,484.451,163.554z
	 M483.89,148.485c4.648-3.279,12.185-1.878,15.259,2.873c1.525,2.357,1.89,4.768,0.39,7.364c-1.441,2.494-3.425,3.426-6.229,2.812
	c-0.84-0.184-1.732-0.131-2.601-0.186c-0.148,0.331-0.297,0.663-0.445,0.994c-2.742-1.242-6.109-1.868-8.081-3.869
	C479.211,155.454,480.37,150.968,483.89,148.485z M474.313,169.491c2.774,0.072,5.558-0.237,8.338-0.402
	c0.001-0.395,0.002-0.79,0.003-1.185c-2.227,0.138-4.455,0.276-6.682,0.414l-0.087-0.579c1.199-0.526,2.397-1.051,3.596-1.576
	c-1.879-0.322-3.625-0.337-5.304-0.008c-0.761,0.149-1.388,0.982-2.076,1.504C472.837,168.301,473.56,169.472,474.313,169.491z
	 M237.108,130.247c0.088,0.91,0.176,1.82,0.288,2.981c-1.12,1.82-2.762,3.906-3.753,6.266c-0.982,2.339-1.307,4.953-1.983,7.706
	c0.298,0.042,1.018,0.35,1.622,0.198c4.066-1.025,9.688-7.589,9.738-11.76c0.021-1.727-0.555-3.816-1.637-5.07
	C240.722,129.802,238.583,130.311,237.108,130.247z M236.824,142.507c-0.552-0.345-1.104-0.69-1.656-1.036
	c1.388-2.249,2.775-4.499,4.163-6.748c0.52,0.311,1.039,0.623,1.559,0.934C239.535,137.94,238.179,140.224,236.824,142.507z
	 M561.851,174.916c-1.433,0.551-2.819,2.454-3.231,4c-0.274,1.028,1.139,2.581,1.952,3.795c0.529,0.789,1.63,1.271,1.97,2.098
	c1.671,4.067,4.544,2.237,7.164,1.712c-1.471-0.907-3.291-0.847-4.61-1.631c-1.493-0.888-2.409-2.692-3.807-3.81
	c-2.029-1.623-2.005-2.952,0.35-4.138c4.659-2.347,10.717,1.495,10.578,6.825c-0.044,1.672,0.195,2.188,1.669,1.269
	C575.071,177.97,568.562,172.337,561.851,174.916z M567.287,171.946c0.815,0.211,2.375-0.402,2.793-1.125
	c1.015-1.755,1.555-3.783,2.459-6.152c-0.795-1.421-1.441-2.934-2.456-4.135c-0.259-0.306-2.314,0.163-2.481,0.644
	c-0.953,2.75-1.744,5.585-2.21,8.452C565.279,170.328,566.471,171.735,567.287,171.946z M568.171,162.439
	c0.494,0.078,0.987,0.157,1.481,0.235c1.241,2.622,0.641,5.007-1.101,7.245c-0.548-0.114-1.097-0.229-1.645-0.343
	C567.327,167.198,567.749,164.818,568.171,162.439z M439.583,255.891c-0.862-0.393-2.972,0.219-3.462,1.016
	c-3.517,5.715-2.586,9.047,3.183,12.508c1.989,1.193,4.017,2.32,6.713,3.872c1.261-3.926,2.407-7.493,3.655-11.38
	c-0.673-0.492-1.143-0.897-1.668-1.209C445.222,259.044,442.512,257.227,439.583,255.891z M444.936,269.217
	c-7.97-1.462-10.099-4.813-6.914-11.298C446.944,261.258,448.028,263.076,444.936,269.217z M459.748,156.896
	c0.964,0,1.745-0.781,1.745-1.745s-0.781-1.745-1.745-1.745s-1.745,0.781-1.745,1.745S458.784,156.896,459.748,156.896z
	 M489.748,156.896c0.964,0,1.745-0.781,1.745-1.745s-0.781-1.745-1.745-1.745s-1.745,0.781-1.745,1.745
	S488.784,156.896,489.748,156.896z"/>
</svg>
